<svg width="1009" height="310" viewBox="0 0 1009 310" fill="none" xmlns="http://www.w3.org/2000/svg">
<g filter="url(#filter0_d)">
<path d="M6.53125 13.6V15.3C10.9313 15.3 12.3313 21.2 12.3313 27.4V70.3C12.3313 77.1 10.8313 82.3 6.53125 82.3V84H35.4313V82.3C31.1313 82.3 26.8313 81.6 26.8313 70.3V49.4H30.3313C30.3313 49.4 45.7313 49 47.5313 59.7H49.2313V37.2H47.5313C45.7313 47.9 30.3313 47.5 30.3313 47.5H26.8313V15.3H30.3313C30.3313 15.3 57.4313 14.4 60.9313 32.6H62.6313V13.6H6.53125ZM84.1875 22.1C84.1875 18.3 81.0875 15.3 77.2875 15.3C73.4875 15.3 70.4875 18.3 70.4875 22.1C70.4875 25.9 73.4875 28.9 77.2875 28.9C81.0875 28.9 84.1875 25.9 84.1875 22.1ZM84.4875 71.8V36.9L66.9875 40.9V42.6C71.0875 44.8 72.0875 46.2 72.0875 49.6V71.8C72.0875 76.9 71.8875 81.1 68.0875 82.3V84H88.5875V82.3C84.9875 81.3 84.4875 77.4 84.4875 71.8ZM140.01 71.8V52.1C140.01 40 135.21 36.9 127.41 36.9C121.11 36.9 113.21 41.5 110.91 47.6V36.9L93.4102 40.9V42.6C97.5102 44.8 98.4102 45.9 98.4102 49.4V72C98.4102 77.1 98.3102 81.2 94.5102 82.3V84H115.01V82.3C111.51 81.3 110.91 77.5 110.91 72V52.3C110.91 48.3 115.51 44.1 119.41 44.1C124.41 44.1 127.51 47.6 127.51 52.4V71.8C127.51 76.9 127.31 81.2 123.51 82.3V84H144.11V82.3C140.51 81.4 140.01 77.3 140.01 71.8ZM186.216 69.4C186.216 76.4 182.016 81.4 175.216 81.4C167.116 81.4 163.816 75.4 163.816 59.3C163.816 44.1 167.016 38.6 174.316 38.6C180.016 38.6 186.216 42.7 186.216 55.3V69.4ZM198.616 74.3V9.39999L181.116 13.1V14.8C185.216 16.3 186.216 17.3 186.216 20.8V39.9C183.016 38 178.816 36.9 174.216 36.9C160.216 36.9 149.616 44.1 149.616 60.2C149.616 76 159.616 84.9 170.916 84.9C175.616 84.9 183.016 82.7 186.216 76.8V83C186.216 83 186.216 85.2 189.016 84.8L203.716 82.6V80.9C199.616 80.4 198.616 79.2 198.616 74.3ZM226.146 13.6V33.7H227.846C228.646 15.8 249.846 15.3 249.846 15.3H251.746V71.9C251.746 78.7 247.446 82.3 243.246 82.3V84H274.746V82.3C270.546 82.3 266.246 78.7 266.246 71.9V15.3H268.146C268.146 15.3 289.446 15.8 290.246 33.7H291.946V13.6H226.146ZM340.513 71.7V52.4C340.513 40.4 335.913 36.9 327.913 36.9C321.712 36.9 313.313 42.4 311.413 47.7V9.39999L293.913 13.6V15.3C297.913 16.8 298.912 17.8 298.912 21.3V71.7C298.912 76.8 298.713 81.1 294.913 82.2V84H315.513V82.2C311.913 81.3 311.413 77.2 311.413 71.7V50.4C313.513 46.4 316.913 44.4 319.713 44.4C325.513 44.4 328.113 47.1 328.113 52.8V71.7C328.113 76.8 327.913 81.2 324.113 82.3V84H344.613V82.3C341.113 81.4 340.513 77.2 340.513 71.7ZM362.719 58.3C362.719 48.7 366.819 38.6 372.719 38.6C378.219 38.6 382.319 45.7 382.319 58.3H362.719ZM373.219 36.9C359.419 36.9 349.819 47 349.819 61.1C349.819 72.8 358.819 84.9 371.919 84.9C385.319 84.9 391.219 77 392.819 71.8L391.119 70.9C388.619 75.6 380.619 77.6 375.219 76.4C368.519 74.9 363.519 69.8 362.719 60H394.519C394.519 44.4 387.719 36.9 373.219 36.9ZM462.125 47.9C464.125 47.9 480.025 45.5 480.025 30.6C480.025 13 467.025 13.6 453.125 13.6H428.825V14.4C433.225 14.4 434.625 21.2 434.625 27.4V70.3C434.625 77.1 433.125 83.1 428.825 83.1V84H453.125C470.425 84 484.725 83.6 484.725 66.1C484.725 49 468.625 47.9 462.125 47.9ZM453.125 15.3C457.825 15.3 466.125 15.5 466.125 30.4C466.125 45.2 458.525 47.5 453.125 47.5H449.225V15.3H453.125ZM453.125 82.3H449.225V49.2H453.125C459.825 49.2 470.025 49.7 470.025 65.6C470.025 82.5 461.825 82.3 453.125 82.3ZM505.785 58.3C505.785 48.7 509.885 38.6 515.785 38.6C521.285 38.6 525.385 45.7 525.385 58.3H505.785ZM516.285 36.9C502.485 36.9 492.885 47 492.885 61.1C492.885 72.8 501.885 84.9 514.985 84.9C528.385 84.9 534.285 77 535.885 71.8L534.185 70.9C531.685 75.6 523.685 77.6 518.285 76.4C511.585 74.9 506.585 69.8 505.785 60H537.585C537.585 44.4 530.785 36.9 516.285 36.9ZM571.727 73.7C570.827 76.1 568.527 78.8 565.127 78.8C558.627 78.8 558.627 72.2 558.627 72.2C558.627 67.1 561.927 62.4 571.727 60.2C571.727 60.2 571.727 73.5 571.727 73.7ZM589.127 78.8C584.227 78.8 584.327 71.8 584.327 71.8V56.9C584.327 45.1 580.727 36.9 567.627 36.9C567.627 36.9 562.427 36.5 557.927 38.9C552.427 41.8 551.127 44.5 550.127 46.2C549.127 47.9 549.227 50.3 550.427 52.2C552.227 54.8 555.727 55.4 558.327 53.7C560.927 51.9 561.627 48.4 559.827 45.8C558.927 44.5 557.627 43.8 556.127 43.6C555.427 43.5 555.827 41.8 559.027 40.2C565.927 36.6 571.727 41.8 571.727 52.2V58.4C554.227 62.8 545.827 63.8 545.827 74.7C545.827 84.9 557.327 84.9 557.327 84.9C564.427 84.9 570.327 81.2 571.827 76.8C572.927 84.9 581.827 84.9 581.827 84.9C588.127 84.9 592.727 81 593.527 77.8L591.827 77.1C591.227 78.8 589.127 78.8 589.127 78.8ZM643.761 74.8V36.9L626.561 38.8V40.5C631.661 41.1 631.261 42.4 631.261 48.5V71.1C629.161 75.1 625.361 77.6 622.561 77.6C616.761 77.6 614.161 74.9 614.161 69.3V36.9L596.161 38.8V40.5C601.961 41.3 601.761 42.2 601.761 48.2V69.6C601.761 81.6 606.461 84.9 614.361 84.9C620.561 84.9 628.861 79.8 631.261 74.1V82.9C631.261 82.9 631.361 85.2 634.061 84.8L648.861 82.2V80.5C644.661 80 643.761 79.6 643.761 74.8ZM677.416 77.8C672.416 77.8 670.016 74.9 670.016 69.3V39.5H681.516L681.916 37.8H670.016V22.3L657.516 24.4V37.8H652.216L652.516 39.5H657.516V69.6C657.516 81.7 662.216 84.9 670.116 84.9C676.816 84.9 682.916 79.9 684.916 75.2L683.416 74.3C682.516 75.8 680.316 77.8 677.416 77.8ZM718.867 37.8V39.5C730.467 39.4 723.867 54.7 723.867 54.7L718.567 68.2L707.967 45.6C707.967 45.6 705.367 39.5 710.567 39.5V37.8H686.967V39.5C688.467 39.5 691.667 39.5 693.267 43.4C693.267 43.4 705.967 70.6 712.167 84.9L708.367 95.2C706.767 99.4 704.367 100.1 703.967 98.9C703.467 97.2 702.367 95.6 700.567 94.8C697.067 93.2 692.967 94.8 691.367 98.3C689.867 101.8 691.367 105.9 694.867 107.5C697.267 108.6 700.767 108 702.567 106.5C704.467 105 707.467 102.2 710.067 95.4L725.367 55.1C731.767 39.7 736.367 39.5 738.467 39.5V37.8H718.867Z" fill="white"/>
</g>
<g filter="url(#filter1_d)">
<path d="M568.452 203.6V205.3C585.452 205.3 575.952 228.7 575.952 228.7L566.452 253.8L552.252 216.9C552.252 216.9 547.752 205.3 556.752 205.3V203.6H524.852V205.3C527.452 205.3 530.952 205.3 534.052 213.4L539.752 228.3L530.452 253.4L516.052 216.9C516.052 216.9 511.752 205.3 520.552 205.3V203.6H488.652V205.3C491.252 205.3 494.652 205.3 497.852 213.4L522.952 274H524.652L540.652 230.8L558.552 274H560.252L577.552 229.2C586.752 207.7 593.352 205.3 597.952 205.3V203.6H568.452ZM615.748 212.1C615.748 208.3 612.648 205.3 608.848 205.3C605.048 205.3 602.048 208.3 602.048 212.1C602.048 215.9 605.048 218.9 608.848 218.9C612.648 218.9 615.748 215.9 615.748 212.1ZM616.048 261.8V226.9L598.548 230.9V232.6C602.648 234.8 603.648 236.2 603.648 239.6V261.8C603.648 266.9 603.448 271.1 599.648 272.3V274H620.148V272.3C616.548 271.3 616.048 267.4 616.048 261.8ZM650.871 267.8C645.871 267.8 643.471 264.9 643.471 259.3V229.5H654.971L655.371 227.8H643.471V212.3L630.971 214.4V227.8H625.671L625.971 229.5H630.971V259.6C630.971 271.7 635.671 274.9 643.571 274.9C650.271 274.9 656.371 269.9 658.371 265.2L656.871 264.3C655.971 265.8 653.771 267.8 650.871 267.8ZM707.522 261.7V242.4C707.522 230.4 702.922 226.9 694.922 226.9C688.722 226.9 680.322 232.4 678.422 237.7V199.4L660.922 203.6V205.3C664.922 206.8 665.922 207.8 665.922 211.3V261.7C665.922 266.8 665.722 271.1 661.922 272.2V274H682.522V272.2C678.922 271.3 678.422 267.2 678.422 261.7V240.4C680.522 236.4 683.922 234.4 686.722 234.4C692.522 234.4 695.122 237.1 695.122 242.8V261.7C695.122 266.8 694.922 271.2 691.122 272.3V274H711.622V272.3C708.122 271.4 707.522 267.2 707.522 261.7ZM733.229 212.1C733.229 208.3 730.129 205.3 726.329 205.3C722.529 205.3 719.529 208.3 719.529 212.1C719.529 215.9 722.529 218.9 726.329 218.9C730.129 218.9 733.229 215.9 733.229 212.1ZM733.529 261.8V226.9L716.029 230.9V232.6C720.129 234.8 721.129 236.2 721.129 239.6V261.8C721.129 266.9 720.929 271.1 717.129 272.3V274H737.629V272.3C734.029 271.3 733.529 267.4 733.529 261.8ZM789.051 261.8V242.1C789.051 230 784.251 226.9 776.451 226.9C770.151 226.9 762.251 231.5 759.951 237.6V226.9L742.451 230.9V232.6C746.551 234.8 747.451 235.9 747.451 239.4V262C747.451 267.1 747.351 271.2 743.551 272.3V274H764.051V272.3C760.551 271.3 759.951 267.5 759.951 262V242.3C759.951 238.3 764.551 234.1 768.451 234.1C773.451 234.1 776.551 237.6 776.551 242.4V261.8C776.551 266.9 776.351 271.2 772.551 272.3V274H793.151V272.3C789.551 271.4 789.051 267.3 789.051 261.8ZM860.2 203.6V205.3C874.6 205.3 865.7 225.7 865.7 225.7L859 239.6L844.9 216.6C838.1 205.1 845.1 205.2 847.2 205.2V203.6H815.3V205.2C817.8 205.2 821.6 205.5 826 213.1C826 213.1 830.8 220.4 845.5 246.4V261.9C845.5 268.7 841.2 272.3 837 272.3V274H868.5V272.3C864.3 272.3 860 268.7 860 261.9V241.3L866.6 227.4C877.8 205.5 887.6 205.3 890.2 205.3V203.6H860.2ZM912.027 226.9C896.827 226.9 888.227 237.7 888.227 250.9C888.227 264 896.827 274.9 912.027 274.9C927.327 274.9 935.827 264 935.827 250.9C935.827 237.7 927.327 226.9 912.027 226.9ZM912.027 273.2C904.827 273.2 902.927 269 902.927 250.9C902.927 232.8 904.827 228.6 912.027 228.6C919.227 228.6 921.027 232.8 921.027 250.9C921.027 269 919.227 273.2 912.027 273.2ZM988.993 264.8V226.9L971.793 228.8V230.5C976.893 231.1 976.493 232.4 976.493 238.5V261.1C974.393 265.1 970.593 267.6 967.793 267.6C961.993 267.6 959.393 264.9 959.393 259.3V226.9L941.393 228.8V230.5C947.193 231.3 946.993 232.2 946.993 238.2V259.6C946.993 271.6 951.693 274.9 959.593 274.9C965.793 274.9 974.093 269.8 976.493 264.1V272.9C976.493 272.9 976.593 275.2 979.293 274.8L994.093 272.2V270.5C989.893 270 988.993 269.6 988.993 264.8Z" fill="white"/>
</g>
<defs>
<filter id="filter0_d" x="0.53125" y="3.39999" width="751.936" height="118.665" filterUnits="userSpaceOnUse" color-interpolation-filters="sRGB">
<feFlood flood-opacity="0" result="BackgroundImageFix"/>
<feColorMatrix in="SourceAlpha" type="matrix" values="0 0 0 0 0 0 0 0 0 0 0 0 0 0 0 0 0 0 127 0"/>
<feOffset dx="4" dy="4"/>
<feGaussianBlur stdDeviation="5"/>
<feColorMatrix type="matrix" values="0 0 0 0 0 0 0 0 0 0 0 0 0 0 0 0 0 0 0.25 0"/>
<feBlend mode="normal" in2="BackgroundImageFix" result="effect1_dropShadow"/>
<feBlend mode="normal" in="SourceGraphic" in2="effect1_dropShadow" result="shape"/>
</filter>
<filter id="filter1_d" x="482.652" y="193.4" width="525.441" height="95.5" filterUnits="userSpaceOnUse" color-interpolation-filters="sRGB">
<feFlood flood-opacity="0" result="BackgroundImageFix"/>
<feColorMatrix in="SourceAlpha" type="matrix" values="0 0 0 0 0 0 0 0 0 0 0 0 0 0 0 0 0 0 127 0"/>
<feOffset dx="4" dy="4"/>
<feGaussianBlur stdDeviation="5"/>
<feColorMatrix type="matrix" values="0 0 0 0 0 0 0 0 0 0 0 0 0 0 0 0 0 0 0.25 0"/>
<feBlend mode="normal" in2="BackgroundImageFix" result="effect1_dropShadow"/>
<feBlend mode="normal" in="SourceGraphic" in2="effect1_dropShadow" result="shape"/>
</filter>
</defs>
</svg>
