<svg xmlns="http://www.w3.org/2000/svg" width="378" height="410" fill="none" viewBox="0 0 378 410">
    <path fill="url(#paint0_linear)" fill-opacity=".2" d="M131.149 56.627c8.621 6.603 16.724 13.904 24.228 21.829 11.786 12.605 22.651 26.086 32.502 40.327 8.524 12.084 16.558 24.486 22.791 37.986 4.211 8.684 7.066 17.97 8.458 27.507 1.509 11.998-.902 22.759-8.439 31.939-9.345 11.365-21.534 19.878-35.305 24.659-7.598 2.727-15.204 5.402-23.324 6.257-12.599 1.49-25.434-1.112-36.719-7.444-17.868-9.995-30.427-24.688-38.175-43.94-7.106-17.602-11.784-36.087-13.898-54.907-1.135-10.069-2.467-20.119-2.925-30.237-.753-14.33 1.042-28.616 5.295-42.154 1.05-3.934 2.413-7.765 4.075-11.456 1.776-3.457 4.367-6.386 7.542-8.526 6.264-4.301 12.98-7.293 20.834-6.713 5.491.42 10.892 1.827 15.957 4.154 6.086 2.855 11.83 6.454 17.103 10.719z"/>
    <path fill="url(#paint1_linear)" fill-opacity=".6" d="M193.918 248.704c10.484-18.329 26.441-32.581 45.308-40.466 7.866-3.289 15.896-6.097 24.049-8.411 8.715-2.72 17.55-4.954 26.467-6.694 10.977-2.148 22.227-1.102 32.523 3.025 3.473 1.407 7.189 2.16 10.688 3.739 10.148 4.2 18.196 12.494 22.383 23.067 5.545 13.87 4.459 27.657-.755 41.546-2.338 6.267-5.348 12.249-8.971 17.828-9.769 15.259-21.79 28.815-35.595 40.141-17.449 14.378-36.862 25.857-57.536 34.022-12.161 4.72-24.636 8.121-37.643 8.342-6.565.286-13.069-.982-19.031-3.71-7.134-3.464-13.01-9.2-16.814-16.413-4.765-8.741-5.693-18.321-5.368-28.272.659-13.54 3.321-26.944 7.889-39.729 3.164-9.759 7.324-19.152 12.406-28.015z"/>
    <path fill="url(#paint2_linear)" fill-opacity=".4" d="M277.819 182.245c-10.395-.926-18.705-4.636-26.749-9.57-10.996-7.009-20.907-15.848-29.379-26.198-9.787-11.549-18.814-23.712-25.593-37.666-4.847-9.625-7.792-20.259-8.647-31.226-.525-7.591-.052-15.234 1.403-22.699 1.655-9.101 5.163-17.7 10.266-25.16 4.762-7.197 11.568-12.491 19.354-15.056 2.381-.753 4.305-2.586 6.529-3.755 4.064-2.198 8.463-3.559 12.971-4.012 4.561-.261 9.047 1.232 12.672 4.218 4.438 3.665 8.392 7.974 11.755 12.808 7.076 9.54 13.285 19.686 19.504 29.862 10.714 17.635 20.146 36.159 28.213 55.407 3.952 8.872 6.533 18.403 7.643 28.211 1.047 10.726-.364 20.846-6.801 29.583-4.002 5.247-9.102 9.374-14.865 12.03-5.764 2.657-12.02 3.763-18.236 3.226l-.04-.003z"/>
    <g clip-path="url(#clip0)">
        <path fill="#000" d="M224.275 160.557c-.927 1.586-1.412 2.45-1.915 3.288-5.154 8.714-10.578 17.286-18.702 23.575-6.783 5.339-14.891 8.74-23.458 9.84-7.707.998-13.5-2.351-18.47-7.605-1.473-1.555-2.847-2.486-5.124-2.664-4.209-.324-7.363-2.412-8.21-6.913-.613-3.178-2.503-5.162-5.369-6.588-1.699-.894-3.218-2.094-4.479-3.54-.564-.612-.773-2.449-.301-2.976 1.768-1.928.534-3.453-.362-4.953-1-1.672-2.454-2.615-4.626-1.929-5.737 1.806-10.585-.092-12.886-5.26-1.693-3.803-1.798-8.45-1.969-12.755-.215-5.358.282-10.74.374-16.116.043-2.59-1.338-3.827-3.933-4.556-5.928-1.672-11.739-3.919-16.108-8.444-2.7-2.792-4.792-6.16-7.737-10.036 2.749-.551 4.467-1.145 6.204-1.225 9.633-.312 17.935 4.697 20.923 13.882 1.712 5.278 4.517 6.821 9.566 7.029 11.548.472 22.311-2.345 32.626-7.109 12.585-5.811 22.906-14.8 33.245-23.82 22.439-19.594 42.099-41.931 63.348-62.695 12.15-11.873 25.299-22.265 41.627-27.935.963-.336 1.915-.716 2.884-1.035.524-.051 1.053-.051 1.577 0-.911.552-1.852 1.055-2.816 1.507-15.273 5.86-27.926 15.633-39.418 26.985-18.016 17.794-35.755 35.882-53.997 53.462-11.229 10.832-22.532 21.713-35.927 30.004-15.009 9.283-31.005 14.61-48.965 11.359-.176.005-.349.051-.504.135 0 8.933-.178 17.855.056 26.758.171 6.497 5.982 9.938 12.069 7.624-.184-2.848-.613-5.67-.509-8.475.233-8.572 10.302-14.034 17.764-9.681 4.847 2.829 5.172 9.338.343 13.11-1.92 1.5-4.553 2.107-6.89 3.062-2.338.955-4.645 1.769-6.971 2.651 1.258 2.566 2.166 4.593 3.234 6.528.939 1.708 7.093 3.061 9.001 1.683 2.719-1.91 5.578-1.739 8.523-1.292 4.549.678 9.084 1.431 13.604 2.26 1.065.245 2.002.873 2.632 1.763-11.48.337-22.906 3.246-34.503-.459 1.092.753 2.087 1.77 3.295 2.223 3.989 1.506 6.192 4.225 7.137 8.407.944 4.182 2.454 5.015 6.381 4.899-3.473-4.831-2.823-7.318 2.866-10.116 4.098-2.014 8.467-3.061 13.063-2.523 1.006.123 2.455.649 2.755 1.378.301.729-.264 2.266-.951 2.915-3.829 3.613-7.811 7.072-12.149 10.948.723 1.016 1.545 1.957 2.454 2.811 7.977 6.582 16.776 6.239 25.704 2.639 14.727-5.934 24.139-17.262 31.036-31.076.945-1.886-.074-2.449-1.282-3.355-6.566-4.831-12.42-10.336-15.893-17.886-5.473-11.892-5.019-23.385 2.939-34.076 4.02-5.407 9.646-6.375 15.463-2.988 6.952 4.053 9.818 10.697 11.045 18.198 1.356 8.524-.92 16.618-3.546 24.591-1.203 3.687-2.637 7.295-4.296 10.801-1.031 2.162-.534 3.27 1.307 4.495 5.584 3.717 10.683 8.107 13.917 14.004 9.817 17.898 3.436 35.656-15.629 41.767-8.081 2.59-16.776 3.312-25.213 4.751-9.247 1.574-18.702 2.296-27.741 4.648-10.621 2.761-19.297 9.185-26.078 17.904-4.295 5.511-6.228 11.861-6.43 18.792-.442 15.051 4.344 28.976 9.639 42.68 6.204 16.049 12.984 31.841 19.268 47.149-.56-.55-1.048-1.167-1.455-1.837-6.841-12.43-13.444-24.995-18.126-38.418-3.718-10.654-7.547-21.345-10.142-32.3-1.541-6.515-1.485-13.636-.921-20.384 1.08-13.012 8.744-22.044 19.494-28.779 11.015-6.932 23.317-9.553 36-10.967 8.836-.986 17.734-1.641 26.459-3.215 12.309-2.223 22.163-12.804 22.777-23.697.43-7.507-1.411-14.414-6.535-20.121-3.786-4.213-7.799-8.224-12.063-12.706zm-1.301-2.737c.742-1.757 1.454-3.288 2.049-4.862 3.363-8.903 6.394-17.929 6.014-27.554-.338-8.702-2.811-16.533-11.334-20.936-4.467-2.314-7.977-1.537-11.045 2.382-3.661 4.714-5.66 10.502-5.688 16.466-.319 15.338 8.376 25.527 20.004 34.504zm-87.819-1.837c4.074-1.445 7.977-2.761 11.781-4.219 1.349-.454 2.598-1.16 3.682-2.082.531-.484.948-1.081 1.22-1.745.272-.665.393-1.382.353-2.099-.039-.717-.237-1.417-.581-2.048-.343-.631-.822-1.179-1.403-1.603-2.357-1.763-5.038-2.614-8.063-1.8-5.977 1.58-9.229 9.179-6.989 15.572v.024zm-40.737-51.545c1.227 6.974 14.726 15.767 22.427 15.528-3.633-11.065-11.425-15.473-22.427-15.553v.025zm78.86 70.135l-.515-1.408c-4.566 1.157-9.204 2.155-13.665 3.533-1.755.539-3.78 1.764-3.032 4.182.694 2.266 4.572 3.57 6.511 2.156 3.675-2.695 7.148-5.652 10.701-8.487v.024zm-23.151-5.511h13.867v-.826c-4.669-.588-9.333-3.368-13.867.784v.042z"/>
    </g>
    <defs>
        <linearGradient id="paint0_linear" x1="83.023" x2="178.141" y1="215.947" y2="92.939" gradientUnits="userSpaceOnUse">
            <stop stop-color="#FF0060"/>
            <stop offset="1" stop-color="#F74588"/>
        </linearGradient>
        <linearGradient id="paint1_linear" x1="199.667" x2="326.662" y1="238.996" y2="314.396" gradientUnits="userSpaceOnUse">
            <stop stop-color="#FF0060"/>
            <stop offset="1" stop-color="#F74588"/>
        </linearGradient>
        <linearGradient id="paint2_linear" x1="185.58" x2="321.918" y1="88.036" y2="99.334" gradientUnits="userSpaceOnUse">
            <stop stop-color="#FF0060"/>
            <stop offset="1" stop-color="#F74588"/>
        </linearGradient>
        <clipPath id="clip0">
            <path fill="#fff" d="M0 0H212V353H0z" transform="translate(91)"/>
        </clipPath>
    </defs>
</svg>
