<svg xmlns="http://www.w3.org/2000/svg" width="933" height="300" fill="none" viewBox="0 0 933 300">
    <g filter="url(#filter0_d)">
        <path fill="#000" d="M71.32 245.463c31.641 0 65.918-18.604 87.744-56.836 11.133-19.775 16.114-38.525 16.114-54.785 0-33.838-21.533-56.983-53.028-56.983-5.712 0-11.718.733-18.017 2.344 18.75-15.088 25.781-31.934 25.781-44.531 0-10.547-4.98-18.018-12.158-18.75h-1.172c-21.68 0-50.684 55.225-57.861 117.334l-2.198.293-.146-9.668c0-31.787 5.127-62.696 12.744-86.719.293-.879.44-1.758.44-2.49 0-3.662-2.784-6.299-5.567-6.299-2.344 0-4.834 1.758-6.152 5.86-7.032 23.876-10.108 46.435-10.108 69.14 0 10.4.586 20.947 1.905 31.494-21.387 5.567-37.354 22.998-41.895 42.041-.879 3.809-1.318 7.764-1.318 11.865 0 14.942 6.299 30.03 17.431 39.698 13.33 11.279 30.03 16.992 47.461 16.992zM104.28 79.936l-.146-.733.146.733zM68.977 95.023c11.865-44.824 33.252-76.171 47.607-76.171h.879c3.808.293 4.98 3.222 4.98 7.03 0 3.81-1.318 8.497-2.636 12.159-7.178 18.75-32.52 39.404-46.143 52.88-1.465 1.466-3.076 2.784-4.687 4.102zm-11.573 53.174c-.146-2.49-.44-5.713-.732-11.718l1.758-.147c-.44 3.955-.733 7.91-1.026 11.865zm4.688 90.088c-14.502 0-27.393-4.248-36.328-12.012-10.4-9.082-16.407-23.291-16.407-37.5 0-3.808.44-7.617 1.319-11.279 4.248-18.017 19.482-34.424 39.404-39.697 1.611 11.279 3.076 18.31 7.178 32.519l.293 1.026 2.783-.44c-.293-1.464-.293-4.541-.293-8.789 0-7.031.293-16.699 1.318-26.074h2.93c11.426 0 23.145 3.076 32.813 9.082l1.61-2.49c-10.253-6.445-21.972-9.668-33.544-9.668l-3.516.146c1.319-11.425 3.516-22.851 6.153-33.838 8.642-4.98 13.183-4.687 28.857-14.794 2.637-.88 5.42-1.758 8.057-2.49 4.248-1.026 8.496-1.612 12.744-1.612 24.756 0 45.996 18.457 45.996 49.805 0 14.648-4.688 32.226-15.82 52.002-21.973 39.257-56.836 56.103-85.547 56.103zm141.469-62.256c14.062 0 30.322-18.164 37.793-29.736l-2.491-1.611c-6.592 10.547-22.412 28.271-35.302 28.271-5.713-.293-7.764-4.248-7.764-12.744 0-6.152 1.465-13.184 3.223-18.164 1.611 1.172 3.515 1.758 5.419 1.758 8.79 0 15.088-7.471 15.088-13.477 0-5.859-3.222-8.935-8.642-9.228-6.006 0-14.502 3.662-20.069 10.693-4.687 5.566-7.47 13.623-7.47 21.24 0 11.865 6.006 22.266 20.215 22.998zm.878-35.302c-1.611 0-3.222-.44-4.394-1.612 4.394-8.789 7.471-14.941 11.719-14.941 2.929.146 4.834 2.783 4.834 6.006 0 4.541-4.834 10.547-12.159 10.547zm76.723 43.505c5.127 0 9.229-4.541 11.865-9.228 5.567-9.229 9.522-19.19 12.159-29.59l-2.93-.586c-2.49 10.108-6.445 19.776-11.719 28.711-3.076 5.127-6.299 7.764-9.521 7.764h-.44c-4.394-.44-6.592-6.153-7.617-10.401-.732-3.222-1.172-6.738-1.172-10.254 0-13.037 4.541-26.66 6.592-30.615l.146-.586c0-2.197-4.541-4.98-7.91-4.98-1.465 0-2.783.586-3.369 2.051-.586-.44-1.318-.879-2.051-1.172-2.343-.879-4.834-1.319-7.324-1.319-13.037 0-25.049 12.012-25.049 25.489 0 2.05.147 3.955.733 6.005.879 3.956 3.222 7.618 7.177 8.35l1.319.147c8.056 0 16.699-13.477 20.801-20.069-.293 2.93-.586 5.713-.586 8.35 0 17.431 7.031 29.297 14.648 31.494 0 0 1.318.439 3.516.439h.732zm-38.965-23.144l-.879-.147c-1.025-.293-1.318-.879-1.318-1.611 0-1.025.586-2.344 1.025-3.662 4.541-11.426 11.719-19.775 21.534-26.221.732-.439 1.318-.732 2.05-.732.586 0 1.172.146 1.612.586-.733 2.051-1.465 4.248-1.905 6.445-3.369 5.859-14.502 25.342-22.119 25.342zm106.02 19.043c1.904-.147 4.101-1.172 5.713-2.783 4.98-5.127 9.961-25.049 11.425-32.08l-2.783-.586c-1.465 6.445-6.299 26.22-10.84 30.615-1.171 1.172-2.783 1.904-4.248 1.904-4.101 0-6.884-8.496-6.884-20.361 0-8.057 1.171-17.432 4.248-26.807l.732-2.051v-.439c0-2.197-4.541-4.395-7.91-4.395-1.465 0-2.783.44-3.223 1.612-2.343 7.47-3.515 14.795-3.515 22.265l.146 4.981c-2.93 7.764-9.521 21.387-17.871 21.973-.879 0-1.758-.293-2.49-.733-2.783-1.758-3.516-5.566-3.662-8.789v-1.904c0-1.905 0-5.274.439-8.936 1.026-7.91 3.223-14.795 6.445-21.826l.147-.586c0-2.051-5.127-4.98-8.35-4.98-1.172 0-2.05.439-2.49 1.171-3.662 7.911-5.273 16.7-5.273 24.61 0 13.476 4.687 24.463 12.011 25.195 0 0 .586.147 1.612.147.879 0 1.904-.147 3.369-.44 7.764-1.611 13.476-11.572 16.846-18.896 1.904 12.744 7.47 20.8 13.037 21.826 0 0 1.318.293 2.636.293h.733zm26.625-2.051c6.152-.146 9.521-5.566 12.012-10.986 3.076-6.739 5.566-13.916 7.47-21.24l-2.783-.733c-1.904 7.178-4.395 14.209-7.471 20.801-1.758 4.101-4.541 9.375-9.375 9.521h-.293c-2.343 0-3.515-2.05-4.541-4.248-2.929-6.445-4.101-15.381-4.101-25.341 0-25.049 7.47-57.13 13.476-75.147 31.787-3.955 62.696-16.553 94.043-16.553 3.369 0 6.592.147 9.961.44 5.567.44 12.598 1.611 17.578 5.86 2.93 2.49 4.834 6.444 4.834 10.253 0 1.904-.439 3.809-1.611 5.42l2.344 1.758c1.611-2.198 2.197-4.688 2.197-7.178 0-4.688-2.344-9.521-5.859-12.451-5.567-4.834-13.184-6.153-19.19-6.592-3.369-.293-6.738-.44-10.254-.44-31.201 0-61.963 12.305-93.017 16.407 1.318-4.102 3.662-10.254 3.662-10.254.293-1.025.586-1.904.586-2.783 0-3.516-2.93-6.006-5.86-6.006-2.05 0-4.248 1.318-5.42 4.248-2.197 5.86-3.662 9.96-5.419 15.967l-7.032.146c-6.591 0-13.183-.586-18.017-3.222-5.127-2.637-8.35-7.471-8.35-12.159h-2.93v.293c0 5.567 3.956 11.28 9.815 14.502 5.42 2.784 12.012 3.516 18.75 3.516l6.885-.147c-4.541 16.114-8.789 39.698-8.789 61.231 0 13.916 1.757 27.099 6.445 36.767 1.758 3.809 4.101 8.35 8.935 8.35h1.319zm23.109 96.24c3.516 0 7.324-1.904 10.987-3.808 21.679-12.305 46.142-56.983 46.142-99.61 0-2.343 0-4.541-.146-6.738 8.349-7.471 17.138-13.769 25.927-18.31l-1.318-2.637c-8.496 4.394-16.846 10.254-24.902 17.285-1.026-12.451-3.662-21.973-7.764-31.787-1.904-4.248-4.541-7.471-7.91-7.471-1.026 0-2.197.44-3.516 1.172-4.687 3.223-6.006 8.057-20.508 43.213-2.197 5.566-6.298 15.674-13.623 15.674h-1.025c-3.809-.44-5.713-5.86-5.713-13.477 0-10.107 3.516-23.877 10.693-34.277l.293-.879c0-2.49-4.687-6.445-7.91-6.445-.879 0-1.611.293-2.197 1.025-6.738 9.961-9.522 21.387-9.522 31.348 0 13.769 5.42 24.902 13.623 25.634l1.905.147c8.349 0 12.89-9.815 16.26-17.578 14.209-34.424 15.527-39.258 19.335-41.895.586-.293 1.172-.586 1.758-.586 1.172 0 2.198.879 2.93 2.344 1.758 3.223 3.076 13.916 3.076 26.221 0 5.713-.293 11.865-1.025 17.871-18.604 19.043-34.863 42.773-45.996 63.135-5.127 9.521-7.91 17.724-8.643 25.634l-.146 3.077c0 3.222.586 6.738 2.783 9.082 1.904 1.904 3.955 2.636 6.152 2.636zm-.586-3.222c-1.318 0-2.344-.293-3.369-1.319-1.318-1.465-2.051-3.955-2.051-7.177l.147-2.784c.586-7.47 3.369-15.234 8.349-24.463 10.401-19.335 25.489-41.455 42.774-59.765-4.102 31.055-25.342 88.33-43.213 95.068-.879.293-1.904.44-2.637.44z"/>
    </g>
    <g filter="url(#filter1_d)">
        <path fill="url(#paint0_linear)" d="M582.839 93v4.4l-59.2 131h6.8c12 0 22.533-3.8 31.6-11.4 9.2-7.733 15.8-18.667 19.8-32.8h3.6l-2.4 48.8h-102.4v-3.8l59.8-131.8h-8.2c-11.867 0-20.867 2.6-27 7.8-6.133 5.2-13.067 15.867-20.8 32h-3.6l3-44.2h99zM658.6 193.6v-17c0-12.933-.733-22.333-2.2-28.2-1.333-6-4.533-9-9.6-9-2.933 0-5.333.867-7.2 2.6-1.733 1.6-3 4.333-3.8 8.2-1.2 6-1.8 15.133-1.8 27.4v15.6c0 14.533.4 23.267 1.2 26.2.933 2.933 1.867 5.333 2.8 7.2 1.467 3.2 4.333 4.8 8.6 4.8 5.2 0 8.6-3 10.2-9 1.2-4.267 1.8-13.867 1.8-28.8zM646.2 235c-16.667 0-29.267-4.267-37.8-12.8-8.533-8.533-12.8-20.733-12.8-36.6 0-16 4.533-28.267 13.6-36.8 9.2-8.667 22.067-13 38.6-13s28.867 4 37 12c8.133 7.867 12.2 19.933 12.2 36.2 0 34-16.933 51-50.8 51zm55.294-97.2h48.2v18.4c2.133-6.133 5.4-11.067 9.8-14.8 4.4-3.733 11.066-5.6 20-5.6 20.666 0 31 11.133 31 33.4v60.2h11.2v3.6h-56.6v-3.6h8.2v-65c0-8-.534-13.133-1.6-15.4-1.067-2.4-3-3.6-5.8-3.6-4.267 0-8.067 2.8-11.4 8.4-3.2 5.6-4.8 12.4-4.8 20.4v55.2h8.6v3.6h-56.8v-3.6h11v-88h-11v-3.6zM875.436 235c-17.2 0-30.133-4.4-38.8-13.2-8.533-8.933-12.8-21.267-12.8-37 0-15.867 4.8-28 14.4-36.4 9.733-8.4 22.067-12.6 37-12.6 30.267 0 44.8 15.2 43.6 45.6h-56.4v7.8c0 13.067 1.667 22.933 5 29.6 3.333 6.667 9.133 10 17.4 10 15.467 0 25.6-8.267 30.4-24.8l3.6.6c-2.533 9.6-7.133 17.067-13.8 22.4-6.533 5.333-16.4 8-29.6 8zm-12.8-57.6h20.6v-9.8c0-10.8-.667-18.133-2-22-1.2-4-3.733-6-7.6-6-3.733 0-6.533 2.133-8.4 6.4-1.733 4.133-2.6 11.333-2.6 21.6v9.8z"/>
    </g>
    <path fill="#272727" d="M466.517 275.087c1.298.242 2.398.902 3.3 1.98.902 1.078 1.353 2.332 1.353 3.762 0 1.166-.297 2.222-.891 3.168-.572.924-1.419 1.661-2.541 2.211-1.122.528-2.464.792-4.026.792h-7.986v-23.067h7.755c2.332 0 4.103.539 5.313 1.617 1.232 1.078 1.848 2.475 1.848 4.191 0 1.43-.385 2.596-1.155 3.498-.77.88-1.76 1.496-2.97 1.848zm-8.481-.957h5.379c1.562 0 2.761-.363 3.597-1.089.858-.748 1.287-1.771 1.287-3.069 0-1.276-.429-2.277-1.287-3.003-.836-.726-2.068-1.089-3.696-1.089h-5.28v8.25zm5.511 10.923c1.672 0 2.97-.396 3.894-1.188.946-.792 1.419-1.881 1.419-3.267s-.495-2.486-1.485-3.3c-.968-.836-2.277-1.254-3.927-1.254h-5.412v9.009h5.511zm32.172-7.986c0 .792-.022 1.397-.066 1.815h-14.949c.066 1.364.396 2.53.99 3.498.594.968 1.375 1.705 2.343 2.211.968.484 2.024.726 3.168.726 1.496 0 2.75-.363 3.762-1.089 1.034-.726 1.716-1.705 2.046-2.937h2.442c-.44 1.76-1.386 3.201-2.838 4.323-1.43 1.1-3.234 1.65-5.412 1.65-1.694 0-3.212-.374-4.554-1.122-1.342-.77-2.398-1.848-3.168-3.234-.748-1.408-1.122-3.047-1.122-4.917 0-1.87.374-3.509 1.122-4.917.748-1.408 1.793-2.486 3.135-3.234 1.342-.748 2.871-1.122 4.587-1.122 1.716 0 3.212.374 4.488 1.122 1.298.748 2.288 1.76 2.97 3.036.704 1.254 1.056 2.651 1.056 4.191zm-2.343-.066c.022-1.342-.253-2.486-.825-3.432-.55-.946-1.309-1.661-2.277-2.145-.968-.484-2.024-.726-3.168-.726-1.716 0-3.179.55-4.389 1.65-1.21 1.1-1.881 2.651-2.013 4.653h12.672zm25.935-13.068V287h-2.31v-23.067h2.31zm17.679 4.719c2.156 0 3.916.671 5.28 2.013 1.364 1.32 2.046 3.245 2.046 5.775V287h-2.277v-10.296c0-1.958-.495-3.454-1.485-4.488-.968-1.034-2.299-1.551-3.993-1.551-1.738 0-3.124.55-4.158 1.65-1.034 1.1-1.551 2.717-1.551 4.851V287h-2.31v-18.018h2.31v3.069c.572-1.1 1.397-1.936 2.475-2.508 1.078-.594 2.299-.891 3.663-.891zm22.639 18.612c-2.068 0-3.762-.473-5.082-1.419-1.298-.968-2.024-2.277-2.178-3.927h2.376c.11 1.012.583 1.837 1.419 2.475.858.616 2.002.924 3.432.924 1.254 0 2.233-.297 2.937-.891.726-.594 1.089-1.331 1.089-2.211 0-.616-.198-1.122-.594-1.518-.396-.396-.902-.704-1.518-.924-.594-.242-1.408-.495-2.442-.759-1.342-.352-2.431-.704-3.267-1.056-.836-.352-1.551-.869-2.145-1.551-.572-.704-.858-1.639-.858-2.805 0-.88.264-1.694.792-2.442.528-.748 1.276-1.342 2.244-1.782.968-.44 2.068-.66 3.3-.66 1.936 0 3.498.495 4.686 1.485 1.188.968 1.826 2.31 1.914 4.026h-2.31c-.066-1.056-.484-1.903-1.254-2.541-.748-.66-1.782-.99-3.102-.99-1.166 0-2.112.275-2.838.825-.726.55-1.089 1.232-1.089 2.046 0 .704.209 1.287.627 1.749.44.44.979.792 1.617 1.056.638.242 1.496.517 2.574.825 1.298.352 2.332.693 3.102 1.023.77.33 1.43.814 1.98 1.452s.836 1.485.858 2.541c0 .968-.264 1.837-.792 2.607-.528.748-1.265 1.342-2.211 1.782-.946.44-2.035.66-3.267.66zm16.895-14.322c.572-1.21 1.474-2.211 2.706-3.003 1.254-.814 2.739-1.221 4.455-1.221 1.628 0 3.091.385 4.389 1.155 1.32.748 2.343 1.826 3.069 3.234.748 1.386 1.122 3.003 1.122 4.851 0 1.848-.374 3.476-1.122 4.884-.726 1.408-1.749 2.497-3.069 3.267-1.298.77-2.761 1.155-4.389 1.155-1.694 0-3.168-.396-4.422-1.188-1.254-.814-2.167-1.826-2.739-3.036v12.474h-2.277v-26.532h2.277v3.96zm13.398 5.016c0-1.496-.297-2.783-.891-3.861-.572-1.1-1.364-1.936-2.376-2.508-1.012-.572-2.156-.858-3.432-.858-1.232 0-2.365.297-3.399.891-1.012.594-1.815 1.441-2.409 2.541-.594 1.1-.891 2.376-.891 3.828s.297 2.728.891 3.828c.594 1.1 1.397 1.947 2.409 2.541 1.034.594 2.167.891 3.399.891 1.276 0 2.42-.286 3.432-.858 1.012-.594 1.804-1.441 2.376-2.541.594-1.122.891-2.42.891-3.894zm11.748-12.375c-.462 0-.858-.165-1.188-.495-.33-.33-.495-.737-.495-1.221 0-.484.165-.88.495-1.188.33-.33.726-.495 1.188-.495.462 0 .858.165 1.188.495.33.308.495.704.495 1.188s-.165.891-.495 1.221c-.33.33-.726.495-1.188.495zm1.155 3.399V287h-2.31v-18.018h2.31zm11.542 3.201c.506-1.122 1.276-1.991 2.31-2.607 1.056-.616 2.343-.924 3.861-.924v2.409h-.627c-1.672 0-3.014.451-4.026 1.353-1.012.902-1.518 2.409-1.518 4.521V287h-2.31v-18.018h2.31v3.201zm29.948 4.884c0 .792-.022 1.397-.066 1.815H629.3c.066 1.364.396 2.53.99 3.498.594.968 1.375 1.705 2.343 2.211.968.484 2.024.726 3.168.726 1.496 0 2.75-.363 3.762-1.089 1.034-.726 1.716-1.705 2.046-2.937h2.442c-.44 1.76-1.386 3.201-2.838 4.323-1.43 1.1-3.234 1.65-5.412 1.65-1.694 0-3.212-.374-4.554-1.122-1.342-.77-2.398-1.848-3.168-3.234-.748-1.408-1.122-3.047-1.122-4.917 0-1.87.374-3.509 1.122-4.917.748-1.408 1.793-2.486 3.135-3.234 1.342-.748 2.871-1.122 4.587-1.122 1.716 0 3.212.374 4.488 1.122 1.298.748 2.288 1.76 2.97 3.036.704 1.254 1.056 2.651 1.056 4.191zm-2.343-.066c.022-1.342-.253-2.486-.825-3.432-.55-.946-1.309-1.661-2.277-2.145-.968-.484-2.024-.726-3.168-.726-1.716 0-3.179.55-4.389 1.65-1.21 1.1-1.881 2.651-2.013 4.653h12.672zm10.965 10.164c-.484 0-.891-.165-1.221-.495-.308-.33-.462-.737-.462-1.221 0-.484.154-.88.462-1.188.33-.33.737-.495 1.221-.495.462 0 .847.165 1.155.495.33.308.495.704.495 1.188s-.165.891-.495 1.221c-.308.33-.693.495-1.155.495zm40.804-16.5c-.66-1.518-1.672-2.706-3.036-3.564-1.342-.88-2.926-1.32-4.752-1.32-1.716 0-3.256.396-4.62 1.188-1.364.792-2.442 1.925-3.234 3.399-.792 1.452-1.188 3.146-1.188 5.082s.396 3.641 1.188 5.115c.792 1.474 1.87 2.607 3.234 3.399 1.364.792 2.904 1.188 4.62 1.188 1.606 0 3.047-.341 4.323-1.023 1.298-.704 2.332-1.694 3.102-2.97.792-1.298 1.243-2.805 1.353-4.521h-9.702v-1.881h12.144v1.683c-.11 2.024-.66 3.861-1.65 5.511-.99 1.628-2.321 2.915-3.993 3.861-1.65.946-3.509 1.419-5.577 1.419-2.134 0-4.07-.495-5.808-1.485-1.738-1.012-3.113-2.409-4.125-4.191-.99-1.804-1.485-3.839-1.485-6.105 0-2.266.495-4.29 1.485-6.072 1.012-1.804 2.387-3.201 4.125-4.191 1.738-1.012 3.674-1.518 5.808-1.518 2.464 0 4.62.616 6.468 1.848 1.848 1.232 3.19 2.948 4.026 5.148h-2.706zm27.965 6.402c0 .792-.022 1.397-.066 1.815h-14.949c.066 1.364.396 2.53.99 3.498.594.968 1.375 1.705 2.343 2.211.968.484 2.024.726 3.168.726 1.496 0 2.75-.363 3.762-1.089 1.034-.726 1.716-1.705 2.046-2.937h2.442c-.44 1.76-1.386 3.201-2.838 4.323-1.43 1.1-3.234 1.65-5.412 1.65-1.694 0-3.212-.374-4.554-1.122-1.342-.77-2.398-1.848-3.168-3.234-.748-1.408-1.122-3.047-1.122-4.917 0-1.87.374-3.509 1.122-4.917.748-1.408 1.793-2.486 3.135-3.234 1.342-.748 2.871-1.122 4.587-1.122 1.716 0 3.212.374 4.488 1.122 1.298.748 2.288 1.76 2.97 3.036.704 1.254 1.056 2.651 1.056 4.191zm-2.343-.066c.022-1.342-.253-2.486-.825-3.432-.55-.946-1.309-1.661-2.277-2.145-.968-.484-2.024-.726-3.168-.726-1.716 0-3.179.55-4.389 1.65-1.21 1.1-1.881 2.651-2.013 4.653h12.672zm13.572-6.072v11.187c0 1.1.209 1.859.627 2.277.418.418 1.155.627 2.211.627h2.112V287h-2.475c-1.628 0-2.838-.374-3.63-1.122-.792-.77-1.188-2.024-1.188-3.762v-11.187h-2.508v-1.947h2.508v-4.521h2.343v4.521h4.95v1.947h-4.95zm28.126-6.996V287h-2.31v-23.067h2.31zm17.679 4.719c2.156 0 3.916.671 5.28 2.013 1.364 1.32 2.046 3.245 2.046 5.775V287h-2.277v-10.296c0-1.958-.495-3.454-1.485-4.488-.968-1.034-2.299-1.551-3.993-1.551-1.738 0-3.124.55-4.158 1.65-1.034 1.1-1.551 2.717-1.551 4.851V287h-2.31v-18.018h2.31v3.069c.572-1.1 1.397-1.936 2.475-2.508 1.078-.594 2.299-.891 3.663-.891zm22.639 18.612c-2.068 0-3.762-.473-5.082-1.419-1.298-.968-2.024-2.277-2.178-3.927h2.376c.11 1.012.583 1.837 1.419 2.475.858.616 2.002.924 3.432.924 1.254 0 2.233-.297 2.937-.891.726-.594 1.089-1.331 1.089-2.211 0-.616-.198-1.122-.594-1.518-.396-.396-.902-.704-1.518-.924-.594-.242-1.408-.495-2.442-.759-1.342-.352-2.431-.704-3.267-1.056-.836-.352-1.551-.869-2.145-1.551-.572-.704-.858-1.639-.858-2.805 0-.88.264-1.694.792-2.442.528-.748 1.276-1.342 2.244-1.782.968-.44 2.068-.66 3.3-.66 1.936 0 3.498.495 4.686 1.485 1.188.968 1.826 2.31 1.914 4.026h-2.31c-.066-1.056-.484-1.903-1.254-2.541-.748-.66-1.782-.99-3.102-.99-1.166 0-2.112.275-2.838.825-.726.55-1.089 1.232-1.089 2.046 0 .704.209 1.287.627 1.749.44.44.979.792 1.617 1.056.638.242 1.496.517 2.574.825 1.298.352 2.332.693 3.102 1.023.77.33 1.43.814 1.98 1.452s.836 1.485.858 2.541c0 .968-.264 1.837-.792 2.607-.528.748-1.265 1.342-2.211 1.782-.946.44-2.035.66-3.267.66zm16.895-14.322c.572-1.21 1.474-2.211 2.706-3.003 1.254-.814 2.739-1.221 4.455-1.221 1.628 0 3.091.385 4.389 1.155 1.32.748 2.343 1.826 3.069 3.234.748 1.386 1.122 3.003 1.122 4.851 0 1.848-.374 3.476-1.122 4.884-.726 1.408-1.749 2.497-3.069 3.267-1.298.77-2.761 1.155-4.389 1.155-1.694 0-3.168-.396-4.422-1.188-1.254-.814-2.167-1.826-2.739-3.036v12.474h-2.277v-26.532h2.277v3.96zm13.398 5.016c0-1.496-.297-2.783-.891-3.861-.572-1.1-1.364-1.936-2.376-2.508-1.012-.572-2.156-.858-3.432-.858-1.232 0-2.365.297-3.399.891-1.012.594-1.815 1.441-2.409 2.541-.594 1.1-.891 2.376-.891 3.828s.297 2.728.891 3.828c.594 1.1 1.397 1.947 2.409 2.541 1.034.594 2.167.891 3.399.891 1.276 0 2.42-.286 3.432-.858 1.012-.594 1.804-1.441 2.376-2.541.594-1.122.891-2.42.891-3.894zm11.748-12.375c-.462 0-.858-.165-1.188-.495-.33-.33-.495-.737-.495-1.221 0-.484.165-.88.495-1.188.33-.33.726-.495 1.188-.495.462 0 .858.165 1.188.495.33.308.495.704.495 1.188s-.165.891-.495 1.221c-.33.33-.726.495-1.188.495zm1.155 3.399V287h-2.31v-18.018h2.31zm11.542 3.201c.506-1.122 1.276-1.991 2.31-2.607 1.056-.616 2.343-.924 3.861-.924v2.409h-.627c-1.672 0-3.014.451-4.026 1.353-1.012.902-1.518 2.409-1.518 4.521V287h-2.31v-18.018h2.31v3.201zm29.948 4.884c0 .792-.022 1.397-.066 1.815H871.05c.066 1.364.396 2.53.99 3.498.594.968 1.375 1.705 2.343 2.211.968.484 2.024.726 3.168.726 1.496 0 2.75-.363 3.762-1.089 1.034-.726 1.716-1.705 2.046-2.937h2.442c-.44 1.76-1.386 3.201-2.838 4.323-1.43 1.1-3.234 1.65-5.412 1.65-1.694 0-3.212-.374-4.554-1.122-1.342-.77-2.398-1.848-3.168-3.234-.748-1.408-1.122-3.047-1.122-4.917 0-1.87.374-3.509 1.122-4.917.748-1.408 1.793-2.486 3.135-3.234 1.342-.748 2.871-1.122 4.587-1.122 1.716 0 3.212.374 4.488 1.122 1.298.748 2.288 1.76 2.97 3.036.704 1.254 1.056 2.651 1.056 4.191zm-2.343-.066c.022-1.342-.253-2.486-.825-3.432-.55-.946-1.309-1.661-2.277-2.145-.968-.484-2.024-.726-3.168-.726-1.716 0-3.179.55-4.389 1.65-1.21 1.1-1.881 2.651-2.013 4.653h12.672zm9.513.957c0-1.848.374-3.465 1.122-4.851.748-1.408 1.771-2.486 3.069-3.234 1.32-.77 2.805-1.155 4.455-1.155 1.584 0 3.014.385 4.29 1.155 1.276.77 2.211 1.771 2.805 3.003V262.58h2.31V287h-2.31v-4.026c-.55 1.254-1.452 2.288-2.706 3.102-1.254.792-2.728 1.188-4.422 1.188-1.65 0-3.135-.385-4.455-1.155-1.298-.77-2.321-1.859-3.069-3.267-.726-1.408-1.089-3.036-1.089-4.884zm15.741.033c0-1.452-.297-2.728-.891-3.828-.594-1.1-1.408-1.947-2.442-2.541-1.012-.594-2.134-.891-3.366-.891-1.276 0-2.42.286-3.432.858-1.012.572-1.815 1.408-2.409 2.508-.572 1.078-.858 2.365-.858 3.861 0 1.474.286 2.772.858 3.894.594 1.1 1.397 1.947 2.409 2.541 1.012.572 2.156.858 3.432.858 1.232 0 2.354-.297 3.366-.891 1.034-.594 1.848-1.441 2.442-2.541.594-1.1.891-2.376.891-3.828zm11.979 9.174c-.484 0-.891-.165-1.221-.495-.308-.33-.462-.737-.462-1.221 0-.484.154-.88.462-1.188.33-.33.737-.495 1.221-.495.462 0 .847.165 1.155.495.33.308.495.704.495 1.188s-.165.891-.495 1.221c-.308.33-.693.495-1.155.495z"/>
    <defs>
        <filter id="filter0_d" width="522.154" height="278.398" x=".428" y="9.922" color-interpolation-filters="sRGB" filterUnits="userSpaceOnUse">
            <feFlood flood-opacity="0" result="BackgroundImageFix"/>
            <feColorMatrix in="SourceAlpha" values="0 0 0 0 0 0 0 0 0 0 0 0 0 0 0 0 0 0 127 0"/>
            <feOffset dx="4" dy="4"/>
            <feGaussianBlur stdDeviation="5"/>
            <feColorMatrix values="0 0 0 0 0 0 0 0 0 0 0 0 0 0 0 0 0 0 0.25 0"/>
            <feBlend in2="BackgroundImageFix" result="effect1_dropShadow"/>
            <feBlend in="SourceGraphic" in2="effect1_dropShadow" result="shape"/>
        </filter>
        <filter id="filter1_d" width="458.266" height="162" x="474.639" y="87" color-interpolation-filters="sRGB" filterUnits="userSpaceOnUse">
            <feFlood flood-opacity="0" result="BackgroundImageFix"/>
            <feColorMatrix in="SourceAlpha" values="0 0 0 0 0 0 0 0 0 0 0 0 0 0 0 0 0 0 127 0"/>
            <feOffset dx="4" dy="4"/>
            <feGaussianBlur stdDeviation="5"/>
            <feColorMatrix values="0 0 0 0 0 0 0 0 0 0 0 0 0 0 0 0 0 0 0.25 0"/>
            <feBlend in2="BackgroundImageFix" result="effect1_dropShadow"/>
            <feBlend in="SourceGraphic" in2="effect1_dropShadow" result="shape"/>
        </filter>
        <linearGradient id="paint0_linear" x1="471" x2="924" y1="156" y2="156" gradientUnits="userSpaceOnUse">
            <stop stop-color="#FF0060"/>
            <stop offset="1" stop-color="#FF69A2"/>
        </linearGradient>
    </defs>
</svg>
