<svg width="30" height="30" viewBox="0 0 30 30" fill="none" xmlns="http://www.w3.org/2000/svg">
<path d="M15.0002 1.6735C13.9425 1.67257 12.8893 1.79734 11.8611 2.04517L11.1283 2.22179L11.576 2.8282C13.3325 5.20765 14.9278 7.70195 16.3512 10.2944L16.5625 10.6792L16.9714 10.5195C19.545 9.51459 22.1703 8.00952 23.9139 5.70956L24.1935 5.34087L23.8475 5.03365C21.4946 2.9441 18.395 1.67355 15.0002 1.6735ZM15.0002 1.6735C15.0003 1.6735 15.0004 1.6735 15.0005 1.6735L15 2.1735V1.6735C15.0001 1.6735 15.0001 1.6735 15.0002 1.6735ZM15.0008 28.3272C16.7892 28.3295 18.5597 27.9706 20.206 27.272L20.5769 27.1147L20.502 26.7188C19.8746 23.4012 18.9391 19.9889 17.7448 16.9023L17.4678 16.1864L17.0065 16.6476C12.7174 18.1212 9.06793 21.0299 6.70387 24.8649L6.46885 25.2461L6.82203 25.5215C9.1586 27.3436 12.0378 28.3313 15.0008 28.3272ZM15.0008 28.3272C15.001 28.3272 15.0012 28.3272 15.0015 28.3272L15.0007 27.8272L15.0001 28.3272C15.0003 28.3272 15.0006 28.3272 15.0008 28.3272ZM17.2785 17.0828C17.2788 17.0836 17.2791 17.0844 17.2794 17.0852C17.3392 17.2396 17.3983 17.3948 17.4567 17.5508L17.5484 17.5199L17.6313 17.4371L17.6321 17.4363L17.2785 17.0828ZM17.2785 17.0828L17.2778 17.0835L17.2776 17.0831L17.2785 17.0828ZM9.95868 3.11063L9.71946 2.75277L9.33001 2.93613C5.59193 4.6961 2.80294 8.14336 1.94704 12.2966L1.82289 12.899L2.438 12.8975C6.38947 12.8876 10.6604 12.2995 14.4407 11.32L15.07 11.1569L14.7508 10.5905C13.5099 8.38849 12.1697 6.39778 10.7955 4.35667C10.5178 3.9441 10.2387 3.52948 9.95868 3.11063ZM25.3252 6.57435L24.9352 6.09775L24.5489 6.57734C22.8016 8.74641 20.1114 10.4896 17.5782 11.5116L17.0939 11.7069L17.3101 12.1822C17.4493 12.4883 17.5869 12.7791 17.7211 13.0626C17.9778 13.6053 18.222 14.1212 18.4404 14.6662L18.5803 15.0155L18.9547 14.9777C21.9085 14.6798 24.8095 14.83 27.7298 15.4058L28.3297 15.5241L28.3265 14.9126C28.3107 11.8715 27.2512 8.92796 25.3252 6.57435ZM15.8095 12.6077L15.6288 12.2237L15.2206 12.3395C10.956 13.5491 6.61026 14.1034 2.17715 14.1243L1.69455 14.1265L1.67974 14.6089C1.57437 18.0386 2.80043 21.3761 5.10103 23.922L5.57781 24.4496L5.91298 23.8224C8.13301 19.6683 12.4327 17.2633 16.6012 15.4253L17.0707 15.2182L16.8516 14.7543C16.6753 14.3807 16.4935 14.0117 16.3174 13.6542L16.3161 13.6515C16.1389 13.2918 15.9677 12.9441 15.8095 12.6077ZM28.1604 17.1094L28.2322 16.6614L28.2242 16.6593C28.2263 16.6417 28.2283 16.6241 28.2303 16.6066L27.8526 16.562L27.7934 16.5465C26.0135 16.0807 24.1832 15.8363 22.344 15.8188L22.3422 15.817L22.1347 15.817C21.2796 15.817 20.4256 15.8789 19.5794 16.0022L18.9605 16.0924L19.1847 16.6763C20.3255 19.6466 20.9741 22.5964 21.6613 25.7215L21.6682 25.7529L21.8259 26.4701L22.4354 26.0605C23.9526 25.041 25.2438 23.7202 26.2287 22.1803C27.2136 20.6404 27.8712 18.9143 28.1604 17.1094ZM0.5 15C0.5 6.99164 6.99164 0.5 15 0.5C23.0084 0.5 29.5 6.99164 29.5 15C29.5 23.0084 23.0084 29.5 15 29.5C6.99164 29.5 0.5 23.0084 0.5 15Z" fill="#272727" stroke="#272727"/>
</svg>
