<svg width="30" height="30" viewBox="0 0 30 30" fill="none" xmlns="http://www.w3.org/2000/svg">
<path d="M10.1413 18.045H12.9437H13.5437V18.645V27.3175V28.0243L12.8463 27.9095C9.78678 27.406 7.00597 25.831 5.00072 23.466C2.99555 21.101 1.89653 18.1002 1.9 14.9997C1.90018 7.74969 7.74999 1.9 15 1.9C22.2499 1.9 28.0997 7.74955 28.1 14.9994L10.1413 18.045ZM10.1413 18.045V15.6288H12.9437H13.5437V15.0288V12.625C13.5437 10.7225 14.0073 9.46526 14.76 8.68243C15.5087 7.9038 16.6396 7.495 18.1938 7.495C19.2381 7.495 19.9467 7.54637 20.4138 7.5956V9.62H18.7575C17.8205 9.62 17.1574 10.0866 16.7619 10.7758C16.3889 11.4259 16.26 12.2543 16.26 13.0538V15.0288V15.6288H16.86H20.2789L19.9056 18.045H16.86H16.26V18.645V27.3487V28.0444L16.9481 27.9422C20.0505 27.4817 22.8839 25.921 24.9312 23.5449C26.9784 21.169 28.103 18.1362 28.1 15L10.1413 18.045ZM0.6 15C0.6 7.06137 7.06137 0.6 15 0.6C22.9386 0.6 29.4 7.06137 29.4 15C29.4 22.9386 22.9386 29.4 15 29.4C7.06137 29.4 0.6 22.9386 0.6 15Z" fill="#272727" stroke="#272727" stroke-width="1.2"/>
</svg>
