<svg width="30" height="30" viewBox="0 0 30 30" fill="none" xmlns="http://www.w3.org/2000/svg">
<path d="M22.6505 16.5837V22H19.5109V16.9456C19.5109 15.6769 19.0567 14.811 17.9198 14.811C17.0525 14.811 16.5354 15.3941 16.3083 15.9596C16.2262 16.1618 16.2043 16.4431 16.2043 16.7244V22H13.0632C13.0632 22 13.1057 13.4412 13.0632 12.5548H16.2043V13.8924L16.1838 13.9232H16.2043V13.8939C16.6218 13.2493 17.3661 12.3321 19.0347 12.3321C21.1005 12.3321 22.6505 13.6829 22.6505 16.5837ZM9.7771 8C8.70322 8 8 8.70615 8 9.63206C8 10.5404 8.68271 11.2656 9.73608 11.2656H9.75659C10.8524 11.2656 11.5337 10.5389 11.5337 9.63206C11.5132 8.70615 10.8524 8 9.7771 8ZM8.18606 22H11.3271V12.5548H8.18606V22Z" fill="#272727"/>
<circle cx="15" cy="15" r="13.85" stroke="#272727" stroke-width="2.3"/>
</svg>
