<svg width="142" height="30" viewBox="0 0 142 30" fill="none" xmlns="http://www.w3.org/2000/svg">
<path d="M15.0002 1.6735C13.9425 1.67257 12.8893 1.79734 11.8611 2.04517L11.1283 2.22179L11.576 2.8282C13.3325 5.20765 14.9278 7.70195 16.3512 10.2944L16.5625 10.6792L16.9714 10.5195C19.545 9.51459 22.1703 8.00952 23.9139 5.70956L24.1935 5.34087L23.8475 5.03364C21.4946 2.9441 18.395 1.67355 15.0002 1.6735ZM15.0002 1.6735C15.0003 1.6735 15.0004 1.6735 15.0005 1.6735L15 2.1735V1.6735C15.0001 1.6735 15.0001 1.6735 15.0002 1.6735ZM15.0008 28.3272C16.7892 28.3295 18.5597 27.9706 20.206 27.272L20.5769 27.1147L20.502 26.7188C19.8746 23.4012 18.9391 19.9889 17.7448 16.9023L17.4678 16.1864L17.0065 16.6476C12.7174 18.1212 9.06794 21.0299 6.70387 24.8649L6.46885 25.2461L6.82203 25.5215C9.1586 27.3436 12.0378 28.3313 15.0008 28.3272ZM15.0008 28.3272C15.001 28.3272 15.0012 28.3272 15.0015 28.3272L15.0007 27.8272L15.0001 28.3272C15.0003 28.3272 15.0006 28.3272 15.0008 28.3272ZM17.2785 17.0828C17.2788 17.0836 17.2791 17.0844 17.2794 17.0852C17.3392 17.2396 17.3983 17.3948 17.4567 17.5508L17.5484 17.5199L17.6313 17.4371L17.6321 17.4363L17.2785 17.0828ZM17.2785 17.0828L17.2778 17.0835L17.2776 17.0831L17.2785 17.0828ZM9.95868 3.11063L9.71946 2.75277L9.33001 2.93613C5.59193 4.6961 2.80294 8.14336 1.94704 12.2966L1.82289 12.899L2.438 12.8975C6.38947 12.8876 10.6604 12.2995 14.4407 11.32L15.07 11.1569L14.7508 10.5905C13.5099 8.38849 12.1697 6.39778 10.7955 4.35666C10.5178 3.9441 10.2387 3.52948 9.95868 3.11063ZM25.3252 6.57435L24.9352 6.09775L24.5489 6.57734C22.8016 8.74642 20.1114 10.4896 17.5782 11.5116L17.0939 11.7069L17.3101 12.1822C17.4493 12.4883 17.5869 12.7791 17.7211 13.0626C17.9778 13.6053 18.222 14.1212 18.4404 14.6662L18.5803 15.0155L18.9547 14.9777C21.9085 14.6798 24.8095 14.83 27.7298 15.4058L28.3297 15.5241L28.3265 14.9126C28.3107 11.8715 27.2512 8.92796 25.3252 6.57435ZM15.8095 12.6077L15.6288 12.2237L15.2206 12.3395C10.956 13.5491 6.61026 14.1034 2.17715 14.1243L1.69455 14.1265L1.67974 14.6089C1.57437 18.0386 2.80043 21.3761 5.10103 23.922L5.57781 24.4496L5.91298 23.8224C8.13301 19.6683 12.4327 17.2633 16.6012 15.4253L17.0707 15.2182L16.8516 14.7543C16.6753 14.3807 16.4935 14.0117 16.3174 13.6542L16.3161 13.6515C16.1389 13.2918 15.9677 12.9441 15.8095 12.6077ZM28.1604 17.1094L28.2322 16.6614L28.2242 16.6593C28.2263 16.6417 28.2283 16.6241 28.2303 16.6066L27.8526 16.562L27.7934 16.5465C26.0135 16.0807 24.1832 15.8363 22.344 15.8188L22.3422 15.817L22.1347 15.817C21.2796 15.817 20.4256 15.8789 19.5794 16.0022L18.9605 16.0924L19.1847 16.6763C20.3255 19.6466 20.9741 22.5964 21.6613 25.7215L21.6682 25.7529L21.8259 26.4701L22.4354 26.0605C23.9526 25.041 25.2438 23.7202 26.2287 22.1803C27.2136 20.6404 27.8712 18.9143 28.1604 17.1094ZM0.5 15C0.5 6.99164 6.99164 0.5 15 0.5C23.0084 0.5 29.5 6.99164 29.5 15C29.5 23.0084 23.0084 29.5 15 29.5C6.99164 29.5 0.5 23.0084 0.5 15Z" fill="#272727" stroke="#272727"/>
<path d="M122.141 18.045H124.944H125.544V18.645V27.3175V28.0243L124.846 27.9095C121.787 27.406 119.006 25.831 117.001 23.466C114.996 21.101 113.897 18.1002 113.9 14.9997C113.9 7.74969 119.75 1.9 127 1.9C134.25 1.9 140.1 7.74955 140.1 14.9994L122.141 18.045ZM122.141 18.045V15.6288H124.944H125.544V15.0288V12.625C125.544 10.7225 126.007 9.46526 126.76 8.68243C127.509 7.9038 128.64 7.495 130.194 7.495C131.238 7.495 131.947 7.54637 132.414 7.5956V9.62H130.757C129.82 9.62 129.157 10.0866 128.762 10.7758C128.389 11.4259 128.26 12.2543 128.26 13.0538V15.0288V15.6288H128.86H132.279L131.906 18.045H128.86H128.26V18.645V27.3487V28.0444L128.948 27.9422C132.051 27.4817 134.884 25.921 136.931 23.5449C138.978 21.169 140.103 18.1362 140.1 15L122.141 18.045ZM112.6 15C112.6 7.06137 119.061 0.6 127 0.6C134.939 0.6 141.4 7.06137 141.4 15C141.4 22.9386 134.939 29.4 127 29.4C119.061 29.4 112.6 22.9386 112.6 15Z" fill="#272727" stroke="#272727" stroke-width="1.2"/>
<path d="M78.6505 16.5837V22H75.5109V16.9456C75.5109 15.6769 75.0567 14.811 73.9198 14.811C73.0525 14.811 72.5354 15.3941 72.3083 15.9596C72.2262 16.1618 72.2043 16.4431 72.2043 16.7244V22H69.0632C69.0632 22 69.1057 13.4412 69.0632 12.5548H72.2043V13.8924L72.1838 13.9232H72.2043V13.8939C72.6218 13.2493 73.3661 12.3321 75.0347 12.3321C77.1005 12.3321 78.6505 13.6829 78.6505 16.5837V16.5837ZM65.7771 8C64.7032 8 64 8.70615 64 9.63206C64 10.5404 64.6827 11.2656 65.7361 11.2656H65.7566C66.8524 11.2656 67.5337 10.5389 67.5337 9.63206C67.5132 8.70615 66.8524 8 65.7771 8ZM64.1861 22H67.3271V12.5548H64.1861V22V22Z" fill="#272727"/>
<circle cx="71" cy="15" r="13.85" stroke="#272727" stroke-width="2.3"/>
</svg>
