<svg width="957" height="827" viewBox="0 0 957 827" fill="none" xmlns="http://www.w3.org/2000/svg">
<path opacity="0.2" fill-rule="evenodd" clip-rule="evenodd" d="M957 49.3651L876.163 5H875.952L750.997 73.4625H750.786L625.831 5H625.62L500.664 73.4625H500.454L375.498 5H375.288L250.332 73.4625H250.122L125.166 5H124.955L0.210717 73.4625H0V210.387L124.955 278.85H125.166V415.775L0.210717 484.038H0V620.963L124.955 689.425H125.166V826.35L123.976 827H124.708L125.166 826.749L125.625 827H126.353H126.563H127.505L125.588 825.951V689.625L250.332 621.362L375.077 689.625V825.951L373.159 827H375.04L375.498 826.749L375.957 827H376.688H376.69H377.837L375.92 825.951V689.625L500.664 621.362L625.409 689.625V825.951L623.491 827H625.161L625.62 826.749L626.078 827H627.021H627.023H627.959L626.041 825.951V689.625L750.786 621.362L875.531 689.625V825.951L873.613 827H875.494L875.952 826.749L876.411 827H877.353H877.355H878.291L876.374 825.951V689.625L957 645.504V644.675L875.952 689.026L751.207 620.763V484.437L875.952 416.174L957 460.525V459.496L876.374 415.376V279.049L957 234.929V233.9L875.952 278.251L751.207 209.988V73.6621L875.952 5.3992L957 49.7503V49.3651ZM875.531 415.376V279.049L750.786 210.787L626.041 279.049V415.376L750.786 483.638L875.531 415.376ZM501.086 484.437V620.763L625.831 689.026L750.575 620.763V484.437L625.831 416.174L501.086 484.437ZM625.831 5.3992L501.086 73.6621V209.988L625.831 278.251L750.575 209.988V73.6621L625.831 5.3992ZM625.198 415.376V279.049L500.454 210.787L375.709 279.049V415.376L500.454 483.638L625.198 415.376ZM250.754 484.437V620.763L375.498 689.026L500.243 620.763V484.437L375.498 416.174L250.754 484.437ZM375.498 5.3992L250.754 73.6621V209.988L375.498 278.251L500.243 209.988V73.6621L375.498 5.3992ZM374.866 415.376V279.049L250.122 210.787L125.377 279.049V415.376L250.122 483.638L374.866 415.376ZM0.421435 73.6621V209.988L125.166 278.451L249.911 210.188V73.8616L125.166 5.5988L0.421435 73.6621ZM0.421435 484.437V620.763L125.166 689.026L249.911 620.763V484.437L125.166 416.174L0.421435 484.437Z" fill="#366B6D"/>
<circle cx="376" cy="5" r="5" fill="#CDDADB"/>
<circle cx="125" cy="5" r="5" fill="#CDDADB"/>
<circle cx="876" cy="5" r="5" fill="#CDDADB"/>
<circle cx="626" cy="5" r="5" fill="#CDDADB"/>
<circle cx="375" cy="277" r="5" fill="#CDDADB"/>
<circle cx="125" cy="277" r="5" fill="#CDDADB"/>
<circle cx="875" cy="277" r="5" fill="#CDDADB"/>
<circle cx="625" cy="277" r="5" fill="#CDDADB"/>
<circle cx="376" cy="688" r="5" fill="#CDDADB"/>
<circle cx="125" cy="688" r="5" fill="#CDDADB"/>
<circle cx="876" cy="688" r="5" fill="#CDDADB"/>
<circle cx="626" cy="688" r="5" fill="#CDDADB"/>
<circle cx="376" cy="416" r="5" fill="#CDDADB"/>
<circle cx="125" cy="416" r="5" fill="#CDDADB"/>
<circle cx="876" cy="416" r="5" fill="#CDDADB"/>
<circle cx="626" cy="416" r="5" fill="#CDDADB"/>
<circle cx="251" cy="210" r="5" fill="#CDDADB"/>
<circle cx="751" cy="210" r="5" fill="#CDDADB"/>
<circle cx="501" cy="210" r="5" fill="#CDDADB"/>
<circle cx="251" cy="622" r="5" fill="#CDDADB"/>
<circle cx="751" cy="622" r="5" fill="#CDDADB"/>
<circle cx="501" cy="622" r="5" fill="#CDDADB"/>
<circle cx="251" cy="74" r="5" fill="#CDDADB"/>
<circle cx="751" cy="74" r="5" fill="#CDDADB"/>
<circle cx="501" cy="74" r="5" fill="#CDDADB"/>
<circle cx="251" cy="485" r="5" fill="#CDDADB"/>
<circle cx="751" cy="485" r="5" fill="#CDDADB"/>
<circle cx="501" cy="485" r="5" fill="#CDDADB"/>
</svg>
