<svg width="1920" height="901" viewBox="0 0 1920 901" fill="none" xmlns="http://www.w3.org/2000/svg">
<path opacity="0.2" fill-rule="evenodd" clip-rule="evenodd" d="M0 463.393L87.1661 415.775V278.85H86.9554L0 231.207V230.612L87.1661 278.451L211.911 210.188V73.8616L87.1661 5.5988L0 53.1584V52.7229L86.9554 5H87.1661L212.122 73.4625H212.332L337.288 5H337.498L462.454 73.4625H462.664L587.62 5H587.831L712.786 73.4625H712.997L837.952 5H838.163L962.907 73.4625H963.118L1088.07 5H1088.28L1213.24 73.4625H1213.45L1338.41 5H1338.62L1463.57 73.4625H1463.78L1588.74 5H1588.95L1713.69 73.4625H1713.9L1838.86 5H1839.07L1920 49.2663V49.6856L1839.07 5.3992L1714.33 73.6621V209.988L1839.07 278.251L1920 233.965V234.52L1839.49 278.65V415.575H1839.7L1920 459.57V460.261L1839.07 415.974L1714.33 484.237V620.563L1839.07 688.826L1920 644.54V645.115L1839.49 689.225V826.15H1839.7L1920 870.145V871.035L1839.07 826.749L1714.33 895.012V897H1713.48V894.812L1588.74 826.549L1463.99 894.812V897H1463.15V895.012L1338.41 826.749L1213.66 895.012V897H1212.82V895.012L1088.07 826.749L963.329 895.012V897H962.697V895.012L837.952 826.749L713.207 895.012V897H712.365V895.012L587.62 826.749L462.875 895.012V897H462.243V895.012L337.498 826.749L212.754 895.012V897H211.911V895.012L87.1661 826.749L0 874.448V873.969L87.1661 826.35V689.425H86.9554L0 641.783V641.327L87.1661 689.026L211.911 620.763V484.437L87.1661 416.174L0 463.873V463.393ZM1213.87 484.437V620.763L1338.62 689.026L1463.36 620.763V484.437L1338.62 416.174L1213.87 484.437ZM1713.48 620.563V484.237L1588.74 416.174L1463.99 484.237V620.563L1588.74 688.826L1713.48 620.563ZM1589.16 279.049V415.376L1713.9 483.638L1838.65 415.376V279.049L1713.9 210.787L1589.16 279.049ZM1588.74 5.5988L1463.99 73.6621V209.988L1588.74 278.251L1713.48 210.188V73.8616L1588.74 5.5988ZM1588.32 415.376V279.049L1463.57 210.787L1338.83 279.049V415.376L1463.57 483.638L1588.32 415.376ZM1338.62 5.3992L1213.87 73.6621V209.988L1338.62 278.251L1463.36 209.988V73.6621L1338.62 5.3992ZM1337.98 415.376V279.049L1213.24 210.787L1088.49 279.049V415.376L1213.24 483.638L1337.98 415.376ZM963.54 484.437V620.763L1088.28 689.026L1213.03 620.763V484.437L1088.28 416.174L963.54 484.437ZM1088.28 5.3992L963.54 73.6621V209.988L1088.28 278.251L1213.03 209.988V73.6621L1088.28 5.3992ZM1087.86 415.376V279.049L963.118 210.787L838.374 279.049V415.376L963.118 483.638L1087.86 415.376ZM713.207 484.437V620.763L837.952 689.026L962.697 620.763V484.437L837.952 416.174L713.207 484.437ZM837.952 5.3992L713.207 73.6621V209.988L837.952 278.251L962.697 209.988V73.6621L837.952 5.3992ZM837.531 415.376V279.049L712.786 210.787L588.041 279.049V415.376L712.786 483.638L837.531 415.376ZM463.086 484.437V620.763L587.831 689.026L712.575 620.763V484.437L587.831 416.174L463.086 484.437ZM587.831 5.3992L463.086 73.6621V209.988L587.831 278.251L712.575 209.988V73.6621L587.831 5.3992ZM587.198 415.376V279.049L462.454 210.787L337.709 279.049V415.376L462.454 483.638L587.198 415.376ZM212.754 484.437V620.763L337.498 689.026L462.243 620.763V484.437L337.498 416.174L212.754 484.437ZM337.498 5.3992L212.754 73.6621V209.988L337.498 278.251L462.243 209.988V73.6621L337.498 5.3992ZM336.866 415.376V279.049L212.122 210.787L87.3768 279.049V415.376L212.122 483.638L336.866 415.376ZM87.5875 689.625V825.951L212.332 894.214L337.077 825.951V689.625L212.332 621.362L87.5875 689.625ZM337.92 689.625V825.951L462.664 894.214L587.409 825.951V689.625L462.664 621.362L337.92 689.625ZM588.041 689.625V825.951L712.786 894.214L837.531 825.951V689.625L712.786 621.362L588.041 689.625ZM838.374 689.625V825.951L963.118 894.214L1087.86 825.951V689.625L963.118 621.362L838.374 689.625ZM1088.71 689.625V825.951L1213.24 894.214L1337.98 825.951V689.625L1213.45 621.362L1088.71 689.625ZM1339.04 689.625V825.951L1463.78 894.214L1588.53 825.951V689.625L1463.78 621.362L1339.04 689.625ZM1838.65 825.951V689.625L1713.9 621.362L1589.16 689.625V825.951L1713.9 894.214L1838.65 825.951Z" fill="#366B6D"/>
<circle cx="338" cy="5" r="5" fill="#CDDADB"/>
<circle cx="87" cy="5" r="5" fill="#CDDADB"/>
<circle cx="1839" cy="5" r="5" fill="#CDDADB"/>
<circle cx="1338" cy="5" r="5" fill="#CDDADB"/>
<circle cx="838" cy="5" r="5" fill="#CDDADB"/>
<circle cx="1590" cy="5" r="5" fill="#CDDADB"/>
<circle cx="1088" cy="5" r="5" fill="#CDDADB"/>
<circle cx="588" cy="5" r="5" fill="#CDDADB"/>
<circle cx="337" cy="277" r="5" fill="#CDDADB"/>
<circle cx="87" cy="277" r="5" fill="#CDDADB"/>
<circle cx="1838" cy="277" r="5" fill="#CDDADB"/>
<circle cx="1337" cy="277" r="5" fill="#CDDADB"/>
<circle cx="837" cy="277" r="5" fill="#CDDADB"/>
<circle cx="1589" cy="277" r="5" fill="#CDDADB"/>
<circle cx="1087" cy="277" r="5" fill="#CDDADB"/>
<circle cx="587" cy="277" r="5" fill="#CDDADB"/>
<circle cx="338" cy="688" r="5" fill="#CDDADB"/>
<circle cx="87" cy="688" r="5" fill="#CDDADB"/>
<circle cx="1839" cy="688" r="5" fill="#CDDADB"/>
<circle cx="1338" cy="688" r="5" fill="#CDDADB"/>
<circle cx="838" cy="688" r="5" fill="#CDDADB"/>
<circle cx="1590" cy="688" r="5" fill="#CDDADB"/>
<circle cx="1088" cy="688" r="5" fill="#CDDADB"/>
<circle cx="588" cy="688" r="5" fill="#CDDADB"/>
<circle cx="338" cy="416" r="5" fill="#CDDADB"/>
<circle cx="87" cy="416" r="5" fill="#CDDADB"/>
<circle cx="1839" cy="416" r="5" fill="#CDDADB"/>
<circle cx="1338" cy="416" r="5" fill="#CDDADB"/>
<circle cx="838" cy="416" r="5" fill="#CDDADB"/>
<circle cx="1590" cy="416" r="5" fill="#CDDADB"/>
<circle cx="1088" cy="416" r="5" fill="#CDDADB"/>
<circle cx="588" cy="416" r="5" fill="#CDDADB"/>
<circle cx="213" cy="210" r="5" fill="#CDDADB"/>
<circle cx="1714" cy="210" r="5" fill="#CDDADB"/>
<circle cx="1213" cy="210" r="5" fill="#CDDADB"/>
<circle cx="713" cy="210" r="5" fill="#CDDADB"/>
<circle cx="1465" cy="210" r="5" fill="#CDDADB"/>
<circle cx="963" cy="210" r="5" fill="#CDDADB"/>
<circle cx="463" cy="210" r="5" fill="#CDDADB"/>
<circle cx="213" cy="622" r="5" fill="#CDDADB"/>
<circle cx="1714" cy="622" r="5" fill="#CDDADB"/>
<circle cx="1213" cy="622" r="5" fill="#CDDADB"/>
<circle cx="713" cy="622" r="5" fill="#CDDADB"/>
<circle cx="1465" cy="622" r="5" fill="#CDDADB"/>
<circle cx="963" cy="622" r="5" fill="#CDDADB"/>
<circle cx="463" cy="622" r="5" fill="#CDDADB"/>
<circle cx="338" cy="827" r="5" fill="#CDDADB"/>
<circle cx="87" cy="827" r="5" fill="#CDDADB"/>
<circle cx="1839" cy="827" r="5" fill="#CDDADB"/>
<circle cx="1338" cy="827" r="5" fill="#CDDADB"/>
<circle cx="838" cy="827" r="5" fill="#CDDADB"/>
<circle cx="1590" cy="827" r="5" fill="#CDDADB"/>
<circle cx="1088" cy="827" r="5" fill="#CDDADB"/>
<circle cx="588" cy="827" r="5" fill="#CDDADB"/>
<circle cx="213" cy="74" r="5" fill="#CDDADB"/>
<circle cx="1714" cy="74" r="5" fill="#CDDADB"/>
<circle cx="1213" cy="74" r="5" fill="#CDDADB"/>
<circle cx="713" cy="74" r="5" fill="#CDDADB"/>
<circle cx="1465" cy="74" r="5" fill="#CDDADB"/>
<circle cx="963" cy="74" r="5" fill="#CDDADB"/>
<circle cx="463" cy="74" r="5" fill="#CDDADB"/>
<circle cx="213" cy="485" r="5" fill="#CDDADB"/>
<circle cx="1714" cy="485" r="5" fill="#CDDADB"/>
<circle cx="1213" cy="485" r="5" fill="#CDDADB"/>
<circle cx="713" cy="485" r="5" fill="#CDDADB"/>
<circle cx="1465" cy="485" r="5" fill="#CDDADB"/>
<circle cx="963" cy="485" r="5" fill="#CDDADB"/>
<circle cx="463" cy="485" r="5" fill="#CDDADB"/>
<circle cx="213" cy="896" r="5" fill="#CDDADB"/>
<circle cx="1714" cy="896" r="5" fill="#CDDADB"/>
<circle cx="1213" cy="896" r="5" fill="#CDDADB"/>
<circle cx="713" cy="896" r="5" fill="#CDDADB"/>
<circle cx="1465" cy="896" r="5" fill="#CDDADB"/>
<circle cx="963" cy="896" r="5" fill="#CDDADB"/>
<circle cx="463" cy="896" r="5" fill="#CDDADB"/>
</svg>
