<svg width="1920" height="1723" viewBox="0 0 1920 1723" fill="none" xmlns="http://www.w3.org/2000/svg">
<path opacity="0.2" fill-rule="evenodd" clip-rule="evenodd" d="M1920 49.3651L1839.16 5H1838.95L1714 73.4625H1713.79L1588.83 5H1588.62L1463.66 73.4625H1463.45L1338.5 5H1338.29L1213.33 73.4625H1213.12L1088.17 5H1087.96L963.211 73.4625H963V210.387L1087.96 278.85H1088.17V415.775L963.211 484.038H963V620.963L1087.96 689.425H1088.17V826.35L1086.98 827H1087.71L1088.17 826.749L1088.62 827H1089.35H1089.56H1090.51L1088.59 825.951V689.625L1213.33 621.362L1338.08 689.625V825.951L1336.16 827H1338.04L1338.5 826.749L1338.96 827H1339.69H1339.69H1340.84L1338.92 825.951V689.625L1463.66 621.362L1588.41 689.625V825.951L1586.49 827H1588.16L1588.62 826.749L1589.08 827H1590.02H1590.02H1590.96L1589.04 825.951V689.625L1713.79 621.362L1838.53 689.625V825.951L1836.61 827H1838.49L1838.95 826.749L1839.41 827H1840.35H1840.35H1841.29L1839.37 825.951V689.625L1920 645.504V644.675L1838.95 689.026L1714.21 620.763V484.437L1838.95 416.174L1920 460.525V459.496L1839.37 415.376V279.049L1920 234.929V233.9L1838.95 278.251L1714.21 209.988V73.6621L1838.95 5.3992L1920 49.7503V49.3651ZM1838.53 415.376V279.049L1713.79 210.787L1589.04 279.049V415.376L1713.79 483.638L1838.53 415.376ZM1464.09 484.437V620.763L1588.83 689.026L1713.58 620.763V484.437L1588.83 416.174L1464.09 484.437ZM1588.83 5.3992L1464.09 73.6621V209.988L1588.83 278.251L1713.58 209.988V73.6621L1588.83 5.3992ZM1588.2 415.376V279.049L1463.45 210.787L1338.71 279.049V415.376L1463.45 483.638L1588.2 415.376ZM1213.75 484.437V620.763L1338.5 689.026L1463.24 620.763V484.437L1338.5 416.174L1213.75 484.437ZM1338.5 5.3992L1213.75 73.6621V209.988L1338.5 278.251L1463.24 209.988V73.6621L1338.5 5.3992ZM1337.87 415.376V279.049L1213.12 210.787L1088.38 279.049V415.376L1213.12 483.638L1337.87 415.376ZM963.421 73.6621V209.988L1088.17 278.451L1212.91 210.188V73.8616L1088.17 5.5988L963.421 73.6621ZM963.421 484.437V620.763L1088.17 689.026L1212.91 620.763V484.437L1088.17 416.174L963.421 484.437Z" fill="#366B6D"/>
<circle cx="1339" cy="5" r="5" fill="#CDDADB"/>
<circle cx="1088" cy="5" r="5" fill="#CDDADB"/>
<circle cx="1839" cy="5" r="5" fill="#CDDADB"/>
<circle cx="1589" cy="5" r="5" fill="#CDDADB"/>
<circle cx="1338" cy="277" r="5" fill="#CDDADB"/>
<circle cx="1088" cy="277" r="5" fill="#CDDADB"/>
<circle cx="1838" cy="277" r="5" fill="#CDDADB"/>
<circle cx="1588" cy="277" r="5" fill="#CDDADB"/>
<circle cx="1339" cy="688" r="5" fill="#CDDADB"/>
<circle cx="1088" cy="688" r="5" fill="#CDDADB"/>
<circle cx="1839" cy="688" r="5" fill="#CDDADB"/>
<circle cx="1589" cy="688" r="5" fill="#CDDADB"/>
<circle cx="1339" cy="416" r="5" fill="#CDDADB"/>
<circle cx="1088" cy="416" r="5" fill="#CDDADB"/>
<circle cx="1839" cy="416" r="5" fill="#CDDADB"/>
<circle cx="1589" cy="416" r="5" fill="#CDDADB"/>
<circle cx="1214" cy="210" r="5" fill="#CDDADB"/>
<circle cx="1714" cy="210" r="5" fill="#CDDADB"/>
<circle cx="1464" cy="210" r="5" fill="#CDDADB"/>
<circle cx="1214" cy="622" r="5" fill="#CDDADB"/>
<circle cx="1714" cy="622" r="5" fill="#CDDADB"/>
<circle cx="1464" cy="622" r="5" fill="#CDDADB"/>
<circle cx="1214" cy="74" r="5" fill="#CDDADB"/>
<circle cx="1714" cy="74" r="5" fill="#CDDADB"/>
<circle cx="1464" cy="74" r="5" fill="#CDDADB"/>
<circle cx="1214" cy="485" r="5" fill="#CDDADB"/>
<circle cx="1714" cy="485" r="5" fill="#CDDADB"/>
<circle cx="1464" cy="485" r="5" fill="#CDDADB"/>
<path opacity="0.2" fill-rule="evenodd" clip-rule="evenodd" d="M0 1285.39L87.1661 1237.77V1100.85H86.9554L0 1053.21V1052.61L87.1661 1100.45L211.911 1032.19V895.862L87.1661 827.599L0 875.158V874.723L86.9554 827H87.1661L212.122 895.462H212.332L337.288 827H337.498L462.454 895.462H462.664L587.62 827H587.831L712.786 895.462H712.997L837.952 827H838.163L962.907 895.462H963.118L1088.07 827H1088.28L1213.24 895.462H1213.45L1338.41 827H1338.62L1463.57 895.462H1463.78L1588.74 827H1588.95L1713.69 895.462H1713.9L1838.86 827H1839.07L1920 871.266V871.686L1839.07 827.399L1714.33 895.662V1031.99L1839.07 1100.25L1920 1055.96V1056.52L1839.49 1100.65V1237.58H1839.7L1920 1281.57V1282.26L1839.07 1237.97L1714.33 1306.24V1442.56L1839.07 1510.83L1920 1466.54V1467.12L1839.49 1511.23V1648.15H1839.7L1920 1692.14V1693.04L1839.07 1648.75L1714.33 1717.01V1719H1713.48V1716.81L1588.74 1648.55L1463.99 1716.81V1719H1463.15V1717.01L1338.41 1648.75L1213.66 1717.01V1719H1212.82V1717.01L1088.07 1648.75L963.329 1717.01V1719H962.697V1717.01L837.952 1648.75L713.207 1717.01V1719H712.365V1717.01L587.62 1648.75L462.875 1717.01V1719H462.243V1717.01L337.498 1648.75L212.754 1717.01V1719H211.911V1717.01L87.1661 1648.75L0 1696.45V1695.97L87.1661 1648.35V1511.42H86.9554L0 1463.78V1463.33L87.1661 1511.03L211.911 1442.76V1306.44L87.1661 1238.17L0 1285.87V1285.39ZM1213.87 1306.44V1442.76L1338.62 1511.03L1463.36 1442.76V1306.44L1338.62 1238.17L1213.87 1306.44ZM1713.48 1442.56V1306.24L1588.74 1238.17L1463.99 1306.24V1442.56L1588.74 1510.83L1713.48 1442.56ZM1589.16 1101.05V1237.38L1713.9 1305.64L1838.65 1237.38V1101.05L1713.9 1032.79L1589.16 1101.05ZM1588.74 827.599L1463.99 895.662V1031.99L1588.74 1100.25L1713.48 1032.19V895.862L1588.74 827.599ZM1588.32 1237.38V1101.05L1463.57 1032.79L1338.83 1101.05V1237.38L1463.57 1305.64L1588.32 1237.38ZM1338.62 827.399L1213.87 895.662V1031.99L1338.62 1100.25L1463.36 1031.99V895.662L1338.62 827.399ZM1337.98 1237.38V1101.05L1213.24 1032.79L1088.49 1101.05V1237.38L1213.24 1305.64L1337.98 1237.38ZM963.54 1306.44V1442.76L1088.28 1511.03L1213.03 1442.76V1306.44L1088.28 1238.17L963.54 1306.44ZM1088.28 827.399L963.54 895.662V1031.99L1088.28 1100.25L1213.03 1031.99V895.662L1088.28 827.399ZM1087.86 1237.38V1101.05L963.118 1032.79L838.374 1101.05V1237.38L963.118 1305.64L1087.86 1237.38ZM713.207 1306.44V1442.76L837.952 1511.03L962.697 1442.76V1306.44L837.952 1238.17L713.207 1306.44ZM837.952 827.399L713.207 895.662V1031.99L837.952 1100.25L962.697 1031.99V895.662L837.952 827.399ZM837.531 1237.38V1101.05L712.786 1032.79L588.041 1101.05V1237.38L712.786 1305.64L837.531 1237.38ZM463.086 1306.44V1442.76L587.831 1511.03L712.575 1442.76V1306.44L587.831 1238.17L463.086 1306.44ZM587.831 827.399L463.086 895.662V1031.99L587.831 1100.25L712.575 1031.99V895.662L587.831 827.399ZM587.198 1237.38V1101.05L462.454 1032.79L337.709 1101.05V1237.38L462.454 1305.64L587.198 1237.38ZM212.754 1306.44V1442.76L337.498 1511.03L462.243 1442.76V1306.44L337.498 1238.17L212.754 1306.44ZM337.498 827.399L212.754 895.662V1031.99L337.498 1100.25L462.243 1031.99V895.662L337.498 827.399ZM336.866 1237.38V1101.05L212.122 1032.79L87.3768 1101.05V1237.38L212.122 1305.64L336.866 1237.38ZM87.5875 1511.62V1647.95L212.332 1716.21L337.077 1647.95V1511.62L212.332 1443.36L87.5875 1511.62ZM337.92 1511.62V1647.95L462.664 1716.21L587.409 1647.95V1511.62L462.664 1443.36L337.92 1511.62ZM588.041 1511.62V1647.95L712.786 1716.21L837.531 1647.95V1511.62L712.786 1443.36L588.041 1511.62ZM838.374 1511.62V1647.95L963.118 1716.21L1087.86 1647.95V1511.62L963.118 1443.36L838.374 1511.62ZM1088.71 1511.62V1647.95L1213.24 1716.21L1337.98 1647.95V1511.62L1213.45 1443.36L1088.71 1511.62ZM1339.04 1511.62V1647.95L1463.78 1716.21L1588.53 1647.95V1511.62L1463.78 1443.36L1339.04 1511.62ZM1838.65 1647.95V1511.62L1713.9 1443.36L1589.16 1511.62V1647.95L1713.9 1716.21L1838.65 1647.95Z" fill="#366B6D"/>
<circle cx="338" cy="827" r="5" fill="#CDDADB"/>
<circle cx="87" cy="827" r="5" fill="#CDDADB"/>
<circle cx="1839" cy="827" r="5" fill="#CDDADB"/>
<circle cx="1338" cy="827" r="5" fill="#CDDADB"/>
<circle cx="838" cy="827" r="5" fill="#CDDADB"/>
<circle cx="1590" cy="827" r="5" fill="#CDDADB"/>
<circle cx="1088" cy="827" r="5" fill="#CDDADB"/>
<circle cx="588" cy="827" r="5" fill="#CDDADB"/>
<circle cx="337" cy="1099" r="5" fill="#CDDADB"/>
<circle cx="87" cy="1099" r="5" fill="#CDDADB"/>
<circle cx="1838" cy="1099" r="5" fill="#CDDADB"/>
<circle cx="1337" cy="1099" r="5" fill="#CDDADB"/>
<circle cx="837" cy="1099" r="5" fill="#CDDADB"/>
<circle cx="1589" cy="1099" r="5" fill="#CDDADB"/>
<circle cx="1087" cy="1099" r="5" fill="#CDDADB"/>
<circle cx="587" cy="1099" r="5" fill="#CDDADB"/>
<circle cx="338" cy="1510" r="5" fill="#CDDADB"/>
<circle cx="87" cy="1510" r="5" fill="#CDDADB"/>
<circle cx="1839" cy="1510" r="5" fill="#CDDADB"/>
<circle cx="1338" cy="1510" r="5" fill="#CDDADB"/>
<circle cx="838" cy="1510" r="5" fill="#CDDADB"/>
<circle cx="1590" cy="1510" r="5" fill="#CDDADB"/>
<circle cx="1088" cy="1510" r="5" fill="#CDDADB"/>
<circle cx="588" cy="1510" r="5" fill="#CDDADB"/>
<circle cx="338" cy="1238" r="5" fill="#CDDADB"/>
<circle cx="87" cy="1238" r="5" fill="#CDDADB"/>
<circle cx="1839" cy="1238" r="5" fill="#CDDADB"/>
<circle cx="1338" cy="1238" r="5" fill="#CDDADB"/>
<circle cx="838" cy="1238" r="5" fill="#CDDADB"/>
<circle cx="1590" cy="1238" r="5" fill="#CDDADB"/>
<circle cx="1088" cy="1238" r="5" fill="#CDDADB"/>
<circle cx="588" cy="1238" r="5" fill="#CDDADB"/>
<circle cx="213" cy="1032" r="5" fill="#CDDADB"/>
<circle cx="1714" cy="1032" r="5" fill="#CDDADB"/>
<circle cx="1213" cy="1032" r="5" fill="#CDDADB"/>
<circle cx="713" cy="1032" r="5" fill="#CDDADB"/>
<circle cx="1465" cy="1032" r="5" fill="#CDDADB"/>
<circle cx="963" cy="1032" r="5" fill="#CDDADB"/>
<circle cx="463" cy="1032" r="5" fill="#CDDADB"/>
<circle cx="213" cy="1444" r="5" fill="#CDDADB"/>
<circle cx="1714" cy="1444" r="5" fill="#CDDADB"/>
<circle cx="1213" cy="1444" r="5" fill="#CDDADB"/>
<circle cx="713" cy="1444" r="5" fill="#CDDADB"/>
<circle cx="1465" cy="1444" r="5" fill="#CDDADB"/>
<circle cx="963" cy="1444" r="5" fill="#CDDADB"/>
<circle cx="463" cy="1444" r="5" fill="#CDDADB"/>
<circle cx="338" cy="1649" r="5" fill="#CDDADB"/>
<circle cx="87" cy="1649" r="5" fill="#CDDADB"/>
<circle cx="1839" cy="1649" r="5" fill="#CDDADB"/>
<circle cx="1338" cy="1649" r="5" fill="#CDDADB"/>
<circle cx="838" cy="1649" r="5" fill="#CDDADB"/>
<circle cx="1590" cy="1649" r="5" fill="#CDDADB"/>
<circle cx="1088" cy="1649" r="5" fill="#CDDADB"/>
<circle cx="588" cy="1649" r="5" fill="#CDDADB"/>
<circle cx="213" cy="896" r="5" fill="#CDDADB"/>
<circle cx="1714" cy="896" r="5" fill="#CDDADB"/>
<circle cx="1213" cy="896" r="5" fill="#CDDADB"/>
<circle cx="713" cy="896" r="5" fill="#CDDADB"/>
<circle cx="1465" cy="896" r="5" fill="#CDDADB"/>
<circle cx="963" cy="896" r="5" fill="#CDDADB"/>
<circle cx="463" cy="896" r="5" fill="#CDDADB"/>
<circle cx="213" cy="1307" r="5" fill="#CDDADB"/>
<circle cx="1714" cy="1307" r="5" fill="#CDDADB"/>
<circle cx="1213" cy="1307" r="5" fill="#CDDADB"/>
<circle cx="713" cy="1307" r="5" fill="#CDDADB"/>
<circle cx="1465" cy="1307" r="5" fill="#CDDADB"/>
<circle cx="963" cy="1307" r="5" fill="#CDDADB"/>
<circle cx="463" cy="1307" r="5" fill="#CDDADB"/>
<circle cx="213" cy="1718" r="5" fill="#CDDADB"/>
<circle cx="1714" cy="1718" r="5" fill="#CDDADB"/>
<circle cx="1213" cy="1718" r="5" fill="#CDDADB"/>
<circle cx="713" cy="1718" r="5" fill="#CDDADB"/>
<circle cx="1465" cy="1718" r="5" fill="#CDDADB"/>
<circle cx="963" cy="1718" r="5" fill="#CDDADB"/>
<circle cx="463" cy="1718" r="5" fill="#CDDADB"/>
</svg>
