<svg width="111" height="110" viewBox="0 0 111 110" fill="none" xmlns="http://www.w3.org/2000/svg">
<path fill-rule="evenodd" clip-rule="evenodd" d="M71.5936 39.2444C71.4658 39.466 71.5259 39.7479 71.73 39.902C78.6318 45.1139 83.0937 53.3933 83.0937 62.7171C83.0937 78.4903 70.324 91.2747 54.5746 91.2747C38.8252 91.2747 26.0556 78.4903 26.0556 62.7171C26.0556 53.6973 30.2313 45.6549 36.752 40.4216C36.9471 40.265 37.0014 39.9896 36.8765 39.7729C36.725 39.5102 36.3764 39.4409 36.1398 39.6306C29.3829 45.0472 25.0556 53.3761 25.0556 62.7171C25.0556 79.0413 38.2717 92.2747 54.5746 92.2747C70.8776 92.2747 84.0937 79.0413 84.0937 62.7171C84.0937 53.0616 79.47 44.4874 72.3187 39.0933C72.0813 38.9143 71.7421 38.9868 71.5936 39.2444Z" fill="white"/>
<rect x="54.0743" y="32.0625" width="1" height="10.0195" rx="0.5" fill="white"/>
<rect x="54.0743" y="47.0918" width="1" height="19.0371" rx="0.5" fill="white"/>
<rect width="1.00139" height="8.01114" rx="0.500696" transform="matrix(0.706645 -0.707569 0.706645 0.707569 49.0711 60.8257)" fill="white"/>
<rect width="1.00139" height="8.01114" rx="0.500696" transform="matrix(0.706645 0.707569 -0.706645 0.707569 59.7348 60.1172)" fill="white"/>
<path d="M15.6006 40.9446C15.377 41.5485 15.0711 42.0521 14.6829 42.4555C14.2892 42.8469 13.8541 43.1083 13.3774 43.2398C12.892 43.3681 12.3984 43.3439 11.8965 43.1673L12.3679 41.8938C12.8128 42.0094 13.2407 41.9693 13.6516 41.7735C14.0569 41.5657 14.3698 41.1642 14.5901 40.569C14.8008 40.0001 14.8261 39.5016 14.666 39.0737C14.5004 38.6338 14.1946 38.331 13.7484 38.1651C13.3984 38.0351 13.0785 38.0257 12.7885 38.1369C12.4985 38.2482 12.2431 38.4271 12.0225 38.6737C11.8018 38.9203 11.5351 39.2642 11.2224 39.7056C10.8413 40.251 10.504 40.6783 10.2104 40.9874C9.92011 41.2877 9.56012 41.5074 9.13045 41.6464C8.69528 41.7734 8.19337 41.7312 7.62471 41.5199C7.12604 41.3346 6.73122 41.0434 6.44026 40.6465C6.14929 40.2496 5.98308 39.7846 5.94162 39.2514C5.9034 38.7095 5.99446 38.1409 6.21481 37.5457C6.53238 36.688 7.00596 36.0674 7.63555 35.6841C8.26838 35.292 8.95208 35.1926 9.68664 35.386L9.20057 36.6989C8.83442 36.6126 8.46017 36.6826 8.07781 36.9089C7.68671 37.1319 7.39232 37.5104 7.19465 38.0443C7.00995 38.5432 6.99049 38.999 7.1363 39.4117C7.27335 39.8211 7.57371 40.1119 8.03739 40.2843C8.36984 40.4078 8.67507 40.4167 8.95308 40.3109C9.23434 40.1964 9.48206 40.0246 9.69625 39.7956C9.90493 39.5545 10.1716 39.2105 10.4963 38.7636C10.8861 38.2215 11.2322 37.7975 11.5345 37.4917C11.8281 37.1826 12.1941 36.9601 12.6325 36.8244C13.0621 36.6853 13.5657 36.7231 14.1431 36.9377C14.5893 37.1036 14.9655 37.3778 15.2716 37.7605C15.5778 38.1431 15.7675 38.6119 15.8408 39.1668C15.914 39.7218 15.8339 40.3144 15.6006 40.9446Z" fill="white"/>
<path d="M22.0158 24.3602C21.3629 23.6673 20.9333 22.8983 20.7269 22.0533C20.5141 21.2014 20.5285 20.3661 20.7701 19.5473C21.0184 18.722 21.4716 17.9985 22.1297 17.3768C22.9032 16.6461 23.7542 16.1952 24.683 16.024C25.6117 15.8528 26.5316 15.9853 27.4426 16.4214L26.3334 17.4693C25.7334 17.2272 25.138 17.167 24.5472 17.2886C23.9632 17.4037 23.4134 17.7048 22.8978 18.192C22.4025 18.6599 22.067 19.1952 21.8911 19.7979C21.7152 20.4006 21.7169 21.0217 21.8963 21.6611C22.0692 22.2938 22.4245 22.8954 22.9622 23.466C23.4934 24.0298 24.0726 24.42 24.6998 24.6364C25.3205 24.846 25.9364 24.8805 26.5475 24.7397C27.1587 24.5989 27.7119 24.2945 28.2071 23.8266C28.7228 23.3395 29.0581 22.8108 29.2133 22.2405C29.3688 21.6571 29.3433 21.0584 29.1368 20.4446L30.2461 19.3966C30.6216 20.3259 30.697 21.2497 30.4723 22.1681C30.2413 23.0798 29.739 23.9009 28.9656 24.6316C28.3075 25.2533 27.5631 25.6677 26.7323 25.8748C25.9019 26.0687 25.0714 26.0379 24.2409 25.7825C23.4103 25.5272 22.6686 25.053 22.0158 24.3602Z" fill="white"/>
<path d="M49.8755 16.2247L46.6274 12.9447L45.1366 13.331L46.1351 17.194L44.9018 17.5136L42.4599 8.06611L45.5092 7.2759C46.223 7.09093 46.8553 7.05722 47.4063 7.17477C47.9662 7.28998 48.4219 7.52381 48.7733 7.87627C49.1247 8.22872 49.3693 8.67152 49.5071 9.20467C49.6752 9.85529 49.6338 10.4783 49.3828 11.0736C49.1408 11.6666 48.6659 12.1416 47.9581 12.4986L51.3527 15.8419L49.8755 16.2247ZM44.8809 12.3415L46.6969 11.8709C47.3655 11.6976 47.8249 11.405 48.0751 10.9931C48.3229 10.5721 48.3756 10.086 48.2332 9.5348C48.0883 8.97455 47.8091 8.58412 47.3954 8.36351C46.9907 8.14056 46.4496 8.11689 45.772 8.29249L43.956 8.7631L44.8809 12.3415Z" fill="white"/>
<path d="M69.0866 18.5323C68.2008 18.3455 67.4358 17.9696 66.7916 17.4045C66.1494 16.8303 65.6915 16.128 65.4178 15.2977C65.1553 14.4602 65.122 13.5756 65.3179 12.644C65.5138 11.7124 65.8997 10.9209 66.4754 10.2697C67.0621 9.61129 67.764 9.1536 68.5811 8.89666C69.4 8.63058 70.2524 8.59095 71.1383 8.77775C72.0333 8.96648 72.8019 9.34795 73.4441 9.92216C74.0883 10.4872 74.5426 11.184 74.8071 12.0124C75.0716 12.8408 75.1049 13.7254 74.907 14.6661C74.7091 15.6069 74.3224 16.4028 73.7467 17.0541C73.171 17.7053 72.4736 18.1639 71.6547 18.43C70.8376 18.687 69.9816 18.7211 69.0866 18.5323ZM69.3143 17.45C69.9809 17.5906 70.6118 17.5615 71.2068 17.3626C71.8109 17.1657 72.3242 16.8113 72.7466 16.2995C73.1781 15.7895 73.4736 15.1555 73.633 14.3974C73.7944 13.6302 73.7794 12.9308 73.588 12.299C73.4076 11.66 73.0853 11.1294 72.6209 10.7072C72.1565 10.285 71.5864 10.0026 70.9106 9.86007C70.2348 9.71756 69.5994 9.74573 69.0044 9.94457C68.4094 10.1434 67.8962 10.4978 67.4646 11.0077C67.0442 11.5105 66.7532 12.1454 66.5919 12.9126C66.4324 13.6707 66.4429 14.3692 66.6232 15.0082C66.8127 15.6491 67.1396 16.1807 67.604 16.6029C68.0775 17.0271 68.6476 17.3094 69.3143 17.45Z" fill="white"/>
<path d="M86.2501 28.2938L88.7921 30.5757L88.1011 31.3476L84.611 28.2146L91.1201 20.9447L92.0681 21.7958L86.2501 28.2938Z" fill="white"/>
<path d="M96.358 43.7737L97.7573 46.89L96.8126 47.3153L94.8915 43.0368L103.789 39.0311L104.311 40.1933L96.358 43.7737Z" fill="white"/>
</svg>
