<svg width="59" height="61" viewBox="0 0 59 61" fill="none" xmlns="http://www.w3.org/2000/svg">
<path fill-rule="evenodd" clip-rule="evenodd" d="M12.4921 52.9281C12.6201 52.7064 12.56 52.4243 12.3556 52.2701C5.45853 47.0685 1 38.8056 1 29.5014C1 13.7613 13.7599 1.00142 29.5 1.00142C45.2401 1.00142 58 13.7613 58 29.5014C58 38.5022 53.8275 46.5285 47.3112 51.7516C47.1159 51.9082 47.0614 52.1838 47.1866 52.4006C47.3382 52.6631 47.6864 52.7323 47.923 52.5429C54.6755 47.1368 59 38.8242 59 29.5014C59 13.209 45.7924 0.00141525 29.5 0.00141525C13.2076 0.00141525 0 13.209 0 29.5014C0 39.1381 4.62075 47.6956 11.7675 53.0791C12.0048 53.2579 12.3436 53.1854 12.4921 52.9281Z" fill="black"/>
<rect x="30" y="60.0957" width="1" height="10" rx="0.5" transform="rotate(-180 30 60.0957)" fill="black"/>
<rect x="30" y="45.0957" width="1" height="19" rx="0.5" transform="rotate(-180 30 45.0957)" fill="black"/>
<rect x="35" y="31.3887" width="1" height="8" rx="0.5" transform="rotate(135 35 31.3887)" fill="black"/>
<rect x="24.3431" y="32.0957" width="1" height="8" rx="0.5" transform="rotate(-135 24.3431 32.0957)" fill="black"/>
</svg>
