<svg width="581" height="50" viewBox="0 0 581 50" fill="none" xmlns="http://www.w3.org/2000/svg">
<line y1="24.498" x2="135" y2="24.498" stroke="black"/>
<circle cx="137.5" cy="24.5" r="3.5" fill="black"/>
<path d="M174.391 20.5655C174.391 22.5455 173.742 24.1405 172.444 25.3505C171.146 26.5605 169.199 27.1655 166.603 27.1655H161.95V36.9995H159.64V13.9325H166.603C169.177 13.9325 171.113 14.5375 172.411 15.7475C173.731 16.9575 174.391 18.5635 174.391 20.5655ZM166.603 25.1855C170.211 25.1855 172.015 23.6455 172.015 20.5655C172.015 19.0255 171.586 17.8595 170.728 17.0675C169.87 16.2755 168.495 15.8795 166.603 15.8795H161.95V25.1855H166.603ZM194.819 27.0665C194.819 27.8585 194.797 28.4635 194.753 28.8815H179.804C179.87 30.2455 180.2 31.4115 180.794 32.3795C181.388 33.3475 182.169 34.0845 183.137 34.5905C184.105 35.0745 185.161 35.3165 186.305 35.3165C187.801 35.3165 189.055 34.9535 190.067 34.2275C191.101 33.5015 191.783 32.5225 192.113 31.2905H194.555C194.115 33.0505 193.169 34.4915 191.717 35.6135C190.287 36.7135 188.483 37.2635 186.305 37.2635C184.611 37.2635 183.093 36.8895 181.751 36.1415C180.409 35.3715 179.353 34.2935 178.583 32.9075C177.835 31.4995 177.461 29.8605 177.461 27.9905C177.461 26.1205 177.835 24.4815 178.583 23.0735C179.331 21.6655 180.376 20.5875 181.718 19.8395C183.06 19.0915 184.589 18.7175 186.305 18.7175C188.021 18.7175 189.517 19.0915 190.793 19.8395C192.091 20.5875 193.081 21.5995 193.763 22.8755C194.467 24.1295 194.819 25.5265 194.819 27.0665ZM192.476 27.0005C192.498 25.6585 192.223 24.5145 191.651 23.5685C191.101 22.6225 190.342 21.9075 189.374 21.4235C188.406 20.9395 187.35 20.6975 186.206 20.6975C184.49 20.6975 183.027 21.2475 181.817 22.3475C180.607 23.4475 179.936 24.9985 179.804 27.0005H192.476ZM201.605 22.1825C202.111 21.0605 202.881 20.1915 203.915 19.5755C204.971 18.9595 206.258 18.6515 207.776 18.6515V21.0605H207.149C205.477 21.0605 204.135 21.5115 203.123 22.4135C202.111 23.3155 201.605 24.8225 201.605 26.9345V36.9995H199.295V18.9815H201.605V22.1825ZM217.705 37.2635C215.637 37.2635 213.943 36.7905 212.623 35.8445C211.325 34.8765 210.599 33.5675 210.445 31.9175H212.821C212.931 32.9295 213.404 33.7545 214.24 34.3925C215.098 35.0085 216.242 35.3165 217.672 35.3165C218.926 35.3165 219.905 35.0195 220.609 34.4255C221.335 33.8315 221.698 33.0945 221.698 32.2145C221.698 31.5985 221.5 31.0925 221.104 30.6965C220.708 30.3005 220.202 29.9925 219.586 29.7725C218.992 29.5305 218.178 29.2775 217.144 29.0135C215.802 28.6615 214.713 28.3095 213.877 27.9575C213.041 27.6055 212.326 27.0885 211.732 26.4065C211.16 25.7025 210.874 24.7675 210.874 23.6015C210.874 22.7215 211.138 21.9075 211.666 21.1595C212.194 20.4115 212.942 19.8175 213.91 19.3775C214.878 18.9375 215.978 18.7175 217.21 18.7175C219.146 18.7175 220.708 19.2125 221.896 20.2025C223.084 21.1705 223.722 22.5125 223.81 24.2285H221.5C221.434 23.1725 221.016 22.3255 220.246 21.6875C219.498 21.0275 218.464 20.6975 217.144 20.6975C215.978 20.6975 215.032 20.9725 214.306 21.5225C213.58 22.0725 213.217 22.7545 213.217 23.5685C213.217 24.2725 213.426 24.8555 213.844 25.3175C214.284 25.7575 214.823 26.1095 215.461 26.3735C216.099 26.6155 216.957 26.8905 218.035 27.1985C219.333 27.5505 220.367 27.8915 221.137 28.2215C221.907 28.5515 222.567 29.0355 223.117 29.6735C223.667 30.3115 223.953 31.1585 223.975 32.2145C223.975 33.1825 223.711 34.0515 223.183 34.8215C222.655 35.5695 221.918 36.1635 220.972 36.6035C220.026 37.0435 218.937 37.2635 217.705 37.2635ZM236.461 37.2635C234.767 37.2635 233.238 36.8895 231.874 36.1415C230.532 35.3715 229.465 34.2935 228.673 32.9075C227.903 31.4995 227.518 29.8605 227.518 27.9905C227.518 26.1205 227.914 24.4925 228.706 23.1065C229.498 21.6985 230.576 20.6205 231.94 19.8725C233.304 19.1025 234.833 18.7175 236.527 18.7175C238.221 18.7175 239.75 19.1025 241.114 19.8725C242.5 20.6205 243.578 21.6985 244.348 23.1065C245.14 24.4925 245.536 26.1205 245.536 27.9905C245.536 29.8385 245.14 31.4665 244.348 32.8745C243.556 34.2825 242.467 35.3715 241.081 36.1415C239.695 36.8895 238.155 37.2635 236.461 37.2635ZM236.461 35.2505C237.649 35.2505 238.749 34.9865 239.761 34.4585C240.773 33.9085 241.587 33.0945 242.203 32.0165C242.841 30.9165 243.16 29.5745 243.16 27.9905C243.16 26.4065 242.852 25.0755 242.236 23.9975C241.62 22.8975 240.806 22.0835 239.794 21.5555C238.782 21.0055 237.682 20.7305 236.494 20.7305C235.306 20.7305 234.206 21.0055 233.194 21.5555C232.182 22.0835 231.368 22.8975 230.752 23.9975C230.158 25.0755 229.861 26.4065 229.861 27.9905C229.861 29.5745 230.158 30.9165 230.752 32.0165C231.368 33.0945 232.171 33.9085 233.161 34.4585C234.173 34.9865 235.273 35.2505 236.461 35.2505ZM258.444 18.6515C260.6 18.6515 262.36 19.3225 263.724 20.6645C265.088 21.9845 265.77 23.9095 265.77 26.4395V36.9995H263.493V26.7035C263.493 24.7455 262.998 23.2495 262.008 22.2155C261.04 21.1815 259.709 20.6645 258.015 20.6645C256.277 20.6645 254.891 21.2145 253.857 22.3145C252.823 23.4145 252.306 25.0315 252.306 27.1655V36.9995H249.996V18.9815H252.306V22.0505C252.878 20.9505 253.703 20.1145 254.781 19.5425C255.859 18.9485 257.08 18.6515 258.444 18.6515ZM270.073 27.9575C270.073 26.1095 270.436 24.4925 271.162 23.1065C271.91 21.6985 272.933 20.6205 274.231 19.8725C275.551 19.1025 277.036 18.7175 278.686 18.7175C280.402 18.7175 281.876 19.1135 283.108 19.9055C284.362 20.6975 285.264 21.7095 285.814 22.9415V18.9815H288.124V36.9995H285.814V33.0065C285.242 34.2385 284.329 35.2615 283.075 36.0755C281.843 36.8675 280.369 37.2635 278.653 37.2635C277.025 37.2635 275.551 36.8785 274.231 36.1085C272.933 35.3385 271.91 34.2495 271.162 32.8415C270.436 31.4335 270.073 29.8055 270.073 27.9575ZM285.814 27.9905C285.814 26.5385 285.517 25.2625 284.923 24.1625C284.329 23.0625 283.515 22.2155 282.481 21.6215C281.469 21.0275 280.347 20.7305 279.115 20.7305C277.839 20.7305 276.695 21.0165 275.683 21.5885C274.671 22.1605 273.868 22.9965 273.274 24.0965C272.702 25.1745 272.416 26.4615 272.416 27.9575C272.416 29.4315 272.702 30.7295 273.274 31.8515C273.868 32.9515 274.671 33.7985 275.683 34.3925C276.695 34.9645 277.839 35.2505 279.115 35.2505C280.347 35.2505 281.469 34.9535 282.481 34.3595C283.515 33.7655 284.329 32.9185 284.923 31.8185C285.517 30.7185 285.814 29.4425 285.814 27.9905ZM302.458 24.9545C302.458 21.1705 303.041 18.2335 304.207 16.1435C305.373 14.0535 307.463 13.0085 310.477 13.0085C313.491 13.0085 315.581 14.0535 316.747 16.1435C317.913 18.2335 318.496 21.1705 318.496 24.9545C318.496 28.8045 317.913 31.7855 316.747 33.8975C315.581 36.0095 313.491 37.0655 310.477 37.0655C307.441 37.0655 305.34 36.0095 304.174 33.8975C303.03 31.7855 302.458 28.8045 302.458 24.9545ZM316.219 24.9545C316.219 22.9085 316.076 21.1815 315.79 19.7735C315.504 18.3655 314.943 17.2325 314.107 16.3745C313.271 15.5165 312.061 15.0875 310.477 15.0875C308.893 15.0875 307.683 15.5165 306.847 16.3745C306.011 17.2325 305.45 18.3655 305.164 19.7735C304.878 21.1815 304.735 22.9085 304.735 24.9545C304.735 27.0665 304.878 28.8375 305.164 30.2675C305.45 31.6755 306.011 32.8085 306.847 33.6665C307.683 34.5245 308.893 34.9535 310.477 34.9535C312.061 34.9535 313.271 34.5245 314.107 33.6665C314.943 32.8085 315.504 31.6755 315.79 30.2675C316.076 28.8375 316.219 27.0665 316.219 24.9545ZM321.921 15.4175V13.3385H327.531V36.9995H325.188V15.4175H321.921ZM345.568 40.2995H343.258V10.9295H345.568V40.2995ZM383.429 14.2295V36.9995H381.119V18.8165L373.001 36.9995H371.318L363.2 18.8825V36.9995H360.89V14.2295H363.332L372.143 33.9635L380.954 14.2295H383.429ZM390.074 15.5825C389.612 15.5825 389.216 15.4175 388.886 15.0875C388.556 14.7575 388.391 14.3505 388.391 13.8665C388.391 13.3825 388.556 12.9865 388.886 12.6785C389.216 12.3485 389.612 12.1835 390.074 12.1835C390.536 12.1835 390.932 12.3485 391.262 12.6785C391.592 12.9865 391.757 13.3825 391.757 13.8665C391.757 14.3505 391.592 14.7575 391.262 15.0875C390.932 15.4175 390.536 15.5825 390.074 15.5825ZM391.229 18.9815V36.9995H388.919V18.9815H391.229ZM395.654 27.9905C395.654 26.1205 396.028 24.4925 396.776 23.1065C397.524 21.6985 398.558 20.6205 399.878 19.8725C401.198 19.1025 402.705 18.7175 404.399 18.7175C406.621 18.7175 408.447 19.2675 409.877 20.3675C411.329 21.4675 412.264 22.9635 412.682 24.8555H410.207C409.899 23.5575 409.228 22.5455 408.194 21.8195C407.182 21.0715 405.917 20.6975 404.399 20.6975C403.189 20.6975 402.1 20.9725 401.132 21.5225C400.164 22.0725 399.394 22.8975 398.822 23.9975C398.272 25.0755 397.997 26.4065 397.997 27.9905C397.997 29.5745 398.272 30.9165 398.822 32.0165C399.394 33.1165 400.164 33.9415 401.132 34.4915C402.1 35.0415 403.189 35.3165 404.399 35.3165C405.917 35.3165 407.182 34.9535 408.194 34.2275C409.228 33.4795 409.899 32.4455 410.207 31.1255H412.682C412.264 32.9735 411.329 34.4585 409.877 35.5805C408.425 36.7025 406.599 37.2635 404.399 37.2635C402.705 37.2635 401.198 36.8895 399.878 36.1415C398.558 35.3715 397.524 34.2935 396.776 32.9075C396.028 31.4995 395.654 29.8605 395.654 27.9905ZM425.779 18.6515C427.143 18.6515 428.364 18.9375 429.442 19.5095C430.542 20.0815 431.4 20.9615 432.016 22.1495C432.654 23.3155 432.973 24.7455 432.973 26.4395V36.9995H430.696V26.7035C430.696 24.7455 430.201 23.2495 429.211 22.2155C428.243 21.1815 426.912 20.6645 425.218 20.6645C423.48 20.6645 422.094 21.2145 421.06 22.3145C420.026 23.4145 419.509 25.0315 419.509 27.1655V36.9995H417.199V12.5795H419.509V22.0505C420.081 20.9725 420.917 20.1365 422.017 19.5425C423.139 18.9485 424.393 18.6515 425.779 18.6515ZM437.275 27.9575C437.275 26.1095 437.638 24.4925 438.364 23.1065C439.112 21.6985 440.135 20.6205 441.433 19.8725C442.753 19.1025 444.238 18.7175 445.888 18.7175C447.604 18.7175 449.078 19.1135 450.31 19.9055C451.564 20.6975 452.466 21.7095 453.016 22.9415V18.9815H455.326V36.9995H453.016V33.0065C452.444 34.2385 451.531 35.2615 450.277 36.0755C449.045 36.8675 447.571 37.2635 445.855 37.2635C444.227 37.2635 442.753 36.8785 441.433 36.1085C440.135 35.3385 439.112 34.2495 438.364 32.8415C437.638 31.4335 437.275 29.8055 437.275 27.9575ZM453.016 27.9905C453.016 26.5385 452.719 25.2625 452.125 24.1625C451.531 23.0625 450.717 22.2155 449.683 21.6215C448.671 21.0275 447.549 20.7305 446.317 20.7305C445.041 20.7305 443.897 21.0165 442.885 21.5885C441.873 22.1605 441.07 22.9965 440.476 24.0965C439.904 25.1745 439.618 26.4615 439.618 27.9575C439.618 29.4315 439.904 30.7295 440.476 31.8515C441.07 32.9515 441.873 33.7985 442.885 34.3925C443.897 34.9645 445.041 35.2505 446.317 35.2505C447.549 35.2505 448.671 34.9535 449.683 34.3595C450.717 33.7655 451.531 32.9185 452.125 31.8185C452.719 30.7185 453.016 29.4425 453.016 27.9905ZM477.152 27.0665C477.152 27.8585 477.13 28.4635 477.086 28.8815H462.137C462.203 30.2455 462.533 31.4115 463.127 32.3795C463.721 33.3475 464.502 34.0845 465.47 34.5905C466.438 35.0745 467.494 35.3165 468.638 35.3165C470.134 35.3165 471.388 34.9535 472.4 34.2275C473.434 33.5015 474.116 32.5225 474.446 31.2905H476.888C476.448 33.0505 475.502 34.4915 474.05 35.6135C472.62 36.7135 470.816 37.2635 468.638 37.2635C466.944 37.2635 465.426 36.8895 464.084 36.1415C462.742 35.3715 461.686 34.2935 460.916 32.9075C460.168 31.4995 459.794 29.8605 459.794 27.9905C459.794 26.1205 460.168 24.4815 460.916 23.0735C461.664 21.6655 462.709 20.5875 464.051 19.8395C465.393 19.0915 466.922 18.7175 468.638 18.7175C470.354 18.7175 471.85 19.0915 473.126 19.8395C474.424 20.5875 475.414 21.5995 476.096 22.8755C476.8 24.1295 477.152 25.5265 477.152 27.0665ZM474.809 27.0005C474.831 25.6585 474.556 24.5145 473.984 23.5685C473.434 22.6225 472.675 21.9075 471.707 21.4235C470.739 20.9395 469.683 20.6975 468.539 20.6975C466.823 20.6975 465.36 21.2475 464.15 22.3475C462.94 23.4475 462.269 24.9985 462.137 27.0005H474.809ZM483.938 12.5795V36.9995H481.628V12.5795H483.938ZM497.669 25.4495C497.669 23.1835 498.164 21.1595 499.154 19.3775C500.144 17.5735 501.497 16.1765 503.213 15.1865C504.929 14.1745 506.843 13.6685 508.955 13.6685C511.529 13.6685 513.729 14.2845 515.555 15.5165C517.403 16.7265 518.745 18.4425 519.581 20.6645H516.875C516.215 19.1025 515.203 17.8815 513.839 17.0015C512.497 16.1215 510.869 15.6815 508.955 15.6815C507.261 15.6815 505.732 16.0775 504.368 16.8695C503.026 17.6615 501.97 18.8055 501.2 20.3015C500.43 21.7755 500.045 23.4915 500.045 25.4495C500.045 27.4075 500.43 29.1235 501.2 30.5975C501.97 32.0715 503.026 33.2045 504.368 33.9965C505.732 34.7885 507.261 35.1845 508.955 35.1845C510.869 35.1845 512.497 34.7555 513.839 33.8975C515.203 33.0175 516.215 31.8075 516.875 30.2675H519.581C518.745 32.4675 517.403 34.1725 515.555 35.3825C513.707 36.5925 511.507 37.1975 508.955 37.1975C506.843 37.1975 504.929 36.7025 503.213 35.7125C501.497 34.7005 500.144 33.3035 499.154 31.5215C498.164 29.7395 497.669 27.7155 497.669 25.4495ZM526.744 12.5795V36.9995H524.434V12.5795H526.744ZM531.169 27.9575C531.169 26.1095 531.532 24.4925 532.258 23.1065C533.006 21.6985 534.029 20.6205 535.327 19.8725C536.647 19.1025 538.132 18.7175 539.782 18.7175C541.498 18.7175 542.972 19.1135 544.204 19.9055C545.458 20.6975 546.36 21.7095 546.91 22.9415V18.9815H549.22V36.9995H546.91V33.0065C546.338 34.2385 545.425 35.2615 544.171 36.0755C542.939 36.8675 541.465 37.2635 539.749 37.2635C538.121 37.2635 536.647 36.8785 535.327 36.1085C534.029 35.3385 533.006 34.2495 532.258 32.8415C531.532 31.4335 531.169 29.8055 531.169 27.9575ZM546.91 27.9905C546.91 26.5385 546.613 25.2625 546.019 24.1625C545.425 23.0625 544.611 22.2155 543.577 21.6215C542.565 21.0275 541.443 20.7305 540.211 20.7305C538.935 20.7305 537.791 21.0165 536.779 21.5885C535.767 22.1605 534.964 22.9965 534.37 24.0965C533.798 25.1745 533.512 26.4615 533.512 27.9575C533.512 29.4315 533.798 30.7295 534.37 31.8515C534.964 32.9515 535.767 33.7985 536.779 34.3925C537.791 34.9645 538.935 35.2505 540.211 35.2505C541.443 35.2505 542.565 34.9535 543.577 34.3595C544.611 33.7655 545.425 32.9185 546.019 31.8185C546.613 30.7185 546.91 29.4425 546.91 27.9905ZM557.054 22.1825C557.56 21.0605 558.33 20.1915 559.364 19.5755C560.42 18.9595 561.707 18.6515 563.225 18.6515V21.0605H562.598C560.926 21.0605 559.584 21.5115 558.572 22.4135C557.56 23.3155 557.054 24.8225 557.054 26.9345V36.9995H554.744V18.9815H557.054V22.1825ZM576.685 36.9995L569.26 28.9145V36.9995H566.95V12.5795H569.26V27.0335L576.52 18.9815H579.754L571.207 27.9575L579.82 36.9995H576.685Z" fill="#272727"/>
</svg>
