<svg width="998" height="216" viewBox="0 0 998 216" fill="none" xmlns="http://www.w3.org/2000/svg">
<path d="M134.8 111.2L172.2 19.2H194.4L134.8 166.4L105.2 92.8L75.4 166.4L15.8 19.2H38L75.4 111.2L94 65.4L75.4 19.2H97.4L105.2 38L116.2 65.4L134.8 111.2ZM214.156 60.4H234.556V166H214.156V60.4ZM214.156 49.6V29.2H234.556V49.6H214.156ZM312.555 117.2C314.421 119.867 315.888 122.8 316.955 126C318.021 129.067 318.488 132.333 318.355 135.8C318.221 140.2 317.221 144.267 315.355 148C313.488 151.733 311.021 155 307.955 157.8C304.888 160.6 301.288 162.8 297.155 164.4C293.021 165.867 288.688 166.533 284.155 166.4C277.755 166.133 271.955 164.467 266.755 161.4C261.688 158.333 257.821 154.267 255.155 149.2L272.355 137.2C273.021 139.6 274.488 141.667 276.755 143.4C279.021 145 281.688 145.8 284.755 145.8C288.221 145.933 291.221 145 293.755 143C296.421 140.867 297.755 138.267 297.755 135.2C297.755 134.267 297.688 133.6 297.555 133.2V132.8C297.421 132.533 297.355 132.333 297.355 132.2C297.355 131.933 297.288 131.667 297.155 131.4C296.221 129.133 294.488 127.267 291.955 125.8C291.555 125.533 290.955 125.267 290.155 125L290.355 124.8C288.488 123.733 286.421 122.733 284.155 121.8C281.888 120.733 279.555 119.667 277.155 118.6C274.888 117.4 272.621 116.2 270.355 115C268.088 113.667 265.955 112.133 263.955 110.4V110.2L263.355 109.6C260.555 106.933 258.355 103.867 256.755 100.4C255.155 96.8 254.421 93 254.555 89C254.688 85 255.621 81.2667 257.355 77.8C259.088 74.3333 261.355 71.3333 264.155 68.8C267.088 66.2667 270.488 64.2667 274.355 62.8C278.221 61.3333 282.355 60.6667 286.755 60.8C292.488 61.0667 297.621 62.4667 302.155 65C306.821 67.5333 310.488 70.9333 313.155 75.2L296.355 86.8C295.555 85.3333 294.221 84.0667 292.355 83C290.621 81.9333 288.621 81.4 286.355 81.4C283.288 81.2667 280.621 82 278.355 83.6C276.221 85.2 275.155 87.1333 275.155 89.4C275.155 90.0667 275.221 90.5333 275.355 90.8C275.621 92.2667 276.288 93.5333 277.355 94.6C278.421 95.6667 279.755 96.5333 281.355 97.2C283.888 98.6667 286.755 100.2 289.955 101.8C293.288 103.267 296.621 104.933 299.955 106.8C302.355 107.867 304.755 109.4 307.155 111.4L308.155 112.4C309.488 113.6 310.955 115.2 312.555 117.2ZM396.458 120.2H356.258C357.058 123.8 358.391 127.2 360.258 130.4C362.258 133.467 364.658 136.133 367.458 138.4C370.258 140.667 373.391 142.467 376.858 143.8C380.324 145 383.991 145.6 387.858 145.6C392.524 145.6 396.858 144.667 400.858 142.8C404.991 140.933 408.591 138.333 411.658 135H415.458H435.858C435.058 137 434.058 138.933 432.858 140.8C431.791 142.533 430.591 144.267 429.258 146C424.458 152.133 418.458 157.067 411.258 160.8C404.058 164.4 396.258 166.2 387.858 166.2C380.524 166.2 373.658 164.867 367.258 162.2C360.858 159.4 355.258 155.6 350.458 150.8C345.658 146 341.858 140.4 339.058 134C336.391 127.6 335.058 120.733 335.058 113.4C335.058 106.067 336.391 99.2 339.058 92.8C341.858 86.4 345.658 80.8 350.458 76C355.258 71.2 360.858 67.4667 367.258 64.8C373.658 62 380.524 60.6 387.858 60.6C396.258 60.6 404.058 62.4667 411.258 66.2C418.458 69.8 424.458 74.7333 429.258 81C433.658 86.3333 436.858 92.6 438.858 99.8C440.058 104.067 440.658 108.6 440.658 113.4C440.658 115.8 440.458 118.067 440.058 120.2H419.258H396.458ZM387.858 81.2C381.324 81.2 375.458 82.9333 370.258 86.4C365.191 89.7333 361.324 94.2 358.658 99.8H405.258H417.058C416.391 98.7333 415.724 97.6667 415.058 96.6C414.524 95.5333 413.924 94.5333 413.258 93.6C410.191 89.7333 406.458 86.7333 402.058 84.6C397.658 82.3333 392.924 81.2 387.858 81.2ZM535.567 44.8V19.4H556.967V165.8H535.567V139.6V120.4H478.567V139.6V165.8H457.167V19.4H478.567V44.8V82.4V101.2V101.6H535.567V101.2V82.4V44.8ZM626.413 60.4C633.746 60.4 640.613 61.8 647.013 64.6C653.413 67.2667 659.013 71 663.813 75.8C668.613 80.6 672.346 86.2 675.013 92.6C677.813 99 679.213 105.867 679.213 113.2C679.213 120.533 677.813 127.4 675.013 133.8C672.346 140.2 668.613 145.8 663.813 150.6C659.013 155.4 653.413 159.2 647.013 162C640.613 164.667 633.746 166 626.413 166C619.079 166 612.213 164.667 605.813 162C599.413 159.2 593.813 155.4 589.013 150.6C584.213 145.8 580.413 140.2 577.613 133.8C574.946 127.4 573.613 120.533 573.613 113.2C573.613 105.867 574.946 99 577.613 92.6C580.413 86.2 584.213 80.6 589.013 75.8C593.813 71 599.413 67.2667 605.813 64.6C612.213 61.8 619.079 60.4 626.413 60.4ZM626.413 145.4C630.813 145.4 634.946 144.6 638.813 143C642.813 141.267 646.279 138.933 649.213 136C652.146 133.067 654.413 129.667 656.013 125.8C657.746 121.8 658.613 117.6 658.613 113.2C658.613 108.8 657.746 104.667 656.013 100.8C654.413 96.8 652.146 93.3333 649.213 90.4C646.279 87.4667 642.813 85.2 638.813 83.6C634.946 81.8667 630.813 81 626.413 81C622.013 81 617.813 81.8667 613.813 83.6C609.946 85.2 606.546 87.4667 603.613 90.4C600.679 93.3333 598.346 96.8 596.613 100.8C594.879 104.667 594.013 108.8 594.013 113.2C594.013 117.6 594.879 121.8 596.613 125.8C598.346 129.667 600.679 133.067 603.613 136C606.546 138.933 609.946 141.267 613.813 143C617.813 144.6 622.013 145.4 626.413 145.4ZM838.922 67.6C845.189 71.7333 850.189 77.2 853.922 84C857.655 90.6667 859.522 98 859.522 106V166.2H838.922V144.6V106C838.922 102.533 838.255 99.2667 836.922 96.2C835.589 93.1333 833.722 90.4667 831.322 88.2C829.055 85.8 826.389 83.9333 823.322 82.6C820.255 81.2667 816.989 80.6 813.522 80.6C810.055 80.6 806.722 81.2667 803.522 82.6C800.455 83.9333 797.722 85.8 795.322 88.2C793.055 90.4667 791.255 93.1333 789.922 96.2C788.589 99.2667 787.922 102.533 787.922 106V144.6V166.2H767.322V144.6V106C767.322 102.533 766.655 99.2667 765.322 96.2C763.989 93.1333 762.122 90.4667 759.722 88.2C757.455 85.8 754.789 83.9333 751.722 82.6C748.655 81.2667 745.389 80.6 741.922 80.6C738.455 80.6 735.122 81.2667 731.922 82.6C728.855 83.9333 726.122 85.8 723.722 88.2C721.455 90.4667 719.655 93.1333 718.322 96.2C716.989 99.2667 716.322 102.533 716.322 106V144.6V166.2H695.722V106V60H716.322V67.6C720.055 65.2 724.055 63.3333 728.322 62C732.722 60.6667 737.255 60 741.922 60C746.589 60 751.055 60.6667 755.322 62C759.722 63.3333 763.722 65.2 767.322 67.6C771.189 70.1333 774.655 73.3333 777.722 77.2C780.655 73.4667 784.055 70.2667 787.922 67.6C791.655 65.2 795.655 63.3333 799.922 62C804.322 60.6667 808.855 60 813.522 60C818.189 60 822.655 60.6667 826.922 62C831.322 63.3333 835.322 65.2 838.922 67.6ZM937.434 120.2H897.234C898.034 123.8 899.368 127.2 901.234 130.4C903.234 133.467 905.634 136.133 908.434 138.4C911.234 140.667 914.368 142.467 917.834 143.8C921.301 145 924.968 145.6 928.834 145.6C933.501 145.6 937.834 144.667 941.834 142.8C945.968 140.933 949.568 138.333 952.634 135H956.434H976.834C976.034 137 975.034 138.933 973.834 140.8C972.768 142.533 971.568 144.267 970.234 146C965.434 152.133 959.434 157.067 952.234 160.8C945.034 164.4 937.234 166.2 928.834 166.2C921.501 166.2 914.634 164.867 908.234 162.2C901.834 159.4 896.234 155.6 891.434 150.8C886.634 146 882.834 140.4 880.034 134C877.368 127.6 876.034 120.733 876.034 113.4C876.034 106.067 877.368 99.2 880.034 92.8C882.834 86.4 886.634 80.8 891.434 76C896.234 71.2 901.834 67.4667 908.234 64.8C914.634 62 921.501 60.6 928.834 60.6C937.234 60.6 945.034 62.4667 952.234 66.2C959.434 69.8 965.434 74.7333 970.234 81C974.634 86.3333 977.834 92.6 979.834 99.8C981.034 104.067 981.634 108.6 981.634 113.4C981.634 115.8 981.434 118.067 981.034 120.2H960.234H937.434ZM928.834 81.2C922.301 81.2 916.434 82.9333 911.234 86.4C906.168 89.7333 902.301 94.2 899.634 99.8H946.234H958.034C957.368 98.7333 956.701 97.6667 956.034 96.6C955.501 95.5333 954.901 94.5333 954.234 93.6C951.168 89.7333 947.434 86.7333 943.034 84.6C938.634 82.3333 933.901 81.2 928.834 81.2Z" fill="#366B6D"/>
<rect x="572" y="56" width="110" height="110" fill="white"/>
<path fill-rule="evenodd" clip-rule="evenodd" d="M609.432 113.312C606.124 112.104 602.816 110.032 600.553 106.925C598.29 103.646 598.116 100.884 598.986 99.1577C599.334 98.4673 599.857 97.9495 600.379 97.6042C600.901 97.259 601.598 97.0864 602.12 97.0864C603.687 97.0864 605.254 98.2947 606.647 101.056C608.039 103.991 608.91 108.306 609.432 113.312ZM616.048 114.866C615.352 108.306 614.307 102.437 612.392 98.4673C609.955 93.2889 606.124 91.0449 602.468 90.8723C600.553 90.8723 598.812 91.2175 597.245 92.2532C595.678 93.1163 594.459 94.4972 593.589 96.2233C591.674 99.8482 591.848 105.027 595.678 110.378C599.508 115.729 604.906 118.49 610.303 119.871C610.825 127.294 610.825 135.406 610.825 142.656C610.825 147.144 611.062 154.882 610.81 158.131L617.362 159.381C617.188 155.928 617.267 147.144 617.267 142.656C617.267 135.752 617.267 128.157 616.745 121.08C619.53 121.252 622.316 121.425 624.057 121.252V114.866C622.142 115.211 619.008 115.211 616.048 114.866Z" fill="#9FCED0"/>
<path fill-rule="evenodd" clip-rule="evenodd" d="M623.36 63.7908C611.347 64.6538 600.379 69.8322 592.37 77.7725C583.665 86.5757 578.268 98.4861 578.268 111.605C578.268 120.926 580.879 129.557 585.406 136.806C589.107 142.876 594.206 148.022 600.225 151.867V159.23C591.993 154.745 585.098 148.156 580.183 140.259C574.96 131.973 572 122.307 572 111.777C572 96.9326 578.094 83.2961 588.017 73.4571C597.767 63.7908 611.347 57.7493 626.32 57.5767C628.757 56.8862 639.9 55.1601 648.779 62.7551C649.998 63.9634 651.043 65.1717 651.913 66.5526C655.221 66.7252 658.181 67.5883 660.966 68.7966C664.623 70.5227 667.756 73.1119 670.02 76.3916C672.283 79.6712 673.676 83.6413 673.676 87.784C673.676 90.028 673.328 92.272 672.631 94.6886C674.895 95.7243 676.81 97.2778 678.203 99.1765C679.77 101.248 680.988 103.664 681.511 106.254V106.426C682.033 109.016 682.207 111.777 681.685 114.367C680.988 118.682 678.899 122.825 675.243 126.104C675.417 126.967 675.417 128.003 675.417 128.866C675.417 131.801 674.546 134.562 673.328 136.979C672.109 139.395 670.194 141.639 667.756 143.193C666.712 144.056 665.493 144.574 664.274 145.092C663.759 148.666 661.552 158.114 652.644 160.363V153.791C655.488 152.192 656.83 148.98 657.484 146.645C654.699 146.645 651.565 145.955 648.257 144.747L648.257 144.747C647.735 145.264 647.212 145.782 646.69 146.127C645.297 147.163 643.904 148.026 642.686 148.544C641.119 149.234 639.204 148.544 638.507 146.99C637.811 145.437 638.507 143.538 640.074 142.848C640.306 142.71 640.55 142.572 640.8 142.431C641.489 142.042 642.221 141.628 642.86 141.122C643.556 140.604 644.078 139.913 644.601 139.223L644.601 139.223C645.297 138.187 645.471 137.152 645.471 136.116C645.471 134.217 644.775 132.491 644.253 131.8C643.382 130.247 643.904 128.348 645.471 127.485C647.038 126.622 648.953 127.14 649.824 128.693C650.52 129.902 651.913 132.836 651.913 135.943C651.913 136.979 651.739 138.015 651.565 139.05C656.788 140.949 661.315 140.259 664.274 138.187C665.667 137.152 666.886 135.771 667.756 134.217C668.627 132.664 669.149 130.937 669.149 129.039C669.149 124.723 666.886 120.235 661.663 116.956C660.096 116.093 659.748 114.194 660.618 112.64C661.489 111.087 663.404 110.742 664.971 111.605C668.627 113.849 671.238 116.611 672.98 119.545C674.372 117.646 675.243 115.575 675.591 113.503C675.939 111.777 675.939 109.879 675.591 108.152V107.98C675.243 106.081 674.546 104.528 673.502 103.319C672.283 101.593 670.542 100.385 668.279 100.04C667.931 100.04 667.582 100.04 667.408 99.867C665.841 99.1765 665.145 97.2778 665.841 95.7243C667.06 93.1351 667.582 90.7185 667.582 88.3019C667.408 85.3675 666.538 82.6056 664.971 80.3617C663.404 78.1177 661.14 76.2189 658.529 75.0106C657.31 74.4928 655.917 74.1476 654.525 73.8024C655.569 81.3973 652.087 88.6471 652.087 88.6471C652.087 88.7334 652.044 88.7766 652 88.8197C651.957 88.8629 651.913 88.906 651.913 88.9923C655.743 93.3077 655.221 99.3491 655.221 99.3491C655.047 101.075 653.48 102.456 651.739 102.284C649.998 102.111 648.605 100.557 648.779 98.8313C648.779 98.8313 649.127 94.1707 645.819 92.0994C641.989 89.6828 637.811 90.5459 637.811 90.5459C636.07 90.8911 634.329 89.8554 633.981 88.1293C633.632 86.4031 634.677 84.677 636.418 84.3318C636.418 84.3318 641.467 83.1235 646.69 85.1948C647.735 82.7783 651.043 73.6297 644.775 67.9335C639.378 63.1003 633.11 62.9277 629.802 63.2729V106.254C631.195 107.807 635.199 111.95 641.989 110.224C643.73 109.706 645.471 110.742 645.819 112.468C646.342 114.194 645.297 115.92 643.556 116.265C637.637 117.819 633.11 116.438 629.802 114.367V150.883H623.36V63.7908Z" fill="#366B6D"/>
<path fill-rule="evenodd" clip-rule="evenodd" d="M589.449 151.383C599.252 160.473 612.452 166 626.767 166C637.384 166 647.566 164.061 655.92 158.881C659.021 156.983 660.786 154.364 662.029 151.383L655.614 151.383C654.661 152.097 653.672 152.766 652.644 153.382C645.334 157.872 635.992 159.784 626.593 159.784C616.53 159.784 607.247 156.658 599.416 151.383L589.449 151.383ZM639.469 61.9077C636.492 59.3249 632.995 57.796 629.378 57.2219C626.767 56.7039 623.982 56.8765 621.371 57.3945L621.197 57.3945C618.586 57.9125 616.15 59.1212 614.061 60.6751C613.543 61.0492 613.05 61.4612 612.586 61.9077L639.469 61.9077Z" fill="#366B6D"/>
<rect x="623.361" y="150.383" width="6.44146" height="10.997" fill="#366B6D"/>
</svg>
