<svg width="1017" height="968" viewBox="0 0 1017 968" fill="none" xmlns="http://www.w3.org/2000/svg">
<path d="M856.997 603.11C822.376 628.318 785.834 650.772 747.731 670.252C687.308 700.667 624.8 726.602 560.739 747.835C506.183 766.474 451.057 782.9 394.096 791.257C357.212 797.396 319.772 797.715 283.188 792.204C237.455 784.353 201.002 763.043 176.555 724.089C146.306 675.814 129.942 619.987 129.157 562.382C128.394 530.497 127.834 498.641 134.558 466.898C144.39 417.457 169.481 371.75 206.34 336.137C264.589 279.716 333.588 248.733 413.431 241.14C486.458 234.116 559.772 237.289 631.2 250.566C669.421 257.651 707.814 263.969 745.388 273.679C798.737 287.033 848.834 309.993 893.211 341.428C906.332 349.859 918.699 359.357 930.187 369.829C940.682 380.471 948.257 393.605 952.237 408.061C960.375 436.668 963.174 465.509 951.524 494.621C943.324 514.959 931.627 533.84 916.964 550.408C899.136 570.247 878.998 587.945 856.997 603.11Z" fill="url(#paint0_linear)" fill-opacity="0.6"/>
<path d="M248.123 374.81V384.96H261.753V391.398H248.123V402.128H263.493V408.74H240.003V368.198H263.493V374.81H248.123ZM288.12 408.74L281.508 398.764L275.65 408.74H266.95L277.448 392.616L266.834 376.608H275.998L282.552 386.526L288.468 376.608H297.168L286.612 392.616L297.284 408.74H288.12ZM309.314 381.248C310.358 379.779 311.789 378.561 313.606 377.594C315.462 376.589 317.57 376.086 319.928 376.086C322.674 376.086 325.148 376.763 327.352 378.116C329.595 379.47 331.354 381.403 332.63 383.916C333.945 386.391 334.602 389.272 334.602 392.558C334.602 395.845 333.945 398.764 332.63 401.316C331.354 403.83 329.595 405.782 327.352 407.174C325.148 408.566 322.674 409.262 319.928 409.262C317.57 409.262 315.482 408.779 313.664 407.812C311.886 406.846 310.436 405.628 309.314 404.158V424.052H301.194V376.608H309.314V381.248ZM326.308 392.558C326.308 390.625 325.902 388.962 325.09 387.57C324.317 386.14 323.273 385.057 321.958 384.322C320.682 383.588 319.29 383.22 317.782 383.22C316.313 383.22 314.921 383.607 313.606 384.38C312.33 385.115 311.286 386.198 310.474 387.628C309.701 389.059 309.314 390.741 309.314 392.674C309.314 394.608 309.701 396.29 310.474 397.72C311.286 399.151 312.33 400.253 313.606 401.026C314.921 401.761 316.313 402.128 317.782 402.128C319.29 402.128 320.682 401.742 321.958 400.968C323.273 400.195 324.317 399.093 325.09 397.662C325.902 396.232 326.308 394.53 326.308 392.558ZM348.123 365.82V408.74H340.003V365.82H348.123ZM369.914 409.262C366.82 409.262 364.036 408.586 361.562 407.232C359.087 405.84 357.134 403.888 355.704 401.374C354.312 398.861 353.616 395.961 353.616 392.674C353.616 389.388 354.331 386.488 355.762 383.974C357.231 381.461 359.222 379.528 361.736 378.174C364.249 376.782 367.052 376.086 370.146 376.086C373.239 376.086 376.042 376.782 378.556 378.174C381.069 379.528 383.041 381.461 384.472 383.974C385.941 386.488 386.676 389.388 386.676 392.674C386.676 395.961 385.922 398.861 384.414 401.374C382.944 403.888 380.934 405.84 378.382 407.232C375.868 408.586 373.046 409.262 369.914 409.262ZM369.914 402.186C371.383 402.186 372.756 401.838 374.032 401.142C375.346 400.408 376.39 399.325 377.164 397.894C377.937 396.464 378.324 394.724 378.324 392.674C378.324 389.62 377.512 387.28 375.888 385.656C374.302 383.994 372.35 383.162 370.03 383.162C367.71 383.162 365.757 383.994 364.172 385.656C362.625 387.28 361.852 389.62 361.852 392.674C361.852 395.729 362.606 398.088 364.114 399.75C365.66 401.374 367.594 402.186 369.914 402.186ZM400.252 381.596C401.296 379.895 402.649 378.561 404.312 377.594C406.013 376.628 407.947 376.144 410.112 376.144V384.67H407.966C405.414 384.67 403.481 385.27 402.166 386.468C400.89 387.667 400.252 389.755 400.252 392.732V408.74H392.132V376.608H400.252V381.596ZM444.951 391.978C444.951 393.138 444.874 394.182 444.719 395.11H421.229C421.422 397.43 422.234 399.248 423.665 400.562C425.096 401.877 426.855 402.534 428.943 402.534C431.959 402.534 434.105 401.239 435.381 398.648H444.139C443.211 401.742 441.432 404.294 438.803 406.304C436.174 408.276 432.945 409.262 429.117 409.262C426.024 409.262 423.24 408.586 420.765 407.232C418.329 405.84 416.415 403.888 415.023 401.374C413.67 398.861 412.993 395.961 412.993 392.674C412.993 389.349 413.67 386.43 415.023 383.916C416.376 381.403 418.271 379.47 420.707 378.116C423.143 376.763 425.946 376.086 429.117 376.086C432.172 376.086 434.898 376.744 437.295 378.058C439.731 379.373 441.606 381.248 442.921 383.684C444.274 386.082 444.951 388.846 444.951 391.978ZM436.541 389.658C436.502 387.57 435.748 385.908 434.279 384.67C432.81 383.394 431.012 382.756 428.885 382.756C426.874 382.756 425.173 383.375 423.781 384.612C422.428 385.811 421.596 387.493 421.287 389.658H436.541ZM498.324 408.74H490.204L471.818 380.958V408.74H463.698V368.198H471.818L490.204 396.038V368.198H498.324V408.74ZM535.719 391.978C535.719 393.138 535.641 394.182 535.487 395.11H511.997C512.19 397.43 513.002 399.248 514.433 400.562C515.863 401.877 517.623 402.534 519.711 402.534C522.727 402.534 524.873 401.239 526.149 398.648H534.907C533.979 401.742 532.2 404.294 529.571 406.304C526.941 408.276 523.713 409.262 519.885 409.262C516.791 409.262 514.007 408.586 511.533 407.232C509.097 405.84 507.183 403.888 505.791 401.374C504.437 398.861 503.761 395.961 503.761 392.674C503.761 389.349 504.437 386.43 505.791 383.916C507.144 381.403 509.039 379.47 511.475 378.116C513.911 376.763 516.714 376.086 519.885 376.086C522.939 376.086 525.665 376.744 528.063 378.058C530.499 379.373 532.374 381.248 533.689 383.684C535.042 386.082 535.719 388.846 535.719 391.978ZM527.309 389.658C527.27 387.57 526.516 385.908 525.047 384.67C523.577 383.394 521.779 382.756 519.653 382.756C517.642 382.756 515.941 383.375 514.549 384.612C513.195 385.811 512.364 387.493 512.055 389.658H527.309ZM585.69 376.608L576.294 408.74H567.536L561.678 386.294L555.82 408.74H547.004L537.55 376.608H545.786L551.47 401.084L557.618 376.608H566.202L572.234 401.026L577.918 376.608H585.69ZM248.123 455.256V495.74H240.003V455.256H248.123ZM273.452 463.144C277.28 463.144 280.373 464.362 282.732 466.798C285.09 469.196 286.27 472.56 286.27 476.89V495.74H278.15V477.992C278.15 475.44 277.512 473.488 276.236 472.134C274.96 470.742 273.22 470.046 271.016 470.046C268.773 470.046 266.994 470.742 265.68 472.134C264.404 473.488 263.766 475.44 263.766 477.992V495.74H255.646V463.608H263.766V467.61C264.848 466.218 266.221 465.136 267.884 464.362C269.585 463.55 271.441 463.144 273.452 463.144ZM305.787 496.262C303.158 496.262 300.799 495.798 298.711 494.87C296.623 493.904 294.961 492.608 293.723 490.984C292.525 489.36 291.867 487.562 291.751 485.59H299.929C300.084 486.828 300.683 487.852 301.727 488.664C302.81 489.476 304.144 489.882 305.729 489.882C307.276 489.882 308.475 489.573 309.325 488.954C310.215 488.336 310.659 487.543 310.659 486.576C310.659 485.532 310.118 484.759 309.035 484.256C307.991 483.715 306.309 483.135 303.989 482.516C301.592 481.936 299.62 481.337 298.073 480.718C296.565 480.1 295.251 479.152 294.129 477.876C293.047 476.6 292.505 474.88 292.505 472.714C292.505 470.936 293.008 469.312 294.013 467.842C295.057 466.373 296.527 465.213 298.421 464.362C300.355 463.512 302.617 463.086 305.207 463.086C309.035 463.086 312.09 464.053 314.371 465.986C316.653 467.881 317.909 470.452 318.141 473.7H310.369C310.253 472.424 309.712 471.419 308.745 470.684C307.817 469.911 306.561 469.524 304.975 469.524C303.506 469.524 302.365 469.795 301.553 470.336C300.78 470.878 300.393 471.632 300.393 472.598C300.393 473.681 300.935 474.512 302.017 475.092C303.1 475.634 304.782 476.194 307.063 476.774C309.383 477.354 311.297 477.954 312.805 478.572C314.313 479.191 315.609 480.158 316.691 481.472C317.813 482.748 318.393 484.45 318.431 486.576C318.431 488.432 317.909 490.095 316.865 491.564C315.86 493.034 314.391 494.194 312.457 495.044C310.563 495.856 308.339 496.262 305.787 496.262ZM332.717 468.248C333.761 466.779 335.191 465.561 337.009 464.594C338.865 463.589 340.972 463.086 343.331 463.086C346.076 463.086 348.551 463.763 350.755 465.116C352.997 466.47 354.757 468.403 356.033 470.916C357.347 473.391 358.005 476.272 358.005 479.558C358.005 482.845 357.347 485.764 356.033 488.316C354.757 490.83 352.997 492.782 350.755 494.174C348.551 495.566 346.076 496.262 343.331 496.262C340.972 496.262 338.884 495.779 337.067 494.812C335.288 493.846 333.838 492.628 332.717 491.158V511.052H324.597V463.608H332.717V468.248ZM349.711 479.558C349.711 477.625 349.305 475.962 348.493 474.57C347.719 473.14 346.675 472.057 345.361 471.322C344.085 470.588 342.693 470.22 341.185 470.22C339.715 470.22 338.323 470.607 337.009 471.38C335.733 472.115 334.689 473.198 333.877 474.628C333.103 476.059 332.717 477.741 332.717 479.674C332.717 481.608 333.103 483.29 333.877 484.72C334.689 486.151 335.733 487.253 337.009 488.026C338.323 488.761 339.715 489.128 341.185 489.128C342.693 489.128 344.085 488.742 345.361 487.968C346.675 487.195 347.719 486.093 348.493 484.662C349.305 483.232 349.711 481.53 349.711 479.558ZM367.523 459.78C366.093 459.78 364.894 459.336 363.927 458.446C362.999 457.518 362.535 456.378 362.535 455.024C362.535 453.671 362.999 452.55 363.927 451.66C364.894 450.732 366.093 450.268 367.523 450.268C368.954 450.268 370.133 450.732 371.061 451.66C372.028 452.55 372.511 453.671 372.511 455.024C372.511 456.378 372.028 457.518 371.061 458.446C370.133 459.336 368.954 459.78 367.523 459.78ZM371.525 463.608V495.74H363.405V463.608H371.525ZM387.168 468.596C388.212 466.895 389.565 465.561 391.228 464.594C392.929 463.628 394.863 463.144 397.028 463.144V471.67H394.882C392.33 471.67 390.397 472.27 389.082 473.468C387.806 474.667 387.168 476.755 387.168 479.732V495.74H379.048V463.608H387.168V468.596ZM399.909 479.558C399.909 476.31 400.547 473.43 401.823 470.916C403.138 468.403 404.897 466.47 407.101 465.116C409.344 463.763 411.838 463.086 414.583 463.086C416.98 463.086 419.068 463.57 420.847 464.536C422.664 465.503 424.114 466.721 425.197 468.19V463.608H433.375V495.74H425.197V491.042C424.153 492.55 422.703 493.807 420.847 494.812C419.03 495.779 416.922 496.262 414.525 496.262C411.818 496.262 409.344 495.566 407.101 494.174C404.897 492.782 403.138 490.83 401.823 488.316C400.547 485.764 399.909 482.845 399.909 479.558ZM425.197 479.674C425.197 477.702 424.81 476.02 424.037 474.628C423.264 473.198 422.22 472.115 420.905 471.38C419.59 470.607 418.179 470.22 416.671 470.22C415.163 470.22 413.771 470.588 412.495 471.322C411.219 472.057 410.175 473.14 409.363 474.57C408.59 475.962 408.203 477.625 408.203 479.558C408.203 481.492 408.59 483.193 409.363 484.662C410.175 486.093 411.219 487.195 412.495 487.968C413.81 488.742 415.202 489.128 416.671 489.128C418.179 489.128 419.59 488.761 420.905 488.026C422.22 487.253 423.264 486.17 424.037 484.778C424.81 483.348 425.197 481.646 425.197 479.674ZM450.26 470.278V485.822C450.26 486.905 450.511 487.698 451.014 488.2C451.555 488.664 452.444 488.896 453.682 488.896H457.452V495.74H452.348C445.504 495.74 442.082 492.415 442.082 485.764V470.278H438.254V463.608H442.082V455.662H450.26V463.608H457.452V470.278H450.26ZM466.91 459.78C465.479 459.78 464.281 459.336 463.314 458.446C462.386 457.518 461.922 456.378 461.922 455.024C461.922 453.671 462.386 452.55 463.314 451.66C464.281 450.732 465.479 450.268 466.91 450.268C468.341 450.268 469.52 450.732 470.448 451.66C471.415 452.55 471.898 453.671 471.898 455.024C471.898 456.378 471.415 457.518 470.448 458.446C469.52 459.336 468.341 459.78 466.91 459.78ZM470.912 463.608V495.74H462.792V463.608H470.912ZM492.703 496.262C489.609 496.262 486.825 495.586 484.351 494.232C481.876 492.84 479.923 490.888 478.493 488.374C477.101 485.861 476.405 482.961 476.405 479.674C476.405 476.388 477.12 473.488 478.551 470.974C480.02 468.461 482.011 466.528 484.525 465.174C487.038 463.782 489.841 463.086 492.935 463.086C496.028 463.086 498.831 463.782 501.345 465.174C503.858 466.528 505.83 468.461 507.261 470.974C508.73 473.488 509.465 476.388 509.465 479.674C509.465 482.961 508.711 485.861 507.203 488.374C505.733 490.888 503.723 492.84 501.171 494.232C498.657 495.586 495.835 496.262 492.703 496.262ZM492.703 489.186C494.172 489.186 495.545 488.838 496.821 488.142C498.135 487.408 499.179 486.325 499.953 484.894C500.726 483.464 501.113 481.724 501.113 479.674C501.113 476.62 500.301 474.28 498.677 472.656C497.091 470.994 495.139 470.162 492.819 470.162C490.499 470.162 488.546 470.994 486.961 472.656C485.414 474.28 484.641 476.62 484.641 479.674C484.641 482.729 485.395 485.088 486.903 486.75C488.449 488.374 490.383 489.186 492.703 489.186ZM532.727 463.144C536.555 463.144 539.648 464.362 542.007 466.798C544.366 469.196 545.545 472.56 545.545 476.89V495.74H537.425V477.992C537.425 475.44 536.787 473.488 535.511 472.134C534.235 470.742 532.495 470.046 530.291 470.046C528.048 470.046 526.27 470.742 524.955 472.134C523.679 473.488 523.041 475.44 523.041 477.992V495.74H514.921V463.608H523.041V467.61C524.124 466.218 525.496 465.136 527.159 464.362C528.86 463.55 530.716 463.144 532.727 463.144ZM565.063 496.262C562.433 496.262 560.075 495.798 557.987 494.87C555.899 493.904 554.236 492.608 552.999 490.984C551.8 489.36 551.143 487.562 551.027 485.59H559.205C559.359 486.828 559.959 487.852 561.003 488.664C562.085 489.476 563.419 489.882 565.005 489.882C566.551 489.882 567.75 489.573 568.601 488.954C569.49 488.336 569.935 487.543 569.935 486.576C569.935 485.532 569.393 484.759 568.311 484.256C567.267 483.715 565.585 483.135 563.265 482.516C560.867 481.936 558.895 481.337 557.349 480.718C555.841 480.1 554.526 479.152 553.405 477.876C552.322 476.6 551.781 474.88 551.781 472.714C551.781 470.936 552.283 469.312 553.289 467.842C554.333 466.373 555.802 465.213 557.697 464.362C559.63 463.512 561.892 463.086 564.483 463.086C568.311 463.086 571.365 464.053 573.647 465.986C575.928 467.881 577.185 470.452 577.417 473.7H569.645C569.529 472.424 568.987 471.419 568.021 470.684C567.093 469.911 565.836 469.524 564.251 469.524C562.781 469.524 561.641 469.795 560.829 470.336C560.055 470.878 559.669 471.632 559.669 472.598C559.669 473.681 560.21 474.512 561.293 475.092C562.375 475.634 564.057 476.194 566.339 476.774C568.659 477.354 570.573 477.954 572.081 478.572C573.589 479.191 574.884 480.158 575.967 481.472C577.088 482.748 577.668 484.45 577.707 486.576C577.707 488.432 577.185 490.095 576.141 491.564C575.135 493.034 573.666 494.194 571.733 495.044C569.838 495.856 567.615 496.262 565.063 496.262Z" fill="white"/>
<path d="M242.854 566.161C241.796 566.161 240.845 565.977 240.002 565.609C239.174 565.226 238.522 564.704 238.047 564.045C237.572 563.37 237.326 562.596 237.311 561.722H239.542C239.619 562.473 239.925 563.11 240.462 563.631C241.014 564.137 241.811 564.39 242.854 564.39C243.851 564.39 244.633 564.145 245.2 563.654C245.783 563.148 246.074 562.504 246.074 561.722C246.074 561.109 245.905 560.61 245.568 560.227C245.231 559.844 244.809 559.552 244.303 559.353C243.797 559.154 243.115 558.939 242.256 558.709C241.198 558.433 240.347 558.157 239.703 557.881C239.074 557.605 238.53 557.176 238.07 556.593C237.625 555.995 237.403 555.198 237.403 554.201C237.403 553.327 237.625 552.553 238.07 551.878C238.515 551.203 239.136 550.682 239.933 550.314C240.746 549.946 241.673 549.762 242.716 549.762C244.219 549.762 245.445 550.138 246.396 550.889C247.362 551.64 247.906 552.637 248.029 553.879H245.729C245.652 553.266 245.33 552.729 244.763 552.269C244.196 551.794 243.444 551.556 242.509 551.556C241.635 551.556 240.922 551.786 240.37 552.246C239.818 552.691 239.542 553.319 239.542 554.132C239.542 554.715 239.703 555.19 240.025 555.558C240.362 555.926 240.769 556.21 241.244 556.409C241.735 556.593 242.417 556.808 243.291 557.053C244.349 557.344 245.2 557.636 245.844 557.927C246.488 558.203 247.04 558.64 247.5 559.238C247.96 559.821 248.19 560.618 248.19 561.63C248.19 562.412 247.983 563.148 247.569 563.838C247.155 564.528 246.542 565.088 245.729 565.517C244.916 565.946 243.958 566.161 242.854 566.161ZM253.823 555.121V562.55C253.823 563.163 253.953 563.6 254.214 563.861C254.475 564.106 254.927 564.229 255.571 564.229H257.112V566H255.226C254.061 566 253.187 565.732 252.604 565.195C252.021 564.658 251.73 563.777 251.73 562.55V555.121H250.097V553.396H251.73V550.222H253.823V553.396H257.112V555.121H253.823ZM258.866 559.652C258.866 558.364 259.127 557.237 259.648 556.271C260.169 555.29 260.882 554.531 261.787 553.994C262.707 553.457 263.727 553.189 264.846 553.189C265.95 553.189 266.908 553.427 267.721 553.902C268.534 554.377 269.139 554.975 269.538 555.696V553.396H271.654V566H269.538V563.654C269.124 564.39 268.503 565.003 267.675 565.494C266.862 565.969 265.912 566.207 264.823 566.207C263.704 566.207 262.692 565.931 261.787 565.379C260.882 564.827 260.169 564.053 259.648 563.056C259.127 562.059 258.866 560.925 258.866 559.652ZM269.538 559.675C269.538 558.724 269.346 557.896 268.963 557.191C268.58 556.486 268.058 555.949 267.399 555.581C266.755 555.198 266.042 555.006 265.26 555.006C264.478 555.006 263.765 555.19 263.121 555.558C262.477 555.926 261.963 556.463 261.58 557.168C261.197 557.873 261.005 558.701 261.005 559.652C261.005 560.618 261.197 561.461 261.58 562.182C261.963 562.887 262.477 563.432 263.121 563.815C263.765 564.183 264.478 564.367 265.26 564.367C266.042 564.367 266.755 564.183 267.399 563.815C268.058 563.432 268.58 562.887 268.963 562.182C269.346 561.461 269.538 560.626 269.538 559.675ZM286.047 553.396L278.457 571.934H276.295L278.779 565.862L273.696 553.396H276.019L279.975 563.608L283.885 553.396H286.047ZM305.461 553.396V566H303.368V564.137C302.969 564.781 302.409 565.287 301.689 565.655C300.983 566.008 300.201 566.184 299.343 566.184C298.361 566.184 297.48 565.985 296.698 565.586C295.916 565.172 295.295 564.559 294.835 563.746C294.39 562.933 294.168 561.944 294.168 560.779V553.396H296.238V560.503C296.238 561.745 296.552 562.703 297.181 563.378C297.809 564.037 298.668 564.367 299.757 564.367C300.876 564.367 301.758 564.022 302.402 563.332C303.046 562.642 303.368 561.638 303.368 560.319V553.396H305.461ZM311.088 555.719C311.502 554.998 312.115 554.4 312.928 553.925C313.756 553.434 314.714 553.189 315.803 553.189C316.922 553.189 317.934 553.457 318.839 553.994C319.759 554.531 320.479 555.29 321.001 556.271C321.522 557.237 321.783 558.364 321.783 559.652C321.783 560.925 321.522 562.059 321.001 563.056C320.479 564.053 319.759 564.827 318.839 565.379C317.934 565.931 316.922 566.207 315.803 566.207C314.729 566.207 313.779 565.969 312.951 565.494C312.138 565.003 311.517 564.398 311.088 563.677V571.98H308.995V553.396H311.088V555.719ZM319.644 559.652C319.644 558.701 319.452 557.873 319.069 557.168C318.685 556.463 318.164 555.926 317.505 555.558C316.861 555.19 316.148 555.006 315.366 555.006C314.599 555.006 313.886 555.198 313.227 555.581C312.583 555.949 312.061 556.493 311.663 557.214C311.279 557.919 311.088 558.74 311.088 559.675C311.088 560.626 311.279 561.461 311.663 562.182C312.061 562.887 312.583 563.432 313.227 563.815C313.886 564.183 314.599 564.367 315.366 564.367C316.148 564.367 316.861 564.183 317.505 563.815C318.164 563.432 318.685 562.887 319.069 562.182C319.452 561.461 319.644 560.618 319.644 559.652ZM323.756 559.652C323.756 558.364 324.016 557.237 324.538 556.271C325.059 555.29 325.772 554.531 326.677 553.994C327.597 553.457 328.624 553.189 329.759 553.189C330.74 553.189 331.652 553.419 332.496 553.879C333.339 554.324 333.983 554.914 334.428 555.65V548.98H336.544V566H334.428V563.631C334.014 564.382 333.4 565.003 332.588 565.494C331.775 565.969 330.824 566.207 329.736 566.207C328.616 566.207 327.597 565.931 326.677 565.379C325.772 564.827 325.059 564.053 324.538 563.056C324.016 562.059 323.756 560.925 323.756 559.652ZM334.428 559.675C334.428 558.724 334.236 557.896 333.853 557.191C333.469 556.486 332.948 555.949 332.289 555.581C331.645 555.198 330.932 555.006 330.15 555.006C329.368 555.006 328.655 555.19 328.011 555.558C327.367 555.926 326.853 556.463 326.47 557.168C326.086 557.873 325.895 558.701 325.895 559.652C325.895 560.618 326.086 561.461 326.47 562.182C326.853 562.887 327.367 563.432 328.011 563.815C328.655 564.183 329.368 564.367 330.15 564.367C330.932 564.367 331.645 564.183 332.289 563.815C332.948 563.432 333.469 562.887 333.853 562.182C334.236 561.461 334.428 560.626 334.428 559.675ZM339.299 559.652C339.299 558.364 339.559 557.237 340.081 556.271C340.602 555.29 341.315 554.531 342.22 553.994C343.14 553.457 344.159 553.189 345.279 553.189C346.383 553.189 347.341 553.427 348.154 553.902C348.966 554.377 349.572 554.975 349.971 555.696V553.396H352.087V566H349.971V563.654C349.557 564.39 348.936 565.003 348.108 565.494C347.295 565.969 346.344 566.207 345.256 566.207C344.136 566.207 343.124 565.931 342.22 565.379C341.315 564.827 340.602 564.053 340.081 563.056C339.559 562.059 339.299 560.925 339.299 559.652ZM349.971 559.675C349.971 558.724 349.779 557.896 349.396 557.191C349.012 556.486 348.491 555.949 347.832 555.581C347.188 555.198 346.475 555.006 345.693 555.006C344.911 555.006 344.198 555.19 343.554 555.558C342.91 555.926 342.396 556.463 342.013 557.168C341.629 557.873 341.438 558.701 341.438 559.652C341.438 560.618 341.629 561.461 342.013 562.182C342.396 562.887 342.91 563.432 343.554 563.815C344.198 564.183 344.911 564.367 345.693 564.367C346.475 564.367 347.188 564.183 347.832 563.815C348.491 563.432 349.012 562.887 349.396 562.182C349.779 561.461 349.971 560.626 349.971 559.675ZM358.177 555.121V562.55C358.177 563.163 358.307 563.6 358.568 563.861C358.828 564.106 359.281 564.229 359.925 564.229H361.466V566H359.58C358.414 566 357.54 565.732 356.958 565.195C356.375 564.658 356.084 563.777 356.084 562.55V555.121H354.451V553.396H356.084V550.222H358.177V553.396H361.466V555.121H358.177ZM375.501 559.215C375.501 559.614 375.478 560.035 375.432 560.48H365.358C365.435 561.722 365.857 562.696 366.623 563.401C367.405 564.091 368.348 564.436 369.452 564.436C370.357 564.436 371.108 564.229 371.706 563.815C372.32 563.386 372.749 562.818 372.994 562.113H375.248C374.911 563.324 374.236 564.313 373.224 565.08C372.212 565.831 370.955 566.207 369.452 566.207C368.256 566.207 367.183 565.939 366.232 565.402C365.297 564.865 364.561 564.106 364.024 563.125C363.488 562.128 363.219 560.978 363.219 559.675C363.219 558.372 363.48 557.229 364.001 556.248C364.523 555.267 365.251 554.515 366.186 553.994C367.137 553.457 368.226 553.189 369.452 553.189C370.648 553.189 371.706 553.45 372.626 553.971C373.546 554.492 374.252 555.213 374.742 556.133C375.248 557.038 375.501 558.065 375.501 559.215ZM373.339 558.778C373.339 557.981 373.163 557.298 372.81 556.731C372.458 556.148 371.975 555.711 371.361 555.42C370.763 555.113 370.096 554.96 369.36 554.96C368.302 554.96 367.398 555.297 366.646 555.972C365.91 556.647 365.489 557.582 365.381 558.778H373.339ZM377.482 559.652C377.482 558.364 377.743 557.237 378.264 556.271C378.785 555.29 379.498 554.531 380.403 553.994C381.323 553.457 382.35 553.189 383.485 553.189C384.466 553.189 385.379 553.419 386.222 553.879C387.065 554.324 387.709 554.914 388.154 555.65V548.98H390.27V566H388.154V563.631C387.74 564.382 387.127 565.003 386.314 565.494C385.501 565.969 384.551 566.207 383.462 566.207C382.343 566.207 381.323 565.931 380.403 565.379C379.498 564.827 378.785 564.053 378.264 563.056C377.743 562.059 377.482 560.925 377.482 559.652ZM388.154 559.675C388.154 558.724 387.962 557.896 387.579 557.191C387.196 556.486 386.674 555.949 386.015 555.581C385.371 555.198 384.658 555.006 383.876 555.006C383.094 555.006 382.381 555.19 381.737 555.558C381.093 555.926 380.579 556.463 380.196 557.168C379.813 557.873 379.621 558.701 379.621 559.652C379.621 560.618 379.813 561.461 380.196 562.182C380.579 562.887 381.093 563.432 381.737 563.815C382.381 564.183 383.094 564.367 383.876 564.367C384.658 564.367 385.371 564.183 386.015 563.815C386.674 563.432 387.196 562.887 387.579 562.182C387.962 561.461 388.154 560.626 388.154 559.675ZM416.729 553.396L412.796 566H410.634L407.598 555.995L404.562 566H402.4L398.444 553.396H400.583L403.481 563.976L406.609 553.396H408.748L411.807 563.999L414.659 553.396H416.729ZM419.887 551.349C419.488 551.349 419.151 551.211 418.875 550.935C418.599 550.659 418.461 550.322 418.461 549.923C418.461 549.524 418.599 549.187 418.875 548.911C419.151 548.635 419.488 548.497 419.887 548.497C420.27 548.497 420.592 548.635 420.853 548.911C421.129 549.187 421.267 549.524 421.267 549.923C421.267 550.322 421.129 550.659 420.853 550.935C420.592 551.211 420.27 551.349 419.887 551.349ZM420.899 553.396V566H418.806V553.396H420.899ZM427.019 555.121V562.55C427.019 563.163 427.15 563.6 427.41 563.861C427.671 564.106 428.123 564.229 428.767 564.229H430.308V566H428.422C427.257 566 426.383 565.732 425.8 565.195C425.218 564.658 424.926 563.777 424.926 562.55V555.121H423.293V553.396H424.926V550.222H427.019V553.396H430.308V555.121H427.019ZM439.1 553.166C440.051 553.166 440.91 553.373 441.676 553.787C442.443 554.186 443.041 554.791 443.47 555.604C443.915 556.417 444.137 557.406 444.137 558.571V566H442.067V558.87C442.067 557.613 441.753 556.654 441.124 555.995C440.496 555.32 439.637 554.983 438.548 554.983C437.444 554.983 436.563 555.328 435.903 556.018C435.259 556.708 434.937 557.712 434.937 559.031V566H432.844V548.98H434.937V555.19C435.351 554.546 435.919 554.048 436.639 553.695C437.375 553.342 438.196 553.166 439.1 553.166ZM456.241 555.121V562.55C456.241 563.163 456.371 563.6 456.632 563.861C456.893 564.106 457.345 564.229 457.989 564.229H459.53V566H457.644C456.479 566 455.605 565.732 455.022 565.195C454.439 564.658 454.148 563.777 454.148 562.55V555.121H452.515V553.396H454.148V550.222H456.241V553.396H459.53V555.121H456.241ZM468.322 553.166C469.273 553.166 470.131 553.373 470.898 553.787C471.665 554.186 472.263 554.791 472.692 555.604C473.137 556.417 473.359 557.406 473.359 558.571V566H471.289V558.87C471.289 557.613 470.975 556.654 470.346 555.995C469.717 555.32 468.859 554.983 467.77 554.983C466.666 554.983 465.784 555.328 465.125 556.018C464.481 556.708 464.159 557.712 464.159 559.031V566H462.066V548.98H464.159V555.19C464.573 554.546 465.14 554.048 465.861 553.695C466.597 553.342 467.417 553.166 468.322 553.166ZM488.278 559.215C488.278 559.614 488.255 560.035 488.209 560.48H478.135C478.212 561.722 478.633 562.696 479.4 563.401C480.182 564.091 481.125 564.436 482.229 564.436C483.134 564.436 483.885 564.229 484.483 563.815C485.096 563.386 485.526 562.818 485.771 562.113H488.025C487.688 563.324 487.013 564.313 486.001 565.08C484.989 565.831 483.732 566.207 482.229 566.207C481.033 566.207 479.96 565.939 479.009 565.402C478.074 564.865 477.338 564.106 476.801 563.125C476.264 562.128 475.996 560.978 475.996 559.675C475.996 558.372 476.257 557.229 476.778 556.248C477.299 555.267 478.028 554.515 478.963 553.994C479.914 553.457 481.002 553.189 482.229 553.189C483.425 553.189 484.483 553.45 485.403 553.971C486.323 554.492 487.028 555.213 487.519 556.133C488.025 557.038 488.278 558.065 488.278 559.215ZM486.116 558.778C486.116 557.981 485.94 557.298 485.587 556.731C485.234 556.148 484.751 555.711 484.138 555.42C483.54 555.113 482.873 554.96 482.137 554.96C481.079 554.96 480.174 555.297 479.423 555.972C478.687 556.647 478.265 557.582 478.158 558.778H486.116ZM503.313 553.166C504.847 553.166 506.089 553.634 507.039 554.569C507.99 555.489 508.465 556.823 508.465 558.571V566H506.395V558.87C506.395 557.613 506.081 556.654 505.452 555.995C504.824 555.32 503.965 554.983 502.876 554.983C501.772 554.983 500.891 555.328 500.231 556.018C499.587 556.708 499.265 557.712 499.265 559.031V566H497.172V553.396H499.265V555.19C499.679 554.546 500.239 554.048 500.944 553.695C501.665 553.342 502.455 553.166 503.313 553.166ZM523.384 559.215C523.384 559.614 523.361 560.035 523.315 560.48H513.241C513.318 561.722 513.74 562.696 514.506 563.401C515.288 564.091 516.231 564.436 517.335 564.436C518.24 564.436 518.991 564.229 519.589 563.815C520.203 563.386 520.632 562.818 520.877 562.113H523.131C522.794 563.324 522.119 564.313 521.107 565.08C520.095 565.831 518.838 566.207 517.335 566.207C516.139 566.207 515.066 565.939 514.115 565.402C513.18 564.865 512.444 564.106 511.907 563.125C511.371 562.128 511.102 560.978 511.102 559.675C511.102 558.372 511.363 557.229 511.884 556.248C512.406 555.267 513.134 554.515 514.069 553.994C515.02 553.457 516.109 553.189 517.335 553.189C518.531 553.189 519.589 553.45 520.509 553.971C521.429 554.492 522.135 555.213 522.625 556.133C523.131 557.038 523.384 558.065 523.384 559.215ZM521.222 558.778C521.222 557.981 521.046 557.298 520.693 556.731C520.341 556.148 519.858 555.711 519.244 555.42C518.646 555.113 517.979 554.96 517.243 554.96C516.185 554.96 515.281 555.297 514.529 555.972C513.793 556.647 513.372 557.582 513.264 558.778H521.222ZM542.937 553.396L539.004 566H536.842L533.806 555.995L530.77 566H528.608L524.652 553.396H526.791L529.689 563.976L532.817 553.396H534.956L538.015 563.999L540.867 553.396H542.937ZM553.699 555.121V562.55C553.699 563.163 553.829 563.6 554.09 563.861C554.351 564.106 554.803 564.229 555.447 564.229H556.988V566H555.102C553.937 566 553.063 565.732 552.48 565.195C551.897 564.658 551.606 563.777 551.606 562.55V555.121H549.973V553.396H551.606V550.222H553.699V553.396H556.988V555.121H553.699ZM561.617 555.443C561.985 554.722 562.506 554.163 563.181 553.764C563.871 553.365 564.707 553.166 565.688 553.166V555.328H565.136C562.79 555.328 561.617 556.601 561.617 559.146V566H559.524V553.396H561.617V555.443ZM579.604 559.215C579.604 559.614 579.581 560.035 579.535 560.48H569.461C569.538 561.722 569.959 562.696 570.726 563.401C571.508 564.091 572.451 564.436 573.555 564.436C574.46 564.436 575.211 564.229 575.809 563.815C576.422 563.386 576.852 562.818 577.097 562.113H579.351C579.014 563.324 578.339 564.313 577.327 565.08C576.315 565.831 575.058 566.207 573.555 566.207C572.359 566.207 571.286 565.939 570.335 565.402C569.4 564.865 568.664 564.106 568.127 563.125C567.59 562.128 567.322 560.978 567.322 559.675C567.322 558.372 567.583 557.229 568.104 556.248C568.625 555.267 569.354 554.515 570.289 553.994C571.24 553.457 572.328 553.189 573.555 553.189C574.751 553.189 575.809 553.45 576.729 553.971C577.649 554.492 578.354 555.213 578.845 556.133C579.351 557.038 579.604 558.065 579.604 559.215ZM577.442 558.778C577.442 557.981 577.266 557.298 576.913 556.731C576.56 556.148 576.077 555.711 575.464 555.42C574.866 555.113 574.199 554.96 573.463 554.96C572.405 554.96 571.5 555.297 570.749 555.972C570.013 556.647 569.591 557.582 569.484 558.778H577.442ZM588.508 553.166C590.041 553.166 591.283 553.634 592.234 554.569C593.184 555.489 593.66 556.823 593.66 558.571V566H591.59V558.87C591.59 557.613 591.275 556.654 590.647 555.995C590.018 555.32 589.159 554.983 588.071 554.983C586.967 554.983 586.085 555.328 585.426 556.018C584.782 556.708 584.46 557.712 584.46 559.031V566H582.367V553.396H584.46V555.19C584.874 554.546 585.433 554.048 586.139 553.695C586.859 553.342 587.649 553.166 588.508 553.166ZM596.297 559.652C596.297 558.364 596.557 557.237 597.079 556.271C597.6 555.29 598.313 554.531 599.218 553.994C600.138 553.457 601.165 553.189 602.3 553.189C603.281 553.189 604.193 553.419 605.037 553.879C605.88 554.324 606.524 554.914 606.969 555.65V548.98H609.085V566H606.969V563.631C606.555 564.382 605.941 565.003 605.129 565.494C604.316 565.969 603.365 566.207 602.277 566.207C601.157 566.207 600.138 565.931 599.218 565.379C598.313 564.827 597.6 564.053 597.079 563.056C596.557 562.059 596.297 560.925 596.297 559.652ZM606.969 559.675C606.969 558.724 606.777 557.896 606.394 557.191C606.01 556.486 605.489 555.949 604.83 555.581C604.186 555.198 603.473 555.006 602.691 555.006C601.909 555.006 601.196 555.19 600.552 555.558C599.908 555.926 599.394 556.463 599.011 557.168C598.627 557.873 598.436 558.701 598.436 559.652C598.436 560.618 598.627 561.461 599.011 562.182C599.394 562.887 599.908 563.432 600.552 563.815C601.196 564.183 601.909 564.367 602.691 564.367C603.473 564.367 604.186 564.183 604.83 563.815C605.489 563.432 606.01 562.887 606.394 562.182C606.777 561.461 606.969 560.626 606.969 559.675ZM617.084 566.207C616.118 566.207 615.251 566.046 614.485 565.724C613.718 565.387 613.112 564.927 612.668 564.344C612.223 563.746 611.978 563.064 611.932 562.297H614.094C614.155 562.926 614.446 563.439 614.968 563.838C615.504 564.237 616.202 564.436 617.061 564.436C617.858 564.436 618.487 564.26 618.947 563.907C619.407 563.554 619.637 563.11 619.637 562.573C619.637 562.021 619.391 561.615 618.901 561.354C618.41 561.078 617.651 560.81 616.624 560.549C615.688 560.304 614.922 560.058 614.324 559.813C613.741 559.552 613.235 559.177 612.806 558.686C612.392 558.18 612.185 557.521 612.185 556.708C612.185 556.064 612.376 555.474 612.76 554.937C613.143 554.4 613.687 553.979 614.393 553.672C615.098 553.35 615.903 553.189 616.808 553.189C618.203 553.189 619.33 553.542 620.189 554.247C621.047 554.952 621.507 555.918 621.569 557.145H619.476C619.43 556.486 619.161 555.957 618.671 555.558C618.195 555.159 617.551 554.96 616.739 554.96C615.987 554.96 615.389 555.121 614.945 555.443C614.5 555.765 614.278 556.187 614.278 556.708C614.278 557.122 614.408 557.467 614.669 557.743C614.945 558.004 615.282 558.218 615.681 558.387C616.095 558.54 616.662 558.717 617.383 558.916C618.287 559.161 619.023 559.407 619.591 559.652C620.158 559.882 620.641 560.235 621.04 560.71C621.454 561.185 621.668 561.806 621.684 562.573C621.684 563.263 621.492 563.884 621.109 564.436C620.725 564.988 620.181 565.425 619.476 565.747C618.786 566.054 617.988 566.207 617.084 566.207ZM631.851 551.349C631.452 551.349 631.115 551.211 630.839 550.935C630.563 550.659 630.425 550.322 630.425 549.923C630.425 549.524 630.563 549.187 630.839 548.911C631.115 548.635 631.452 548.497 631.851 548.497C632.234 548.497 632.556 548.635 632.817 548.911C633.093 549.187 633.231 549.524 633.231 549.923C633.231 550.322 633.093 550.659 632.817 550.935C632.556 551.211 632.234 551.349 631.851 551.349ZM632.863 553.396V566H630.77V553.396H632.863ZM642.571 553.166C644.105 553.166 645.347 553.634 646.297 554.569C647.248 555.489 647.723 556.823 647.723 558.571V566H645.653V558.87C645.653 557.613 645.339 556.654 644.71 555.995C644.082 555.32 643.223 554.983 642.134 554.983C641.03 554.983 640.149 555.328 639.489 556.018C638.845 556.708 638.523 557.712 638.523 559.031V566H636.43V553.396H638.523V555.19C638.937 554.546 639.497 554.048 640.202 553.695C640.923 553.342 641.713 553.166 642.571 553.166ZM659.827 555.121V562.55C659.827 563.163 659.957 563.6 660.218 563.861C660.479 564.106 660.931 564.229 661.575 564.229H663.116V566H661.23C660.065 566 659.191 565.732 658.608 565.195C658.025 564.658 657.734 563.777 657.734 562.55V555.121H656.101V553.396H657.734V550.222H659.827V553.396H663.116V555.121H659.827ZM671.908 553.166C672.859 553.166 673.717 553.373 674.484 553.787C675.251 554.186 675.849 554.791 676.278 555.604C676.723 556.417 676.945 557.406 676.945 558.571V566H674.875V558.87C674.875 557.613 674.561 556.654 673.932 555.995C673.303 555.32 672.445 554.983 671.356 554.983C670.252 554.983 669.37 555.328 668.711 556.018C668.067 556.708 667.745 557.712 667.745 559.031V566H665.652V548.98H667.745V555.19C668.159 554.546 668.726 554.048 669.447 553.695C670.183 553.342 671.003 553.166 671.908 553.166ZM691.864 559.215C691.864 559.614 691.841 560.035 691.795 560.48H681.721C681.797 561.722 682.219 562.696 682.986 563.401C683.768 564.091 684.711 564.436 685.815 564.436C686.719 564.436 687.471 564.229 688.069 563.815C688.682 563.386 689.111 562.818 689.357 562.113H691.611C691.273 563.324 690.599 564.313 689.587 565.08C688.575 565.831 687.317 566.207 685.815 566.207C684.619 566.207 683.545 565.939 682.595 565.402C681.659 564.865 680.923 564.106 680.387 563.125C679.85 562.128 679.582 560.978 679.582 559.675C679.582 558.372 679.842 557.229 680.364 556.248C680.885 555.267 681.613 554.515 682.549 553.994C683.499 553.457 684.588 553.189 685.815 553.189C687.011 553.189 688.069 553.45 688.989 553.971C689.909 554.492 690.614 555.213 691.105 556.133C691.611 557.038 691.864 558.065 691.864 559.215ZM689.702 558.778C689.702 557.981 689.525 557.298 689.173 556.731C688.82 556.148 688.337 555.711 687.724 555.42C687.126 555.113 686.459 554.96 685.723 554.96C684.665 554.96 683.76 555.297 683.009 555.972C682.273 556.647 681.851 557.582 681.744 558.778H689.702ZM239.864 592.742C240.293 591.991 240.922 591.377 241.75 590.902C242.578 590.427 243.521 590.189 244.579 590.189C245.714 590.189 246.733 590.457 247.638 590.994C248.543 591.531 249.256 592.29 249.777 593.271C250.298 594.237 250.559 595.364 250.559 596.652C250.559 597.925 250.298 599.059 249.777 600.056C249.256 601.053 248.535 601.827 247.615 602.379C246.71 602.931 245.698 603.207 244.579 603.207C243.49 603.207 242.532 602.969 241.704 602.494C240.891 602.019 240.278 601.413 239.864 600.677V603H237.771V585.98H239.864V592.742ZM248.42 596.652C248.42 595.701 248.228 594.873 247.845 594.168C247.462 593.463 246.94 592.926 246.281 592.558C245.637 592.19 244.924 592.006 244.142 592.006C243.375 592.006 242.662 592.198 242.003 592.581C241.359 592.949 240.838 593.493 240.439 594.214C240.056 594.919 239.864 595.74 239.864 596.675C239.864 597.626 240.056 598.461 240.439 599.182C240.838 599.887 241.359 600.432 242.003 600.815C242.662 601.183 243.375 601.367 244.142 601.367C244.924 601.367 245.637 601.183 246.281 600.815C246.94 600.432 247.462 599.887 247.845 599.182C248.228 598.461 248.42 597.618 248.42 596.652ZM264.814 596.215C264.814 596.614 264.791 597.035 264.745 597.48H254.671C254.748 598.722 255.169 599.696 255.936 600.401C256.718 601.091 257.661 601.436 258.765 601.436C259.67 601.436 260.421 601.229 261.019 600.815C261.632 600.386 262.062 599.818 262.307 599.113H264.561C264.224 600.324 263.549 601.313 262.537 602.08C261.525 602.831 260.268 603.207 258.765 603.207C257.569 603.207 256.496 602.939 255.545 602.402C254.61 601.865 253.874 601.106 253.337 600.125C252.8 599.128 252.532 597.978 252.532 596.675C252.532 595.372 252.793 594.229 253.314 593.248C253.835 592.267 254.564 591.515 255.499 590.994C256.45 590.457 257.538 590.189 258.765 590.189C259.961 590.189 261.019 590.45 261.939 590.971C262.859 591.492 263.564 592.213 264.055 593.133C264.561 594.038 264.814 595.065 264.814 596.215ZM262.652 595.778C262.652 594.981 262.476 594.298 262.123 593.731C261.77 593.148 261.287 592.711 260.674 592.42C260.076 592.113 259.409 591.96 258.673 591.96C257.615 591.96 256.71 592.297 255.959 592.972C255.223 593.647 254.801 594.582 254.694 595.778H262.652ZM266.795 596.652C266.795 595.364 267.055 594.237 267.577 593.271C268.098 592.29 268.811 591.531 269.716 590.994C270.636 590.457 271.655 590.189 272.775 590.189C273.879 590.189 274.837 590.427 275.65 590.902C276.462 591.377 277.068 591.975 277.467 592.696V590.396H279.583V603H277.467V600.654C277.053 601.39 276.432 602.003 275.604 602.494C274.791 602.969 273.84 603.207 272.752 603.207C271.632 603.207 270.62 602.931 269.716 602.379C268.811 601.827 268.098 601.053 267.577 600.056C267.055 599.059 266.795 597.925 266.795 596.652ZM277.467 596.675C277.467 595.724 277.275 594.896 276.892 594.191C276.508 593.486 275.987 592.949 275.328 592.581C274.684 592.198 273.971 592.006 273.189 592.006C272.407 592.006 271.694 592.19 271.05 592.558C270.406 592.926 269.892 593.463 269.509 594.168C269.125 594.873 268.934 595.701 268.934 596.652C268.934 597.618 269.125 598.461 269.509 599.182C269.892 599.887 270.406 600.432 271.05 600.815C271.694 601.183 272.407 601.367 273.189 601.367C273.971 601.367 274.684 601.183 275.328 600.815C275.987 600.432 276.508 599.887 276.892 599.182C277.275 598.461 277.467 597.626 277.467 596.675ZM294.298 590.396V603H292.205V601.137C291.806 601.781 291.246 602.287 290.526 602.655C289.82 603.008 289.038 603.184 288.18 603.184C287.198 603.184 286.317 602.985 285.535 602.586C284.753 602.172 284.132 601.559 283.672 600.746C283.227 599.933 283.005 598.944 283.005 597.779V590.396H285.075V597.503C285.075 598.745 285.389 599.703 286.018 600.378C286.646 601.037 287.505 601.367 288.594 601.367C289.713 601.367 290.595 601.022 291.239 600.332C291.883 599.642 292.205 598.638 292.205 597.319V590.396H294.298ZM300.385 592.121V599.55C300.385 600.163 300.515 600.6 300.776 600.861C301.036 601.106 301.489 601.229 302.133 601.229H303.674V603H301.788C300.622 603 299.748 602.732 299.166 602.195C298.583 601.658 298.292 600.777 298.292 599.55V592.121H296.659V590.396H298.292V587.222H300.385V590.396H303.674V592.121H300.385ZM317.065 590.396L309.475 608.934H307.313L309.797 602.862L304.714 590.396H307.037L310.993 600.608L314.903 590.396H317.065ZM342.091 590.396L338.158 603H335.996L332.96 592.995L329.924 603H327.762L323.806 590.396H325.945L328.843 600.976L331.971 590.396H334.11L337.169 600.999L340.021 590.396H342.091ZM349.665 603.207C348.485 603.207 347.411 602.939 346.445 602.402C345.495 601.865 344.743 601.106 344.191 600.125C343.655 599.128 343.386 597.978 343.386 596.675C343.386 595.387 343.662 594.252 344.214 593.271C344.782 592.274 345.548 591.515 346.514 590.994C347.48 590.457 348.561 590.189 349.757 590.189C350.953 590.189 352.034 590.457 353 590.994C353.966 591.515 354.725 592.267 355.277 593.248C355.845 594.229 356.128 595.372 356.128 596.675C356.128 597.978 355.837 599.128 355.254 600.125C354.687 601.106 353.913 601.865 352.931 602.402C351.95 602.939 350.861 603.207 349.665 603.207ZM349.665 601.367C350.417 601.367 351.122 601.191 351.781 600.838C352.441 600.485 352.97 599.956 353.368 599.251C353.782 598.546 353.989 597.687 353.989 596.675C353.989 595.663 353.79 594.804 353.391 594.099C352.993 593.394 352.471 592.872 351.827 592.535C351.183 592.182 350.486 592.006 349.734 592.006C348.968 592.006 348.262 592.182 347.618 592.535C346.99 592.872 346.484 593.394 346.1 594.099C345.717 594.804 345.525 595.663 345.525 596.675C345.525 597.702 345.709 598.569 346.077 599.274C346.461 599.979 346.967 600.508 347.595 600.861C348.224 601.198 348.914 601.367 349.665 601.367ZM360.973 592.443C361.341 591.722 361.863 591.163 362.537 590.764C363.227 590.365 364.063 590.166 365.044 590.166V592.328H364.492C362.146 592.328 360.973 593.601 360.973 596.146V603H358.88V590.396H360.973V592.443ZM369.553 585.98V603H367.46V585.98H369.553ZM372.339 596.652C372.339 595.364 372.599 594.237 373.121 593.271C373.642 592.29 374.355 591.531 375.26 590.994C376.18 590.457 377.207 590.189 378.342 590.189C379.323 590.189 380.235 590.419 381.079 590.879C381.922 591.324 382.566 591.914 383.011 592.65V585.98H385.127V603H383.011V600.631C382.597 601.382 381.983 602.003 381.171 602.494C380.358 602.969 379.407 603.207 378.319 603.207C377.199 603.207 376.18 602.931 375.26 602.379C374.355 601.827 373.642 601.053 373.121 600.056C372.599 599.059 372.339 597.925 372.339 596.652ZM383.011 596.675C383.011 595.724 382.819 594.896 382.436 594.191C382.052 593.486 381.531 592.949 380.872 592.581C380.228 592.198 379.515 592.006 378.733 592.006C377.951 592.006 377.238 592.19 376.594 592.558C375.95 592.926 375.436 593.463 375.053 594.168C374.669 594.873 374.478 595.701 374.478 596.652C374.478 597.618 374.669 598.461 375.053 599.182C375.436 599.887 375.95 600.432 376.594 600.815C377.238 601.183 377.951 601.367 378.733 601.367C379.515 601.367 380.228 601.183 380.872 600.815C381.531 600.432 382.052 599.887 382.436 599.182C382.819 598.461 383.011 597.626 383.011 596.675ZM411.585 590.396L407.652 603H405.49L402.454 592.995L399.418 603H397.256L393.3 590.396H395.439L398.337 600.976L401.465 590.396H403.604L406.663 600.999L409.515 590.396H411.585ZM414.744 588.349C414.345 588.349 414.008 588.211 413.732 587.935C413.456 587.659 413.318 587.322 413.318 586.923C413.318 586.524 413.456 586.187 413.732 585.911C414.008 585.635 414.345 585.497 414.744 585.497C415.127 585.497 415.449 585.635 415.71 585.911C415.986 586.187 416.124 586.524 416.124 586.923C416.124 587.322 415.986 587.659 415.71 587.935C415.449 588.211 415.127 588.349 414.744 588.349ZM415.756 590.396V603H413.663V590.396H415.756ZM421.876 592.121V599.55C421.876 600.163 422.006 600.6 422.267 600.861C422.527 601.106 422.98 601.229 423.624 601.229H425.165V603H423.279C422.113 603 421.239 602.732 420.657 602.195C420.074 601.658 419.783 600.777 419.783 599.55V592.121H418.15V590.396H419.783V587.222H421.876V590.396H425.165V592.121H421.876ZM433.957 590.166C434.907 590.166 435.766 590.373 436.533 590.787C437.299 591.186 437.897 591.791 438.327 592.604C438.771 593.417 438.994 594.406 438.994 595.571V603H436.924V595.87C436.924 594.613 436.609 593.654 435.981 592.995C435.352 592.32 434.493 591.983 433.405 591.983C432.301 591.983 431.419 592.328 430.76 593.018C430.116 593.708 429.794 594.712 429.794 596.031V603H427.701V585.98H429.794V592.19C430.208 591.546 430.775 591.048 431.496 590.695C432.232 590.342 433.052 590.166 433.957 590.166ZM454.041 603.207C452.861 603.207 451.787 602.939 450.821 602.402C449.871 601.865 449.119 601.106 448.567 600.125C448.031 599.128 447.762 597.978 447.762 596.675C447.762 595.387 448.038 594.252 448.59 593.271C449.158 592.274 449.924 591.515 450.89 590.994C451.856 590.457 452.937 590.189 454.133 590.189C455.329 590.189 456.41 590.457 457.376 590.994C458.342 591.515 459.101 592.267 459.653 593.248C460.221 594.229 460.504 595.372 460.504 596.675C460.504 597.978 460.213 599.128 459.63 600.125C459.063 601.106 458.289 601.865 457.307 602.402C456.326 602.939 455.237 603.207 454.041 603.207ZM454.041 601.367C454.793 601.367 455.498 601.191 456.157 600.838C456.817 600.485 457.346 599.956 457.744 599.251C458.158 598.546 458.365 597.687 458.365 596.675C458.365 595.663 458.166 594.804 457.767 594.099C457.369 593.394 456.847 592.872 456.203 592.535C455.559 592.182 454.862 592.006 454.11 592.006C453.344 592.006 452.638 592.182 451.994 592.535C451.366 592.872 450.86 593.394 450.476 594.099C450.093 594.804 449.901 595.663 449.901 596.675C449.901 597.702 450.085 598.569 450.453 599.274C450.837 599.979 451.343 600.508 451.971 600.861C452.6 601.198 453.29 601.367 454.041 601.367ZM474.434 590.396V603H472.341V601.137C471.943 601.781 471.383 602.287 470.662 602.655C469.957 603.008 469.175 603.184 468.316 603.184C467.335 603.184 466.453 602.985 465.671 602.586C464.889 602.172 464.268 601.559 463.808 600.746C463.364 599.933 463.141 598.944 463.141 597.779V590.396H465.211V597.503C465.211 598.745 465.526 599.703 466.154 600.378C466.783 601.037 467.642 601.367 468.73 601.367C469.85 601.367 470.731 601.022 471.375 600.332C472.019 599.642 472.341 598.638 472.341 597.319V590.396H474.434ZM480.061 592.443C480.429 591.722 480.951 591.163 481.625 590.764C482.315 590.365 483.151 590.166 484.132 590.166V592.328H483.58C481.234 592.328 480.061 593.601 480.061 596.146V603H477.968V590.396H480.061V592.443ZM493.761 588.349C493.363 588.349 493.025 588.211 492.749 587.935C492.473 587.659 492.335 587.322 492.335 586.923C492.335 586.524 492.473 586.187 492.749 585.911C493.025 585.635 493.363 585.497 493.761 585.497C494.145 585.497 494.467 585.635 494.727 585.911C495.003 586.187 495.141 586.524 495.141 586.923C495.141 587.322 495.003 587.659 494.727 587.935C494.467 588.211 494.145 588.349 493.761 588.349ZM494.773 590.396V603H492.68V590.396H494.773ZM504.481 590.166C506.015 590.166 507.257 590.634 508.207 591.569C509.158 592.489 509.633 593.823 509.633 595.571V603H507.563V595.87C507.563 594.613 507.249 593.654 506.62 592.995C505.992 592.32 505.133 591.983 504.044 591.983C502.94 591.983 502.059 592.328 501.399 593.018C500.755 593.708 500.433 594.712 500.433 596.031V603H498.34V590.396H500.433V592.19C500.847 591.546 501.407 591.048 502.112 590.695C502.833 590.342 503.623 590.166 504.481 590.166ZM517.514 603.207C516.548 603.207 515.682 603.046 514.915 602.724C514.149 602.387 513.543 601.927 513.098 601.344C512.654 600.746 512.408 600.064 512.362 599.297H514.524C514.586 599.926 514.877 600.439 515.398 600.838C515.935 601.237 516.633 601.436 517.491 601.436C518.289 601.436 518.917 601.26 519.377 600.907C519.837 600.554 520.067 600.11 520.067 599.573C520.067 599.021 519.822 598.615 519.331 598.354C518.841 598.078 518.082 597.81 517.054 597.549C516.119 597.304 515.352 597.058 514.754 596.813C514.172 596.552 513.666 596.177 513.236 595.686C512.822 595.18 512.615 594.521 512.615 593.708C512.615 593.064 512.807 592.474 513.19 591.937C513.574 591.4 514.118 590.979 514.823 590.672C515.529 590.35 516.334 590.189 517.238 590.189C518.634 590.189 519.761 590.542 520.619 591.247C521.478 591.952 521.938 592.918 521.999 594.145H519.906C519.86 593.486 519.592 592.957 519.101 592.558C518.626 592.159 517.982 591.96 517.169 591.96C516.418 591.96 515.82 592.121 515.375 592.443C514.931 592.765 514.708 593.187 514.708 593.708C514.708 594.122 514.839 594.467 515.099 594.743C515.375 595.004 515.713 595.218 516.111 595.387C516.525 595.54 517.093 595.717 517.813 595.916C518.718 596.161 519.454 596.407 520.021 596.652C520.589 596.882 521.072 597.235 521.47 597.71C521.884 598.185 522.099 598.806 522.114 599.573C522.114 600.263 521.923 600.884 521.539 601.436C521.156 601.988 520.612 602.425 519.906 602.747C519.216 603.054 518.419 603.207 517.514 603.207ZM527.162 592.719C527.576 591.998 528.189 591.4 529.002 590.925C529.83 590.434 530.788 590.189 531.877 590.189C532.996 590.189 534.008 590.457 534.913 590.994C535.833 591.531 536.554 592.29 537.075 593.271C537.596 594.237 537.857 595.364 537.857 596.652C537.857 597.925 537.596 599.059 537.075 600.056C536.554 601.053 535.833 601.827 534.913 602.379C534.008 602.931 532.996 603.207 531.877 603.207C530.804 603.207 529.853 602.969 529.025 602.494C528.212 602.003 527.591 601.398 527.162 600.677V608.98H525.069V590.396H527.162V592.719ZM535.718 596.652C535.718 595.701 535.526 594.873 535.143 594.168C534.76 593.463 534.238 592.926 533.579 592.558C532.935 592.19 532.222 592.006 531.44 592.006C530.673 592.006 529.96 592.198 529.301 592.581C528.657 592.949 528.136 593.493 527.737 594.214C527.354 594.919 527.162 595.74 527.162 596.675C527.162 597.626 527.354 598.461 527.737 599.182C528.136 599.887 528.657 600.432 529.301 600.815C529.96 601.183 530.673 601.367 531.44 601.367C532.222 601.367 532.935 601.183 533.579 600.815C534.238 600.432 534.76 599.887 535.143 599.182C535.526 598.461 535.718 597.618 535.718 596.652ZM541.693 588.349C541.294 588.349 540.957 588.211 540.681 587.935C540.405 587.659 540.267 587.322 540.267 586.923C540.267 586.524 540.405 586.187 540.681 585.911C540.957 585.635 541.294 585.497 541.693 585.497C542.076 585.497 542.398 585.635 542.659 585.911C542.935 586.187 543.073 586.524 543.073 586.923C543.073 587.322 542.935 587.659 542.659 587.935C542.398 588.211 542.076 588.349 541.693 588.349ZM542.705 590.396V603H540.612V590.396H542.705ZM548.365 592.443C548.733 591.722 549.254 591.163 549.929 590.764C550.619 590.365 551.455 590.166 552.436 590.166V592.328H551.884C549.538 592.328 548.365 593.601 548.365 596.146V603H546.272V590.396H548.365V592.443ZM554.07 596.652C554.07 595.364 554.331 594.237 554.852 593.271C555.373 592.29 556.086 591.531 556.991 590.994C557.911 590.457 558.931 590.189 560.05 590.189C561.154 590.189 562.112 590.427 562.925 590.902C563.738 591.377 564.343 591.975 564.742 592.696V590.396H566.858V603H564.742V600.654C564.328 601.39 563.707 602.003 562.879 602.494C562.066 602.969 561.116 603.207 560.027 603.207C558.908 603.207 557.896 602.931 556.991 602.379C556.086 601.827 555.373 601.053 554.852 600.056C554.331 599.059 554.07 597.925 554.07 596.652ZM564.742 596.675C564.742 595.724 564.55 594.896 564.167 594.191C563.784 593.486 563.262 592.949 562.603 592.581C561.959 592.198 561.246 592.006 560.464 592.006C559.682 592.006 558.969 592.19 558.325 592.558C557.681 592.926 557.167 593.463 556.784 594.168C556.401 594.873 556.209 595.701 556.209 596.652C556.209 597.618 556.401 598.461 556.784 599.182C557.167 599.887 557.681 600.432 558.325 600.815C558.969 601.183 559.682 601.367 560.464 601.367C561.246 601.367 561.959 601.183 562.603 600.815C563.262 600.432 563.784 599.887 564.167 599.182C564.55 598.461 564.742 597.626 564.742 596.675ZM572.948 592.121V599.55C572.948 600.163 573.078 600.6 573.339 600.861C573.6 601.106 574.052 601.229 574.696 601.229H576.237V603H574.351C573.186 603 572.312 602.732 571.729 602.195C571.146 601.658 570.855 600.777 570.855 599.55V592.121H569.222V590.396H570.855V587.222H572.948V590.396H576.237V592.121H572.948ZM579.854 588.349C579.455 588.349 579.118 588.211 578.842 587.935C578.566 587.659 578.428 587.322 578.428 586.923C578.428 586.524 578.566 586.187 578.842 585.911C579.118 585.635 579.455 585.497 579.854 585.497C580.237 585.497 580.559 585.635 580.82 585.911C581.096 586.187 581.234 586.524 581.234 586.923C581.234 587.322 581.096 587.659 580.82 587.935C580.559 588.211 580.237 588.349 579.854 588.349ZM580.866 590.396V603H578.773V590.396H580.866ZM589.93 603.207C588.749 603.207 587.676 602.939 586.71 602.402C585.759 601.865 585.008 601.106 584.456 600.125C583.919 599.128 583.651 597.978 583.651 596.675C583.651 595.387 583.927 594.252 584.479 593.271C585.046 592.274 585.813 591.515 586.779 590.994C587.745 590.457 588.826 590.189 590.022 590.189C591.218 590.189 592.299 590.457 593.265 590.994C594.231 591.515 594.99 592.267 595.542 593.248C596.109 594.229 596.393 595.372 596.393 596.675C596.393 597.978 596.102 599.128 595.519 600.125C594.952 601.106 594.177 601.865 593.196 602.402C592.215 602.939 591.126 603.207 589.93 603.207ZM589.93 601.367C590.681 601.367 591.387 601.191 592.046 600.838C592.705 600.485 593.234 599.956 593.633 599.251C594.047 598.546 594.254 597.687 594.254 596.675C594.254 595.663 594.055 594.804 593.656 594.099C593.257 593.394 592.736 592.872 592.092 592.535C591.448 592.182 590.75 592.006 589.999 592.006C589.232 592.006 588.527 592.182 587.883 592.535C587.254 592.872 586.748 593.394 586.365 594.099C585.982 594.804 585.79 595.663 585.79 596.675C585.79 597.702 585.974 598.569 586.342 599.274C586.725 599.979 587.231 600.508 587.86 600.861C588.489 601.198 589.179 601.367 589.93 601.367ZM605.286 590.166C606.819 590.166 608.061 590.634 609.012 591.569C609.963 592.489 610.438 593.823 610.438 595.571V603H608.368V595.87C608.368 594.613 608.054 593.654 607.425 592.995C606.796 592.32 605.938 591.983 604.849 591.983C603.745 591.983 602.863 592.328 602.204 593.018C601.56 593.708 601.238 594.712 601.238 596.031V603H599.145V590.396H601.238V592.19C601.652 591.546 602.212 591.048 602.917 590.695C603.638 590.342 604.427 590.166 605.286 590.166ZM622.082 592.742C622.511 591.991 623.14 591.377 623.968 590.902C624.796 590.427 625.739 590.189 626.797 590.189C627.931 590.189 628.951 590.457 629.856 590.994C630.76 591.531 631.473 592.29 631.995 593.271C632.516 594.237 632.777 595.364 632.777 596.652C632.777 597.925 632.516 599.059 631.995 600.056C631.473 601.053 630.753 601.827 629.833 602.379C628.928 602.931 627.916 603.207 626.797 603.207C625.708 603.207 624.75 602.969 623.922 602.494C623.109 602.019 622.496 601.413 622.082 600.677V603H619.989V585.98H622.082V592.742ZM630.638 596.652C630.638 595.701 630.446 594.873 630.063 594.168C629.679 593.463 629.158 592.926 628.499 592.558C627.855 592.19 627.142 592.006 626.36 592.006C625.593 592.006 624.88 592.198 624.221 592.581C623.577 592.949 623.055 593.493 622.657 594.214C622.273 594.919 622.082 595.74 622.082 596.675C622.082 597.626 622.273 598.461 622.657 599.182C623.055 599.887 623.577 600.432 624.221 600.815C624.88 601.183 625.593 601.367 626.36 601.367C627.142 601.367 627.855 601.183 628.499 600.815C629.158 600.432 629.679 599.887 630.063 599.182C630.446 598.461 630.638 597.618 630.638 596.652ZM641.029 603.207C639.848 603.207 638.775 602.939 637.809 602.402C636.858 601.865 636.107 601.106 635.555 600.125C635.018 599.128 634.75 597.978 634.75 596.675C634.75 595.387 635.026 594.252 635.578 593.271C636.145 592.274 636.912 591.515 637.878 590.994C638.844 590.457 639.925 590.189 641.121 590.189C642.317 590.189 643.398 590.457 644.364 590.994C645.33 591.515 646.089 592.267 646.641 593.248C647.208 594.229 647.492 595.372 647.492 596.675C647.492 597.978 647.2 599.128 646.618 600.125C646.05 601.106 645.276 601.865 644.295 602.402C643.313 602.939 642.225 603.207 641.029 603.207ZM641.029 601.367C641.78 601.367 642.485 601.191 643.145 600.838C643.804 600.485 644.333 599.956 644.732 599.251C645.146 598.546 645.353 597.687 645.353 596.675C645.353 595.663 645.153 594.804 644.755 594.099C644.356 593.394 643.835 592.872 643.191 592.535C642.547 592.182 641.849 592.006 641.098 592.006C640.331 592.006 639.626 592.182 638.982 592.535C638.353 592.872 637.847 593.394 637.464 594.099C637.08 594.804 636.889 595.663 636.889 596.675C636.889 597.702 637.073 598.569 637.441 599.274C637.824 599.979 638.33 600.508 638.959 600.861C639.587 601.198 640.277 601.367 641.029 601.367ZM649.462 596.652C649.462 595.364 649.722 594.237 650.244 593.271C650.765 592.29 651.478 591.531 652.383 590.994C653.303 590.457 654.322 590.189 655.442 590.189C656.546 590.189 657.504 590.427 658.317 590.902C659.129 591.377 659.735 591.975 660.134 592.696V590.396H662.25V603H660.134V600.654C659.72 601.39 659.099 602.003 658.271 602.494C657.458 602.969 656.507 603.207 655.419 603.207C654.299 603.207 653.287 602.931 652.383 602.379C651.478 601.827 650.765 601.053 650.244 600.056C649.722 599.059 649.462 597.925 649.462 596.652ZM660.134 596.675C660.134 595.724 659.942 594.896 659.559 594.191C659.175 593.486 658.654 592.949 657.995 592.581C657.351 592.198 656.638 592.006 655.856 592.006C655.074 592.006 654.361 592.19 653.717 592.558C653.073 592.926 652.559 593.463 652.176 594.168C651.792 594.873 651.601 595.701 651.601 596.652C651.601 597.618 651.792 598.461 652.176 599.182C652.559 599.887 653.073 600.432 653.717 600.815C654.361 601.183 655.074 601.367 655.856 601.367C656.638 601.367 657.351 601.183 657.995 600.815C658.654 600.432 659.175 599.887 659.559 599.182C659.942 598.461 660.134 597.626 660.134 596.675ZM667.88 592.443C668.248 591.722 668.769 591.163 669.444 590.764C670.134 590.365 670.969 590.166 671.951 590.166V592.328H671.399C669.053 592.328 667.88 593.601 667.88 596.146V603H665.787V590.396H667.88V592.443ZM673.585 596.652C673.585 595.364 673.845 594.237 674.367 593.271C674.888 592.29 675.601 591.531 676.506 590.994C677.426 590.457 678.453 590.189 679.588 590.189C680.569 590.189 681.481 590.419 682.325 590.879C683.168 591.324 683.812 591.914 684.257 592.65V585.98H686.373V603H684.257V600.631C683.843 601.382 683.229 602.003 682.417 602.494C681.604 602.969 680.653 603.207 679.565 603.207C678.445 603.207 677.426 602.931 676.506 602.379C675.601 601.827 674.888 601.053 674.367 600.056C673.845 599.059 673.585 597.925 673.585 596.652ZM684.257 596.675C684.257 595.724 684.065 594.896 683.682 594.191C683.298 593.486 682.777 592.949 682.118 592.581C681.474 592.198 680.761 592.006 679.979 592.006C679.197 592.006 678.484 592.19 677.84 592.558C677.196 592.926 676.682 593.463 676.299 594.168C675.915 594.873 675.724 595.701 675.724 596.652C675.724 597.618 675.915 598.461 676.299 599.182C676.682 599.887 677.196 600.432 677.84 600.815C678.484 601.183 679.197 601.367 679.979 601.367C680.761 601.367 681.474 601.183 682.118 600.815C682.777 600.432 683.298 599.887 683.682 599.182C684.065 598.461 684.257 597.626 684.257 596.675ZM692.072 600.102L689.496 606.289H688.093L689.772 600.102H692.072ZM254.561 627.396L250.628 640H248.466L245.43 629.995L242.394 640H240.232L236.276 627.396H238.415L241.313 637.976L244.441 627.396H246.58L249.639 637.999L252.491 627.396H254.561ZM262.894 627.166C263.845 627.166 264.704 627.373 265.47 627.787C266.237 628.186 266.835 628.791 267.264 629.604C267.709 630.417 267.931 631.406 267.931 632.571V640H265.861V632.87C265.861 631.613 265.547 630.654 264.918 629.995C264.29 629.32 263.431 628.983 262.342 628.983C261.238 628.983 260.357 629.328 259.697 630.018C259.053 630.708 258.731 631.712 258.731 633.031V640H256.638V622.98H258.731V629.19C259.145 628.546 259.713 628.048 260.433 627.695C261.169 627.342 261.99 627.166 262.894 627.166ZM282.85 633.215C282.85 633.614 282.827 634.035 282.781 634.48H272.707C272.784 635.722 273.205 636.696 273.972 637.401C274.754 638.091 275.697 638.436 276.801 638.436C277.706 638.436 278.457 638.229 279.055 637.815C279.668 637.386 280.098 636.818 280.343 636.113H282.597C282.26 637.324 281.585 638.313 280.573 639.08C279.561 639.831 278.304 640.207 276.801 640.207C275.605 640.207 274.532 639.939 273.581 639.402C272.646 638.865 271.91 638.106 271.373 637.125C270.836 636.128 270.568 634.978 270.568 633.675C270.568 632.372 270.829 631.229 271.35 630.248C271.871 629.267 272.6 628.515 273.535 627.994C274.486 627.457 275.574 627.189 276.801 627.189C277.997 627.189 279.055 627.45 279.975 627.971C280.895 628.492 281.6 629.213 282.091 630.133C282.597 631.038 282.85 632.065 282.85 633.215ZM280.688 632.778C280.688 631.981 280.512 631.298 280.159 630.731C279.806 630.148 279.323 629.711 278.71 629.42C278.112 629.113 277.445 628.96 276.709 628.96C275.651 628.96 274.746 629.297 273.995 629.972C273.259 630.647 272.837 631.582 272.73 632.778H280.688ZM287.706 629.443C288.074 628.722 288.595 628.163 289.27 627.764C289.96 627.365 290.795 627.166 291.777 627.166V629.328H291.225C288.879 629.328 287.706 630.601 287.706 633.146V640H285.613V627.396H287.706V629.443ZM305.693 633.215C305.693 633.614 305.67 634.035 305.624 634.48H295.55C295.627 635.722 296.048 636.696 296.815 637.401C297.597 638.091 298.54 638.436 299.644 638.436C300.549 638.436 301.3 638.229 301.898 637.815C302.511 637.386 302.941 636.818 303.186 636.113H305.44C305.103 637.324 304.428 638.313 303.416 639.08C302.404 639.831 301.147 640.207 299.644 640.207C298.448 640.207 297.375 639.939 296.424 639.402C295.489 638.865 294.753 638.106 294.216 637.125C293.679 636.128 293.411 634.978 293.411 633.675C293.411 632.372 293.672 631.229 294.193 630.248C294.714 629.267 295.443 628.515 296.378 627.994C297.329 627.457 298.417 627.189 299.644 627.189C300.84 627.189 301.898 627.45 302.818 627.971C303.738 628.492 304.443 629.213 304.934 630.133C305.44 631.038 305.693 632.065 305.693 633.215ZM303.531 632.778C303.531 631.981 303.355 631.298 303.002 630.731C302.649 630.148 302.166 629.711 301.553 629.42C300.955 629.113 300.288 628.96 299.552 628.96C298.494 628.96 297.589 629.297 296.838 629.972C296.102 630.647 295.68 631.582 295.573 632.778H303.531ZM325.443 627.396L317.853 645.934H315.691L318.175 639.862L313.092 627.396H315.415L319.371 637.608L323.281 627.396H325.443ZM333.044 640.207C331.864 640.207 330.79 639.939 329.824 639.402C328.874 638.865 328.122 638.106 327.57 637.125C327.034 636.128 326.765 634.978 326.765 633.675C326.765 632.387 327.041 631.252 327.593 630.271C328.161 629.274 328.927 628.515 329.893 627.994C330.859 627.457 331.94 627.189 333.136 627.189C334.332 627.189 335.413 627.457 336.379 627.994C337.345 628.515 338.104 629.267 338.656 630.248C339.224 631.229 339.507 632.372 339.507 633.675C339.507 634.978 339.216 636.128 338.633 637.125C338.066 638.106 337.292 638.865 336.31 639.402C335.329 639.939 334.24 640.207 333.044 640.207ZM333.044 638.367C333.796 638.367 334.501 638.191 335.16 637.838C335.82 637.485 336.349 636.956 336.747 636.251C337.161 635.546 337.368 634.687 337.368 633.675C337.368 632.663 337.169 631.804 336.77 631.099C336.372 630.394 335.85 629.872 335.206 629.535C334.562 629.182 333.865 629.006 333.113 629.006C332.347 629.006 331.641 629.182 330.997 629.535C330.369 629.872 329.863 630.394 329.479 631.099C329.096 631.804 328.904 632.663 328.904 633.675C328.904 634.702 329.088 635.569 329.456 636.274C329.84 636.979 330.346 637.508 330.974 637.861C331.603 638.198 332.293 638.367 333.044 638.367ZM353.437 627.396V640H351.344V638.137C350.946 638.781 350.386 639.287 349.665 639.655C348.96 640.008 348.178 640.184 347.319 640.184C346.338 640.184 345.456 639.985 344.674 639.586C343.892 639.172 343.271 638.559 342.811 637.746C342.367 636.933 342.144 635.944 342.144 634.779V627.396H344.214V634.503C344.214 635.745 344.529 636.703 345.157 637.378C345.786 638.037 346.645 638.367 347.733 638.367C348.853 638.367 349.734 638.022 350.378 637.332C351.022 636.642 351.344 635.638 351.344 634.319V627.396H353.437ZM362.321 633.675C362.321 632.372 362.582 631.237 363.103 630.271C363.624 629.29 364.345 628.531 365.265 627.994C366.2 627.457 367.266 627.189 368.462 627.189C370.011 627.189 371.283 627.565 372.28 628.316C373.292 629.067 373.959 630.11 374.281 631.444H372.027C371.812 630.677 371.391 630.072 370.762 629.627C370.149 629.182 369.382 628.96 368.462 628.96C367.266 628.96 366.3 629.374 365.564 630.202C364.828 631.015 364.46 632.172 364.46 633.675C364.46 635.193 364.828 636.366 365.564 637.194C366.3 638.022 367.266 638.436 368.462 638.436C369.382 638.436 370.149 638.221 370.762 637.792C371.375 637.363 371.797 636.749 372.027 635.952H374.281C373.944 637.24 373.269 638.275 372.257 639.057C371.245 639.824 369.98 640.207 368.462 640.207C367.266 640.207 366.2 639.939 365.265 639.402C364.345 638.865 363.624 638.106 363.103 637.125C362.582 636.144 362.321 634.994 362.321 633.675ZM376.292 633.652C376.292 632.364 376.552 631.237 377.074 630.271C377.595 629.29 378.308 628.531 379.213 627.994C380.133 627.457 381.152 627.189 382.272 627.189C383.376 627.189 384.334 627.427 385.147 627.902C385.959 628.377 386.565 628.975 386.964 629.696V627.396H389.08V640H386.964V637.654C386.55 638.39 385.929 639.003 385.101 639.494C384.288 639.969 383.337 640.207 382.249 640.207C381.129 640.207 380.117 639.931 379.213 639.379C378.308 638.827 377.595 638.053 377.074 637.056C376.552 636.059 376.292 634.925 376.292 633.652ZM386.964 633.675C386.964 632.724 386.772 631.896 386.389 631.191C386.005 630.486 385.484 629.949 384.825 629.581C384.181 629.198 383.468 629.006 382.686 629.006C381.904 629.006 381.191 629.19 380.547 629.558C379.903 629.926 379.389 630.463 379.006 631.168C378.622 631.873 378.431 632.701 378.431 633.652C378.431 634.618 378.622 635.461 379.006 636.182C379.389 636.887 379.903 637.432 380.547 637.815C381.191 638.183 381.904 638.367 382.686 638.367C383.468 638.367 384.181 638.183 384.825 637.815C385.484 637.432 386.005 636.887 386.389 636.182C386.772 635.461 386.964 634.626 386.964 633.675ZM398.758 627.166C400.291 627.166 401.533 627.634 402.484 628.569C403.434 629.489 403.91 630.823 403.91 632.571V640H401.84V632.87C401.84 631.613 401.525 630.654 400.897 629.995C400.268 629.32 399.409 628.983 398.321 628.983C397.217 628.983 396.335 629.328 395.676 630.018C395.032 630.708 394.71 631.712 394.71 633.031V640H392.617V627.396H394.71V629.19C395.124 628.546 395.683 628.048 396.389 627.695C397.109 627.342 397.899 627.166 398.758 627.166ZM418.589 629.121H415.944V640H413.851V629.121H412.218V627.396H413.851V626.499C413.851 625.088 414.212 624.061 414.932 623.417C415.668 622.758 416.841 622.428 418.451 622.428V624.176C417.531 624.176 416.88 624.36 416.496 624.728C416.128 625.081 415.944 625.671 415.944 626.499V627.396H418.589V629.121ZM422.111 625.349C421.712 625.349 421.375 625.211 421.099 624.935C420.823 624.659 420.685 624.322 420.685 623.923C420.685 623.524 420.823 623.187 421.099 622.911C421.375 622.635 421.712 622.497 422.111 622.497C422.494 622.497 422.816 622.635 423.077 622.911C423.353 623.187 423.491 623.524 423.491 623.923C423.491 624.322 423.353 624.659 423.077 624.935C422.816 625.211 422.494 625.349 422.111 625.349ZM423.123 627.396V640H421.03V627.396H423.123ZM432.831 627.166C434.364 627.166 435.606 627.634 436.557 628.569C437.508 629.489 437.983 630.823 437.983 632.571V640H435.913V632.87C435.913 631.613 435.599 630.654 434.97 629.995C434.341 629.32 433.483 628.983 432.394 628.983C431.29 628.983 430.408 629.328 429.749 630.018C429.105 630.708 428.783 631.712 428.783 633.031V640H426.69V627.396H428.783V629.19C429.197 628.546 429.757 628.048 430.462 627.695C431.183 627.342 431.972 627.166 432.831 627.166ZM440.62 633.652C440.62 632.364 440.881 631.237 441.402 630.271C441.923 629.29 442.636 628.531 443.541 627.994C444.461 627.457 445.488 627.189 446.623 627.189C447.604 627.189 448.517 627.419 449.36 627.879C450.203 628.324 450.847 628.914 451.292 629.65V622.98H453.408V640H451.292V637.631C450.878 638.382 450.265 639.003 449.452 639.494C448.639 639.969 447.689 640.207 446.6 640.207C445.481 640.207 444.461 639.931 443.541 639.379C442.636 638.827 441.923 638.053 441.402 637.056C440.881 636.059 440.62 634.925 440.62 633.652ZM451.292 633.675C451.292 632.724 451.1 631.896 450.717 631.191C450.334 630.486 449.812 629.949 449.153 629.581C448.509 629.198 447.796 629.006 447.014 629.006C446.232 629.006 445.519 629.19 444.875 629.558C444.231 629.926 443.717 630.463 443.334 631.168C442.951 631.873 442.759 632.701 442.759 633.652C442.759 634.618 442.951 635.461 443.334 636.182C443.717 636.887 444.231 637.432 444.875 637.815C445.519 638.183 446.232 638.367 447.014 638.367C447.796 638.367 448.509 638.183 449.153 637.815C449.812 637.432 450.334 636.887 450.717 636.182C451.1 635.461 451.292 634.626 451.292 633.675ZM479.867 627.396L475.934 640H473.772L470.736 629.995L467.7 640H465.538L461.582 627.396H463.721L466.619 637.976L469.747 627.396H471.886L474.945 637.999L477.797 627.396H479.867ZM488.2 627.166C489.151 627.166 490.009 627.373 490.776 627.787C491.543 628.186 492.141 628.791 492.57 629.604C493.015 630.417 493.237 631.406 493.237 632.571V640H491.167V632.87C491.167 631.613 490.853 630.654 490.224 629.995C489.595 629.32 488.737 628.983 487.648 628.983C486.544 628.983 485.662 629.328 485.003 630.018C484.359 630.708 484.037 631.712 484.037 633.031V640H481.944V622.98H484.037V629.19C484.451 628.546 485.018 628.048 485.739 627.695C486.475 627.342 487.295 627.166 488.2 627.166ZM495.874 633.652C495.874 632.364 496.134 631.237 496.656 630.271C497.177 629.29 497.89 628.531 498.795 627.994C499.715 627.457 500.734 627.189 501.854 627.189C502.958 627.189 503.916 627.427 504.729 627.902C505.541 628.377 506.147 628.975 506.546 629.696V627.396H508.662V640H506.546V637.654C506.132 638.39 505.511 639.003 504.683 639.494C503.87 639.969 502.919 640.207 501.831 640.207C500.711 640.207 499.699 639.931 498.795 639.379C497.89 638.827 497.177 638.053 496.656 637.056C496.134 636.059 495.874 634.925 495.874 633.652ZM506.546 633.675C506.546 632.724 506.354 631.896 505.971 631.191C505.587 630.486 505.066 629.949 504.407 629.581C503.763 629.198 503.05 629.006 502.268 629.006C501.486 629.006 500.773 629.19 500.129 629.558C499.485 629.926 498.971 630.463 498.588 631.168C498.204 631.873 498.013 632.701 498.013 633.652C498.013 634.618 498.204 635.461 498.588 636.182C498.971 636.887 499.485 637.432 500.129 637.815C500.773 638.183 501.486 638.367 502.268 638.367C503.05 638.367 503.763 638.183 504.407 637.815C505.066 637.432 505.587 636.887 505.971 636.182C506.354 635.461 506.546 634.626 506.546 633.675ZM514.752 629.121V636.55C514.752 637.163 514.882 637.6 515.143 637.861C515.403 638.106 515.856 638.229 516.5 638.229H518.041V640H516.155C514.989 640 514.115 639.732 513.533 639.195C512.95 638.658 512.659 637.777 512.659 636.55V629.121H511.026V627.396H512.659V624.222H514.752V627.396H518.041V629.121H514.752ZM531.838 629.121H529.193V640H527.1V629.121H525.467V627.396H527.1V626.499C527.1 625.088 527.46 624.061 528.181 623.417C528.917 622.758 530.09 622.428 531.699 622.428V624.176C530.78 624.176 530.128 624.36 529.745 624.728C529.377 625.081 529.193 625.671 529.193 626.499V627.396H531.838V629.121ZM535.359 625.349C534.96 625.349 534.623 625.211 534.347 624.935C534.071 624.659 533.933 624.322 533.933 623.923C533.933 623.524 534.071 623.187 534.347 622.911C534.623 622.635 534.96 622.497 535.359 622.497C535.742 622.497 536.064 622.635 536.325 622.911C536.601 623.187 536.739 623.524 536.739 623.923C536.739 624.322 536.601 624.659 536.325 624.935C536.064 625.211 535.742 625.349 535.359 625.349ZM536.371 627.396V640H534.278V627.396H536.371ZM542.491 629.121V636.55C542.491 637.163 542.621 637.6 542.882 637.861C543.143 638.106 543.595 638.229 544.239 638.229H545.78V640H543.894C542.729 640 541.855 639.732 541.272 639.195C540.689 638.658 540.398 637.777 540.398 636.55V629.121H538.765V627.396H540.398V624.222H542.491V627.396H545.78V629.121H542.491ZM552.778 640.207C551.812 640.207 550.946 640.046 550.179 639.724C549.412 639.387 548.807 638.927 548.362 638.344C547.917 637.746 547.672 637.064 547.626 636.297H549.788C549.849 636.926 550.141 637.439 550.662 637.838C551.199 638.237 551.896 638.436 552.755 638.436C553.552 638.436 554.181 638.26 554.641 637.907C555.101 637.554 555.331 637.11 555.331 636.573C555.331 636.021 555.086 635.615 554.595 635.354C554.104 635.078 553.345 634.81 552.318 634.549C551.383 634.304 550.616 634.058 550.018 633.813C549.435 633.552 548.929 633.177 548.5 632.686C548.086 632.18 547.879 631.521 547.879 630.708C547.879 630.064 548.071 629.474 548.454 628.937C548.837 628.4 549.382 627.979 550.087 627.672C550.792 627.35 551.597 627.189 552.502 627.189C553.897 627.189 555.024 627.542 555.883 628.247C556.742 628.952 557.202 629.918 557.263 631.145H555.17C555.124 630.486 554.856 629.957 554.365 629.558C553.89 629.159 553.246 628.96 552.433 628.96C551.682 628.96 551.084 629.121 550.639 629.443C550.194 629.765 549.972 630.187 549.972 630.708C549.972 631.122 550.102 631.467 550.363 631.743C550.639 632.004 550.976 632.218 551.375 632.387C551.789 632.54 552.356 632.717 553.077 632.916C553.982 633.161 554.718 633.407 555.285 633.652C555.852 633.882 556.335 634.235 556.734 634.71C557.148 635.185 557.363 635.806 557.378 636.573C557.378 637.263 557.186 637.884 556.803 638.436C556.42 638.988 555.875 639.425 555.17 639.747C554.48 640.054 553.683 640.207 552.778 640.207ZM577.32 627.396L569.73 645.934H567.568L570.052 639.862L564.969 627.396H567.292L571.248 637.608L575.158 627.396H577.32ZM584.921 640.207C583.741 640.207 582.667 639.939 581.701 639.402C580.751 638.865 579.999 638.106 579.447 637.125C578.911 636.128 578.642 634.978 578.642 633.675C578.642 632.387 578.918 631.252 579.47 630.271C580.038 629.274 580.804 628.515 581.77 627.994C582.736 627.457 583.817 627.189 585.013 627.189C586.209 627.189 587.29 627.457 588.256 627.994C589.222 628.515 589.981 629.267 590.533 630.248C591.101 631.229 591.384 632.372 591.384 633.675C591.384 634.978 591.093 636.128 590.51 637.125C589.943 638.106 589.169 638.865 588.187 639.402C587.206 639.939 586.117 640.207 584.921 640.207ZM584.921 638.367C585.673 638.367 586.378 638.191 587.037 637.838C587.697 637.485 588.226 636.956 588.624 636.251C589.038 635.546 589.245 634.687 589.245 633.675C589.245 632.663 589.046 631.804 588.647 631.099C588.249 630.394 587.727 629.872 587.083 629.535C586.439 629.182 585.742 629.006 584.99 629.006C584.224 629.006 583.518 629.182 582.874 629.535C582.246 629.872 581.74 630.394 581.356 631.099C580.973 631.804 580.781 632.663 580.781 633.675C580.781 634.702 580.965 635.569 581.333 636.274C581.717 636.979 582.223 637.508 582.851 637.861C583.48 638.198 584.17 638.367 584.921 638.367ZM605.314 627.396V640H603.221V638.137C602.823 638.781 602.263 639.287 601.542 639.655C600.837 640.008 600.055 640.184 599.196 640.184C598.215 640.184 597.333 639.985 596.551 639.586C595.769 639.172 595.148 638.559 594.688 637.746C594.244 636.933 594.021 635.944 594.021 634.779V627.396H596.091V634.503C596.091 635.745 596.406 636.703 597.034 637.378C597.663 638.037 598.522 638.367 599.61 638.367C600.73 638.367 601.611 638.022 602.255 637.332C602.899 636.642 603.221 635.638 603.221 634.319V627.396H605.314ZM610.941 629.443C611.309 628.722 611.83 628.163 612.505 627.764C613.195 627.365 614.031 627.166 615.012 627.166V629.328H614.46C612.114 629.328 610.941 630.601 610.941 633.146V640H608.848V627.396H610.941V629.443ZM628.022 640.207C627.056 640.207 626.19 640.046 625.423 639.724C624.656 639.387 624.051 638.927 623.606 638.344C623.161 637.746 622.916 637.064 622.87 636.297H625.032C625.093 636.926 625.385 637.439 625.906 637.838C626.443 638.237 627.14 638.436 627.999 638.436C628.796 638.436 629.425 638.26 629.885 637.907C630.345 637.554 630.575 637.11 630.575 636.573C630.575 636.021 630.33 635.615 629.839 635.354C629.348 635.078 628.589 634.81 627.562 634.549C626.627 634.304 625.86 634.058 625.262 633.813C624.679 633.552 624.173 633.177 623.744 632.686C623.33 632.18 623.123 631.521 623.123 630.708C623.123 630.064 623.315 629.474 623.698 628.937C624.081 628.4 624.626 627.979 625.331 627.672C626.036 627.35 626.841 627.189 627.746 627.189C629.141 627.189 630.268 627.542 631.127 628.247C631.986 628.952 632.446 629.918 632.507 631.145H630.414C630.368 630.486 630.1 629.957 629.609 629.558C629.134 629.159 628.49 628.96 627.677 628.96C626.926 628.96 626.328 629.121 625.883 629.443C625.438 629.765 625.216 630.187 625.216 630.708C625.216 631.122 625.346 631.467 625.607 631.743C625.883 632.004 626.22 632.218 626.619 632.387C627.033 632.54 627.6 632.717 628.321 632.916C629.226 633.161 629.962 633.407 630.529 633.652C631.096 633.882 631.579 634.235 631.978 634.71C632.392 635.185 632.607 635.806 632.622 636.573C632.622 637.263 632.43 637.884 632.047 638.436C631.664 638.988 631.119 639.425 630.414 639.747C629.724 640.054 628.927 640.207 628.022 640.207ZM642.615 640L637.67 634.434V640H635.577V622.98H637.67V632.985L642.523 627.396H645.444L639.51 633.675L645.467 640H642.615ZM648.495 625.349C648.096 625.349 647.759 625.211 647.483 624.935C647.207 624.659 647.069 624.322 647.069 623.923C647.069 623.524 647.207 623.187 647.483 622.911C647.759 622.635 648.096 622.497 648.495 622.497C648.878 622.497 649.2 622.635 649.461 622.911C649.737 623.187 649.875 623.524 649.875 623.923C649.875 624.322 649.737 624.659 649.461 624.935C649.2 625.211 648.878 625.349 648.495 625.349ZM649.507 627.396V640H647.414V627.396H649.507ZM655.167 622.98V640H653.074V622.98H655.167ZM660.827 622.98V640H658.734V622.98H660.827ZM669.744 633.652C669.744 632.364 670.005 631.237 670.526 630.271C671.047 629.29 671.76 628.531 672.665 627.994C673.585 627.457 674.605 627.189 675.724 627.189C676.828 627.189 677.786 627.427 678.599 627.902C679.412 628.377 680.017 628.975 680.416 629.696V627.396H682.532V640H680.416V637.654C680.002 638.39 679.381 639.003 678.553 639.494C677.74 639.969 676.79 640.207 675.701 640.207C674.582 640.207 673.57 639.931 672.665 639.379C671.76 638.827 671.047 638.053 670.526 637.056C670.005 636.059 669.744 634.925 669.744 633.652ZM680.416 633.675C680.416 632.724 680.224 631.896 679.841 631.191C679.458 630.486 678.936 629.949 678.277 629.581C677.633 629.198 676.92 629.006 676.138 629.006C675.356 629.006 674.643 629.19 673.999 629.558C673.355 629.926 672.841 630.463 672.458 631.168C672.075 631.873 671.883 632.701 671.883 633.652C671.883 634.618 672.075 635.461 672.458 636.182C672.841 636.887 673.355 637.432 673.999 637.815C674.643 638.183 675.356 638.367 676.138 638.367C676.92 638.367 677.633 638.183 678.277 637.815C678.936 637.432 679.458 636.887 679.841 636.182C680.224 635.461 680.416 634.626 680.416 633.675ZM692.21 627.166C693.743 627.166 694.985 627.634 695.936 628.569C696.887 629.489 697.362 630.823 697.362 632.571V640H695.292V632.87C695.292 631.613 694.978 630.654 694.349 629.995C693.72 629.32 692.862 628.983 691.773 628.983C690.669 628.983 689.787 629.328 689.128 630.018C688.484 630.708 688.162 631.712 688.162 633.031V640H686.069V627.396H688.162V629.19C688.576 628.546 689.136 628.048 689.841 627.695C690.562 627.342 691.351 627.166 692.21 627.166ZM699.999 633.652C699.999 632.364 700.259 631.237 700.781 630.271C701.302 629.29 702.015 628.531 702.92 627.994C703.84 627.457 704.867 627.189 706.002 627.189C706.983 627.189 707.895 627.419 708.739 627.879C709.582 628.324 710.226 628.914 710.671 629.65V622.98H712.787V640H710.671V637.631C710.257 638.382 709.643 639.003 708.831 639.494C708.018 639.969 707.067 640.207 705.979 640.207C704.859 640.207 703.84 639.931 702.92 639.379C702.015 638.827 701.302 638.053 700.781 637.056C700.259 636.059 699.999 634.925 699.999 633.652ZM710.671 633.675C710.671 632.724 710.479 631.896 710.096 631.191C709.712 630.486 709.191 629.949 708.532 629.581C707.888 629.198 707.175 629.006 706.393 629.006C705.611 629.006 704.898 629.19 704.254 629.558C703.61 629.926 703.096 630.463 702.713 631.168C702.329 631.873 702.138 632.701 702.138 633.652C702.138 634.618 702.329 635.461 702.713 636.182C703.096 636.887 703.61 637.432 704.254 637.815C704.898 638.183 705.611 638.367 706.393 638.367C707.175 638.367 707.888 638.183 708.532 637.815C709.191 637.432 709.712 636.887 710.096 636.182C710.479 635.461 710.671 634.626 710.671 633.675ZM240.324 666.121V673.55C240.324 674.163 240.454 674.6 240.715 674.861C240.976 675.106 241.428 675.229 242.072 675.229H243.613V677H241.727C240.562 677 239.688 676.732 239.105 676.195C238.522 675.658 238.231 674.777 238.231 673.55V666.121H236.598V664.396H238.231V661.222H240.324V664.396H243.613V666.121H240.324ZM245.367 670.652C245.367 669.364 245.628 668.237 246.149 667.271C246.67 666.29 247.383 665.531 248.288 664.994C249.208 664.457 250.228 664.189 251.347 664.189C252.451 664.189 253.409 664.427 254.222 664.902C255.035 665.377 255.64 665.975 256.039 666.696V664.396H258.155V677H256.039V674.654C255.625 675.39 255.004 676.003 254.176 676.494C253.363 676.969 252.413 677.207 251.324 677.207C250.205 677.207 249.193 676.931 248.288 676.379C247.383 675.827 246.67 675.053 246.149 674.056C245.628 673.059 245.367 671.925 245.367 670.652ZM256.039 670.675C256.039 669.724 255.847 668.896 255.464 668.191C255.081 667.486 254.559 666.949 253.9 666.581C253.256 666.198 252.543 666.006 251.761 666.006C250.979 666.006 250.266 666.19 249.622 666.558C248.978 666.926 248.464 667.463 248.081 668.168C247.698 668.873 247.506 669.701 247.506 670.652C247.506 671.618 247.698 672.461 248.081 673.182C248.464 673.887 248.978 674.432 249.622 674.815C250.266 675.183 250.979 675.367 251.761 675.367C252.543 675.367 253.256 675.183 253.9 674.815C254.559 674.432 255.081 673.887 255.464 673.182C255.847 672.461 256.039 671.626 256.039 670.675ZM266.154 677.207C265.188 677.207 264.322 677.046 263.555 676.724C262.788 676.387 262.183 675.927 261.738 675.344C261.293 674.746 261.048 674.064 261.002 673.297H263.164C263.225 673.926 263.517 674.439 264.038 674.838C264.575 675.237 265.272 675.436 266.131 675.436C266.928 675.436 267.557 675.26 268.017 674.907C268.477 674.554 268.707 674.11 268.707 673.573C268.707 673.021 268.462 672.615 267.971 672.354C267.48 672.078 266.721 671.81 265.694 671.549C264.759 671.304 263.992 671.058 263.394 670.813C262.811 670.552 262.305 670.177 261.876 669.686C261.462 669.18 261.255 668.521 261.255 667.708C261.255 667.064 261.447 666.474 261.83 665.937C262.213 665.4 262.758 664.979 263.463 664.672C264.168 664.35 264.973 664.189 265.878 664.189C267.273 664.189 268.4 664.542 269.259 665.247C270.118 665.952 270.578 666.918 270.639 668.145H268.546C268.5 667.486 268.232 666.957 267.741 666.558C267.266 666.159 266.622 665.96 265.809 665.96C265.058 665.96 264.46 666.121 264.015 666.443C263.57 666.765 263.348 667.187 263.348 667.708C263.348 668.122 263.478 668.467 263.739 668.743C264.015 669.004 264.352 669.218 264.751 669.387C265.165 669.54 265.732 669.717 266.453 669.916C267.358 670.161 268.094 670.407 268.661 670.652C269.228 670.882 269.711 671.235 270.11 671.71C270.524 672.185 270.739 672.806 270.754 673.573C270.754 674.263 270.562 674.884 270.179 675.436C269.796 675.988 269.251 676.425 268.546 676.747C267.856 677.054 267.059 677.207 266.154 677.207ZM276.262 666.121V673.55C276.262 674.163 276.392 674.6 276.653 674.861C276.913 675.106 277.366 675.229 278.009 675.229H279.551V677H277.665C276.499 677 275.625 676.732 275.043 676.195C274.46 675.658 274.169 674.777 274.169 673.55V666.121H272.536V664.396H274.169V661.222H276.262V664.396H279.551V666.121H276.262ZM293.586 670.215C293.586 670.614 293.563 671.035 293.517 671.48H283.443C283.52 672.722 283.942 673.696 284.708 674.401C285.49 675.091 286.433 675.436 287.537 675.436C288.442 675.436 289.193 675.229 289.791 674.815C290.405 674.386 290.834 673.818 291.079 673.113H293.333C292.996 674.324 292.321 675.313 291.309 676.08C290.297 676.831 289.04 677.207 287.537 677.207C286.341 677.207 285.268 676.939 284.317 676.402C283.382 675.865 282.646 675.106 282.109 674.125C281.573 673.128 281.304 671.978 281.304 670.675C281.304 669.372 281.565 668.229 282.086 667.248C282.608 666.267 283.336 665.515 284.271 664.994C285.222 664.457 286.311 664.189 287.537 664.189C288.733 664.189 289.791 664.45 290.711 664.971C291.631 665.492 292.337 666.213 292.827 667.133C293.333 668.038 293.586 669.065 293.586 670.215ZM291.424 669.778C291.424 668.981 291.248 668.298 290.895 667.731C290.543 667.148 290.06 666.711 289.446 666.42C288.848 666.113 288.181 665.96 287.445 665.96C286.387 665.96 285.483 666.297 284.731 666.972C283.995 667.647 283.574 668.582 283.466 669.778H291.424ZM304.574 666.719C304.988 665.998 305.601 665.4 306.414 664.925C307.242 664.434 308.2 664.189 309.289 664.189C310.408 664.189 311.42 664.457 312.325 664.994C313.245 665.531 313.966 666.29 314.487 667.271C315.008 668.237 315.269 669.364 315.269 670.652C315.269 671.925 315.008 673.059 314.487 674.056C313.966 675.053 313.245 675.827 312.325 676.379C311.42 676.931 310.408 677.207 309.289 677.207C308.216 677.207 307.265 676.969 306.437 676.494C305.624 676.003 305.003 675.398 304.574 674.677V682.98H302.481V664.396H304.574V666.719ZM313.13 670.652C313.13 669.701 312.938 668.873 312.555 668.168C312.172 667.463 311.65 666.926 310.991 666.558C310.347 666.19 309.634 666.006 308.852 666.006C308.085 666.006 307.372 666.198 306.713 666.581C306.069 666.949 305.548 667.493 305.149 668.214C304.766 668.919 304.574 669.74 304.574 670.675C304.574 671.626 304.766 672.461 305.149 673.182C305.548 673.887 306.069 674.432 306.713 674.815C307.372 675.183 308.085 675.367 308.852 675.367C309.634 675.367 310.347 675.183 310.991 674.815C311.65 674.432 312.172 673.887 312.555 673.182C312.938 672.461 313.13 671.618 313.13 670.652ZM329.524 670.215C329.524 670.614 329.501 671.035 329.455 671.48H319.381C319.458 672.722 319.879 673.696 320.646 674.401C321.428 675.091 322.371 675.436 323.475 675.436C324.38 675.436 325.131 675.229 325.729 674.815C326.342 674.386 326.772 673.818 327.017 673.113H329.271C328.934 674.324 328.259 675.313 327.247 676.08C326.235 676.831 324.978 677.207 323.475 677.207C322.279 677.207 321.206 676.939 320.255 676.402C319.32 675.865 318.584 675.106 318.047 674.125C317.51 673.128 317.242 671.978 317.242 670.675C317.242 669.372 317.503 668.229 318.024 667.248C318.545 666.267 319.274 665.515 320.209 664.994C321.16 664.457 322.248 664.189 323.475 664.189C324.671 664.189 325.729 664.45 326.649 664.971C327.569 665.492 328.274 666.213 328.765 667.133C329.271 668.038 329.524 669.065 329.524 670.215ZM327.362 669.778C327.362 668.981 327.186 668.298 326.833 667.731C326.48 667.148 325.997 666.711 325.384 666.42C324.786 666.113 324.119 665.96 323.383 665.96C322.325 665.96 321.42 666.297 320.669 666.972C319.933 667.647 319.511 668.582 319.404 669.778H327.362ZM334.38 666.443C334.748 665.722 335.269 665.163 335.944 664.764C336.634 664.365 337.469 664.166 338.451 664.166V666.328H337.899C335.553 666.328 334.38 667.601 334.38 670.146V677H332.287V664.396H334.38V666.443ZM345.996 666.121H343.351V677H341.258V666.121H339.625V664.396H341.258V663.499C341.258 662.088 341.618 661.061 342.339 660.417C343.075 659.758 344.248 659.428 345.858 659.428V661.176C344.938 661.176 344.286 661.36 343.903 661.728C343.535 662.081 343.351 662.671 343.351 663.499V664.396H345.996V666.121ZM359.936 670.215C359.936 670.614 359.913 671.035 359.867 671.48H349.793C349.87 672.722 350.291 673.696 351.058 674.401C351.84 675.091 352.783 675.436 353.887 675.436C354.792 675.436 355.543 675.229 356.141 674.815C356.754 674.386 357.184 673.818 357.429 673.113H359.683C359.346 674.324 358.671 675.313 357.659 676.08C356.647 676.831 355.39 677.207 353.887 677.207C352.691 677.207 351.618 676.939 350.667 676.402C349.732 675.865 348.996 675.106 348.459 674.125C347.922 673.128 347.654 671.978 347.654 670.675C347.654 669.372 347.915 668.229 348.436 667.248C348.957 666.267 349.686 665.515 350.621 664.994C351.572 664.457 352.66 664.189 353.887 664.189C355.083 664.189 356.141 664.45 357.061 664.971C357.981 665.492 358.686 666.213 359.177 667.133C359.683 668.038 359.936 669.065 359.936 670.215ZM357.774 669.778C357.774 668.981 357.598 668.298 357.245 667.731C356.892 667.148 356.409 666.711 355.796 666.42C355.198 666.113 354.531 665.96 353.795 665.96C352.737 665.96 351.832 666.297 351.081 666.972C350.345 667.647 349.923 668.582 349.816 669.778H357.774ZM361.917 670.675C361.917 669.372 362.177 668.237 362.699 667.271C363.22 666.29 363.941 665.531 364.861 664.994C365.796 664.457 366.862 664.189 368.058 664.189C369.606 664.189 370.879 664.565 371.876 665.316C372.888 666.067 373.555 667.11 373.877 668.444H371.623C371.408 667.677 370.986 667.072 370.358 666.627C369.744 666.182 368.978 665.96 368.058 665.96C366.862 665.96 365.896 666.374 365.16 667.202C364.424 668.015 364.056 669.172 364.056 670.675C364.056 672.193 364.424 673.366 365.16 674.194C365.896 675.022 366.862 675.436 368.058 675.436C368.978 675.436 369.744 675.221 370.358 674.792C370.971 674.363 371.393 673.749 371.623 672.952H373.877C373.539 674.24 372.865 675.275 371.853 676.057C370.841 676.824 369.576 677.207 368.058 677.207C366.862 677.207 365.796 676.939 364.861 676.402C363.941 675.865 363.22 675.106 362.699 674.125C362.177 673.144 361.917 671.994 361.917 670.675ZM379.222 666.121V673.55C379.222 674.163 379.353 674.6 379.613 674.861C379.874 675.106 380.326 675.229 380.97 675.229H382.511V677H380.625C379.46 677 378.586 676.732 378.003 676.195C377.421 675.658 377.129 674.777 377.129 673.55V666.121H375.496V664.396H377.129V661.222H379.222V664.396H382.511V666.121H379.222ZM387.14 659.98V677H385.047V659.98H387.14ZM401.564 664.396L393.974 682.934H391.812L394.296 676.862L389.213 664.396H391.536L395.492 674.608L399.402 664.396H401.564ZM404.334 677.138C403.936 677.138 403.598 677 403.322 676.724C403.046 676.448 402.908 676.111 402.908 675.712C402.908 675.313 403.046 674.976 403.322 674.7C403.598 674.424 403.936 674.286 404.334 674.286C404.718 674.286 405.04 674.424 405.3 674.7C405.576 674.976 405.714 675.313 405.714 675.712C405.714 676.111 405.576 676.448 405.3 676.724C405.04 677 404.718 677.138 404.334 677.138Z" fill="white"/>
<defs>
<linearGradient id="paint0_linear" x1="332.414" y1="240.493" x2="684.012" y2="727.973" gradientUnits="userSpaceOnUse">
<stop stop-color="#FF0060"/>
<stop offset="1" stop-color="#FF69A2"/>
</linearGradient>
</defs>
</svg>
