<svg width="1017" height="968" viewBox="0 0 1017 968" fill="none" xmlns="http://www.w3.org/2000/svg">
<path d="M856.997 603.11C822.376 628.318 785.834 650.772 747.731 670.252C687.308 700.667 624.8 726.602 560.739 747.835C506.183 766.474 451.057 782.9 394.096 791.257C357.212 797.396 319.772 797.715 283.188 792.204C237.455 784.353 201.002 763.043 176.555 724.089C146.306 675.814 129.942 619.987 129.157 562.382C128.394 530.497 127.834 498.641 134.558 466.898C144.39 417.457 169.481 371.75 206.34 336.137C264.589 279.716 333.588 248.733 413.431 241.14C486.458 234.116 559.772 237.289 631.2 250.566C669.421 257.651 707.814 263.969 745.388 273.679C798.737 287.033 848.834 309.993 893.211 341.428C906.332 349.859 918.699 359.357 930.187 369.829C940.682 380.471 948.257 393.605 952.237 408.061C960.375 436.668 963.174 465.509 951.524 494.621C943.324 514.959 931.627 533.84 916.964 550.408C899.136 570.247 878.998 587.945 856.997 603.11Z" fill="url(#paint0_linear)" fill-opacity="0.6"/>
<path d="M267.553 380.256V386.81H256.765V420.74H248.645V386.81H237.857V380.256H267.553ZM291.074 388.144C293.51 388.144 295.675 388.686 297.57 389.768C299.464 390.812 300.934 392.378 301.978 394.466C303.06 396.516 303.602 398.99 303.602 401.89V420.74H295.482V402.992C295.482 400.44 294.844 398.488 293.568 397.134C292.292 395.742 290.552 395.046 288.348 395.046C286.105 395.046 284.326 395.742 283.012 397.134C281.736 398.488 281.098 400.44 281.098 402.992V420.74H272.978V377.82H281.098V392.61C282.142 391.218 283.534 390.136 285.274 389.362C287.014 388.55 288.947 388.144 291.074 388.144ZM340.693 403.978C340.693 405.138 340.616 406.182 340.461 407.11H316.971C317.165 409.43 317.977 411.248 319.407 412.562C320.838 413.877 322.597 414.534 324.685 414.534C327.701 414.534 329.847 413.239 331.123 410.648H339.881C338.953 413.742 337.175 416.294 334.545 418.304C331.916 420.276 328.687 421.262 324.859 421.262C321.766 421.262 318.982 420.586 316.507 419.232C314.071 417.84 312.157 415.888 310.765 413.374C309.412 410.861 308.735 407.961 308.735 404.674C308.735 401.349 309.412 398.43 310.765 395.916C312.119 393.403 314.013 391.47 316.449 390.116C318.885 388.763 321.689 388.086 324.859 388.086C327.914 388.086 330.64 388.744 333.037 390.058C335.473 391.373 337.349 393.248 338.663 395.684C340.017 398.082 340.693 400.846 340.693 403.978ZM332.283 401.658C332.245 399.57 331.491 397.908 330.021 396.67C328.552 395.394 326.754 394.756 324.627 394.756C322.617 394.756 320.915 395.375 319.523 396.612C318.17 397.811 317.339 399.493 317.029 401.658H332.283ZM357.468 400.44C357.468 396.458 358.358 392.9 360.136 389.768C361.954 386.598 364.409 384.142 367.502 382.402C370.634 380.624 374.134 379.734 378 379.734C382.524 379.734 386.488 380.894 389.89 383.214C393.293 385.534 395.671 388.744 397.024 392.842H387.686C386.758 390.909 385.444 389.459 383.742 388.492C382.08 387.526 380.146 387.042 377.942 387.042C375.584 387.042 373.476 387.603 371.62 388.724C369.803 389.807 368.372 391.354 367.328 393.364C366.323 395.375 365.82 397.734 365.82 400.44C365.82 403.108 366.323 405.467 367.328 407.516C368.372 409.527 369.803 411.093 371.62 412.214C373.476 413.297 375.584 413.838 377.942 413.838C380.146 413.838 382.08 413.355 383.742 412.388C385.444 411.383 386.758 409.914 387.686 407.98H397.024C395.671 412.118 393.293 415.346 389.89 417.666C386.526 419.948 382.563 421.088 378 421.088C374.134 421.088 370.634 420.218 367.502 418.478C364.409 416.7 361.954 414.244 360.136 411.112C358.358 407.98 357.468 404.423 357.468 400.44ZM417.728 421.262C414.635 421.262 411.851 420.586 409.376 419.232C406.901 417.84 404.949 415.888 403.518 413.374C402.126 410.861 401.43 407.961 401.43 404.674C401.43 401.388 402.145 398.488 403.576 395.974C405.045 393.461 407.037 391.528 409.55 390.174C412.063 388.782 414.867 388.086 417.96 388.086C421.053 388.086 423.857 388.782 426.37 390.174C428.883 391.528 430.855 393.461 432.286 395.974C433.755 398.488 434.49 401.388 434.49 404.674C434.49 407.961 433.736 410.861 432.228 413.374C430.759 415.888 428.748 417.84 426.196 419.232C423.683 420.586 420.86 421.262 417.728 421.262ZM417.728 414.186C419.197 414.186 420.57 413.838 421.846 413.142C423.161 412.408 424.205 411.325 424.978 409.894C425.751 408.464 426.138 406.724 426.138 404.674C426.138 401.62 425.326 399.28 423.702 397.656C422.117 395.994 420.164 395.162 417.844 395.162C415.524 395.162 413.571 395.994 411.986 397.656C410.439 399.28 409.666 401.62 409.666 404.674C409.666 407.729 410.42 410.088 411.928 411.75C413.475 413.374 415.408 414.186 417.728 414.186ZM479.85 388.144C483.794 388.144 486.965 389.362 489.362 391.798C491.798 394.196 493.016 397.56 493.016 401.89V420.74H484.896V402.992C484.896 400.479 484.258 398.565 482.982 397.25C481.706 395.897 479.966 395.22 477.762 395.22C475.558 395.22 473.799 395.897 472.484 397.25C471.208 398.565 470.57 400.479 470.57 402.992V420.74H462.45V402.992C462.45 400.479 461.812 398.565 460.536 397.25C459.26 395.897 457.52 395.22 455.316 395.22C453.074 395.22 451.295 395.897 449.98 397.25C448.704 398.565 448.066 400.479 448.066 402.992V420.74H439.946V388.608H448.066V392.494C449.11 391.141 450.444 390.078 452.068 389.304C453.731 388.531 455.548 388.144 457.52 388.144C460.034 388.144 462.276 388.686 464.248 389.768C466.22 390.812 467.748 392.32 468.83 394.292C469.874 392.436 471.382 390.948 473.354 389.826C475.365 388.705 477.53 388.144 479.85 388.144ZM540.126 388.144C544.07 388.144 547.24 389.362 549.638 391.798C552.074 394.196 553.292 397.56 553.292 401.89V420.74H545.172V402.992C545.172 400.479 544.534 398.565 543.258 397.25C541.982 395.897 540.242 395.22 538.038 395.22C535.834 395.22 534.074 395.897 532.76 397.25C531.484 398.565 530.846 400.479 530.846 402.992V420.74H522.726V402.992C522.726 400.479 522.088 398.565 520.812 397.25C519.536 395.897 517.796 395.22 515.592 395.22C513.349 395.22 511.57 395.897 510.256 397.25C508.98 398.565 508.342 400.479 508.342 402.992V420.74H500.222V388.608H508.342V392.494C509.386 391.141 510.72 390.078 512.344 389.304C514.006 388.531 515.824 388.144 517.796 388.144C520.309 388.144 522.552 388.686 524.524 389.768C526.496 390.812 528.023 392.32 529.106 394.292C530.15 392.436 531.658 390.948 533.63 389.826C535.64 388.705 537.806 388.144 540.126 388.144ZM590.831 388.608V420.74H582.653V416.68C581.609 418.072 580.236 419.174 578.535 419.986C576.872 420.76 575.055 421.146 573.083 421.146C570.57 421.146 568.346 420.624 566.413 419.58C564.48 418.498 562.952 416.932 561.831 414.882C560.748 412.794 560.207 410.32 560.207 407.458V388.608H568.327V406.298C568.327 408.85 568.965 410.822 570.241 412.214C571.517 413.568 573.257 414.244 575.461 414.244C577.704 414.244 579.463 413.568 580.739 412.214C582.015 410.822 582.653 408.85 582.653 406.298V388.608H590.831ZM616.149 388.144C619.977 388.144 623.07 389.362 625.429 391.798C627.787 394.196 628.967 397.56 628.967 401.89V420.74H620.847V402.992C620.847 400.44 620.209 398.488 618.933 397.134C617.657 395.742 615.917 395.046 613.713 395.046C611.47 395.046 609.691 395.742 608.377 397.134C607.101 398.488 606.463 400.44 606.463 402.992V420.74H598.343V388.608H606.463V392.61C607.545 391.218 608.918 390.136 610.581 389.362C612.282 388.55 614.138 388.144 616.149 388.144ZM640.307 384.78C638.876 384.78 637.677 384.336 636.711 383.446C635.783 382.518 635.319 381.378 635.319 380.024C635.319 378.671 635.783 377.55 636.711 376.66C637.677 375.732 638.876 375.268 640.307 375.268C641.737 375.268 642.917 375.732 643.845 376.66C644.811 377.55 645.295 378.671 645.295 380.024C645.295 381.378 644.811 382.518 643.845 383.446C642.917 384.336 641.737 384.78 640.307 384.78ZM644.309 388.608V420.74H636.189V388.608H644.309ZM661.285 395.278V410.822C661.285 411.905 661.536 412.698 662.039 413.2C662.58 413.664 663.47 413.896 664.707 413.896H668.477V420.74H663.373C656.529 420.74 653.107 417.415 653.107 410.764V395.278H649.279V388.608H653.107V380.662H661.285V388.608H668.477V395.278H661.285ZM704.557 388.608L684.663 435.936H676.021L682.981 419.928L670.105 388.608H679.211L687.505 411.054L695.915 388.608H704.557ZM244.121 471.78C242.69 471.78 241.492 471.336 240.525 470.446C239.597 469.518 239.133 468.378 239.133 467.024C239.133 465.671 239.597 464.55 240.525 463.66C241.492 462.732 242.69 462.268 244.121 462.268C245.552 462.268 246.731 462.732 247.659 463.66C248.626 464.55 249.109 465.671 249.109 467.024C249.109 468.378 248.626 469.518 247.659 470.446C246.731 471.336 245.552 471.78 244.121 471.78ZM248.123 475.608V507.74H240.003V475.608H248.123ZM267.942 508.262C265.312 508.262 262.954 507.798 260.866 506.87C258.778 505.904 257.115 504.608 255.878 502.984C254.679 501.36 254.022 499.562 253.906 497.59H262.084C262.238 498.828 262.838 499.852 263.882 500.664C264.964 501.476 266.298 501.882 267.884 501.882C269.43 501.882 270.629 501.573 271.48 500.954C272.369 500.336 272.814 499.543 272.814 498.576C272.814 497.532 272.272 496.759 271.19 496.256C270.146 495.715 268.464 495.135 266.144 494.516C263.746 493.936 261.774 493.337 260.228 492.718C258.72 492.1 257.405 491.152 256.284 489.876C255.201 488.6 254.66 486.88 254.66 484.714C254.66 482.936 255.162 481.312 256.168 479.842C257.212 478.373 258.681 477.213 260.576 476.362C262.509 475.512 264.771 475.086 267.362 475.086C271.19 475.086 274.244 476.053 276.526 477.986C278.807 479.881 280.064 482.452 280.296 485.7H272.524C272.408 484.424 271.866 483.419 270.9 482.684C269.972 481.911 268.715 481.524 267.13 481.524C265.66 481.524 264.52 481.795 263.708 482.336C262.934 482.878 262.548 483.632 262.548 484.598C262.548 485.681 263.089 486.512 264.172 487.092C265.254 487.634 266.936 488.194 269.218 488.774C271.538 489.354 273.452 489.954 274.96 490.572C276.468 491.191 277.763 492.158 278.846 493.472C279.967 494.748 280.547 496.45 280.586 498.576C280.586 500.432 280.064 502.095 279.02 503.564C278.014 505.034 276.545 506.194 274.612 507.044C272.717 507.856 270.494 508.262 267.942 508.262ZM332.261 467.256L318.573 493.646V507.74H310.453V493.646L296.707 467.256H305.871L314.571 485.758L323.213 467.256H332.261ZM350.712 508.262C347.619 508.262 344.835 507.586 342.36 506.232C339.886 504.84 337.933 502.888 336.502 500.374C335.11 497.861 334.414 494.961 334.414 491.674C334.414 488.388 335.13 485.488 336.56 482.974C338.03 480.461 340.021 478.528 342.534 477.174C345.048 475.782 347.851 475.086 350.944 475.086C354.038 475.086 356.841 475.782 359.354 477.174C361.868 478.528 363.84 480.461 365.27 482.974C366.74 485.488 367.474 488.388 367.474 491.674C367.474 494.961 366.72 497.861 365.212 500.374C363.743 502.888 361.732 504.84 359.18 506.232C356.667 507.586 353.844 508.262 350.712 508.262ZM350.712 501.186C352.182 501.186 353.554 500.838 354.83 500.142C356.145 499.408 357.189 498.325 357.962 496.894C358.736 495.464 359.122 493.724 359.122 491.674C359.122 488.62 358.31 486.28 356.686 484.656C355.101 482.994 353.148 482.162 350.828 482.162C348.508 482.162 346.556 482.994 344.97 484.656C343.424 486.28 342.65 488.62 342.65 491.674C342.65 494.729 343.404 497.088 344.912 498.75C346.459 500.374 348.392 501.186 350.712 501.186ZM403.265 475.608V507.74H395.087V503.68C394.043 505.072 392.67 506.174 390.969 506.986C389.306 507.76 387.489 508.146 385.517 508.146C383.003 508.146 380.78 507.624 378.847 506.58C376.913 505.498 375.386 503.932 374.265 501.882C373.182 499.794 372.641 497.32 372.641 494.458V475.608H380.761V493.298C380.761 495.85 381.399 497.822 382.675 499.214C383.951 500.568 385.691 501.244 387.895 501.244C390.137 501.244 391.897 500.568 393.173 499.214C394.449 497.822 395.087 495.85 395.087 493.298V475.608H403.265Z" fill="white"/>
<path d="M239.864 576.298H245.476V578H237.771V561.969H239.864V576.298ZM259.199 571.215C259.199 571.614 259.176 572.035 259.13 572.48H249.056C249.132 573.722 249.554 574.696 250.321 575.401C251.103 576.091 252.046 576.436 253.15 576.436C254.054 576.436 254.806 576.229 255.404 575.815C256.017 575.386 256.446 574.818 256.692 574.113H258.946C258.608 575.324 257.934 576.313 256.922 577.08C255.91 577.831 254.652 578.207 253.15 578.207C251.954 578.207 250.88 577.939 249.93 577.402C248.994 576.865 248.258 576.106 247.722 575.125C247.185 574.128 246.917 572.978 246.917 571.675C246.917 570.372 247.177 569.229 247.699 568.248C248.22 567.267 248.948 566.515 249.884 565.994C250.834 565.457 251.923 565.189 253.15 565.189C254.346 565.189 255.404 565.45 256.324 565.971C257.244 566.492 257.949 567.213 258.44 568.133C258.946 569.038 259.199 570.065 259.199 571.215ZM257.037 570.778C257.037 569.981 256.86 569.298 256.508 568.731C256.155 568.148 255.672 567.711 255.059 567.42C254.461 567.113 253.794 566.96 253.058 566.96C252 566.96 251.095 567.297 250.344 567.972C249.608 568.647 249.186 569.582 249.079 570.778H257.037ZM264.514 567.121V574.55C264.514 575.163 264.645 575.6 264.905 575.861C265.166 576.106 265.618 576.229 266.262 576.229H267.803V578H265.917C264.752 578 263.878 577.732 263.295 577.195C262.713 576.658 262.421 575.777 262.421 574.55V567.121H260.788V565.396H262.421V562.222H264.514V565.396H267.803V567.121H264.514ZM279.024 567.121V574.55C279.024 575.163 279.155 575.6 279.415 575.861C279.676 576.106 280.128 576.229 280.772 576.229H282.313V578H280.427C279.262 578 278.388 577.732 277.805 577.195C277.223 576.658 276.931 575.777 276.931 574.55V567.121H275.298V565.396H276.931V562.222H279.024V565.396H282.313V567.121H279.024ZM291.105 565.166C292.056 565.166 292.914 565.373 293.681 565.787C294.448 566.186 295.046 566.791 295.475 567.604C295.92 568.417 296.142 569.406 296.142 570.571V578H294.072V570.87C294.072 569.613 293.758 568.654 293.129 567.995C292.5 567.32 291.642 566.983 290.553 566.983C289.449 566.983 288.567 567.328 287.908 568.018C287.264 568.708 286.942 569.712 286.942 571.031V578H284.849V560.98H286.942V567.19C287.356 566.546 287.923 566.048 288.644 565.695C289.38 565.342 290.2 565.166 291.105 565.166ZM311.061 571.215C311.061 571.614 311.038 572.035 310.992 572.48H300.918C300.995 573.722 301.416 574.696 302.183 575.401C302.965 576.091 303.908 576.436 305.012 576.436C305.917 576.436 306.668 576.229 307.266 575.815C307.879 575.386 308.309 574.818 308.554 574.113H310.808C310.471 575.324 309.796 576.313 308.784 577.08C307.772 577.831 306.515 578.207 305.012 578.207C303.816 578.207 302.743 577.939 301.792 577.402C300.857 576.865 300.121 576.106 299.584 575.125C299.047 574.128 298.779 572.978 298.779 571.675C298.779 570.372 299.04 569.229 299.561 568.248C300.082 567.267 300.811 566.515 301.746 565.994C302.697 565.457 303.785 565.189 305.012 565.189C306.208 565.189 307.266 565.45 308.186 565.971C309.106 566.492 309.811 567.213 310.302 568.133C310.808 569.038 311.061 570.065 311.061 571.215ZM308.899 570.778C308.899 569.981 308.723 569.298 308.37 568.731C308.017 568.148 307.534 567.711 306.921 567.42C306.323 567.113 305.656 566.96 304.92 566.96C303.862 566.96 302.957 567.297 302.206 567.972C301.47 568.647 301.048 569.582 300.941 570.778H308.899ZM319.174 571.675C319.174 570.372 319.434 569.237 319.956 568.271C320.477 567.29 321.198 566.531 322.118 565.994C323.053 565.457 324.119 565.189 325.315 565.189C326.863 565.189 328.136 565.565 329.133 566.316C330.145 567.067 330.812 568.11 331.134 569.444H328.88C328.665 568.677 328.243 568.072 327.615 567.627C327.001 567.182 326.235 566.96 325.315 566.96C324.119 566.96 323.153 567.374 322.417 568.202C321.681 569.015 321.313 570.172 321.313 571.675C321.313 573.193 321.681 574.366 322.417 575.194C323.153 576.022 324.119 576.436 325.315 576.436C326.235 576.436 327.001 576.221 327.615 575.792C328.228 575.363 328.65 574.749 328.88 573.952H331.134C330.796 575.24 330.122 576.275 329.11 577.057C328.098 577.824 326.833 578.207 325.315 578.207C324.119 578.207 323.053 577.939 322.118 577.402C321.198 576.865 320.477 576.106 319.956 575.125C319.434 574.144 319.174 572.994 319.174 571.675ZM339.423 578.207C338.243 578.207 337.169 577.939 336.203 577.402C335.253 576.865 334.501 576.106 333.949 575.125C333.413 574.128 333.144 572.978 333.144 571.675C333.144 570.387 333.42 569.252 333.972 568.271C334.54 567.274 335.306 566.515 336.272 565.994C337.238 565.457 338.319 565.189 339.515 565.189C340.711 565.189 341.792 565.457 342.758 565.994C343.724 566.515 344.483 567.267 345.035 568.248C345.603 569.229 345.886 570.372 345.886 571.675C345.886 572.978 345.595 574.128 345.012 575.125C344.445 576.106 343.671 576.865 342.689 577.402C341.708 577.939 340.619 578.207 339.423 578.207ZM339.423 576.367C340.175 576.367 340.88 576.191 341.539 575.838C342.199 575.485 342.728 574.956 343.126 574.251C343.54 573.546 343.747 572.687 343.747 571.675C343.747 570.663 343.548 569.804 343.149 569.099C342.751 568.394 342.229 567.872 341.585 567.535C340.941 567.182 340.244 567.006 339.492 567.006C338.726 567.006 338.02 567.182 337.376 567.535C336.748 567.872 336.242 568.394 335.858 569.099C335.475 569.804 335.283 570.663 335.283 571.675C335.283 572.702 335.467 573.569 335.835 574.274C336.219 574.979 336.725 575.508 337.353 575.861C337.982 576.198 338.672 576.367 339.423 576.367ZM363.795 565.166C364.777 565.166 365.651 565.373 366.417 565.787C367.184 566.186 367.79 566.791 368.234 567.604C368.679 568.417 368.901 569.406 368.901 570.571V578H366.831V570.87C366.831 569.613 366.517 568.654 365.888 567.995C365.275 567.32 364.439 566.983 363.381 566.983C362.293 566.983 361.426 567.336 360.782 568.041C360.138 568.731 359.816 569.735 359.816 571.054V578H357.746V570.87C357.746 569.613 357.432 568.654 356.803 567.995C356.19 567.32 355.354 566.983 354.296 566.983C353.208 566.983 352.341 567.336 351.697 568.041C351.053 568.731 350.731 569.735 350.731 571.054V578H348.638V565.396H350.731V567.213C351.145 566.554 351.697 566.048 352.387 565.695C353.093 565.342 353.867 565.166 354.71 565.166C355.768 565.166 356.704 565.404 357.516 565.879C358.329 566.354 358.935 567.052 359.333 567.972C359.686 567.083 360.269 566.393 361.081 565.902C361.894 565.411 362.799 565.166 363.795 565.166ZM387.491 565.166C388.473 565.166 389.347 565.373 390.113 565.787C390.88 566.186 391.486 566.791 391.93 567.604C392.375 568.417 392.597 569.406 392.597 570.571V578H390.527V570.87C390.527 569.613 390.213 568.654 389.584 567.995C388.971 567.32 388.135 566.983 387.077 566.983C385.989 566.983 385.122 567.336 384.478 568.041C383.834 568.731 383.512 569.735 383.512 571.054V578H381.442V570.87C381.442 569.613 381.128 568.654 380.499 567.995C379.886 567.32 379.05 566.983 377.992 566.983C376.904 566.983 376.037 567.336 375.393 568.041C374.749 568.731 374.427 569.735 374.427 571.054V578H372.334V565.396H374.427V567.213C374.841 566.554 375.393 566.048 376.083 565.695C376.789 565.342 377.563 565.166 378.406 565.166C379.464 565.166 380.4 565.404 381.212 565.879C382.025 566.354 382.631 567.052 383.029 567.972C383.382 567.083 383.965 566.393 384.777 565.902C385.59 565.411 386.495 565.166 387.491 565.166ZM407.209 565.396V578H405.116V576.137C404.717 576.781 404.157 577.287 403.437 577.655C402.731 578.008 401.949 578.184 401.091 578.184C400.109 578.184 399.228 577.985 398.446 577.586C397.664 577.172 397.043 576.559 396.583 575.746C396.138 574.933 395.916 573.944 395.916 572.779V565.396H397.986V572.503C397.986 573.745 398.3 574.703 398.929 575.378C399.557 576.037 400.416 576.367 401.505 576.367C402.624 576.367 403.506 576.022 404.15 575.332C404.794 574.642 405.116 573.638 405.116 572.319V565.396H407.209ZM416.884 565.166C418.417 565.166 419.659 565.634 420.61 566.569C421.56 567.489 422.036 568.823 422.036 570.571V578H419.966V570.87C419.966 569.613 419.651 568.654 419.023 567.995C418.394 567.32 417.535 566.983 416.447 566.983C415.343 566.983 414.461 567.328 413.802 568.018C413.158 568.708 412.836 569.712 412.836 571.031V578H410.743V565.396H412.836V567.19C413.25 566.546 413.809 566.048 414.515 565.695C415.235 565.342 416.025 565.166 416.884 565.166ZM426.536 563.349C426.137 563.349 425.8 563.211 425.524 562.935C425.248 562.659 425.11 562.322 425.11 561.923C425.11 561.524 425.248 561.187 425.524 560.911C425.8 560.635 426.137 560.497 426.536 560.497C426.919 560.497 427.241 560.635 427.502 560.911C427.778 561.187 427.916 561.524 427.916 561.923C427.916 562.322 427.778 562.659 427.502 562.935C427.241 563.211 426.919 563.349 426.536 563.349ZM427.548 565.396V578H425.455V565.396H427.548ZM433.668 567.121V574.55C433.668 575.163 433.798 575.6 434.059 575.861C434.319 576.106 434.772 576.229 435.416 576.229H436.957V578H435.071C433.905 578 433.031 577.732 432.449 577.195C431.866 576.658 431.575 575.777 431.575 574.55V567.121H429.942V565.396H431.575V562.222H433.668V565.396H436.957V567.121H433.668ZM450.349 565.396L442.759 583.934H440.597L443.081 577.862L437.998 565.396H440.321L444.277 575.608L448.187 565.396H450.349ZM465.622 578L460.677 572.434V578H458.584V560.98H460.677V570.985L465.53 565.396H468.451L462.517 571.675L468.474 578H465.622ZM476.562 565.166C478.096 565.166 479.338 565.634 480.288 566.569C481.239 567.489 481.714 568.823 481.714 570.571V578H479.644V570.87C479.644 569.613 479.33 568.654 478.701 567.995C478.073 567.32 477.214 566.983 476.125 566.983C475.021 566.983 474.14 567.328 473.48 568.018C472.836 568.708 472.514 569.712 472.514 571.031V578H470.421V565.396H472.514V567.19C472.928 566.546 473.488 566.048 474.193 565.695C474.914 565.342 475.704 565.166 476.562 565.166ZM490.63 578.207C489.45 578.207 488.376 577.939 487.41 577.402C486.46 576.865 485.708 576.106 485.156 575.125C484.62 574.128 484.351 572.978 484.351 571.675C484.351 570.387 484.627 569.252 485.179 568.271C485.747 567.274 486.513 566.515 487.479 565.994C488.445 565.457 489.526 565.189 490.722 565.189C491.918 565.189 492.999 565.457 493.965 565.994C494.931 566.515 495.69 567.267 496.242 568.248C496.81 569.229 497.093 570.372 497.093 571.675C497.093 572.978 496.802 574.128 496.219 575.125C495.652 576.106 494.878 576.865 493.896 577.402C492.915 577.939 491.826 578.207 490.63 578.207ZM490.63 576.367C491.382 576.367 492.087 576.191 492.746 575.838C493.406 575.485 493.935 574.956 494.333 574.251C494.747 573.546 494.954 572.687 494.954 571.675C494.954 570.663 494.755 569.804 494.356 569.099C493.958 568.394 493.436 567.872 492.792 567.535C492.148 567.182 491.451 567.006 490.699 567.006C489.933 567.006 489.227 567.182 488.583 567.535C487.955 567.872 487.449 568.394 487.065 569.099C486.682 569.804 486.49 570.663 486.49 571.675C486.49 572.702 486.674 573.569 487.042 574.274C487.426 574.979 487.932 575.508 488.56 575.861C489.189 576.198 489.879 576.367 490.63 576.367ZM516.635 565.396L512.702 578H510.54L507.504 567.995L504.468 578H502.306L498.35 565.396H500.489L503.387 575.976L506.515 565.396H508.654L511.713 575.999L514.565 565.396H516.635ZM541.634 565.396L537.701 578H535.539L532.503 567.995L529.467 578H527.305L523.349 565.396H525.488L528.386 575.976L531.514 565.396H533.653L536.712 575.999L539.564 565.396H541.634ZM549.967 565.166C550.918 565.166 551.777 565.373 552.543 565.787C553.31 566.186 553.908 566.791 554.337 567.604C554.782 568.417 555.004 569.406 555.004 570.571V578H552.934V570.87C552.934 569.613 552.62 568.654 551.991 567.995C551.363 567.32 550.504 566.983 549.415 566.983C548.311 566.983 547.43 567.328 546.77 568.018C546.126 568.708 545.804 569.712 545.804 571.031V578H543.711V560.98H545.804V567.19C546.218 566.546 546.786 566.048 547.506 565.695C548.242 565.342 549.063 565.166 549.967 565.166ZM563.92 578.207C562.74 578.207 561.666 577.939 560.7 577.402C559.75 576.865 558.998 576.106 558.446 575.125C557.91 574.128 557.641 572.978 557.641 571.675C557.641 570.387 557.917 569.252 558.469 568.271C559.037 567.274 559.803 566.515 560.769 565.994C561.735 565.457 562.816 565.189 564.012 565.189C565.208 565.189 566.289 565.457 567.255 565.994C568.221 566.515 568.98 567.267 569.532 568.248C570.1 569.229 570.383 570.372 570.383 571.675C570.383 572.978 570.092 574.128 569.509 575.125C568.942 576.106 568.168 576.865 567.186 577.402C566.205 577.939 565.116 578.207 563.92 578.207ZM563.92 576.367C564.672 576.367 565.377 576.191 566.036 575.838C566.696 575.485 567.225 574.956 567.623 574.251C568.037 573.546 568.244 572.687 568.244 571.675C568.244 570.663 568.045 569.804 567.646 569.099C567.248 568.394 566.726 567.872 566.082 567.535C565.438 567.182 564.741 567.006 563.989 567.006C563.223 567.006 562.517 567.182 561.873 567.535C561.245 567.872 560.739 568.394 560.355 569.099C559.972 569.804 559.78 570.663 559.78 571.675C559.78 572.702 559.964 573.569 560.332 574.274C560.716 574.979 561.222 575.508 561.85 575.861C562.479 576.198 563.169 576.367 563.92 576.367ZM590.123 565.396L582.533 583.934H580.371L582.855 577.862L577.772 565.396H580.095L584.051 575.608L587.961 565.396H590.123ZM597.724 578.207C596.543 578.207 595.47 577.939 594.504 577.402C593.553 576.865 592.802 576.106 592.25 575.125C591.713 574.128 591.445 572.978 591.445 571.675C591.445 570.387 591.721 569.252 592.273 568.271C592.84 567.274 593.607 566.515 594.573 565.994C595.539 565.457 596.62 565.189 597.816 565.189C599.012 565.189 600.093 565.457 601.059 565.994C602.025 566.515 602.784 567.267 603.336 568.248C603.903 569.229 604.187 570.372 604.187 571.675C604.187 572.978 603.896 574.128 603.313 575.125C602.746 576.106 601.971 576.865 600.99 577.402C600.009 577.939 598.92 578.207 597.724 578.207ZM597.724 576.367C598.475 576.367 599.181 576.191 599.84 575.838C600.499 575.485 601.028 574.956 601.427 574.251C601.841 573.546 602.048 572.687 602.048 571.675C602.048 570.663 601.849 569.804 601.45 569.099C601.051 568.394 600.53 567.872 599.886 567.535C599.242 567.182 598.544 567.006 597.793 567.006C597.026 567.006 596.321 567.182 595.677 567.535C595.048 567.872 594.542 568.394 594.159 569.099C593.776 569.804 593.584 570.663 593.584 571.675C593.584 572.702 593.768 573.569 594.136 574.274C594.519 574.979 595.025 575.508 595.654 575.861C596.283 576.198 596.973 576.367 597.724 576.367ZM618.117 565.396V578H616.024V576.137C615.625 576.781 615.066 577.287 614.345 577.655C613.64 578.008 612.858 578.184 611.999 578.184C611.018 578.184 610.136 577.985 609.354 577.586C608.572 577.172 607.951 576.559 607.491 575.746C607.046 574.933 606.824 573.944 606.824 572.779V565.396H608.894V572.503C608.894 573.745 609.208 574.703 609.837 575.378C610.466 576.037 611.324 576.367 612.413 576.367C613.532 576.367 614.414 576.022 615.058 575.332C615.702 574.642 616.024 573.638 616.024 572.319V565.396H618.117ZM627.001 571.652C627.001 570.364 627.261 569.237 627.783 568.271C628.304 567.29 629.017 566.531 629.922 565.994C630.842 565.457 631.861 565.189 632.981 565.189C634.085 565.189 635.043 565.427 635.856 565.902C636.668 566.377 637.274 566.975 637.673 567.696V565.396H639.789V578H637.673V575.654C637.259 576.39 636.638 577.003 635.81 577.494C634.997 577.969 634.046 578.207 632.958 578.207C631.838 578.207 630.826 577.931 629.922 577.379C629.017 576.827 628.304 576.053 627.783 575.056C627.261 574.059 627.001 572.925 627.001 571.652ZM637.673 571.675C637.673 570.724 637.481 569.896 637.098 569.191C636.714 568.486 636.193 567.949 635.534 567.581C634.89 567.198 634.177 567.006 633.395 567.006C632.613 567.006 631.9 567.19 631.256 567.558C630.612 567.926 630.098 568.463 629.715 569.168C629.331 569.873 629.14 570.701 629.14 571.652C629.14 572.618 629.331 573.461 629.715 574.182C630.098 574.887 630.612 575.432 631.256 575.815C631.9 576.183 632.613 576.367 633.395 576.367C634.177 576.367 634.89 576.183 635.534 575.815C636.193 575.432 636.714 574.887 637.098 574.182C637.481 573.461 637.673 572.626 637.673 571.675ZM645.419 567.443C645.787 566.722 646.308 566.163 646.983 565.764C647.673 565.365 648.508 565.166 649.49 565.166V567.328H648.938C646.592 567.328 645.419 568.601 645.419 571.146V578H643.326V565.396H645.419V567.443ZM663.406 571.215C663.406 571.614 663.383 572.035 663.337 572.48H653.263C653.339 573.722 653.761 574.696 654.528 575.401C655.31 576.091 656.253 576.436 657.357 576.436C658.261 576.436 659.013 576.229 659.611 575.815C660.224 575.386 660.653 574.818 660.899 574.113H663.153C662.815 575.324 662.141 576.313 661.129 577.08C660.117 577.831 658.859 578.207 657.357 578.207C656.161 578.207 655.087 577.939 654.137 577.402C653.201 576.865 652.465 576.106 651.929 575.125C651.392 574.128 651.124 572.978 651.124 571.675C651.124 570.372 651.384 569.229 651.906 568.248C652.427 567.267 653.155 566.515 654.091 565.994C655.041 565.457 656.13 565.189 657.357 565.189C658.553 565.189 659.611 565.45 660.531 565.971C661.451 566.492 662.156 567.213 662.647 568.133C663.153 569.038 663.406 570.065 663.406 571.215ZM661.244 570.778C661.244 569.981 661.067 569.298 660.715 568.731C660.362 568.148 659.879 567.711 659.266 567.42C658.668 567.113 658.001 566.96 657.265 566.96C656.207 566.96 655.302 567.297 654.551 567.972C653.815 568.647 653.393 569.582 653.286 570.778H661.244ZM668.33 575.102L665.754 581.289H664.351L666.03 575.102H668.33ZM242.233 615.207C241.267 615.207 240.401 615.046 239.634 614.724C238.867 614.387 238.262 613.927 237.817 613.344C237.372 612.746 237.127 612.064 237.081 611.297H239.243C239.304 611.926 239.596 612.439 240.117 612.838C240.654 613.237 241.351 613.436 242.21 613.436C243.007 613.436 243.636 613.26 244.096 612.907C244.556 612.554 244.786 612.11 244.786 611.573C244.786 611.021 244.541 610.615 244.05 610.354C243.559 610.078 242.8 609.81 241.773 609.549C240.838 609.304 240.071 609.058 239.473 608.813C238.89 608.552 238.384 608.177 237.955 607.686C237.541 607.18 237.334 606.521 237.334 605.708C237.334 605.064 237.526 604.474 237.909 603.937C238.292 603.4 238.837 602.979 239.542 602.672C240.247 602.35 241.052 602.189 241.957 602.189C243.352 602.189 244.479 602.542 245.338 603.247C246.197 603.952 246.657 604.918 246.718 606.145H244.625C244.579 605.486 244.311 604.957 243.82 604.558C243.345 604.159 242.701 603.96 241.888 603.96C241.137 603.96 240.539 604.121 240.094 604.443C239.649 604.765 239.427 605.187 239.427 605.708C239.427 606.122 239.557 606.467 239.818 606.743C240.094 607.004 240.431 607.218 240.83 607.387C241.244 607.54 241.811 607.717 242.532 607.916C243.437 608.161 244.173 608.407 244.74 608.652C245.307 608.882 245.79 609.235 246.189 609.71C246.603 610.185 246.818 610.806 246.833 611.573C246.833 612.263 246.641 612.884 246.258 613.436C245.875 613.988 245.33 614.425 244.625 614.747C243.935 615.054 243.138 615.207 242.233 615.207ZM256.044 602.166C256.994 602.166 257.853 602.373 258.62 602.787C259.386 603.186 259.984 603.791 260.414 604.604C260.858 605.417 261.081 606.406 261.081 607.571V615H259.011V607.87C259.011 606.613 258.696 605.654 258.068 604.995C257.439 604.32 256.58 603.983 255.492 603.983C254.388 603.983 253.506 604.328 252.847 605.018C252.203 605.708 251.881 606.712 251.881 608.031V615H249.788V597.98H251.881V604.19C252.295 603.546 252.862 603.048 253.583 602.695C254.319 602.342 255.139 602.166 256.044 602.166ZM263.718 608.652C263.718 607.364 263.978 606.237 264.5 605.271C265.021 604.29 265.734 603.531 266.639 602.994C267.559 602.457 268.578 602.189 269.698 602.189C270.802 602.189 271.76 602.427 272.573 602.902C273.385 603.377 273.991 603.975 274.39 604.696V602.396H276.506V615H274.39V612.654C273.976 613.39 273.355 614.003 272.527 614.494C271.714 614.969 270.763 615.207 269.675 615.207C268.555 615.207 267.543 614.931 266.639 614.379C265.734 613.827 265.021 613.053 264.5 612.056C263.978 611.059 263.718 609.925 263.718 608.652ZM274.39 608.675C274.39 607.724 274.198 606.896 273.815 606.191C273.431 605.486 272.91 604.949 272.251 604.581C271.607 604.198 270.894 604.006 270.112 604.006C269.33 604.006 268.617 604.19 267.973 604.558C267.329 604.926 266.815 605.463 266.432 606.168C266.048 606.873 265.857 607.701 265.857 608.652C265.857 609.618 266.048 610.461 266.432 611.182C266.815 611.887 267.329 612.432 267.973 612.815C268.617 613.183 269.33 613.367 270.112 613.367C270.894 613.367 271.607 613.183 272.251 612.815C272.91 612.432 273.431 611.887 273.815 611.182C274.198 610.461 274.39 609.626 274.39 608.675ZM282.135 604.443C282.503 603.722 283.025 603.163 283.699 602.764C284.389 602.365 285.225 602.166 286.206 602.166V604.328H285.654C283.308 604.328 282.135 605.601 282.135 608.146V615H280.042V602.396H282.135V604.443ZM300.123 608.215C300.123 608.614 300.1 609.035 300.054 609.48H289.98C290.056 610.722 290.478 611.696 291.245 612.401C292.027 613.091 292.97 613.436 294.074 613.436C294.978 613.436 295.73 613.229 296.328 612.815C296.941 612.386 297.37 611.818 297.616 611.113H299.87C299.532 612.324 298.858 613.313 297.846 614.08C296.834 614.831 295.576 615.207 294.074 615.207C292.878 615.207 291.804 614.939 290.854 614.402C289.918 613.865 289.182 613.106 288.646 612.125C288.109 611.128 287.841 609.978 287.841 608.675C287.841 607.372 288.101 606.229 288.623 605.248C289.144 604.267 289.872 603.515 290.808 602.994C291.758 602.457 292.847 602.189 294.074 602.189C295.27 602.189 296.328 602.45 297.248 602.971C298.168 603.492 298.873 604.213 299.364 605.133C299.87 606.038 300.123 607.065 300.123 608.215ZM297.961 607.778C297.961 606.981 297.784 606.298 297.432 605.731C297.079 605.148 296.596 604.711 295.983 604.42C295.385 604.113 294.718 603.96 293.982 603.96C292.924 603.96 292.019 604.297 291.268 604.972C290.532 605.647 290.11 606.582 290.003 607.778H297.961ZM319.873 602.396L312.283 620.934H310.121L312.605 614.862L307.522 602.396H309.845L313.801 612.608L317.711 602.396H319.873ZM327.474 615.207C326.293 615.207 325.22 614.939 324.254 614.402C323.303 613.865 322.552 613.106 322 612.125C321.463 611.128 321.195 609.978 321.195 608.675C321.195 607.387 321.471 606.252 322.023 605.271C322.59 604.274 323.357 603.515 324.323 602.994C325.289 602.457 326.37 602.189 327.566 602.189C328.762 602.189 329.843 602.457 330.809 602.994C331.775 603.515 332.534 604.267 333.086 605.248C333.653 606.229 333.937 607.372 333.937 608.675C333.937 609.978 333.646 611.128 333.063 612.125C332.496 613.106 331.721 613.865 330.74 614.402C329.759 614.939 328.67 615.207 327.474 615.207ZM327.474 613.367C328.225 613.367 328.931 613.191 329.59 612.838C330.249 612.485 330.778 611.956 331.177 611.251C331.591 610.546 331.798 609.687 331.798 608.675C331.798 607.663 331.599 606.804 331.2 606.099C330.801 605.394 330.28 604.872 329.636 604.535C328.992 604.182 328.294 604.006 327.543 604.006C326.776 604.006 326.071 604.182 325.427 604.535C324.798 604.872 324.292 605.394 323.909 606.099C323.526 606.804 323.334 607.663 323.334 608.675C323.334 609.702 323.518 610.569 323.886 611.274C324.269 611.979 324.775 612.508 325.404 612.861C326.033 613.198 326.723 613.367 327.474 613.367ZM347.867 602.396V615H345.774V613.137C345.375 613.781 344.816 614.287 344.095 614.655C343.39 615.008 342.608 615.184 341.749 615.184C340.768 615.184 339.886 614.985 339.104 614.586C338.322 614.172 337.701 613.559 337.241 612.746C336.796 611.933 336.574 610.944 336.574 609.779V602.396H338.644V609.503C338.644 610.745 338.958 611.703 339.587 612.378C340.216 613.037 341.074 613.367 342.163 613.367C343.282 613.367 344.164 613.022 344.808 612.332C345.452 611.642 345.774 610.638 345.774 609.319V602.396H347.867ZM353.494 604.443C353.862 603.722 354.383 603.163 355.058 602.764C355.748 602.365 356.584 602.166 357.565 602.166V604.328H357.013C354.667 604.328 353.494 605.601 353.494 608.146V615H351.401V602.396H353.494V604.443ZM368.206 604.443C368.574 603.722 369.095 603.163 369.77 602.764C370.46 602.365 371.295 602.166 372.277 602.166V604.328H371.725C369.379 604.328 368.206 605.601 368.206 608.146V615H366.113V602.396H368.206V604.443ZM386.193 608.215C386.193 608.614 386.17 609.035 386.124 609.48H376.05C376.127 610.722 376.548 611.696 377.315 612.401C378.097 613.091 379.04 613.436 380.144 613.436C381.049 613.436 381.8 613.229 382.398 612.815C383.011 612.386 383.441 611.818 383.686 611.113H385.94C385.603 612.324 384.928 613.313 383.916 614.08C382.904 614.831 381.647 615.207 380.144 615.207C378.948 615.207 377.875 614.939 376.924 614.402C375.989 613.865 375.253 613.106 374.716 612.125C374.179 611.128 373.911 609.978 373.911 608.675C373.911 607.372 374.172 606.229 374.693 605.248C375.214 604.267 375.943 603.515 376.878 602.994C377.829 602.457 378.917 602.189 380.144 602.189C381.34 602.189 382.398 602.45 383.318 602.971C384.238 603.492 384.943 604.213 385.434 605.133C385.94 606.038 386.193 607.065 386.193 608.215ZM384.031 607.778C384.031 606.981 383.855 606.298 383.502 605.731C383.149 605.148 382.666 604.711 382.053 604.42C381.455 604.113 380.788 603.96 380.052 603.96C378.994 603.96 378.089 604.297 377.338 604.972C376.602 605.647 376.18 606.582 376.073 607.778H384.031ZM388.174 608.675C388.174 607.372 388.434 606.237 388.956 605.271C389.477 604.29 390.198 603.531 391.118 602.994C392.053 602.457 393.119 602.189 394.315 602.189C395.863 602.189 397.136 602.565 398.133 603.316C399.145 604.067 399.812 605.11 400.134 606.444H397.88C397.665 605.677 397.243 605.072 396.615 604.627C396.001 604.182 395.235 603.96 394.315 603.96C393.119 603.96 392.153 604.374 391.417 605.202C390.681 606.015 390.313 607.172 390.313 608.675C390.313 610.193 390.681 611.366 391.417 612.194C392.153 613.022 393.119 613.436 394.315 613.436C395.235 613.436 396.001 613.221 396.615 612.792C397.228 612.363 397.65 611.749 397.88 610.952H400.134C399.796 612.24 399.122 613.275 398.11 614.057C397.098 614.824 395.833 615.207 394.315 615.207C393.119 615.207 392.053 614.939 391.118 614.402C390.198 613.865 389.477 613.106 388.956 612.125C388.434 611.144 388.174 609.994 388.174 608.675ZM408.423 615.207C407.243 615.207 406.169 614.939 405.203 614.402C404.253 613.865 403.501 613.106 402.949 612.125C402.413 611.128 402.144 609.978 402.144 608.675C402.144 607.387 402.42 606.252 402.972 605.271C403.54 604.274 404.306 603.515 405.272 602.994C406.238 602.457 407.319 602.189 408.515 602.189C409.711 602.189 410.792 602.457 411.758 602.994C412.724 603.515 413.483 604.267 414.035 605.248C414.603 606.229 414.886 607.372 414.886 608.675C414.886 609.978 414.595 611.128 414.012 612.125C413.445 613.106 412.671 613.865 411.689 614.402C410.708 614.939 409.619 615.207 408.423 615.207ZM408.423 613.367C409.175 613.367 409.88 613.191 410.539 612.838C411.199 612.485 411.728 611.956 412.126 611.251C412.54 610.546 412.747 609.687 412.747 608.675C412.747 607.663 412.548 606.804 412.149 606.099C411.751 605.394 411.229 604.872 410.585 604.535C409.941 604.182 409.244 604.006 408.492 604.006C407.726 604.006 407.02 604.182 406.376 604.535C405.748 604.872 405.242 605.394 404.858 606.099C404.475 606.804 404.283 607.663 404.283 608.675C404.283 609.702 404.467 610.569 404.835 611.274C405.219 611.979 405.725 612.508 406.353 612.861C406.982 613.198 407.672 613.367 408.423 613.367ZM432.795 602.166C433.777 602.166 434.651 602.373 435.417 602.787C436.184 603.186 436.79 603.791 437.234 604.604C437.679 605.417 437.901 606.406 437.901 607.571V615H435.831V607.87C435.831 606.613 435.517 605.654 434.888 604.995C434.275 604.32 433.439 603.983 432.381 603.983C431.293 603.983 430.426 604.336 429.782 605.041C429.138 605.731 428.816 606.735 428.816 608.054V615H426.746V607.87C426.746 606.613 426.432 605.654 425.803 604.995C425.19 604.32 424.354 603.983 423.296 603.983C422.208 603.983 421.341 604.336 420.697 605.041C420.053 605.731 419.731 606.735 419.731 608.054V615H417.638V602.396H419.731V604.213C420.145 603.554 420.697 603.048 421.387 602.695C422.093 602.342 422.867 602.166 423.71 602.166C424.768 602.166 425.704 602.404 426.516 602.879C427.329 603.354 427.935 604.052 428.333 604.972C428.686 604.083 429.269 603.393 430.081 602.902C430.894 602.411 431.799 602.166 432.795 602.166ZM456.491 602.166C457.473 602.166 458.347 602.373 459.113 602.787C459.88 603.186 460.486 603.791 460.93 604.604C461.375 605.417 461.597 606.406 461.597 607.571V615H459.527V607.87C459.527 606.613 459.213 605.654 458.584 604.995C457.971 604.32 457.135 603.983 456.077 603.983C454.989 603.983 454.122 604.336 453.478 605.041C452.834 605.731 452.512 606.735 452.512 608.054V615H450.442V607.87C450.442 606.613 450.128 605.654 449.499 604.995C448.886 604.32 448.05 603.983 446.992 603.983C445.904 603.983 445.037 604.336 444.393 605.041C443.749 605.731 443.427 606.735 443.427 608.054V615H441.334V602.396H443.427V604.213C443.841 603.554 444.393 603.048 445.083 602.695C445.789 602.342 446.563 602.166 447.406 602.166C448.464 602.166 449.4 602.404 450.212 602.879C451.025 603.354 451.631 604.052 452.029 604.972C452.382 604.083 452.965 603.393 453.777 602.902C454.59 602.411 455.495 602.166 456.491 602.166ZM476.531 608.215C476.531 608.614 476.508 609.035 476.462 609.48H466.388C466.464 610.722 466.886 611.696 467.653 612.401C468.435 613.091 469.378 613.436 470.482 613.436C471.386 613.436 472.138 613.229 472.736 612.815C473.349 612.386 473.778 611.818 474.024 611.113H476.278C475.94 612.324 475.266 613.313 474.254 614.08C473.242 614.831 471.984 615.207 470.482 615.207C469.286 615.207 468.212 614.939 467.262 614.402C466.326 613.865 465.59 613.106 465.054 612.125C464.517 611.128 464.249 609.978 464.249 608.675C464.249 607.372 464.509 606.229 465.031 605.248C465.552 604.267 466.28 603.515 467.216 602.994C468.166 602.457 469.255 602.189 470.482 602.189C471.678 602.189 472.736 602.45 473.656 602.971C474.576 603.492 475.281 604.213 475.772 605.133C476.278 606.038 476.531 607.065 476.531 608.215ZM474.369 607.778C474.369 606.981 474.192 606.298 473.84 605.731C473.487 605.148 473.004 604.711 472.391 604.42C471.793 604.113 471.126 603.96 470.39 603.96C469.332 603.96 468.427 604.297 467.676 604.972C466.94 605.647 466.518 606.582 466.411 607.778H474.369ZM485.434 602.166C486.968 602.166 488.21 602.634 489.16 603.569C490.111 604.489 490.586 605.823 490.586 607.571V615H488.516V607.87C488.516 606.613 488.202 605.654 487.573 604.995C486.945 604.32 486.086 603.983 484.997 603.983C483.893 603.983 483.012 604.328 482.352 605.018C481.708 605.708 481.386 606.712 481.386 608.031V615H479.293V602.396H481.386V604.19C481.8 603.546 482.36 603.048 483.065 602.695C483.786 602.342 484.576 602.166 485.434 602.166ZM493.223 608.652C493.223 607.364 493.484 606.237 494.005 605.271C494.527 604.29 495.24 603.531 496.144 602.994C497.064 602.457 498.092 602.189 499.226 602.189C500.208 602.189 501.12 602.419 501.963 602.879C502.807 603.324 503.451 603.914 503.895 604.65V597.98H506.011V615H503.895V612.631C503.481 613.382 502.868 614.003 502.055 614.494C501.243 614.969 500.292 615.207 499.203 615.207C498.084 615.207 497.064 614.931 496.144 614.379C495.24 613.827 494.527 613.053 494.005 612.056C493.484 611.059 493.223 609.925 493.223 608.652ZM503.895 608.675C503.895 607.724 503.704 606.896 503.32 606.191C502.937 605.486 502.416 604.949 501.756 604.581C501.112 604.198 500.399 604.006 499.617 604.006C498.835 604.006 498.122 604.19 497.478 604.558C496.834 604.926 496.321 605.463 495.937 606.168C495.554 606.873 495.362 607.701 495.362 608.652C495.362 609.618 495.554 610.461 495.937 611.182C496.321 611.887 496.834 612.432 497.478 612.815C498.122 613.183 498.835 613.367 499.617 613.367C500.399 613.367 501.112 613.183 501.756 612.815C502.416 612.432 502.937 611.887 503.32 611.182C503.704 610.461 503.895 609.626 503.895 608.675ZM508.766 608.652C508.766 607.364 509.027 606.237 509.548 605.271C510.07 604.29 510.783 603.531 511.687 602.994C512.607 602.457 513.627 602.189 514.746 602.189C515.85 602.189 516.809 602.427 517.621 602.902C518.434 603.377 519.04 603.975 519.438 604.696V602.396H521.554V615H519.438V612.654C519.024 613.39 518.403 614.003 517.575 614.494C516.763 614.969 515.812 615.207 514.723 615.207C513.604 615.207 512.592 614.931 511.687 614.379C510.783 613.827 510.07 613.053 509.548 612.056C509.027 611.059 508.766 609.925 508.766 608.652ZM519.438 608.675C519.438 607.724 519.247 606.896 518.863 606.191C518.48 605.486 517.959 604.949 517.299 604.581C516.655 604.198 515.942 604.006 515.16 604.006C514.378 604.006 513.665 604.19 513.021 604.558C512.377 604.926 511.864 605.463 511.48 606.168C511.097 606.873 510.905 607.701 510.905 608.652C510.905 609.618 511.097 610.461 511.48 611.182C511.864 611.887 512.377 612.432 513.021 612.815C513.665 613.183 514.378 613.367 515.16 613.367C515.942 613.367 516.655 613.183 517.299 612.815C517.959 612.432 518.48 611.887 518.863 611.182C519.247 610.461 519.438 609.626 519.438 608.675ZM527.644 604.121V611.55C527.644 612.163 527.775 612.6 528.035 612.861C528.296 613.106 528.748 613.229 529.392 613.229H530.933V615H529.047C527.882 615 527.008 614.732 526.425 614.195C525.843 613.658 525.551 612.777 525.551 611.55V604.121H523.918V602.396H525.551V599.222H527.644V602.396H530.933V604.121H527.644ZM534.55 600.349C534.152 600.349 533.814 600.211 533.538 599.935C533.262 599.659 533.124 599.322 533.124 598.923C533.124 598.524 533.262 598.187 533.538 597.911C533.814 597.635 534.152 597.497 534.55 597.497C534.934 597.497 535.256 597.635 535.516 597.911C535.792 598.187 535.93 598.524 535.93 598.923C535.93 599.322 535.792 599.659 535.516 599.935C535.256 600.211 534.934 600.349 534.55 600.349ZM535.562 602.396V615H533.469V602.396H535.562ZM544.626 615.207C543.446 615.207 542.372 614.939 541.406 614.402C540.456 613.865 539.704 613.106 539.152 612.125C538.616 611.128 538.347 609.978 538.347 608.675C538.347 607.387 538.623 606.252 539.175 605.271C539.743 604.274 540.509 603.515 541.475 602.994C542.441 602.457 543.522 602.189 544.718 602.189C545.914 602.189 546.995 602.457 547.961 602.994C548.927 603.515 549.686 604.267 550.238 605.248C550.806 606.229 551.089 607.372 551.089 608.675C551.089 609.978 550.798 611.128 550.215 612.125C549.648 613.106 548.874 613.865 547.892 614.402C546.911 614.939 545.822 615.207 544.626 615.207ZM544.626 613.367C545.378 613.367 546.083 613.191 546.742 612.838C547.402 612.485 547.931 611.956 548.329 611.251C548.743 610.546 548.95 609.687 548.95 608.675C548.95 607.663 548.751 606.804 548.352 606.099C547.954 605.394 547.432 604.872 546.788 604.535C546.144 604.182 545.447 604.006 544.695 604.006C543.929 604.006 543.223 604.182 542.579 604.535C541.951 604.872 541.445 605.394 541.061 606.099C540.678 606.804 540.486 607.663 540.486 608.675C540.486 609.702 540.67 610.569 541.038 611.274C541.422 611.979 541.928 612.508 542.556 612.861C543.185 613.198 543.875 613.367 544.626 613.367ZM559.982 602.166C561.516 602.166 562.758 602.634 563.708 603.569C564.659 604.489 565.134 605.823 565.134 607.571V615H563.064V607.87C563.064 606.613 562.75 605.654 562.121 604.995C561.493 604.32 560.634 603.983 559.545 603.983C558.441 603.983 557.56 604.328 556.9 605.018C556.256 605.708 555.934 606.712 555.934 608.031V615H553.841V602.396H555.934V604.19C556.348 603.546 556.908 603.048 557.613 602.695C558.334 602.342 559.124 602.166 559.982 602.166ZM573.015 615.207C572.049 615.207 571.183 615.046 570.416 614.724C569.65 614.387 569.044 613.927 568.599 613.344C568.155 612.746 567.909 612.064 567.863 611.297H570.025C570.087 611.926 570.378 612.439 570.899 612.838C571.436 613.237 572.134 613.436 572.992 613.436C573.79 613.436 574.418 613.26 574.878 612.907C575.338 612.554 575.568 612.11 575.568 611.573C575.568 611.021 575.323 610.615 574.832 610.354C574.342 610.078 573.583 609.81 572.555 609.549C571.62 609.304 570.853 609.058 570.255 608.813C569.673 608.552 569.167 608.177 568.737 607.686C568.323 607.18 568.116 606.521 568.116 605.708C568.116 605.064 568.308 604.474 568.691 603.937C569.075 603.4 569.619 602.979 570.324 602.672C571.03 602.35 571.835 602.189 572.739 602.189C574.135 602.189 575.262 602.542 576.12 603.247C576.979 603.952 577.439 604.918 577.5 606.145H575.407C575.361 605.486 575.093 604.957 574.602 604.558C574.127 604.159 573.483 603.96 572.67 603.96C571.919 603.96 571.321 604.121 570.876 604.443C570.432 604.765 570.209 605.187 570.209 605.708C570.209 606.122 570.34 606.467 570.6 606.743C570.876 607.004 571.214 607.218 571.612 607.387C572.026 607.54 572.594 607.717 573.314 607.916C574.219 608.161 574.955 608.407 575.522 608.652C576.09 608.882 576.573 609.235 576.971 609.71C577.385 610.185 577.6 610.806 577.615 611.573C577.615 612.263 577.424 612.884 577.04 613.436C576.657 613.988 576.113 614.425 575.407 614.747C574.717 615.054 573.92 615.207 573.015 615.207ZM582.732 612.102L580.156 618.289H578.753L580.432 612.102H582.732ZM590.479 608.652C590.479 607.364 590.74 606.237 591.261 605.271C591.783 604.29 592.496 603.531 593.4 602.994C594.32 602.457 595.34 602.189 596.459 602.189C597.563 602.189 598.522 602.427 599.334 602.902C600.147 603.377 600.753 603.975 601.151 604.696V602.396H603.267V615H601.151V612.654C600.737 613.39 600.116 614.003 599.288 614.494C598.476 614.969 597.525 615.207 596.436 615.207C595.317 615.207 594.305 614.931 593.4 614.379C592.496 613.827 591.783 613.053 591.261 612.056C590.74 611.059 590.479 609.925 590.479 608.652ZM601.151 608.675C601.151 607.724 600.96 606.896 600.576 606.191C600.193 605.486 599.672 604.949 599.012 604.581C598.368 604.198 597.655 604.006 596.873 604.006C596.091 604.006 595.378 604.19 594.734 604.558C594.09 604.926 593.577 605.463 593.193 606.168C592.81 606.873 592.618 607.701 592.618 608.652C592.618 609.618 592.81 610.461 593.193 611.182C593.577 611.887 594.09 612.432 594.734 612.815C595.378 613.183 596.091 613.367 596.873 613.367C597.655 613.367 598.368 613.183 599.012 612.815C599.672 612.432 600.193 611.887 600.576 611.182C600.96 610.461 601.151 609.626 601.151 608.675ZM612.945 602.166C614.479 602.166 615.721 602.634 616.671 603.569C617.622 604.489 618.097 605.823 618.097 607.571V615H616.027V607.87C616.027 606.613 615.713 605.654 615.084 604.995C614.456 604.32 613.597 603.983 612.508 603.983C611.404 603.983 610.523 604.328 609.863 605.018C609.219 605.708 608.897 606.712 608.897 608.031V615H606.804V602.396H608.897V604.19C609.311 603.546 609.871 603.048 610.576 602.695C611.297 602.342 612.087 602.166 612.945 602.166ZM620.734 608.652C620.734 607.364 620.995 606.237 621.516 605.271C622.037 604.29 622.75 603.531 623.655 602.994C624.575 602.457 625.602 602.189 626.737 602.189C627.718 602.189 628.631 602.419 629.474 602.879C630.317 603.324 630.961 603.914 631.406 604.65V597.98H633.522V615H631.406V612.631C630.992 613.382 630.379 614.003 629.566 614.494C628.753 614.969 627.803 615.207 626.714 615.207C625.595 615.207 624.575 614.931 623.655 614.379C622.75 613.827 622.037 613.053 621.516 612.056C620.995 611.059 620.734 609.925 620.734 608.652ZM631.406 608.675C631.406 607.724 631.214 606.896 630.831 606.191C630.448 605.486 629.926 604.949 629.267 604.581C628.623 604.198 627.91 604.006 627.128 604.006C626.346 604.006 625.633 604.19 624.989 604.558C624.345 604.926 623.831 605.463 623.448 606.168C623.065 606.873 622.873 607.701 622.873 608.652C622.873 609.618 623.065 610.461 623.448 611.182C623.831 611.887 624.345 612.432 624.989 612.815C625.633 613.183 626.346 613.367 627.128 613.367C627.91 613.367 628.623 613.183 629.267 612.815C629.926 612.432 630.448 611.887 630.831 611.182C631.214 610.461 631.406 609.626 631.406 608.675ZM649.332 602.166C650.865 602.166 652.107 602.634 653.058 603.569C654.009 604.489 654.484 605.823 654.484 607.571V615H652.414V607.87C652.414 606.613 652.1 605.654 651.471 604.995C650.842 604.32 649.984 603.983 648.895 603.983C647.791 603.983 646.909 604.328 646.25 605.018C645.606 605.708 645.284 606.712 645.284 608.031V615H643.191V602.396H645.284V604.19C645.698 603.546 646.258 603.048 646.963 602.695C647.684 602.342 648.473 602.166 649.332 602.166ZM669.403 608.215C669.403 608.614 669.38 609.035 669.334 609.48H659.26C659.337 610.722 659.758 611.696 660.525 612.401C661.307 613.091 662.25 613.436 663.354 613.436C664.259 613.436 665.01 613.229 665.608 612.815C666.221 612.386 666.651 611.818 666.896 611.113H669.15C668.813 612.324 668.138 613.313 667.126 614.08C666.114 614.831 664.857 615.207 663.354 615.207C662.158 615.207 661.085 614.939 660.134 614.402C659.199 613.865 658.463 613.106 657.926 612.125C657.389 611.128 657.121 609.978 657.121 608.675C657.121 607.372 657.382 606.229 657.903 605.248C658.424 604.267 659.153 603.515 660.088 602.994C661.039 602.457 662.127 602.189 663.354 602.189C664.55 602.189 665.608 602.45 666.528 602.971C667.448 603.492 668.153 604.213 668.644 605.133C669.15 606.038 669.403 607.065 669.403 608.215ZM667.241 607.778C667.241 606.981 667.065 606.298 666.712 605.731C666.359 605.148 665.876 604.711 665.263 604.42C664.665 604.113 663.998 603.96 663.262 603.96C662.204 603.96 661.299 604.297 660.548 604.972C659.812 605.647 659.39 606.582 659.283 607.778H667.241ZM688.956 602.396L685.023 615H682.861L679.825 604.995L676.789 615H674.627L670.671 602.396H672.81L675.708 612.976L678.836 602.396H680.975L684.034 612.999L686.886 602.396H688.956ZM242.233 652.207C241.267 652.207 240.401 652.046 239.634 651.724C238.867 651.387 238.262 650.927 237.817 650.344C237.372 649.746 237.127 649.064 237.081 648.297H239.243C239.304 648.926 239.596 649.439 240.117 649.838C240.654 650.237 241.351 650.436 242.21 650.436C243.007 650.436 243.636 650.26 244.096 649.907C244.556 649.554 244.786 649.11 244.786 648.573C244.786 648.021 244.541 647.615 244.05 647.354C243.559 647.078 242.8 646.81 241.773 646.549C240.838 646.304 240.071 646.058 239.473 645.813C238.89 645.552 238.384 645.177 237.955 644.686C237.541 644.18 237.334 643.521 237.334 642.708C237.334 642.064 237.526 641.474 237.909 640.937C238.292 640.4 238.837 639.979 239.542 639.672C240.247 639.35 241.052 639.189 241.957 639.189C243.352 639.189 244.479 639.542 245.338 640.247C246.197 640.952 246.657 641.918 246.718 643.145H244.625C244.579 642.486 244.311 641.957 243.82 641.558C243.345 641.159 242.701 640.96 241.888 640.96C241.137 640.96 240.539 641.121 240.094 641.443C239.649 641.765 239.427 642.187 239.427 642.708C239.427 643.122 239.557 643.467 239.818 643.743C240.094 644.004 240.431 644.218 240.83 644.387C241.244 644.54 241.811 644.717 242.532 644.916C243.437 645.161 244.173 645.407 244.74 645.652C245.307 645.882 245.79 646.235 246.189 646.71C246.603 647.185 246.818 647.806 246.833 648.573C246.833 649.263 246.641 649.884 246.258 650.436C245.875 650.988 245.33 651.425 244.625 651.747C243.935 652.054 243.138 652.207 242.233 652.207ZM256.826 652L251.881 646.434V652H249.788V634.98H251.881V644.985L256.734 639.396H259.655L253.721 645.675L259.678 652H256.826ZM262.706 637.349C262.307 637.349 261.97 637.211 261.694 636.935C261.418 636.659 261.28 636.322 261.28 635.923C261.28 635.524 261.418 635.187 261.694 634.911C261.97 634.635 262.307 634.497 262.706 634.497C263.089 634.497 263.411 634.635 263.672 634.911C263.948 635.187 264.086 635.524 264.086 635.923C264.086 636.322 263.948 636.659 263.672 636.935C263.411 637.211 263.089 637.349 262.706 637.349ZM263.718 639.396V652H261.625V639.396H263.718ZM269.378 634.98V652H267.285V634.98H269.378ZM275.038 634.98V652H272.945V634.98H275.038ZM283.067 652.207C282.101 652.207 281.235 652.046 280.468 651.724C279.701 651.387 279.096 650.927 278.651 650.344C278.206 649.746 277.961 649.064 277.915 648.297H280.077C280.138 648.926 280.43 649.439 280.951 649.838C281.488 650.237 282.185 650.436 283.044 650.436C283.841 650.436 284.47 650.26 284.93 649.907C285.39 649.554 285.62 649.11 285.62 648.573C285.62 648.021 285.375 647.615 284.884 647.354C284.393 647.078 283.634 646.81 282.607 646.549C281.672 646.304 280.905 646.058 280.307 645.813C279.724 645.552 279.218 645.177 278.789 644.686C278.375 644.18 278.168 643.521 278.168 642.708C278.168 642.064 278.36 641.474 278.743 640.937C279.126 640.4 279.671 639.979 280.376 639.672C281.081 639.35 281.886 639.189 282.791 639.189C284.186 639.189 285.313 639.542 286.172 640.247C287.031 640.952 287.491 641.918 287.552 643.145H285.459C285.413 642.486 285.145 641.957 284.654 641.558C284.179 641.159 283.535 640.96 282.722 640.96C281.971 640.96 281.373 641.121 280.928 641.443C280.483 641.765 280.261 642.187 280.261 642.708C280.261 643.122 280.391 643.467 280.652 643.743C280.928 644.004 281.265 644.218 281.664 644.387C282.078 644.54 282.645 644.717 283.366 644.916C284.271 645.161 285.007 645.407 285.574 645.652C286.141 645.882 286.624 646.235 287.023 646.71C287.437 647.185 287.652 647.806 287.667 648.573C287.667 649.263 287.475 649.884 287.092 650.436C286.709 650.988 286.164 651.425 285.459 651.747C284.769 652.054 283.972 652.207 283.067 652.207ZM301.882 641.121H299.237V652H297.144V641.121H295.511V639.396H297.144V638.499C297.144 637.088 297.505 636.061 298.225 635.417C298.961 634.758 300.134 634.428 301.744 634.428V636.176C300.824 636.176 300.173 636.36 299.789 636.728C299.421 637.081 299.237 637.671 299.237 638.499V639.396H301.882V641.121ZM306.416 641.443C306.784 640.722 307.305 640.163 307.98 639.764C308.67 639.365 309.505 639.166 310.487 639.166V641.328H309.935C307.589 641.328 306.416 642.601 306.416 645.146V652H304.323V639.396H306.416V641.443ZM318.4 652.207C317.219 652.207 316.146 651.939 315.18 651.402C314.229 650.865 313.478 650.106 312.926 649.125C312.389 648.128 312.121 646.978 312.121 645.675C312.121 644.387 312.397 643.252 312.949 642.271C313.516 641.274 314.283 640.515 315.249 639.994C316.215 639.457 317.296 639.189 318.492 639.189C319.688 639.189 320.769 639.457 321.735 639.994C322.701 640.515 323.46 641.267 324.012 642.248C324.579 643.229 324.863 644.372 324.863 645.675C324.863 646.978 324.572 648.128 323.989 649.125C323.422 650.106 322.647 650.865 321.666 651.402C320.685 651.939 319.596 652.207 318.4 652.207ZM318.4 650.367C319.151 650.367 319.857 650.191 320.516 649.838C321.175 649.485 321.704 648.956 322.103 648.251C322.517 647.546 322.724 646.687 322.724 645.675C322.724 644.663 322.525 643.804 322.126 643.099C321.727 642.394 321.206 641.872 320.562 641.535C319.918 641.182 319.22 641.006 318.469 641.006C317.702 641.006 316.997 641.182 316.353 641.535C315.724 641.872 315.218 642.394 314.835 643.099C314.452 643.804 314.26 644.663 314.26 645.675C314.26 646.702 314.444 647.569 314.812 648.274C315.195 648.979 315.701 649.508 316.33 649.861C316.959 650.198 317.649 650.367 318.4 650.367ZM342.772 639.166C343.753 639.166 344.627 639.373 345.394 639.787C346.16 640.186 346.766 640.791 347.211 641.604C347.655 642.417 347.878 643.406 347.878 644.571V652H345.808V644.87C345.808 643.613 345.493 642.654 344.865 641.995C344.251 641.32 343.416 640.983 342.358 640.983C341.269 640.983 340.403 641.336 339.759 642.041C339.115 642.731 338.793 643.735 338.793 645.054V652H336.723V644.87C336.723 643.613 336.408 642.654 335.78 641.995C335.166 641.32 334.331 640.983 333.273 640.983C332.184 640.983 331.318 641.336 330.674 642.041C330.03 642.731 329.708 643.735 329.708 645.054V652H327.615V639.396H329.708V641.213C330.122 640.554 330.674 640.048 331.364 639.695C332.069 639.342 332.843 639.166 333.687 639.166C334.745 639.166 335.68 639.404 336.493 639.879C337.305 640.354 337.911 641.052 338.31 641.972C338.662 641.083 339.245 640.393 340.058 639.902C340.87 639.411 341.775 639.166 342.772 639.166ZM362.94 652.207C361.759 652.207 360.686 651.939 359.72 651.402C358.769 650.865 358.018 650.106 357.466 649.125C356.929 648.128 356.661 646.978 356.661 645.675C356.661 644.387 356.937 643.252 357.489 642.271C358.056 641.274 358.823 640.515 359.789 639.994C360.755 639.457 361.836 639.189 363.032 639.189C364.228 639.189 365.309 639.457 366.275 639.994C367.241 640.515 368 641.267 368.552 642.248C369.119 643.229 369.403 644.372 369.403 645.675C369.403 646.978 369.112 648.128 368.529 649.125C367.962 650.106 367.187 650.865 366.206 651.402C365.225 651.939 364.136 652.207 362.94 652.207ZM362.94 650.367C363.691 650.367 364.397 650.191 365.056 649.838C365.715 649.485 366.244 648.956 366.643 648.251C367.057 647.546 367.264 646.687 367.264 645.675C367.264 644.663 367.065 643.804 366.666 643.099C366.267 642.394 365.746 641.872 365.102 641.535C364.458 641.182 363.76 641.006 363.009 641.006C362.242 641.006 361.537 641.182 360.893 641.535C360.264 641.872 359.758 642.394 359.375 643.099C358.992 643.804 358.8 644.663 358.8 645.675C358.8 646.702 358.984 647.569 359.352 648.274C359.735 648.979 360.241 649.508 360.87 649.861C361.499 650.198 362.189 650.367 362.94 650.367ZM383.333 639.396V652H381.24V650.137C380.841 650.781 380.281 651.287 379.561 651.655C378.855 652.008 378.073 652.184 377.215 652.184C376.233 652.184 375.352 651.985 374.57 651.586C373.788 651.172 373.167 650.559 372.707 649.746C372.262 648.933 372.04 647.944 372.04 646.779V639.396H374.11V646.503C374.11 647.745 374.424 648.703 375.053 649.378C375.681 650.037 376.54 650.367 377.629 650.367C378.748 650.367 379.63 650.022 380.274 649.332C380.918 648.642 381.24 647.638 381.24 646.319V639.396H383.333ZM388.96 641.443C389.328 640.722 389.849 640.163 390.524 639.764C391.214 639.365 392.049 639.166 393.031 639.166V641.328H392.479C390.133 641.328 388.96 642.601 388.96 645.146V652H386.867V639.396H388.96V641.443ZM400.797 645.652C400.797 644.364 401.057 643.237 401.579 642.271C402.1 641.29 402.813 640.531 403.718 639.994C404.638 639.457 405.657 639.189 406.777 639.189C407.881 639.189 408.839 639.427 409.652 639.902C410.464 640.377 411.07 640.975 411.469 641.696V639.396H413.585V652H411.469V649.654C411.055 650.39 410.434 651.003 409.606 651.494C408.793 651.969 407.842 652.207 406.754 652.207C405.634 652.207 404.622 651.931 403.718 651.379C402.813 650.827 402.1 650.053 401.579 649.056C401.057 648.059 400.797 646.925 400.797 645.652ZM411.469 645.675C411.469 644.724 411.277 643.896 410.894 643.191C410.51 642.486 409.989 641.949 409.33 641.581C408.686 641.198 407.973 641.006 407.191 641.006C406.409 641.006 405.696 641.19 405.052 641.558C404.408 641.926 403.894 642.463 403.511 643.168C403.127 643.873 402.936 644.701 402.936 645.652C402.936 646.618 403.127 647.461 403.511 648.182C403.894 648.887 404.408 649.432 405.052 649.815C405.696 650.183 406.409 650.367 407.191 650.367C407.973 650.367 408.686 650.183 409.33 649.815C409.989 649.432 410.51 648.887 410.894 648.182C411.277 647.461 411.469 646.626 411.469 645.675ZM419.215 641.719C419.629 640.998 420.242 640.4 421.055 639.925C421.883 639.434 422.841 639.189 423.93 639.189C425.049 639.189 426.061 639.457 426.966 639.994C427.886 640.531 428.606 641.29 429.128 642.271C429.649 643.237 429.91 644.364 429.91 645.652C429.91 646.925 429.649 648.059 429.128 649.056C428.606 650.053 427.886 650.827 426.966 651.379C426.061 651.931 425.049 652.207 423.93 652.207C422.856 652.207 421.906 651.969 421.078 651.494C420.265 651.003 419.644 650.398 419.215 649.677V657.98H417.122V639.396H419.215V641.719ZM427.771 645.652C427.771 644.701 427.579 643.873 427.196 643.168C426.812 642.463 426.291 641.926 425.632 641.558C424.988 641.19 424.275 641.006 423.493 641.006C422.726 641.006 422.013 641.198 421.354 641.581C420.71 641.949 420.188 642.493 419.79 643.214C419.406 643.919 419.215 644.74 419.215 645.675C419.215 646.626 419.406 647.461 419.79 648.182C420.188 648.887 420.71 649.432 421.354 649.815C422.013 650.183 422.726 650.367 423.493 650.367C424.275 650.367 424.988 650.183 425.632 649.815C426.291 649.432 426.812 648.887 427.196 648.182C427.579 647.461 427.771 646.618 427.771 645.652ZM434.758 641.719C435.172 640.998 435.785 640.4 436.598 639.925C437.426 639.434 438.384 639.189 439.473 639.189C440.592 639.189 441.604 639.457 442.509 639.994C443.429 640.531 444.149 641.29 444.671 642.271C445.192 643.237 445.453 644.364 445.453 645.652C445.453 646.925 445.192 648.059 444.671 649.056C444.149 650.053 443.429 650.827 442.509 651.379C441.604 651.931 440.592 652.207 439.473 652.207C438.399 652.207 437.449 651.969 436.621 651.494C435.808 651.003 435.187 650.398 434.758 649.677V657.98H432.665V639.396H434.758V641.719ZM443.314 645.652C443.314 644.701 443.122 643.873 442.739 643.168C442.355 642.463 441.834 641.926 441.175 641.558C440.531 641.19 439.818 641.006 439.036 641.006C438.269 641.006 437.556 641.198 436.897 641.581C436.253 641.949 435.731 642.493 435.333 643.214C434.949 643.919 434.758 644.74 434.758 645.675C434.758 646.626 434.949 647.461 435.333 648.182C435.731 648.887 436.253 649.432 436.897 649.815C437.556 650.183 438.269 650.367 439.036 650.367C439.818 650.367 440.531 650.183 441.175 649.815C441.834 649.432 442.355 648.887 442.739 648.182C443.122 647.461 443.314 646.618 443.314 645.652ZM448.875 652.138C448.476 652.138 448.139 652 447.863 651.724C447.587 651.448 447.449 651.111 447.449 650.712C447.449 650.313 447.587 649.976 447.863 649.7C448.139 649.424 448.476 649.286 448.875 649.286C449.258 649.286 449.58 649.424 449.841 649.7C450.117 649.976 450.255 650.313 450.255 650.712C450.255 651.111 450.117 651.448 449.841 651.724C449.58 652 449.258 652.138 448.875 652.138Z" fill="white"/>
<defs>
<linearGradient id="paint0_linear" x1="332.414" y1="240.493" x2="684.012" y2="727.973" gradientUnits="userSpaceOnUse">
<stop stop-color="#FF0060"/>
<stop offset="1" stop-color="#FF69A2"/>
</linearGradient>
</defs>
</svg>
