<svg width="1017" height="967" viewBox="0 0 1017 967" fill="none" xmlns="http://www.w3.org/2000/svg">
<path d="M856.997 602.373C822.376 627.581 785.834 650.035 747.731 669.515C687.308 699.93 624.8 725.864 560.739 747.097C506.183 765.737 451.057 782.163 394.096 790.519C357.212 796.658 319.772 796.978 283.188 791.467C237.455 783.616 201.002 762.306 176.555 723.352C146.306 675.077 129.942 619.25 129.157 561.645C128.394 529.759 127.834 497.903 134.558 466.161C144.39 416.72 169.481 371.013 206.34 335.4C264.589 278.978 333.588 247.996 413.431 240.403C486.458 233.379 559.772 236.552 631.2 249.828C669.421 256.913 707.814 263.232 745.388 272.941C798.737 286.295 848.834 309.255 893.211 340.691C906.332 349.121 918.699 358.62 930.187 369.091C940.682 379.733 948.257 392.868 952.237 407.324C960.375 435.931 963.174 464.772 951.524 493.884C943.324 514.221 931.627 533.103 916.964 549.671C899.136 569.51 878.998 587.208 856.997 602.373Z" fill="url(#paint0_linear)" fill-opacity="0.6"/>
<path d="M252.163 415.137L246.015 407.771C244.314 408.196 242.574 408.409 240.795 408.409C237.006 408.409 233.526 407.52 230.355 405.741C227.184 403.962 224.671 401.507 222.815 398.375C220.959 395.204 220.031 391.628 220.031 387.645C220.031 383.701 220.959 380.163 222.815 377.031C224.671 373.86 227.184 371.386 230.355 369.607C233.526 367.828 237.006 366.939 240.795 366.939C244.623 366.939 248.103 367.828 251.235 369.607C254.406 371.386 256.9 373.86 258.717 377.031C260.573 380.163 261.501 383.701 261.501 387.645C261.501 391.241 260.728 394.528 259.181 397.505C257.673 400.444 255.604 402.841 252.975 404.697L262.255 415.137H252.163ZM228.383 387.645C228.383 390.352 228.905 392.73 229.949 394.779C230.993 396.828 232.443 398.414 234.299 399.535C236.194 400.618 238.359 401.159 240.795 401.159C243.231 401.159 245.377 400.618 247.233 399.535C249.089 398.414 250.539 396.828 251.583 394.779C252.627 392.73 253.149 390.352 253.149 387.645C253.149 384.938 252.627 382.58 251.583 380.569C250.539 378.52 249.089 376.954 247.233 375.871C245.377 374.788 243.231 374.247 240.795 374.247C238.359 374.247 236.194 374.788 234.299 375.871C232.443 376.954 230.993 378.52 229.949 380.569C228.905 382.58 228.383 384.938 228.383 387.645ZM297.489 375.871V408.003H289.311V403.943C288.267 405.335 286.895 406.437 285.193 407.249C283.531 408.022 281.713 408.409 279.741 408.409C277.228 408.409 275.005 407.887 273.071 406.843C271.138 405.76 269.611 404.194 268.489 402.145C267.407 400.057 266.865 397.582 266.865 394.721V375.871H274.985V393.561C274.985 396.113 275.623 398.085 276.899 399.477C278.175 400.83 279.915 401.507 282.119 401.507C284.362 401.507 286.121 400.83 287.397 399.477C288.673 398.085 289.311 396.113 289.311 393.561V375.871H297.489ZM309.119 372.043C307.688 372.043 306.49 371.598 305.523 370.709C304.595 369.781 304.131 368.64 304.131 367.287C304.131 365.934 304.595 364.812 305.523 363.923C306.49 362.995 307.688 362.531 309.119 362.531C310.55 362.531 311.729 362.995 312.657 363.923C313.624 364.812 314.107 365.934 314.107 367.287C314.107 368.64 313.624 369.781 312.657 370.709C311.729 371.598 310.55 372.043 309.119 372.043ZM313.121 375.871V408.003H305.001V375.871H313.121ZM318.556 391.937C318.556 388.612 319.232 385.712 320.586 383.237C321.939 380.724 323.814 378.79 326.212 377.437C328.609 376.045 331.354 375.349 334.448 375.349C338.43 375.349 341.717 376.354 344.308 378.365C346.937 380.337 348.696 383.121 349.586 386.717H340.828C340.364 385.325 339.571 384.242 338.45 383.469C337.367 382.657 336.014 382.251 334.39 382.251C332.07 382.251 330.233 383.102 328.88 384.803C327.526 386.466 326.85 388.844 326.85 391.937C326.85 394.992 327.526 397.37 328.88 399.071C330.233 400.734 332.07 401.565 334.39 401.565C337.676 401.565 339.822 400.096 340.828 397.157H349.586C348.696 400.637 346.937 403.402 344.308 405.451C341.678 407.5 338.392 408.525 334.448 408.525C331.354 408.525 328.609 407.848 326.212 406.495C323.814 405.103 321.939 403.17 320.586 400.695C319.232 398.182 318.556 395.262 318.556 391.937ZM374.058 408.003L363.154 394.315V408.003H355.034V365.083H363.154V389.501L373.942 375.871H384.498L370.346 391.995L384.614 408.003H374.058ZM432.872 408.003L428.464 403.653C424.713 407.017 420.131 408.699 414.718 408.699C411.74 408.699 409.111 408.196 406.83 407.191C404.587 406.147 402.847 404.697 401.61 402.841C400.372 400.946 399.754 398.762 399.754 396.287C399.754 393.619 400.508 391.222 402.016 389.095C403.524 386.968 405.747 385.248 408.686 383.933C407.642 382.657 406.888 381.439 406.424 380.279C405.96 379.08 405.728 377.804 405.728 376.451C405.728 374.595 406.211 372.932 407.178 371.463C408.144 369.955 409.517 368.776 411.296 367.925C413.113 367.074 415.22 366.649 417.618 366.649C420.054 366.649 422.142 367.113 423.882 368.041C425.622 368.969 426.917 370.206 427.768 371.753C428.618 373.3 428.986 375.02 428.87 376.915H420.982C421.02 375.639 420.711 374.672 420.054 374.015C419.396 373.319 418.507 372.971 417.386 372.971C416.303 372.971 415.394 373.3 414.66 373.957C413.964 374.576 413.616 375.388 413.616 376.393C413.616 377.36 413.906 378.326 414.486 379.293C415.066 380.221 416.013 381.381 417.328 382.773L427.536 392.865C427.613 392.788 427.671 392.71 427.71 392.633C427.748 392.556 427.787 392.478 427.826 392.401L431.132 386.891H439.6L435.54 394.025C434.766 395.533 433.935 396.964 433.046 398.317L442.848 408.003H432.872ZM414.95 401.971C418.12 401.971 420.924 400.85 423.36 398.607L413.384 388.747C409.633 390.41 407.758 392.768 407.758 395.823C407.758 397.563 408.415 399.032 409.73 400.231C411.044 401.391 412.784 401.971 414.95 401.971ZM473.667 408.409C470.844 408.409 468.292 407.926 466.011 406.959C463.768 405.992 461.989 404.6 460.675 402.783C459.36 400.966 458.683 398.82 458.645 396.345H467.345C467.461 398.008 468.041 399.322 469.085 400.289C470.167 401.256 471.637 401.739 473.493 401.739C475.387 401.739 476.876 401.294 477.959 400.405C479.041 399.477 479.583 398.278 479.583 396.809C479.583 395.61 479.215 394.624 478.481 393.851C477.746 393.078 476.818 392.478 475.697 392.053C474.614 391.589 473.106 391.086 471.173 390.545C468.543 389.772 466.397 389.018 464.735 388.283C463.111 387.51 461.699 386.369 460.501 384.861C459.341 383.314 458.761 381.265 458.761 378.713C458.761 376.316 459.36 374.228 460.559 372.449C461.757 370.67 463.439 369.317 465.605 368.389C467.77 367.422 470.245 366.939 473.029 366.939C477.205 366.939 480.588 367.964 483.179 370.013C485.808 372.024 487.258 374.846 487.529 378.481H478.597C478.519 377.089 477.92 375.948 476.799 375.059C475.716 374.131 474.266 373.667 472.449 373.667C470.863 373.667 469.587 374.073 468.621 374.885C467.693 375.697 467.229 376.876 467.229 378.423C467.229 379.506 467.577 380.414 468.273 381.149C469.007 381.845 469.897 382.425 470.941 382.889C472.023 383.314 473.531 383.817 475.465 384.397C478.094 385.17 480.24 385.944 481.903 386.717C483.565 387.49 484.996 388.65 486.195 390.197C487.393 391.744 487.993 393.774 487.993 396.287C487.993 398.452 487.432 400.463 486.311 402.319C485.189 404.175 483.546 405.664 481.381 406.785C479.215 407.868 476.644 408.409 473.667 408.409ZM512.628 375.407C515.064 375.407 517.23 375.948 519.124 377.031C521.019 378.075 522.488 379.641 523.532 381.729C524.615 383.778 525.156 386.253 525.156 389.153V408.003H517.036V390.255C517.036 387.703 516.398 385.75 515.122 384.397C513.846 383.005 512.106 382.309 509.902 382.309C507.66 382.309 505.881 383.005 504.566 384.397C503.29 385.75 502.652 387.703 502.652 390.255V408.003H494.532V365.083H502.652V379.873C503.696 378.481 505.088 377.398 506.828 376.625C508.568 375.813 510.502 375.407 512.628 375.407ZM546.646 408.525C543.553 408.525 540.769 407.848 538.294 406.495C535.819 405.103 533.867 403.15 532.436 400.637C531.044 398.124 530.348 395.224 530.348 391.937C530.348 388.65 531.063 385.75 532.494 383.237C533.963 380.724 535.955 378.79 538.468 377.437C540.981 376.045 543.785 375.349 546.878 375.349C549.971 375.349 552.775 376.045 555.288 377.437C557.801 378.79 559.773 380.724 561.204 383.237C562.673 385.75 563.408 388.65 563.408 391.937C563.408 395.224 562.654 398.124 561.146 400.637C559.677 403.15 557.666 405.103 555.114 406.495C552.601 407.848 549.778 408.525 546.646 408.525ZM546.646 401.449C548.115 401.449 549.488 401.101 550.764 400.405C552.079 399.67 553.123 398.588 553.896 397.157C554.669 395.726 555.056 393.986 555.056 391.937C555.056 388.882 554.244 386.543 552.62 384.919C551.035 383.256 549.082 382.425 546.762 382.425C544.442 382.425 542.489 383.256 540.904 384.919C539.357 386.543 538.584 388.882 538.584 391.937C538.584 394.992 539.338 397.35 540.846 399.013C542.393 400.637 544.326 401.449 546.646 401.449ZM576.984 380.859C578.028 379.158 579.382 377.824 581.044 376.857C582.746 375.89 584.679 375.407 586.844 375.407V383.933H584.698C582.146 383.933 580.213 384.532 578.898 385.731C577.622 386.93 576.984 389.018 576.984 391.995V408.003H568.864V375.871H576.984V380.859ZM601.268 382.541V398.085C601.268 399.168 601.519 399.96 602.022 400.463C602.563 400.927 603.452 401.159 604.69 401.159H608.46V408.003H603.356C596.512 408.003 593.09 404.678 593.09 398.027V382.541H589.262V375.871H593.09V367.925H601.268V375.871H608.46V382.541H601.268ZM276.117 454.519L264.807 495.003H255.237L247.639 466.177L239.693 495.003L230.181 495.061L219.277 454.519H227.977L235.111 485.955L243.347 454.519H252.395L260.167 485.781L267.359 454.519H276.117ZM310.789 478.241C310.789 479.401 310.712 480.445 310.557 481.373H287.067C287.26 483.693 288.072 485.51 289.503 486.825C290.934 488.14 292.693 488.797 294.781 488.797C297.797 488.797 299.943 487.502 301.219 484.911H309.977C309.049 488.004 307.27 490.556 304.641 492.567C302.012 494.539 298.783 495.525 294.955 495.525C291.862 495.525 289.078 494.848 286.603 493.495C284.167 492.103 282.253 490.15 280.861 487.637C279.508 485.124 278.831 482.224 278.831 478.937C278.831 475.612 279.508 472.692 280.861 470.179C282.214 467.666 284.109 465.732 286.545 464.379C288.981 463.026 291.784 462.349 294.955 462.349C298.01 462.349 300.736 463.006 303.133 464.321C305.569 465.636 307.444 467.511 308.759 469.947C310.112 472.344 310.789 475.109 310.789 478.241ZM302.379 475.921C302.34 473.833 301.586 472.17 300.117 470.933C298.648 469.657 296.85 469.019 294.723 469.019C292.712 469.019 291.011 469.638 289.619 470.875C288.266 472.074 287.434 473.756 287.125 475.921H302.379ZM324.336 452.083V495.003H316.216V452.083H324.336ZM329.77 478.937C329.77 475.612 330.447 472.712 331.8 470.237C333.154 467.724 335.029 465.79 337.426 464.437C339.824 463.045 342.569 462.349 345.662 462.349C349.645 462.349 352.932 463.354 355.522 465.365C358.152 467.337 359.911 470.121 360.8 473.717H352.042C351.578 472.325 350.786 471.242 349.664 470.469C348.582 469.657 347.228 469.251 345.604 469.251C343.284 469.251 341.448 470.102 340.094 471.803C338.741 473.466 338.064 475.844 338.064 478.937C338.064 481.992 338.741 484.37 340.094 486.071C341.448 487.734 343.284 488.565 345.604 488.565C348.891 488.565 351.037 487.096 352.042 484.157H360.8C359.911 487.637 358.152 490.402 355.522 492.451C352.893 494.5 349.606 495.525 345.662 495.525C342.569 495.525 339.824 494.848 337.426 493.495C335.029 492.103 333.154 490.17 331.8 487.695C330.447 485.182 329.77 482.262 329.77 478.937ZM380.517 495.525C377.424 495.525 374.64 494.848 372.165 493.495C369.69 492.103 367.738 490.15 366.307 487.637C364.915 485.124 364.219 482.224 364.219 478.937C364.219 475.65 364.934 472.75 366.365 470.237C367.834 467.724 369.826 465.79 372.339 464.437C374.852 463.045 377.656 462.349 380.749 462.349C383.842 462.349 386.646 463.045 389.159 464.437C391.672 465.79 393.644 467.724 395.075 470.237C396.544 472.75 397.279 475.65 397.279 478.937C397.279 482.224 396.525 485.124 395.017 487.637C393.548 490.15 391.537 492.103 388.985 493.495C386.472 494.848 383.649 495.525 380.517 495.525ZM380.517 488.449C381.986 488.449 383.359 488.101 384.635 487.405C385.95 486.67 386.994 485.588 387.767 484.157C388.54 482.726 388.927 480.986 388.927 478.937C388.927 475.882 388.115 473.543 386.491 471.919C384.906 470.256 382.953 469.425 380.633 469.425C378.313 469.425 376.36 470.256 374.775 471.919C373.228 473.543 372.455 475.882 372.455 478.937C372.455 481.992 373.209 484.35 374.717 486.013C376.264 487.637 378.197 488.449 380.517 488.449ZM442.639 462.407C446.583 462.407 449.754 463.625 452.151 466.061C454.587 468.458 455.805 471.822 455.805 476.153V495.003H447.685V477.255C447.685 474.742 447.047 472.828 445.771 471.513C444.495 470.16 442.755 469.483 440.551 469.483C438.347 469.483 436.588 470.16 435.273 471.513C433.997 472.828 433.359 474.742 433.359 477.255V495.003H425.239V477.255C425.239 474.742 424.601 472.828 423.325 471.513C422.049 470.16 420.309 469.483 418.105 469.483C415.863 469.483 414.084 470.16 412.769 471.513C411.493 472.828 410.855 474.742 410.855 477.255V495.003H402.735V462.871H410.855V466.757C411.899 465.404 413.233 464.34 414.857 463.567C416.52 462.794 418.337 462.407 420.309 462.407C422.823 462.407 425.065 462.948 427.037 464.031C429.009 465.075 430.537 466.583 431.619 468.555C432.663 466.699 434.171 465.21 436.143 464.089C438.154 462.968 440.319 462.407 442.639 462.407ZM467.129 459.043C465.698 459.043 464.499 458.598 463.533 457.709C462.605 456.781 462.141 455.64 462.141 454.287C462.141 452.934 462.605 451.812 463.533 450.923C464.499 449.995 465.698 449.531 467.129 449.531C468.559 449.531 469.739 449.995 470.667 450.923C471.633 451.812 472.117 452.934 472.117 454.287C472.117 455.64 471.633 456.781 470.667 457.709C469.739 458.598 468.559 459.043 467.129 459.043ZM471.131 462.871V495.003H463.011V462.871H471.131ZM496.459 462.407C500.287 462.407 503.381 463.625 505.739 466.061C508.098 468.458 509.277 471.822 509.277 476.153V495.003H501.157V477.255C501.157 474.703 500.519 472.75 499.243 471.397C497.967 470.005 496.227 469.309 494.023 469.309C491.781 469.309 490.002 470.005 488.687 471.397C487.411 472.75 486.773 474.703 486.773 477.255V495.003H478.653V462.871H486.773V466.873C487.856 465.481 489.229 464.398 490.891 463.625C492.593 462.813 494.449 462.407 496.459 462.407ZM529.085 462.349C531.482 462.349 533.59 462.832 535.407 463.799C537.224 464.727 538.655 465.945 539.699 467.453V462.871H547.877V495.235C547.877 498.212 547.278 500.861 546.079 503.181C544.88 505.54 543.082 507.396 540.685 508.749C538.288 510.141 535.388 510.837 531.985 510.837C527.422 510.837 523.672 509.774 520.733 507.647C517.833 505.52 516.19 502.62 515.803 498.947H523.865C524.29 500.416 525.199 501.576 526.591 502.427C528.022 503.316 529.742 503.761 531.753 503.761C534.112 503.761 536.026 503.046 537.495 501.615C538.964 500.223 539.699 498.096 539.699 495.235V490.247C538.655 491.755 537.205 493.012 535.349 494.017C533.532 495.022 531.444 495.525 529.085 495.525C526.378 495.525 523.904 494.829 521.661 493.437C519.418 492.045 517.64 490.092 516.325 487.579C515.049 485.027 514.411 482.108 514.411 478.821C514.411 475.573 515.049 472.692 516.325 470.179C517.64 467.666 519.399 465.732 521.603 464.379C523.846 463.026 526.34 462.349 529.085 462.349ZM539.699 478.937C539.699 476.965 539.312 475.283 538.539 473.891C537.766 472.46 536.722 471.378 535.407 470.643C534.092 469.87 532.681 469.483 531.173 469.483C529.665 469.483 528.273 469.85 526.997 470.585C525.721 471.32 524.677 472.402 523.865 473.833C523.092 475.225 522.705 476.888 522.705 478.821C522.705 480.754 523.092 482.456 523.865 483.925C524.677 485.356 525.721 486.458 526.997 487.231C528.312 488.004 529.704 488.391 531.173 488.391C532.681 488.391 534.092 488.024 535.407 487.289C536.722 486.516 537.766 485.433 538.539 484.041C539.312 482.61 539.699 480.909 539.699 478.937Z" fill="white"/>
<path d="M229.248 561.435H222.256L220.968 565H218.76L224.556 549.061H226.971L232.744 565H230.536L229.248 561.435ZM228.65 559.733L225.752 551.637L222.854 559.733H228.65ZM240.62 558.652C240.62 557.364 240.881 556.237 241.402 555.271C241.923 554.29 242.636 553.531 243.541 552.994C244.461 552.457 245.488 552.189 246.623 552.189C247.712 552.189 248.662 552.434 249.475 552.925C250.303 553.4 250.909 553.991 251.292 554.696V552.396H253.408V570.98H251.292V562.677C250.893 563.382 250.28 563.98 249.452 564.471C248.624 564.962 247.658 565.207 246.554 565.207C245.45 565.207 244.446 564.931 243.541 564.379C242.636 563.827 241.923 563.053 241.402 562.056C240.881 561.059 240.62 559.925 240.62 558.652ZM251.292 558.675C251.292 557.724 251.1 556.896 250.717 556.191C250.334 555.486 249.812 554.949 249.153 554.581C248.509 554.198 247.796 554.006 247.014 554.006C246.232 554.006 245.519 554.19 244.875 554.558C244.231 554.926 243.717 555.463 243.334 556.168C242.951 556.873 242.759 557.701 242.759 558.652C242.759 559.618 242.951 560.461 243.334 561.182C243.717 561.887 244.231 562.432 244.875 562.815C245.519 563.183 246.232 563.367 247.014 563.367C247.796 563.367 248.509 563.183 249.153 562.815C249.812 562.432 250.334 561.887 250.717 561.182C251.1 560.461 251.292 559.626 251.292 558.675ZM268.123 552.396V565H266.03V563.137C265.631 563.781 265.071 564.287 264.351 564.655C263.645 565.008 262.863 565.184 262.005 565.184C261.023 565.184 260.142 564.985 259.36 564.586C258.578 564.172 257.957 563.559 257.497 562.746C257.052 561.933 256.83 560.944 256.83 559.779V552.396H258.9V559.503C258.9 560.745 259.214 561.703 259.843 562.378C260.471 563.037 261.33 563.367 262.419 563.367C263.538 563.367 264.42 563.022 265.064 562.332C265.708 561.642 266.03 560.638 266.03 559.319V552.396H268.123ZM272.738 550.349C272.339 550.349 272.002 550.211 271.726 549.935C271.45 549.659 271.312 549.322 271.312 548.923C271.312 548.524 271.45 548.187 271.726 547.911C272.002 547.635 272.339 547.497 272.738 547.497C273.121 547.497 273.443 547.635 273.704 547.911C273.98 548.187 274.118 548.524 274.118 548.923C274.118 549.322 273.98 549.659 273.704 549.935C273.443 550.211 273.121 550.349 272.738 550.349ZM273.75 552.396V565H271.657V552.396H273.75ZM276.535 558.675C276.535 557.372 276.796 556.237 277.317 555.271C277.838 554.29 278.559 553.531 279.479 552.994C280.414 552.457 281.48 552.189 282.676 552.189C284.225 552.189 285.497 552.565 286.494 553.316C287.506 554.067 288.173 555.11 288.495 556.444H286.241C286.026 555.677 285.605 555.072 284.976 554.627C284.363 554.182 283.596 553.96 282.676 553.96C281.48 553.96 280.514 554.374 279.778 555.202C279.042 556.015 278.674 557.172 278.674 558.675C278.674 560.193 279.042 561.366 279.778 562.194C280.514 563.022 281.48 563.436 282.676 563.436C283.596 563.436 284.363 563.221 284.976 562.792C285.589 562.363 286.011 561.749 286.241 560.952H288.495C288.158 562.24 287.483 563.275 286.471 564.057C285.459 564.824 284.194 565.207 282.676 565.207C281.48 565.207 280.414 564.939 279.479 564.402C278.559 563.865 277.838 563.106 277.317 562.125C276.796 561.144 276.535 559.994 276.535 558.675ZM298.326 565L293.381 559.434V565H291.288V547.98H293.381V557.985L298.234 552.396H301.155L295.221 558.675L301.178 565H298.326ZM314.753 565.207C313.573 565.207 312.499 564.939 311.533 564.402C310.583 563.865 309.831 563.106 309.279 562.125C308.743 561.128 308.474 559.978 308.474 558.675C308.474 557.387 308.75 556.252 309.302 555.271C309.87 554.274 310.636 553.515 311.602 552.994C312.568 552.457 313.649 552.189 314.845 552.189C316.041 552.189 317.122 552.457 318.088 552.994C319.054 553.515 319.813 554.267 320.365 555.248C320.933 556.229 321.216 557.372 321.216 558.675C321.216 559.978 320.925 561.128 320.342 562.125C319.775 563.106 319.001 563.865 318.019 564.402C317.038 564.939 315.949 565.207 314.753 565.207ZM314.753 563.367C315.505 563.367 316.21 563.191 316.869 562.838C317.529 562.485 318.058 561.956 318.456 561.251C318.87 560.546 319.077 559.687 319.077 558.675C319.077 557.663 318.878 556.804 318.479 556.099C318.081 555.394 317.559 554.872 316.915 554.535C316.271 554.182 315.574 554.006 314.822 554.006C314.056 554.006 313.35 554.182 312.706 554.535C312.078 554.872 311.572 555.394 311.188 556.099C310.805 556.804 310.613 557.663 310.613 558.675C310.613 559.702 310.797 560.569 311.165 561.274C311.549 561.979 312.055 562.508 312.683 562.861C313.312 563.198 314.002 563.367 314.753 563.367ZM328.66 563.068L332.57 552.396H334.801L329.856 565H327.418L322.473 552.396H324.727L328.66 563.068ZM348.361 558.215C348.361 558.614 348.338 559.035 348.292 559.48H338.218C338.295 560.722 338.716 561.696 339.483 562.401C340.265 563.091 341.208 563.436 342.312 563.436C343.217 563.436 343.968 563.229 344.566 562.815C345.179 562.386 345.609 561.818 345.854 561.113H348.108C347.771 562.324 347.096 563.313 346.084 564.08C345.072 564.831 343.815 565.207 342.312 565.207C341.116 565.207 340.043 564.939 339.092 564.402C338.157 563.865 337.421 563.106 336.884 562.125C336.347 561.128 336.079 559.978 336.079 558.675C336.079 557.372 336.34 556.229 336.861 555.248C337.382 554.267 338.111 553.515 339.046 552.994C339.997 552.457 341.085 552.189 342.312 552.189C343.508 552.189 344.566 552.45 345.486 552.971C346.406 553.492 347.111 554.213 347.602 555.133C348.108 556.038 348.361 557.065 348.361 558.215ZM346.199 557.778C346.199 556.981 346.023 556.298 345.67 555.731C345.317 555.148 344.834 554.711 344.221 554.42C343.623 554.113 342.956 553.96 342.22 553.96C341.162 553.96 340.257 554.297 339.506 554.972C338.77 555.647 338.348 556.582 338.241 557.778H346.199ZM353.217 554.443C353.585 553.722 354.106 553.163 354.781 552.764C355.471 552.365 356.306 552.166 357.288 552.166V554.328H356.736C354.39 554.328 353.217 555.601 353.217 558.146V565H351.124V552.396H353.217V554.443ZM364.396 563.068L368.306 552.396H370.537L365.592 565H363.154L358.209 552.396H360.463L364.396 563.068ZM373.677 550.349C373.279 550.349 372.941 550.211 372.665 549.935C372.389 549.659 372.251 549.322 372.251 548.923C372.251 548.524 372.389 548.187 372.665 547.911C372.941 547.635 373.279 547.497 373.677 547.497C374.061 547.497 374.383 547.635 374.643 547.911C374.919 548.187 375.057 548.524 375.057 548.923C375.057 549.322 374.919 549.659 374.643 549.935C374.383 550.211 374.061 550.349 373.677 550.349ZM374.689 552.396V565H372.596V552.396H374.689ZM389.756 558.215C389.756 558.614 389.733 559.035 389.687 559.48H379.613C379.69 560.722 380.112 561.696 380.878 562.401C381.66 563.091 382.603 563.436 383.707 563.436C384.612 563.436 385.363 563.229 385.961 562.815C386.575 562.386 387.004 561.818 387.249 561.113H389.503C389.166 562.324 388.491 563.313 387.479 564.08C386.467 564.831 385.21 565.207 383.707 565.207C382.511 565.207 381.438 564.939 380.487 564.402C379.552 563.865 378.816 563.106 378.279 562.125C377.743 561.128 377.474 559.978 377.474 558.675C377.474 557.372 377.735 556.229 378.256 555.248C378.778 554.267 379.506 553.515 380.441 552.994C381.392 552.457 382.481 552.189 383.707 552.189C384.903 552.189 385.961 552.45 386.881 552.971C387.801 553.492 388.507 554.213 388.997 555.133C389.503 556.038 389.756 557.065 389.756 558.215ZM387.594 557.778C387.594 556.981 387.418 556.298 387.065 555.731C386.713 555.148 386.23 554.711 385.616 554.42C385.018 554.113 384.351 553.96 383.615 553.96C382.557 553.96 381.653 554.297 380.901 554.972C380.165 555.647 379.744 556.582 379.636 557.778H387.594ZM409.309 552.396L405.376 565H403.214L400.178 554.995L397.142 565H394.98L391.024 552.396H393.163L396.061 562.976L399.189 552.396H401.328L404.387 562.999L407.239 552.396H409.309ZM423.015 565.207C421.834 565.207 420.761 564.939 419.795 564.402C418.844 563.865 418.093 563.106 417.541 562.125C417.004 561.128 416.736 559.978 416.736 558.675C416.736 557.387 417.012 556.252 417.564 555.271C418.131 554.274 418.898 553.515 419.864 552.994C420.83 552.457 421.911 552.189 423.107 552.189C424.303 552.189 425.384 552.457 426.35 552.994C427.316 553.515 428.075 554.267 428.627 555.248C429.194 556.229 429.478 557.372 429.478 558.675C429.478 559.978 429.187 561.128 428.604 562.125C428.037 563.106 427.262 563.865 426.281 564.402C425.3 564.939 424.211 565.207 423.015 565.207ZM423.015 563.367C423.766 563.367 424.472 563.191 425.131 562.838C425.79 562.485 426.319 561.956 426.718 561.251C427.132 560.546 427.339 559.687 427.339 558.675C427.339 557.663 427.14 556.804 426.741 556.099C426.342 555.394 425.821 554.872 425.177 554.535C424.533 554.182 423.835 554.006 423.084 554.006C422.317 554.006 421.612 554.182 420.968 554.535C420.339 554.872 419.833 555.394 419.45 556.099C419.067 556.804 418.875 557.663 418.875 558.675C418.875 559.702 419.059 560.569 419.427 561.274C419.81 561.979 420.316 562.508 420.945 562.861C421.574 563.198 422.264 563.367 423.015 563.367ZM437.359 554.121H434.714V565H432.621V554.121H430.988V552.396H432.621V551.499C432.621 550.088 432.981 549.061 433.702 548.417C434.438 547.758 435.611 547.428 437.221 547.428V549.176C436.301 549.176 435.649 549.36 435.266 549.728C434.898 550.081 434.714 550.671 434.714 551.499V552.396H437.359V554.121ZM448.484 554.121V561.55C448.484 562.163 448.614 562.6 448.875 562.861C449.136 563.106 449.588 563.229 450.232 563.229H451.773V565H449.887C448.722 565 447.848 564.732 447.265 564.195C446.682 563.658 446.391 562.777 446.391 561.55V554.121H444.758V552.396H446.391V549.222H448.484V552.396H451.773V554.121H448.484ZM460.565 552.166C461.516 552.166 462.374 552.373 463.141 552.787C463.908 553.186 464.506 553.791 464.935 554.604C465.38 555.417 465.602 556.406 465.602 557.571V565H463.532V557.87C463.532 556.613 463.218 555.654 462.589 554.995C461.96 554.32 461.102 553.983 460.013 553.983C458.909 553.983 458.027 554.328 457.368 555.018C456.724 555.708 456.402 556.712 456.402 558.031V565H454.309V547.98H456.402V554.19C456.816 553.546 457.383 553.048 458.104 552.695C458.84 552.342 459.66 552.166 460.565 552.166ZM480.521 558.215C480.521 558.614 480.498 559.035 480.452 559.48H470.378C470.455 560.722 470.876 561.696 471.643 562.401C472.425 563.091 473.368 563.436 474.472 563.436C475.377 563.436 476.128 563.229 476.726 562.815C477.339 562.386 477.769 561.818 478.014 561.113H480.268C479.931 562.324 479.256 563.313 478.244 564.08C477.232 564.831 475.975 565.207 474.472 565.207C473.276 565.207 472.203 564.939 471.252 564.402C470.317 563.865 469.581 563.106 469.044 562.125C468.507 561.128 468.239 559.978 468.239 558.675C468.239 557.372 468.5 556.229 469.021 555.248C469.542 554.267 470.271 553.515 471.206 552.994C472.157 552.457 473.245 552.189 474.472 552.189C475.668 552.189 476.726 552.45 477.646 552.971C478.566 553.492 479.271 554.213 479.762 555.133C480.268 556.038 480.521 557.065 480.521 558.215ZM478.359 557.778C478.359 556.981 478.183 556.298 477.83 555.731C477.477 555.148 476.994 554.711 476.381 554.42C475.783 554.113 475.116 553.96 474.38 553.96C473.322 553.96 472.417 554.297 471.666 554.972C470.93 555.647 470.508 556.582 470.401 557.778H478.359ZM504.573 552.166C505.554 552.166 506.428 552.373 507.195 552.787C507.961 553.186 508.567 553.791 509.012 554.604C509.456 555.417 509.679 556.406 509.679 557.571V565H507.609V557.87C507.609 556.613 507.294 555.654 506.666 554.995C506.052 554.32 505.217 553.983 504.159 553.983C503.07 553.983 502.204 554.336 501.56 555.041C500.916 555.731 500.594 556.735 500.594 558.054V565H498.524V557.87C498.524 556.613 498.209 555.654 497.581 554.995C496.967 554.32 496.132 553.983 495.074 553.983C493.985 553.983 493.119 554.336 492.475 555.041C491.831 555.731 491.509 556.735 491.509 558.054V565H489.416V552.396H491.509V554.213C491.923 553.554 492.475 553.048 493.165 552.695C493.87 552.342 494.644 552.166 495.488 552.166C496.546 552.166 497.481 552.404 498.294 552.879C499.106 553.354 499.712 554.052 500.111 554.972C500.463 554.083 501.046 553.393 501.859 552.902C502.671 552.411 503.576 552.166 504.573 552.166ZM512.33 558.652C512.33 557.364 512.59 556.237 513.112 555.271C513.633 554.29 514.346 553.531 515.251 552.994C516.171 552.457 517.19 552.189 518.31 552.189C519.414 552.189 520.372 552.427 521.185 552.902C521.997 553.377 522.603 553.975 523.002 554.696V552.396H525.118V565H523.002V562.654C522.588 563.39 521.967 564.003 521.139 564.494C520.326 564.969 519.375 565.207 518.287 565.207C517.167 565.207 516.155 564.931 515.251 564.379C514.346 563.827 513.633 563.053 513.112 562.056C512.59 561.059 512.33 559.925 512.33 558.652ZM523.002 558.675C523.002 557.724 522.81 556.896 522.427 556.191C522.043 555.486 521.522 554.949 520.863 554.581C520.219 554.198 519.506 554.006 518.724 554.006C517.942 554.006 517.229 554.19 516.585 554.558C515.941 554.926 515.427 555.463 515.044 556.168C514.66 556.873 514.469 557.701 514.469 558.652C514.469 559.618 514.66 560.461 515.044 561.182C515.427 561.887 515.941 562.432 516.585 562.815C517.229 563.183 517.942 563.367 518.724 563.367C519.506 563.367 520.219 563.183 520.863 562.815C521.522 562.432 522.043 561.887 522.427 561.182C522.81 560.461 523.002 559.626 523.002 558.675ZM529.736 550.349C529.337 550.349 529 550.211 528.724 549.935C528.448 549.659 528.31 549.322 528.31 548.923C528.31 548.524 528.448 548.187 528.724 547.911C529 547.635 529.337 547.497 529.736 547.497C530.119 547.497 530.441 547.635 530.702 547.911C530.978 548.187 531.116 548.524 531.116 548.923C531.116 549.322 530.978 549.659 530.702 549.935C530.441 550.211 530.119 550.349 529.736 550.349ZM530.748 552.396V565H528.655V552.396H530.748ZM540.456 552.166C541.989 552.166 543.231 552.634 544.182 553.569C545.133 554.489 545.608 555.823 545.608 557.571V565H543.538V557.87C543.538 556.613 543.224 555.654 542.595 554.995C541.966 554.32 541.108 553.983 540.019 553.983C538.915 553.983 538.033 554.328 537.374 555.018C536.73 555.708 536.408 556.712 536.408 558.031V565H534.315V552.396H536.408V554.19C536.822 553.546 537.382 553.048 538.087 552.695C538.808 552.342 539.597 552.166 540.456 552.166ZM560.288 554.121H557.643V565H555.55V554.121H553.917V552.396H555.55V551.499C555.55 550.088 555.91 549.061 556.631 548.417C557.367 547.758 558.54 547.428 560.15 547.428V549.176C559.23 549.176 558.578 549.36 558.195 549.728C557.827 550.081 557.643 550.671 557.643 551.499V552.396H560.288V554.121ZM574.228 558.215C574.228 558.614 574.205 559.035 574.159 559.48H564.085C564.162 560.722 564.583 561.696 565.35 562.401C566.132 563.091 567.075 563.436 568.179 563.436C569.084 563.436 569.835 563.229 570.433 562.815C571.046 562.386 571.476 561.818 571.721 561.113H573.975C573.638 562.324 572.963 563.313 571.951 564.08C570.939 564.831 569.682 565.207 568.179 565.207C566.983 565.207 565.91 564.939 564.959 564.402C564.024 563.865 563.288 563.106 562.751 562.125C562.214 561.128 561.946 559.978 561.946 558.675C561.946 557.372 562.207 556.229 562.728 555.248C563.249 554.267 563.978 553.515 564.913 552.994C565.864 552.457 566.952 552.189 568.179 552.189C569.375 552.189 570.433 552.45 571.353 552.971C572.273 553.492 572.978 554.213 573.469 555.133C573.975 556.038 574.228 557.065 574.228 558.215ZM572.066 557.778C572.066 556.981 571.89 556.298 571.537 555.731C571.184 555.148 570.701 554.711 570.088 554.42C569.49 554.113 568.823 553.96 568.087 553.96C567.029 553.96 566.124 554.297 565.373 554.972C564.637 555.647 564.215 556.582 564.108 557.778H572.066ZM576.209 558.652C576.209 557.364 576.469 556.237 576.991 555.271C577.512 554.29 578.225 553.531 579.13 552.994C580.05 552.457 581.069 552.189 582.189 552.189C583.293 552.189 584.251 552.427 585.064 552.902C585.876 553.377 586.482 553.975 586.881 554.696V552.396H588.997V565H586.881V562.654C586.467 563.39 585.846 564.003 585.018 564.494C584.205 564.969 583.254 565.207 582.166 565.207C581.046 565.207 580.034 564.931 579.13 564.379C578.225 563.827 577.512 563.053 576.991 562.056C576.469 561.059 576.209 559.925 576.209 558.652ZM586.881 558.675C586.881 557.724 586.689 556.896 586.306 556.191C585.922 555.486 585.401 554.949 584.742 554.581C584.098 554.198 583.385 554.006 582.603 554.006C581.821 554.006 581.108 554.19 580.464 554.558C579.82 554.926 579.306 555.463 578.923 556.168C578.539 556.873 578.348 557.701 578.348 558.652C578.348 559.618 578.539 560.461 578.923 561.182C579.306 561.887 579.82 562.432 580.464 562.815C581.108 563.183 581.821 563.367 582.603 563.367C583.385 563.367 584.098 563.183 584.742 562.815C585.401 562.432 585.922 561.887 586.306 561.182C586.689 560.461 586.881 559.626 586.881 558.675ZM595.087 554.121V561.55C595.087 562.163 595.217 562.6 595.478 562.861C595.738 563.106 596.191 563.229 596.835 563.229H598.376V565H596.49C595.324 565 594.45 564.732 593.868 564.195C593.285 563.658 592.994 562.777 592.994 561.55V554.121H591.361V552.396H592.994V549.222H595.087V552.396H598.376V554.121H595.087ZM612.09 552.396V565H609.997V563.137C609.598 563.781 609.038 564.287 608.318 564.655C607.612 565.008 606.83 565.184 605.972 565.184C604.99 565.184 604.109 564.985 603.327 564.586C602.545 564.172 601.924 563.559 601.464 562.746C601.019 561.933 600.797 560.944 600.797 559.779V552.396H602.867V559.503C602.867 560.745 603.181 561.703 603.81 562.378C604.438 563.037 605.297 563.367 606.386 563.367C607.505 563.367 608.387 563.022 609.031 562.332C609.675 561.642 609.997 560.638 609.997 559.319V552.396H612.09ZM617.717 554.443C618.085 553.722 618.606 553.163 619.281 552.764C619.971 552.365 620.806 552.166 621.788 552.166V554.328H621.236C618.89 554.328 617.717 555.601 617.717 558.146V565H615.624V552.396H617.717V554.443ZM635.704 558.215C635.704 558.614 635.681 559.035 635.635 559.48H625.561C625.637 560.722 626.059 561.696 626.826 562.401C627.608 563.091 628.551 563.436 629.655 563.436C630.559 563.436 631.311 563.229 631.909 562.815C632.522 562.386 632.951 561.818 633.197 561.113H635.451C635.113 562.324 634.439 563.313 633.427 564.08C632.415 564.831 631.157 565.207 629.655 565.207C628.459 565.207 627.385 564.939 626.435 564.402C625.499 563.865 624.763 563.106 624.227 562.125C623.69 561.128 623.422 559.978 623.422 558.675C623.422 557.372 623.682 556.229 624.204 555.248C624.725 554.267 625.453 553.515 626.389 552.994C627.339 552.457 628.428 552.189 629.655 552.189C630.851 552.189 631.909 552.45 632.829 552.971C633.749 553.492 634.454 554.213 634.945 555.133C635.451 556.038 635.704 557.065 635.704 558.215ZM633.542 557.778C633.542 556.981 633.365 556.298 633.013 555.731C632.66 555.148 632.177 554.711 631.564 554.42C630.966 554.113 630.299 553.96 629.563 553.96C628.505 553.96 627.6 554.297 626.849 554.972C626.113 555.647 625.691 556.582 625.584 557.778H633.542ZM642.928 565.207C641.962 565.207 641.096 565.046 640.329 564.724C639.563 564.387 638.957 563.927 638.512 563.344C638.068 562.746 637.822 562.064 637.776 561.297H639.938C640 561.926 640.291 562.439 640.812 562.838C641.349 563.237 642.047 563.436 642.905 563.436C643.703 563.436 644.331 563.26 644.791 562.907C645.251 562.554 645.481 562.11 645.481 561.573C645.481 561.021 645.236 560.615 644.745 560.354C644.255 560.078 643.496 559.81 642.468 559.549C641.533 559.304 640.766 559.058 640.168 558.813C639.586 558.552 639.08 558.177 638.65 557.686C638.236 557.18 638.029 556.521 638.029 555.708C638.029 555.064 638.221 554.474 638.604 553.937C638.988 553.4 639.532 552.979 640.237 552.672C640.943 552.35 641.748 552.189 642.652 552.189C644.048 552.189 645.175 552.542 646.033 553.247C646.892 553.952 647.352 554.918 647.413 556.145H645.32C645.274 555.486 645.006 554.957 644.515 554.558C644.04 554.159 643.396 553.96 642.583 553.96C641.832 553.96 641.234 554.121 640.789 554.443C640.345 554.765 640.122 555.187 640.122 555.708C640.122 556.122 640.253 556.467 640.513 556.743C640.789 557.004 641.127 557.218 641.525 557.387C641.939 557.54 642.507 557.717 643.227 557.916C644.132 558.161 644.868 558.407 645.435 558.652C646.003 558.882 646.486 559.235 646.884 559.71C647.298 560.185 647.513 560.806 647.528 561.573C647.528 562.263 647.337 562.884 646.953 563.436C646.57 563.988 646.026 564.425 645.32 564.747C644.63 565.054 643.833 565.207 642.928 565.207ZM657.696 550.349C657.297 550.349 656.96 550.211 656.684 549.935C656.408 549.659 656.27 549.322 656.27 548.923C656.27 548.524 656.408 548.187 656.684 547.911C656.96 547.635 657.297 547.497 657.696 547.497C658.079 547.497 658.401 547.635 658.662 547.911C658.938 548.187 659.076 548.524 659.076 548.923C659.076 549.322 658.938 549.659 658.662 549.935C658.401 550.211 658.079 550.349 657.696 550.349ZM658.708 552.396V565H656.615V552.396H658.708ZM668.416 552.166C669.949 552.166 671.191 552.634 672.142 553.569C673.093 554.489 673.568 555.823 673.568 557.571V565H671.498V557.87C671.498 556.613 671.184 555.654 670.555 554.995C669.926 554.32 669.068 553.983 667.979 553.983C666.875 553.983 665.993 554.328 665.334 555.018C664.69 555.708 664.368 556.712 664.368 558.031V565H662.275V552.396H664.368V554.19C664.782 553.546 665.342 553.048 666.047 552.695C666.768 552.342 667.557 552.166 668.416 552.166ZM685.672 554.121V561.55C685.672 562.163 685.802 562.6 686.063 562.861C686.323 563.106 686.776 563.229 687.42 563.229H688.961V565H687.075C685.909 565 685.035 564.732 684.453 564.195C683.87 563.658 683.579 562.777 683.579 561.55V554.121H681.946V552.396H683.579V549.222H685.672V552.396H688.961V554.121H685.672ZM697.753 552.166C698.703 552.166 699.562 552.373 700.329 552.787C701.095 553.186 701.693 553.791 702.123 554.604C702.567 555.417 702.79 556.406 702.79 557.571V565H700.72V557.87C700.72 556.613 700.405 555.654 699.777 554.995C699.148 554.32 698.289 553.983 697.201 553.983C696.097 553.983 695.215 554.328 694.556 555.018C693.912 555.708 693.59 556.712 693.59 558.031V565H691.497V547.98H693.59V554.19C694.004 553.546 694.571 553.048 695.292 552.695C696.028 552.342 696.848 552.166 697.753 552.166ZM717.709 558.215C717.709 558.614 717.686 559.035 717.64 559.48H707.566C707.642 560.722 708.064 561.696 708.831 562.401C709.613 563.091 710.556 563.436 711.66 563.436C712.564 563.436 713.316 563.229 713.914 562.815C714.527 562.386 714.956 561.818 715.202 561.113H717.456C717.118 562.324 716.444 563.313 715.432 564.08C714.42 564.831 713.162 565.207 711.66 565.207C710.464 565.207 709.39 564.939 708.44 564.402C707.504 563.865 706.768 563.106 706.232 562.125C705.695 561.128 705.427 559.978 705.427 558.675C705.427 557.372 705.687 556.229 706.209 555.248C706.73 554.267 707.458 553.515 708.394 552.994C709.344 552.457 710.433 552.189 711.66 552.189C712.856 552.189 713.914 552.45 714.834 552.971C715.754 553.492 716.459 554.213 716.95 555.133C717.456 556.038 717.709 557.065 717.709 558.215ZM715.547 557.778C715.547 556.981 715.37 556.298 715.018 555.731C714.665 555.148 714.182 554.711 713.569 554.42C712.971 554.113 712.304 553.96 711.568 553.96C710.51 553.96 709.605 554.297 708.854 554.972C708.118 555.647 707.696 556.582 707.589 557.778H715.547ZM218.99 595.652C218.99 594.364 219.251 593.237 219.772 592.271C220.293 591.29 221.006 590.531 221.911 589.994C222.831 589.457 223.851 589.189 224.97 589.189C226.074 589.189 227.032 589.427 227.845 589.902C228.658 590.377 229.263 590.975 229.662 591.696V589.396H231.778V602H229.662V599.654C229.248 600.39 228.627 601.003 227.799 601.494C226.986 601.969 226.036 602.207 224.947 602.207C223.828 602.207 222.816 601.931 221.911 601.379C221.006 600.827 220.293 600.053 219.772 599.056C219.251 598.059 218.99 596.925 218.99 595.652ZM229.662 595.675C229.662 594.724 229.47 593.896 229.087 593.191C228.704 592.486 228.182 591.949 227.523 591.581C226.879 591.198 226.166 591.006 225.384 591.006C224.602 591.006 223.889 591.19 223.245 591.558C222.601 591.926 222.087 592.463 221.704 593.168C221.321 593.873 221.129 594.701 221.129 595.652C221.129 596.618 221.321 597.461 221.704 598.182C222.087 598.887 222.601 599.432 223.245 599.815C223.889 600.183 224.602 600.367 225.384 600.367C226.166 600.367 226.879 600.183 227.523 599.815C228.182 599.432 228.704 598.887 229.087 598.182C229.47 597.461 229.662 596.626 229.662 595.675ZM237.408 591.719C237.822 590.998 238.435 590.4 239.248 589.925C240.076 589.434 241.034 589.189 242.123 589.189C243.242 589.189 244.254 589.457 245.159 589.994C246.079 590.531 246.8 591.29 247.321 592.271C247.842 593.237 248.103 594.364 248.103 595.652C248.103 596.925 247.842 598.059 247.321 599.056C246.8 600.053 246.079 600.827 245.159 601.379C244.254 601.931 243.242 602.207 242.123 602.207C241.05 602.207 240.099 601.969 239.271 601.494C238.458 601.003 237.837 600.398 237.408 599.677V607.98H235.315V589.396H237.408V591.719ZM245.964 595.652C245.964 594.701 245.772 593.873 245.389 593.168C245.006 592.463 244.484 591.926 243.825 591.558C243.181 591.19 242.468 591.006 241.686 591.006C240.919 591.006 240.206 591.198 239.547 591.581C238.903 591.949 238.382 592.493 237.983 593.214C237.6 593.919 237.408 594.74 237.408 595.675C237.408 596.626 237.6 597.461 237.983 598.182C238.382 598.887 238.903 599.432 239.547 599.815C240.206 600.183 240.919 600.367 241.686 600.367C242.468 600.367 243.181 600.183 243.825 599.815C244.484 599.432 245.006 598.887 245.389 598.182C245.772 597.461 245.964 596.618 245.964 595.652ZM252.951 591.719C253.365 590.998 253.978 590.4 254.791 589.925C255.619 589.434 256.577 589.189 257.666 589.189C258.785 589.189 259.797 589.457 260.702 589.994C261.622 590.531 262.343 591.29 262.864 592.271C263.385 593.237 263.646 594.364 263.646 595.652C263.646 596.925 263.385 598.059 262.864 599.056C262.343 600.053 261.622 600.827 260.702 601.379C259.797 601.931 258.785 602.207 257.666 602.207C256.593 602.207 255.642 601.969 254.814 601.494C254.001 601.003 253.38 600.398 252.951 599.677V607.98H250.858V589.396H252.951V591.719ZM261.507 595.652C261.507 594.701 261.315 593.873 260.932 593.168C260.549 592.463 260.027 591.926 259.368 591.558C258.724 591.19 258.011 591.006 257.229 591.006C256.462 591.006 255.749 591.198 255.09 591.581C254.446 591.949 253.925 592.493 253.526 593.214C253.143 593.919 252.951 594.74 252.951 595.675C252.951 596.626 253.143 597.461 253.526 598.182C253.925 598.887 254.446 599.432 255.09 599.815C255.749 600.183 256.462 600.367 257.229 600.367C258.011 600.367 258.724 600.183 259.368 599.815C260.027 599.432 260.549 598.887 260.932 598.182C261.315 597.461 261.507 596.618 261.507 595.652ZM268.563 599.102L265.987 605.289H264.584L266.263 599.102H268.563ZM279.185 591.719C279.599 590.998 280.213 590.4 281.025 589.925C281.853 589.434 282.812 589.189 283.9 589.189C285.02 589.189 286.032 589.457 286.936 589.994C287.856 590.531 288.577 591.29 289.098 592.271C289.62 593.237 289.88 594.364 289.88 595.652C289.88 596.925 289.62 598.059 289.098 599.056C288.577 600.053 287.856 600.827 286.936 601.379C286.032 601.931 285.02 602.207 283.9 602.207C282.827 602.207 281.876 601.969 281.048 601.494C280.236 601.003 279.615 600.398 279.185 599.677V607.98H277.092V589.396H279.185V591.719ZM287.741 595.652C287.741 594.701 287.55 593.873 287.166 593.168C286.783 592.463 286.262 591.926 285.602 591.558C284.958 591.19 284.245 591.006 283.463 591.006C282.697 591.006 281.984 591.198 281.324 591.581C280.68 591.949 280.159 592.493 279.76 593.214C279.377 593.919 279.185 594.74 279.185 595.675C279.185 596.626 279.377 597.461 279.76 598.182C280.159 598.887 280.68 599.432 281.324 599.815C281.984 600.183 282.697 600.367 283.463 600.367C284.245 600.367 284.958 600.183 285.602 599.815C286.262 599.432 286.783 598.887 287.166 598.182C287.55 597.461 287.741 596.618 287.741 595.652ZM294.728 591.443C295.096 590.722 295.618 590.163 296.292 589.764C296.982 589.365 297.818 589.166 298.799 589.166V591.328H298.247C295.901 591.328 294.728 592.601 294.728 595.146V602H292.635V589.396H294.728V591.443ZM306.712 602.207C305.532 602.207 304.458 601.939 303.492 601.402C302.542 600.865 301.79 600.106 301.238 599.125C300.702 598.128 300.433 596.978 300.433 595.675C300.433 594.387 300.709 593.252 301.261 592.271C301.829 591.274 302.595 590.515 303.561 589.994C304.527 589.457 305.608 589.189 306.804 589.189C308 589.189 309.081 589.457 310.047 589.994C311.013 590.515 311.772 591.267 312.324 592.248C312.892 593.229 313.175 594.372 313.175 595.675C313.175 596.978 312.884 598.128 312.301 599.125C311.734 600.106 310.96 600.865 309.978 601.402C308.997 601.939 307.908 602.207 306.712 602.207ZM306.712 600.367C307.464 600.367 308.169 600.191 308.828 599.838C309.488 599.485 310.017 598.956 310.415 598.251C310.829 597.546 311.036 596.687 311.036 595.675C311.036 594.663 310.837 593.804 310.438 593.099C310.04 592.394 309.518 591.872 308.874 591.535C308.23 591.182 307.533 591.006 306.781 591.006C306.015 591.006 305.309 591.182 304.665 591.535C304.037 591.872 303.531 592.394 303.147 593.099C302.764 593.804 302.572 594.663 302.572 595.675C302.572 596.702 302.756 597.569 303.124 598.274C303.508 598.979 304.014 599.508 304.642 599.861C305.271 600.198 305.961 600.367 306.712 600.367ZM321.056 591.121H318.411V602H316.318V591.121H314.685V589.396H316.318V588.499C316.318 587.088 316.679 586.061 317.399 585.417C318.135 584.758 319.308 584.428 320.918 584.428V586.176C319.998 586.176 319.347 586.36 318.963 586.728C318.595 587.081 318.411 587.671 318.411 588.499V589.396H321.056V591.121ZM334.997 595.215C334.997 595.614 334.974 596.035 334.928 596.48H324.854C324.93 597.722 325.352 598.696 326.119 599.401C326.901 600.091 327.844 600.436 328.948 600.436C329.852 600.436 330.604 600.229 331.202 599.815C331.815 599.386 332.244 598.818 332.49 598.113H334.744C334.406 599.324 333.732 600.313 332.72 601.08C331.708 601.831 330.45 602.207 328.948 602.207C327.752 602.207 326.678 601.939 325.728 601.402C324.792 600.865 324.056 600.106 323.52 599.125C322.983 598.128 322.715 596.978 322.715 595.675C322.715 594.372 322.975 593.229 323.497 592.248C324.018 591.267 324.746 590.515 325.682 589.994C326.632 589.457 327.721 589.189 328.948 589.189C330.144 589.189 331.202 589.45 332.122 589.971C333.042 590.492 333.747 591.213 334.238 592.133C334.744 593.038 334.997 594.065 334.997 595.215ZM332.835 594.778C332.835 593.981 332.658 593.298 332.306 592.731C331.953 592.148 331.47 591.711 330.857 591.42C330.259 591.113 329.592 590.96 328.856 590.96C327.798 590.96 326.893 591.297 326.142 591.972C325.406 592.647 324.984 593.582 324.877 594.778H332.835ZM342.221 602.207C341.255 602.207 340.389 602.046 339.622 601.724C338.856 601.387 338.25 600.927 337.805 600.344C337.361 599.746 337.115 599.064 337.069 598.297H339.231C339.293 598.926 339.584 599.439 340.105 599.838C340.642 600.237 341.34 600.436 342.198 600.436C342.996 600.436 343.624 600.26 344.084 599.907C344.544 599.554 344.774 599.11 344.774 598.573C344.774 598.021 344.529 597.615 344.038 597.354C343.548 597.078 342.789 596.81 341.761 596.549C340.826 596.304 340.059 596.058 339.461 595.813C338.879 595.552 338.373 595.177 337.943 594.686C337.529 594.18 337.322 593.521 337.322 592.708C337.322 592.064 337.514 591.474 337.897 590.937C338.281 590.4 338.825 589.979 339.53 589.672C340.236 589.35 341.041 589.189 341.945 589.189C343.341 589.189 344.468 589.542 345.326 590.247C346.185 590.952 346.645 591.918 346.706 593.145H344.613C344.567 592.486 344.299 591.957 343.808 591.558C343.333 591.159 342.689 590.96 341.876 590.96C341.125 590.96 340.527 591.121 340.082 591.443C339.638 591.765 339.415 592.187 339.415 592.708C339.415 593.122 339.546 593.467 339.806 593.743C340.082 594.004 340.42 594.218 340.818 594.387C341.232 594.54 341.8 594.717 342.52 594.916C343.425 595.161 344.161 595.407 344.728 595.652C345.296 595.882 345.779 596.235 346.177 596.71C346.591 597.185 346.806 597.806 346.821 598.573C346.821 599.263 346.63 599.884 346.246 600.436C345.863 600.988 345.319 601.425 344.613 601.747C343.923 602.054 343.126 602.207 342.221 602.207ZM354.238 602.207C353.272 602.207 352.406 602.046 351.639 601.724C350.872 601.387 350.267 600.927 349.822 600.344C349.377 599.746 349.132 599.064 349.086 598.297H351.248C351.309 598.926 351.601 599.439 352.122 599.838C352.659 600.237 353.356 600.436 354.215 600.436C355.012 600.436 355.641 600.26 356.101 599.907C356.561 599.554 356.791 599.11 356.791 598.573C356.791 598.021 356.546 597.615 356.055 597.354C355.564 597.078 354.805 596.81 353.778 596.549C352.843 596.304 352.076 596.058 351.478 595.813C350.895 595.552 350.389 595.177 349.96 594.686C349.546 594.18 349.339 593.521 349.339 592.708C349.339 592.064 349.531 591.474 349.914 590.937C350.297 590.4 350.842 589.979 351.547 589.672C352.252 589.35 353.057 589.189 353.962 589.189C355.357 589.189 356.484 589.542 357.343 590.247C358.202 590.952 358.662 591.918 358.723 593.145H356.63C356.584 592.486 356.316 591.957 355.825 591.558C355.35 591.159 354.706 590.96 353.893 590.96C353.142 590.96 352.544 591.121 352.099 591.443C351.654 591.765 351.432 592.187 351.432 592.708C351.432 593.122 351.562 593.467 351.823 593.743C352.099 594.004 352.436 594.218 352.835 594.387C353.249 594.54 353.816 594.717 354.537 594.916C355.442 595.161 356.178 595.407 356.745 595.652C357.312 595.882 357.795 596.235 358.194 596.71C358.608 597.185 358.823 597.806 358.838 598.573C358.838 599.263 358.646 599.884 358.263 600.436C357.88 600.988 357.335 601.425 356.63 601.747C355.94 602.054 355.143 602.207 354.238 602.207ZM362.873 587.349C362.475 587.349 362.137 587.211 361.861 586.935C361.585 586.659 361.447 586.322 361.447 585.923C361.447 585.524 361.585 585.187 361.861 584.911C362.137 584.635 362.475 584.497 362.873 584.497C363.257 584.497 363.579 584.635 363.839 584.911C364.115 585.187 364.253 585.524 364.253 585.923C364.253 586.322 364.115 586.659 363.839 586.935C363.579 587.211 363.257 587.349 362.873 587.349ZM363.885 589.396V602H361.792V589.396H363.885ZM372.95 602.207C371.769 602.207 370.696 601.939 369.73 601.402C368.779 600.865 368.028 600.106 367.476 599.125C366.939 598.128 366.671 596.978 366.671 595.675C366.671 594.387 366.947 593.252 367.499 592.271C368.066 591.274 368.833 590.515 369.799 589.994C370.765 589.457 371.846 589.189 373.042 589.189C374.238 589.189 375.319 589.457 376.285 589.994C377.251 590.515 378.01 591.267 378.562 592.248C379.129 593.229 379.413 594.372 379.413 595.675C379.413 596.978 379.121 598.128 378.539 599.125C377.971 600.106 377.197 600.865 376.216 601.402C375.234 601.939 374.146 602.207 372.95 602.207ZM372.95 600.367C373.701 600.367 374.406 600.191 375.066 599.838C375.725 599.485 376.254 598.956 376.653 598.251C377.067 597.546 377.274 596.687 377.274 595.675C377.274 594.663 377.074 593.804 376.676 593.099C376.277 592.394 375.756 591.872 375.112 591.535C374.468 591.182 373.77 591.006 373.019 591.006C372.252 591.006 371.547 591.182 370.903 591.535C370.274 591.872 369.768 592.394 369.385 593.099C369.001 593.804 368.81 594.663 368.81 595.675C368.81 596.702 368.994 597.569 369.362 598.274C369.745 598.979 370.251 599.508 370.88 599.861C371.508 600.198 372.198 600.367 372.95 600.367ZM388.306 589.166C389.839 589.166 391.081 589.634 392.032 590.569C392.982 591.489 393.458 592.823 393.458 594.571V602H391.388V594.87C391.388 593.613 391.073 592.654 390.445 591.995C389.816 591.32 388.957 590.983 387.869 590.983C386.765 590.983 385.883 591.328 385.224 592.018C384.58 592.708 384.258 593.712 384.258 595.031V602H382.165V589.396H384.258V591.19C384.672 590.546 385.231 590.048 385.937 589.695C386.657 589.342 387.447 589.166 388.306 589.166ZM396.094 595.652C396.094 594.364 396.355 593.237 396.876 592.271C397.398 591.29 398.111 590.531 399.015 589.994C399.935 589.457 400.955 589.189 402.074 589.189C403.178 589.189 404.137 589.427 404.949 589.902C405.762 590.377 406.368 590.975 406.766 591.696V589.396H408.882V602H406.766V599.654C406.352 600.39 405.731 601.003 404.903 601.494C404.091 601.969 403.14 602.207 402.051 602.207C400.932 602.207 399.92 601.931 399.015 601.379C398.111 600.827 397.398 600.053 396.876 599.056C396.355 598.059 396.094 596.925 396.094 595.652ZM406.766 595.675C406.766 594.724 406.575 593.896 406.191 593.191C405.808 592.486 405.287 591.949 404.627 591.581C403.983 591.198 403.27 591.006 402.488 591.006C401.706 591.006 400.993 591.19 400.349 591.558C399.705 591.926 399.192 592.463 398.808 593.168C398.425 593.873 398.233 594.701 398.233 595.652C398.233 596.618 398.425 597.461 398.808 598.182C399.192 598.887 399.705 599.432 400.349 599.815C400.993 600.183 401.706 600.367 402.488 600.367C403.27 600.367 403.983 600.183 404.627 599.815C405.287 599.432 405.808 598.887 406.191 598.182C406.575 597.461 406.766 596.626 406.766 595.675ZM414.512 584.98V602H412.419V584.98H414.512ZM423.429 595.675C423.429 594.372 423.69 593.237 424.211 592.271C424.733 591.29 425.453 590.531 426.373 589.994C427.309 589.457 428.374 589.189 429.57 589.189C431.119 589.189 432.392 589.565 433.388 590.316C434.4 591.067 435.067 592.11 435.389 593.444H433.135C432.921 592.677 432.499 592.072 431.87 591.627C431.257 591.182 430.49 590.96 429.57 590.96C428.374 590.96 427.408 591.374 426.672 592.202C425.936 593.015 425.568 594.172 425.568 595.675C425.568 597.193 425.936 598.366 426.672 599.194C427.408 600.022 428.374 600.436 429.57 600.436C430.49 600.436 431.257 600.221 431.87 599.792C432.484 599.363 432.905 598.749 433.135 597.952H435.389C435.052 599.24 434.377 600.275 433.365 601.057C432.353 601.824 431.088 602.207 429.57 602.207C428.374 602.207 427.309 601.939 426.373 601.402C425.453 600.865 424.733 600.106 424.211 599.125C423.69 598.144 423.429 596.994 423.429 595.675ZM443.679 602.207C442.498 602.207 441.425 601.939 440.459 601.402C439.508 600.865 438.757 600.106 438.205 599.125C437.668 598.128 437.4 596.978 437.4 595.675C437.4 594.387 437.676 593.252 438.228 592.271C438.795 591.274 439.562 590.515 440.528 589.994C441.494 589.457 442.575 589.189 443.771 589.189C444.967 589.189 446.048 589.457 447.014 589.994C447.98 590.515 448.739 591.267 449.291 592.248C449.858 593.229 450.142 594.372 450.142 595.675C450.142 596.978 449.851 598.128 449.268 599.125C448.701 600.106 447.926 600.865 446.945 601.402C445.964 601.939 444.875 602.207 443.679 602.207ZM443.679 600.367C444.43 600.367 445.136 600.191 445.795 599.838C446.454 599.485 446.983 598.956 447.382 598.251C447.796 597.546 448.003 596.687 448.003 595.675C448.003 594.663 447.804 593.804 447.405 593.099C447.006 592.394 446.485 591.872 445.841 591.535C445.197 591.182 444.499 591.006 443.748 591.006C442.981 591.006 442.276 591.182 441.632 591.535C441.003 591.872 440.497 592.394 440.114 593.099C439.731 593.804 439.539 594.663 439.539 595.675C439.539 596.702 439.723 597.569 440.091 598.274C440.474 598.979 440.98 599.508 441.609 599.861C442.238 600.198 442.928 600.367 443.679 600.367ZM468.051 589.166C469.032 589.166 469.906 589.373 470.673 589.787C471.44 590.186 472.045 590.791 472.49 591.604C472.935 592.417 473.157 593.406 473.157 594.571V602H471.087V594.87C471.087 593.613 470.773 592.654 470.144 591.995C469.531 591.32 468.695 590.983 467.637 590.983C466.548 590.983 465.682 591.336 465.038 592.041C464.394 592.731 464.072 593.735 464.072 595.054V602H462.002V594.87C462.002 593.613 461.688 592.654 461.059 591.995C460.446 591.32 459.61 590.983 458.552 590.983C457.463 590.983 456.597 591.336 455.953 592.041C455.309 592.731 454.987 593.735 454.987 595.054V602H452.894V589.396H454.987V591.213C455.401 590.554 455.953 590.048 456.643 589.695C457.348 589.342 458.123 589.166 458.966 589.166C460.024 589.166 460.959 589.404 461.772 589.879C462.585 590.354 463.19 591.052 463.589 591.972C463.942 591.083 464.524 590.393 465.337 589.902C466.15 589.411 467.054 589.166 468.051 589.166ZM491.747 589.166C492.729 589.166 493.603 589.373 494.369 589.787C495.136 590.186 495.742 590.791 496.186 591.604C496.631 592.417 496.853 593.406 496.853 594.571V602H494.783V594.87C494.783 593.613 494.469 592.654 493.84 591.995C493.227 591.32 492.391 590.983 491.333 590.983C490.245 590.983 489.378 591.336 488.734 592.041C488.09 592.731 487.768 593.735 487.768 595.054V602H485.698V594.87C485.698 593.613 485.384 592.654 484.755 591.995C484.142 591.32 483.306 590.983 482.248 590.983C481.16 590.983 480.293 591.336 479.649 592.041C479.005 592.731 478.683 593.735 478.683 595.054V602H476.59V589.396H478.683V591.213C479.097 590.554 479.649 590.048 480.339 589.695C481.045 589.342 481.819 589.166 482.662 589.166C483.72 589.166 484.656 589.404 485.468 589.879C486.281 590.354 486.887 591.052 487.285 591.972C487.638 591.083 488.221 590.393 489.033 589.902C489.846 589.411 490.751 589.166 491.747 589.166ZM511.465 589.396V602H509.372V600.137C508.973 600.781 508.413 601.287 507.693 601.655C506.987 602.008 506.205 602.184 505.347 602.184C504.365 602.184 503.484 601.985 502.702 601.586C501.92 601.172 501.299 600.559 500.839 599.746C500.394 598.933 500.172 597.944 500.172 596.779V589.396H502.242V596.503C502.242 597.745 502.556 598.703 503.185 599.378C503.813 600.037 504.672 600.367 505.761 600.367C506.88 600.367 507.762 600.022 508.406 599.332C509.05 598.642 509.372 597.638 509.372 596.319V589.396H511.465ZM521.14 589.166C522.673 589.166 523.915 589.634 524.866 590.569C525.816 591.489 526.292 592.823 526.292 594.571V602H524.222V594.87C524.222 593.613 523.907 592.654 523.279 591.995C522.65 591.32 521.791 590.983 520.703 590.983C519.599 590.983 518.717 591.328 518.058 592.018C517.414 592.708 517.092 593.712 517.092 595.031V602H514.999V589.396H517.092V591.19C517.506 590.546 518.065 590.048 518.771 589.695C519.491 589.342 520.281 589.166 521.14 589.166ZM530.791 587.349C530.393 587.349 530.055 587.211 529.779 586.935C529.503 586.659 529.365 586.322 529.365 585.923C529.365 585.524 529.503 585.187 529.779 584.911C530.055 584.635 530.393 584.497 530.791 584.497C531.175 584.497 531.497 584.635 531.757 584.911C532.033 585.187 532.171 585.524 532.171 585.923C532.171 586.322 532.033 586.659 531.757 586.935C531.497 587.211 531.175 587.349 530.791 587.349ZM531.803 589.396V602H529.71V589.396H531.803ZM537.924 591.121V598.55C537.924 599.163 538.054 599.6 538.315 599.861C538.575 600.106 539.028 600.229 539.672 600.229H541.213V602H539.327C538.161 602 537.287 601.732 536.705 601.195C536.122 600.658 535.831 599.777 535.831 598.55V591.121H534.198V589.396H535.831V586.222H537.924V589.396H541.213V591.121H537.924ZM554.605 589.396L547.015 607.934H544.853L547.337 601.862L542.254 589.396H544.577L548.533 599.608L552.443 589.396H554.605ZM565.393 591.121V598.55C565.393 599.163 565.524 599.6 565.784 599.861C566.045 600.106 566.497 600.229 567.141 600.229H568.682V602H566.796C565.631 602 564.757 601.732 564.174 601.195C563.592 600.658 563.3 599.777 563.3 598.55V591.121H561.667V589.396H563.3V586.222H565.393V589.396H568.682V591.121H565.393ZM572.299 587.349C571.901 587.349 571.563 587.211 571.287 586.935C571.011 586.659 570.873 586.322 570.873 585.923C570.873 585.524 571.011 585.187 571.287 584.911C571.563 584.635 571.901 584.497 572.299 584.497C572.683 584.497 573.005 584.635 573.265 584.911C573.541 585.187 573.679 585.524 573.679 585.923C573.679 586.322 573.541 586.659 573.265 586.935C573.005 587.211 572.683 587.349 572.299 587.349ZM573.311 589.396V602H571.218V589.396H573.311ZM578.971 591.719C579.385 590.998 579.999 590.4 580.811 589.925C581.639 589.434 582.598 589.189 583.686 589.189C584.806 589.189 585.818 589.457 586.722 589.994C587.642 590.531 588.363 591.29 588.884 592.271C589.406 593.237 589.666 594.364 589.666 595.652C589.666 596.925 589.406 598.059 588.884 599.056C588.363 600.053 587.642 600.827 586.722 601.379C585.818 601.931 584.806 602.207 583.686 602.207C582.613 602.207 581.662 601.969 580.834 601.494C580.022 601.003 579.401 600.398 578.971 599.677V607.98H576.878V589.396H578.971V591.719ZM587.527 595.652C587.527 594.701 587.336 593.873 586.952 593.168C586.569 592.463 586.048 591.926 585.388 591.558C584.744 591.19 584.031 591.006 583.249 591.006C582.483 591.006 581.77 591.198 581.11 591.581C580.466 591.949 579.945 592.493 579.546 593.214C579.163 593.919 578.971 594.74 578.971 595.675C578.971 596.626 579.163 597.461 579.546 598.182C579.945 598.887 580.466 599.432 581.11 599.815C581.77 600.183 582.483 600.367 583.249 600.367C584.031 600.367 584.744 600.183 585.388 599.815C586.048 599.432 586.569 598.887 586.952 598.182C587.336 597.461 587.527 596.618 587.527 595.652ZM596.883 602.207C595.917 602.207 595.051 602.046 594.284 601.724C593.518 601.387 592.912 600.927 592.467 600.344C592.023 599.746 591.777 599.064 591.731 598.297H593.893C593.955 598.926 594.246 599.439 594.767 599.838C595.304 600.237 596.002 600.436 596.86 600.436C597.658 600.436 598.286 600.26 598.746 599.907C599.206 599.554 599.436 599.11 599.436 598.573C599.436 598.021 599.191 597.615 598.7 597.354C598.21 597.078 597.451 596.81 596.423 596.549C595.488 596.304 594.721 596.058 594.123 595.813C593.541 595.552 593.035 595.177 592.605 594.686C592.191 594.18 591.984 593.521 591.984 592.708C591.984 592.064 592.176 591.474 592.559 590.937C592.943 590.4 593.487 589.979 594.192 589.672C594.898 589.35 595.703 589.189 596.607 589.189C598.003 589.189 599.13 589.542 599.988 590.247C600.847 590.952 601.307 591.918 601.368 593.145H599.275C599.229 592.486 598.961 591.957 598.47 591.558C597.995 591.159 597.351 590.96 596.538 590.96C595.787 590.96 595.189 591.121 594.744 591.443C594.3 591.765 594.077 592.187 594.077 592.708C594.077 593.122 594.208 593.467 594.468 593.743C594.744 594.004 595.082 594.218 595.48 594.387C595.894 594.54 596.462 594.717 597.182 594.916C598.087 595.161 598.823 595.407 599.39 595.652C599.958 595.882 600.441 596.235 600.839 596.71C601.253 597.185 601.468 597.806 601.483 598.573C601.483 599.263 601.292 599.884 600.908 600.436C600.525 600.988 599.981 601.425 599.275 601.747C598.585 602.054 597.788 602.207 596.883 602.207ZM609.788 595.652C609.788 594.364 610.048 593.237 610.57 592.271C611.091 591.29 611.804 590.531 612.709 589.994C613.629 589.457 614.648 589.189 615.768 589.189C616.872 589.189 617.83 589.427 618.643 589.902C619.455 590.377 620.061 590.975 620.46 591.696V589.396H622.576V602H620.46V599.654C620.046 600.39 619.425 601.003 618.597 601.494C617.784 601.969 616.833 602.207 615.745 602.207C614.625 602.207 613.613 601.931 612.709 601.379C611.804 600.827 611.091 600.053 610.57 599.056C610.048 598.059 609.788 596.925 609.788 595.652ZM620.46 595.675C620.46 594.724 620.268 593.896 619.885 593.191C619.501 592.486 618.98 591.949 618.321 591.581C617.677 591.198 616.964 591.006 616.182 591.006C615.4 591.006 614.687 591.19 614.043 591.558C613.399 591.926 612.885 592.463 612.502 593.168C612.118 593.873 611.927 594.701 611.927 595.652C611.927 596.618 612.118 597.461 612.502 598.182C612.885 598.887 613.399 599.432 614.043 599.815C614.687 600.183 615.4 600.367 616.182 600.367C616.964 600.367 617.677 600.183 618.321 599.815C618.98 599.432 619.501 598.887 619.885 598.182C620.268 597.461 620.46 596.626 620.46 595.675ZM632.254 589.166C633.787 589.166 635.029 589.634 635.98 590.569C636.93 591.489 637.406 592.823 637.406 594.571V602H635.336V594.87C635.336 593.613 635.021 592.654 634.393 591.995C633.764 591.32 632.905 590.983 631.817 590.983C630.713 590.983 629.831 591.328 629.172 592.018C628.528 592.708 628.206 593.712 628.206 595.031V602H626.113V589.396H628.206V591.19C628.62 590.546 629.179 590.048 629.885 589.695C630.605 589.342 631.395 589.166 632.254 589.166ZM640.043 595.652C640.043 594.364 640.303 593.237 640.825 592.271C641.346 591.29 642.059 590.531 642.964 589.994C643.884 589.457 644.911 589.189 646.046 589.189C647.027 589.189 647.939 589.419 648.783 589.879C649.626 590.324 650.27 590.914 650.715 591.65V584.98H652.831V602H650.715V599.631C650.301 600.382 649.687 601.003 648.875 601.494C648.062 601.969 647.111 602.207 646.023 602.207C644.903 602.207 643.884 601.931 642.964 601.379C642.059 600.827 641.346 600.053 640.825 599.056C640.303 598.059 640.043 596.925 640.043 595.652ZM650.715 595.675C650.715 594.724 650.523 593.896 650.14 593.191C649.756 592.486 649.235 591.949 648.576 591.581C647.932 591.198 647.219 591.006 646.437 591.006C645.655 591.006 644.942 591.19 644.298 591.558C643.654 591.926 643.14 592.463 642.757 593.168C642.373 593.873 642.182 594.701 642.182 595.652C642.182 596.618 642.373 597.461 642.757 598.182C643.14 598.887 643.654 599.432 644.298 599.815C644.942 600.183 645.655 600.367 646.437 600.367C647.219 600.367 647.932 600.183 648.576 599.815C649.235 599.432 649.756 598.887 650.14 598.182C650.523 597.461 650.715 596.626 650.715 595.675ZM667.629 591.121H664.984V602H662.891V591.121H661.258V589.396H662.891V588.499C662.891 587.088 663.251 586.061 663.972 585.417C664.708 584.758 665.881 584.428 667.491 584.428V586.176C666.571 586.176 665.919 586.36 665.536 586.728C665.168 587.081 664.984 587.671 664.984 588.499V589.396H667.629V591.121ZM672.162 591.443C672.53 590.722 673.051 590.163 673.726 589.764C674.416 589.365 675.252 589.166 676.233 589.166V591.328H675.681C673.335 591.328 672.162 592.601 672.162 595.146V602H670.069V589.396H672.162V591.443ZM690.149 595.215C690.149 595.614 690.126 596.035 690.08 596.48H680.006C680.083 597.722 680.504 598.696 681.271 599.401C682.053 600.091 682.996 600.436 684.1 600.436C685.005 600.436 685.756 600.229 686.354 599.815C686.967 599.386 687.397 598.818 687.642 598.113H689.896C689.559 599.324 688.884 600.313 687.872 601.08C686.86 601.831 685.603 602.207 684.1 602.207C682.904 602.207 681.831 601.939 680.88 601.402C679.945 600.865 679.209 600.106 678.672 599.125C678.135 598.128 677.867 596.978 677.867 595.675C677.867 594.372 678.128 593.229 678.649 592.248C679.17 591.267 679.899 590.515 680.834 589.994C681.785 589.457 682.873 589.189 684.1 589.189C685.296 589.189 686.354 589.45 687.274 589.971C688.194 590.492 688.899 591.213 689.39 592.133C689.896 593.038 690.149 594.065 690.149 595.215ZM687.987 594.778C687.987 593.981 687.811 593.298 687.458 592.731C687.105 592.148 686.622 591.711 686.009 591.42C685.411 591.113 684.744 590.96 684.008 590.96C682.95 590.96 682.045 591.297 681.294 591.972C680.558 592.647 680.136 593.582 680.029 594.778H687.987ZM704.412 595.215C704.412 595.614 704.389 596.035 704.343 596.48H694.269C694.345 597.722 694.767 598.696 695.534 599.401C696.316 600.091 697.259 600.436 698.363 600.436C699.267 600.436 700.019 600.229 700.617 599.815C701.23 599.386 701.659 598.818 701.905 598.113H704.159C703.821 599.324 703.147 600.313 702.135 601.08C701.123 601.831 699.865 602.207 698.363 602.207C697.167 602.207 696.093 601.939 695.143 601.402C694.207 600.865 693.471 600.106 692.935 599.125C692.398 598.128 692.13 596.978 692.13 595.675C692.13 594.372 692.39 593.229 692.912 592.248C693.433 591.267 694.161 590.515 695.097 589.994C696.047 589.457 697.136 589.189 698.363 589.189C699.559 589.189 700.617 589.45 701.537 589.971C702.457 590.492 703.162 591.213 703.653 592.133C704.159 593.038 704.412 594.065 704.412 595.215ZM702.25 594.778C702.25 593.981 702.073 593.298 701.721 592.731C701.368 592.148 700.885 591.711 700.272 591.42C699.674 591.113 699.007 590.96 698.271 590.96C697.213 590.96 696.308 591.297 695.557 591.972C694.821 592.647 694.399 593.582 694.292 594.778H702.25ZM222.325 628.121V635.55C222.325 636.163 222.455 636.6 222.716 636.861C222.977 637.106 223.429 637.229 224.073 637.229H225.614V639H223.728C222.563 639 221.689 638.732 221.106 638.195C220.523 637.658 220.232 636.777 220.232 635.55V628.121H218.599V626.396H220.232V623.222H222.325V626.396H225.614V628.121H222.325ZM239.328 626.396V639H237.235V637.137C236.836 637.781 236.277 638.287 235.556 638.655C234.851 639.008 234.069 639.184 233.21 639.184C232.229 639.184 231.347 638.985 230.565 638.586C229.783 638.172 229.162 637.559 228.702 636.746C228.257 635.933 228.035 634.944 228.035 633.779V626.396H230.105V633.503C230.105 634.745 230.419 635.703 231.048 636.378C231.677 637.037 232.535 637.367 233.624 637.367C234.743 637.367 235.625 637.022 236.269 636.332C236.913 635.642 237.235 634.638 237.235 633.319V626.396H239.328ZM245.415 628.121V635.55C245.415 636.163 245.545 636.6 245.806 636.861C246.066 637.106 246.519 637.229 247.163 637.229H248.704V639H246.818C245.652 639 244.778 638.732 244.196 638.195C243.613 637.658 243.322 636.777 243.322 635.55V628.121H241.689V626.396H243.322V623.222H245.415V626.396H248.704V628.121H245.415ZM256.737 639.207C255.556 639.207 254.483 638.939 253.517 638.402C252.566 637.865 251.815 637.106 251.263 636.125C250.726 635.128 250.458 633.978 250.458 632.675C250.458 631.387 250.734 630.252 251.286 629.271C251.853 628.274 252.62 627.515 253.586 626.994C254.552 626.457 255.633 626.189 256.829 626.189C258.025 626.189 259.106 626.457 260.072 626.994C261.038 627.515 261.797 628.267 262.349 629.248C262.916 630.229 263.2 631.372 263.2 632.675C263.2 633.978 262.908 635.128 262.326 636.125C261.758 637.106 260.984 637.865 260.003 638.402C259.021 638.939 257.933 639.207 256.737 639.207ZM256.737 637.367C257.488 637.367 258.193 637.191 258.853 636.838C259.512 636.485 260.041 635.956 260.44 635.251C260.854 634.546 261.061 633.687 261.061 632.675C261.061 631.663 260.861 630.804 260.463 630.099C260.064 629.394 259.543 628.872 258.899 628.535C258.255 628.182 257.557 628.006 256.806 628.006C256.039 628.006 255.334 628.182 254.69 628.535C254.061 628.872 253.555 629.394 253.172 630.099C252.788 630.804 252.597 631.663 252.597 632.675C252.597 633.702 252.781 634.569 253.149 635.274C253.532 635.979 254.038 636.508 254.667 636.861C255.295 637.198 255.985 637.367 256.737 637.367ZM268.045 628.443C268.413 627.722 268.934 627.163 269.609 626.764C270.299 626.365 271.134 626.166 272.116 626.166V628.328H271.564C269.218 628.328 268.045 629.601 268.045 632.146V639H265.952V626.396H268.045V628.443ZM275.613 624.349C275.214 624.349 274.877 624.211 274.601 623.935C274.325 623.659 274.187 623.322 274.187 622.923C274.187 622.524 274.325 622.187 274.601 621.911C274.877 621.635 275.214 621.497 275.613 621.497C275.996 621.497 276.318 621.635 276.579 621.911C276.855 622.187 276.993 622.524 276.993 622.923C276.993 623.322 276.855 623.659 276.579 623.935C276.318 624.211 275.996 624.349 275.613 624.349ZM276.625 626.396V639H274.532V626.396H276.625ZM279.41 632.652C279.41 631.364 279.671 630.237 280.192 629.271C280.713 628.29 281.426 627.531 282.331 626.994C283.251 626.457 284.271 626.189 285.39 626.189C286.494 626.189 287.452 626.427 288.265 626.902C289.078 627.377 289.683 627.975 290.082 628.696V626.396H292.198V639H290.082V636.654C289.668 637.39 289.047 638.003 288.219 638.494C287.406 638.969 286.456 639.207 285.367 639.207C284.248 639.207 283.236 638.931 282.331 638.379C281.426 637.827 280.713 637.053 280.192 636.056C279.671 635.059 279.41 633.925 279.41 632.652ZM290.082 632.675C290.082 631.724 289.89 630.896 289.507 630.191C289.124 629.486 288.602 628.949 287.943 628.581C287.299 628.198 286.586 628.006 285.804 628.006C285.022 628.006 284.309 628.19 283.665 628.558C283.021 628.926 282.507 629.463 282.124 630.168C281.741 630.873 281.549 631.701 281.549 632.652C281.549 633.618 281.741 634.461 282.124 635.182C282.507 635.887 283.021 636.432 283.665 636.815C284.309 637.183 285.022 637.367 285.804 637.367C286.586 637.367 287.299 637.183 287.943 636.815C288.602 636.432 289.124 635.887 289.507 635.182C289.89 634.461 290.082 633.626 290.082 632.675ZM297.828 621.98V639H295.735V621.98H297.828ZM305.857 639.207C304.891 639.207 304.025 639.046 303.258 638.724C302.491 638.387 301.886 637.927 301.441 637.344C300.996 636.746 300.751 636.064 300.705 635.297H302.867C302.928 635.926 303.22 636.439 303.741 636.838C304.278 637.237 304.975 637.436 305.834 637.436C306.631 637.436 307.26 637.26 307.72 636.907C308.18 636.554 308.41 636.11 308.41 635.573C308.41 635.021 308.165 634.615 307.674 634.354C307.183 634.078 306.424 633.81 305.397 633.549C304.462 633.304 303.695 633.058 303.097 632.813C302.514 632.552 302.008 632.177 301.579 631.686C301.165 631.18 300.958 630.521 300.958 629.708C300.958 629.064 301.15 628.474 301.533 627.937C301.916 627.4 302.461 626.979 303.166 626.672C303.871 626.35 304.676 626.189 305.581 626.189C306.976 626.189 308.103 626.542 308.962 627.247C309.821 627.952 310.281 628.918 310.342 630.145H308.249C308.203 629.486 307.935 628.957 307.444 628.558C306.969 628.159 306.325 627.96 305.512 627.96C304.761 627.96 304.163 628.121 303.718 628.443C303.273 628.765 303.051 629.187 303.051 629.708C303.051 630.122 303.181 630.467 303.442 630.743C303.718 631.004 304.055 631.218 304.454 631.387C304.868 631.54 305.435 631.717 306.156 631.916C307.061 632.161 307.797 632.407 308.364 632.652C308.931 632.882 309.414 633.235 309.813 633.71C310.227 634.185 310.442 634.806 310.457 635.573C310.457 636.263 310.265 636.884 309.882 637.436C309.499 637.988 308.954 638.425 308.249 638.747C307.559 639.054 306.762 639.207 305.857 639.207ZM318.761 632.652C318.761 631.364 319.022 630.237 319.543 629.271C320.065 628.29 320.778 627.531 321.682 626.994C322.602 626.457 323.622 626.189 324.741 626.189C325.845 626.189 326.804 626.427 327.616 626.902C328.429 627.377 329.035 627.975 329.433 628.696V626.396H331.549V639H329.433V636.654C329.019 637.39 328.398 638.003 327.57 638.494C326.758 638.969 325.807 639.207 324.718 639.207C323.599 639.207 322.587 638.931 321.682 638.379C320.778 637.827 320.065 637.053 319.543 636.056C319.022 635.059 318.761 633.925 318.761 632.652ZM329.433 632.675C329.433 631.724 329.242 630.896 328.858 630.191C328.475 629.486 327.954 628.949 327.294 628.581C326.65 628.198 325.937 628.006 325.155 628.006C324.373 628.006 323.66 628.19 323.016 628.558C322.372 628.926 321.859 629.463 321.475 630.168C321.092 630.873 320.9 631.701 320.9 632.652C320.9 633.618 321.092 634.461 321.475 635.182C321.859 635.887 322.372 636.432 323.016 636.815C323.66 637.183 324.373 637.367 325.155 637.367C325.937 637.367 326.65 637.183 327.294 636.815C327.954 636.432 328.475 635.887 328.858 635.182C329.242 634.461 329.433 633.626 329.433 632.675ZM337.179 628.443C337.547 627.722 338.069 627.163 338.743 626.764C339.433 626.365 340.269 626.166 341.25 626.166V628.328H340.698C338.352 628.328 337.179 629.601 337.179 632.146V639H335.086V626.396H337.179V628.443ZM355.167 632.215C355.167 632.614 355.144 633.035 355.098 633.48H345.024C345.1 634.722 345.522 635.696 346.289 636.401C347.071 637.091 348.014 637.436 349.118 637.436C350.022 637.436 350.774 637.229 351.372 636.815C351.985 636.386 352.414 635.818 352.66 635.113H354.914C354.576 636.324 353.902 637.313 352.89 638.08C351.878 638.831 350.62 639.207 349.118 639.207C347.922 639.207 346.848 638.939 345.898 638.402C344.962 637.865 344.226 637.106 343.69 636.125C343.153 635.128 342.885 633.978 342.885 632.675C342.885 631.372 343.145 630.229 343.667 629.248C344.188 628.267 344.916 627.515 345.852 626.994C346.802 626.457 347.891 626.189 349.118 626.189C350.314 626.189 351.372 626.45 352.292 626.971C353.212 627.492 353.917 628.213 354.408 629.133C354.914 630.038 355.167 631.065 355.167 632.215ZM353.005 631.778C353.005 630.981 352.828 630.298 352.476 629.731C352.123 629.148 351.64 628.711 351.027 628.42C350.429 628.113 349.762 627.96 349.026 627.96C347.968 627.96 347.063 628.297 346.312 628.972C345.576 629.647 345.154 630.582 345.047 631.778H353.005ZM370.202 626.166C371.735 626.166 372.977 626.634 373.928 627.569C374.879 628.489 375.354 629.823 375.354 631.571V639H373.284V631.87C373.284 630.613 372.97 629.654 372.341 628.995C371.712 628.32 370.854 627.983 369.765 627.983C368.661 627.983 367.779 628.328 367.12 629.018C366.476 629.708 366.154 630.712 366.154 632.031V639H364.061V626.396H366.154V628.19C366.568 627.546 367.128 627.048 367.833 626.695C368.554 626.342 369.343 626.166 370.202 626.166ZM384.27 639.207C383.089 639.207 382.016 638.939 381.05 638.402C380.099 637.865 379.348 637.106 378.796 636.125C378.259 635.128 377.991 633.978 377.991 632.675C377.991 631.387 378.267 630.252 378.819 629.271C379.386 628.274 380.153 627.515 381.119 626.994C382.085 626.457 383.166 626.189 384.362 626.189C385.558 626.189 386.639 626.457 387.605 626.994C388.571 627.515 389.33 628.267 389.882 629.248C390.449 630.229 390.733 631.372 390.733 632.675C390.733 633.978 390.442 635.128 389.859 636.125C389.292 637.106 388.517 637.865 387.536 638.402C386.555 638.939 385.466 639.207 384.27 639.207ZM384.27 637.367C385.021 637.367 385.727 637.191 386.386 636.838C387.045 636.485 387.574 635.956 387.973 635.251C388.387 634.546 388.594 633.687 388.594 632.675C388.594 631.663 388.395 630.804 387.996 630.099C387.597 629.394 387.076 628.872 386.432 628.535C385.788 628.182 385.09 628.006 384.339 628.006C383.572 628.006 382.867 628.182 382.223 628.535C381.594 628.872 381.088 629.394 380.705 630.099C380.322 630.804 380.13 631.663 380.13 632.675C380.13 633.702 380.314 634.569 380.682 635.274C381.065 635.979 381.571 636.508 382.2 636.861C382.829 637.198 383.519 637.367 384.27 637.367ZM410.275 626.396L406.342 639H404.18L401.144 628.995L398.108 639H395.946L391.99 626.396H394.129L397.027 636.976L400.155 626.396H402.294L405.353 636.999L408.205 626.396H410.275ZM417.702 632.652C417.702 631.364 417.963 630.237 418.484 629.271C419.005 628.29 419.718 627.531 420.623 626.994C421.543 626.457 422.563 626.189 423.682 626.189C424.786 626.189 425.744 626.427 426.557 626.902C427.37 627.377 427.975 627.975 428.374 628.696V626.396H430.49V639H428.374V636.654C427.96 637.39 427.339 638.003 426.511 638.494C425.698 638.969 424.748 639.207 423.659 639.207C422.54 639.207 421.528 638.931 420.623 638.379C419.718 637.827 419.005 637.053 418.484 636.056C417.963 635.059 417.702 633.925 417.702 632.652ZM428.374 632.675C428.374 631.724 428.182 630.896 427.799 630.191C427.416 629.486 426.894 628.949 426.235 628.581C425.591 628.198 424.878 628.006 424.096 628.006C423.314 628.006 422.601 628.19 421.957 628.558C421.313 628.926 420.799 629.463 420.416 630.168C420.033 630.873 419.841 631.701 419.841 632.652C419.841 633.618 420.033 634.461 420.416 635.182C420.799 635.887 421.313 636.432 421.957 636.815C422.601 637.183 423.314 637.367 424.096 637.367C424.878 637.367 425.591 637.183 426.235 636.815C426.894 636.432 427.416 635.887 427.799 635.182C428.182 634.461 428.374 633.626 428.374 632.675ZM436.58 628.121V635.55C436.58 636.163 436.71 636.6 436.971 636.861C437.232 637.106 437.684 637.229 438.328 637.229H439.869V639H437.983C436.818 639 435.944 638.732 435.361 638.195C434.778 637.658 434.487 636.777 434.487 635.55V628.121H432.854V626.396H434.487V623.222H436.58V626.396H439.869V628.121H436.58ZM459.393 626.396L451.803 644.934H449.641L452.125 638.862L447.042 626.396H449.365L453.321 636.608L457.231 626.396H459.393ZM466.994 639.207C465.813 639.207 464.74 638.939 463.774 638.402C462.823 637.865 462.072 637.106 461.52 636.125C460.983 635.128 460.715 633.978 460.715 632.675C460.715 631.387 460.991 630.252 461.543 629.271C462.11 628.274 462.877 627.515 463.843 626.994C464.809 626.457 465.89 626.189 467.086 626.189C468.282 626.189 469.363 626.457 470.329 626.994C471.295 627.515 472.054 628.267 472.606 629.248C473.173 630.229 473.457 631.372 473.457 632.675C473.457 633.978 473.165 635.128 472.583 636.125C472.015 637.106 471.241 637.865 470.26 638.402C469.278 638.939 468.19 639.207 466.994 639.207ZM466.994 637.367C467.745 637.367 468.45 637.191 469.11 636.838C469.769 636.485 470.298 635.956 470.697 635.251C471.111 634.546 471.318 633.687 471.318 632.675C471.318 631.663 471.118 630.804 470.72 630.099C470.321 629.394 469.8 628.872 469.156 628.535C468.512 628.182 467.814 628.006 467.063 628.006C466.296 628.006 465.591 628.182 464.947 628.535C464.318 628.872 463.812 629.394 463.429 630.099C463.045 630.804 462.854 631.663 462.854 632.675C462.854 633.702 463.038 634.569 463.406 635.274C463.789 635.979 464.295 636.508 464.924 636.861C465.552 637.198 466.242 637.367 466.994 637.367ZM487.387 626.396V639H485.294V637.137C484.895 637.781 484.335 638.287 483.615 638.655C482.909 639.008 482.127 639.184 481.269 639.184C480.287 639.184 479.406 638.985 478.624 638.586C477.842 638.172 477.221 637.559 476.761 636.746C476.316 635.933 476.094 634.944 476.094 633.779V626.396H478.164V633.503C478.164 634.745 478.478 635.703 479.107 636.378C479.735 637.037 480.594 637.367 481.683 637.367C482.802 637.367 483.684 637.022 484.328 636.332C484.972 635.642 485.294 634.638 485.294 633.319V626.396H487.387ZM493.013 628.443C493.381 627.722 493.903 627.163 494.577 626.764C495.267 626.365 496.103 626.166 497.084 626.166V628.328H496.532C494.186 628.328 493.013 629.601 493.013 632.146V639H490.92V626.396H493.013V628.443ZM510.761 628.121H508.116V639H506.023V628.121H504.39V626.396H506.023V625.499C506.023 624.088 506.384 623.061 507.104 622.417C507.84 621.758 509.013 621.428 510.623 621.428V623.176C509.703 623.176 509.052 623.36 508.668 623.728C508.3 624.081 508.116 624.671 508.116 625.499V626.396H510.761V628.121ZM514.283 624.349C513.884 624.349 513.547 624.211 513.271 623.935C512.995 623.659 512.857 623.322 512.857 622.923C512.857 622.524 512.995 622.187 513.271 621.911C513.547 621.635 513.884 621.497 514.283 621.497C514.666 621.497 514.988 621.635 515.249 621.911C515.525 622.187 515.663 622.524 515.663 622.923C515.663 623.322 515.525 623.659 515.249 623.935C514.988 624.211 514.666 624.349 514.283 624.349ZM515.295 626.396V639H513.202V626.396H515.295ZM525.003 626.166C526.536 626.166 527.778 626.634 528.729 627.569C529.679 628.489 530.155 629.823 530.155 631.571V639H528.085V631.87C528.085 630.613 527.77 629.654 527.142 628.995C526.513 628.32 525.654 627.983 524.566 627.983C523.462 627.983 522.58 628.328 521.921 629.018C521.277 629.708 520.955 630.712 520.955 632.031V639H518.862V626.396H520.955V628.19C521.369 627.546 521.928 627.048 522.634 626.695C523.354 626.342 524.144 626.166 525.003 626.166ZM538.772 626.189C539.86 626.189 540.811 626.427 541.624 626.902C542.452 627.377 543.065 627.975 543.464 628.696V626.396H545.58V639.276C545.58 640.426 545.334 641.446 544.844 642.335C544.353 643.24 543.648 643.945 542.728 644.451C541.823 644.957 540.765 645.21 539.554 645.21C537.898 645.21 536.518 644.819 535.414 644.037C534.31 643.255 533.658 642.189 533.459 640.84H535.529C535.759 641.607 536.234 642.22 536.955 642.68C537.675 643.155 538.542 643.393 539.554 643.393C540.704 643.393 541.639 643.033 542.36 642.312C543.096 641.591 543.464 640.579 543.464 639.276V636.631C543.05 637.367 542.436 637.98 541.624 638.471C540.811 638.962 539.86 639.207 538.772 639.207C537.652 639.207 536.633 638.931 535.713 638.379C534.808 637.827 534.095 637.053 533.574 636.056C533.052 635.059 532.792 633.925 532.792 632.652C532.792 631.364 533.052 630.237 533.574 629.271C534.095 628.29 534.808 627.531 535.713 626.994C536.633 626.457 537.652 626.189 538.772 626.189ZM543.464 632.675C543.464 631.724 543.272 630.896 542.889 630.191C542.505 629.486 541.984 628.949 541.325 628.581C540.681 628.198 539.968 628.006 539.186 628.006C538.404 628.006 537.691 628.19 537.047 628.558C536.403 628.926 535.889 629.463 535.506 630.168C535.122 630.873 534.931 631.701 534.931 632.652C534.931 633.618 535.122 634.461 535.506 635.182C535.889 635.887 536.403 636.432 537.047 636.815C537.691 637.183 538.404 637.367 539.186 637.367C539.968 637.367 540.681 637.183 541.325 636.815C541.984 636.432 542.505 635.887 542.889 635.182C543.272 634.461 543.464 633.626 543.464 632.675ZM560.617 632.215C560.617 632.614 560.594 633.035 560.548 633.48H550.474C550.55 634.722 550.972 635.696 551.739 636.401C552.521 637.091 553.464 637.436 554.568 637.436C555.472 637.436 556.224 637.229 556.822 636.815C557.435 636.386 557.864 635.818 558.11 635.113H560.364C560.026 636.324 559.352 637.313 558.34 638.08C557.328 638.831 556.07 639.207 554.568 639.207C553.372 639.207 552.298 638.939 551.348 638.402C550.412 637.865 549.676 637.106 549.14 636.125C548.603 635.128 548.335 633.978 548.335 632.675C548.335 631.372 548.595 630.229 549.117 629.248C549.638 628.267 550.366 627.515 551.302 626.994C552.252 626.457 553.341 626.189 554.568 626.189C555.764 626.189 556.822 626.45 557.742 626.971C558.662 627.492 559.367 628.213 559.858 629.133C560.364 630.038 560.617 631.065 560.617 632.215ZM558.455 631.778C558.455 630.981 558.278 630.298 557.926 629.731C557.573 629.148 557.09 628.711 556.477 628.42C555.879 628.113 555.212 627.96 554.476 627.96C553.418 627.96 552.513 628.297 551.762 628.972C551.026 629.647 550.604 630.582 550.497 631.778H558.455ZM565.472 628.443C565.84 627.722 566.362 627.163 567.036 626.764C567.726 626.365 568.562 626.166 569.543 626.166V628.328H568.991C566.645 628.328 565.472 629.601 565.472 632.146V639H563.379V626.396H565.472V628.443ZM574.512 628.121V635.55C574.512 636.163 574.643 636.6 574.903 636.861C575.164 637.106 575.616 637.229 576.26 637.229H577.801V639H575.915C574.75 639 573.876 638.732 573.293 638.195C572.711 637.658 572.419 636.777 572.419 635.55V628.121H570.786V626.396H572.419V623.222H574.512V626.396H577.801V628.121H574.512ZM581.418 624.349C581.02 624.349 580.682 624.211 580.406 623.935C580.13 623.659 579.992 623.322 579.992 622.923C579.992 622.524 580.13 622.187 580.406 621.911C580.682 621.635 581.02 621.497 581.418 621.497C581.802 621.497 582.124 621.635 582.384 621.911C582.66 622.187 582.798 622.524 582.798 622.923C582.798 623.322 582.66 623.659 582.384 623.935C582.124 624.211 581.802 624.349 581.418 624.349ZM582.43 626.396V639H580.337V626.396H582.43ZM588.091 628.719C588.505 627.998 589.118 627.4 589.931 626.925C590.759 626.434 591.717 626.189 592.806 626.189C593.925 626.189 594.937 626.457 595.842 626.994C596.762 627.531 597.482 628.29 598.004 629.271C598.525 630.237 598.786 631.364 598.786 632.652C598.786 633.925 598.525 635.059 598.004 636.056C597.482 637.053 596.762 637.827 595.842 638.379C594.937 638.931 593.925 639.207 592.806 639.207C591.732 639.207 590.782 638.969 589.954 638.494C589.141 638.003 588.52 637.398 588.091 636.677V644.98H585.998V626.396H588.091V628.719ZM596.647 632.652C596.647 631.701 596.455 630.873 596.072 630.168C595.688 629.463 595.167 628.926 594.508 628.558C593.864 628.19 593.151 628.006 592.369 628.006C591.602 628.006 590.889 628.198 590.23 628.581C589.586 628.949 589.064 629.493 588.666 630.214C588.282 630.919 588.091 631.74 588.091 632.675C588.091 633.626 588.282 634.461 588.666 635.182C589.064 635.887 589.586 636.432 590.23 636.815C590.889 637.183 591.602 637.367 592.369 637.367C593.151 637.367 593.864 637.183 594.508 636.815C595.167 636.432 595.688 635.887 596.072 635.182C596.455 634.461 596.647 633.618 596.647 632.652ZM606.003 639.207C605.037 639.207 604.17 639.046 603.404 638.724C602.637 638.387 602.031 637.927 601.587 637.344C601.142 636.746 600.897 636.064 600.851 635.297H603.013C603.074 635.926 603.365 636.439 603.887 636.838C604.423 637.237 605.121 637.436 605.98 637.436C606.777 637.436 607.406 637.26 607.866 636.907C608.326 636.554 608.556 636.11 608.556 635.573C608.556 635.021 608.31 634.615 607.82 634.354C607.329 634.078 606.57 633.81 605.543 633.549C604.607 633.304 603.841 633.058 603.243 632.813C602.66 632.552 602.154 632.177 601.725 631.686C601.311 631.18 601.104 630.521 601.104 629.708C601.104 629.064 601.295 628.474 601.679 627.937C602.062 627.4 602.606 626.979 603.312 626.672C604.017 626.35 604.822 626.189 605.727 626.189C607.122 626.189 608.249 626.542 609.108 627.247C609.966 627.952 610.426 628.918 610.488 630.145H608.395C608.349 629.486 608.08 628.957 607.59 628.558C607.114 628.159 606.47 627.96 605.658 627.96C604.906 627.96 604.308 628.121 603.864 628.443C603.419 628.765 603.197 629.187 603.197 629.708C603.197 630.122 603.327 630.467 603.588 630.743C603.864 631.004 604.201 631.218 604.6 631.387C605.014 631.54 605.581 631.717 606.302 631.916C607.206 632.161 607.942 632.407 608.51 632.652C609.077 632.882 609.56 633.235 609.959 633.71C610.373 634.185 610.587 634.806 610.603 635.573C610.603 636.263 610.411 636.884 610.028 637.436C609.644 637.988 609.1 638.425 608.395 638.747C607.705 639.054 606.907 639.207 606.003 639.207ZM614.224 639.138C613.825 639.138 613.488 639 613.212 638.724C612.936 638.448 612.798 638.111 612.798 637.712C612.798 637.313 612.936 636.976 613.212 636.7C613.488 636.424 613.825 636.286 614.224 636.286C614.607 636.286 614.929 636.424 615.19 636.7C615.466 636.976 615.604 637.313 615.604 637.712C615.604 638.111 615.466 638.448 615.19 638.724C614.929 639 614.607 639.138 614.224 639.138Z" fill="white"/>
<defs>
<linearGradient id="paint0_linear" x1="332.414" y1="239.756" x2="684.012" y2="727.235" gradientUnits="userSpaceOnUse">
<stop stop-color="#FF0060"/>
<stop offset="1" stop-color="#FF69A2"/>
</linearGradient>
</defs>
</svg>
