<svg width="1470" height="478" viewBox="0 0 1470 478" fill="none" xmlns="http://www.w3.org/2000/svg">
<g filter="url(#filter0_d_7_5148)">
<rect width="200" height="200" transform="translate(15 9)" fill="white"/>
<rect x="23" y="17" width="184" height="184" fill="#193291"/>
<path d="M32.56 152.94H37.06C38.5667 152.94 39.82 153.347 40.82 154.16C41.82 154.973 42.32 156.14 42.32 157.66C42.32 159.14 41.8 160.3 40.76 161.14C39.7333 161.98 38.5 162.4 37.06 162.4H35.2V167H32.56V152.94ZM36.54 160.22C37.54 160.22 38.3067 160 38.84 159.56C39.3733 159.107 39.64 158.5 39.64 157.74C39.64 155.993 38.6 155.12 36.52 155.12H35.2V160.22H36.54ZM44.1759 156.42H46.7359V158.38C47.6693 156.94 48.8159 156.22 50.1759 156.22C50.5893 156.22 50.9359 156.267 51.2159 156.36L50.8559 158.54C50.5893 158.447 50.2759 158.4 49.9159 158.4C49.2759 158.4 48.6693 158.66 48.0959 159.18C47.5359 159.7 47.0826 160.42 46.7359 161.34V167H44.1759V156.42ZM52.3916 153.24C52.3916 152.787 52.5449 152.42 52.8516 152.14C53.1716 151.847 53.5449 151.7 53.9716 151.7C54.4116 151.7 54.7849 151.847 55.0916 152.14C55.4116 152.42 55.5716 152.787 55.5716 153.24C55.5716 153.68 55.4116 154.047 55.0916 154.34C54.7849 154.62 54.4116 154.76 53.9716 154.76C53.5449 154.76 53.1716 154.62 52.8516 154.34C52.5449 154.047 52.3916 153.68 52.3916 153.24ZM52.6916 156.42H55.2516V167H52.6916V156.42ZM57.9259 156.42H60.4859V158.4C61.4593 156.907 62.7659 156.16 64.4059 156.16C66.2059 156.16 67.3459 157.033 67.8259 158.78C68.8126 157.033 70.1659 156.16 71.8859 156.16C73.0193 156.16 73.9259 156.527 74.6059 157.26C75.2859 157.993 75.6259 159.167 75.6259 160.78V167H73.0859V160.94C73.0859 159.207 72.4526 158.34 71.1859 158.34C70.5059 158.34 69.9126 158.587 69.4059 159.08C68.8993 159.573 68.4459 160.333 68.0459 161.36V167H65.5059V160.94C65.5059 159.207 64.8926 158.34 63.6659 158.34C62.9726 158.34 62.3659 158.587 61.8459 159.08C61.3393 159.573 60.8859 160.333 60.4859 161.36V167H57.9259V156.42ZM77.5994 161.72C77.5994 159.973 78.0927 158.607 79.0794 157.62C80.0794 156.633 81.3194 156.14 82.7994 156.14C84.3994 156.14 85.6594 156.78 86.5794 158.06V156.42H89.1194V167H86.5794V165.08C85.6594 166.52 84.3994 167.24 82.7994 167.24C81.346 167.24 80.1127 166.753 79.0994 165.78C78.0994 164.807 77.5994 163.453 77.5994 161.72ZM86.5794 161.7V161.6C86.326 160.587 85.8927 159.787 85.2794 159.2C84.666 158.6 83.966 158.3 83.1794 158.3C82.326 158.3 81.626 158.593 81.0794 159.18C80.546 159.767 80.2794 160.6 80.2794 161.68C80.2794 162.733 80.5527 163.567 81.0994 164.18C81.646 164.78 82.3394 165.08 83.1794 165.08C84.006 165.08 84.7127 164.773 85.2994 164.16C85.8994 163.547 86.326 162.727 86.5794 161.7ZM91.7931 156.42H94.3531V158.38C95.2865 156.94 96.4331 156.22 97.7931 156.22C98.2065 156.22 98.5531 156.267 98.8331 156.36L98.4731 158.54C98.2065 158.447 97.8931 158.4 97.5331 158.4C96.8931 158.4 96.2865 158.66 95.7131 159.18C95.1531 159.7 94.6998 160.42 94.3531 161.34V167H91.7931V156.42ZM103.605 167.06L99.2055 156.42H102.165L104.945 164.2L107.845 156.42H110.665L104.445 171.2H101.745L103.605 167.06Z" fill="white"/>
<path opacity="0.8" d="M32.596 186.298H31.588V185.262H32.792L33.254 182.854H31.952V181.804H33.464L33.968 179.158H35.046L34.556 181.804H37.3L37.804 179.158H38.882L38.392 181.804H39.484V182.854H38.182L37.734 185.262H39.134V186.298H37.538L37.034 189H35.914L36.432 186.298H33.702L33.198 189H32.078L32.596 186.298ZM36.628 185.262L37.09 182.854H34.346L33.898 185.262H36.628ZM42.8785 180.81L40.8205 182.098L40.2325 181.02L43.1445 179.158H44.2925V189H42.8785V180.81ZM49.9289 185.36C49.7609 185.388 49.5835 185.402 49.3969 185.402C48.4729 185.402 47.6749 185.127 47.0029 184.576C46.3402 184.025 46.0089 183.241 46.0089 182.224C46.0089 181.216 46.3542 180.427 47.0449 179.858C47.7355 179.289 48.5569 179.004 49.5089 179.004C50.4329 179.004 51.2215 179.284 51.8749 179.844C52.5375 180.404 52.8689 181.183 52.8689 182.182C52.8689 182.77 52.7522 183.316 52.5189 183.82C52.2949 184.315 51.9542 184.875 51.4969 185.5L49.0049 189H47.3669L49.9289 185.36ZM51.1189 183.456C51.2962 183.055 51.3849 182.639 51.3849 182.21C51.3849 181.594 51.1935 181.123 50.8109 180.796C50.4375 180.46 49.9895 180.292 49.4669 180.292C48.9442 180.292 48.4869 180.46 48.0949 180.796C47.7029 181.132 47.5069 181.599 47.5069 182.196C47.5069 182.793 47.7029 183.265 48.0949 183.61C48.4962 183.955 48.9535 184.128 49.4669 184.128C50.1202 184.128 50.6709 183.904 51.1189 183.456ZM53.8022 188.244L54.2922 187.054C54.9268 187.577 55.6548 187.838 56.4762 187.838C57.0922 187.838 57.5868 187.679 57.9602 187.362C58.3335 187.045 58.5202 186.643 58.5202 186.158C58.5202 185.682 58.3382 185.299 57.9742 185.01C57.6102 184.721 57.1015 184.576 56.4482 184.576H55.3282V183.344H56.4062C56.9475 183.344 57.3815 183.199 57.7082 182.91C58.0348 182.621 58.1982 182.261 58.1982 181.832C58.1982 181.393 58.0348 181.034 57.7082 180.754C57.3908 180.465 56.9475 180.32 56.3782 180.32C55.5848 180.32 54.9782 180.539 54.5582 180.978L54.0822 179.914C54.7262 179.298 55.5755 178.99 56.6302 178.99C57.5262 178.99 58.2588 179.223 58.8282 179.69C59.4068 180.157 59.6962 180.768 59.6962 181.524C59.6962 182.009 59.5468 182.453 59.2482 182.854C58.9588 183.255 58.5482 183.577 58.0162 183.82C58.6322 183.988 59.1175 184.277 59.4722 184.688C59.8268 185.089 60.0042 185.579 60.0042 186.158C60.0042 186.989 59.6775 187.698 59.0242 188.286C58.3708 188.865 57.5308 189.154 56.5042 189.154C55.4215 189.154 54.5208 188.851 53.8022 188.244ZM61.3527 187.95C62.1927 187.147 62.8227 186.531 63.2427 186.102C63.6627 185.673 64.106 185.187 64.5727 184.646C65.0393 184.095 65.366 183.624 65.5527 183.232C65.7393 182.831 65.8327 182.448 65.8327 182.084C65.8327 181.571 65.66 181.151 65.3147 180.824C64.9693 180.488 64.5073 180.32 63.9287 180.32C63.1353 180.32 62.398 180.633 61.7167 181.258L61.3107 180.124C62.132 179.368 63.0793 178.99 64.1527 178.99C65.1607 178.99 65.9447 179.275 66.5047 179.844C67.0647 180.413 67.3447 181.104 67.3447 181.916C67.3447 182.747 67.018 183.591 66.3647 184.45C65.7113 185.309 64.68 186.396 63.2707 187.712H67.4987V189H61.3527V187.95ZM72.5695 185.36C72.4015 185.388 72.2242 185.402 72.0375 185.402C71.1135 185.402 70.3155 185.127 69.6435 184.576C68.9808 184.025 68.6495 183.241 68.6495 182.224C68.6495 181.216 68.9948 180.427 69.6855 179.858C70.3762 179.289 71.1975 179.004 72.1495 179.004C73.0735 179.004 73.8622 179.284 74.5155 179.844C75.1782 180.404 75.5095 181.183 75.5095 182.182C75.5095 182.77 75.3928 183.316 75.1595 183.82C74.9355 184.315 74.5948 184.875 74.1375 185.5L71.6455 189H70.0075L72.5695 185.36ZM73.7595 183.456C73.9368 183.055 74.0255 182.639 74.0255 182.21C74.0255 181.594 73.8342 181.123 73.4515 180.796C73.0782 180.46 72.6302 180.292 72.1075 180.292C71.5848 180.292 71.1275 180.46 70.7355 180.796C70.3435 181.132 70.1475 181.599 70.1475 182.196C70.1475 182.793 70.3435 183.265 70.7355 183.61C71.1368 183.955 71.5942 184.128 72.1075 184.128C72.7608 184.128 73.3115 183.904 73.7595 183.456ZM78.9859 180.81L76.9279 182.098L76.3399 181.02L79.2519 179.158H80.3999V189H78.9859V180.81Z" fill="white"/>
</g>
<g filter="url(#filter1_d_7_5148)">
<rect width="200" height="200" transform="translate(263 9)" fill="white"/>
<rect x="271" y="17" width="184" height="184" fill="#2D47A0"/>
<path d="M280.56 152.94H283.2V158.82H290.66V152.94H293.3V167H290.66V161.2H283.2V167H280.56V152.94ZM297.102 165.8C296.009 164.827 295.462 163.473 295.462 161.74C295.462 160.007 296.022 158.64 297.142 157.64C298.262 156.627 299.629 156.12 301.242 156.12C302.856 156.12 304.236 156.62 305.382 157.62C306.529 158.607 307.102 159.96 307.102 161.68C307.102 163.413 306.529 164.78 305.382 165.78C304.249 166.767 302.856 167.26 301.202 167.26C299.576 167.26 298.209 166.773 297.102 165.8ZM303.522 164.22C304.122 163.62 304.422 162.78 304.422 161.7C304.422 160.62 304.122 159.78 303.522 159.18C302.922 158.567 302.176 158.26 301.282 158.26C300.389 158.26 299.642 158.553 299.042 159.14C298.442 159.727 298.142 160.567 298.142 161.66C298.142 162.767 298.429 163.62 299.002 164.22C299.589 164.807 300.336 165.1 301.242 165.1C302.176 165.1 302.936 164.807 303.522 164.22ZM307.538 156.42H310.498L313.258 164.1L316.178 156.42H319.018L314.458 167H311.918L307.538 156.42ZM319.428 161.78C319.428 160.087 319.934 158.727 320.948 157.7C321.974 156.66 323.281 156.14 324.868 156.14C326.414 156.14 327.668 156.613 328.628 157.56C329.601 158.493 330.088 159.873 330.088 161.7C330.088 162.033 330.068 162.307 330.028 162.52H322.088C322.354 164.32 323.501 165.22 325.528 165.22C326.834 165.22 328.041 164.927 329.148 164.34L329.588 166.18C328.334 166.913 326.848 167.28 325.128 167.28C323.301 167.28 321.894 166.793 320.908 165.82C319.921 164.847 319.428 163.5 319.428 161.78ZM327.448 160.92C327.261 159.08 326.388 158.16 324.828 158.16C323.228 158.16 322.314 159.08 322.088 160.92H327.448ZM332.137 156.42H334.697V158.38C335.63 156.94 336.777 156.22 338.137 156.22C338.55 156.22 338.897 156.267 339.177 156.36L338.817 158.54C338.55 158.447 338.237 158.4 337.877 158.4C337.237 158.4 336.63 158.66 336.057 159.18C335.497 159.7 335.044 160.42 334.697 161.34V167H332.137V156.42Z" fill="white"/>
<path opacity="0.8" d="M280.596 186.298H279.588V185.262H280.792L281.254 182.854H279.952V181.804H281.464L281.968 179.158H283.046L282.556 181.804H285.3L285.804 179.158H286.882L286.392 181.804H287.484V182.854H286.182L285.734 185.262H287.134V186.298H285.538L285.034 189H283.914L284.432 186.298H281.702L281.198 189H280.078L280.596 186.298ZM284.628 185.262L285.09 182.854H282.346L281.898 185.262H284.628ZM288.694 187.95C289.534 187.147 290.164 186.531 290.584 186.102C291.004 185.673 291.448 185.187 291.914 184.646C292.381 184.095 292.708 183.624 292.894 183.232C293.081 182.831 293.174 182.448 293.174 182.084C293.174 181.571 293.002 181.151 292.656 180.824C292.311 180.488 291.849 180.32 291.27 180.32C290.477 180.32 289.74 180.633 289.058 181.258L288.652 180.124C289.474 179.368 290.421 178.99 291.494 178.99C292.502 178.99 293.286 179.275 293.846 179.844C294.406 180.413 294.686 181.104 294.686 181.916C294.686 182.747 294.36 183.591 293.706 184.45C293.053 185.309 292.022 186.396 290.612 187.712H294.84V189H288.694V187.95ZM296.747 179.158H299.561C301.027 179.158 302.226 179.606 303.159 180.502C304.093 181.398 304.559 182.593 304.559 184.086C304.559 185.589 304.093 186.783 303.159 187.67C302.226 188.557 301.027 189 299.561 189H296.747V179.158ZM299.575 187.726C300.611 187.726 301.451 187.409 302.095 186.774C302.739 186.139 303.061 185.262 303.061 184.142C303.061 183.013 302.735 182.112 302.081 181.44C301.428 180.768 300.597 180.432 299.589 180.432H298.189V187.726H299.575ZM310.249 186.774H305.559V185.738L310.431 179.158H311.691V185.514H313.133V186.774H311.691V189.154H310.249V186.774ZM310.249 185.514V181.188L307.057 185.514H310.249ZM318.566 180.432H313.722V179.158H320.134V180.04L316.046 189H314.52L318.566 180.432ZM323.302 179.158H324.8L328.44 189H326.872L325.906 186.284H322.098L321.146 189H319.62L323.302 179.158ZM325.472 185.038L323.988 180.866L322.532 185.038H325.472ZM329.153 184.072C329.153 180.684 330.324 178.99 332.667 178.99C333.32 178.99 333.875 179.111 334.333 179.354C334.799 179.597 335.163 179.951 335.425 180.418C335.686 180.885 335.873 181.417 335.985 182.014C336.106 182.602 336.167 183.288 336.167 184.072C336.167 187.46 335 189.154 332.667 189.154C332.004 189.154 331.439 189.037 330.973 188.804C330.515 188.561 330.151 188.211 329.881 187.754C329.619 187.297 329.433 186.769 329.321 186.172C329.209 185.575 329.153 184.875 329.153 184.072ZM334.683 184.086C334.673 182.807 334.519 181.86 334.221 181.244C333.931 180.628 333.409 180.32 332.653 180.32C331.887 180.32 331.36 180.633 331.071 181.258C330.781 181.874 330.637 182.812 330.637 184.072C330.637 185.379 330.777 186.335 331.057 186.942C331.337 187.539 331.873 187.838 332.667 187.838C333.404 187.838 333.922 187.53 334.221 186.914C334.529 186.289 334.683 185.346 334.683 184.086Z" fill="white"/>
</g>
<g filter="url(#filter2_d_7_5148)">
<rect width="200" height="200" transform="translate(511 9)" fill="white"/>
<rect x="519" y="17" width="184" height="184" fill="#1B358F"/>
<path d="M528.56 152.94H533.06C534.567 152.94 535.82 153.347 536.82 154.16C537.82 154.973 538.32 156.14 538.32 157.66C538.32 159.14 537.8 160.3 536.76 161.14C535.733 161.98 534.5 162.4 533.06 162.4H531.2V167H528.56V152.94ZM532.54 160.22C533.54 160.22 534.307 160 534.84 159.56C535.373 159.107 535.64 158.5 535.64 157.74C535.64 155.993 534.6 155.12 532.52 155.12H531.2V160.22H532.54ZM540.176 156.42H542.736V158.38C543.669 156.94 544.816 156.22 546.176 156.22C546.589 156.22 546.936 156.267 547.216 156.36L546.856 158.54C546.589 158.447 546.276 158.4 545.916 158.4C545.276 158.4 544.669 158.66 544.096 159.18C543.536 159.7 543.083 160.42 542.736 161.34V167H540.176V156.42ZM547.623 161.78C547.623 160.087 548.129 158.727 549.143 157.7C550.169 156.66 551.476 156.14 553.063 156.14C554.609 156.14 555.863 156.613 556.823 157.56C557.796 158.493 558.283 159.873 558.283 161.7C558.283 162.033 558.263 162.307 558.223 162.52H550.283C550.549 164.32 551.696 165.22 553.723 165.22C555.029 165.22 556.236 164.927 557.343 164.34L557.783 166.18C556.529 166.913 555.043 167.28 553.323 167.28C551.496 167.28 550.089 166.793 549.103 165.82C548.116 164.847 547.623 163.5 547.623 161.78ZM555.643 160.92C555.456 159.08 554.583 158.16 553.023 158.16C551.423 158.16 550.509 159.08 550.283 160.92H555.643ZM559.692 166.32L560.132 164.24C561.226 164.947 562.412 165.3 563.692 165.3C565.079 165.3 565.772 164.887 565.772 164.06C565.772 163.687 565.566 163.407 565.152 163.22C564.752 163.02 564.259 162.873 563.672 162.78C563.099 162.673 562.519 162.54 561.932 162.38C561.346 162.22 560.846 161.907 560.432 161.44C560.032 160.96 559.832 160.327 559.832 159.54C559.832 158.5 560.219 157.673 560.992 157.06C561.779 156.433 562.859 156.12 564.232 156.12C565.592 156.12 566.839 156.42 567.972 157.02L567.512 159.08C566.419 158.453 565.366 158.14 564.352 158.14C563.766 158.14 563.286 158.253 562.912 158.48C562.552 158.693 562.372 158.993 562.372 159.38C562.372 159.793 562.572 160.107 562.972 160.32C563.386 160.52 563.886 160.673 564.472 160.78C565.059 160.887 565.639 161.02 566.212 161.18C566.799 161.327 567.292 161.62 567.692 162.06C568.106 162.487 568.312 163.067 568.312 163.8C568.312 164.827 567.872 165.66 566.992 166.3C566.112 166.94 564.986 167.26 563.612 167.26C562.172 167.26 560.866 166.947 559.692 166.32ZM569.673 166.32L570.113 164.24C571.206 164.947 572.393 165.3 573.673 165.3C575.059 165.3 575.753 164.887 575.753 164.06C575.753 163.687 575.546 163.407 575.133 163.22C574.733 163.02 574.239 162.873 573.653 162.78C573.079 162.673 572.499 162.54 571.913 162.38C571.326 162.22 570.826 161.907 570.413 161.44C570.013 160.96 569.813 160.327 569.813 159.54C569.813 158.5 570.199 157.673 570.973 157.06C571.759 156.433 572.839 156.12 574.213 156.12C575.573 156.12 576.819 156.42 577.953 157.02L577.493 159.08C576.399 158.453 575.346 158.14 574.333 158.14C573.746 158.14 573.266 158.253 572.893 158.48C572.533 158.693 572.353 158.993 572.353 159.38C572.353 159.793 572.553 160.107 572.953 160.32C573.366 160.52 573.866 160.673 574.453 160.78C575.039 160.887 575.619 161.02 576.193 161.18C576.779 161.327 577.273 161.62 577.673 162.06C578.086 162.487 578.293 163.067 578.293 163.8C578.293 164.827 577.853 165.66 576.973 166.3C576.093 166.94 574.966 167.26 573.593 167.26C572.153 167.26 570.846 166.947 569.673 166.32Z" fill="white"/>
<path opacity="0.8" d="M528.596 186.298H527.588V185.262H528.792L529.254 182.854H527.952V181.804H529.464L529.968 179.158H531.046L530.556 181.804H533.3L533.804 179.158H534.882L534.392 181.804H535.484V182.854H534.182L533.734 185.262H535.134V186.298H533.538L533.034 189H531.914L532.432 186.298H529.702L529.198 189H528.078L528.596 186.298ZM532.628 185.262L533.09 182.854H530.346L529.898 185.262H532.628ZM538.878 180.81L536.82 182.098L536.232 181.02L539.144 179.158H540.292V189H538.878V180.81ZM542.765 179.158H545.425C546.433 179.158 547.24 179.373 547.847 179.802C548.454 180.231 548.757 180.899 548.757 181.804C548.757 182.784 548.328 183.489 547.469 183.918C548.057 184.114 548.514 184.413 548.841 184.814C549.177 185.215 549.345 185.701 549.345 186.27C549.345 187.101 549.023 187.763 548.379 188.258C547.735 188.753 546.9 189 545.873 189H542.765V179.158ZM545.425 183.484C546.022 183.484 546.48 183.339 546.797 183.05C547.114 182.751 547.273 182.35 547.273 181.846C547.273 180.875 546.657 180.39 545.425 180.39H544.207V183.484H545.425ZM545.915 187.768C546.54 187.768 547.021 187.614 547.357 187.306C547.693 186.989 547.861 186.611 547.861 186.172C547.861 185.696 547.674 185.309 547.301 185.01C546.928 184.702 546.41 184.548 545.747 184.548H544.207V187.768H545.915ZM550.39 188.244L550.88 187.054C551.515 187.577 552.243 187.838 553.064 187.838C553.68 187.838 554.175 187.679 554.548 187.362C554.921 187.045 555.108 186.643 555.108 186.158C555.108 185.682 554.926 185.299 554.562 185.01C554.198 184.721 553.689 184.576 553.036 184.576H551.916V183.344H552.994C553.535 183.344 553.969 183.199 554.296 182.91C554.623 182.621 554.786 182.261 554.786 181.832C554.786 181.393 554.623 181.034 554.296 180.754C553.979 180.465 553.535 180.32 552.966 180.32C552.173 180.32 551.566 180.539 551.146 180.978L550.67 179.914C551.314 179.298 552.163 178.99 553.218 178.99C554.114 178.99 554.847 179.223 555.416 179.69C555.995 180.157 556.284 180.768 556.284 181.524C556.284 182.009 556.135 182.453 555.836 182.854C555.547 183.255 555.136 183.577 554.604 183.82C555.22 183.988 555.705 184.277 556.06 184.688C556.415 185.089 556.592 185.579 556.592 186.158C556.592 186.989 556.265 187.698 555.612 188.286C554.959 188.865 554.119 189.154 553.092 189.154C552.009 189.154 551.109 188.851 550.39 188.244ZM557.773 188.328L558.095 187.068C559 187.581 559.821 187.838 560.559 187.838C561.165 187.838 561.66 187.67 562.043 187.334C562.435 186.989 562.631 186.522 562.631 185.934C562.631 185.383 562.444 184.931 562.071 184.576C561.697 184.212 561.109 184.03 560.307 184.03C559.812 184.03 559.238 184.151 558.585 184.394L558.417 184.254L559.145 179.158H563.765V180.418H560.251L559.873 182.966C560.153 182.919 560.419 182.896 560.671 182.896C561.735 182.896 562.575 183.176 563.191 183.736C563.807 184.287 564.115 185.01 564.115 185.906C564.115 186.858 563.774 187.637 563.093 188.244C562.421 188.851 561.585 189.154 560.587 189.154C559.597 189.154 558.659 188.879 557.773 188.328ZM565.448 186.228C565.448 184.996 566.036 184.156 567.212 183.708C566.307 183.297 565.854 182.597 565.854 181.608C565.854 180.777 566.143 180.138 566.722 179.69C567.301 179.233 567.996 179.004 568.808 179.004C569.601 179.004 570.283 179.223 570.852 179.662C571.421 180.101 571.706 180.726 571.706 181.538C571.706 182.565 571.235 183.288 570.292 183.708C571.477 184.147 572.07 184.977 572.07 186.2C572.07 187.133 571.739 187.861 571.076 188.384C570.413 188.907 569.625 189.168 568.71 189.168C567.823 189.168 567.058 188.916 566.414 188.412C565.77 187.899 565.448 187.171 565.448 186.228ZM569.816 182.728C570.124 182.457 570.278 182.098 570.278 181.65C570.278 181.202 570.129 180.847 569.83 180.586C569.541 180.315 569.191 180.18 568.78 180.18C568.369 180.18 568.015 180.306 567.716 180.558C567.417 180.801 567.268 181.155 567.268 181.622C567.268 182.089 567.422 182.457 567.73 182.728C568.038 182.999 568.388 183.134 568.78 183.134C569.163 183.134 569.508 182.999 569.816 182.728ZM570.544 186.144C570.544 185.584 570.362 185.15 569.998 184.842C569.643 184.534 569.228 184.38 568.752 184.38C568.276 184.38 567.856 184.529 567.492 184.828C567.137 185.117 566.96 185.556 566.96 186.144C566.96 186.713 567.137 187.147 567.492 187.446C567.847 187.745 568.271 187.894 568.766 187.894C569.251 187.894 569.667 187.745 570.012 187.446C570.367 187.147 570.544 186.713 570.544 186.144ZM573.991 179.158H579.703V180.432H575.433V183.764H579.213V185.038H575.433V189H573.991V179.158Z" fill="white"/>
</g>
<g filter="url(#filter3_d_7_5148)">
<rect width="200" height="200" transform="translate(759 9)" fill="white"/>
<rect x="767" y="17" width="184" height="184" fill="#DCE0EF"/>
<path d="M776.56 152.94H779.2V164.74H784.86V167H776.56V152.94ZM786.177 153.24C786.177 152.787 786.33 152.42 786.637 152.14C786.957 151.847 787.33 151.7 787.757 151.7C788.197 151.7 788.57 151.847 788.877 152.14C789.197 152.42 789.357 152.787 789.357 153.24C789.357 153.68 789.197 154.047 788.877 154.34C788.57 154.62 788.197 154.76 787.757 154.76C787.33 154.76 786.957 154.62 786.637 154.34C786.33 154.047 786.177 153.68 786.177 153.24ZM786.477 156.42H789.037V167H786.477V156.42ZM791.811 170.16L792.171 167.9C792.798 168.3 793.538 168.613 794.391 168.84C795.258 169.067 796.064 169.18 796.811 169.18C797.758 169.18 798.538 168.96 799.151 168.52C799.778 168.08 800.091 167.433 800.091 166.58V164.84C799.224 166.16 797.958 166.82 796.291 166.82C794.824 166.82 793.591 166.367 792.591 165.46C791.604 164.553 791.111 163.247 791.111 161.54C791.111 159.807 791.604 158.473 792.591 157.54C793.578 156.607 794.811 156.14 796.291 156.14C797.904 156.14 799.171 156.787 800.091 158.08V156.42H802.631V166.98C802.631 168.287 802.084 169.36 800.991 170.2C799.911 171.04 798.524 171.46 796.831 171.46C795.898 171.46 794.978 171.34 794.071 171.1C793.164 170.86 792.411 170.547 791.811 170.16ZM800.091 161.6V161.52C799.838 160.52 799.398 159.733 798.771 159.16C798.158 158.587 797.458 158.3 796.671 158.3C795.818 158.3 795.118 158.573 794.571 159.12C794.038 159.667 793.771 160.46 793.771 161.5C793.771 162.5 794.044 163.28 794.591 163.84C795.138 164.387 795.838 164.66 796.691 164.66C797.518 164.66 798.224 164.393 798.811 163.86C799.411 163.327 799.838 162.573 800.091 161.6ZM805.305 152.94H807.865V158.4C808.878 156.893 810.192 156.14 811.805 156.14C814.378 156.14 815.665 157.667 815.665 160.72V167H813.125V160.88C813.125 159.173 812.478 158.32 811.185 158.32C809.825 158.32 808.718 159.327 807.865 161.34V167H805.305V152.94ZM818.897 163.44V158.38H817.037V156.42H818.897V153.52H821.437V156.42H825.337V158.38H821.437V162.82C821.437 164.3 822.031 165.04 823.217 165.04C823.977 165.04 824.697 164.88 825.377 164.56L825.777 166.54C824.831 166.993 823.764 167.22 822.577 167.22C821.431 167.22 820.531 166.907 819.877 166.28C819.224 165.653 818.897 164.707 818.897 163.44ZM831.912 152.94H836.392C837.885 152.94 839.078 153.26 839.972 153.9C840.878 154.527 841.332 155.487 841.332 156.78C841.332 158.153 840.712 159.16 839.472 159.8C840.272 160.067 840.898 160.487 841.352 161.06C841.805 161.633 842.032 162.313 842.032 163.1C842.032 164.287 841.558 165.233 840.612 165.94C839.665 166.647 838.418 167 836.872 167H831.912V152.94ZM836.392 159.02C837.152 159.02 837.725 158.833 838.112 158.46C838.498 158.087 838.692 157.58 838.692 156.94C838.692 155.673 837.925 155.04 836.392 155.04H834.552V159.02H836.392ZM836.952 164.9C837.738 164.9 838.338 164.7 838.752 164.3C839.165 163.9 839.372 163.427 839.372 162.88C839.372 162.293 839.145 161.807 838.692 161.42C838.238 161.02 837.598 160.82 836.772 160.82H834.552V164.9H836.952ZM844.113 152.94H846.673V167H844.113V152.94ZM849.228 162.64V156.42H851.768V162.48C851.768 164.187 852.408 165.04 853.688 165.04C855.061 165.04 856.134 164.047 856.908 162.06V156.42H859.448V167H856.908V165.02C855.934 166.473 854.641 167.2 853.028 167.2C850.494 167.2 849.228 165.68 849.228 162.64ZM861.521 161.78C861.521 160.087 862.028 158.727 863.041 157.7C864.068 156.66 865.375 156.14 866.961 156.14C868.508 156.14 869.761 156.613 870.721 157.56C871.695 158.493 872.181 159.873 872.181 161.7C872.181 162.033 872.161 162.307 872.121 162.52H864.181C864.448 164.32 865.595 165.22 867.621 165.22C868.928 165.22 870.135 164.927 871.241 164.34L871.681 166.18C870.428 166.913 868.941 167.28 867.221 167.28C865.395 167.28 863.988 166.793 863.001 165.82C862.015 164.847 861.521 163.5 861.521 161.78ZM869.541 160.92C869.355 159.08 868.481 158.16 866.921 158.16C865.321 158.16 864.408 159.08 864.181 160.92H869.541ZM878.383 160C878.383 158.907 878.476 157.927 878.663 157.06C878.863 156.18 879.169 155.407 879.583 154.74C879.996 154.073 880.556 153.56 881.263 153.2C881.969 152.84 882.803 152.66 883.763 152.66C887.323 152.66 889.103 155.107 889.103 160C889.103 162.253 888.669 164.027 887.803 165.32C886.949 166.6 885.596 167.24 883.743 167.24C881.836 167.24 880.463 166.613 879.623 165.36C878.796 164.107 878.383 162.32 878.383 160ZM886.423 160.12V159.98C886.423 158.327 886.223 157.093 885.823 156.28C885.436 155.453 884.736 155.04 883.723 155.04C882.723 155.04 882.023 155.453 881.623 156.28C881.236 157.093 881.043 158.32 881.043 159.96C881.043 161.667 881.229 162.92 881.603 163.72C881.989 164.52 882.703 164.92 883.743 164.92C884.716 164.92 885.403 164.52 885.803 163.72C886.216 162.92 886.423 161.72 886.423 160.12ZM894.198 155.8L891.318 157.58L890.258 155.72L894.678 152.94H896.738V167H894.198V155.8Z" fill="#00003C"/>
<path opacity="0.8" d="M776.596 186.298H775.588V185.262H776.792L777.254 182.854H775.952V181.804H777.464L777.968 179.158H779.046L778.556 181.804H781.3L781.804 179.158H782.882L782.392 181.804H783.484V182.854H782.182L781.734 185.262H783.134V186.298H781.538L781.034 189H779.914L780.432 186.298H777.702L777.198 189H776.078L776.596 186.298ZM780.628 185.262L781.09 182.854H778.346L777.898 185.262H780.628ZM785.282 179.158H788.096C789.562 179.158 790.761 179.606 791.694 180.502C792.628 181.398 793.094 182.593 793.094 184.086C793.094 185.589 792.628 186.783 791.694 187.67C790.761 188.557 789.562 189 788.096 189H785.282V179.158ZM788.11 187.726C789.146 187.726 789.986 187.409 790.63 186.774C791.274 186.139 791.596 185.262 791.596 184.142C791.596 183.013 791.27 182.112 790.616 181.44C789.963 180.768 789.132 180.432 788.124 180.432H786.724V187.726H788.11ZM794.374 184.058C794.374 182.602 794.841 181.393 795.774 180.432C796.707 179.471 797.888 178.99 799.316 178.99C800.772 178.99 801.939 179.452 802.816 180.376L801.934 181.496C801.281 180.721 800.399 180.334 799.288 180.334C798.336 180.334 797.529 180.67 796.866 181.342C796.203 182.005 795.872 182.91 795.872 184.058C795.872 185.243 796.203 186.167 796.866 186.83C797.529 187.493 798.345 187.824 799.316 187.824C799.811 187.824 800.291 187.726 800.758 187.53C801.225 187.334 801.617 187.049 801.934 186.676L802.816 187.656C801.901 188.655 800.725 189.154 799.288 189.154C797.832 189.154 796.647 188.687 795.732 187.754C794.827 186.811 794.374 185.579 794.374 184.058ZM804.368 179.158H810.108V180.432H805.81V183.442H809.478V184.688H805.81V187.726H810.108V189H804.368V179.158ZM811.536 184.072C811.536 180.684 812.707 178.99 815.05 178.99C815.703 178.99 816.258 179.111 816.716 179.354C817.182 179.597 817.546 179.951 817.808 180.418C818.069 180.885 818.256 181.417 818.368 182.014C818.489 182.602 818.55 183.288 818.55 184.072C818.55 187.46 817.383 189.154 815.05 189.154C814.387 189.154 813.822 189.037 813.356 188.804C812.898 188.561 812.534 188.211 812.264 187.754C812.002 187.297 811.816 186.769 811.704 186.172C811.592 185.575 811.536 184.875 811.536 184.072ZM817.066 184.086C817.056 182.807 816.902 181.86 816.604 181.244C816.314 180.628 815.792 180.32 815.036 180.32C814.27 180.32 813.743 180.633 813.454 181.258C813.164 181.874 813.02 182.812 813.02 184.072C813.02 185.379 813.16 186.335 813.44 186.942C813.72 187.539 814.256 187.838 815.05 187.838C815.787 187.838 816.305 187.53 816.604 186.914C816.912 186.289 817.066 185.346 817.066 184.086ZM820.542 179.158H826.282V180.432H821.984V183.442H825.652V184.688H821.984V187.726H826.282V189H820.542V179.158ZM828.157 179.158H833.869V180.432H829.599V183.764H833.379V185.038H829.599V189H828.157V179.158Z" fill="#00003C"/>
</g>
<g filter="url(#filter4_d_7_5148)">
<rect width="200" height="200" transform="translate(1007 9)" fill="white"/>
<rect x="1015" y="17" width="184" height="184" fill="#E7EBFB"/>
<path d="M1024.56 152.94H1027.2V164.74H1032.86V167H1024.56V152.94ZM1034.18 153.24C1034.18 152.787 1034.33 152.42 1034.64 152.14C1034.96 151.847 1035.33 151.7 1035.76 151.7C1036.2 151.7 1036.57 151.847 1036.88 152.14C1037.2 152.42 1037.36 152.787 1037.36 153.24C1037.36 153.68 1037.2 154.047 1036.88 154.34C1036.57 154.62 1036.2 154.76 1035.76 154.76C1035.33 154.76 1034.96 154.62 1034.64 154.34C1034.33 154.047 1034.18 153.68 1034.18 153.24ZM1034.48 156.42H1037.04V167H1034.48V156.42ZM1039.81 170.16L1040.17 167.9C1040.8 168.3 1041.54 168.613 1042.39 168.84C1043.26 169.067 1044.06 169.18 1044.81 169.18C1045.76 169.18 1046.54 168.96 1047.15 168.52C1047.78 168.08 1048.09 167.433 1048.09 166.58V164.84C1047.22 166.16 1045.96 166.82 1044.29 166.82C1042.82 166.82 1041.59 166.367 1040.59 165.46C1039.6 164.553 1039.11 163.247 1039.11 161.54C1039.11 159.807 1039.6 158.473 1040.59 157.54C1041.58 156.607 1042.81 156.14 1044.29 156.14C1045.9 156.14 1047.17 156.787 1048.09 158.08V156.42H1050.63V166.98C1050.63 168.287 1050.08 169.36 1048.99 170.2C1047.91 171.04 1046.52 171.46 1044.83 171.46C1043.9 171.46 1042.98 171.34 1042.07 171.1C1041.16 170.86 1040.41 170.547 1039.81 170.16ZM1048.09 161.6V161.52C1047.84 160.52 1047.4 159.733 1046.77 159.16C1046.16 158.587 1045.46 158.3 1044.67 158.3C1043.82 158.3 1043.12 158.573 1042.57 159.12C1042.04 159.667 1041.77 160.46 1041.77 161.5C1041.77 162.5 1042.04 163.28 1042.59 163.84C1043.14 164.387 1043.84 164.66 1044.69 164.66C1045.52 164.66 1046.22 164.393 1046.81 163.86C1047.41 163.327 1047.84 162.573 1048.09 161.6ZM1053.3 152.94H1055.86V158.4C1056.88 156.893 1058.19 156.14 1059.8 156.14C1062.38 156.14 1063.66 157.667 1063.66 160.72V167H1061.12V160.88C1061.12 159.173 1060.48 158.32 1059.18 158.32C1057.82 158.32 1056.72 159.327 1055.86 161.34V167H1053.3V152.94ZM1066.9 163.44V158.38H1065.04V156.42H1066.9V153.52H1069.44V156.42H1073.34V158.38H1069.44V162.82C1069.44 164.3 1070.03 165.04 1071.22 165.04C1071.98 165.04 1072.7 164.88 1073.38 164.56L1073.78 166.54C1072.83 166.993 1071.76 167.22 1070.58 167.22C1069.43 167.22 1068.53 166.907 1067.88 166.28C1067.22 165.653 1066.9 164.707 1066.9 163.44ZM1079.91 152.94H1084.39C1085.88 152.94 1087.08 153.26 1087.97 153.9C1088.88 154.527 1089.33 155.487 1089.33 156.78C1089.33 158.153 1088.71 159.16 1087.47 159.8C1088.27 160.067 1088.9 160.487 1089.35 161.06C1089.8 161.633 1090.03 162.313 1090.03 163.1C1090.03 164.287 1089.56 165.233 1088.61 165.94C1087.66 166.647 1086.42 167 1084.87 167H1079.91V152.94ZM1084.39 159.02C1085.15 159.02 1085.72 158.833 1086.11 158.46C1086.5 158.087 1086.69 157.58 1086.69 156.94C1086.69 155.673 1085.92 155.04 1084.39 155.04H1082.55V159.02H1084.39ZM1084.95 164.9C1085.74 164.9 1086.34 164.7 1086.75 164.3C1087.16 163.9 1087.37 163.427 1087.37 162.88C1087.37 162.293 1087.14 161.807 1086.69 161.42C1086.24 161.02 1085.6 160.82 1084.77 160.82H1082.55V164.9H1084.95ZM1092.11 152.94H1094.67V167H1092.11V152.94ZM1097.23 162.64V156.42H1099.77V162.48C1099.77 164.187 1100.41 165.04 1101.69 165.04C1103.06 165.04 1104.13 164.047 1104.91 162.06V156.42H1107.45V167H1104.91V165.02C1103.93 166.473 1102.64 167.2 1101.03 167.2C1098.49 167.2 1097.23 165.68 1097.23 162.64ZM1109.52 161.78C1109.52 160.087 1110.03 158.727 1111.04 157.7C1112.07 156.66 1113.37 156.14 1114.96 156.14C1116.51 156.14 1117.76 156.613 1118.72 157.56C1119.69 158.493 1120.18 159.873 1120.18 161.7C1120.18 162.033 1120.16 162.307 1120.12 162.52H1112.18C1112.45 164.32 1113.59 165.22 1115.62 165.22C1116.93 165.22 1118.13 164.927 1119.24 164.34L1119.68 166.18C1118.43 166.913 1116.94 167.28 1115.22 167.28C1113.39 167.28 1111.99 166.793 1111 165.82C1110.01 164.847 1109.52 163.5 1109.52 161.78ZM1117.54 160.92C1117.35 159.08 1116.48 158.16 1114.92 158.16C1113.32 158.16 1112.41 159.08 1112.18 160.92H1117.54ZM1126.38 160C1126.38 158.907 1126.48 157.927 1126.66 157.06C1126.86 156.18 1127.17 155.407 1127.58 154.74C1128 154.073 1128.56 153.56 1129.26 153.2C1129.97 152.84 1130.8 152.66 1131.76 152.66C1135.32 152.66 1137.1 155.107 1137.1 160C1137.1 162.253 1136.67 164.027 1135.8 165.32C1134.95 166.6 1133.6 167.24 1131.74 167.24C1129.84 167.24 1128.46 166.613 1127.62 165.36C1126.8 164.107 1126.38 162.32 1126.38 160ZM1134.42 160.12V159.98C1134.42 158.327 1134.22 157.093 1133.82 156.28C1133.44 155.453 1132.74 155.04 1131.72 155.04C1130.72 155.04 1130.02 155.453 1129.62 156.28C1129.24 157.093 1129.04 158.32 1129.04 159.96C1129.04 161.667 1129.23 162.92 1129.6 163.72C1129.99 164.52 1130.7 164.92 1131.74 164.92C1132.72 164.92 1133.4 164.52 1133.8 163.72C1134.22 162.92 1134.42 161.72 1134.42 160.12ZM1138.7 165.38C1139.6 164.527 1140.26 163.887 1140.68 163.46C1141.12 163.02 1141.67 162.453 1142.32 161.76C1142.99 161.067 1143.48 160.507 1143.78 160.08C1144.09 159.64 1144.36 159.173 1144.6 158.68C1144.84 158.173 1144.96 157.72 1144.96 157.32C1144.96 156.667 1144.73 156.12 1144.26 155.68C1143.8 155.24 1143.16 155.02 1142.36 155.02C1141.2 155.02 1140.18 155.42 1139.28 156.22L1138.7 154.18C1139.82 153.167 1141.22 152.66 1142.88 152.66C1144.38 152.66 1145.55 153.073 1146.4 153.9C1147.26 154.713 1147.68 155.707 1147.68 156.88C1147.68 158.04 1147.24 159.22 1146.36 160.42C1145.5 161.607 1144.15 163.047 1142.32 164.74H1147.88V167H1138.7V165.38Z" fill="#00003C"/>
<path opacity="0.8" d="M1024.6 186.298H1023.59V185.262H1024.79L1025.25 182.854H1023.95V181.804H1025.46L1025.97 179.158H1027.05L1026.56 181.804H1029.3L1029.8 179.158H1030.88L1030.39 181.804H1031.48V182.854H1030.18L1029.73 185.262H1031.13V186.298H1029.54L1029.03 189H1027.91L1028.43 186.298H1025.7L1025.2 189H1024.08L1024.6 186.298ZM1028.63 185.262L1029.09 182.854H1026.35L1025.9 185.262H1028.63ZM1033.28 179.158H1039.02V180.432H1034.72V183.442H1038.39V184.688H1034.72V187.726H1039.02V189H1033.28V179.158ZM1044.9 180.432H1040.06V179.158H1046.47V180.04L1042.38 189H1040.86L1044.9 180.432ZM1048.05 179.158H1053.79V180.432H1049.49V183.442H1053.16V184.688H1049.49V187.726H1053.79V189H1048.05V179.158ZM1055.66 179.158H1058.32C1059.33 179.158 1060.14 179.373 1060.75 179.802C1061.35 180.231 1061.66 180.899 1061.66 181.804C1061.66 182.784 1061.23 183.489 1060.37 183.918C1060.96 184.114 1061.41 184.413 1061.74 184.814C1062.08 185.215 1062.24 185.701 1062.24 186.27C1062.24 187.101 1061.92 187.763 1061.28 188.258C1060.63 188.753 1059.8 189 1058.77 189H1055.66V179.158ZM1058.32 183.484C1058.92 183.484 1059.38 183.339 1059.7 183.05C1060.01 182.751 1060.17 182.35 1060.17 181.846C1060.17 180.875 1059.56 180.39 1058.32 180.39H1057.11V183.484H1058.32ZM1058.81 187.768C1059.44 187.768 1059.92 187.614 1060.26 187.306C1060.59 186.989 1060.76 186.611 1060.76 186.172C1060.76 185.696 1060.57 185.309 1060.2 185.01C1059.83 184.702 1059.31 184.548 1058.65 184.548H1057.11V187.768H1058.81ZM1064.03 179.158H1069.74V180.432H1065.47V183.764H1069.25V185.038H1065.47V189H1064.03V179.158ZM1071.43 179.158H1074.09C1075.09 179.158 1075.9 179.373 1076.51 179.802C1077.12 180.231 1077.42 180.899 1077.42 181.804C1077.42 182.784 1076.99 183.489 1076.13 183.918C1076.72 184.114 1077.18 184.413 1077.5 184.814C1077.84 185.215 1078.01 185.701 1078.01 186.27C1078.01 187.101 1077.68 187.763 1077.04 188.258C1076.4 188.753 1075.56 189 1074.53 189H1071.43V179.158ZM1074.09 183.484C1074.68 183.484 1075.14 183.339 1075.46 183.05C1075.78 182.751 1075.93 182.35 1075.93 181.846C1075.93 180.875 1075.32 180.39 1074.09 180.39H1072.87V183.484H1074.09ZM1074.58 187.768C1075.2 187.768 1075.68 187.614 1076.02 187.306C1076.35 186.989 1076.52 186.611 1076.52 186.172C1076.52 185.696 1076.34 185.309 1075.96 185.01C1075.59 184.702 1075.07 184.548 1074.41 184.548H1072.87V187.768H1074.58Z" fill="#00003C"/>
</g>
<g filter="url(#filter5_d_7_5148)">
<rect width="200" height="200" transform="translate(1255 9)" fill="white"/>
<rect x="1263" y="17" width="184" height="184" fill="#F0F2FA"/>
<path d="M1271.16 152.94H1273.8L1276.62 163.72L1279.94 152.94H1281.88L1285.08 163.62L1288.02 152.94H1290.54L1286.36 167H1283.84L1280.82 157.22L1277.74 167H1275.16L1271.16 152.94ZM1291.97 152.94H1294.53V158.4C1295.54 156.893 1296.86 156.14 1298.47 156.14C1301.04 156.14 1302.33 157.667 1302.33 160.72V167H1299.79V160.88C1299.79 159.173 1299.14 158.32 1297.85 158.32C1296.49 158.32 1295.38 159.327 1294.53 161.34V167H1291.97V152.94ZM1304.6 153.24C1304.6 152.787 1304.75 152.42 1305.06 152.14C1305.38 151.847 1305.75 151.7 1306.18 151.7C1306.62 151.7 1306.99 151.847 1307.3 152.14C1307.62 152.42 1307.78 152.787 1307.78 153.24C1307.78 153.68 1307.62 154.047 1307.3 154.34C1306.99 154.62 1306.62 154.76 1306.18 154.76C1305.75 154.76 1305.38 154.62 1305.06 154.34C1304.75 154.047 1304.6 153.68 1304.6 153.24ZM1304.9 156.42H1307.46V167H1304.9V156.42ZM1310.91 163.44V158.38H1309.05V156.42H1310.91V153.52H1313.45V156.42H1317.35V158.38H1313.45V162.82C1313.45 164.3 1314.05 165.04 1315.23 165.04C1315.99 165.04 1316.71 164.88 1317.39 164.56L1317.79 166.54C1316.85 166.993 1315.78 167.22 1314.59 167.22C1313.45 167.22 1312.55 166.907 1311.89 166.28C1311.24 165.653 1310.91 164.707 1310.91 163.44ZM1318.46 161.78C1318.46 160.087 1318.97 158.727 1319.98 157.7C1321.01 156.66 1322.31 156.14 1323.9 156.14C1325.45 156.14 1326.7 156.613 1327.66 157.56C1328.63 158.493 1329.12 159.873 1329.12 161.7C1329.12 162.033 1329.1 162.307 1329.06 162.52H1321.12C1321.39 164.32 1322.53 165.22 1324.56 165.22C1325.87 165.22 1327.07 164.927 1328.18 164.34L1328.62 166.18C1327.37 166.913 1325.88 167.28 1324.16 167.28C1322.33 167.28 1320.93 166.793 1319.94 165.82C1318.95 164.847 1318.46 163.5 1318.46 161.78ZM1326.48 160.92C1326.29 159.08 1325.42 158.16 1323.86 158.16C1322.26 158.16 1321.35 159.08 1321.12 160.92H1326.48ZM1335.88 152.94H1340.36C1341.85 152.94 1343.05 153.26 1343.94 153.9C1344.85 154.527 1345.3 155.487 1345.3 156.78C1345.3 158.153 1344.68 159.16 1343.44 159.8C1344.24 160.067 1344.87 160.487 1345.32 161.06C1345.77 161.633 1346 162.313 1346 163.1C1346 164.287 1345.53 165.233 1344.58 165.94C1343.63 166.647 1342.39 167 1340.84 167H1335.88V152.94ZM1340.36 159.02C1341.12 159.02 1341.69 158.833 1342.08 158.46C1342.47 158.087 1342.66 157.58 1342.66 156.94C1342.66 155.673 1341.89 155.04 1340.36 155.04H1338.52V159.02H1340.36ZM1340.92 164.9C1341.71 164.9 1342.31 164.7 1342.72 164.3C1343.13 163.9 1343.34 163.427 1343.34 162.88C1343.34 162.293 1343.11 161.807 1342.66 161.42C1342.21 161.02 1341.57 160.82 1340.74 160.82H1338.52V164.9H1340.92ZM1348.08 152.94H1350.64V167H1348.08V152.94ZM1353.2 162.64V156.42H1355.74V162.48C1355.74 164.187 1356.38 165.04 1357.66 165.04C1359.03 165.04 1360.1 164.047 1360.88 162.06V156.42H1363.42V167H1360.88V165.02C1359.9 166.473 1358.61 167.2 1357 167.2C1354.46 167.2 1353.2 165.68 1353.2 162.64ZM1365.49 161.78C1365.49 160.087 1366 158.727 1367.01 157.7C1368.04 156.66 1369.34 156.14 1370.93 156.14C1372.48 156.14 1373.73 156.613 1374.69 157.56C1375.66 158.493 1376.15 159.873 1376.15 161.7C1376.15 162.033 1376.13 162.307 1376.09 162.52H1368.15C1368.42 164.32 1369.56 165.22 1371.59 165.22C1372.9 165.22 1374.1 164.927 1375.21 164.34L1375.65 166.18C1374.4 166.913 1372.91 167.28 1371.19 167.28C1369.36 167.28 1367.96 166.793 1366.97 165.82C1365.98 164.847 1365.49 163.5 1365.49 161.78ZM1373.51 160.92C1373.32 159.08 1372.45 158.16 1370.89 158.16C1369.29 158.16 1368.38 159.08 1368.15 160.92H1373.51Z" fill="#00003C"/>
<path opacity="0.8" d="M1272.6 186.298H1271.59V185.262H1272.79L1273.25 182.854H1271.95V181.804H1273.46L1273.97 179.158H1275.05L1274.56 181.804H1277.3L1277.8 179.158H1278.88L1278.39 181.804H1279.48V182.854H1278.18L1277.73 185.262H1279.13V186.298H1277.54L1277.03 189H1275.91L1276.43 186.298H1273.7L1273.2 189H1272.08L1272.6 186.298ZM1276.63 185.262L1277.09 182.854H1274.35L1273.9 185.262H1276.63ZM1281.28 179.158H1286.99V180.432H1282.72V183.764H1286.5V185.038H1282.72V189H1281.28V179.158ZM1288.23 184.072C1288.23 180.684 1289.4 178.99 1291.74 178.99C1292.4 178.99 1292.95 179.111 1293.41 179.354C1293.88 179.597 1294.24 179.951 1294.5 180.418C1294.76 180.885 1294.95 181.417 1295.06 182.014C1295.18 182.602 1295.24 183.288 1295.24 184.072C1295.24 187.46 1294.08 189.154 1291.74 189.154C1291.08 189.154 1290.52 189.037 1290.05 188.804C1289.59 188.561 1289.23 188.211 1288.96 187.754C1288.7 187.297 1288.51 186.769 1288.4 186.172C1288.29 185.575 1288.23 184.875 1288.23 184.072ZM1293.76 184.086C1293.75 182.807 1293.6 181.86 1293.3 181.244C1293.01 180.628 1292.49 180.32 1291.73 180.32C1290.97 180.32 1290.44 180.633 1290.15 181.258C1289.86 181.874 1289.71 182.812 1289.71 184.072C1289.71 185.379 1289.85 186.335 1290.13 186.942C1290.41 187.539 1290.95 187.838 1291.74 187.838C1292.48 187.838 1293 187.53 1293.3 186.914C1293.61 186.289 1293.76 185.346 1293.76 184.086ZM1297.24 179.158H1302.95V180.432H1298.68V183.764H1302.46V185.038H1298.68V189H1297.24V179.158ZM1304.05 187.95C1304.89 187.147 1305.52 186.531 1305.94 186.102C1306.36 185.673 1306.8 185.187 1307.27 184.646C1307.73 184.095 1308.06 183.624 1308.25 183.232C1308.43 182.831 1308.53 182.448 1308.53 182.084C1308.53 181.571 1308.35 181.151 1308.01 180.824C1307.66 180.488 1307.2 180.32 1306.62 180.32C1305.83 180.32 1305.09 180.633 1304.41 181.258L1304 180.124C1304.83 179.368 1305.77 178.99 1306.85 178.99C1307.85 178.99 1308.64 179.275 1309.2 179.844C1309.76 180.413 1310.04 181.104 1310.04 181.916C1310.04 182.747 1309.71 183.591 1309.06 184.45C1308.4 185.309 1307.37 186.396 1305.96 187.712H1310.19V189H1304.05V187.95ZM1312.1 179.158H1317.81V180.432H1313.54V183.764H1317.32V185.038H1313.54V189H1312.1V179.158ZM1321.39 179.158H1322.88L1326.52 189H1324.96L1323.99 186.284H1320.18L1319.23 189H1317.7L1321.39 179.158ZM1323.56 185.038L1322.07 180.866L1320.62 185.038H1323.56Z" fill="#00003C"/>
</g>
<g filter="url(#filter6_d_7_5148)">
<rect width="200" height="200" transform="translate(15 257)" fill="white"/>
<rect x="23" y="265" width="184" height="184" fill="#00003C"/>
<path d="M35.74 403.2H31.28V400.94H42.84V403.2H38.36V415H35.74V403.2ZM44.1689 401.24C44.1689 400.787 44.3222 400.42 44.6289 400.14C44.9489 399.847 45.3222 399.7 45.7489 399.7C46.1889 399.7 46.5622 399.847 46.8689 400.14C47.1889 400.42 47.3489 400.787 47.3489 401.24C47.3489 401.68 47.1889 402.047 46.8689 402.34C46.5622 402.62 46.1889 402.76 45.7489 402.76C45.3222 402.76 44.9489 402.62 44.6289 402.34C44.3222 402.047 44.1689 401.68 44.1689 401.24ZM44.4689 404.42H47.0289V415H44.4689V404.42ZM50.4833 411.44V406.38H48.6233V404.42H50.4833V401.52H53.0233V404.42H56.9233V406.38H53.0233V410.82C53.0233 412.3 53.6166 413.04 54.8033 413.04C55.5633 413.04 56.2833 412.88 56.9633 412.56L57.3633 414.54C56.4166 414.993 55.3499 415.22 54.1633 415.22C53.0166 415.22 52.1166 414.907 51.4633 414.28C50.8099 413.653 50.4833 412.707 50.4833 411.44ZM58.7853 400.94H61.3453V415H58.7853V400.94ZM63.4197 409.78C63.4197 408.087 63.9264 406.727 64.9397 405.7C65.9664 404.66 67.273 404.14 68.8597 404.14C70.4064 404.14 71.6597 404.613 72.6197 405.56C73.593 406.493 74.0797 407.873 74.0797 409.7C74.0797 410.033 74.0597 410.307 74.0197 410.52H66.0797C66.3464 412.32 67.493 413.22 69.5197 413.22C70.8264 413.22 72.033 412.927 73.1397 412.34L73.5797 414.18C72.3264 414.913 70.8397 415.28 69.1197 415.28C67.293 415.28 65.8864 414.793 64.8997 413.82C63.913 412.847 63.4197 411.5 63.4197 409.78ZM71.4397 408.92C71.253 407.08 70.3797 406.16 68.8197 406.16C67.2197 406.16 66.3064 407.08 66.0797 408.92H71.4397ZM75.4891 414.32L75.9291 412.24C77.0224 412.947 78.2091 413.3 79.4891 413.3C80.8757 413.3 81.5691 412.887 81.5691 412.06C81.5691 411.687 81.3624 411.407 80.9491 411.22C80.5491 411.02 80.0557 410.873 79.4691 410.78C78.8957 410.673 78.3157 410.54 77.7291 410.38C77.1424 410.22 76.6424 409.907 76.2291 409.44C75.8291 408.96 75.6291 408.327 75.6291 407.54C75.6291 406.5 76.0157 405.673 76.7891 405.06C77.5757 404.433 78.6557 404.12 80.0291 404.12C81.3891 404.12 82.6357 404.42 83.7691 405.02L83.3091 407.08C82.2157 406.453 81.1624 406.14 80.1491 406.14C79.5624 406.14 79.0824 406.253 78.7091 406.48C78.3491 406.693 78.1691 406.993 78.1691 407.38C78.1691 407.793 78.3691 408.107 78.7691 408.32C79.1824 408.52 79.6824 408.673 80.2691 408.78C80.8557 408.887 81.4357 409.02 82.0091 409.18C82.5957 409.327 83.0891 409.62 83.4891 410.06C83.9024 410.487 84.1091 411.067 84.1091 411.8C84.1091 412.827 83.6691 413.66 82.7891 414.3C81.9091 414.94 80.7824 415.26 79.4091 415.26C77.9691 415.26 76.6624 414.947 75.4891 414.32Z" fill="white"/>
<path opacity="0.8" d="M32.596 434.298H31.588V433.262H32.792L33.254 430.854H31.952V429.804H33.464L33.968 427.158H35.046L34.556 429.804H37.3L37.804 427.158H38.882L38.392 429.804H39.484V430.854H38.182L37.734 433.262H39.134V434.298H37.538L37.034 437H35.914L36.432 434.298H33.702L33.198 437H32.078L32.596 434.298ZM36.628 433.262L37.09 430.854H34.346L33.898 433.262H36.628ZM40.8345 432.072C40.8345 428.684 42.0058 426.99 44.3485 426.99C45.0018 426.99 45.5571 427.111 46.0145 427.354C46.4811 427.597 46.8451 427.951 47.1065 428.418C47.3678 428.885 47.5545 429.417 47.6665 430.014C47.7878 430.602 47.8485 431.288 47.8485 432.072C47.8485 435.46 46.6818 437.154 44.3485 437.154C43.6858 437.154 43.1211 437.037 42.6545 436.804C42.1971 436.561 41.8331 436.211 41.5625 435.754C41.3011 435.297 41.1145 434.769 41.0025 434.172C40.8905 433.575 40.8345 432.875 40.8345 432.072ZM46.3645 432.086C46.3551 430.807 46.2011 429.86 45.9025 429.244C45.6131 428.628 45.0905 428.32 44.3345 428.32C43.5691 428.32 43.0418 428.633 42.7525 429.258C42.4631 429.874 42.3185 430.812 42.3185 432.072C42.3185 433.379 42.4585 434.335 42.7385 434.942C43.0185 435.539 43.5551 435.838 44.3485 435.838C45.0858 435.838 45.6038 435.53 45.9025 434.914C46.2105 434.289 46.3645 433.346 46.3645 432.086ZM49.393 432.072C49.393 428.684 50.5644 426.99 52.907 426.99C53.5604 426.99 54.1157 427.111 54.573 427.354C55.0397 427.597 55.4037 427.951 55.665 428.418C55.9264 428.885 56.113 429.417 56.225 430.014C56.3464 430.602 56.407 431.288 56.407 432.072C56.407 435.46 55.2404 437.154 52.907 437.154C52.2444 437.154 51.6797 437.037 51.213 436.804C50.7557 436.561 50.3917 436.211 50.121 435.754C49.8597 435.297 49.673 434.769 49.561 434.172C49.449 433.575 49.393 432.875 49.393 432.072ZM54.923 432.086C54.9137 430.807 54.7597 429.86 54.461 429.244C54.1717 428.628 53.649 428.32 52.893 428.32C52.1277 428.32 51.6004 428.633 51.311 429.258C51.0217 429.874 50.877 430.812 50.877 432.072C50.877 433.379 51.017 434.335 51.297 434.942C51.577 435.539 52.1137 435.838 52.907 435.838C53.6444 435.838 54.1624 435.53 54.461 434.914C54.769 434.289 54.923 433.346 54.923 432.086ZM57.9516 432.072C57.9516 428.684 59.123 426.99 61.4656 426.99C62.119 426.99 62.6743 427.111 63.1316 427.354C63.5983 427.597 63.9623 427.951 64.2236 428.418C64.485 428.885 64.6716 429.417 64.7836 430.014C64.905 430.602 64.9656 431.288 64.9656 432.072C64.9656 435.46 63.799 437.154 61.4656 437.154C60.803 437.154 60.2383 437.037 59.7716 436.804C59.3143 436.561 58.9503 436.211 58.6796 435.754C58.4183 435.297 58.2316 434.769 58.1196 434.172C58.0076 433.575 57.9516 432.875 57.9516 432.072ZM63.4816 432.086C63.4723 430.807 63.3183 429.86 63.0196 429.244C62.7303 428.628 62.2076 428.32 61.4516 428.32C60.6863 428.32 60.159 428.633 59.8696 429.258C59.5803 429.874 59.4356 430.812 59.4356 432.072C59.4356 433.379 59.5756 434.335 59.8556 434.942C60.1356 435.539 60.6723 435.838 61.4656 435.838C62.203 435.838 62.721 435.53 63.0196 434.914C63.3276 434.289 63.4816 433.346 63.4816 432.086ZM66.5102 432.072C66.5102 428.684 67.6816 426.99 70.0242 426.99C70.6776 426.99 71.2329 427.111 71.6902 427.354C72.1569 427.597 72.5209 427.951 72.7822 428.418C73.0436 428.885 73.2302 429.417 73.3422 430.014C73.4636 430.602 73.5242 431.288 73.5242 432.072C73.5242 435.46 72.3576 437.154 70.0242 437.154C69.3616 437.154 68.7969 437.037 68.3302 436.804C67.8729 436.561 67.5089 436.211 67.2382 435.754C66.9769 435.297 66.7902 434.769 66.6782 434.172C66.5662 433.575 66.5102 432.875 66.5102 432.072ZM72.0402 432.086C72.0309 430.807 71.8769 429.86 71.5782 429.244C71.2889 428.628 70.7662 428.32 70.0102 428.32C69.2449 428.32 68.7176 428.633 68.4282 429.258C68.1389 429.874 67.9942 430.812 67.9942 432.072C67.9942 433.379 68.1342 434.335 68.4142 434.942C68.6942 435.539 69.2309 435.838 70.0242 435.838C70.7616 435.838 71.2796 435.53 71.5782 434.914C71.8862 434.289 72.0402 433.346 72.0402 432.086ZM74.7748 436.244L75.2648 435.054C75.8995 435.577 76.6275 435.838 77.4488 435.838C78.0648 435.838 78.5595 435.679 78.9328 435.362C79.3062 435.045 79.4928 434.643 79.4928 434.158C79.4928 433.682 79.3108 433.299 78.9468 433.01C78.5828 432.721 78.0742 432.576 77.4208 432.576H76.3008V431.344H77.3788C77.9202 431.344 78.3542 431.199 78.6808 430.91C79.0075 430.621 79.1708 430.261 79.1708 429.832C79.1708 429.393 79.0075 429.034 78.6808 428.754C78.3635 428.465 77.9202 428.32 77.3508 428.32C76.5575 428.32 75.9508 428.539 75.5308 428.978L75.0548 427.914C75.6988 427.298 76.5482 426.99 77.6028 426.99C78.4988 426.99 79.2315 427.223 79.8008 427.69C80.3795 428.157 80.6688 428.768 80.6688 429.524C80.6688 430.009 80.5195 430.453 80.2208 430.854C79.9315 431.255 79.5208 431.577 78.9888 431.82C79.6048 431.988 80.0902 432.277 80.4448 432.688C80.7995 433.089 80.9768 433.579 80.9768 434.158C80.9768 434.989 80.6502 435.698 79.9968 436.286C79.3435 436.865 78.5035 437.154 77.4768 437.154C76.3942 437.154 75.4935 436.851 74.7748 436.244ZM82.3253 432.058C82.3253 430.602 82.792 429.393 83.7253 428.432C84.6586 427.471 85.8393 426.99 87.2673 426.99C88.7233 426.99 89.89 427.452 90.7673 428.376L89.8853 429.496C89.232 428.721 88.35 428.334 87.2393 428.334C86.2873 428.334 85.48 428.67 84.8173 429.342C84.1546 430.005 83.8233 430.91 83.8233 432.058C83.8233 433.243 84.1546 434.167 84.8173 434.83C85.48 435.493 86.2966 435.824 87.2673 435.824C87.762 435.824 88.2426 435.726 88.7093 435.53C89.176 435.334 89.568 435.049 89.8853 434.676L90.7673 435.656C89.8526 436.655 88.6766 437.154 87.2393 437.154C85.7833 437.154 84.598 436.687 83.6833 435.754C82.778 434.811 82.3253 433.579 82.3253 432.058Z" fill="white"/>
</g>
<g filter="url(#filter7_d_7_5148)">
<rect width="200" height="200" transform="translate(263 257)" fill="white"/>
<rect x="271" y="265" width="184" height="184" fill="#2A2C32"/>
<path d="M280.56 400.94H285.04C286.533 400.94 287.727 401.26 288.62 401.9C289.527 402.527 289.98 403.487 289.98 404.78C289.98 406.153 289.36 407.16 288.12 407.8C288.92 408.067 289.547 408.487 290 409.06C290.453 409.633 290.68 410.313 290.68 411.1C290.68 412.287 290.207 413.233 289.26 413.94C288.313 414.647 287.067 415 285.52 415H280.56V400.94ZM285.04 407.02C285.8 407.02 286.373 406.833 286.76 406.46C287.147 406.087 287.34 405.58 287.34 404.94C287.34 403.673 286.573 403.04 285.04 403.04H283.2V407.02H285.04ZM285.6 412.9C286.387 412.9 286.987 412.7 287.4 412.3C287.813 411.9 288.02 411.427 288.02 410.88C288.02 410.293 287.793 409.807 287.34 409.42C286.887 409.02 286.247 408.82 285.42 408.82H283.2V412.9H285.6ZM293.782 413.8C292.689 412.827 292.142 411.473 292.142 409.74C292.142 408.007 292.702 406.64 293.822 405.64C294.942 404.627 296.309 404.12 297.922 404.12C299.535 404.12 300.915 404.62 302.062 405.62C303.209 406.607 303.782 407.96 303.782 409.68C303.782 411.413 303.209 412.78 302.062 413.78C300.929 414.767 299.535 415.26 297.882 415.26C296.255 415.26 294.889 414.773 293.782 413.8ZM300.202 412.22C300.802 411.62 301.102 410.78 301.102 409.7C301.102 408.62 300.802 407.78 300.202 407.18C299.602 406.567 298.855 406.26 297.962 406.26C297.069 406.26 296.322 406.553 295.722 407.14C295.122 407.727 294.822 408.567 294.822 409.66C294.822 410.767 295.109 411.62 295.682 412.22C296.269 412.807 297.015 413.1 297.922 413.1C298.855 413.1 299.615 412.807 300.202 412.22ZM305.228 409.72C305.228 407.973 305.722 406.607 306.708 405.62C307.708 404.633 308.942 404.14 310.408 404.14C312.008 404.14 313.262 404.767 314.168 406.02V400.94H316.708V415H314.208V413.08C313.288 414.52 312.022 415.24 310.408 415.24C308.968 415.24 307.742 414.753 306.728 413.78C305.728 412.807 305.228 411.453 305.228 409.72ZM314.208 409.7V409.6C313.955 408.587 313.515 407.787 312.888 407.2C312.275 406.6 311.575 406.3 310.788 406.3C309.948 406.3 309.255 406.593 308.708 407.18C308.175 407.767 307.908 408.6 307.908 409.68C307.908 410.733 308.182 411.567 308.728 412.18C309.275 412.78 309.968 413.08 310.808 413.08C311.635 413.08 312.342 412.773 312.928 412.16C313.528 411.547 313.955 410.727 314.208 409.7ZM322.543 415.06L318.143 404.42H321.103L323.883 412.2L326.783 404.42H329.603L323.383 419.2H320.683L322.543 415.06Z" fill="white"/>
<path opacity="0.8" d="M280.596 434.298H279.588V433.262H280.792L281.254 430.854H279.952V429.804H281.464L281.968 427.158H283.046L282.556 429.804H285.3L285.804 427.158H286.882L286.392 429.804H287.484V430.854H286.182L285.734 433.262H287.134V434.298H285.538L285.034 437H283.914L284.432 434.298H281.702L281.198 437H280.078L280.596 434.298ZM284.628 433.262L285.09 430.854H282.346L281.898 433.262H284.628ZM288.694 435.95C289.534 435.147 290.164 434.531 290.584 434.102C291.004 433.673 291.448 433.187 291.914 432.646C292.381 432.095 292.708 431.624 292.894 431.232C293.081 430.831 293.174 430.448 293.174 430.084C293.174 429.571 293.002 429.151 292.656 428.824C292.311 428.488 291.849 428.32 291.27 428.32C290.477 428.32 289.74 428.633 289.058 429.258L288.652 428.124C289.474 427.368 290.421 426.99 291.494 426.99C292.502 426.99 293.286 427.275 293.846 427.844C294.406 428.413 294.686 429.104 294.686 429.916C294.686 430.747 294.36 431.591 293.706 432.45C293.053 433.309 292.022 434.396 290.612 435.712H294.84V437H288.694V435.95ZM299.267 427.158H300.765L304.405 437H302.837L301.871 434.284H298.063L297.111 437H295.585L299.267 427.158ZM301.437 433.038L299.953 428.866L298.497 433.038H301.437ZM305.114 435.95C305.954 435.147 306.584 434.531 307.004 434.102C307.424 433.673 307.868 433.187 308.334 432.646C308.801 432.095 309.128 431.624 309.314 431.232C309.501 430.831 309.594 430.448 309.594 430.084C309.594 429.571 309.422 429.151 309.076 428.824C308.731 428.488 308.269 428.32 307.69 428.32C306.897 428.32 306.16 428.633 305.478 429.258L305.072 428.124C305.894 427.368 306.841 426.99 307.914 426.99C308.922 426.99 309.706 427.275 310.266 427.844C310.826 428.413 311.106 429.104 311.106 429.916C311.106 430.747 310.78 431.591 310.126 432.45C309.473 433.309 308.442 434.396 307.032 435.712H311.26V437H305.114V435.95ZM312.579 432.058C312.579 430.602 313.046 429.393 313.979 428.432C314.913 427.471 316.093 426.99 317.521 426.99C318.977 426.99 320.144 427.452 321.021 428.376L320.139 429.496C319.486 428.721 318.604 428.334 317.493 428.334C316.541 428.334 315.734 428.67 315.071 429.342C314.409 430.005 314.077 430.91 314.077 432.058C314.077 433.243 314.409 434.167 315.071 434.83C315.734 435.493 316.551 435.824 317.521 435.824C318.016 435.824 318.497 435.726 318.963 435.53C319.43 435.334 319.822 435.049 320.139 434.676L321.021 435.656C320.107 436.655 318.931 437.154 317.493 437.154C316.037 437.154 314.852 436.687 313.937 435.754C313.032 434.811 312.579 433.579 312.579 432.058ZM321.831 436.244L322.321 435.054C322.956 435.577 323.684 435.838 324.505 435.838C325.121 435.838 325.616 435.679 325.989 435.362C326.363 435.045 326.549 434.643 326.549 434.158C326.549 433.682 326.367 433.299 326.003 433.01C325.639 432.721 325.131 432.576 324.477 432.576H323.357V431.344H324.435C324.977 431.344 325.411 431.199 325.737 430.91C326.064 430.621 326.227 430.261 326.227 429.832C326.227 429.393 326.064 429.034 325.737 428.754C325.42 428.465 324.977 428.32 324.407 428.32C323.614 428.32 323.007 428.539 322.587 428.978L322.111 427.914C322.755 427.298 323.605 426.99 324.659 426.99C325.555 426.99 326.288 427.223 326.857 427.69C327.436 428.157 327.725 428.768 327.725 429.524C327.725 430.009 327.576 430.453 327.277 430.854C326.988 431.255 326.577 431.577 326.045 431.82C326.661 431.988 327.147 432.277 327.501 432.688C327.856 433.089 328.033 433.579 328.033 434.158C328.033 434.989 327.707 435.698 327.053 436.286C326.4 436.865 325.56 437.154 324.533 437.154C323.451 437.154 322.55 436.851 321.831 436.244ZM329.382 435.95C330.222 435.147 330.852 434.531 331.272 434.102C331.692 433.673 332.135 433.187 332.602 432.646C333.069 432.095 333.395 431.624 333.582 431.232C333.769 430.831 333.862 430.448 333.862 430.084C333.862 429.571 333.689 429.151 333.344 428.824C332.999 428.488 332.537 428.32 331.958 428.32C331.165 428.32 330.427 428.633 329.746 429.258L329.34 428.124C330.161 427.368 331.109 426.99 332.182 426.99C333.19 426.99 333.974 427.275 334.534 427.844C335.094 428.413 335.374 429.104 335.374 429.916C335.374 430.747 335.047 431.591 334.394 432.45C333.741 433.309 332.709 434.396 331.3 435.712H335.528V437H329.382V435.95Z" fill="white"/>
</g>
<g filter="url(#filter8_d_7_5148)">
<rect width="200" height="200" transform="translate(511 257)" fill="white"/>
<rect x="519" y="265" width="184" height="184" fill="#4C5257"/>
<path d="M528.56 400.94H533.08C535.173 400.94 536.9 401.587 538.26 402.88C539.62 404.173 540.3 405.873 540.3 407.98C540.3 410.1 539.62 411.8 538.26 413.08C536.9 414.36 535.173 415 533.08 415H528.56V400.94ZM533.1 412.76C534.407 412.76 535.48 412.333 536.32 411.48C537.16 410.627 537.58 409.48 537.58 408.04C537.58 406.587 537.153 405.413 536.3 404.52C535.447 403.627 534.387 403.18 533.12 403.18H531.2V412.76H533.1ZM541.842 409.72C541.842 407.973 542.335 406.607 543.322 405.62C544.322 404.633 545.562 404.14 547.042 404.14C548.642 404.14 549.902 404.78 550.822 406.06V404.42H553.362V415H550.822V413.08C549.902 414.52 548.642 415.24 547.042 415.24C545.588 415.24 544.355 414.753 543.342 413.78C542.342 412.807 541.842 411.453 541.842 409.72ZM550.822 409.7V409.6C550.568 408.587 550.135 407.787 549.522 407.2C548.908 406.6 548.208 406.3 547.422 406.3C546.568 406.3 545.868 406.593 545.322 407.18C544.788 407.767 544.522 408.6 544.522 409.68C544.522 410.733 544.795 411.567 545.342 412.18C545.888 412.78 546.582 413.08 547.422 413.08C548.248 413.08 548.955 412.773 549.542 412.16C550.142 411.547 550.568 410.727 550.822 409.7ZM556.035 404.42H558.595V406.38C559.529 404.94 560.675 404.22 562.035 404.22C562.449 404.22 562.795 404.267 563.075 404.36L562.715 406.54C562.449 406.447 562.135 406.4 561.775 406.4C561.135 406.4 560.529 406.66 559.955 407.18C559.395 407.7 558.942 408.42 558.595 409.34V415H556.035V404.42ZM564.551 400.94H567.111V409.3L571.031 404.42H573.971L569.631 409.5L574.291 415H571.091L567.111 410.18V415H564.551V400.94ZM579.05 407.96C579.05 405.853 579.73 404.107 581.09 402.72C582.463 401.333 584.163 400.64 586.19 400.64C588.563 400.64 590.423 401.433 591.77 403.02L589.77 404.6C588.836 403.573 587.663 403.06 586.25 403.06C584.943 403.06 583.87 403.493 583.03 404.36C582.19 405.213 581.77 406.4 581.77 407.92C581.77 409.453 582.19 410.667 583.03 411.56C583.883 412.453 584.93 412.9 586.17 412.9C587.236 412.9 588.136 412.593 588.87 411.98C589.616 411.353 590.076 410.473 590.25 409.34H586.41V407.06H592.93V408.24C592.903 410.267 592.256 411.947 590.99 413.28C589.736 414.6 588.116 415.26 586.13 415.26C584.076 415.26 582.383 414.58 581.05 413.22C579.716 411.86 579.05 410.107 579.05 407.96ZM594.961 404.42H597.521V406.38C598.454 404.94 599.601 404.22 600.961 404.22C601.374 404.22 601.721 404.267 602.001 404.36L601.641 406.54C601.374 406.447 601.061 406.4 600.701 406.4C600.061 406.4 599.454 406.66 598.881 407.18C598.321 407.7 597.868 408.42 597.521 409.34V415H594.961V404.42ZM602.408 409.72C602.408 407.973 602.901 406.607 603.888 405.62C604.888 404.633 606.128 404.14 607.608 404.14C609.208 404.14 610.468 404.78 611.388 406.06V404.42H613.928V415H611.388V413.08C610.468 414.52 609.208 415.24 607.608 415.24C606.155 415.24 604.921 414.753 603.908 413.78C602.908 412.807 602.408 411.453 602.408 409.72ZM611.388 409.7V409.6C611.135 408.587 610.701 407.787 610.088 407.2C609.475 406.6 608.775 406.3 607.988 406.3C607.135 406.3 606.435 406.593 605.888 407.18C605.355 407.767 605.088 408.6 605.088 409.68C605.088 410.733 605.361 411.567 605.908 412.18C606.455 412.78 607.148 413.08 607.988 413.08C608.815 413.08 609.521 412.773 610.108 412.16C610.708 411.547 611.135 410.727 611.388 409.7ZM619.762 415.06L615.362 404.42H618.322L621.102 412.2L624.002 404.42H626.822L620.602 419.2H617.902L619.762 415.06Z" fill="white"/>
<path opacity="0.8" d="M528.596 434.298H527.588V433.262H528.792L529.254 430.854H527.952V429.804H529.464L529.968 427.158H531.046L530.556 429.804H533.3L533.804 427.158H534.882L534.392 429.804H535.484V430.854H534.182L533.734 433.262H535.134V434.298H533.538L533.034 437H531.914L532.432 434.298H529.702L529.198 437H528.078L528.596 434.298ZM532.628 433.262L533.09 430.854H530.346L529.898 433.262H532.628ZM541.104 434.774H536.414V433.738L541.286 427.158H542.546V433.514H543.988V434.774H542.546V437.154H541.104V434.774ZM541.104 433.514V429.188L537.912 433.514H541.104ZM545.13 432.058C545.13 430.602 545.597 429.393 546.53 428.432C547.463 427.471 548.644 426.99 550.072 426.99C551.528 426.99 552.695 427.452 553.572 428.376L552.69 429.496C552.037 428.721 551.155 428.334 550.044 428.334C549.092 428.334 548.285 428.67 547.622 429.342C546.959 430.005 546.628 430.91 546.628 432.058C546.628 433.243 546.959 434.167 547.622 434.83C548.285 435.493 549.101 435.824 550.072 435.824C550.567 435.824 551.047 435.726 551.514 435.53C551.981 435.334 552.373 435.049 552.69 434.676L553.572 435.656C552.657 436.655 551.481 437.154 550.044 437.154C548.588 437.154 547.403 436.687 546.488 435.754C545.583 434.811 545.13 433.579 545.13 432.058ZM554.368 436.328L554.69 435.068C555.596 435.581 556.417 435.838 557.154 435.838C557.761 435.838 558.256 435.67 558.638 435.334C559.03 434.989 559.226 434.522 559.226 433.934C559.226 433.383 559.04 432.931 558.666 432.576C558.293 432.212 557.705 432.03 556.902 432.03C556.408 432.03 555.834 432.151 555.18 432.394L555.012 432.254L555.74 427.158H560.36V428.418H556.846L556.468 430.966C556.748 430.919 557.014 430.896 557.266 430.896C558.33 430.896 559.17 431.176 559.786 431.736C560.402 432.287 560.71 433.01 560.71 433.906C560.71 434.858 560.37 435.637 559.688 436.244C559.016 436.851 558.181 437.154 557.182 437.154C556.193 437.154 555.255 436.879 554.368 436.328ZM561.974 435.95C562.814 435.147 563.444 434.531 563.864 434.102C564.284 433.673 564.727 433.187 565.194 432.646C565.66 432.095 565.987 431.624 566.174 431.232C566.36 430.831 566.454 430.448 566.454 430.084C566.454 429.571 566.281 429.151 565.936 428.824C565.59 428.488 565.128 428.32 564.55 428.32C563.756 428.32 563.019 428.633 562.338 429.258L561.932 428.124C562.753 427.368 563.7 426.99 564.774 426.99C565.782 426.99 566.566 427.275 567.126 427.844C567.686 428.413 567.966 429.104 567.966 429.916C567.966 430.747 567.639 431.591 566.986 432.45C566.332 433.309 565.301 434.396 563.892 435.712H568.12V437H561.974V435.95ZM569.271 436.328L569.593 435.068C570.498 435.581 571.319 435.838 572.057 435.838C572.663 435.838 573.158 435.67 573.541 435.334C573.933 434.989 574.129 434.522 574.129 433.934C574.129 433.383 573.942 432.931 573.569 432.576C573.195 432.212 572.607 432.03 571.805 432.03C571.31 432.03 570.736 432.151 570.083 432.394L569.915 432.254L570.643 427.158H575.263V428.418H571.749L571.371 430.966C571.651 430.919 571.917 430.896 572.169 430.896C573.233 430.896 574.073 431.176 574.689 431.736C575.305 432.287 575.613 433.01 575.613 433.906C575.613 434.858 575.272 435.637 574.591 436.244C573.919 436.851 573.083 437.154 572.085 437.154C571.095 437.154 570.157 436.879 569.271 436.328ZM581.468 428.432H576.624V427.158H583.036V428.04L578.948 437H577.422L581.468 428.432Z" fill="white"/>
</g>
<g filter="url(#filter9_d_7_5148)">
<rect width="200" height="200" transform="translate(759 257)" fill="white"/>
<rect x="767" y="265" width="184" height="184" fill="#6B767B"/>
<path d="M776.56 400.94H781.08C783.173 400.94 784.9 401.587 786.26 402.88C787.62 404.173 788.3 405.873 788.3 407.98C788.3 410.1 787.62 411.8 786.26 413.08C784.9 414.36 783.173 415 781.08 415H776.56V400.94ZM781.1 412.76C782.407 412.76 783.48 412.333 784.32 411.48C785.16 410.627 785.58 409.48 785.58 408.04C785.58 406.587 785.153 405.413 784.3 404.52C783.447 403.627 782.387 403.18 781.12 403.18H779.2V412.76H781.1ZM790.142 401.24C790.142 400.787 790.295 400.42 790.602 400.14C790.922 399.847 791.295 399.7 791.722 399.7C792.162 399.7 792.535 399.847 792.842 400.14C793.162 400.42 793.322 400.787 793.322 401.24C793.322 401.68 793.162 402.047 792.842 402.34C792.535 402.62 792.162 402.76 791.722 402.76C791.295 402.76 790.922 402.62 790.602 402.34C790.295 402.047 790.142 401.68 790.142 401.24ZM790.442 404.42H793.002V415H790.442V404.42ZM795.036 414.32L795.476 412.24C796.569 412.947 797.756 413.3 799.036 413.3C800.423 413.3 801.116 412.887 801.116 412.06C801.116 411.687 800.909 411.407 800.496 411.22C800.096 411.02 799.603 410.873 799.016 410.78C798.443 410.673 797.863 410.54 797.276 410.38C796.689 410.22 796.189 409.907 795.776 409.44C795.376 408.96 795.176 408.327 795.176 407.54C795.176 406.5 795.563 405.673 796.336 405.06C797.123 404.433 798.203 404.12 799.576 404.12C800.936 404.12 802.183 404.42 803.316 405.02L802.856 407.08C801.763 406.453 800.709 406.14 799.696 406.14C799.109 406.14 798.629 406.253 798.256 406.48C797.896 406.693 797.716 406.993 797.716 407.38C797.716 407.793 797.916 408.107 798.316 408.32C798.729 408.52 799.229 408.673 799.816 408.78C800.403 408.887 800.983 409.02 801.556 409.18C802.143 409.327 802.636 409.62 803.036 410.06C803.449 410.487 803.656 411.067 803.656 411.8C803.656 412.827 803.216 413.66 802.336 414.3C801.456 414.94 800.329 415.26 798.956 415.26C797.516 415.26 796.209 414.947 795.036 414.32ZM805.056 409.72C805.056 407.973 805.55 406.607 806.536 405.62C807.536 404.633 808.776 404.14 810.256 404.14C811.856 404.14 813.116 404.78 814.036 406.06V404.42H816.576V415H814.036V413.08C813.116 414.52 811.856 415.24 810.256 415.24C808.803 415.24 807.57 414.753 806.556 413.78C805.556 412.807 805.056 411.453 805.056 409.72ZM814.036 409.7V409.6C813.783 408.587 813.35 407.787 812.736 407.2C812.123 406.6 811.423 406.3 810.636 406.3C809.783 406.3 809.083 406.593 808.536 407.18C808.003 407.767 807.736 408.6 807.736 409.68C807.736 410.733 808.01 411.567 808.556 412.18C809.103 412.78 809.796 413.08 810.636 413.08C811.463 413.08 812.17 412.773 812.756 412.16C813.356 411.547 813.783 410.727 814.036 409.7ZM821.71 413.14V415H819.25V400.94H821.81V406.06C822.743 404.78 823.97 404.14 825.49 404.14C826.97 404.14 828.203 404.633 829.19 405.62C830.19 406.593 830.69 407.973 830.69 409.76C830.69 411.493 830.183 412.847 829.17 413.82C828.17 414.793 826.943 415.28 825.49 415.28C823.877 415.28 822.617 414.567 821.71 413.14ZM828.01 409.72C828.01 408.64 827.737 407.8 827.19 407.2C826.657 406.6 825.957 406.3 825.09 406.3C824.317 406.3 823.623 406.607 823.01 407.22C822.41 407.82 821.977 408.633 821.71 409.66V409.86C821.963 410.847 822.39 411.633 822.99 412.22C823.59 412.807 824.29 413.1 825.09 413.1C825.93 413.1 826.623 412.8 827.17 412.2C827.73 411.587 828.01 410.76 828.01 409.72ZM832.766 400.94H835.326V415H832.766V400.94ZM837.4 409.78C837.4 408.087 837.907 406.727 838.92 405.7C839.947 404.66 841.253 404.14 842.84 404.14C844.387 404.14 845.64 404.613 846.6 405.56C847.573 406.493 848.06 407.873 848.06 409.7C848.06 410.033 848.04 410.307 848 410.52H840.06C840.327 412.32 841.473 413.22 843.5 413.22C844.807 413.22 846.013 412.927 847.12 412.34L847.56 414.18C846.307 414.913 844.82 415.28 843.1 415.28C841.273 415.28 839.867 414.793 838.88 413.82C837.893 412.847 837.4 411.5 837.4 409.78ZM845.42 408.92C845.233 407.08 844.36 406.16 842.8 406.16C841.2 406.16 840.287 407.08 840.06 408.92H845.42ZM849.51 409.72C849.51 407.973 850.003 406.607 850.99 405.62C851.99 404.633 853.223 404.14 854.69 404.14C856.29 404.14 857.543 404.767 858.45 406.02V400.94H860.99V415H858.49V413.08C857.57 414.52 856.303 415.24 854.69 415.24C853.25 415.24 852.023 414.753 851.01 413.78C850.01 412.807 849.51 411.453 849.51 409.72ZM858.49 409.7V409.6C858.236 408.587 857.796 407.787 857.17 407.2C856.556 406.6 855.856 406.3 855.07 406.3C854.23 406.3 853.536 406.593 852.99 407.18C852.456 407.767 852.19 408.6 852.19 409.68C852.19 410.733 852.463 411.567 853.01 412.18C853.556 412.78 854.25 413.08 855.09 413.08C855.916 413.08 856.623 412.773 857.21 412.16C857.81 411.547 858.236 410.727 858.49 409.7Z" fill="white"/>
<path opacity="0.8" d="M776.596 434.298H775.588V433.262H776.792L777.254 430.854H775.952V429.804H777.464L777.968 427.158H779.046L778.556 429.804H781.3L781.804 427.158H782.882L782.392 429.804H783.484V430.854H782.182L781.734 433.262H783.134V434.298H781.538L781.034 437H779.914L780.432 434.298H777.702L777.198 437H776.078L776.596 434.298ZM780.628 433.262L781.09 430.854H778.346L777.898 433.262H780.628ZM784.722 433.976C784.722 433.397 784.834 432.861 785.058 432.366C785.282 431.871 785.623 431.302 786.08 430.658L788.586 427.158H790.21L787.662 430.798C787.83 430.77 788.008 430.756 788.194 430.756C789.109 430.756 789.898 431.031 790.56 431.582C791.232 432.133 791.568 432.917 791.568 433.934C791.568 434.942 791.223 435.735 790.532 436.314C789.842 436.883 789.025 437.168 788.082 437.168C787.168 437.168 786.379 436.888 785.716 436.328C785.054 435.759 784.722 434.975 784.722 433.976ZM790.07 433.962C790.07 433.346 789.888 432.87 789.524 432.534C789.17 432.198 788.703 432.03 788.124 432.03C787.462 432.03 786.911 432.254 786.472 432.702C786.295 433.103 786.206 433.519 786.206 433.948C786.206 434.564 786.393 435.04 786.766 435.376C787.149 435.712 787.602 435.88 788.124 435.88C788.647 435.88 789.1 435.712 789.482 435.376C789.874 435.031 790.07 434.559 790.07 433.962ZM793.267 427.158H795.927C796.935 427.158 797.742 427.373 798.349 427.802C798.955 428.231 799.259 428.899 799.259 429.804C799.259 430.784 798.829 431.489 797.971 431.918C798.559 432.114 799.016 432.413 799.343 432.814C799.679 433.215 799.847 433.701 799.847 434.27C799.847 435.101 799.525 435.763 798.881 436.258C798.237 436.753 797.401 437 796.375 437H793.267V427.158ZM795.927 431.484C796.524 431.484 796.981 431.339 797.299 431.05C797.616 430.751 797.775 430.35 797.775 429.846C797.775 428.875 797.159 428.39 795.927 428.39H794.709V431.484H795.927ZM796.417 435.768C797.042 435.768 797.523 435.614 797.859 435.306C798.195 434.989 798.363 434.611 798.363 434.172C798.363 433.696 798.176 433.309 797.803 433.01C797.429 432.702 796.911 432.548 796.249 432.548H794.709V435.768H796.417ZM805.447 428.432H800.603V427.158H807.015V428.04L802.927 437H801.401L805.447 428.432ZM807.267 433.976C807.267 433.397 807.379 432.861 807.603 432.366C807.827 431.871 808.168 431.302 808.625 430.658L811.131 427.158H812.755L810.207 430.798C810.375 430.77 810.553 430.756 810.739 430.756C811.654 430.756 812.443 431.031 813.105 431.582C813.777 432.133 814.113 432.917 814.113 433.934C814.113 434.942 813.768 435.735 813.077 436.314C812.387 436.883 811.57 437.168 810.627 437.168C809.713 437.168 808.924 436.888 808.261 436.328C807.599 435.759 807.267 434.975 807.267 433.976ZM812.615 433.962C812.615 433.346 812.433 432.87 812.069 432.534C811.715 432.198 811.248 432.03 810.669 432.03C810.007 432.03 809.456 432.254 809.017 432.702C808.84 433.103 808.751 433.519 808.751 433.948C808.751 434.564 808.938 435.04 809.311 435.376C809.694 435.712 810.147 435.88 810.669 435.88C811.192 435.88 811.645 435.712 812.027 435.376C812.419 435.031 812.615 434.559 812.615 433.962ZM819.447 428.432H814.603V427.158H821.015V428.04L816.927 437H815.401L819.447 428.432ZM822.593 427.158H825.253C826.261 427.158 827.068 427.373 827.675 427.802C828.282 428.231 828.585 428.899 828.585 429.804C828.585 430.784 828.156 431.489 827.297 431.918C827.885 432.114 828.342 432.413 828.669 432.814C829.005 433.215 829.173 433.701 829.173 434.27C829.173 435.101 828.851 435.763 828.207 436.258C827.563 436.753 826.728 437 825.701 437H822.593V427.158ZM825.253 431.484C825.85 431.484 826.308 431.339 826.625 431.05C826.942 430.751 827.101 430.35 827.101 429.846C827.101 428.875 826.485 428.39 825.253 428.39H824.035V431.484H825.253ZM825.743 435.768C826.368 435.768 826.849 435.614 827.185 435.306C827.521 434.989 827.689 434.611 827.689 434.172C827.689 433.696 827.502 433.309 827.129 433.01C826.756 432.702 826.238 432.548 825.575 432.548H824.035V435.768H825.743Z" fill="white"/>
</g>
<g filter="url(#filter10_d_7_5148)">
<rect width="200" height="200" transform="translate(1007 257)" fill="white"/>
<rect x="1015.5" y="265.5" width="183" height="183" fill="#FBFBFB" stroke="#DBDBDB"/>
<path d="M1024.56 400.94H1029.08C1031.17 400.94 1032.9 401.587 1034.26 402.88C1035.62 404.173 1036.3 405.873 1036.3 407.98C1036.3 410.1 1035.62 411.8 1034.26 413.08C1032.9 414.36 1031.17 415 1029.08 415H1024.56V400.94ZM1029.1 412.76C1030.41 412.76 1031.48 412.333 1032.32 411.48C1033.16 410.627 1033.58 409.48 1033.58 408.04C1033.58 406.587 1033.15 405.413 1032.3 404.52C1031.45 403.627 1030.39 403.18 1029.12 403.18H1027.2V412.76H1029.1ZM1038.14 401.24C1038.14 400.787 1038.29 400.42 1038.6 400.14C1038.92 399.847 1039.29 399.7 1039.72 399.7C1040.16 399.7 1040.53 399.847 1040.84 400.14C1041.16 400.42 1041.32 400.787 1041.32 401.24C1041.32 401.68 1041.16 402.047 1040.84 402.34C1040.53 402.62 1040.16 402.76 1039.72 402.76C1039.29 402.76 1038.92 402.62 1038.6 402.34C1038.29 402.047 1038.14 401.68 1038.14 401.24ZM1038.44 404.42H1041V415H1038.44V404.42ZM1042.44 404.42H1045.4L1048.16 412.1L1051.08 404.42H1053.92L1049.36 415H1046.82L1042.44 404.42ZM1055.02 401.24C1055.02 400.787 1055.17 400.42 1055.48 400.14C1055.8 399.847 1056.17 399.7 1056.6 399.7C1057.04 399.7 1057.41 399.847 1057.72 400.14C1058.04 400.42 1058.2 400.787 1058.2 401.24C1058.2 401.68 1058.04 402.047 1057.72 402.34C1057.41 402.62 1057.04 402.76 1056.6 402.76C1056.17 402.76 1055.8 402.62 1055.48 402.34C1055.17 402.047 1055.02 401.68 1055.02 401.24ZM1055.32 404.42H1057.88V415H1055.32V404.42ZM1059.95 409.72C1059.95 407.973 1060.44 406.607 1061.43 405.62C1062.43 404.633 1063.66 404.14 1065.13 404.14C1066.73 404.14 1067.98 404.767 1068.89 406.02V400.94H1071.43V415H1068.93V413.08C1068.01 414.52 1066.74 415.24 1065.13 415.24C1063.69 415.24 1062.46 414.753 1061.45 413.78C1060.45 412.807 1059.95 411.453 1059.95 409.72ZM1068.93 409.7V409.6C1068.68 408.587 1068.24 407.787 1067.61 407.2C1067 406.6 1066.3 406.3 1065.51 406.3C1064.67 406.3 1063.98 406.593 1063.43 407.18C1062.9 407.767 1062.63 408.6 1062.63 409.68C1062.63 410.733 1062.9 411.567 1063.45 412.18C1064 412.78 1064.69 413.08 1065.53 413.08C1066.36 413.08 1067.06 412.773 1067.65 412.16C1068.25 411.547 1068.68 410.727 1068.93 409.7ZM1073.51 409.78C1073.51 408.087 1074.01 406.727 1075.03 405.7C1076.05 404.66 1077.36 404.14 1078.95 404.14C1080.49 404.14 1081.75 404.613 1082.71 405.56C1083.68 406.493 1084.17 407.873 1084.17 409.7C1084.17 410.033 1084.15 410.307 1084.11 410.52H1076.17C1076.43 412.32 1077.58 413.22 1079.61 413.22C1080.91 413.22 1082.12 412.927 1083.23 412.34L1083.67 414.18C1082.41 414.913 1080.93 415.28 1079.21 415.28C1077.38 415.28 1075.97 414.793 1074.99 413.82C1074 412.847 1073.51 411.5 1073.51 409.78ZM1081.53 408.92C1081.34 407.08 1080.47 406.16 1078.91 406.16C1077.31 406.16 1076.39 407.08 1076.17 408.92H1081.53ZM1086.22 404.42H1088.78V406.38C1089.71 404.94 1090.86 404.22 1092.22 404.22C1092.63 404.22 1092.98 404.267 1093.26 404.36L1092.9 406.54C1092.63 406.447 1092.32 406.4 1091.96 406.4C1091.32 406.4 1090.71 406.66 1090.14 407.18C1089.58 407.7 1089.12 408.42 1088.78 409.34V415H1086.22V404.42ZM1093.91 414.32L1094.35 412.24C1095.45 412.947 1096.63 413.3 1097.91 413.3C1099.3 413.3 1099.99 412.887 1099.99 412.06C1099.99 411.687 1099.79 411.407 1099.37 411.22C1098.97 411.02 1098.48 410.873 1097.89 410.78C1097.32 410.673 1096.74 410.54 1096.15 410.38C1095.57 410.22 1095.07 409.907 1094.65 409.44C1094.25 408.96 1094.05 408.327 1094.05 407.54C1094.05 406.5 1094.44 405.673 1095.21 405.06C1096 404.433 1097.08 404.12 1098.45 404.12C1099.81 404.12 1101.06 404.42 1102.19 405.02L1101.73 407.08C1100.64 406.453 1099.59 406.14 1098.57 406.14C1097.99 406.14 1097.51 406.253 1097.13 406.48C1096.77 406.693 1096.59 406.993 1096.59 407.38C1096.59 407.793 1096.79 408.107 1097.19 408.32C1097.61 408.52 1098.11 408.673 1098.69 408.78C1099.28 408.887 1099.86 409.02 1100.43 409.18C1101.02 409.327 1101.51 409.62 1101.91 410.06C1102.33 410.487 1102.53 411.067 1102.53 411.8C1102.53 412.827 1102.09 413.66 1101.21 414.3C1100.33 414.94 1099.21 415.26 1097.83 415.26C1096.39 415.26 1095.09 414.947 1093.91 414.32Z" fill="#00003C"/>
<path opacity="0.8" d="M1024.6 434.298H1023.59V433.262H1024.79L1025.25 430.854H1023.95V429.804H1025.46L1025.97 427.158H1027.05L1026.56 429.804H1029.3L1029.8 427.158H1030.88L1030.39 429.804H1031.48V430.854H1030.18L1029.73 433.262H1031.13V434.298H1029.54L1029.03 437H1027.91L1028.43 434.298H1025.7L1025.2 437H1024.08L1024.6 434.298ZM1028.63 433.262L1029.09 430.854H1026.35L1025.9 433.262H1028.63ZM1033.28 427.158H1036.1C1037.56 427.158 1038.76 427.606 1039.69 428.502C1040.63 429.398 1041.09 430.593 1041.09 432.086C1041.09 433.589 1040.63 434.783 1039.69 435.67C1038.76 436.557 1037.56 437 1036.1 437H1033.28V427.158ZM1036.11 435.726C1037.15 435.726 1037.99 435.409 1038.63 434.774C1039.27 434.139 1039.6 433.262 1039.6 432.142C1039.6 431.013 1039.27 430.112 1038.62 429.44C1037.96 428.768 1037.13 428.432 1036.12 428.432H1034.72V435.726H1036.11ZM1042.96 427.158H1045.62C1046.63 427.158 1047.44 427.373 1048.04 427.802C1048.65 428.231 1048.95 428.899 1048.95 429.804C1048.95 430.784 1048.52 431.489 1047.67 431.918C1048.25 432.114 1048.71 432.413 1049.04 432.814C1049.37 433.215 1049.54 433.701 1049.54 434.27C1049.54 435.101 1049.22 435.763 1048.58 436.258C1047.93 436.753 1047.1 437 1046.07 437H1042.96V427.158ZM1045.62 431.484C1046.22 431.484 1046.68 431.339 1046.99 431.05C1047.31 430.751 1047.47 430.35 1047.47 429.846C1047.47 428.875 1046.85 428.39 1045.62 428.39H1044.4V431.484H1045.62ZM1046.11 435.768C1046.74 435.768 1047.22 435.614 1047.55 435.306C1047.89 434.989 1048.06 434.611 1048.06 434.172C1048.06 433.696 1047.87 433.309 1047.5 433.01C1047.12 432.702 1046.61 432.548 1045.94 432.548H1044.4V435.768H1046.11ZM1051.33 427.158H1054.14C1055.61 427.158 1056.81 427.606 1057.74 428.502C1058.67 429.398 1059.14 430.593 1059.14 432.086C1059.14 433.589 1058.67 434.783 1057.74 435.67C1056.81 436.557 1055.61 437 1054.14 437H1051.33V427.158ZM1054.16 435.726C1055.19 435.726 1056.03 435.409 1056.68 434.774C1057.32 434.139 1057.64 433.262 1057.64 432.142C1057.64 431.013 1057.32 430.112 1056.66 429.44C1056.01 428.768 1055.18 428.432 1054.17 428.432H1052.77V435.726H1054.16ZM1061.01 427.158H1063.67C1064.68 427.158 1065.48 427.373 1066.09 427.802C1066.7 428.231 1067 428.899 1067 429.804C1067 430.784 1066.57 431.489 1065.71 431.918C1066.3 432.114 1066.76 432.413 1067.09 432.814C1067.42 433.215 1067.59 433.701 1067.59 434.27C1067.59 435.101 1067.27 435.763 1066.62 436.258C1065.98 436.753 1065.14 437 1064.12 437H1061.01V427.158ZM1063.67 431.484C1064.27 431.484 1064.72 431.339 1065.04 431.05C1065.36 430.751 1065.52 430.35 1065.52 429.846C1065.52 428.875 1064.9 428.39 1063.67 428.39H1062.45V431.484H1063.67ZM1064.16 435.768C1064.78 435.768 1065.27 435.614 1065.6 435.306C1065.94 434.989 1066.11 434.611 1066.11 434.172C1066.11 433.696 1065.92 433.309 1065.55 433.01C1065.17 432.702 1064.65 432.548 1063.99 432.548H1062.45V435.768H1064.16ZM1069.38 427.158H1072.19C1073.66 427.158 1074.85 427.606 1075.79 428.502C1076.72 429.398 1077.19 430.593 1077.19 432.086C1077.19 433.589 1076.72 434.783 1075.79 435.67C1074.85 436.557 1073.66 437 1072.19 437H1069.38V427.158ZM1072.2 435.726C1073.24 435.726 1074.08 435.409 1074.72 434.774C1075.37 434.139 1075.69 433.262 1075.69 432.142C1075.69 431.013 1075.36 430.112 1074.71 429.44C1074.06 428.768 1073.23 428.432 1072.22 428.432H1070.82V435.726H1072.2ZM1079.06 427.158H1081.72C1082.72 427.158 1083.53 427.373 1084.14 427.802C1084.74 428.231 1085.05 428.899 1085.05 429.804C1085.05 430.784 1084.62 431.489 1083.76 431.918C1084.35 432.114 1084.81 432.413 1085.13 432.814C1085.47 433.215 1085.64 433.701 1085.64 434.27C1085.64 435.101 1085.31 435.763 1084.67 436.258C1084.03 436.753 1083.19 437 1082.16 437H1079.06V427.158ZM1081.72 431.484C1082.31 431.484 1082.77 431.339 1083.09 431.05C1083.41 430.751 1083.56 430.35 1083.56 429.846C1083.56 428.875 1082.95 428.39 1081.72 428.39H1080.5V431.484H1081.72ZM1082.21 435.768C1082.83 435.768 1083.31 435.614 1083.65 435.306C1083.98 434.989 1084.15 434.611 1084.15 434.172C1084.15 433.696 1083.97 433.309 1083.59 433.01C1083.22 432.702 1082.7 432.548 1082.04 432.548H1080.5V435.768H1082.21Z" fill="#00003C"/>
</g>
<g filter="url(#filter11_d_7_5148)">
<rect width="200" height="200" transform="translate(1255 257)" fill="white"/>
<rect x="1263.5" y="265.5" width="183" height="183" fill="white" stroke="#E4E4E4"/>
<path d="M1271.16 400.94H1273.8L1276.62 411.72L1279.94 400.94H1281.88L1285.08 411.62L1288.02 400.94H1290.54L1286.36 415H1283.84L1280.82 405.22L1277.74 415H1275.16L1271.16 400.94ZM1291.97 400.94H1294.53V406.4C1295.54 404.893 1296.86 404.14 1298.47 404.14C1301.04 404.14 1302.33 405.667 1302.33 408.72V415H1299.79V408.88C1299.79 407.173 1299.14 406.32 1297.85 406.32C1296.49 406.32 1295.38 407.327 1294.53 409.34V415H1291.97V400.94ZM1304.6 401.24C1304.6 400.787 1304.75 400.42 1305.06 400.14C1305.38 399.847 1305.75 399.7 1306.18 399.7C1306.62 399.7 1306.99 399.847 1307.3 400.14C1307.62 400.42 1307.78 400.787 1307.78 401.24C1307.78 401.68 1307.62 402.047 1307.3 402.34C1306.99 402.62 1306.62 402.76 1306.18 402.76C1305.75 402.76 1305.38 402.62 1305.06 402.34C1304.75 402.047 1304.6 401.68 1304.6 401.24ZM1304.9 404.42H1307.46V415H1304.9V404.42ZM1310.91 411.44V406.38H1309.05V404.42H1310.91V401.52H1313.45V404.42H1317.35V406.38H1313.45V410.82C1313.45 412.3 1314.05 413.04 1315.23 413.04C1315.99 413.04 1316.71 412.88 1317.39 412.56L1317.79 414.54C1316.85 414.993 1315.78 415.22 1314.59 415.22C1313.45 415.22 1312.55 414.907 1311.89 414.28C1311.24 413.653 1310.91 412.707 1310.91 411.44ZM1318.46 409.78C1318.46 408.087 1318.97 406.727 1319.98 405.7C1321.01 404.66 1322.31 404.14 1323.9 404.14C1325.45 404.14 1326.7 404.613 1327.66 405.56C1328.63 406.493 1329.12 407.873 1329.12 409.7C1329.12 410.033 1329.1 410.307 1329.06 410.52H1321.12C1321.39 412.32 1322.53 413.22 1324.56 413.22C1325.87 413.22 1327.07 412.927 1328.18 412.34L1328.62 414.18C1327.37 414.913 1325.88 415.28 1324.16 415.28C1322.33 415.28 1320.93 414.793 1319.94 413.82C1318.95 412.847 1318.46 411.5 1318.46 409.78ZM1326.48 408.92C1326.29 407.08 1325.42 406.16 1323.86 406.16C1322.26 406.16 1321.35 407.08 1321.12 408.92H1326.48Z" fill="#00003C"/>
<path opacity="0.8" d="M1272.6 434.298H1271.59V433.262H1272.79L1273.25 430.854H1271.95V429.804H1273.46L1273.97 427.158H1275.05L1274.56 429.804H1277.3L1277.8 427.158H1278.88L1278.39 429.804H1279.48V430.854H1278.18L1277.73 433.262H1279.13V434.298H1277.54L1277.03 437H1275.91L1276.43 434.298H1273.7L1273.2 437H1272.08L1272.6 434.298ZM1276.63 433.262L1277.09 430.854H1274.35L1273.9 433.262H1276.63ZM1281.28 427.158H1286.99V428.432H1282.72V431.764H1286.5V433.038H1282.72V437H1281.28V427.158ZM1288.68 427.158H1294.39V428.432H1290.12V431.764H1293.9V433.038H1290.12V437H1288.68V427.158ZM1296.08 427.158H1301.79V428.432H1297.52V431.764H1301.3V433.038H1297.52V437H1296.08V427.158ZM1303.47 427.158H1309.18V428.432H1304.91V431.764H1308.69V433.038H1304.91V437H1303.47V427.158ZM1310.87 427.158H1316.58V428.432H1312.31V431.764H1316.09V433.038H1312.31V437H1310.87V427.158ZM1318.26 427.158H1323.98V428.432H1319.71V431.764H1323.49V433.038H1319.71V437H1318.26V427.158Z" fill="#00003C"/>
</g>
<defs>
<filter id="filter0_d_7_5148" x="0" y="0" width="230" height="230" filterUnits="userSpaceOnUse" color-interpolation-filters="sRGB">
<feFlood flood-opacity="0" result="BackgroundImageFix"/>
<feColorMatrix in="SourceAlpha" type="matrix" values="0 0 0 0 0 0 0 0 0 0 0 0 0 0 0 0 0 0 127 0" result="hardAlpha"/>
<feOffset dy="6"/>
<feGaussianBlur stdDeviation="7.5"/>
<feColorMatrix type="matrix" values="0 0 0 0 0 0 0 0 0 0 0 0 0 0 0 0 0 0 0.15 0"/>
<feBlend mode="normal" in2="BackgroundImageFix" result="effect1_dropShadow_7_5148"/>
<feBlend mode="normal" in="SourceGraphic" in2="effect1_dropShadow_7_5148" result="shape"/>
</filter>
<filter id="filter1_d_7_5148" x="248" y="0" width="230" height="230" filterUnits="userSpaceOnUse" color-interpolation-filters="sRGB">
<feFlood flood-opacity="0" result="BackgroundImageFix"/>
<feColorMatrix in="SourceAlpha" type="matrix" values="0 0 0 0 0 0 0 0 0 0 0 0 0 0 0 0 0 0 127 0" result="hardAlpha"/>
<feOffset dy="6"/>
<feGaussianBlur stdDeviation="7.5"/>
<feColorMatrix type="matrix" values="0 0 0 0 0 0 0 0 0 0 0 0 0 0 0 0 0 0 0.15 0"/>
<feBlend mode="normal" in2="BackgroundImageFix" result="effect1_dropShadow_7_5148"/>
<feBlend mode="normal" in="SourceGraphic" in2="effect1_dropShadow_7_5148" result="shape"/>
</filter>
<filter id="filter2_d_7_5148" x="496" y="0" width="230" height="230" filterUnits="userSpaceOnUse" color-interpolation-filters="sRGB">
<feFlood flood-opacity="0" result="BackgroundImageFix"/>
<feColorMatrix in="SourceAlpha" type="matrix" values="0 0 0 0 0 0 0 0 0 0 0 0 0 0 0 0 0 0 127 0" result="hardAlpha"/>
<feOffset dy="6"/>
<feGaussianBlur stdDeviation="7.5"/>
<feColorMatrix type="matrix" values="0 0 0 0 0 0 0 0 0 0 0 0 0 0 0 0 0 0 0.15 0"/>
<feBlend mode="normal" in2="BackgroundImageFix" result="effect1_dropShadow_7_5148"/>
<feBlend mode="normal" in="SourceGraphic" in2="effect1_dropShadow_7_5148" result="shape"/>
</filter>
<filter id="filter3_d_7_5148" x="744" y="0" width="230" height="230" filterUnits="userSpaceOnUse" color-interpolation-filters="sRGB">
<feFlood flood-opacity="0" result="BackgroundImageFix"/>
<feColorMatrix in="SourceAlpha" type="matrix" values="0 0 0 0 0 0 0 0 0 0 0 0 0 0 0 0 0 0 127 0" result="hardAlpha"/>
<feOffset dy="6"/>
<feGaussianBlur stdDeviation="7.5"/>
<feColorMatrix type="matrix" values="0 0 0 0 0 0 0 0 0 0 0 0 0 0 0 0 0 0 0.15 0"/>
<feBlend mode="normal" in2="BackgroundImageFix" result="effect1_dropShadow_7_5148"/>
<feBlend mode="normal" in="SourceGraphic" in2="effect1_dropShadow_7_5148" result="shape"/>
</filter>
<filter id="filter4_d_7_5148" x="992" y="0" width="230" height="230" filterUnits="userSpaceOnUse" color-interpolation-filters="sRGB">
<feFlood flood-opacity="0" result="BackgroundImageFix"/>
<feColorMatrix in="SourceAlpha" type="matrix" values="0 0 0 0 0 0 0 0 0 0 0 0 0 0 0 0 0 0 127 0" result="hardAlpha"/>
<feOffset dy="6"/>
<feGaussianBlur stdDeviation="7.5"/>
<feColorMatrix type="matrix" values="0 0 0 0 0 0 0 0 0 0 0 0 0 0 0 0 0 0 0.15 0"/>
<feBlend mode="normal" in2="BackgroundImageFix" result="effect1_dropShadow_7_5148"/>
<feBlend mode="normal" in="SourceGraphic" in2="effect1_dropShadow_7_5148" result="shape"/>
</filter>
<filter id="filter5_d_7_5148" x="1240" y="0" width="230" height="230" filterUnits="userSpaceOnUse" color-interpolation-filters="sRGB">
<feFlood flood-opacity="0" result="BackgroundImageFix"/>
<feColorMatrix in="SourceAlpha" type="matrix" values="0 0 0 0 0 0 0 0 0 0 0 0 0 0 0 0 0 0 127 0" result="hardAlpha"/>
<feOffset dy="6"/>
<feGaussianBlur stdDeviation="7.5"/>
<feColorMatrix type="matrix" values="0 0 0 0 0 0 0 0 0 0 0 0 0 0 0 0 0 0 0.15 0"/>
<feBlend mode="normal" in2="BackgroundImageFix" result="effect1_dropShadow_7_5148"/>
<feBlend mode="normal" in="SourceGraphic" in2="effect1_dropShadow_7_5148" result="shape"/>
</filter>
<filter id="filter6_d_7_5148" x="0" y="248" width="230" height="230" filterUnits="userSpaceOnUse" color-interpolation-filters="sRGB">
<feFlood flood-opacity="0" result="BackgroundImageFix"/>
<feColorMatrix in="SourceAlpha" type="matrix" values="0 0 0 0 0 0 0 0 0 0 0 0 0 0 0 0 0 0 127 0" result="hardAlpha"/>
<feOffset dy="6"/>
<feGaussianBlur stdDeviation="7.5"/>
<feColorMatrix type="matrix" values="0 0 0 0 0 0 0 0 0 0 0 0 0 0 0 0 0 0 0.15 0"/>
<feBlend mode="normal" in2="BackgroundImageFix" result="effect1_dropShadow_7_5148"/>
<feBlend mode="normal" in="SourceGraphic" in2="effect1_dropShadow_7_5148" result="shape"/>
</filter>
<filter id="filter7_d_7_5148" x="248" y="248" width="230" height="230" filterUnits="userSpaceOnUse" color-interpolation-filters="sRGB">
<feFlood flood-opacity="0" result="BackgroundImageFix"/>
<feColorMatrix in="SourceAlpha" type="matrix" values="0 0 0 0 0 0 0 0 0 0 0 0 0 0 0 0 0 0 127 0" result="hardAlpha"/>
<feOffset dy="6"/>
<feGaussianBlur stdDeviation="7.5"/>
<feColorMatrix type="matrix" values="0 0 0 0 0 0 0 0 0 0 0 0 0 0 0 0 0 0 0.15 0"/>
<feBlend mode="normal" in2="BackgroundImageFix" result="effect1_dropShadow_7_5148"/>
<feBlend mode="normal" in="SourceGraphic" in2="effect1_dropShadow_7_5148" result="shape"/>
</filter>
<filter id="filter8_d_7_5148" x="496" y="248" width="230" height="230" filterUnits="userSpaceOnUse" color-interpolation-filters="sRGB">
<feFlood flood-opacity="0" result="BackgroundImageFix"/>
<feColorMatrix in="SourceAlpha" type="matrix" values="0 0 0 0 0 0 0 0 0 0 0 0 0 0 0 0 0 0 127 0" result="hardAlpha"/>
<feOffset dy="6"/>
<feGaussianBlur stdDeviation="7.5"/>
<feColorMatrix type="matrix" values="0 0 0 0 0 0 0 0 0 0 0 0 0 0 0 0 0 0 0.15 0"/>
<feBlend mode="normal" in2="BackgroundImageFix" result="effect1_dropShadow_7_5148"/>
<feBlend mode="normal" in="SourceGraphic" in2="effect1_dropShadow_7_5148" result="shape"/>
</filter>
<filter id="filter9_d_7_5148" x="744" y="248" width="230" height="230" filterUnits="userSpaceOnUse" color-interpolation-filters="sRGB">
<feFlood flood-opacity="0" result="BackgroundImageFix"/>
<feColorMatrix in="SourceAlpha" type="matrix" values="0 0 0 0 0 0 0 0 0 0 0 0 0 0 0 0 0 0 127 0" result="hardAlpha"/>
<feOffset dy="6"/>
<feGaussianBlur stdDeviation="7.5"/>
<feColorMatrix type="matrix" values="0 0 0 0 0 0 0 0 0 0 0 0 0 0 0 0 0 0 0.15 0"/>
<feBlend mode="normal" in2="BackgroundImageFix" result="effect1_dropShadow_7_5148"/>
<feBlend mode="normal" in="SourceGraphic" in2="effect1_dropShadow_7_5148" result="shape"/>
</filter>
<filter id="filter10_d_7_5148" x="992" y="248" width="230" height="230" filterUnits="userSpaceOnUse" color-interpolation-filters="sRGB">
<feFlood flood-opacity="0" result="BackgroundImageFix"/>
<feColorMatrix in="SourceAlpha" type="matrix" values="0 0 0 0 0 0 0 0 0 0 0 0 0 0 0 0 0 0 127 0" result="hardAlpha"/>
<feOffset dy="6"/>
<feGaussianBlur stdDeviation="7.5"/>
<feColorMatrix type="matrix" values="0 0 0 0 0 0 0 0 0 0 0 0 0 0 0 0 0 0 0.15 0"/>
<feBlend mode="normal" in2="BackgroundImageFix" result="effect1_dropShadow_7_5148"/>
<feBlend mode="normal" in="SourceGraphic" in2="effect1_dropShadow_7_5148" result="shape"/>
</filter>
<filter id="filter11_d_7_5148" x="1240" y="248" width="230" height="230" filterUnits="userSpaceOnUse" color-interpolation-filters="sRGB">
<feFlood flood-opacity="0" result="BackgroundImageFix"/>
<feColorMatrix in="SourceAlpha" type="matrix" values="0 0 0 0 0 0 0 0 0 0 0 0 0 0 0 0 0 0 127 0" result="hardAlpha"/>
<feOffset dy="6"/>
<feGaussianBlur stdDeviation="7.5"/>
<feColorMatrix type="matrix" values="0 0 0 0 0 0 0 0 0 0 0 0 0 0 0 0 0 0 0.15 0"/>
<feBlend mode="normal" in2="BackgroundImageFix" result="effect1_dropShadow_7_5148"/>
<feBlend mode="normal" in="SourceGraphic" in2="effect1_dropShadow_7_5148" result="shape"/>
</filter>
</defs>
</svg>
