<svg width="477" height="553" viewBox="0 0 477 553" fill="none" xmlns="http://www.w3.org/2000/svg">
<rect x="60.5" y="25.5" width="415.116" height="527" rx="4.5" fill="white"/>
<rect x="60.5" y="25.5" width="415.116" height="527" rx="4.5" stroke="#9747FF" stroke-dasharray="10 5"/>
<mask id="path-2-inside-1_7_5300" fill="white">
<path d="M60 25H268.116V113H60V25Z"/>
</mask>
<path d="M268.116 113V113.5H268.616V113H268.116ZM60 113.5H64.9551V112.5H60V113.5ZM69.9103 113.5H79.8206V112.5H69.9103V113.5ZM84.7757 113.5H94.686V112.5H84.7757V113.5ZM99.6412 113.5H109.551V112.5H99.6412V113.5ZM114.507 113.5H124.417V112.5H114.507V113.5ZM129.372 113.5H139.282V112.5H129.372V113.5ZM144.238 113.5H154.148V112.5H144.238V113.5ZM159.103 113.5H169.013V112.5H159.103V113.5ZM173.968 113.5H183.879V112.5H173.968V113.5ZM188.834 113.5H198.744V112.5H188.834V113.5ZM203.699 113.5H213.61V112.5H203.699V113.5ZM218.565 113.5H228.475V112.5H218.565V113.5ZM233.43 113.5H243.341V112.5H233.43V113.5ZM248.296 113.5H258.206V112.5H248.296V113.5ZM263.161 113.5H268.116V112.5H263.161V113.5ZM268.616 113V108.111H267.616V113H268.616ZM268.616 103.222V93.4444H267.616V103.222H268.616ZM268.616 88.5556V78.7778H267.616V88.5556H268.616ZM268.616 73.8889V64.1111H267.616V73.8889H268.616ZM268.616 59.2222V49.4444H267.616V59.2222H268.616ZM268.616 44.5556V34.7778H267.616V44.5556H268.616ZM268.616 29.8889V25H267.616V29.8889H268.616ZM268.116 113V114H269.116V113H268.116ZM60 114H64.9551V112H60V114ZM69.9103 114H79.8206V112H69.9103V114ZM84.7757 114H94.686V112H84.7757V114ZM99.6412 114H109.551V112H99.6412V114ZM114.507 114H124.417V112H114.507V114ZM129.372 114H139.282V112H129.372V114ZM144.238 114H154.148V112H144.238V114ZM159.103 114H169.013V112H159.103V114ZM173.968 114H183.879V112H173.968V114ZM188.834 114H198.744V112H188.834V114ZM203.699 114H213.61V112H203.699V114ZM218.565 114H228.475V112H218.565V114ZM233.43 114H243.341V112H233.43V114ZM248.296 114H258.206V112H248.296V114ZM263.161 114H268.116V112H263.161V114ZM269.116 113V108.111H267.116V113H269.116ZM269.116 103.222V93.4444H267.116V103.222H269.116ZM269.116 88.5556V78.7778H267.116V88.5556H269.116ZM269.116 73.8889V64.1111H267.116V73.8889H269.116ZM269.116 59.2222V49.4444H267.116V59.2222H269.116ZM269.116 44.5556V34.7778H267.116V44.5556H269.116ZM269.116 29.8889V25H267.116V29.8889H269.116Z" fill="#9747FF" mask="url(#path-2-inside-1_7_5300)"/>
<mask id="path-4-inside-2_7_5300" fill="white">
<path d="M268.116 25H476.116V113H268.116V25Z"/>
</mask>
<path d="M268.116 113.5H273.069V112.5H268.116V113.5ZM278.021 113.5H287.926V112.5H278.021V113.5ZM292.878 113.5H302.783V112.5H292.878V113.5ZM307.735 113.5H317.64V112.5H307.735V113.5ZM322.592 113.5H332.497V112.5H322.592V113.5ZM337.45 113.5H347.354V112.5H337.45V113.5ZM352.307 113.5H362.211V112.5H352.307V113.5ZM367.164 113.5H377.069V112.5H367.164V113.5ZM382.021 113.5H391.926V112.5H382.021V113.5ZM396.878 113.5H406.783V112.5H396.878V113.5ZM411.735 113.5H421.64V112.5H411.735V113.5ZM426.592 113.5H436.497V112.5H426.592V113.5ZM441.45 113.5H451.354V112.5H441.45V113.5ZM456.307 113.5H466.211V112.5H456.307V113.5ZM471.164 113.5H476.116V112.5H471.164V113.5ZM268.116 114H273.069V112H268.116V114ZM278.021 114H287.926V112H278.021V114ZM292.878 114H302.783V112H292.878V114ZM307.735 114H317.64V112H307.735V114ZM322.592 114H332.497V112H322.592V114ZM337.45 114H347.354V112H337.45V114ZM352.307 114H362.211V112H352.307V114ZM367.164 114H377.069V112H367.164V114ZM382.021 114H391.926V112H382.021V114ZM396.878 114H406.783V112H396.878V114ZM411.735 114H421.64V112H411.735V114ZM426.592 114H436.497V112H426.592V114ZM441.45 114H451.354V112H441.45V114ZM456.307 114H466.211V112H456.307V114ZM471.164 114H476.116V112H471.164V114Z" fill="#9747FF" mask="url(#path-4-inside-2_7_5300)"/>
<mask id="path-6-inside-3_7_5300" fill="white">
<path d="M60 113H268.116V201H60V113Z"/>
</mask>
<path d="M268.116 201V201.5H268.616V201H268.116ZM60 201.5H64.9551V200.5H60V201.5ZM69.9103 201.5H79.8206V200.5H69.9103V201.5ZM84.7757 201.5H94.686V200.5H84.7757V201.5ZM99.6412 201.5H109.551V200.5H99.6412V201.5ZM114.507 201.5H124.417V200.5H114.507V201.5ZM129.372 201.5H139.282V200.5H129.372V201.5ZM144.238 201.5H154.148V200.5H144.238V201.5ZM159.103 201.5H169.013V200.5H159.103V201.5ZM173.968 201.5H183.879V200.5H173.968V201.5ZM188.834 201.5H198.744V200.5H188.834V201.5ZM203.699 201.5H213.61V200.5H203.699V201.5ZM218.565 201.5H228.475V200.5H218.565V201.5ZM233.43 201.5H243.341V200.5H233.43V201.5ZM248.296 201.5H258.206V200.5H248.296V201.5ZM263.161 201.5H268.116V200.5H263.161V201.5ZM268.616 201V196.111H267.616V201H268.616ZM268.616 191.222V181.444H267.616V191.222H268.616ZM268.616 176.556V166.778H267.616V176.556H268.616ZM268.616 161.889V152.111H267.616V161.889H268.616ZM268.616 147.222V137.444H267.616V147.222H268.616ZM268.616 132.556V122.778H267.616V132.556H268.616ZM268.616 117.889V113H267.616V117.889H268.616ZM268.116 201V202H269.116V201H268.116ZM60 202H64.9551V200H60V202ZM69.9103 202H79.8206V200H69.9103V202ZM84.7757 202H94.686V200H84.7757V202ZM99.6412 202H109.551V200H99.6412V202ZM114.507 202H124.417V200H114.507V202ZM129.372 202H139.282V200H129.372V202ZM144.238 202H154.148V200H144.238V202ZM159.103 202H169.013V200H159.103V202ZM173.968 202H183.879V200H173.968V202ZM188.834 202H198.744V200H188.834V202ZM203.699 202H213.61V200H203.699V202ZM218.565 202H228.475V200H218.565V202ZM233.43 202H243.341V200H233.43V202ZM248.296 202H258.206V200H248.296V202ZM263.161 202H268.116V200H263.161V202ZM269.116 201V196.111H267.116V201H269.116ZM269.116 191.222V181.444H267.116V191.222H269.116ZM269.116 176.556V166.778H267.116V176.556H269.116ZM269.116 161.889V152.111H267.116V161.889H269.116ZM269.116 147.222V137.444H267.116V147.222H269.116ZM269.116 132.556V122.778H267.116V132.556H269.116ZM269.116 117.889V113H267.116V117.889H269.116Z" fill="#9747FF" mask="url(#path-6-inside-3_7_5300)"/>
<mask id="path-8-inside-4_7_5300" fill="white">
<path d="M268.116 113H476.116V201H268.116V113Z"/>
</mask>
<path d="M268.116 201.5H273.069V200.5H268.116V201.5ZM278.021 201.5H287.926V200.5H278.021V201.5ZM292.878 201.5H302.783V200.5H292.878V201.5ZM307.735 201.5H317.64V200.5H307.735V201.5ZM322.592 201.5H332.497V200.5H322.592V201.5ZM337.45 201.5H347.354V200.5H337.45V201.5ZM352.307 201.5H362.211V200.5H352.307V201.5ZM367.164 201.5H377.069V200.5H367.164V201.5ZM382.021 201.5H391.926V200.5H382.021V201.5ZM396.878 201.5H406.783V200.5H396.878V201.5ZM411.735 201.5H421.64V200.5H411.735V201.5ZM426.592 201.5H436.497V200.5H426.592V201.5ZM441.45 201.5H451.354V200.5H441.45V201.5ZM456.307 201.5H466.211V200.5H456.307V201.5ZM471.164 201.5H476.116V200.5H471.164V201.5ZM268.116 202H273.069V200H268.116V202ZM278.021 202H287.926V200H278.021V202ZM292.878 202H302.783V200H292.878V202ZM307.735 202H317.64V200H307.735V202ZM322.592 202H332.497V200H322.592V202ZM337.45 202H347.354V200H337.45V202ZM352.307 202H362.211V200H352.307V202ZM367.164 202H377.069V200H367.164V202ZM382.021 202H391.926V200H382.021V202ZM396.878 202H406.783V200H396.878V202ZM411.735 202H421.64V200H411.735V202ZM426.592 202H436.497V200H426.592V202ZM441.45 202H451.354V200H441.45V202ZM456.307 202H466.211V200H456.307V202ZM471.164 202H476.116V200H471.164V202Z" fill="#9747FF" mask="url(#path-8-inside-4_7_5300)"/>
<mask id="path-10-inside-5_7_5300" fill="white">
<path d="M60 201H268.116V289H60V201Z"/>
</mask>
<path d="M268.116 289V289.5H268.616V289H268.116ZM60 289.5H64.9551V288.5H60V289.5ZM69.9103 289.5H79.8206V288.5H69.9103V289.5ZM84.7757 289.5H94.686V288.5H84.7757V289.5ZM99.6412 289.5H109.551V288.5H99.6412V289.5ZM114.507 289.5H124.417V288.5H114.507V289.5ZM129.372 289.5H139.282V288.5H129.372V289.5ZM144.238 289.5H154.148V288.5H144.238V289.5ZM159.103 289.5H169.013V288.5H159.103V289.5ZM173.968 289.5H183.879V288.5H173.968V289.5ZM188.834 289.5H198.744V288.5H188.834V289.5ZM203.699 289.5H213.61V288.5H203.699V289.5ZM218.565 289.5H228.475V288.5H218.565V289.5ZM233.43 289.5H243.341V288.5H233.43V289.5ZM248.296 289.5H258.206V288.5H248.296V289.5ZM263.161 289.5H268.116V288.5H263.161V289.5ZM268.616 289V284.111H267.616V289H268.616ZM268.616 279.222V269.444H267.616V279.222H268.616ZM268.616 264.556V254.778H267.616V264.556H268.616ZM268.616 249.889V240.111H267.616V249.889H268.616ZM268.616 235.222V225.444H267.616V235.222H268.616ZM268.616 220.556V210.778H267.616V220.556H268.616ZM268.616 205.889V201H267.616V205.889H268.616ZM268.116 289V290H269.116V289H268.116ZM60 290H64.9551V288H60V290ZM69.9103 290H79.8206V288H69.9103V290ZM84.7757 290H94.686V288H84.7757V290ZM99.6412 290H109.551V288H99.6412V290ZM114.507 290H124.417V288H114.507V290ZM129.372 290H139.282V288H129.372V290ZM144.238 290H154.148V288H144.238V290ZM159.103 290H169.013V288H159.103V290ZM173.968 290H183.879V288H173.968V290ZM188.834 290H198.744V288H188.834V290ZM203.699 290H213.61V288H203.699V290ZM218.565 290H228.475V288H218.565V290ZM233.43 290H243.341V288H233.43V290ZM248.296 290H258.206V288H248.296V290ZM263.161 290H268.116V288H263.161V290ZM269.116 289V284.111H267.116V289H269.116ZM269.116 279.222V269.444H267.116V279.222H269.116ZM269.116 264.556V254.778H267.116V264.556H269.116ZM269.116 249.889V240.111H267.116V249.889H269.116ZM269.116 235.222V225.444H267.116V235.222H269.116ZM269.116 220.556V210.778H267.116V220.556H269.116ZM269.116 205.889V201H267.116V205.889H269.116Z" fill="#9747FF" mask="url(#path-10-inside-5_7_5300)"/>
<mask id="path-12-inside-6_7_5300" fill="white">
<path d="M268.116 201H476.116V289H268.116V201Z"/>
</mask>
<path d="M268.116 289.5H273.069V288.5H268.116V289.5ZM278.021 289.5H287.926V288.5H278.021V289.5ZM292.878 289.5H302.783V288.5H292.878V289.5ZM307.735 289.5H317.64V288.5H307.735V289.5ZM322.592 289.5H332.497V288.5H322.592V289.5ZM337.45 289.5H347.354V288.5H337.45V289.5ZM352.307 289.5H362.211V288.5H352.307V289.5ZM367.164 289.5H377.069V288.5H367.164V289.5ZM382.021 289.5H391.926V288.5H382.021V289.5ZM396.878 289.5H406.783V288.5H396.878V289.5ZM411.735 289.5H421.64V288.5H411.735V289.5ZM426.592 289.5H436.497V288.5H426.592V289.5ZM441.45 289.5H451.354V288.5H441.45V289.5ZM456.307 289.5H466.211V288.5H456.307V289.5ZM471.164 289.5H476.116V288.5H471.164V289.5ZM268.116 290H273.069V288H268.116V290ZM278.021 290H287.926V288H278.021V290ZM292.878 290H302.783V288H292.878V290ZM307.735 290H317.64V288H307.735V290ZM322.592 290H332.497V288H322.592V290ZM337.45 290H347.354V288H337.45V290ZM352.307 290H362.211V288H352.307V290ZM367.164 290H377.069V288H367.164V290ZM382.021 290H391.926V288H382.021V290ZM396.878 290H406.783V288H396.878V290ZM411.735 290H421.64V288H411.735V290ZM426.592 290H436.497V288H426.592V290ZM441.45 290H451.354V288H441.45V290ZM456.307 290H466.211V288H456.307V290ZM471.164 290H476.116V288H471.164V290Z" fill="#9747FF" mask="url(#path-12-inside-6_7_5300)"/>
<mask id="path-14-inside-7_7_5300" fill="white">
<path d="M60 289H268.116V377H60V289Z"/>
</mask>
<path d="M268.116 377V377.5H268.616V377H268.116ZM60 377.5H64.9551V376.5H60V377.5ZM69.9103 377.5H79.8206V376.5H69.9103V377.5ZM84.7757 377.5H94.686V376.5H84.7757V377.5ZM99.6412 377.5H109.551V376.5H99.6412V377.5ZM114.507 377.5H124.417V376.5H114.507V377.5ZM129.372 377.5H139.282V376.5H129.372V377.5ZM144.238 377.5H154.148V376.5H144.238V377.5ZM159.103 377.5H169.013V376.5H159.103V377.5ZM173.968 377.5H183.879V376.5H173.968V377.5ZM188.834 377.5H198.744V376.5H188.834V377.5ZM203.699 377.5H213.61V376.5H203.699V377.5ZM218.565 377.5H228.475V376.5H218.565V377.5ZM233.43 377.5H243.341V376.5H233.43V377.5ZM248.296 377.5H258.206V376.5H248.296V377.5ZM263.161 377.5H268.116V376.5H263.161V377.5ZM268.616 377V372.111H267.616V377H268.616ZM268.616 367.222V357.444H267.616V367.222H268.616ZM268.616 352.556V342.778H267.616V352.556H268.616ZM268.616 337.889V328.111H267.616V337.889H268.616ZM268.616 323.222V313.444H267.616V323.222H268.616ZM268.616 308.556V298.778H267.616V308.556H268.616ZM268.616 293.889V289H267.616V293.889H268.616ZM268.116 377V378H269.116V377H268.116ZM60 378H64.9551V376H60V378ZM69.9103 378H79.8206V376H69.9103V378ZM84.7757 378H94.686V376H84.7757V378ZM99.6412 378H109.551V376H99.6412V378ZM114.507 378H124.417V376H114.507V378ZM129.372 378H139.282V376H129.372V378ZM144.238 378H154.148V376H144.238V378ZM159.103 378H169.013V376H159.103V378ZM173.968 378H183.879V376H173.968V378ZM188.834 378H198.744V376H188.834V378ZM203.699 378H213.61V376H203.699V378ZM218.565 378H228.475V376H218.565V378ZM233.43 378H243.341V376H233.43V378ZM248.296 378H258.206V376H248.296V378ZM263.161 378H268.116V376H263.161V378ZM269.116 377V372.111H267.116V377H269.116ZM269.116 367.222V357.444H267.116V367.222H269.116ZM269.116 352.556V342.778H267.116V352.556H269.116ZM269.116 337.889V328.111H267.116V337.889H269.116ZM269.116 323.222V313.444H267.116V323.222H269.116ZM269.116 308.556V298.778H267.116V308.556H269.116ZM269.116 293.889V289H267.116V293.889H269.116Z" fill="#9747FF" mask="url(#path-14-inside-7_7_5300)"/>
<mask id="path-16-inside-8_7_5300" fill="white">
<path d="M268.116 289H476.116V377H268.116V289Z"/>
</mask>
<path d="M268.116 289H476.116V377H268.116V289Z" fill="#9747FF" fill-opacity="0.03"/>
<path d="M268.116 377.5H273.069V376.5H268.116V377.5ZM278.021 377.5H287.926V376.5H278.021V377.5ZM292.878 377.5H302.783V376.5H292.878V377.5ZM307.735 377.5H317.64V376.5H307.735V377.5ZM322.592 377.5H332.497V376.5H322.592V377.5ZM337.45 377.5H347.354V376.5H337.45V377.5ZM352.307 377.5H362.211V376.5H352.307V377.5ZM367.164 377.5H377.069V376.5H367.164V377.5ZM382.021 377.5H391.926V376.5H382.021V377.5ZM396.878 377.5H406.783V376.5H396.878V377.5ZM411.735 377.5H421.64V376.5H411.735V377.5ZM426.592 377.5H436.497V376.5H426.592V377.5ZM441.45 377.5H451.354V376.5H441.45V377.5ZM456.307 377.5H466.211V376.5H456.307V377.5ZM471.164 377.5H476.116V376.5H471.164V377.5ZM268.116 378H273.069V376H268.116V378ZM278.021 378H287.926V376H278.021V378ZM292.878 378H302.783V376H292.878V378ZM307.735 378H317.64V376H307.735V378ZM322.592 378H332.497V376H322.592V378ZM337.45 378H347.354V376H337.45V378ZM352.307 378H362.211V376H352.307V378ZM367.164 378H377.069V376H367.164V378ZM382.021 378H391.926V376H382.021V378ZM396.878 378H406.783V376H396.878V378ZM411.735 378H421.64V376H411.735V378ZM426.592 378H436.497V376H426.592V378ZM441.45 378H451.354V376H441.45V378ZM456.307 378H466.211V376H456.307V378ZM471.164 378H476.116V376H471.164V378Z" fill="#9747FF" mask="url(#path-16-inside-8_7_5300)"/>
<mask id="path-18-inside-9_7_5300" fill="white">
<path d="M60 377H268.116V465H60V377Z"/>
</mask>
<path d="M268.116 465V465.5H268.616V465H268.116ZM60 465.5H64.9551V464.5H60V465.5ZM69.9103 465.5H79.8206V464.5H69.9103V465.5ZM84.7757 465.5H94.686V464.5H84.7757V465.5ZM99.6412 465.5H109.551V464.5H99.6412V465.5ZM114.507 465.5H124.417V464.5H114.507V465.5ZM129.372 465.5H139.282V464.5H129.372V465.5ZM144.238 465.5H154.148V464.5H144.238V465.5ZM159.103 465.5H169.013V464.5H159.103V465.5ZM173.968 465.5H183.879V464.5H173.968V465.5ZM188.834 465.5H198.744V464.5H188.834V465.5ZM203.699 465.5H213.61V464.5H203.699V465.5ZM218.565 465.5H228.475V464.5H218.565V465.5ZM233.43 465.5H243.341V464.5H233.43V465.5ZM248.296 465.5H258.206V464.5H248.296V465.5ZM263.161 465.5H268.116V464.5H263.161V465.5ZM268.616 465V460.111H267.616V465H268.616ZM268.616 455.222V445.444H267.616V455.222H268.616ZM268.616 440.556V430.778H267.616V440.556H268.616ZM268.616 425.889V416.111H267.616V425.889H268.616ZM268.616 411.222V401.444H267.616V411.222H268.616ZM268.616 396.556V386.778H267.616V396.556H268.616ZM268.616 381.889V377H267.616V381.889H268.616ZM268.116 465V466H269.116V465H268.116ZM60 466H64.9551V464H60V466ZM69.9103 466H79.8206V464H69.9103V466ZM84.7757 466H94.686V464H84.7757V466ZM99.6412 466H109.551V464H99.6412V466ZM114.507 466H124.417V464H114.507V466ZM129.372 466H139.282V464H129.372V466ZM144.238 466H154.148V464H144.238V466ZM159.103 466H169.013V464H159.103V466ZM173.968 466H183.879V464H173.968V466ZM188.834 466H198.744V464H188.834V466ZM203.699 466H213.61V464H203.699V466ZM218.565 466H228.475V464H218.565V466ZM233.43 466H243.341V464H233.43V466ZM248.296 466H258.206V464H248.296V466ZM263.161 466H268.116V464H263.161V466ZM269.116 465V460.111H267.116V465H269.116ZM269.116 455.222V445.444H267.116V455.222H269.116ZM269.116 440.556V430.778H267.116V440.556H269.116ZM269.116 425.889V416.111H267.116V425.889H269.116ZM269.116 411.222V401.444H267.116V411.222H269.116ZM269.116 396.556V386.778H267.116V396.556H269.116ZM269.116 381.889V377H267.116V381.889H269.116Z" fill="#9747FF" mask="url(#path-18-inside-9_7_5300)"/>
<mask id="path-20-inside-10_7_5300" fill="white">
<path d="M268.116 377H476.116V465H268.116V377Z"/>
</mask>
<path d="M268.116 465.5H273.069V464.5H268.116V465.5ZM278.021 465.5H287.926V464.5H278.021V465.5ZM292.878 465.5H302.783V464.5H292.878V465.5ZM307.735 465.5H317.64V464.5H307.735V465.5ZM322.592 465.5H332.497V464.5H322.592V465.5ZM337.45 465.5H347.354V464.5H337.45V465.5ZM352.307 465.5H362.211V464.5H352.307V465.5ZM367.164 465.5H377.069V464.5H367.164V465.5ZM382.021 465.5H391.926V464.5H382.021V465.5ZM396.878 465.5H406.783V464.5H396.878V465.5ZM411.735 465.5H421.64V464.5H411.735V465.5ZM426.592 465.5H436.497V464.5H426.592V465.5ZM441.45 465.5H451.354V464.5H441.45V465.5ZM456.307 465.5H466.211V464.5H456.307V465.5ZM471.164 465.5H476.116V464.5H471.164V465.5ZM268.116 466H273.069V464H268.116V466ZM278.021 466H287.926V464H278.021V466ZM292.878 466H302.783V464H292.878V466ZM307.735 466H317.64V464H307.735V466ZM322.592 466H332.497V464H322.592V466ZM337.45 466H347.354V464H337.45V466ZM352.307 466H362.211V464H352.307V466ZM367.164 466H377.069V464H367.164V466ZM382.021 466H391.926V464H382.021V466ZM396.878 466H406.783V464H396.878V466ZM411.735 466H421.64V464H411.735V466ZM426.592 466H436.497V464H426.592V466ZM441.45 466H451.354V464H441.45V466ZM456.307 466H466.211V464H456.307V466ZM471.164 466H476.116V464H471.164V466Z" fill="#9747FF" mask="url(#path-20-inside-10_7_5300)"/>
<mask id="path-22-inside-11_7_5300" fill="white">
<path d="M60 465H268.116V553H60V465Z"/>
</mask>
<path d="M268.616 553V548.111H267.616V553H268.616ZM268.616 543.222V533.444H267.616V543.222H268.616ZM268.616 528.556V518.778H267.616V528.556H268.616ZM268.616 513.889V504.111H267.616V513.889H268.616ZM268.616 499.222V489.444H267.616V499.222H268.616ZM268.616 484.556V474.778H267.616V484.556H268.616ZM268.616 469.889V465H267.616V469.889H268.616ZM269.116 553V548.111H267.116V553H269.116ZM269.116 543.222V533.444H267.116V543.222H269.116ZM269.116 528.556V518.778H267.116V528.556H269.116ZM269.116 513.889V504.111H267.116V513.889H269.116ZM269.116 499.222V489.444H267.116V499.222H269.116ZM269.116 484.556V474.778H267.116V484.556H269.116ZM269.116 469.889V465H267.116V469.889H269.116Z" fill="#9747FF" mask="url(#path-22-inside-11_7_5300)"/>
<mask id="path-24-inside-12_7_5300" fill="white">
<path d="M268.116 465H476.116V553H268.116V465Z"/>
</mask>
<path d="M268.116 553.5H273.069V552.5H268.116V553.5ZM278.021 553.5H287.926V552.5H278.021V553.5ZM292.878 553.5H302.783V552.5H292.878V553.5ZM307.735 553.5H317.64V552.5H307.735V553.5ZM322.592 553.5H332.497V552.5H322.592V553.5ZM337.45 553.5H347.354V552.5H337.45V553.5ZM352.307 553.5H362.211V552.5H352.307V553.5ZM367.164 553.5H377.069V552.5H367.164V553.5ZM382.021 553.5H391.926V552.5H382.021V553.5ZM396.878 553.5H406.783V552.5H396.878V553.5ZM411.735 553.5H421.64V552.5H411.735V553.5ZM426.592 553.5H436.497V552.5H426.592V553.5ZM441.45 553.5H451.354V552.5H441.45V553.5ZM456.307 553.5H466.211V552.5H456.307V553.5ZM471.164 553.5H476.116V552.5H471.164V553.5ZM268.116 554H273.069V552H268.116V554ZM278.021 554H287.926V552H278.021V554ZM292.878 554H302.783V552H292.878V554ZM307.735 554H317.64V552H307.735V554ZM322.592 554H332.497V552H322.592V554ZM337.45 554H347.354V552H337.45V554ZM352.307 554H362.211V552H352.307V554ZM367.164 554H377.069V552H367.164V554ZM382.021 554H391.926V552H382.021V554ZM396.878 554H406.783V552H396.878V554ZM411.735 554H421.64V552H411.735V554ZM426.592 554H436.497V552H426.592V554ZM441.45 554H451.354V552H441.45V554ZM456.307 554H466.211V552H456.307V554ZM471.164 554H476.116V552H471.164V554Z" fill="#9747FF" mask="url(#path-24-inside-12_7_5300)"/>
<path d="M3.78409 513.5H0.958807V504.773H3.87358C4.72869 504.773 5.46307 504.947 6.0767 505.297C6.69034 505.643 7.16051 506.142 7.48722 506.793C7.81676 507.44 7.98153 508.217 7.98153 509.124C7.98153 510.033 7.81534 510.814 7.48295 511.467C7.15341 512.121 6.67614 512.624 6.05114 512.976C5.42614 513.325 4.67045 513.5 3.78409 513.5ZM2.27557 512.349H3.71165C4.37642 512.349 4.92898 512.224 5.36932 511.974C5.80966 511.722 6.1392 511.357 6.35795 510.879C6.5767 510.399 6.68608 509.814 6.68608 509.124C6.68608 508.439 6.5767 507.858 6.35795 507.381C6.14205 506.903 5.8196 506.541 5.39062 506.294C4.96165 506.047 4.42898 505.923 3.79261 505.923H2.27557V512.349ZM9.51669 513.5V506.955H10.7908V513.5H9.51669ZM10.1602 505.945C9.93857 505.945 9.74822 505.871 9.58913 505.723C9.43288 505.572 9.35476 505.393 9.35476 505.186C9.35476 504.976 9.43288 504.797 9.58913 504.649C9.74822 504.499 9.93857 504.423 10.1602 504.423C10.3817 504.423 10.5707 504.499 10.7269 504.649C10.886 504.797 10.9656 504.976 10.9656 505.186C10.9656 505.393 10.886 505.572 10.7269 505.723C10.5707 505.871 10.3817 505.945 10.1602 505.945ZM17.4098 508.553L16.255 508.757C16.2067 508.609 16.13 508.469 16.0249 508.335C15.9226 508.202 15.7834 508.092 15.6072 508.007C15.4311 507.922 15.2109 507.879 14.9467 507.879C14.5859 507.879 14.2848 507.96 14.0433 508.122C13.8018 508.281 13.6811 508.487 13.6811 508.74C13.6811 508.959 13.7621 509.135 13.924 509.268C14.0859 509.402 14.3473 509.511 14.7081 509.597L15.7479 509.835C16.3501 509.974 16.799 510.189 17.0945 510.479C17.3899 510.768 17.5376 511.145 17.5376 511.608C17.5376 512 17.424 512.349 17.1967 512.656C16.9723 512.96 16.6584 513.199 16.255 513.372C15.8544 513.545 15.3899 513.632 14.8615 513.632C14.1286 513.632 13.5305 513.476 13.0675 513.163C12.6044 512.848 12.3203 512.401 12.2152 511.821L13.4467 511.634C13.5234 511.955 13.6811 512.197 13.9197 512.362C14.1584 512.524 14.4695 512.605 14.853 512.605C15.2706 512.605 15.6044 512.518 15.8544 512.345C16.1044 512.169 16.2294 511.955 16.2294 511.702C16.2294 511.497 16.1527 511.325 15.9993 511.186C15.8487 511.047 15.6172 510.942 15.3047 510.871L14.1967 510.628C13.5859 510.489 13.1342 510.267 12.8416 509.963C12.5518 509.659 12.407 509.274 12.407 508.808C12.407 508.422 12.5149 508.084 12.7308 507.794C12.9467 507.504 13.245 507.278 13.6257 507.116C14.0064 506.952 14.4425 506.869 14.9339 506.869C15.6413 506.869 16.1982 507.023 16.6044 507.33C17.0107 507.634 17.2791 508.041 17.4098 508.553ZM20.8434 513.645C20.4286 513.645 20.0536 513.568 19.7184 513.415C19.3832 513.259 19.1175 513.033 18.9215 512.737C18.7283 512.442 18.6317 512.08 18.6317 511.651C18.6317 511.281 18.7028 510.977 18.8448 510.739C18.9869 510.5 19.1786 510.311 19.4201 510.172C19.6616 510.033 19.9315 509.928 20.2298 509.857C20.5281 509.786 20.832 509.732 21.1417 509.695C21.5337 509.649 21.8519 509.612 22.0962 509.584C22.3406 509.553 22.5181 509.503 22.6289 509.435C22.7397 509.366 22.7951 509.256 22.7951 509.102V509.072C22.7951 508.7 22.69 508.412 22.4798 508.207C22.2724 508.003 21.9627 507.901 21.5508 507.901C21.1218 507.901 20.7837 507.996 20.5366 508.186C20.2923 508.374 20.1232 508.582 20.0295 508.812L18.832 508.54C18.9741 508.142 19.1815 507.821 19.4542 507.577C19.7298 507.33 20.0465 507.151 20.4045 507.04C20.7624 506.926 21.1388 506.869 21.5337 506.869C21.7951 506.869 22.0721 506.901 22.3647 506.963C22.6602 507.023 22.9357 507.134 23.1914 507.295C23.4499 507.457 23.6616 507.689 23.8263 507.99C23.9911 508.288 24.0735 508.676 24.0735 509.153V513.5H22.8292V512.605H22.7781C22.6957 512.77 22.5721 512.932 22.4073 513.091C22.2425 513.25 22.0309 513.382 21.7724 513.487C21.5138 513.592 21.2042 513.645 20.8434 513.645ZM21.1204 512.622C21.4727 512.622 21.7738 512.553 22.0238 512.413C22.2766 512.274 22.4684 512.092 22.5991 511.868C22.7326 511.641 22.7994 511.398 22.7994 511.139V510.295C22.7539 510.341 22.6658 510.384 22.5352 510.423C22.4073 510.46 22.261 510.493 22.0962 510.521C21.9315 510.547 21.771 510.571 21.6147 510.594C21.4585 510.614 21.3278 510.631 21.2227 510.645C20.9755 510.676 20.7496 510.729 20.5451 510.803C20.3434 510.876 20.1815 510.983 20.0593 511.122C19.94 511.259 19.8803 511.44 19.8803 511.668C19.8803 511.983 19.9968 512.222 20.2298 512.384C20.4627 512.543 20.7596 512.622 21.1204 512.622ZM25.8729 513.5V504.773H27.147V508.016H27.2237C27.2976 507.879 27.4041 507.722 27.5433 507.543C27.6825 507.364 27.8757 507.207 28.1229 507.074C28.37 506.938 28.6967 506.869 29.103 506.869C29.6314 506.869 30.103 507.003 30.5178 507.27C30.9325 507.537 31.2578 507.922 31.4936 508.425C31.7322 508.928 31.8516 509.533 31.8516 510.24C31.8516 510.947 31.7337 511.554 31.4979 512.06C31.2621 512.562 30.9382 512.95 30.5263 513.223C30.1143 513.493 29.6442 513.628 29.1158 513.628C28.718 513.628 28.3928 513.561 28.1399 513.428C27.8899 513.294 27.6939 513.138 27.5518 512.959C27.4098 512.78 27.3004 512.621 27.2237 512.482H27.1172V513.5H25.8729ZM27.1214 510.227C27.1214 510.687 27.1882 511.091 27.3217 511.438C27.4553 511.784 27.6484 512.055 27.9013 512.251C28.1541 512.445 28.4638 512.541 28.8303 512.541C29.2109 512.541 29.5291 512.44 29.7848 512.239C30.0405 512.034 30.2337 511.757 30.3643 511.408C30.4979 511.058 30.5646 510.665 30.5646 510.227C30.5646 509.795 30.4993 509.408 30.3686 509.064C30.2408 508.72 30.0476 508.449 29.7891 508.25C29.5334 508.051 29.2138 507.952 28.8303 507.952C28.4609 507.952 28.1484 508.047 27.8928 508.237C27.6399 508.428 27.4482 508.693 27.3175 509.034C27.1868 509.375 27.1214 509.773 27.1214 510.227ZM34.5565 504.773V513.5H33.2823V504.773H34.5565ZM39.0916 513.632C38.4467 513.632 37.8913 513.494 37.4254 513.219C36.9624 512.94 36.6044 512.55 36.3516 512.047C36.1016 511.541 35.9766 510.949 35.9766 510.27C35.9766 509.599 36.1016 509.009 36.3516 508.497C36.6044 507.986 36.9567 507.587 37.4084 507.3C37.8629 507.013 38.3942 506.869 39.0021 506.869C39.3714 506.869 39.7294 506.93 40.076 507.053C40.4226 507.175 40.7337 507.366 41.0092 507.628C41.2848 507.889 41.5021 508.229 41.6612 508.646C41.8203 509.061 41.8999 509.565 41.8999 510.159V510.611H36.6967V509.656H40.6513C40.6513 509.321 40.5831 509.024 40.4467 508.766C40.3104 508.504 40.1186 508.298 39.8714 508.148C39.6271 507.997 39.3402 507.922 39.0107 507.922C38.6527 507.922 38.3402 508.01 38.0732 508.186C37.8089 508.359 37.6044 508.587 37.4595 508.868C37.3175 509.146 37.2464 509.449 37.2464 509.776V510.521C37.2464 510.959 37.3232 511.331 37.4766 511.638C37.6328 511.945 37.8501 512.179 38.1286 512.341C38.407 512.5 38.7322 512.58 39.1044 512.58C39.3459 512.58 39.5661 512.545 39.7649 512.477C39.9638 512.406 40.1357 512.301 40.2805 512.162C40.4254 512.023 40.5362 511.851 40.6129 511.646L41.8189 511.864C41.7223 512.219 41.549 512.53 41.299 512.797C41.0518 513.061 40.7408 513.267 40.3658 513.415C39.9936 513.56 39.5689 513.632 39.0916 513.632ZM45.7638 513.628C45.2354 513.628 44.7638 513.493 44.3491 513.223C43.9371 512.95 43.6133 512.562 43.3775 512.06C43.1445 511.554 43.0281 510.947 43.0281 510.24C43.0281 509.533 43.146 508.928 43.3817 508.425C43.6204 507.922 43.9471 507.537 44.3619 507.27C44.7766 507.003 45.2468 506.869 45.7724 506.869C46.1786 506.869 46.5053 506.938 46.7525 507.074C47.0025 507.207 47.1957 507.364 47.332 507.543C47.4712 507.722 47.5792 507.879 47.6559 508.016H47.7326V504.773H49.0067V513.5H47.7624V512.482H47.6559C47.5792 512.621 47.4684 512.78 47.3235 512.959C47.1815 513.138 46.9854 513.294 46.7354 513.428C46.4854 513.561 46.1616 513.628 45.7638 513.628ZM46.0451 512.541C46.4116 512.541 46.7212 512.445 46.9741 512.251C47.2298 512.055 47.4229 511.784 47.5536 511.438C47.6871 511.091 47.7539 510.687 47.7539 510.227C47.7539 509.773 47.6886 509.375 47.5579 509.034C47.4272 508.693 47.2354 508.428 46.9826 508.237C46.7298 508.047 46.4173 507.952 46.0451 507.952C45.6616 507.952 45.342 508.051 45.0863 508.25C44.8306 508.449 44.6374 508.72 44.5067 509.064C44.3789 509.408 44.315 509.795 44.315 510.227C44.315 510.665 44.3803 511.058 44.511 511.408C44.6417 511.757 44.8349 512.034 45.0906 512.239C45.3491 512.44 45.6673 512.541 46.0451 512.541Z" fill="#E7EBFB"/>
<path d="M14.696 249.5H13.2983L16.4389 240.773H17.9602L21.1009 249.5H19.7031L17.2358 242.358H17.1676L14.696 249.5ZM14.9304 246.082H19.4645V247.19H14.9304V246.082ZM24.9105 249.632C24.277 249.632 23.7315 249.489 23.2741 249.202C22.8196 248.912 22.4702 248.513 22.2259 248.004C21.9815 247.496 21.8594 246.913 21.8594 246.257C21.8594 245.592 21.9844 245.006 22.2344 244.497C22.4844 243.986 22.8366 243.587 23.2912 243.3C23.7457 243.013 24.2813 242.869 24.8977 242.869C25.3949 242.869 25.8381 242.962 26.2273 243.146C26.6165 243.328 26.9304 243.584 27.169 243.913C27.4105 244.243 27.554 244.628 27.5994 245.068H26.3594C26.2912 244.761 26.1349 244.497 25.8906 244.276C25.6491 244.054 25.3253 243.943 24.919 243.943C24.5639 243.943 24.2528 244.037 23.9858 244.224C23.7216 244.409 23.5156 244.673 23.3679 245.017C23.2202 245.358 23.1463 245.761 23.1463 246.227C23.1463 246.705 23.2188 247.116 23.3636 247.463C23.5085 247.81 23.7131 248.078 23.9773 248.268C24.2443 248.459 24.5582 248.554 24.919 248.554C25.1605 248.554 25.3793 248.51 25.5753 248.422C25.7741 248.331 25.9403 248.202 26.0739 248.034C26.2102 247.866 26.3054 247.665 26.3594 247.429H27.5994C27.554 247.852 27.4162 248.23 27.1861 248.562C26.956 248.895 26.6477 249.156 26.2614 249.347C25.8778 249.537 25.4276 249.632 24.9105 249.632ZM32.0174 242.955V243.977H28.4421V242.955H32.0174ZM29.4009 241.386H30.6751V247.578C30.6751 247.825 30.712 248.011 30.7859 248.136C30.8597 248.259 30.9549 248.342 31.0714 248.388C31.1907 248.43 31.32 248.452 31.4592 248.452C31.5614 248.452 31.6509 248.445 31.7276 248.43C31.8043 248.416 31.864 248.405 31.9066 248.396L32.1367 249.449C32.0629 249.477 31.9577 249.506 31.8214 249.534C31.685 249.565 31.5146 249.582 31.31 249.585C30.9748 249.591 30.6623 249.531 30.3725 249.406C30.0827 249.281 29.8484 249.088 29.6694 248.827C29.4904 248.565 29.4009 248.237 29.4009 247.842V241.386ZM33.4268 249.5V242.955H34.701V249.5H33.4268ZM34.0703 241.945C33.8487 241.945 33.6584 241.871 33.4993 241.723C33.343 241.572 33.2649 241.393 33.2649 241.186C33.2649 240.976 33.343 240.797 33.4993 240.649C33.6584 240.499 33.8487 240.423 34.0703 240.423C34.2919 240.423 34.4808 240.499 34.6371 240.649C34.7962 240.797 34.8757 240.976 34.8757 241.186C34.8757 241.393 34.7962 241.572 34.6371 241.723C34.4808 241.871 34.2919 241.945 34.0703 241.945ZM42.0146 242.955L39.641 249.5H38.2773L35.8995 242.955H37.2674L38.9251 247.991H38.9933L40.6467 242.955H42.0146ZM45.8104 249.632C45.1655 249.632 44.6101 249.494 44.1442 249.219C43.6811 248.94 43.3232 248.55 43.0703 248.047C42.8203 247.541 42.6953 246.949 42.6953 246.27C42.6953 245.599 42.8203 245.009 43.0703 244.497C43.3232 243.986 43.6754 243.587 44.1271 243.3C44.5817 243.013 45.1129 242.869 45.7209 242.869C46.0902 242.869 46.4482 242.93 46.7947 243.053C47.1413 243.175 47.4524 243.366 47.728 243.628C48.0036 243.889 48.2209 244.229 48.38 244.646C48.5391 245.061 48.6186 245.565 48.6186 246.159V246.611H43.4155V245.656H47.37C47.37 245.321 47.3018 245.024 47.1655 244.766C47.0291 244.504 46.8374 244.298 46.5902 244.148C46.3459 243.997 46.0589 243.922 45.7294 243.922C45.3714 243.922 45.0589 244.01 44.7919 244.186C44.5277 244.359 44.3232 244.587 44.1783 244.868C44.0362 245.146 43.9652 245.449 43.9652 245.776V246.521C43.9652 246.959 44.0419 247.331 44.1953 247.638C44.3516 247.945 44.5689 248.179 44.8473 248.341C45.1257 248.5 45.451 248.58 45.8232 248.58C46.0646 248.58 46.2848 248.545 46.4837 248.477C46.6825 248.406 46.8544 248.301 46.9993 248.162C47.1442 248.023 47.255 247.851 47.3317 247.646L48.5376 247.864C48.4411 248.219 48.2678 248.53 48.0178 248.797C47.7706 249.061 47.4595 249.267 47.0845 249.415C46.7124 249.56 46.2876 249.632 45.8104 249.632Z" fill="#E7EBFB"/>
<path d="M11.7841 73.5H8.95881V64.7727H11.8736C12.7287 64.7727 13.4631 64.9474 14.0767 65.2969C14.6903 65.6435 15.1605 66.142 15.4872 66.7926C15.8168 67.4403 15.9815 68.2173 15.9815 69.1236C15.9815 70.0327 15.8153 70.8139 15.483 71.4673C15.1534 72.1207 14.6761 72.6236 14.0511 72.9759C13.4261 73.3253 12.6705 73.5 11.7841 73.5ZM10.2756 72.3494H11.7116C12.3764 72.3494 12.929 72.2244 13.3693 71.9744C13.8097 71.7216 14.1392 71.3565 14.358 70.8793C14.5767 70.3991 14.6861 69.8139 14.6861 69.1236C14.6861 68.4389 14.5767 67.858 14.358 67.3807C14.142 66.9034 13.8196 66.5412 13.3906 66.294C12.9616 66.0469 12.429 65.9233 11.7926 65.9233H10.2756V72.3494ZM20.3377 73.6321C19.6928 73.6321 19.1374 73.4943 18.6715 73.2188C18.2085 72.9403 17.8505 72.5497 17.5977 72.0469C17.3477 71.5412 17.2227 70.9489 17.2227 70.2699C17.2227 69.5994 17.3477 69.0085 17.5977 68.4972C17.8505 67.9858 18.2028 67.5866 18.6545 67.2997C19.109 67.0128 19.6403 66.8693 20.2482 66.8693C20.6175 66.8693 20.9755 66.9304 21.3221 67.0526C21.6687 67.1747 21.9798 67.3665 22.2553 67.6278C22.5309 67.8892 22.7482 68.2287 22.9073 68.6463C23.0664 69.0611 23.146 69.5653 23.146 70.1591V70.6108H17.9428V69.6562H21.8974C21.8974 69.321 21.8292 69.0241 21.6928 68.7656C21.5565 68.5043 21.3647 68.2983 21.1175 68.1477C20.8732 67.9972 20.5863 67.9219 20.2567 67.9219C19.8988 67.9219 19.5863 68.0099 19.3192 68.1861C19.055 68.3594 18.8505 68.5866 18.7056 68.8679C18.5636 69.1463 18.4925 69.4489 18.4925 69.7756V70.5213C18.4925 70.9588 18.5692 71.331 18.7227 71.6378C18.8789 71.9446 19.0962 72.179 19.3746 72.3409C19.6531 72.5 19.9783 72.5795 20.3505 72.5795C20.592 72.5795 20.8121 72.5455 21.011 72.4773C21.2099 72.4062 21.3817 72.3011 21.5266 72.1619C21.6715 72.0227 21.7823 71.8509 21.859 71.6463L23.065 71.8636C22.9684 72.2187 22.7951 72.5298 22.5451 72.7969C22.2979 73.0611 21.9869 73.267 21.6119 73.4148C21.2397 73.5597 20.815 73.6321 20.3377 73.6321ZM27.6747 66.9545V67.9773H23.9759V66.9545H27.6747ZM24.9901 73.5V66.196C24.9901 65.7869 25.0795 65.4474 25.2585 65.1776C25.4375 64.9048 25.6747 64.7017 25.9702 64.5682C26.2656 64.4318 26.5866 64.3636 26.9332 64.3636C27.1889 64.3636 27.4077 64.3849 27.5895 64.4276C27.7713 64.4673 27.9062 64.5043 27.9943 64.5384L27.696 65.5696C27.6364 65.5526 27.5597 65.5327 27.4659 65.5099C27.3722 65.4844 27.2585 65.4716 27.125 65.4716C26.8153 65.4716 26.5938 65.5483 26.4602 65.7017C26.3295 65.8551 26.2642 66.0767 26.2642 66.3665V73.5H24.9901ZM30.695 73.6449C30.2802 73.6449 29.9052 73.5682 29.57 73.4148C29.2347 73.2585 28.9691 73.0327 28.7731 72.7372C28.5799 72.4418 28.4833 72.0795 28.4833 71.6506C28.4833 71.2812 28.5543 70.9773 28.6964 70.7386C28.8384 70.5 29.0302 70.3111 29.2717 70.1719C29.5131 70.0327 29.783 69.9276 30.0813 69.8565C30.3796 69.7855 30.6836 69.7315 30.9933 69.6946C31.3853 69.6491 31.7035 69.6122 31.9478 69.5838C32.1921 69.5526 32.3697 69.5028 32.4805 69.4347C32.5913 69.3665 32.6467 69.2557 32.6467 69.1023V69.0724C32.6467 68.7003 32.5415 68.4119 32.3313 68.2074C32.1239 68.0028 31.8143 67.9006 31.4023 67.9006C30.9734 67.9006 30.6353 67.9957 30.3881 68.1861C30.1438 68.3736 29.9748 68.5824 29.881 68.8125L28.6836 68.5398C28.8256 68.142 29.033 67.821 29.3058 67.5767C29.5813 67.3295 29.8981 67.1506 30.256 67.0398C30.614 66.9261 30.9904 66.8693 31.3853 66.8693C31.6467 66.8693 31.9237 66.9006 32.2163 66.9631C32.5117 67.0227 32.7873 67.1335 33.043 67.2955C33.3015 67.4574 33.5131 67.6889 33.6779 67.9901C33.8427 68.2884 33.9251 68.6761 33.9251 69.1534V73.5H32.6808V72.6051H32.6296C32.5472 72.7699 32.4237 72.9318 32.2589 73.0909C32.0941 73.25 31.8825 73.3821 31.6239 73.4872C31.3654 73.5923 31.0558 73.6449 30.695 73.6449ZM30.9719 72.6222C31.3242 72.6222 31.6254 72.5526 31.8754 72.4134C32.1282 72.2741 32.32 72.0923 32.4506 71.8679C32.5842 71.6406 32.6509 71.3977 32.6509 71.1392V70.2955C32.6055 70.3409 32.5174 70.3835 32.3867 70.4233C32.2589 70.4602 32.1126 70.4929 31.9478 70.5213C31.783 70.5469 31.6225 70.571 31.4663 70.5938C31.31 70.6136 31.1793 70.6307 31.0742 70.6449C30.8271 70.6761 30.6012 70.7287 30.3967 70.8026C30.195 70.8764 30.033 70.983 29.9109 71.1222C29.7915 71.2585 29.7319 71.4403 29.7319 71.6676C29.7319 71.983 29.8484 72.2216 30.0813 72.3835C30.3143 72.5426 30.6112 72.6222 30.9719 72.6222ZM39.7685 70.7855V66.9545H41.0469V73.5H39.794V72.3665H39.7259C39.5753 72.7159 39.3338 73.0071 39.0014 73.2401C38.6719 73.4702 38.2614 73.5852 37.7699 73.5852C37.3494 73.5852 36.9773 73.4929 36.6534 73.3082C36.3324 73.1207 36.0795 72.8438 35.8949 72.4773C35.7131 72.1108 35.6222 71.6577 35.6222 71.1179V66.9545H36.8963V70.9645C36.8963 71.4105 37.0199 71.7656 37.267 72.0298C37.5142 72.294 37.8352 72.4261 38.2301 72.4261C38.4688 72.4261 38.706 72.3665 38.9418 72.2472C39.1804 72.1278 39.3778 71.9474 39.5341 71.706C39.6932 71.4645 39.7713 71.1577 39.7685 70.7855ZM44.033 64.7727V73.5H42.7589V64.7727H44.033ZM48.8026 66.9545V67.9773H45.2273V66.9545H48.8026ZM46.1861 65.3864H47.4602V71.5781C47.4602 71.8253 47.4972 72.0114 47.571 72.1364C47.6449 72.2585 47.7401 72.3423 47.8565 72.3878C47.9759 72.4304 48.1051 72.4517 48.2443 72.4517C48.3466 72.4517 48.4361 72.4446 48.5128 72.4304C48.5895 72.4162 48.6491 72.4048 48.6918 72.3963L48.9219 73.4489C48.848 73.4773 48.7429 73.5057 48.6065 73.5341C48.4702 73.5653 48.2997 73.5824 48.0952 73.5852C47.7599 73.5909 47.4474 73.5312 47.1577 73.4062C46.8679 73.2812 46.6335 73.0881 46.4545 72.8267C46.2756 72.5653 46.1861 72.2372 46.1861 71.8423V65.3864Z" fill="#E7EBFB"/>
<path d="M21.9588 425.5V416.773H27.4304V417.906H23.2756V420.565H27.1449V421.695H23.2756V424.366H27.4815V425.5H21.9588ZM29.087 425.5V418.955H30.3185V419.994H30.3867C30.506 419.642 30.7163 419.365 31.0174 419.163C31.3214 418.959 31.6651 418.857 32.0487 418.857C32.1282 418.857 32.2219 418.859 32.3299 418.865C32.4407 418.871 32.5273 418.878 32.5898 418.886V420.105C32.5387 420.091 32.4478 420.075 32.3171 420.058C32.1864 420.038 32.0558 420.028 31.9251 420.028C31.6239 420.028 31.3555 420.092 31.1197 420.22C30.8867 420.345 30.7021 420.52 30.5657 420.744C30.4293 420.966 30.3612 421.219 30.3612 421.503V425.5H29.087ZM33.6925 425.5V418.955H34.924V419.994H34.9922C35.1115 419.642 35.3217 419.365 35.6229 419.163C35.9268 418.959 36.2706 418.857 36.6541 418.857C36.7337 418.857 36.8274 418.859 36.9354 418.865C37.0462 418.871 37.1328 418.878 37.1953 418.886V420.105C37.1442 420.091 37.0533 420.075 36.9226 420.058C36.7919 420.038 36.6612 420.028 36.5305 420.028C36.2294 420.028 35.9609 420.092 35.7251 420.22C35.4922 420.345 35.3075 420.52 35.1712 420.744C35.0348 420.966 34.9666 421.219 34.9666 421.503V425.5H33.6925ZM40.8207 425.632C40.207 425.632 39.6715 425.491 39.2141 425.21C38.7567 424.929 38.4016 424.536 38.1488 424.03C37.896 423.524 37.7695 422.933 37.7695 422.257C37.7695 421.578 37.896 420.984 38.1488 420.476C38.4016 419.967 38.7567 419.572 39.2141 419.291C39.6715 419.01 40.207 418.869 40.8207 418.869C41.4343 418.869 41.9698 419.01 42.4272 419.291C42.8846 419.572 43.2397 419.967 43.4925 420.476C43.7454 420.984 43.8718 421.578 43.8718 422.257C43.8718 422.933 43.7454 423.524 43.4925 424.03C43.2397 424.536 42.8846 424.929 42.4272 425.21C41.9698 425.491 41.4343 425.632 40.8207 425.632ZM40.8249 424.562C41.2227 424.562 41.5522 424.457 41.8136 424.247C42.0749 424.037 42.2681 423.757 42.3931 423.408C42.521 423.058 42.5849 422.673 42.5849 422.253C42.5849 421.835 42.521 421.452 42.3931 421.102C42.2681 420.75 42.0749 420.467 41.8136 420.254C41.5522 420.041 41.2227 419.935 40.8249 419.935C40.4244 419.935 40.092 420.041 39.8278 420.254C39.5664 420.467 39.3718 420.75 39.244 421.102C39.119 421.452 39.0565 421.835 39.0565 422.253C39.0565 422.673 39.119 423.058 39.244 423.408C39.3718 423.757 39.5664 424.037 39.8278 424.247C40.092 424.457 40.4244 424.562 40.8249 424.562ZM45.294 425.5V418.955H46.5256V419.994H46.5938C46.7131 419.642 46.9233 419.365 47.2244 419.163C47.5284 418.959 47.8722 418.857 48.2557 418.857C48.3352 418.857 48.429 418.859 48.5369 418.865C48.6477 418.871 48.7344 418.878 48.7969 418.886V420.105C48.7457 420.091 48.6548 420.075 48.5241 420.058C48.3935 420.038 48.2628 420.028 48.1321 420.028C47.831 420.028 47.5625 420.092 47.3267 420.22C47.0938 420.345 46.9091 420.52 46.7727 420.744C46.6364 420.966 46.5682 421.219 46.5682 421.503V425.5H45.294Z" fill="#E7EBFB"/>
<path d="M15.9588 161.5V152.773H21.3707V153.906H17.2756V156.565H20.983V157.695H17.2756V161.5H15.9588ZM25.1644 161.632C24.5508 161.632 24.0153 161.491 23.5579 161.21C23.1005 160.929 22.7454 160.536 22.4925 160.03C22.2397 159.524 22.1133 158.933 22.1133 158.257C22.1133 157.578 22.2397 156.984 22.4925 156.476C22.7454 155.967 23.1005 155.572 23.5579 155.291C24.0153 155.01 24.5508 154.869 25.1644 154.869C25.7781 154.869 26.3136 155.01 26.771 155.291C27.2283 155.572 27.5835 155.967 27.8363 156.476C28.0891 156.984 28.2156 157.578 28.2156 158.257C28.2156 158.933 28.0891 159.524 27.8363 160.03C27.5835 160.536 27.2283 160.929 26.771 161.21C26.3136 161.491 25.7781 161.632 25.1644 161.632ZM25.1687 160.562C25.5664 160.562 25.896 160.457 26.1573 160.247C26.4187 160.037 26.6119 159.757 26.7369 159.408C26.8647 159.058 26.9286 158.673 26.9286 158.253C26.9286 157.835 26.8647 157.452 26.7369 157.102C26.6119 156.75 26.4187 156.467 26.1573 156.254C25.896 156.041 25.5664 155.935 25.1687 155.935C24.7681 155.935 24.4357 156.041 24.1715 156.254C23.9102 156.467 23.7156 156.75 23.5877 157.102C23.4627 157.452 23.4002 157.835 23.4002 158.253C23.4002 158.673 23.4627 159.058 23.5877 159.408C23.7156 159.757 23.9102 160.037 24.1715 160.247C24.4357 160.457 24.7681 160.562 25.1687 160.562ZM32.3949 161.632C31.7614 161.632 31.2159 161.489 30.7585 161.202C30.304 160.912 29.9545 160.513 29.7102 160.004C29.4659 159.496 29.3438 158.913 29.3438 158.257C29.3438 157.592 29.4688 157.006 29.7188 156.497C29.9688 155.986 30.321 155.587 30.7756 155.3C31.2301 155.013 31.7656 154.869 32.3821 154.869C32.8793 154.869 33.3224 154.962 33.7116 155.146C34.1009 155.328 34.4148 155.584 34.6534 155.913C34.8949 156.243 35.0384 156.628 35.0838 157.068H33.8438C33.7756 156.761 33.6193 156.497 33.375 156.276C33.1335 156.054 32.8097 155.943 32.4034 155.943C32.0483 155.943 31.7372 156.037 31.4702 156.224C31.206 156.409 31 156.673 30.8523 157.017C30.7045 157.358 30.6307 157.761 30.6307 158.227C30.6307 158.705 30.7031 159.116 30.848 159.463C30.9929 159.81 31.1974 160.078 31.4616 160.268C31.7287 160.459 32.0426 160.554 32.4034 160.554C32.6449 160.554 32.8636 160.51 33.0597 160.422C33.2585 160.331 33.4247 160.202 33.5582 160.034C33.6946 159.866 33.7898 159.665 33.8438 159.429H35.0838C35.0384 159.852 34.9006 160.23 34.6705 160.562C34.4403 160.895 34.1321 161.156 33.7457 161.347C33.3622 161.537 32.9119 161.632 32.3949 161.632ZM40.5927 158.786V154.955H41.8711V161.5H40.6183V160.366H40.5501C40.3995 160.716 40.158 161.007 39.8256 161.24C39.4961 161.47 39.0856 161.585 38.5941 161.585C38.1737 161.585 37.8015 161.493 37.4776 161.308C37.1566 161.121 36.9038 160.844 36.7191 160.477C36.5373 160.111 36.4464 159.658 36.4464 159.118V154.955H37.7205V158.964C37.7205 159.411 37.8441 159.766 38.0913 160.03C38.3384 160.294 38.6594 160.426 39.0543 160.426C39.293 160.426 39.5302 160.366 39.766 160.247C40.0046 160.128 40.2021 159.947 40.3583 159.706C40.5174 159.464 40.5955 159.158 40.5927 158.786ZM48.4879 156.553L47.3331 156.757C47.2848 156.609 47.2081 156.469 47.103 156.335C47.0007 156.202 46.8615 156.092 46.6854 156.007C46.5092 155.922 46.2891 155.879 46.0249 155.879C45.6641 155.879 45.3629 155.96 45.1214 156.122C44.88 156.281 44.7592 156.487 44.7592 156.74C44.7592 156.959 44.8402 157.135 45.0021 157.268C45.1641 157.402 45.4254 157.511 45.7862 157.597L46.826 157.835C47.4283 157.974 47.8771 158.189 48.1726 158.479C48.468 158.768 48.6158 159.145 48.6158 159.608C48.6158 160 48.5021 160.349 48.2749 160.656C48.0504 160.96 47.7365 161.199 47.3331 161.372C46.9325 161.545 46.468 161.632 45.9396 161.632C45.2067 161.632 44.6087 161.476 44.1456 161.163C43.6825 160.848 43.3984 160.401 43.2933 159.821L44.5249 159.634C44.6016 159.955 44.7592 160.197 44.9979 160.362C45.2365 160.524 45.5476 160.605 45.9311 160.605C46.3487 160.605 46.6825 160.518 46.9325 160.345C47.1825 160.169 47.3075 159.955 47.3075 159.702C47.3075 159.497 47.2308 159.325 47.0774 159.186C46.9268 159.047 46.6953 158.942 46.3828 158.871L45.2749 158.628C44.6641 158.489 44.2124 158.267 43.9197 157.963C43.63 157.659 43.4851 157.274 43.4851 156.808C43.4851 156.422 43.593 156.084 43.8089 155.794C44.0249 155.504 44.3232 155.278 44.7038 155.116C45.0845 154.952 45.5206 154.869 46.0121 154.869C46.7195 154.869 47.2763 155.023 47.6825 155.33C48.0888 155.634 48.3572 156.041 48.4879 156.553Z" fill="#E7EBFB"/>
<path d="M27.2756 328.773V337.5H25.9588V328.773H27.2756ZM31.848 337.632C31.2145 337.632 30.669 337.489 30.2116 337.202C29.7571 336.912 29.4077 336.513 29.1634 336.004C28.919 335.496 28.7969 334.913 28.7969 334.257C28.7969 333.592 28.9219 333.006 29.1719 332.497C29.4219 331.986 29.7741 331.587 30.2287 331.3C30.6832 331.013 31.2188 330.869 31.8352 330.869C32.3324 330.869 32.7756 330.962 33.1648 331.146C33.554 331.328 33.8679 331.584 34.1065 331.913C34.348 332.243 34.4915 332.628 34.5369 333.068H33.2969C33.2287 332.761 33.0724 332.497 32.8281 332.276C32.5866 332.054 32.2628 331.943 31.8565 331.943C31.5014 331.943 31.1903 332.037 30.9233 332.224C30.6591 332.409 30.4531 332.673 30.3054 333.017C30.1577 333.358 30.0838 333.761 30.0838 334.227C30.0838 334.705 30.1563 335.116 30.3011 335.463C30.446 335.81 30.6506 336.078 30.9148 336.268C31.1818 336.459 31.4957 336.554 31.8565 336.554C32.098 336.554 32.3168 336.51 32.5128 336.422C32.7116 336.331 32.8778 336.202 33.0114 336.034C33.1477 335.866 33.2429 335.665 33.2969 335.429H34.5369C34.4915 335.852 34.3537 336.23 34.1236 336.562C33.8935 336.895 33.5852 337.156 33.1989 337.347C32.8153 337.537 32.3651 337.632 31.848 337.632ZM38.6566 337.632C38.043 337.632 37.5075 337.491 37.0501 337.21C36.5927 336.929 36.2376 336.536 35.9847 336.03C35.7319 335.524 35.6055 334.933 35.6055 334.257C35.6055 333.578 35.7319 332.984 35.9847 332.476C36.2376 331.967 36.5927 331.572 37.0501 331.291C37.5075 331.01 38.043 330.869 38.6566 330.869C39.2702 330.869 39.8058 331.01 40.2631 331.291C40.7205 331.572 41.0756 331.967 41.3285 332.476C41.5813 332.984 41.7077 333.578 41.7077 334.257C41.7077 334.933 41.5813 335.524 41.3285 336.03C41.0756 336.536 40.7205 336.929 40.2631 337.21C39.8058 337.491 39.2702 337.632 38.6566 337.632ZM38.6609 336.562C39.0586 336.562 39.3881 336.457 39.6495 336.247C39.9109 336.037 40.104 335.757 40.229 335.408C40.3569 335.058 40.4208 334.673 40.4208 334.253C40.4208 333.835 40.3569 333.452 40.229 333.102C40.104 332.75 39.9109 332.467 39.6495 332.254C39.3881 332.041 39.0586 331.935 38.6609 331.935C38.2603 331.935 37.9279 332.041 37.6637 332.254C37.4023 332.467 37.2077 332.75 37.0799 333.102C36.9549 333.452 36.8924 333.835 36.8924 334.253C36.8924 334.673 36.9549 335.058 37.0799 335.408C37.2077 335.757 37.4023 336.037 37.6637 336.247C37.9279 336.457 38.2603 336.562 38.6609 336.562ZM44.4041 333.614V337.5H43.13V330.955H44.353V332.02H44.4339C44.5845 331.673 44.8203 331.395 45.1413 331.185C45.4652 330.974 45.8729 330.869 46.3643 330.869C46.8104 330.869 47.201 330.963 47.5362 331.151C47.8714 331.335 48.1314 331.611 48.3161 331.977C48.5007 332.344 48.593 332.797 48.593 333.337V337.5H47.3189V333.49C47.3189 333.016 47.1953 332.645 46.9482 332.378C46.701 332.108 46.3615 331.973 45.9297 331.973C45.6342 331.973 45.3714 332.037 45.1413 332.165C44.9141 332.293 44.7337 332.48 44.6001 332.727C44.4695 332.972 44.4041 333.267 44.4041 333.614Z" fill="#E7EBFB"/>
<path d="M151.334 3.27273V12H150.017V3.27273H151.334ZM154.423 8.11364V12H153.149V5.45455H154.372V6.51989H154.453C154.604 6.1733 154.839 5.89489 155.16 5.68466C155.484 5.47443 155.892 5.36932 156.383 5.36932C156.829 5.36932 157.22 5.46307 157.555 5.65057C157.89 5.83523 158.15 6.1108 158.335 6.47727C158.52 6.84375 158.612 7.29687 158.612 7.83665V12H157.338V7.99006C157.338 7.51562 157.214 7.14489 156.967 6.87784C156.72 6.60795 156.381 6.47301 155.949 6.47301C155.653 6.47301 155.39 6.53693 155.16 6.66477C154.933 6.79261 154.753 6.98011 154.619 7.22727C154.489 7.47159 154.423 7.76705 154.423 8.11364ZM160.321 14.4545V5.45455H161.565V6.51562H161.672C161.746 6.37926 161.852 6.22159 161.991 6.04261C162.131 5.86364 162.324 5.70739 162.571 5.57386C162.818 5.4375 163.145 5.36932 163.551 5.36932C164.079 5.36932 164.551 5.50284 164.966 5.76989C165.381 6.03693 165.706 6.42187 165.942 6.92472C166.18 7.42756 166.3 8.03267 166.3 8.74006C166.3 9.44744 166.182 10.054 165.946 10.5597C165.71 11.0625 165.386 11.4503 164.974 11.723C164.562 11.9929 164.092 12.1278 163.564 12.1278C163.166 12.1278 162.841 12.0611 162.588 11.9276C162.338 11.794 162.142 11.6378 162 11.4588C161.858 11.2798 161.748 11.1207 161.672 10.9815H161.595V14.4545H160.321ZM161.569 8.72727C161.569 9.1875 161.636 9.59091 161.77 9.9375C161.903 10.2841 162.096 10.5554 162.349 10.7514C162.602 10.9446 162.912 11.0412 163.278 11.0412C163.659 11.0412 163.977 10.9403 164.233 10.7386C164.489 10.5341 164.682 10.2571 164.812 9.90767C164.946 9.55824 165.013 9.16477 165.013 8.72727C165.013 8.29545 164.947 7.90767 164.817 7.56392C164.689 7.22017 164.496 6.94886 164.237 6.75C163.981 6.55114 163.662 6.4517 163.278 6.4517C162.909 6.4517 162.596 6.54687 162.341 6.73722C162.088 6.92756 161.896 7.19318 161.765 7.53409C161.635 7.875 161.569 8.27273 161.569 8.72727ZM171.873 9.28551V5.45455H173.152V12H171.899V10.8665H171.831C171.68 11.2159 171.439 11.5071 171.106 11.7401C170.777 11.9702 170.366 12.0852 169.875 12.0852C169.454 12.0852 169.082 11.9929 168.758 11.8082C168.437 11.6207 168.185 11.3438 168 10.9773C167.818 10.6108 167.727 10.1577 167.727 9.6179V5.45455H169.001V9.46449C169.001 9.91051 169.125 10.2656 169.372 10.5298C169.619 10.794 169.94 10.9261 170.335 10.9261C170.574 10.9261 170.811 10.8665 171.047 10.7472C171.285 10.6278 171.483 10.4474 171.639 10.206C171.798 9.96449 171.876 9.65767 171.873 9.28551ZM177.919 5.45455V6.47727H174.344V5.45455H177.919ZM175.303 3.88636H176.577V10.0781C176.577 10.3253 176.614 10.5114 176.688 10.6364C176.762 10.7585 176.857 10.8423 176.973 10.8878C177.093 10.9304 177.222 10.9517 177.361 10.9517C177.463 10.9517 177.553 10.9446 177.629 10.9304C177.706 10.9162 177.766 10.9048 177.808 10.8963L178.039 11.9489C177.965 11.9773 177.86 12.0057 177.723 12.0341C177.587 12.0653 177.416 12.0824 177.212 12.0852C176.877 12.0909 176.564 12.0312 176.274 11.9062C175.985 11.7812 175.75 11.5881 175.571 11.3267C175.392 11.0653 175.303 10.7372 175.303 10.3423V3.88636Z" fill="#E7EBFB"/>
<path d="M366.9 12H364.075V3.27273H366.99C367.845 3.27273 368.579 3.44744 369.193 3.79688C369.807 4.14347 370.277 4.64205 370.603 5.29261C370.933 5.94034 371.098 6.71733 371.098 7.62358C371.098 8.53267 370.932 9.31392 370.599 9.96733C370.27 10.6207 369.792 11.1236 369.167 11.4759C368.542 11.8253 367.787 12 366.9 12ZM365.392 10.8494H366.828C367.493 10.8494 368.045 10.7244 368.486 10.4744C368.926 10.2216 369.255 9.85653 369.474 9.37926C369.693 8.89915 369.802 8.31392 369.802 7.62358C369.802 6.93892 369.693 6.35795 369.474 5.88068C369.258 5.40341 368.936 5.04119 368.507 4.79403C368.078 4.54687 367.545 4.4233 366.909 4.4233H365.392V10.8494ZM375.56 12H372.735V3.27273H375.65C376.505 3.27273 377.239 3.44744 377.853 3.79688C378.467 4.14347 378.937 4.64205 379.264 5.29261C379.593 5.94034 379.758 6.71733 379.758 7.62358C379.758 8.53267 379.592 9.31392 379.259 9.96733C378.93 10.6207 378.453 11.1236 377.828 11.4759C377.203 11.8253 376.447 12 375.56 12ZM374.052 10.8494H375.488C376.153 10.8494 376.705 10.7244 377.146 10.4744C377.586 10.2216 377.916 9.85653 378.134 9.37926C378.353 8.89915 378.462 8.31392 378.462 7.62358C378.462 6.93892 378.353 6.35795 378.134 5.88068C377.918 5.40341 377.596 5.04119 377.167 4.79403C376.738 4.54687 376.205 4.4233 375.569 4.4233H374.052V10.8494Z" fill="#E7EBFB"/>
<path d="M85.5781 81V69.752H86.8261V79.848H91.5461V81H85.5781ZM92.2472 76.856C92.2472 74.056 94.0392 72.472 96.3112 72.472C97.7192 72.472 98.8072 73.144 99.5112 74.312V72.648H100.711V81H99.5112V79.24C98.7912 80.504 97.7352 81.16 96.3112 81.16C94.0392 81.16 92.2472 79.624 92.2472 76.856ZM96.3272 80.056C98.0712 80.056 99.1752 78.664 99.5112 76.824C99.2392 75.032 97.9272 73.576 96.3272 73.576C94.7112 73.576 93.5112 74.584 93.5112 76.84C93.5112 78.888 94.7112 80.056 96.3272 80.056ZM111.834 76.856C111.834 79.624 110.042 81.16 107.786 81.16C106.346 81.16 105.29 80.504 104.57 79.24V81H103.37V69.752H104.57V74.472C105.322 73.224 106.426 72.472 107.786 72.472C110.01 72.472 111.834 73.928 111.834 76.856ZM104.57 76.824C104.89 78.664 106.01 80.056 107.754 80.056C109.37 80.056 110.57 78.888 110.57 76.84C110.57 74.584 109.37 73.576 107.754 73.576C106.138 73.576 104.842 75.032 104.57 76.824ZM120.542 79.32L120.814 80.296C120.094 80.808 118.798 81.16 117.614 81.16C114.974 81.16 113.31 79.624 113.31 76.92C113.31 74.056 115.182 72.472 117.374 72.472C119.502 72.472 121.23 73.912 121.23 76.824C121.23 76.968 121.214 77.16 121.198 77.272H114.59C114.702 79.144 115.79 80.056 117.678 80.056C118.638 80.056 119.502 79.928 120.542 79.32ZM117.342 73.576C115.886 73.576 114.814 74.456 114.606 76.248H119.95C119.79 74.424 118.766 73.576 117.342 73.576ZM123.23 81V69.752H124.43V81H123.23Z" fill="#4C5257"/>
<path d="M84.0581 88H244.058" stroke="#4C5257" stroke-linecap="round"/>
<path d="M85.1981 148V139.564H86.1341V147.136H89.6741V148H85.1981ZM90.1999 144.892C90.1999 142.792 91.5439 141.604 93.2479 141.604C94.3039 141.604 95.1199 142.108 95.6479 142.984V141.736H96.5479V148H95.6479V146.68C95.1079 147.628 94.3159 148.12 93.2479 148.12C91.5439 148.12 90.1999 146.968 90.1999 144.892ZM93.2599 147.292C94.5679 147.292 95.3959 146.248 95.6479 144.868C95.4439 143.524 94.4599 142.432 93.2599 142.432C92.0479 142.432 91.1479 143.188 91.1479 144.88C91.1479 146.416 92.0479 147.292 93.2599 147.292ZM104.89 144.892C104.89 146.968 103.546 148.12 101.854 148.12C100.774 148.12 99.9824 147.628 99.4424 146.68V148H98.5424V139.564H99.4424V143.104C100.006 142.168 100.834 141.604 101.854 141.604C103.522 141.604 104.89 142.696 104.89 144.892ZM99.4424 144.868C99.6824 146.248 100.522 147.292 101.83 147.292C103.042 147.292 103.942 146.416 103.942 144.88C103.942 143.188 103.042 142.432 101.83 142.432C100.618 142.432 99.6464 143.524 99.4424 144.868ZM106.441 148V139.564H107.341V148H106.441ZM114.315 146.74L114.519 147.472C113.979 147.856 113.007 148.12 112.119 148.12C110.139 148.12 108.891 146.968 108.891 144.94C108.891 142.792 110.295 141.604 111.939 141.604C113.535 141.604 114.831 142.684 114.831 144.868C114.831 144.976 114.819 145.12 114.807 145.204H109.851C109.935 146.608 110.751 147.292 112.167 147.292C112.887 147.292 113.535 147.196 114.315 146.74ZM111.915 142.432C110.823 142.432 110.019 143.092 109.863 144.436H113.871C113.751 143.068 112.983 142.432 111.915 142.432Z" fill="#4C5257"/>
<path d="M87.9781 169V158.904H84.2821V157.752H92.9381V158.904H89.2261V169H87.9781ZM99.5886 167.32L99.8606 168.296C99.1406 168.808 97.8446 169.16 96.6606 169.16C94.0206 169.16 92.3566 167.624 92.3566 164.92C92.3566 162.056 94.2286 160.472 96.4206 160.472C98.5486 160.472 100.277 161.912 100.277 164.824C100.277 164.968 100.261 165.16 100.245 165.272H93.6366C93.7486 167.144 94.8366 168.056 96.7246 168.056C97.6846 168.056 98.5486 167.928 99.5886 167.32ZM96.3886 161.576C94.9326 161.576 93.8606 162.456 93.6526 164.248H98.9966C98.8366 162.424 97.8126 161.576 96.3886 161.576ZM108.489 160.648L105.385 164.824L108.441 169H106.905L104.713 165.768L102.409 169H101.017L104.057 164.84L101.017 160.648H102.505L104.745 163.896L106.985 160.648H108.489ZM110.49 166.216V161.672H108.97V160.648H110.49V158.12H111.69V160.648H114.794V161.672H111.69V166.024C111.69 167.576 112.362 168.072 113.274 168.072C113.802 168.072 114.442 167.928 114.97 167.624L115.274 168.6C114.602 168.952 113.962 169.16 113.034 169.16C111.626 169.16 110.49 168.328 110.49 166.216ZM118.012 170.856H116.812V157.752H118.012V170.856Z" fill="#2A2C32"/>
<path d="M84.0581 176H244.058" stroke="#193291" stroke-width="1.5" stroke-linecap="round"/>
<path d="M85.1981 236V227.564H86.1341V235.136H89.6741V236H85.1981ZM90.1999 232.892C90.1999 230.792 91.5439 229.604 93.2479 229.604C94.3039 229.604 95.1199 230.108 95.6479 230.984V229.736H96.5479V236H95.6479V234.68C95.1079 235.628 94.3159 236.12 93.2479 236.12C91.5439 236.12 90.1999 234.968 90.1999 232.892ZM93.2599 235.292C94.5679 235.292 95.3959 234.248 95.6479 232.868C95.4439 231.524 94.4599 230.432 93.2599 230.432C92.0479 230.432 91.1479 231.188 91.1479 232.88C91.1479 234.416 92.0479 235.292 93.2599 235.292ZM104.89 232.892C104.89 234.968 103.546 236.12 101.854 236.12C100.774 236.12 99.9824 235.628 99.4424 234.68V236H98.5424V227.564H99.4424V231.104C100.006 230.168 100.834 229.604 101.854 229.604C103.522 229.604 104.89 230.696 104.89 232.892ZM99.4424 232.868C99.6824 234.248 100.522 235.292 101.83 235.292C103.042 235.292 103.942 234.416 103.942 232.88C103.942 231.188 103.042 230.432 101.83 230.432C100.618 230.432 99.6464 231.524 99.4424 232.868ZM106.441 236V227.564H107.341V236H106.441ZM114.315 234.74L114.519 235.472C113.979 235.856 113.007 236.12 112.119 236.12C110.139 236.12 108.891 234.968 108.891 232.94C108.891 230.792 110.295 229.604 111.939 229.604C113.535 229.604 114.831 230.684 114.831 232.868C114.831 232.976 114.819 233.12 114.807 233.204H109.851C109.935 234.608 110.751 235.292 112.167 235.292C112.887 235.292 113.535 235.196 114.315 234.74ZM111.915 230.432C110.823 230.432 110.019 231.092 109.863 232.436H113.871C113.751 231.068 112.983 230.432 111.915 230.432Z" fill="#4C5257"/>
<path d="M87.9781 257V246.904H84.2821V245.752H92.9381V246.904H89.2261V257H87.9781ZM99.5886 255.32L99.8606 256.296C99.1406 256.808 97.8446 257.16 96.6606 257.16C94.0206 257.16 92.3566 255.624 92.3566 252.92C92.3566 250.056 94.2286 248.472 96.4206 248.472C98.5486 248.472 100.277 249.912 100.277 252.824C100.277 252.968 100.261 253.16 100.245 253.272H93.6366C93.7486 255.144 94.8366 256.056 96.7246 256.056C97.6846 256.056 98.5486 255.928 99.5886 255.32ZM96.3886 249.576C94.9326 249.576 93.8606 250.456 93.6526 252.248H98.9966C98.8366 250.424 97.8126 249.576 96.3886 249.576ZM108.489 248.648L105.385 252.824L108.441 257H106.905L104.713 253.768L102.409 257H101.017L104.057 252.84L101.017 248.648H102.505L104.745 251.896L106.985 248.648H108.489ZM110.49 254.216V249.672H108.97V248.648H110.49V246.12H111.69V248.648H114.794V249.672H111.69V254.024C111.69 255.576 112.362 256.072 113.274 256.072C113.802 256.072 114.442 255.928 114.97 255.624L115.274 256.6C114.602 256.952 113.962 257.16 113.034 257.16C111.626 257.16 110.49 256.328 110.49 254.216Z" fill="#2A2C32"/>
<path d="M84.0581 264H244.058" stroke="#4C5257" stroke-linecap="round"/>
<path d="M85.1981 324V315.564H86.1341V323.136H89.6741V324H85.1981ZM90.1999 320.892C90.1999 318.792 91.5439 317.604 93.2479 317.604C94.3039 317.604 95.1199 318.108 95.6479 318.984V317.736H96.5479V324H95.6479V322.68C95.1079 323.628 94.3159 324.12 93.2479 324.12C91.5439 324.12 90.1999 322.968 90.1999 320.892ZM93.2599 323.292C94.5679 323.292 95.3959 322.248 95.6479 320.868C95.4439 319.524 94.4599 318.432 93.2599 318.432C92.0479 318.432 91.1479 319.188 91.1479 320.88C91.1479 322.416 92.0479 323.292 93.2599 323.292ZM104.89 320.892C104.89 322.968 103.546 324.12 101.854 324.12C100.774 324.12 99.9824 323.628 99.4424 322.68V324H98.5424V315.564H99.4424V319.104C100.006 318.168 100.834 317.604 101.854 317.604C103.522 317.604 104.89 318.696 104.89 320.892ZM99.4424 320.868C99.6824 322.248 100.522 323.292 101.83 323.292C103.042 323.292 103.942 322.416 103.942 320.88C103.942 319.188 103.042 318.432 101.83 318.432C100.618 318.432 99.6464 319.524 99.4424 320.868ZM106.441 324V315.564H107.341V324H106.441ZM114.315 322.74L114.519 323.472C113.979 323.856 113.007 324.12 112.119 324.12C110.139 324.12 108.891 322.968 108.891 320.94C108.891 318.792 110.295 317.604 111.939 317.604C113.535 317.604 114.831 318.684 114.831 320.868C114.831 320.976 114.819 321.12 114.807 321.204H109.851C109.935 322.608 110.751 323.292 112.167 323.292C112.887 323.292 113.535 323.196 114.315 322.74ZM111.915 318.432C110.823 318.432 110.019 319.092 109.863 320.436H113.871C113.751 319.068 112.983 318.432 111.915 318.432Z" fill="#4C5257"/>
<path d="M87.9781 345V334.904H84.2821V333.752H92.9381V334.904H89.2261V345H87.9781ZM99.5886 343.32L99.8606 344.296C99.1406 344.808 97.8446 345.16 96.6606 345.16C94.0206 345.16 92.3566 343.624 92.3566 340.92C92.3566 338.056 94.2286 336.472 96.4206 336.472C98.5486 336.472 100.277 337.912 100.277 340.824C100.277 340.968 100.261 341.16 100.245 341.272H93.6366C93.7486 343.144 94.8366 344.056 96.7246 344.056C97.6846 344.056 98.5486 343.928 99.5886 343.32ZM96.3886 337.576C94.9326 337.576 93.8606 338.456 93.6526 340.248H98.9966C98.8366 338.424 97.8126 337.576 96.3886 337.576ZM108.489 336.648L105.385 340.824L108.441 345H106.905L104.713 341.768L102.409 345H101.017L104.057 340.84L101.017 336.648H102.505L104.745 339.896L106.985 336.648H108.489ZM110.49 342.216V337.672H108.97V336.648H110.49V334.12H111.69V336.648H114.794V337.672H111.69V342.024C111.69 343.576 112.362 344.072 113.274 344.072C113.802 344.072 114.442 343.928 114.97 343.624L115.274 344.6C114.602 344.952 113.962 345.16 113.034 345.16C111.626 345.16 110.49 344.328 110.49 342.216Z" fill="#2A2C32"/>
<mask id="mask0_7_5300" style="mask-type:alpha" maskUnits="userSpaceOnUse" x="220" y="327" width="25" height="24">
<rect x="220.058" y="327" width="24" height="24" fill="#D9D9D9"/>
</mask>
<g mask="url(#mask0_7_5300)">
<path d="M232.769 338.712V334.974C232.769 334.772 232.7 334.604 232.564 334.467C232.428 334.331 232.259 334.263 232.058 334.263C231.856 334.263 231.688 334.331 231.552 334.467C231.416 334.604 231.348 334.772 231.348 334.974V338.931C231.348 339.042 231.368 339.15 231.41 339.255C231.451 339.359 231.516 339.456 231.604 339.545L234.849 342.789C234.98 342.921 235.145 342.988 235.344 342.991C235.542 342.994 235.71 342.927 235.848 342.789C235.985 342.652 236.053 342.486 236.053 342.29C236.053 342.095 235.985 341.928 235.848 341.791L232.769 338.712ZM232.06 348C230.815 348 229.645 347.764 228.55 347.291C227.454 346.819 226.502 346.178 225.691 345.368C224.881 344.558 224.24 343.606 223.767 342.511C223.294 341.416 223.058 340.246 223.058 339.002C223.058 337.757 223.294 336.587 223.767 335.491C224.239 334.396 224.88 333.443 225.69 332.633C226.5 331.823 227.452 331.182 228.547 330.709C229.642 330.236 230.812 330 232.057 330C233.301 330 234.471 330.236 235.567 330.709C236.662 331.181 237.615 331.822 238.425 332.632C239.235 333.442 239.877 334.394 240.349 335.489C240.822 336.584 241.058 337.754 241.058 338.998C241.058 340.243 240.822 341.413 240.349 342.509C239.877 343.604 239.236 344.557 238.426 345.367C237.616 346.177 236.664 346.818 235.569 347.291C234.474 347.764 233.304 348 232.06 348ZM232.058 346.579C234.158 346.579 235.946 345.841 237.423 344.364C238.899 342.888 239.637 341.1 239.637 339C239.637 336.9 238.899 335.112 237.423 333.636C235.946 332.159 234.158 331.421 232.058 331.421C229.958 331.421 228.17 332.159 226.694 333.636C225.217 335.112 224.479 336.9 224.479 339C224.479 341.1 225.217 342.888 226.694 344.364C228.17 345.841 229.958 346.579 232.058 346.579Z" fill="#193291"/>
</g>
<path d="M84.0581 352H244.058" stroke="#4C5257" stroke-linecap="round"/>
<path d="M85.1981 412V403.564H86.1341V411.136H89.6741V412H85.1981ZM90.1999 408.892C90.1999 406.792 91.5439 405.604 93.2479 405.604C94.3039 405.604 95.1199 406.108 95.6479 406.984V405.736H96.5479V412H95.6479V410.68C95.1079 411.628 94.3159 412.12 93.2479 412.12C91.5439 412.12 90.1999 410.968 90.1999 408.892ZM93.2599 411.292C94.5679 411.292 95.3959 410.248 95.6479 408.868C95.4439 407.524 94.4599 406.432 93.2599 406.432C92.0479 406.432 91.1479 407.188 91.1479 408.88C91.1479 410.416 92.0479 411.292 93.2599 411.292ZM104.89 408.892C104.89 410.968 103.546 412.12 101.854 412.12C100.774 412.12 99.9824 411.628 99.4424 410.68V412H98.5424V403.564H99.4424V407.104C100.006 406.168 100.834 405.604 101.854 405.604C103.522 405.604 104.89 406.696 104.89 408.892ZM99.4424 408.868C99.6824 410.248 100.522 411.292 101.83 411.292C103.042 411.292 103.942 410.416 103.942 408.88C103.942 407.188 103.042 406.432 101.83 406.432C100.618 406.432 99.6464 407.524 99.4424 408.868ZM106.441 412V403.564H107.341V412H106.441ZM114.315 410.74L114.519 411.472C113.979 411.856 113.007 412.12 112.119 412.12C110.139 412.12 108.891 410.968 108.891 408.94C108.891 406.792 110.295 405.604 111.939 405.604C113.535 405.604 114.831 406.684 114.831 408.868C114.831 408.976 114.819 409.12 114.807 409.204H109.851C109.935 410.608 110.751 411.292 112.167 411.292C112.887 411.292 113.535 411.196 114.315 410.74ZM111.915 406.432C110.823 406.432 110.019 407.092 109.863 408.436H113.871C113.751 407.068 112.983 406.432 111.915 406.432Z" fill="#4C5257"/>
<path d="M87.9781 433V422.904H84.2821V421.752H92.9381V422.904H89.2261V433H87.9781ZM99.5886 431.32L99.8606 432.296C99.1406 432.808 97.8446 433.16 96.6606 433.16C94.0206 433.16 92.3566 431.624 92.3566 428.92C92.3566 426.056 94.2286 424.472 96.4206 424.472C98.5486 424.472 100.277 425.912 100.277 428.824C100.277 428.968 100.261 429.16 100.245 429.272H93.6366C93.7486 431.144 94.8366 432.056 96.7246 432.056C97.6846 432.056 98.5486 431.928 99.5886 431.32ZM96.3886 425.576C94.9326 425.576 93.8606 426.456 93.6526 428.248H98.9966C98.8366 426.424 97.8126 425.576 96.3886 425.576ZM108.489 424.648L105.385 428.824L108.441 433H106.905L104.713 429.768L102.409 433H101.017L104.057 428.84L101.017 424.648H102.505L104.745 427.896L106.985 424.648H108.489ZM110.49 430.216V425.672H108.97V424.648H110.49V422.12H111.69V424.648H114.794V425.672H111.69V430.024C111.69 431.576 112.362 432.072 113.274 432.072C113.802 432.072 114.442 431.928 114.97 431.624L115.274 432.6C114.602 432.952 113.962 433.16 113.034 433.16C111.626 433.16 110.49 432.328 110.49 430.216Z" fill="#2A2C32"/>
<path d="M232.058 427.827L228.062 431.823C227.957 431.928 227.823 431.983 227.659 431.99C227.495 431.997 227.353 431.941 227.235 431.823C227.117 431.705 227.058 431.567 227.058 431.409C227.058 431.252 227.117 431.114 227.235 430.996L231.231 427L227.235 423.004C227.13 422.899 227.075 422.764 227.068 422.6C227.062 422.436 227.117 422.295 227.235 422.177C227.353 422.059 227.491 422 227.649 422C227.806 422 227.944 422.059 228.062 422.177L232.058 426.173L236.054 422.177C236.159 422.072 236.294 422.016 236.458 422.009C236.622 422.003 236.763 422.059 236.881 422.177C236.999 422.295 237.058 422.433 237.058 422.591C237.058 422.748 236.999 422.886 236.881 423.004L232.885 427L236.881 430.996C236.986 431.101 237.042 431.235 237.048 431.399C237.055 431.564 236.999 431.705 236.881 431.823C236.763 431.941 236.625 432 236.468 432C236.31 432 236.172 431.941 236.054 431.823L232.058 427.827Z" fill="#1B358F"/>
<path d="M84.0581 440H244.058" stroke="#EF4F4D" stroke-width="1.5" stroke-linecap="round"/>
<path d="M85.1981 453V444.564H89.8061V445.428H86.1341V448.332H89.2781V449.196H86.1341V452.136H89.8061V453H85.1981ZM91.3354 453V446.736H92.2354V448.2C92.7274 447.336 93.4354 446.616 94.3834 446.616C94.5874 446.616 94.8034 446.652 95.0194 446.736L94.8274 447.528C94.6594 447.468 94.4914 447.432 94.3354 447.432C93.4234 447.432 92.6794 448.332 92.2354 449.544V453H91.3354ZM96.1283 453V446.736H97.0283V448.2C97.5203 447.336 98.2283 446.616 99.1763 446.616C99.3803 446.616 99.5963 446.652 99.8123 446.736L99.6203 447.528C99.4523 447.468 99.2843 447.432 99.1283 447.432C98.2163 447.432 97.4723 448.332 97.0283 449.544V453H96.1283ZM100.125 449.892C100.125 447.696 101.817 446.604 103.353 446.604C104.865 446.604 106.653 447.612 106.653 449.82C106.653 452.004 104.985 453.12 103.329 453.12C101.745 453.12 100.125 452.1 100.125 449.892ZM101.073 449.832C101.073 451.536 102.153 452.292 103.377 452.292C104.625 452.292 105.705 451.512 105.705 449.904C105.705 448.248 104.553 447.432 103.377 447.432C102.285 447.432 101.073 448.164 101.073 449.832ZM108.187 453V446.736H109.087V448.2C109.579 447.336 110.287 446.616 111.235 446.616C111.439 446.616 111.655 446.652 111.871 446.736L111.679 447.528C111.511 447.468 111.343 447.432 111.187 447.432C110.275 447.432 109.531 448.332 109.087 449.544V453H108.187ZM115.675 453V446.736H116.575V448.2C117.199 447.108 117.991 446.604 119.023 446.604C119.911 446.604 120.787 447 121.039 448.32C121.675 447.144 122.479 446.604 123.547 446.604C124.591 446.604 125.623 447.144 125.623 449.1V453H124.723V449.22C124.723 447.972 124.159 447.444 123.355 447.444C122.371 447.444 121.651 448.164 121.099 449.592V453H120.199V449.22C120.199 447.972 119.635 447.444 118.831 447.444C117.835 447.444 117.139 448.164 116.575 449.604V453H115.675ZM132.526 451.74L132.73 452.472C132.19 452.856 131.218 453.12 130.33 453.12C128.35 453.12 127.102 451.968 127.102 449.94C127.102 447.792 128.506 446.604 130.15 446.604C131.746 446.604 133.042 447.684 133.042 449.868C133.042 449.976 133.03 450.12 133.018 450.204H128.062C128.146 451.608 128.962 452.292 130.378 452.292C131.098 452.292 131.746 452.196 132.526 451.74ZM130.126 447.432C129.034 447.432 128.23 448.092 128.074 449.436H132.082C131.962 448.068 131.194 447.432 130.126 447.432ZM136.114 453.12C135.37 453.12 134.482 452.892 134.026 452.652L134.278 451.836C134.818 452.124 135.442 452.292 136.126 452.292C137.002 452.292 137.626 452.064 137.626 451.32C137.626 449.712 134.146 451.044 134.146 448.44C134.146 447.348 134.962 446.604 136.438 446.604C137.038 446.604 137.794 446.772 138.322 447.072L138.082 447.9C137.554 447.588 137.026 447.432 136.45 447.432C135.694 447.432 135.07 447.744 135.07 448.392C135.07 450.192 138.526 448.848 138.526 451.272C138.526 452.424 137.41 453.12 136.114 453.12ZM141.575 453.12C140.831 453.12 139.943 452.892 139.487 452.652L139.739 451.836C140.279 452.124 140.903 452.292 141.587 452.292C142.463 452.292 143.087 452.064 143.087 451.32C143.087 449.712 139.607 451.044 139.607 448.44C139.607 447.348 140.423 446.604 141.899 446.604C142.499 446.604 143.255 446.772 143.783 447.072L143.543 447.9C143.015 447.588 142.487 447.432 141.911 447.432C141.155 447.432 140.531 447.744 140.531 448.392C140.531 450.192 143.987 448.848 143.987 451.272C143.987 452.424 142.871 453.12 141.575 453.12ZM145.02 449.892C145.02 447.792 146.364 446.604 148.068 446.604C149.124 446.604 149.94 447.108 150.468 447.984V446.736H151.368V453H150.468V451.68C149.928 452.628 149.136 453.12 148.068 453.12C146.364 453.12 145.02 451.968 145.02 449.892ZM148.08 452.292C149.388 452.292 150.216 451.248 150.468 449.868C150.264 448.524 149.28 447.432 148.08 447.432C146.868 447.432 145.968 448.188 145.968 449.88C145.968 451.416 146.868 452.292 148.08 452.292ZM152.919 449.832C152.919 447.732 154.263 446.604 155.955 446.604C157.023 446.604 157.839 447.108 158.367 448.008V446.736H159.267V452.904C159.267 454.596 157.815 455.628 156.075 455.628C155.163 455.628 153.999 455.352 153.327 454.824L153.507 453.972C154.275 454.524 155.331 454.8 156.111 454.8C157.311 454.8 158.367 454.128 158.367 452.94V451.656C157.827 452.568 157.035 453 155.955 453C154.263 453 152.919 451.896 152.919 449.832ZM155.967 452.172C157.287 452.172 158.115 451.248 158.367 449.868C158.163 448.524 157.191 447.432 155.967 447.432C154.767 447.432 153.855 448.116 153.855 449.82C153.855 451.356 154.767 452.172 155.967 452.172ZM166.241 451.74L166.445 452.472C165.905 452.856 164.933 453.12 164.045 453.12C162.065 453.12 160.817 451.968 160.817 449.94C160.817 447.792 162.221 446.604 163.865 446.604C165.461 446.604 166.757 447.684 166.757 449.868C166.757 449.976 166.745 450.12 166.733 450.204H161.777C161.861 451.608 162.677 452.292 164.093 452.292C164.813 452.292 165.461 452.196 166.241 451.74ZM163.841 447.432C162.749 447.432 161.945 448.092 161.789 449.436H165.797C165.677 448.068 164.909 447.432 163.841 447.432Z" fill="#EF4F4D"/>
<path d="M85.5781 521V509.752H86.8261V519.848H91.5461V521H85.5781ZM92.2472 516.856C92.2472 514.056 94.0392 512.472 96.3112 512.472C97.7192 512.472 98.8072 513.144 99.5112 514.312V512.648H100.711V521H99.5112V519.24C98.7912 520.504 97.7352 521.16 96.3112 521.16C94.0392 521.16 92.2472 519.624 92.2472 516.856ZM96.3272 520.056C98.0712 520.056 99.1752 518.664 99.5112 516.824C99.2392 515.032 97.9272 513.576 96.3272 513.576C94.7112 513.576 93.5112 514.584 93.5112 516.84C93.5112 518.888 94.7112 520.056 96.3272 520.056ZM111.834 516.856C111.834 519.624 110.042 521.16 107.786 521.16C106.346 521.16 105.29 520.504 104.57 519.24V521H103.37V509.752H104.57V514.472C105.322 513.224 106.426 512.472 107.786 512.472C110.01 512.472 111.834 513.928 111.834 516.856ZM104.57 516.824C104.89 518.664 106.01 520.056 107.754 520.056C109.37 520.056 110.57 518.888 110.57 516.84C110.57 514.584 109.37 513.576 107.754 513.576C106.138 513.576 104.842 515.032 104.57 516.824ZM120.542 519.32L120.814 520.296C120.094 520.808 118.798 521.16 117.614 521.16C114.974 521.16 113.31 519.624 113.31 516.92C113.31 514.056 115.182 512.472 117.374 512.472C119.502 512.472 121.23 513.912 121.23 516.824C121.23 516.968 121.214 517.16 121.198 517.272H114.59C114.702 519.144 115.79 520.056 117.678 520.056C118.638 520.056 119.502 519.928 120.542 519.32ZM117.342 513.576C115.886 513.576 114.814 514.456 114.606 516.248H119.95C119.79 514.424 118.766 513.576 117.342 513.576ZM123.23 521V509.752H124.43V521H123.23Z" fill="#B7C2C6"/>
<path d="M84.0581 528H244.058" stroke="#B7C2C6" stroke-linecap="round"/>
<path d="M293.52 81V69.752H294.768V79.848H299.488V81H293.52ZM300.189 76.856C300.189 74.056 301.981 72.472 304.253 72.472C305.661 72.472 306.749 73.144 307.453 74.312V72.648H308.653V81H307.453V79.24C306.733 80.504 305.677 81.16 304.253 81.16C301.981 81.16 300.189 79.624 300.189 76.856ZM304.269 80.056C306.013 80.056 307.117 78.664 307.453 76.824C307.181 75.032 305.869 73.576 304.269 73.576C302.653 73.576 301.453 74.584 301.453 76.84C301.453 78.888 302.653 80.056 304.269 80.056ZM319.776 76.856C319.776 79.624 317.984 81.16 315.728 81.16C314.288 81.16 313.232 80.504 312.512 79.24V81H311.312V69.752H312.512V74.472C313.264 73.224 314.368 72.472 315.728 72.472C317.952 72.472 319.776 73.928 319.776 76.856ZM312.512 76.824C312.832 78.664 313.952 80.056 315.696 80.056C317.312 80.056 318.512 78.888 318.512 76.84C318.512 74.584 317.312 73.576 315.696 73.576C314.08 73.576 312.784 75.032 312.512 76.824ZM328.484 79.32L328.756 80.296C328.036 80.808 326.74 81.16 325.556 81.16C322.916 81.16 321.252 79.624 321.252 76.92C321.252 74.056 323.124 72.472 325.316 72.472C327.444 72.472 329.172 73.912 329.172 76.824C329.172 76.968 329.156 77.16 329.14 77.272H322.532C322.644 79.144 323.732 80.056 325.62 80.056C326.58 80.056 327.444 79.928 328.484 79.32ZM325.284 73.576C323.828 73.576 322.756 74.456 322.548 76.248H327.892C327.732 74.424 326.708 73.576 325.284 73.576ZM331.172 81V69.752H332.372V81H331.172Z" fill="#4C5257"/>
<path fill-rule="evenodd" clip-rule="evenodd" d="M440 77.5L445 72.5H435L440 77.5Z" fill="#1B358F"/>
<path d="M292 88H452" stroke="#4C5257" stroke-linecap="round"/>
<path d="M293.14 148V139.564H294.076V147.136H297.616V148H293.14ZM298.142 144.892C298.142 142.792 299.486 141.604 301.19 141.604C302.246 141.604 303.062 142.108 303.59 142.984V141.736H304.49V148H303.59V146.68C303.05 147.628 302.258 148.12 301.19 148.12C299.486 148.12 298.142 146.968 298.142 144.892ZM301.202 147.292C302.51 147.292 303.338 146.248 303.59 144.868C303.386 143.524 302.402 142.432 301.202 142.432C299.99 142.432 299.09 143.188 299.09 144.88C299.09 146.416 299.99 147.292 301.202 147.292ZM312.832 144.892C312.832 146.968 311.488 148.12 309.796 148.12C308.716 148.12 307.924 147.628 307.384 146.68V148H306.484V139.564H307.384V143.104C307.948 142.168 308.776 141.604 309.796 141.604C311.464 141.604 312.832 142.696 312.832 144.892ZM307.384 144.868C307.624 146.248 308.464 147.292 309.772 147.292C310.984 147.292 311.884 146.416 311.884 144.88C311.884 143.188 310.984 142.432 309.772 142.432C308.56 142.432 307.588 143.524 307.384 144.868ZM314.383 148V139.564H315.283V148H314.383ZM322.257 146.74L322.461 147.472C321.921 147.856 320.949 148.12 320.061 148.12C318.081 148.12 316.833 146.968 316.833 144.94C316.833 142.792 318.237 141.604 319.881 141.604C321.477 141.604 322.773 142.684 322.773 144.868C322.773 144.976 322.761 145.12 322.749 145.204H317.793C317.877 146.608 318.693 147.292 320.109 147.292C320.829 147.292 321.477 147.196 322.257 146.74ZM319.857 142.432C318.765 142.432 317.961 143.092 317.805 144.436H321.813C321.693 143.068 320.925 142.432 319.857 142.432Z" fill="#4C5257"/>
<path d="M295.92 169V158.904H292.224V157.752H300.88V158.904H297.168V169H295.92ZM307.531 167.32L307.803 168.296C307.083 168.808 305.787 169.16 304.603 169.16C301.963 169.16 300.299 167.624 300.299 164.92C300.299 162.056 302.171 160.472 304.363 160.472C306.491 160.472 308.219 161.912 308.219 164.824C308.219 164.968 308.203 165.16 308.187 165.272H301.579C301.691 167.144 302.779 168.056 304.667 168.056C305.627 168.056 306.491 167.928 307.531 167.32ZM304.331 161.576C302.875 161.576 301.803 162.456 301.595 164.248H306.939C306.779 162.424 305.755 161.576 304.331 161.576ZM316.431 160.648L313.327 164.824L316.383 169H314.847L312.655 165.768L310.351 169H308.959L311.999 164.84L308.959 160.648H310.447L312.687 163.896L314.927 160.648H316.431ZM318.432 166.216V161.672H316.912V160.648H318.432V158.12H319.632V160.648H322.736V161.672H319.632V166.024C319.632 167.576 320.304 168.072 321.216 168.072C321.744 168.072 322.384 167.928 322.912 167.624L323.216 168.6C322.544 168.952 321.904 169.16 320.976 169.16C319.568 169.16 318.432 168.328 318.432 166.216ZM325.954 170.856H324.754V157.752H325.954V170.856Z" fill="#2A2C32"/>
<path fill-rule="evenodd" clip-rule="evenodd" d="M440 160.5L435 165.5L445 165.5L440 160.5Z" fill="#1B358F"/>
<path d="M292 176H452" stroke="#193291" stroke-width="1.5" stroke-linecap="round"/>
<path d="M293.14 236V227.564H294.076V235.136H297.616V236H293.14ZM298.142 232.892C298.142 230.792 299.486 229.604 301.19 229.604C302.246 229.604 303.062 230.108 303.59 230.984V229.736H304.49V236H303.59V234.68C303.05 235.628 302.258 236.12 301.19 236.12C299.486 236.12 298.142 234.968 298.142 232.892ZM301.202 235.292C302.51 235.292 303.338 234.248 303.59 232.868C303.386 231.524 302.402 230.432 301.202 230.432C299.99 230.432 299.09 231.188 299.09 232.88C299.09 234.416 299.99 235.292 301.202 235.292ZM312.832 232.892C312.832 234.968 311.488 236.12 309.796 236.12C308.716 236.12 307.924 235.628 307.384 234.68V236H306.484V227.564H307.384V231.104C307.948 230.168 308.776 229.604 309.796 229.604C311.464 229.604 312.832 230.696 312.832 232.892ZM307.384 232.868C307.624 234.248 308.464 235.292 309.772 235.292C310.984 235.292 311.884 234.416 311.884 232.88C311.884 231.188 310.984 230.432 309.772 230.432C308.56 230.432 307.588 231.524 307.384 232.868ZM314.383 236V227.564H315.283V236H314.383ZM322.257 234.74L322.461 235.472C321.921 235.856 320.949 236.12 320.061 236.12C318.081 236.12 316.833 234.968 316.833 232.94C316.833 230.792 318.237 229.604 319.881 229.604C321.477 229.604 322.773 230.684 322.773 232.868C322.773 232.976 322.761 233.12 322.749 233.204H317.793C317.877 234.608 318.693 235.292 320.109 235.292C320.829 235.292 321.477 235.196 322.257 234.74ZM319.857 230.432C318.765 230.432 317.961 231.092 317.805 232.436H321.813C321.693 231.068 320.925 230.432 319.857 230.432Z" fill="#4C5257"/>
<path d="M295.92 257V246.904H292.224V245.752H300.88V246.904H297.168V257H295.92ZM307.531 255.32L307.803 256.296C307.083 256.808 305.787 257.16 304.603 257.16C301.963 257.16 300.299 255.624 300.299 252.92C300.299 250.056 302.171 248.472 304.363 248.472C306.491 248.472 308.219 249.912 308.219 252.824C308.219 252.968 308.203 253.16 308.187 253.272H301.579C301.691 255.144 302.779 256.056 304.667 256.056C305.627 256.056 306.491 255.928 307.531 255.32ZM304.331 249.576C302.875 249.576 301.803 250.456 301.595 252.248H306.939C306.779 250.424 305.755 249.576 304.331 249.576ZM316.431 248.648L313.327 252.824L316.383 257H314.847L312.655 253.768L310.351 257H308.959L311.999 252.84L308.959 248.648H310.447L312.687 251.896L314.927 248.648H316.431ZM318.432 254.216V249.672H316.912V248.648H318.432V246.12H319.632V248.648H322.736V249.672H319.632V254.024C319.632 255.576 320.304 256.072 321.216 256.072C321.744 256.072 322.384 255.928 322.912 255.624L323.216 256.6C322.544 256.952 321.904 257.16 320.976 257.16C319.568 257.16 318.432 256.328 318.432 254.216Z" fill="#2A2C32"/>
<path fill-rule="evenodd" clip-rule="evenodd" d="M440 253.5L445 248.5H435L440 253.5Z" fill="#1B358F"/>
<path d="M292 264H452" stroke="#4C5257" stroke-linecap="round"/>
<path d="M293.14 412V403.564H294.076V411.136H297.616V412H293.14ZM298.142 408.892C298.142 406.792 299.486 405.604 301.19 405.604C302.246 405.604 303.062 406.108 303.59 406.984V405.736H304.49V412H303.59V410.68C303.05 411.628 302.258 412.12 301.19 412.12C299.486 412.12 298.142 410.968 298.142 408.892ZM301.202 411.292C302.51 411.292 303.338 410.248 303.59 408.868C303.386 407.524 302.402 406.432 301.202 406.432C299.99 406.432 299.09 407.188 299.09 408.88C299.09 410.416 299.99 411.292 301.202 411.292ZM312.832 408.892C312.832 410.968 311.488 412.12 309.796 412.12C308.716 412.12 307.924 411.628 307.384 410.68V412H306.484V403.564H307.384V407.104C307.948 406.168 308.776 405.604 309.796 405.604C311.464 405.604 312.832 406.696 312.832 408.892ZM307.384 408.868C307.624 410.248 308.464 411.292 309.772 411.292C310.984 411.292 311.884 410.416 311.884 408.88C311.884 407.188 310.984 406.432 309.772 406.432C308.56 406.432 307.588 407.524 307.384 408.868ZM314.383 412V403.564H315.283V412H314.383ZM322.257 410.74L322.461 411.472C321.921 411.856 320.949 412.12 320.061 412.12C318.081 412.12 316.833 410.968 316.833 408.94C316.833 406.792 318.237 405.604 319.881 405.604C321.477 405.604 322.773 406.684 322.773 408.868C322.773 408.976 322.761 409.12 322.749 409.204H317.793C317.877 410.608 318.693 411.292 320.109 411.292C320.829 411.292 321.477 411.196 322.257 410.74ZM319.857 406.432C318.765 406.432 317.961 407.092 317.805 408.436H321.813C321.693 407.068 320.925 406.432 319.857 406.432Z" fill="#4C5257"/>
<path d="M295.92 433V422.904H292.224V421.752H300.88V422.904H297.168V433H295.92ZM307.531 431.32L307.803 432.296C307.083 432.808 305.787 433.16 304.603 433.16C301.963 433.16 300.299 431.624 300.299 428.92C300.299 426.056 302.171 424.472 304.363 424.472C306.491 424.472 308.219 425.912 308.219 428.824C308.219 428.968 308.203 429.16 308.187 429.272H301.579C301.691 431.144 302.779 432.056 304.667 432.056C305.627 432.056 306.491 431.928 307.531 431.32ZM304.331 425.576C302.875 425.576 301.803 426.456 301.595 428.248H306.939C306.779 426.424 305.755 425.576 304.331 425.576ZM316.431 424.648L313.327 428.824L316.383 433H314.847L312.655 429.768L310.351 433H308.959L311.999 428.84L308.959 424.648H310.447L312.687 427.896L314.927 424.648H316.431ZM318.432 430.216V425.672H316.912V424.648H318.432V422.12H319.632V424.648H322.736V425.672H319.632V430.024C319.632 431.576 320.304 432.072 321.216 432.072C321.744 432.072 322.384 431.928 322.912 431.624L323.216 432.6C322.544 432.952 321.904 433.16 320.976 433.16C319.568 433.16 318.432 432.328 318.432 430.216Z" fill="#2A2C32"/>
<path fill-rule="evenodd" clip-rule="evenodd" d="M440 429.5L445 424.5H435L440 429.5Z" fill="#1B358F"/>
<path d="M292 440H452" stroke="#EF4F4D" stroke-width="1.5" stroke-linecap="round"/>
<path d="M293.14 453V444.564H297.748V445.428H294.076V448.332H297.22V449.196H294.076V452.136H297.748V453H293.14ZM299.277 453V446.736H300.177V448.2C300.669 447.336 301.377 446.616 302.325 446.616C302.529 446.616 302.745 446.652 302.961 446.736L302.769 447.528C302.601 447.468 302.433 447.432 302.277 447.432C301.365 447.432 300.621 448.332 300.177 449.544V453H299.277ZM304.07 453V446.736H304.97V448.2C305.462 447.336 306.17 446.616 307.118 446.616C307.322 446.616 307.538 446.652 307.754 446.736L307.562 447.528C307.394 447.468 307.226 447.432 307.07 447.432C306.158 447.432 305.414 448.332 304.97 449.544V453H304.07ZM308.067 449.892C308.067 447.696 309.759 446.604 311.295 446.604C312.807 446.604 314.595 447.612 314.595 449.82C314.595 452.004 312.927 453.12 311.271 453.12C309.687 453.12 308.067 452.1 308.067 449.892ZM309.015 449.832C309.015 451.536 310.095 452.292 311.319 452.292C312.567 452.292 313.647 451.512 313.647 449.904C313.647 448.248 312.495 447.432 311.319 447.432C310.227 447.432 309.015 448.164 309.015 449.832ZM316.129 453V446.736H317.029V448.2C317.521 447.336 318.229 446.616 319.177 446.616C319.381 446.616 319.597 446.652 319.813 446.736L319.621 447.528C319.453 447.468 319.285 447.432 319.129 447.432C318.217 447.432 317.473 448.332 317.029 449.544V453H316.129ZM323.617 453V446.736H324.517V448.2C325.141 447.108 325.933 446.604 326.965 446.604C327.853 446.604 328.729 447 328.981 448.32C329.617 447.144 330.421 446.604 331.489 446.604C332.533 446.604 333.565 447.144 333.565 449.1V453H332.665V449.22C332.665 447.972 332.101 447.444 331.297 447.444C330.313 447.444 329.593 448.164 329.041 449.592V453H328.141V449.22C328.141 447.972 327.577 447.444 326.773 447.444C325.777 447.444 325.081 448.164 324.517 449.604V453H323.617ZM340.468 451.74L340.672 452.472C340.132 452.856 339.16 453.12 338.272 453.12C336.292 453.12 335.044 451.968 335.044 449.94C335.044 447.792 336.448 446.604 338.092 446.604C339.688 446.604 340.984 447.684 340.984 449.868C340.984 449.976 340.972 450.12 340.96 450.204H336.004C336.088 451.608 336.904 452.292 338.32 452.292C339.04 452.292 339.688 452.196 340.468 451.74ZM338.068 447.432C336.976 447.432 336.172 448.092 336.016 449.436H340.024C339.904 448.068 339.136 447.432 338.068 447.432ZM344.056 453.12C343.312 453.12 342.424 452.892 341.968 452.652L342.22 451.836C342.76 452.124 343.384 452.292 344.068 452.292C344.944 452.292 345.568 452.064 345.568 451.32C345.568 449.712 342.088 451.044 342.088 448.44C342.088 447.348 342.904 446.604 344.38 446.604C344.98 446.604 345.736 446.772 346.264 447.072L346.024 447.9C345.496 447.588 344.968 447.432 344.392 447.432C343.636 447.432 343.012 447.744 343.012 448.392C343.012 450.192 346.468 448.848 346.468 451.272C346.468 452.424 345.352 453.12 344.056 453.12ZM349.517 453.12C348.773 453.12 347.885 452.892 347.429 452.652L347.681 451.836C348.221 452.124 348.845 452.292 349.529 452.292C350.405 452.292 351.029 452.064 351.029 451.32C351.029 449.712 347.549 451.044 347.549 448.44C347.549 447.348 348.365 446.604 349.841 446.604C350.441 446.604 351.197 446.772 351.725 447.072L351.485 447.9C350.957 447.588 350.429 447.432 349.853 447.432C349.097 447.432 348.473 447.744 348.473 448.392C348.473 450.192 351.929 448.848 351.929 451.272C351.929 452.424 350.813 453.12 349.517 453.12ZM352.962 449.892C352.962 447.792 354.306 446.604 356.01 446.604C357.066 446.604 357.882 447.108 358.41 447.984V446.736H359.31V453H358.41V451.68C357.87 452.628 357.078 453.12 356.01 453.12C354.306 453.12 352.962 451.968 352.962 449.892ZM356.022 452.292C357.33 452.292 358.158 451.248 358.41 449.868C358.206 448.524 357.222 447.432 356.022 447.432C354.81 447.432 353.91 448.188 353.91 449.88C353.91 451.416 354.81 452.292 356.022 452.292ZM360.861 449.832C360.861 447.732 362.205 446.604 363.897 446.604C364.965 446.604 365.781 447.108 366.309 448.008V446.736H367.209V452.904C367.209 454.596 365.757 455.628 364.017 455.628C363.105 455.628 361.941 455.352 361.269 454.824L361.449 453.972C362.217 454.524 363.273 454.8 364.053 454.8C365.253 454.8 366.309 454.128 366.309 452.94V451.656C365.769 452.568 364.977 453 363.897 453C362.205 453 360.861 451.896 360.861 449.832ZM363.909 452.172C365.229 452.172 366.057 451.248 366.309 449.868C366.105 448.524 365.133 447.432 363.909 447.432C362.709 447.432 361.797 448.116 361.797 449.82C361.797 451.356 362.709 452.172 363.909 452.172ZM374.183 451.74L374.387 452.472C373.847 452.856 372.875 453.12 371.987 453.12C370.007 453.12 368.759 451.968 368.759 449.94C368.759 447.792 370.163 446.604 371.807 446.604C373.403 446.604 374.699 447.684 374.699 449.868C374.699 449.976 374.687 450.12 374.675 450.204H369.719C369.803 451.608 370.619 452.292 372.035 452.292C372.755 452.292 373.403 452.196 374.183 451.74ZM371.783 447.432C370.691 447.432 369.887 448.092 369.731 449.436H373.739C373.619 448.068 372.851 447.432 371.783 447.432Z" fill="#EF4F4D"/>
<path d="M293.52 521V509.752H294.768V519.848H299.488V521H293.52ZM300.189 516.856C300.189 514.056 301.981 512.472 304.253 512.472C305.661 512.472 306.749 513.144 307.453 514.312V512.648H308.653V521H307.453V519.24C306.733 520.504 305.677 521.16 304.253 521.16C301.981 521.16 300.189 519.624 300.189 516.856ZM304.269 520.056C306.013 520.056 307.117 518.664 307.453 516.824C307.181 515.032 305.869 513.576 304.269 513.576C302.653 513.576 301.453 514.584 301.453 516.84C301.453 518.888 302.653 520.056 304.269 520.056ZM319.776 516.856C319.776 519.624 317.984 521.16 315.728 521.16C314.288 521.16 313.232 520.504 312.512 519.24V521H311.312V509.752H312.512V514.472C313.264 513.224 314.368 512.472 315.728 512.472C317.952 512.472 319.776 513.928 319.776 516.856ZM312.512 516.824C312.832 518.664 313.952 520.056 315.696 520.056C317.312 520.056 318.512 518.888 318.512 516.84C318.512 514.584 317.312 513.576 315.696 513.576C314.08 513.576 312.784 515.032 312.512 516.824ZM328.484 519.32L328.756 520.296C328.036 520.808 326.74 521.16 325.556 521.16C322.916 521.16 321.252 519.624 321.252 516.92C321.252 514.056 323.124 512.472 325.316 512.472C327.444 512.472 329.172 513.912 329.172 516.824C329.172 516.968 329.156 517.16 329.14 517.272H322.532C322.644 519.144 323.732 520.056 325.62 520.056C326.58 520.056 327.444 519.928 328.484 519.32ZM325.284 513.576C323.828 513.576 322.756 514.456 322.548 516.248H327.892C327.732 514.424 326.708 513.576 325.284 513.576ZM331.172 521V509.752H332.372V521H331.172Z" fill="#B7C2C6"/>
<path fill-rule="evenodd" clip-rule="evenodd" d="M440 517.5L445 512.5H435L440 517.5Z" fill="#B7C2C6"/>
<path d="M292 528H452" stroke="#B7C2C6" stroke-linecap="round"/>
</svg>
