<svg width="378" height="32" viewBox="0 0 378 32" fill="none" xmlns="http://www.w3.org/2000/svg">
<g clip-path="url(#clip0_7_5111)">
<path d="M127.443 29.2629V11.2709C127.443 7.60289 130.361 4.61642 134.005 4.54102H152.525C153.099 4.54102 153.568 5.01088 153.568 5.58677V9.90686C153.568 10.2857 153.265 10.604 152.873 10.604H135.063C134.519 10.604 134.081 11.0437 134.081 11.5897V13.5905C134.081 14.1205 134.504 14.5602 135.033 14.575H151.195C151.739 14.575 152.177 15.0147 152.177 15.5607V19.2438C152.177 19.7893 151.739 20.229 151.195 20.229H135.063C134.519 20.229 134.081 20.6686 134.081 21.2144V23.1847C134.081 23.7308 134.519 24.1705 135.063 24.1705H153.281C153.765 24.1705 153.946 24.3365 153.734 24.7608C152.903 26.5039 152.328 27.7169 151.678 29.0809C151.179 30.1267 150.741 30.2785 150.288 30.2785H128.486C127.912 30.3087 127.443 29.8393 127.443 29.2629Z" fill="white"/>
<path d="M156.758 29.2633V5.57212C156.758 4.99584 157.227 4.52637 157.801 4.52637H161.777C162.352 4.52637 162.821 4.99584 162.821 5.57212V23.2608C162.851 23.7914 163.274 24.2006 163.803 24.2006H180.902C181.386 24.2006 181.568 24.3673 181.356 24.7916L179.3 29.1117C178.801 30.1575 178.362 30.3091 177.909 30.3091H157.801C157.227 30.3091 156.758 29.8396 156.758 29.2633Z" fill="white"/>
<path d="M172.92 9.54298V1.08483C172.92 0.508938 173.389 0.0390625 173.963 0.0390625H178.091C178.664 0.0390625 179.134 0.508938 179.134 1.08483V3.58623C179.164 4.10151 179.587 4.52578 180.116 4.52578H194.206C198.606 4.52578 200.587 9.36095 198.984 12.8019C198.515 13.8025 191.032 29.748 191.032 29.748C190.851 30.1423 190.578 30.309 190.079 30.309H185.03C183.73 30.309 183.473 29.642 183.911 28.702C183.911 28.702 191.742 12.0286 191.879 11.7405C192.211 11.0284 191.531 10.6042 190.865 10.6042H173.963C173.389 10.5887 172.92 10.1193 172.92 9.54298Z" fill="white"/>
<path d="M214.601 30.3087H196.671C195.371 30.3087 195.114 29.6419 195.552 28.7025C195.552 28.7025 197.17 25.2616 197.366 24.8368C197.562 24.4275 197.774 24.2151 198.439 24.2151H208.342C208.342 24.2151 204.305 6.3143 204.17 5.75381C204.018 5.11671 204.548 4.54102 205.198 4.54102H209.915C210.368 4.54102 210.898 4.84427 211.003 5.25354C211.079 5.60178 215.085 23.5786 215.161 23.9123C215.342 24.7304 215.614 24.7916 215.977 23.9578C216.083 23.7305 223.945 5.46597 224.096 5.11671C224.247 4.76826 224.564 4.54102 224.988 4.54102H230.385C231.096 4.54102 231.564 5.38976 231.217 6.19287C230.899 6.90559 223.234 24.1247 223.022 24.6097C220.891 29.3082 218.592 30.3087 214.601 30.3087Z" fill="white"/>
<path d="M251.37 29.2171C251.37 29.8239 250.886 30.3087 250.281 30.3087H246.169C245.564 30.3087 245.08 29.8239 245.08 29.2171V25.6251H233.409L231.973 28.687C231.383 29.9446 230.914 30.3087 229.947 30.3087H226.499C225.2 30.3087 224.942 29.6264 225.381 28.687L234.891 8.22398C235.964 5.92042 238.141 4.52539 240.258 4.52539H250.281C250.886 4.52539 251.37 5.01026 251.37 5.61697V29.2171ZM245.277 11.1798C245.277 10.6338 244.838 10.1943 244.294 10.1943H241.452C240.847 10.1943 240.545 10.3763 240.394 10.71C240.303 10.892 236.07 19.9255 236.07 19.9255H244.294C244.824 19.9255 245.247 19.5162 245.277 19.0011V11.1798Z" fill="white"/>
<path d="M255.331 29.2633V5.57212C255.331 4.99584 255.799 4.52637 256.374 4.52637H260.35C260.925 4.52637 261.393 4.99584 261.393 5.57212V23.2608C261.423 23.7914 261.847 24.2006 262.376 24.2006H279.475C279.959 24.2006 280.141 24.3673 279.928 24.7916L277.857 29.1117C277.359 30.1575 276.92 30.3091 276.466 30.3091H256.359C255.799 30.3091 255.331 29.8396 255.331 29.2633Z" fill="white"/>
<path d="M271.522 9.54298V1.08483C271.522 0.508938 271.991 0.0390625 272.566 0.0390625H276.693C277.268 0.0390625 277.736 0.508938 277.736 1.08483V3.58623C277.766 4.10151 278.19 4.52578 278.719 4.52578H292.794C297.193 4.52578 299.174 9.36095 297.572 12.8019C297.103 13.8025 289.619 29.748 289.619 29.748C289.438 30.1423 289.166 30.309 288.667 30.309H283.617C282.317 30.309 282.06 29.642 282.498 28.702C282.498 28.702 290.329 12.0286 290.466 11.7405C290.799 11.0284 290.118 10.6042 289.453 10.6042H272.566C271.991 10.5887 271.522 10.1193 271.522 9.54298Z" fill="white"/>
<path d="M327.114 8.76986C326.417 10.2553 319.751 24.6246 319.751 24.6246C319.751 24.6246 322.094 28.7625 322.275 29.0813C322.683 29.7934 322.608 30.3236 321.504 30.3236H316.757C316.016 30.3236 315.563 30.0361 315.276 29.5358C315.139 29.2782 308.153 16.9854 308.153 16.9854C308.153 16.9854 304.118 25.5944 303.754 26.3527C303.24 27.4437 302.214 28.7774 300.883 29.505C299.612 30.2027 298.447 30.3236 296.483 30.3236H296.256C294.836 30.3236 294.956 29.5812 295.198 29.066C295.35 28.7476 304.179 9.92164 304.179 9.92164C304.179 9.92164 301.896 5.90542 301.744 5.63237C301.306 4.85925 301.744 4.52539 302.469 4.52539H307.005C307.927 4.52539 308.608 4.95006 309.016 5.67818C309.289 6.16306 315.744 17.5308 315.744 17.5308C315.744 17.5308 321.398 5.35932 321.535 5.07148C321.715 4.69241 322.064 4.52539 322.547 4.52539H326.434C327.763 4.52539 328.73 5.28372 327.114 8.76986Z" fill="white"/>
<path d="M327.974 24.2002H367.041C367.751 24.2002 368.054 24.7767 367.722 25.4887L366.074 29.0202C365.741 29.7333 364.894 30.3086 364.184 30.3086H325.132C324.422 30.3086 324.12 29.7333 324.453 29.0202L326.099 25.4887C326.432 24.7767 327.264 24.2002 327.974 24.2002Z" fill="white"/>
<path d="M337.181 4.52539H376.248C376.958 4.52539 377.261 5.10189 376.93 5.81379L375.281 9.34536C374.948 10.0583 374.101 10.6338 373.391 10.6338H334.326C333.614 10.6338 333.312 10.0583 333.645 9.34536L335.293 5.81379C335.624 5.10189 336.471 4.52539 337.181 4.52539Z" fill="white"/>
<path d="M351.741 12.6506L352.451 14.5453H355.142C355.717 14.5453 355.854 15.0004 355.293 15.6214L353.585 17.5924L354.28 19.4409C354.448 19.8506 354.478 20.305 353.496 20.305H351.227L349.518 22.2753C349.095 22.7608 348.945 22.7763 348.718 22.1695L348.022 20.305H345.271C344.696 20.305 344.561 19.8506 345.119 19.2288L346.902 17.2129L346.223 15.4097C346.072 15.0004 346.027 14.5453 347.009 14.5453H349.217L350.955 12.5442C351.364 12.0593 351.514 12.0443 351.741 12.6506Z" fill="white"/>
<path d="M18.486 24.5853C16.7934 26.6819 14.3046 27.7301 11.8156 27.7301C7.03667 27.7301 3.05444 24.236 3.05444 17.632C3.05444 11.3424 7.16953 7.63843 11.7493 7.63843C14.4041 7.63843 16.86 8.68673 18.5523 10.8531L20.1785 8.61692C18.1541 6.34565 15.267 5.05273 11.8156 5.05273C5.21157 5.05273 0.333313 10.4338 0.333313 17.632C0.333313 25.2494 5.01253 30.3159 11.8156 30.3159C15.2007 30.3159 18.1541 28.8483 20.2117 26.4722L18.486 24.5853ZM23.6958 29.9664H26.5831L29.0389 22.6286H38.3642L40.8862 29.9664H43.7735L35.0787 5.40221H32.4901L23.6958 29.9664ZM29.8685 20.1127L33.6518 8.8614L37.5013 20.1127H29.8685ZM49.5473 29.9664H52.1358V19.9031H54.8903C55.1557 19.9031 55.3881 19.9031 55.6535 19.8682L61.2289 29.9664H64.3151L58.2089 19.4489C61.1624 18.5404 63.3196 16.3041 63.3196 12.4605C63.3196 7.04447 59.4035 5.40221 54.8903 5.40221H49.5473V29.9664ZM54.8903 7.9181C58.7398 7.9181 60.5983 9.56035 60.5983 12.6352C60.5983 15.3955 58.7398 17.3873 54.9234 17.3873H52.1358V7.9181H54.8903ZM81.6713 19.2394H88.839C88.4409 24.7252 84.8903 27.7301 80.742 27.7301C75.8969 27.7301 71.8814 24.236 71.8814 17.632C71.8814 11.3424 75.9965 7.63843 80.6757 7.63843C83.6956 7.63843 86.0186 9.0013 87.6115 10.6436L89.3375 8.51206C87.3793 6.62518 84.5585 5.05273 80.742 5.05273C74.0384 5.05273 69.1602 10.4338 69.1602 17.632C69.1602 25.2494 73.939 30.3159 80.742 30.3159C87.2134 30.3159 91.5943 24.9697 91.5943 17.9814V16.7235H81.6713V19.2394ZM108.452 30.3159C114.924 30.3159 119.935 24.795 119.935 17.632C119.935 10.2243 115.189 5.05273 108.452 5.05273C101.815 5.05273 96.87 10.4338 96.87 17.632C96.87 25.2494 101.65 30.3159 108.452 30.3159ZM108.452 27.7301C103.574 27.7301 99.5914 24.236 99.5914 17.632C99.5914 11.3424 103.707 7.63843 108.386 7.63843C113.098 7.63843 117.18 11.2726 117.213 17.7018C117.213 24.0961 112.899 27.7301 108.452 27.7301Z" fill="white"/>
</g>
<defs>
<clipPath id="clip0_7_5111">
<rect width="377.333" height="32" fill="white" transform="translate(0.333313)"/>
</clipPath>
</defs>
</svg>
