<svg width="104" height="45" viewBox="0 0 104 45" fill="none" xmlns="http://www.w3.org/2000/svg">
<rect x="0.647051" y="0.637255" width="102.706" height="43.7255" rx="21.8627" fill="white" fill-opacity="0.1"/>
<rect x="0.647051" y="0.637255" width="102.706" height="43.7255" rx="21.8627" stroke="#171717" stroke-width="1.27451"/>
<path d="M36.1445 14.7012H38.498V28.5H36.1445V22.6797H29.3769V28.5H27.0039V14.7012H29.3769V20.4434H36.1445V14.7012ZM51.1277 23.4219C51.1277 23.7214 51.1082 24.0143 51.0691 24.3008H42.8074C42.9897 25.0365 43.3738 25.6257 43.9598 26.0684C44.5522 26.5046 45.2618 26.7227 46.0887 26.7227C46.7267 26.7227 47.3191 26.5892 47.866 26.3223C48.4194 26.0553 48.8491 25.7201 49.1551 25.3164L50.6687 26.6152C50.1414 27.2793 49.4708 27.8001 48.657 28.1777C47.8497 28.5553 46.9741 28.7441 46.0301 28.7441C44.4155 28.7441 43.0711 28.2298 41.9969 27.2012C40.9292 26.1725 40.3953 24.8932 40.3953 23.3633C40.3953 22.3737 40.6297 21.4753 41.0984 20.668C41.5672 19.8542 42.2117 19.2161 43.032 18.7539C43.8588 18.2917 44.7736 18.0605 45.7762 18.0605C47.3061 18.0605 48.5789 18.5716 49.5945 19.5938C50.6167 20.6094 51.1277 21.8854 51.1277 23.4219ZM45.7566 20.082C45.034 20.082 44.4025 20.3001 43.8621 20.7363C43.3282 21.1725 42.9702 21.7487 42.7879 22.4648H48.7351C48.5659 21.7487 48.2078 21.1725 47.6609 20.7363C47.1206 20.3001 46.4858 20.082 45.7566 20.082ZM52.7809 28.5V14.0957H55.0269V28.5H52.7809ZM57.3832 28.5V14.0957H59.6293V28.5H57.3832ZM66.8293 28.7441C65.2733 28.7441 63.9745 28.2331 62.9328 27.2109C61.8911 26.1888 61.3703 24.9193 61.3703 23.4023C61.3703 21.8854 61.8911 20.6159 62.9328 19.5938C63.9745 18.5716 65.2733 18.0605 66.8293 18.0605C67.8449 18.0605 68.7694 18.2949 69.6027 18.7637C70.4426 19.2259 71.1001 19.8672 71.5754 20.6875C72.0506 21.5013 72.2883 22.4062 72.2883 23.4023C72.2883 24.3984 72.0506 25.3066 71.5754 26.127C71.1001 26.9408 70.4426 27.582 69.6027 28.0508C68.7694 28.513 67.8449 28.7441 66.8293 28.7441ZM64.5734 25.668C65.1789 26.2734 65.9309 26.5762 66.8293 26.5762C67.7277 26.5762 68.4732 26.2734 69.0656 25.668C69.6646 25.056 69.9641 24.3008 69.9641 23.4023C69.9641 22.4974 69.6646 21.7422 69.0656 21.1367C68.4732 20.5247 67.7277 20.2188 66.8293 20.2188C65.9309 20.2188 65.1789 20.5247 64.5734 21.1367C63.968 21.7487 63.6652 22.5039 63.6652 23.4023C63.6652 24.3008 63.968 25.056 64.5734 25.668ZM74.293 24.3203L74.1562 18.0996V14.7012H76.5293V18.0996L76.3926 24.3203H74.293ZM75.3281 28.6562C74.8854 28.6562 74.5176 28.5098 74.2246 28.2168C73.9381 27.9238 73.7949 27.5592 73.7949 27.123C73.7949 26.6803 73.9414 26.3125 74.2344 26.0195C74.5273 25.7266 74.8919 25.5801 75.3281 25.5801C75.7773 25.5801 76.1484 25.7266 76.4414 26.0195C76.7409 26.3125 76.8906 26.6803 76.8906 27.123C76.8906 27.5658 76.7409 27.9336 76.4414 28.2266C76.1484 28.513 75.7773 28.6562 75.3281 28.6562Z" fill="#171717"/>
</svg>
