<svg width="1920" height="112" viewBox="0 0 1920 112" fill="none" xmlns="http://www.w3.org/2000/svg">
<path d="M335.333 65.9467V52.4527C335.333 49.7017 337.521 47.4618 340.254 47.4053H354.144C354.574 47.4053 354.926 47.7577 354.926 48.1896V51.4297C354.926 51.7138 354.699 51.9525 354.405 51.9525H341.047C340.639 51.9525 340.31 52.2823 340.31 52.6918V54.1924C340.31 54.5899 340.628 54.9197 341.025 54.9308H353.146C353.554 54.9308 353.883 55.2605 353.883 55.67V58.4324C353.883 58.8415 353.554 59.1712 353.146 59.1712H341.047C340.639 59.1712 340.31 59.501 340.31 59.9103V61.3881C340.31 61.7976 340.639 62.1274 341.047 62.1274H354.711C355.074 62.1274 355.21 62.2519 355.051 62.5701C354.427 63.8774 353.996 64.7872 353.509 65.8102C353.135 66.5946 352.806 66.7084 352.466 66.7084H336.115C335.684 66.7311 335.333 66.379 335.333 65.9467Z" fill="#171717"/>
<path d="M357.319 65.9472V48.1788C357.319 47.7466 357.67 47.3945 358.101 47.3945H361.083C361.514 47.3945 361.865 47.7466 361.865 48.1788V61.4454C361.888 61.8433 362.205 62.1502 362.602 62.1502H375.427C375.79 62.1502 375.926 62.2752 375.767 62.5935L374.225 65.8335C373.851 66.6179 373.522 66.7316 373.182 66.7316H358.101C357.67 66.7316 357.319 66.3795 357.319 65.9472Z" fill="#171717"/>
<path d="M369.44 51.1572V44.8136C369.44 44.3817 369.791 44.0293 370.222 44.0293H373.318C373.748 44.0293 374.1 44.3817 374.1 44.8136V46.6897C374.123 47.0761 374.441 47.3943 374.837 47.3943H385.405C388.705 47.3943 390.19 51.0207 388.988 53.6014C388.636 54.3519 383.024 66.311 383.024 66.311C382.888 66.6068 382.684 66.7317 382.31 66.7317H378.522C377.547 66.7317 377.355 66.2315 377.683 65.5265C377.683 65.5265 383.557 53.0214 383.659 52.8054C383.908 52.2713 383.398 51.9531 382.899 51.9531H370.222C369.791 51.9416 369.44 51.5895 369.44 51.1572Z" fill="#171717"/>
<path d="M400.701 66.731H387.253C386.278 66.731 386.085 66.2309 386.414 65.5264C386.414 65.5264 387.628 62.9457 387.775 62.6271C387.922 62.3202 388.081 62.1609 388.58 62.1609H396.007C396.007 62.1609 392.979 48.7352 392.877 48.3149C392.764 47.837 393.161 47.4053 393.648 47.4053H397.186C397.526 47.4053 397.923 47.6327 398.002 47.9397C398.059 48.2008 401.064 61.6835 401.121 61.9337C401.257 62.5473 401.461 62.5932 401.733 61.9678C401.812 61.7974 407.708 48.099 407.822 47.837C407.935 47.5757 408.173 47.4053 408.491 47.4053H412.539C413.072 47.4053 413.423 48.0418 413.163 48.6442C412.924 49.1787 407.176 62.093 407.017 62.4568C405.418 65.9806 403.694 66.731 400.701 66.731Z" fill="#171717"/>
<path d="M428.277 65.9133C428.277 66.3684 427.915 66.732 427.461 66.732H424.377C423.923 66.732 423.56 66.3684 423.56 65.9133V63.2193H414.806L413.73 65.5157C413.288 66.4589 412.936 66.732 412.21 66.732H409.625C408.65 66.732 408.457 66.2203 408.786 65.5157L415.918 50.1685C416.723 48.4408 418.356 47.3945 419.943 47.3945H427.461C427.915 47.3945 428.277 47.7582 428.277 48.2132V65.9133ZM423.708 52.3854C423.708 51.9758 423.379 51.6462 422.97 51.6462H420.839C420.385 51.6462 420.159 51.7827 420.045 52.033C419.977 52.1695 416.802 58.9446 416.802 58.9446H422.97C423.368 58.9446 423.685 58.6376 423.708 58.2513V52.3854Z" fill="#171717"/>
<path d="M431.248 65.9472V48.1788C431.248 47.7466 431.6 47.3945 432.03 47.3945H435.013C435.444 47.3945 435.795 47.7466 435.795 48.1788V61.4454C435.818 61.8433 436.135 62.1502 436.532 62.1502H449.356C449.719 62.1502 449.856 62.2752 449.696 62.5935L448.143 65.8335C447.769 66.6179 447.44 66.7316 447.099 66.7316H432.019C431.6 66.7316 431.248 66.3795 431.248 65.9472Z" fill="#171717"/>
<path d="M443.392 51.1572V44.8136C443.392 44.3817 443.743 44.0293 444.174 44.0293H447.27C447.701 44.0293 448.052 44.3817 448.052 44.8136V46.6897C448.075 47.0761 448.392 47.3943 448.789 47.3943H459.345C462.645 47.3943 464.131 51.0207 462.929 53.6014C462.577 54.3519 456.964 66.311 456.964 66.311C456.829 66.6068 456.624 66.7317 456.25 66.7317H452.463C451.488 66.7317 451.295 66.2315 451.624 65.5265C451.624 65.5265 457.497 53.0214 457.599 52.8054C457.849 52.2713 457.338 51.9531 456.84 51.9531H444.174C443.743 51.9416 443.392 51.5895 443.392 51.1572Z" fill="#171717"/>
<path d="M485.085 50.5769C484.563 51.691 479.563 62.4679 479.563 62.4679C479.563 62.4679 481.321 65.5714 481.456 65.8105C481.762 66.3446 481.706 66.7422 480.878 66.7422H477.318C476.762 66.7422 476.422 66.5266 476.207 66.1513C476.104 65.9582 470.865 56.7385 470.865 56.7385C470.865 56.7385 467.838 63.1953 467.566 63.764C467.18 64.5823 466.41 65.5826 465.413 66.1283C464.459 66.6515 463.586 66.7422 462.112 66.7422H461.942C460.877 66.7422 460.967 66.1854 461.148 65.799C461.263 65.5602 467.884 51.4407 467.884 51.4407C467.884 51.4407 466.172 48.4286 466.058 48.2238C465.73 47.6439 466.058 47.3936 466.602 47.3936H470.004C470.695 47.3936 471.206 47.7121 471.512 48.2581C471.717 48.6218 476.558 57.1476 476.558 57.1476C476.558 57.1476 480.798 48.019 480.901 47.8031C481.037 47.5188 481.298 47.3936 481.66 47.3936H484.575C485.572 47.3936 486.297 47.9623 485.085 50.5769Z" fill="#171717"/>
<path d="M485.731 62.1504H515.031C515.563 62.1504 515.79 62.5828 515.542 63.1167L514.306 65.7654C514.056 66.3002 513.421 66.7317 512.888 66.7317H483.599C483.067 66.7317 482.84 66.3002 483.089 65.7654L484.324 63.1167C484.574 62.5828 485.198 62.1504 485.731 62.1504Z" fill="#171717"/>
<path d="M492.636 47.3945H521.936C522.469 47.3945 522.696 47.8269 522.447 48.3608L521.211 51.0095C520.961 51.5442 520.326 51.9758 519.793 51.9758H490.494C489.961 51.9758 489.734 51.5442 489.983 51.0095L491.22 48.3608C491.468 47.8269 492.103 47.3945 492.636 47.3945Z" fill="#171717"/>
<path d="M503.556 53.488L504.088 54.909H506.107C506.538 54.909 506.641 55.2503 506.22 55.7161L504.939 57.1943L505.46 58.5807C505.586 58.888 505.608 59.2288 504.872 59.2288H503.17L501.888 60.7065C501.571 61.0706 501.458 61.0822 501.289 60.6271L500.766 59.2288H498.703C498.272 59.2288 498.171 58.888 498.589 58.4216L499.927 56.9097L499.417 55.5572C499.304 55.2503 499.27 54.909 500.007 54.909H501.663L502.966 53.4082C503.273 53.0445 503.386 53.0332 503.556 53.488Z" fill="#171717"/>
<path d="M253.615 62.4385C252.345 64.0109 250.478 64.7971 248.612 64.7971C245.028 64.7971 242.041 62.1765 242.041 57.2235C242.041 52.5063 245.127 49.7283 248.562 49.7283C250.553 49.7283 252.395 50.5146 253.664 52.1394L254.884 50.4622C253.366 48.7588 251.2 47.7891 248.612 47.7891C243.659 47.7891 240 51.8249 240 57.2235C240 62.9365 243.509 66.7364 248.612 66.7364C251.151 66.7364 253.366 65.6357 254.909 63.8537L253.615 62.4385ZM257.522 66.4743H259.687L261.529 60.971H268.523L270.415 66.4743H272.58L266.059 48.0512H264.118L257.522 66.4743ZM262.151 59.0841L264.989 50.6456L267.876 59.0841H262.151ZM276.91 66.4743H278.852V58.9269H280.918C281.117 58.9269 281.291 58.9269 281.49 58.9007L285.672 66.4743H287.986L283.407 58.5862C285.622 57.9048 287.24 56.2276 287.24 53.3449C287.24 49.2829 284.303 48.0512 280.918 48.0512H276.91V66.4743ZM280.918 49.9381C283.805 49.9381 285.199 51.1698 285.199 53.4759C285.199 55.5462 283.805 57.04 280.943 57.04H278.852V49.9381H280.918ZM301.004 58.429H306.379C306.081 62.5434 303.418 64.7971 300.307 64.7971C296.673 64.7971 293.661 62.1765 293.661 57.2235C293.661 52.5063 296.747 49.7283 300.257 49.7283C302.522 49.7283 304.264 50.7505 305.459 51.9822L306.753 50.3836C305.285 48.9684 303.169 47.7891 300.307 47.7891C295.279 47.7891 291.62 51.8249 291.62 57.2235C291.62 62.9365 295.204 66.7364 300.307 66.7364C305.16 66.7364 308.446 62.7268 308.446 57.4855V56.5421H301.004V58.429ZM321.089 66.7364C325.943 66.7364 329.701 62.5958 329.701 57.2235C329.701 51.6677 326.142 47.7891 321.089 47.7891C316.112 47.7891 312.403 51.8249 312.403 57.2235C312.403 62.9365 315.987 66.7364 321.089 66.7364ZM321.089 64.7971C317.43 64.7971 314.444 62.1765 314.444 57.2235C314.444 52.5063 317.53 49.7283 321.039 49.7283C324.573 49.7283 327.635 52.4539 327.66 57.2759C327.66 62.0716 324.425 64.7971 321.089 64.7971Z" fill="#171717"/>
<g clip-path="url(#clip0_33_6847)">
<path d="M677.842 66.6483V52.719C677.842 49.8793 680.098 47.5672 682.914 47.5088H697.228C697.672 47.5088 698.035 47.8726 698.035 48.3184V51.663C698.035 51.9563 697.8 52.2027 697.497 52.2027H683.731C683.311 52.2027 682.972 52.5431 682.972 52.9659V54.5148C682.972 54.9252 683.299 55.2656 683.709 55.277H696.2C696.62 55.277 696.959 55.6174 696.959 56.0402V58.8916C696.959 59.3139 696.62 59.6543 696.2 59.6543H683.731C683.311 59.6543 682.972 59.9947 682.972 60.4172V61.9426C682.972 62.3654 683.311 62.7058 683.731 62.7058H697.812C698.186 62.7058 698.326 62.8343 698.163 63.1628C697.52 64.5123 697.076 65.4514 696.574 66.5074C696.188 67.3171 695.849 67.4346 695.499 67.4346H678.649C678.205 67.458 677.842 67.0945 677.842 66.6483Z" fill="#171717"/>
<path d="M700.5 66.6482V48.3067C700.5 47.8605 700.862 47.4971 701.306 47.4971H704.379C704.824 47.4971 705.186 47.8605 705.186 48.3067V62.0011C705.209 62.4119 705.536 62.7288 705.945 62.7288H719.161C719.535 62.7288 719.675 62.8578 719.512 63.1863L717.923 66.5309C717.537 67.3405 717.198 67.4579 716.848 67.4579H701.306C700.862 67.4579 700.5 67.0944 700.5 66.6482Z" fill="#171717"/>
<path d="M712.992 51.3813V44.8331C712.992 44.3872 713.354 44.0234 713.798 44.0234H716.988C717.432 44.0234 717.795 44.3872 717.795 44.8331V46.7696C717.818 47.1686 718.145 47.497 718.554 47.497H729.444C732.845 47.497 734.376 51.2404 733.137 53.9043C732.775 54.679 726.991 67.0239 726.991 67.0239C726.851 67.3292 726.64 67.4582 726.255 67.4582H722.352C721.347 67.4582 721.148 66.9418 721.487 66.2141C721.487 66.2141 727.54 53.3056 727.646 53.0826C727.902 52.5313 727.376 52.2029 726.862 52.2029H713.798C713.354 52.1909 712.992 51.8275 712.992 51.3813Z" fill="#171717"/>
<path d="M745.207 67.4579H731.348C730.344 67.4579 730.145 66.9417 730.484 66.2144C730.484 66.2144 731.735 63.5505 731.886 63.2217C732.038 62.9048 732.201 62.7404 732.716 62.7404H740.369C740.369 62.7404 737.249 48.8817 737.144 48.4477C737.027 47.9545 737.437 47.5088 737.939 47.5088H741.585C741.935 47.5088 742.345 47.7436 742.426 48.0604C742.485 48.33 745.581 62.2476 745.64 62.5059C745.78 63.1393 745.99 63.1867 746.27 62.5411C746.352 62.3651 752.429 48.2249 752.546 47.9545C752.662 47.6847 752.908 47.5088 753.235 47.5088H757.407C757.956 47.5088 758.318 48.1659 758.049 48.7876C757.804 49.3394 751.88 62.6703 751.716 63.0458C750.068 66.6834 748.292 67.4579 745.207 67.4579Z" fill="#171717"/>
<path d="M773.625 66.6132C773.625 67.083 773.251 67.4583 772.784 67.4583H769.605C769.138 67.4583 768.764 67.083 768.764 66.6132V63.8323H759.743L758.633 66.2028C758.178 67.1764 757.815 67.4583 757.067 67.4583H754.403C753.398 67.4583 753.199 66.9301 753.538 66.2028L760.889 50.3605C761.718 48.5771 763.401 47.4971 765.037 47.4971H772.784C773.251 47.4971 773.625 47.8725 773.625 48.3422V66.6132ZM768.916 52.6489C768.916 52.2261 768.577 51.8859 768.156 51.8859H765.959C765.492 51.8859 765.259 52.0268 765.142 52.2851C765.072 52.4261 761.8 59.4197 761.8 59.4197H768.156C768.566 59.4197 768.893 59.1029 768.916 58.7041V52.6489Z" fill="#171717"/>
<path d="M776.688 66.6482V48.3067C776.688 47.8605 777.05 47.4971 777.494 47.4971H780.567C781.011 47.4971 781.373 47.8605 781.373 48.3067V62.0011C781.397 62.4119 781.724 62.7288 782.133 62.7288H795.349C795.723 62.7288 795.864 62.8578 795.699 63.1863L794.098 66.5309C793.713 67.3405 793.374 67.4579 793.023 67.4579H777.482C777.05 67.4579 776.688 67.0944 776.688 66.6482Z" fill="#171717"/>
<path d="M789.202 51.3813V44.8331C789.202 44.3872 789.564 44.0234 790.008 44.0234H793.198C793.643 44.0234 794.005 44.3872 794.005 44.8331V46.7696C794.028 47.1686 794.355 47.497 794.764 47.497H805.643C809.043 47.497 810.574 51.2404 809.336 53.9043C808.974 54.679 803.189 67.0239 803.189 67.0239C803.049 67.3292 802.839 67.4582 802.453 67.4582H798.55C797.545 67.4582 797.347 66.9418 797.685 66.2141C797.685 66.2141 803.738 53.3056 803.844 53.0826C804.101 52.5313 803.574 52.2029 803.061 52.2029H790.008C789.564 52.1909 789.202 51.8275 789.202 51.3813Z" fill="#171717"/>
<path d="M832.169 50.7831C831.631 51.9331 826.479 63.0577 826.479 63.0577C826.479 63.0577 828.29 66.2613 828.43 66.5081C828.745 67.0594 828.687 67.4699 827.834 67.4699H824.164C823.592 67.4699 823.242 67.2473 823.02 66.8599C822.914 66.6605 817.515 57.1435 817.515 57.1435C817.515 57.1435 814.396 63.8085 814.115 64.3956C813.717 65.2403 812.924 66.2728 811.896 66.8362C810.913 67.3763 810.013 67.4699 808.495 67.4699H808.319C807.222 67.4699 807.315 66.8951 807.501 66.4962C807.619 66.2498 814.443 51.6748 814.443 51.6748C814.443 51.6748 812.679 48.5655 812.561 48.3541C812.222 47.7555 812.561 47.4971 813.122 47.4971H816.627C817.34 47.4971 817.866 47.8258 818.181 48.3895C818.393 48.7649 823.382 57.5658 823.382 57.5658C823.382 57.5658 827.751 48.1427 827.857 47.9199C827.997 47.6264 828.266 47.4971 828.64 47.4971H831.644C832.671 47.4971 833.419 48.0842 832.169 50.7831Z" fill="#171717"/>
<path d="M832.835 62.7295H863.03C863.579 62.7295 863.813 63.1758 863.557 63.727L862.283 66.4611C862.025 67.0132 861.371 67.4586 860.822 67.4586H830.638C830.089 67.4586 829.856 67.0132 830.113 66.4611L831.386 63.727C831.643 63.1758 832.286 62.7295 832.835 62.7295Z" fill="#171717"/>
<path d="M839.951 47.4971H870.146C870.695 47.4971 870.929 47.9434 870.672 48.4945L869.398 51.2287C869.141 51.7806 868.486 52.2261 867.938 52.2261H837.744C837.194 52.2261 836.96 51.7806 837.217 51.2287L838.491 48.4945C838.747 47.9434 839.402 47.4971 839.951 47.4971Z" fill="#171717"/>
<path d="M851.203 53.7873L851.752 55.2541H853.832C854.277 55.2541 854.382 55.6064 853.949 56.0872L852.629 57.6131L853.166 59.0442C853.295 59.3614 853.319 59.7133 852.559 59.7133H850.806L849.485 61.2387C849.158 61.6145 849.042 61.6265 848.867 61.1567L848.329 59.7133H846.202C845.758 59.7133 845.654 59.3614 846.085 58.88L847.463 57.3193L846.938 55.9233C846.822 55.6064 846.787 55.2541 847.546 55.2541H849.252L850.596 53.7049C850.912 53.3295 851.028 53.3179 851.203 53.7873Z" fill="#171717"/>
</g>
<path d="M1051.2 45.4131C1051.2 45.4131 1051.46 46.9334 1050.66 50.8338L1049.1 58.3634H1054.41L1055.96 50.8338C1056.7 47.2934 1056.51 45.4131 1056.51 45.4131H1051.19H1051.2Z" fill="#171717"/>
<path d="M1088.91 45.4124L1087.8 50.7865H1092.14C1093.99 50.7865 1095.1 51.7267 1094.07 56.6561C1093.17 61.0477 1091.73 62.5257 1089.76 62.5257H1085.36L1084.25 67.904H1090.97C1094.76 67.904 1097.86 64.4102 1099.47 56.6561C1101.21 48.2329 1098.78 45.4082 1095.63 45.4082H1088.9L1088.91 45.4124Z" fill="#171717"/>
<path d="M1059.07 41.2578C1059.04 41.6898 1059.07 42.3758 1058.97 42.884C1058.8 43.9131 1058.54 45.4419 1058.54 45.4419C1058.1 48.6562 1058.82 50.8202 1062.17 50.8202H1063.78C1066.67 50.5958 1065.39 52.5904 1064.44 55.0339L1059.61 67.9419H1065.14L1070.52 53.4204C1072.53 47.9828 1070.57 45.5351 1068.55 45.5351C1066.98 45.5351 1066.36 45.4927 1065.07 45.4927C1063.7 45.4927 1063.91 44.2476 1064.13 43.0534C1064.25 42.3674 1064.21 41.6601 1064.26 41.2663H1059.07L1059.07 41.2578Z" fill="#171717"/>
<path d="M1031.22 60.286C1030.22 64.7666 1028.27 63.6909 1026.93 63.458C1026.55 65.1392 1026 67.6802 1026 67.6802C1026 67.6802 1028.39 68.1375 1030.34 68.091C1033.19 68.0274 1035.14 66.7316 1036.56 59.9303L1038.45 50.7872H1040.36C1042.71 50.7872 1042.69 51.8162 1042.05 54.912L1039.36 67.9089H1044.67L1047.57 53.7728C1049.24 46.1373 1046.8 45.43 1043.2 45.43L1034.25 45.4131L1031.22 60.2818V60.286Z" fill="#171717"/>
<path d="M1073.59 41.2578C1073.56 41.6898 1073.59 42.3758 1073.49 42.884C1073.31 43.9131 1073.06 45.4419 1073.06 45.4419C1072.62 48.6562 1073.34 50.8202 1076.7 50.8202H1078.31C1081.18 50.5958 1079.91 52.5904 1078.96 55.0339L1074.13 67.9419H1079.66L1085.04 53.4204C1087.05 47.9828 1085.09 45.5351 1083.07 45.5351C1081.5 45.5351 1080.87 45.4927 1079.59 45.4927C1078.22 45.4927 1078.43 44.2476 1078.65 43.0534C1078.77 42.3674 1078.74 41.6601 1078.78 41.2663H1073.6L1073.59 41.2578Z" fill="#171717"/>
<path d="M1119.07 41.8004L1112.17 47.5599C1111.87 47.8182 1111.5 47.9452 1111.11 47.9452H1106.5C1106.17 47.9452 1105.8 48.229 1105.74 48.5593L1104.84 52.8492C1104.77 53.1838 1105.01 53.4421 1105.34 53.4421H1113.56C1114.45 53.4421 1114.91 53.0271 1115 52.9466L1119.97 48.8176C1120.11 48.6821 1120.3 48.6228 1120.51 48.6228C1120.75 48.6228 1120.96 48.7202 1121.12 48.8854L1124.4 52.7815C1124.96 53.4464 1125.68 53.4591 1125.98 53.4591H1133.34C1133.67 53.4591 1134 53.188 1134.07 52.8535L1134.99 48.5466C1135.05 48.2163 1134.84 47.9495 1134.51 47.9495L1128.3 47.941C1128.04 47.941 1127.82 47.8309 1127.7 47.6615L1122.78 41.8258C1122.37 41.3176 1121.77 41 1121.02 41C1120.14 41 1119.6 41.3515 1119.07 41.8046" fill="#171717"/>
<path d="M1104.24 58.5495C1103.91 58.5495 1103.58 58.8163 1103.51 59.1508L1102.59 63.4577C1102.52 63.7881 1102.74 64.0591 1103.07 64.0591H1109.28C1109.53 64.0633 1109.76 64.1734 1109.88 64.3471L1114.8 70.1785C1115.21 70.6867 1115.81 71.0001 1116.56 71.0001C1117.43 71.0001 1117.97 70.6486 1118.51 70.1997L1125.41 64.4402C1125.71 64.1777 1126.08 64.0506 1126.47 64.0506H1131.08C1131.41 64.0506 1131.78 63.7626 1131.85 63.4366L1132.75 59.1424C1132.82 58.8078 1132.58 58.5537 1132.25 58.5537H1124.03C1123.13 58.5537 1122.68 58.9687 1122.59 59.0492L1117.62 63.174C1117.47 63.3137 1117.29 63.373 1117.08 63.373C1116.84 63.373 1116.62 63.2756 1116.48 63.1105L1113.19 59.2144C1112.62 58.5495 1111.91 58.541 1111.6 58.541H1104.24L1104.24 58.5495Z" fill="#171717"/>
<path d="M1341.66 58.2959C1341.88 58.6669 1341.98 58.2977 1342.11 58.0484C1343.23 55.8152 1345.07 48.9065 1346.42 47.5467C1347.55 46.417 1349.49 46.5478 1350.71 47.4891C1352.74 49.0546 1351.6 51.293 1350.83 53.1845C1348.99 57.6683 1346.96 61.8825 1344.67 66.5487C1342.56 68.9301 1340.08 68.6041 1338.52 65.8009C1335.96 61.1898 1334.04 55.3637 1331.83 50.526C1331.46 48.7426 1332.29 46.9958 1334.07 46.7918C1336.31 46.5356 1337.15 47.1457 1338.08 49.0651C1339.46 51.9171 1340.39 55.3619 1341.66 58.2977L1341.66 58.2959Z" fill="#171717"/>
<path d="M1306.35 65.0206C1303.92 68.3826 1299.13 68.893 1295.43 67.4742C1289.22 65.0967 1288 56.6303 1291.16 51.4082C1294.38 46.0841 1302.12 45.4854 1306.34 49.9669C1306.35 48.9131 1306.08 47.2503 1307.49 47.0357C1308.7 46.8523 1309.32 47.323 1309.49 48.4927C1309.13 54.7547 1309.95 61.5063 1309.49 67.7095C1308.85 76.2936 1299.15 78.2333 1292.46 74.9145C1291.5 74.437 1289.04 72.7015 1290.6 71.6183C1292.05 70.6147 1293.66 72.3467 1294.96 72.961C1298.37 74.5754 1303.62 74.2259 1305.57 70.5628C1305.81 70.1077 1306.35 68.8429 1306.35 68.3964V65.0223V65.0206ZM1298.29 49.3163C1291.84 50.3112 1291.18 61.9026 1296.19 64.9895C1299.5 67.0347 1304.19 65.7075 1305.8 62.1396C1306.63 60.3038 1306.64 54.971 1305.86 53.1368C1304.59 50.1503 1301.43 48.8301 1298.29 49.3163H1298.29Z" fill="#171717"/>
<path d="M1319.43 46.8364C1334.78 45.0932 1335.22 66.6881 1322.67 67.9485C1307.88 69.433 1307.36 48.208 1319.43 46.8364ZM1320.65 49.6178C1312.44 50.3279 1312.72 65.2175 1321.3 65.155C1330.13 65.0908 1329.95 48.8139 1320.65 49.6178Z" fill="#171717"/>
<path d="M1351.23 39.4436C1356.82 38.4999 1356.99 46.8578 1351.2 45.9696C1349.76 45.7497 1348.56 43.8468 1348.65 42.4564C1348.75 41.1664 1349.91 39.6652 1351.23 39.4436Z" fill="#171717"/>
<path d="M1354.34 32.0899C1356.11 31.7333 1357.83 32.4413 1358.44 34.1553C1359.57 37.2716 1356.22 39.8349 1353.4 38.1122C1351.05 36.6738 1351.69 32.6239 1354.34 32.0881V32.0899Z" fill="#171717"/>
<circle cx="1354.8" cy="65.7434" r="2.39766" fill="#171717"/>
<circle cx="1363.8" cy="49.3684" r="2.39766" fill="#171717"/>
<rect x="1370.06" y="46.7363" width="4.44444" height="21.2865" rx="2.22222" fill="#171717"/>
<rect x="1361.64" y="52.9365" width="4.44444" height="15.0877" rx="2.22222" fill="#171717"/>
<path d="M1695.95 67.3933C1694.2 67.3933 1692.53 67.3696 1690.85 67.4075C1690.33 67.4185 1690.27 67.0779 1690.13 66.7514C1687.98 61.6917 1685.83 56.632 1683.68 51.5724C1683.57 51.3137 1683.45 51.0598 1683.29 50.7002C1681.99 53.8846 1680.73 56.9601 1679.47 60.0357C1678.56 62.2658 1677.63 64.4897 1676.76 66.734C1676.55 67.2734 1676.27 67.4185 1675.73 67.4059C1674.11 67.3696 1672.48 67.3933 1670.83 67.3933C1668.68 62.9882 1666.53 58.5988 1664.33 54.0912C1665.48 54.0912 1666.49 54.1164 1667.5 54.0864C1669.39 54.0281 1670.54 52.9067 1670.52 51.1812C1670.5 49.7113 1669.57 48.5631 1668.11 48.4669C1666.57 48.3659 1665.03 48.4448 1663.42 48.4448V67.3602H1658.54C1658.54 67.07 1658.54 66.8129 1658.54 66.5574C1658.54 60.6697 1658.55 54.782 1658.53 48.8943C1658.53 48.3801 1658.67 48.0205 1659.05 47.6735C1660.22 46.62 1661.33 45.5049 1662.51 44.4608C1662.79 44.2132 1663.23 44.0192 1663.6 44.0223C1665.64 44.0412 1667.71 43.9214 1669.71 44.24C1672.52 44.6895 1674.43 46.4686 1675.15 49.2697C1675.82 51.9115 1675.34 54.3451 1673.19 56.2236C1672.65 56.6967 1671.99 57.0374 1671.34 57.4711C1671.95 58.6493 1672.57 59.8543 1673.25 61.1807C1673.41 60.8495 1673.52 60.6098 1673.63 60.3669C1675.89 55.1526 1678.15 49.9416 1680.38 44.7194C1680.61 44.1848 1680.87 43.9782 1681.47 44.0018C1682.8 44.0554 1684.14 44.0286 1685.48 44.0113C1685.86 44.0065 1686.07 44.0822 1686.24 44.4813C1689.45 52.0219 1692.67 59.5546 1695.89 67.0889C1695.92 67.1567 1695.92 67.2372 1695.95 67.398V67.3933ZM1670.77 57.2046C1670.9 57.1368 1670.99 57.0879 1671.09 57.0469C1673.85 55.8182 1675.21 53.6243 1675.02 50.7128C1674.83 47.8455 1673 45.5096 1670.25 44.721C1668 44.0728 1665.69 44.4576 1663.45 44.3583V47.9858C1664.2 47.9858 1664.88 47.9858 1665.56 47.9858C1666.24 47.9858 1666.92 47.9669 1667.6 47.9953C1669.59 48.0789 1670.93 49.3927 1670.93 51.238C1670.92 53.1212 1669.54 54.4208 1667.5 54.4492C1666.68 54.4602 1665.86 54.4508 1664.93 54.4508C1666.96 58.5941 1668.93 62.6333 1670.91 66.6678C1670.98 66.8129 1671.15 67.01 1671.28 67.0132C1672.77 67.0369 1674.27 67.029 1675.85 67.029C1674.11 63.6758 1672.45 60.4505 1670.77 57.2046ZM1676.24 66.9438C1679.33 59.3764 1682.39 51.9036 1685.46 44.3725C1684.04 44.3725 1682.73 44.3488 1681.43 44.3945C1681.19 44.4024 1680.86 44.6437 1680.77 44.8614C1678.39 50.3043 1676.03 55.7567 1673.69 61.2154C1673.59 61.4394 1673.59 61.7879 1673.69 62.0008C1674.5 63.6159 1675.34 65.2136 1676.24 66.9422V66.9438ZM1685.83 44.5081C1685.06 46.3992 1684.34 48.1136 1683.66 49.8406C1683.58 50.0488 1683.6 50.3564 1683.69 50.5693C1685.94 55.9207 1688.21 61.2659 1690.49 66.6063C1690.57 66.7829 1690.79 67.0116 1690.95 67.0164C1692.41 67.0479 1693.86 67.0353 1695.45 67.0353C1692.24 59.5073 1689.07 52.0866 1685.83 44.5097V44.5081ZM1663.01 44.4971C1661.72 45.7068 1660.61 46.7761 1659.47 47.7997C1659.06 48.1656 1658.91 48.5426 1658.91 49.0883C1658.93 54.7867 1658.92 60.4852 1658.92 66.1836C1658.92 66.4422 1658.92 66.6993 1658.92 66.9817H1663.01V44.4971H1663.01Z" fill="#171717"/>
<path d="M1530.07 62.8208C1530.56 62.9285 1530.98 63.0685 1531.42 63.1007C1532.49 63.1869 1533.17 62.697 1533.18 61.5827C1533.21 57.4672 1533.19 53.349 1533.19 49.0962H1530.33V44.4586C1534.74 44.4586 1539.11 44.4397 1543.47 44.472C1544.58 44.4801 1545.7 44.5716 1546.8 44.7385C1549.08 45.0884 1550.31 46.55 1550.7 48.7517C1550.87 49.7611 1550.96 50.7974 1550.97 51.8229C1550.99 56.5763 1550.98 61.327 1550.98 66.0804V67.3078H1544.49C1544.49 64.8099 1544.49 62.3579 1544.49 59.9058C1544.49 57.3945 1544.5 54.8832 1544.48 52.3746C1544.47 49.5269 1544.01 49.0801 1541.23 49.0801C1540.79 49.0801 1540.34 49.0801 1539.79 49.0801C1539.76 49.43 1539.7 49.7692 1539.7 50.1056C1539.7 53.8712 1539.71 57.6395 1539.69 61.405C1539.67 66.4707 1536.08 69.0735 1531.19 67.5823C1530.45 67.3562 1529.96 67.0063 1530.05 66.0696C1530.14 65.0037 1530.07 63.9244 1530.07 62.8235V62.8208Z" fill="#171717"/>
<path d="M1636.26 67.3096H1618.38V44.5815C1622.75 44.5815 1627.12 44.3931 1631.46 44.6488C1634.34 44.8184 1635.76 46.4764 1636.03 49.3672C1636.26 51.7681 1636.23 54.1933 1636.26 56.6077C1636.29 60.1391 1636.27 63.6678 1636.27 67.3096H1636.26ZM1629.9 63.0245C1629.9 58.9575 1629.9 55.0142 1629.9 51.071C1629.9 49.8302 1629.39 48.9581 1628.07 48.8666C1626.93 48.7885 1625.78 48.8504 1624.63 48.8504V63.0245H1629.9Z" fill="#171717"/>
<path d="M1607.97 67.3644C1605.63 67.3644 1603.53 67.4075 1601.44 67.3241C1601.06 67.3079 1600.55 66.8503 1600.35 66.4654C1598.7 63.292 1597.12 60.089 1595.51 56.8967C1595.38 56.6249 1595.23 56.3557 1594.72 56.0354C1594.61 56.5226 1594.41 57.0098 1594.41 57.4996C1594.38 60.7242 1594.39 63.9461 1594.39 67.2675H1588.11C1588.11 64.2233 1587.95 61.1791 1588.16 58.1645C1588.35 55.4244 1590.3 53.8525 1592.84 52.7516C1590.9 50.0142 1589.02 47.3711 1586.95 44.456C1588.6 44.456 1590.06 44.631 1591.46 44.4184C1594 44.0308 1595.44 45.0105 1596.42 47.3495C1597.28 49.4006 1598.53 51.2847 1599.61 53.2388C1599.82 53.6022 1600.07 53.9413 1600.59 54.2186V44.5556H1607.03C1607.03 47.2849 1607.21 50.0196 1606.97 52.7139C1606.8 54.625 1605.48 56.0166 1603.77 56.9344C1603.3 57.1847 1602.83 57.4189 1602.28 57.6961C1604.15 60.8669 1605.99 63.9999 1607.97 67.3617V67.3644Z" fill="#171717"/>
<path d="M1583.2 67.3268H1576.65V49.0723H1569.55V44.5342H1585.76V48.9807H1583.21V67.3268H1583.2Z" fill="#171717"/>
<path d="M1553.46 49.0798V44.7221C1556.63 44.7221 1559.74 44.5794 1562.84 44.7705C1565.06 44.9078 1566.29 46.4878 1566.75 48.6088C1566.92 49.349 1567.04 50.1161 1567.04 50.8724C1567.07 56.2987 1567.06 61.725 1567.06 67.2563H1560.48C1560.48 66.8391 1560.48 66.3681 1560.48 65.897C1560.48 61.4559 1560.49 57.0174 1560.48 52.5762C1560.47 49.4459 1560.1 49.0798 1557.04 49.0771C1555.88 49.0771 1554.73 49.0771 1553.46 49.0771L1553.46 49.0798Z" fill="#171717"/>
<path d="M1638.77 49.08V44.69C1641.9 44.69 1644.98 44.472 1648.02 44.7573C1650.57 44.9969 1651.73 46.4611 1652.13 49.0047C1652.29 50.0194 1652.37 51.0557 1652.38 52.0812C1652.4 56.7458 1652.39 61.4104 1652.39 66.0776C1652.39 66.4679 1652.39 66.8582 1652.39 67.3077H1645.8C1645.8 66.8421 1645.8 66.371 1645.8 65.9C1645.8 61.4588 1645.8 57.0176 1645.8 52.5765C1645.79 49.4515 1645.42 49.0827 1642.35 49.08C1641.2 49.08 1640.04 49.08 1638.77 49.08H1638.77Z" fill="#171717"/>
<defs>
<clipPath id="clip0_33_6847">
<rect width="194" height="24" fill="white" transform="translate(677.5 44)"/>
</clipPath>
</defs>
</svg>
