<svg width="538" height="217" viewBox="0 0 538 217" fill="none" xmlns="http://www.w3.org/2000/svg">
<path d="M55.5322 113.757H35.6934V158H10.791V37.1406H55.6982C69.9756 37.1406 80.988 40.3226 88.7354 46.6865C96.4827 53.0505 100.356 62.043 100.356 73.6641C100.356 81.9095 98.5579 88.7992 94.9609 94.333C91.4193 99.8115 86.0238 104.183 78.7744 107.448L104.922 156.838V158H78.1934L55.5322 113.757ZM35.6934 93.5859H55.7812C62.0345 93.5859 66.8766 92.0088 70.3076 88.8545C73.7386 85.6449 75.4541 81.2454 75.4541 75.6562C75.4541 69.9564 73.8216 65.474 70.5566 62.209C67.347 58.944 62.3942 57.3115 55.6982 57.3115H35.6934V93.5859ZM112.053 112.263C112.053 103.353 113.768 95.4121 117.199 88.4395C120.63 81.4668 125.555 76.0713 131.975 72.2529C138.449 68.4346 145.948 66.5254 154.47 66.5254C166.589 66.5254 176.467 70.2331 184.104 77.6484C191.796 85.0638 196.084 95.1354 196.97 107.863L197.136 114.006C197.136 127.785 193.29 138.853 185.598 147.209C177.906 155.51 167.585 159.66 154.636 159.66C141.687 159.66 131.338 155.51 123.591 147.209C115.899 138.908 112.053 127.619 112.053 113.342V112.263ZM136.042 114.006C136.042 122.528 137.647 129.058 140.856 133.596C144.066 138.078 148.659 140.319 154.636 140.319C160.446 140.319 164.984 138.106 168.249 133.679C171.514 129.196 173.146 122.058 173.146 112.263C173.146 103.907 171.514 97.432 168.249 92.8389C164.984 88.2458 160.391 85.9492 154.47 85.9492C148.604 85.9492 144.066 88.2458 140.856 92.8389C137.647 97.3766 136.042 104.432 136.042 114.006ZM290.844 113.923C290.844 128.311 287.772 139.545 281.63 147.624C275.487 155.648 266.91 159.66 255.897 159.66C246.158 159.66 238.383 155.925 232.572 148.454L231.493 158H209.911V30.5H233.9V76.2373C239.434 69.7627 246.711 66.5254 255.731 66.5254C266.688 66.5254 275.266 70.5651 281.464 78.6445C287.717 86.6686 290.844 97.9854 290.844 112.595V113.923ZM266.854 112.18C266.854 103.104 265.416 96.4912 262.538 92.3408C259.66 88.1351 255.372 86.0322 249.672 86.0322C242.035 86.0322 236.778 89.1589 233.9 95.4121V130.856C236.833 137.165 242.146 140.319 249.838 140.319C257.585 140.319 262.676 136.501 265.111 128.864C266.273 125.212 266.854 119.65 266.854 112.18ZM299.967 112.263C299.967 103.353 301.682 95.4121 305.113 88.4395C308.544 81.4668 313.469 76.0713 319.889 72.2529C326.363 68.4346 333.862 66.5254 342.384 66.5254C354.503 66.5254 364.381 70.2331 372.018 77.6484C379.71 85.0638 383.998 95.1354 384.884 107.863L385.05 114.006C385.05 127.785 381.204 138.853 373.512 147.209C365.82 155.51 355.499 159.66 342.55 159.66C329.601 159.66 319.252 155.51 311.505 147.209C303.813 138.908 299.967 127.619 299.967 113.342V112.263ZM323.956 114.006C323.956 122.528 325.561 129.058 328.771 133.596C331.98 138.078 336.573 140.319 342.55 140.319C348.36 140.319 352.898 138.106 356.163 133.679C359.428 129.196 361.061 122.058 361.061 112.263C361.061 103.907 359.428 97.432 356.163 92.8389C352.898 88.2458 348.305 85.9492 342.384 85.9492C336.518 85.9492 331.98 88.2458 328.771 92.8389C325.561 97.3766 323.956 104.432 323.956 114.006ZM426.546 46.1055V68.1855H441.902V85.7832H426.546V130.607C426.546 133.928 427.182 136.307 428.455 137.746C429.728 139.185 432.163 139.904 435.76 139.904C438.416 139.904 440.768 139.711 442.815 139.323V157.502C438.112 158.941 433.27 159.66 428.289 159.66C411.466 159.66 402.889 151.166 402.557 134.177V85.7832H389.441V68.1855H402.557V46.1055H426.546ZM447.041 112.263C447.041 103.353 448.757 95.4121 452.188 88.4395C455.618 81.4668 460.544 76.0713 466.963 72.2529C473.438 68.4346 480.936 66.5254 489.458 66.5254C501.577 66.5254 511.455 70.2331 519.092 77.6484C526.784 85.0638 531.073 95.1354 531.958 107.863L532.124 114.006C532.124 127.785 528.278 138.853 520.586 147.209C512.894 155.51 502.573 159.66 489.624 159.66C476.675 159.66 466.326 155.51 458.579 147.209C450.887 138.908 447.041 127.619 447.041 113.342V112.263ZM471.03 114.006C471.03 122.528 472.635 129.058 475.845 133.596C479.054 138.078 483.647 140.319 489.624 140.319C495.435 140.319 499.972 138.106 503.237 133.679C506.502 129.196 508.135 122.058 508.135 112.263C508.135 103.907 506.502 97.432 503.237 92.8389C499.972 88.2458 495.379 85.9492 489.458 85.9492C483.592 85.9492 479.054 88.2458 475.845 92.8389C472.635 97.3766 471.03 104.432 471.03 114.006Z" fill="#51A1A4" fill-opacity="0.2"/>
<path d="M22.4023 159.547H15.2539L13.6484 164H11.3281L17.8438 146.938H19.8125L26.3398 164H24.0312L22.4023 159.547ZM15.9336 157.695H21.7344L18.8281 149.715L15.9336 157.695ZM41.125 164C41 163.75 40.8984 163.305 40.8203 162.664C39.8125 163.711 38.6094 164.234 37.2109 164.234C35.9609 164.234 34.9336 163.883 34.1289 163.18C33.332 162.469 32.9336 161.57 32.9336 160.484C32.9336 159.164 33.4336 158.141 34.4336 157.414C35.4414 156.68 36.8555 156.312 38.6758 156.312H40.7852V155.316C40.7852 154.559 40.5586 153.957 40.1055 153.512C39.6523 153.059 38.9844 152.832 38.1016 152.832C37.3281 152.832 36.6797 153.027 36.1562 153.418C35.6328 153.809 35.3711 154.281 35.3711 154.836H33.1914C33.1914 154.203 33.4141 153.594 33.8594 153.008C34.3125 152.414 34.9219 151.945 35.6875 151.602C36.4609 151.258 37.3086 151.086 38.2305 151.086C39.6914 151.086 40.8359 151.453 41.6641 152.188C42.4922 152.914 42.9219 153.918 42.9531 155.199V161.035C42.9531 162.199 43.1016 163.125 43.3984 163.812V164H41.125ZM37.5273 162.348C38.207 162.348 38.8516 162.172 39.4609 161.82C40.0703 161.469 40.5117 161.012 40.7852 160.449V157.848H39.0859C36.4297 157.848 35.1016 158.625 35.1016 160.18C35.1016 160.859 35.3281 161.391 35.7812 161.773C36.2344 162.156 36.8164 162.348 37.5273 162.348ZM62.6445 164V146.938H68.2227C70.0742 146.938 71.4648 147.32 72.3945 148.086C73.332 148.852 73.8008 149.984 73.8008 151.484C73.8008 152.281 73.5742 152.988 73.1211 153.605C72.668 154.215 72.0508 154.688 71.2695 155.023C72.1914 155.281 72.918 155.773 73.4492 156.5C73.9883 157.219 74.2578 158.078 74.2578 159.078C74.2578 160.609 73.7617 161.812 72.7695 162.688C71.7773 163.562 70.375 164 68.5625 164H62.6445ZM64.8945 156.02V162.16H68.6094C69.6562 162.16 70.4805 161.891 71.082 161.352C71.6914 160.805 71.9961 160.055 71.9961 159.102C71.9961 157.047 70.8789 156.02 68.6445 156.02H64.8945ZM64.8945 154.215H68.293C69.2773 154.215 70.0625 153.969 70.6484 153.477C71.2422 152.984 71.5391 152.316 71.5391 151.473C71.5391 150.535 71.2656 149.855 70.7188 149.434C70.1719 149.004 69.3398 148.789 68.2227 148.789H64.8945V154.215ZM92.9922 157.801C92.9922 159.738 92.5469 161.297 91.6562 162.477C90.7656 163.648 89.5703 164.234 88.0703 164.234C86.4688 164.234 85.2305 163.668 84.3555 162.535L84.25 164H82.2578V146H84.4258V152.715C85.3008 151.629 86.5078 151.086 88.0469 151.086C89.5859 151.086 90.793 151.668 91.668 152.832C92.5508 153.996 92.9922 155.59 92.9922 157.613V157.801ZM90.8242 157.555C90.8242 156.078 90.5391 154.938 89.9688 154.133C89.3984 153.328 88.5781 152.926 87.5078 152.926C86.0781 152.926 85.0508 153.59 84.4258 154.918V160.402C85.0898 161.73 86.125 162.395 87.5312 162.395C88.5703 162.395 89.3789 161.992 89.957 161.188C90.5352 160.383 90.8242 159.172 90.8242 157.555ZM124.578 158.586C124.367 160.391 123.699 161.785 122.574 162.77C121.457 163.746 119.969 164.234 118.109 164.234C116.094 164.234 114.477 163.512 113.258 162.066C112.047 160.621 111.441 158.688 111.441 156.266V154.625C111.441 153.039 111.723 151.645 112.285 150.441C112.855 149.238 113.66 148.316 114.699 147.676C115.738 147.027 116.941 146.703 118.309 146.703C120.121 146.703 121.574 147.211 122.668 148.227C123.762 149.234 124.398 150.633 124.578 152.422H122.316C122.121 151.062 121.695 150.078 121.039 149.469C120.391 148.859 119.48 148.555 118.309 148.555C116.871 148.555 115.742 149.086 114.922 150.148C114.109 151.211 113.703 152.723 113.703 154.684V156.336C113.703 158.188 114.09 159.66 114.863 160.754C115.637 161.848 116.719 162.395 118.109 162.395C119.359 162.395 120.316 162.113 120.98 161.551C121.652 160.98 122.098 159.992 122.316 158.586H124.578ZM137.406 162.465C138.18 162.465 138.855 162.23 139.434 161.762C140.012 161.293 140.332 160.707 140.395 160.004H142.445C142.406 160.73 142.156 161.422 141.695 162.078C141.234 162.734 140.617 163.258 139.844 163.648C139.078 164.039 138.266 164.234 137.406 164.234C135.68 164.234 134.305 163.66 133.281 162.512C132.266 161.355 131.758 159.777 131.758 157.777V157.414C131.758 156.18 131.984 155.082 132.438 154.121C132.891 153.16 133.539 152.414 134.383 151.883C135.234 151.352 136.238 151.086 137.395 151.086C138.816 151.086 139.996 151.512 140.934 152.363C141.879 153.215 142.383 154.32 142.445 155.68H140.395C140.332 154.859 140.02 154.188 139.457 153.664C138.902 153.133 138.215 152.867 137.395 152.867C136.293 152.867 135.438 153.266 134.828 154.062C134.227 154.852 133.926 155.996 133.926 157.496V157.906C133.926 159.367 134.227 160.492 134.828 161.281C135.43 162.07 136.289 162.465 137.406 162.465ZM161.176 164V146.938H165.992C167.477 146.938 168.789 147.266 169.93 147.922C171.07 148.578 171.949 149.512 172.566 150.723C173.191 151.934 173.508 153.324 173.516 154.895V155.984C173.516 157.594 173.203 159.004 172.578 160.215C171.961 161.426 171.074 162.355 169.918 163.004C168.77 163.652 167.43 163.984 165.898 164H161.176ZM163.426 148.789V162.16H165.793C167.527 162.16 168.875 161.621 169.836 160.543C170.805 159.465 171.289 157.93 171.289 155.938V154.941C171.289 153.004 170.832 151.5 169.918 150.43C169.012 149.352 167.723 148.805 166.051 148.789H163.426ZM181.059 157.555C181.059 155.609 181.52 154.047 182.441 152.867C183.363 151.68 184.57 151.086 186.062 151.086C187.547 151.086 188.723 151.594 189.59 152.609V146H191.758V164H189.766L189.66 162.641C188.793 163.703 187.586 164.234 186.039 164.234C184.57 164.234 183.371 163.633 182.441 162.43C181.52 161.227 181.059 159.656 181.059 157.719V157.555ZM183.227 157.801C183.227 159.238 183.523 160.363 184.117 161.176C184.711 161.988 185.531 162.395 186.578 162.395C187.953 162.395 188.957 161.777 189.59 160.543V154.719C188.941 153.523 187.945 152.926 186.602 152.926C185.539 152.926 184.711 153.336 184.117 154.156C183.523 154.977 183.227 156.191 183.227 157.801ZM221.07 156.113H213.676V162.16H222.266V164H211.426V146.938H222.148V148.789H213.676V154.273H221.07V156.113ZM234.754 164.234C233.035 164.234 231.637 163.672 230.559 162.547C229.48 161.414 228.941 159.902 228.941 158.012V157.613C228.941 156.355 229.18 155.234 229.656 154.25C230.141 153.258 230.812 152.484 231.672 151.93C232.539 151.367 233.477 151.086 234.484 151.086C236.133 151.086 237.414 151.629 238.328 152.715C239.242 153.801 239.699 155.355 239.699 157.379V158.281H231.109C231.141 159.531 231.504 160.543 232.199 161.316C232.902 162.082 233.793 162.465 234.871 162.465C235.637 162.465 236.285 162.309 236.816 161.996C237.348 161.684 237.812 161.27 238.211 160.754L239.535 161.785C238.473 163.418 236.879 164.234 234.754 164.234ZM234.484 152.867C233.609 152.867 232.875 153.188 232.281 153.828C231.688 154.461 231.32 155.352 231.18 156.5H237.531V156.336C237.469 155.234 237.172 154.383 236.641 153.781C236.109 153.172 235.391 152.867 234.484 152.867ZM267.922 156.465H260.762V164H258.512V146.938H269.082V148.789H260.762V154.625H267.922V156.465ZM277.504 164V152.996H275.5V151.32H277.504V150.02C277.504 148.66 277.867 147.609 278.594 146.867C279.32 146.125 280.348 145.754 281.676 145.754C282.176 145.754 282.672 145.82 283.164 145.953L283.047 147.711C282.68 147.641 282.289 147.605 281.875 147.605C281.172 147.605 280.629 147.812 280.246 148.227C279.863 148.633 279.672 149.219 279.672 149.984V151.32H282.379V152.996H279.672V164H277.504ZM313.672 161.762C313.094 162.59 312.285 163.211 311.246 163.625C310.215 164.031 309.012 164.234 307.637 164.234C306.246 164.234 305.012 163.91 303.934 163.262C302.855 162.605 302.02 161.676 301.426 160.473C300.84 159.27 300.539 157.875 300.523 156.289V154.801C300.523 152.23 301.121 150.238 302.316 148.824C303.52 147.41 305.207 146.703 307.379 146.703C309.16 146.703 310.594 147.16 311.68 148.074C312.766 148.98 313.43 150.27 313.672 151.941H311.422C311 149.684 309.656 148.555 307.391 148.555C305.883 148.555 304.738 149.086 303.957 150.148C303.184 151.203 302.793 152.734 302.785 154.742V156.137C302.785 158.051 303.223 159.574 304.098 160.707C304.973 161.832 306.156 162.395 307.648 162.395C308.492 162.395 309.23 162.301 309.863 162.113C310.496 161.926 311.02 161.609 311.434 161.164V157.332H307.484V155.504H313.672V161.762ZM321.578 157.555C321.578 155.578 322.035 154.008 322.949 152.844C323.863 151.672 325.074 151.086 326.582 151.086C328.129 151.086 329.336 151.633 330.203 152.727L330.309 151.32H332.289V163.695C332.289 165.336 331.801 166.629 330.824 167.574C329.855 168.52 328.551 168.992 326.91 168.992C325.996 168.992 325.102 168.797 324.227 168.406C323.352 168.016 322.684 167.48 322.223 166.801L323.348 165.5C324.277 166.648 325.414 167.223 326.758 167.223C327.812 167.223 328.633 166.926 329.219 166.332C329.812 165.738 330.109 164.902 330.109 163.824V162.734C329.242 163.734 328.059 164.234 326.559 164.234C325.074 164.234 323.871 163.637 322.949 162.441C322.035 161.246 321.578 159.617 321.578 157.555ZM323.758 157.801C323.758 159.23 324.051 160.355 324.637 161.176C325.223 161.988 326.043 162.395 327.098 162.395C328.465 162.395 329.469 161.773 330.109 160.531V154.742C329.445 153.531 328.449 152.926 327.121 152.926C326.066 152.926 325.242 153.336 324.648 154.156C324.055 154.977 323.758 156.191 323.758 157.801ZM364.977 164H362.715V156.113H354.113V164H351.863V146.938H354.113V154.273H362.715V146.938H364.977V164ZM375.801 152.855C376.762 151.676 378.012 151.086 379.551 151.086C382.23 151.086 383.582 152.598 383.605 155.621V164H381.438V155.609C381.43 154.695 381.219 154.02 380.805 153.582C380.398 153.145 379.762 152.926 378.895 152.926C378.191 152.926 377.574 153.113 377.043 153.488C376.512 153.863 376.098 154.355 375.801 154.965V164H373.633V146H375.801V152.855ZM405.559 164H403.309V146.938H405.559V164ZM416.699 164H414.531V151.32H416.699V164ZM414.355 147.957C414.355 147.605 414.461 147.309 414.672 147.066C414.891 146.824 415.211 146.703 415.633 146.703C416.055 146.703 416.375 146.824 416.594 147.066C416.812 147.309 416.922 147.605 416.922 147.957C416.922 148.309 416.812 148.602 416.594 148.836C416.375 149.07 416.055 149.188 415.633 149.188C415.211 149.188 414.891 149.07 414.672 148.836C414.461 148.602 414.355 148.309 414.355 147.957ZM443.621 146.938H445.883V159.02C445.883 160.652 445.391 161.93 444.406 162.852C443.43 163.773 442.125 164.234 440.492 164.234C438.797 164.234 437.477 163.801 436.531 162.934C435.586 162.066 435.113 160.852 435.113 159.289H437.363C437.363 160.266 437.629 161.027 438.16 161.574C438.699 162.121 439.477 162.395 440.492 162.395C441.422 162.395 442.172 162.102 442.742 161.516C443.32 160.93 443.613 160.109 443.621 159.055V146.938ZM456.613 151.32V165.465C456.613 167.902 455.508 169.121 453.297 169.121C452.82 169.121 452.379 169.051 451.973 168.91V167.176C452.223 167.238 452.551 167.27 452.957 167.27C453.441 167.27 453.809 167.137 454.059 166.871C454.316 166.613 454.445 166.16 454.445 165.512V151.32H456.613ZM454.223 147.957C454.223 147.613 454.328 147.32 454.539 147.078C454.758 146.828 455.074 146.703 455.488 146.703C455.91 146.703 456.23 146.824 456.449 147.066C456.668 147.309 456.777 147.605 456.777 147.957C456.777 148.309 456.668 148.602 456.449 148.836C456.23 149.07 455.91 149.188 455.488 149.188C455.066 149.188 454.75 149.07 454.539 148.836C454.328 148.602 454.223 148.309 454.223 147.957ZM480.746 156.066L478.66 158.234V164H476.41V146.938H478.66V155.375L486.242 146.938H488.961L482.246 154.473L489.488 164H486.793L480.746 156.066ZM499.656 158.129L498.297 159.547V164H496.129V146H498.297V156.887L499.457 155.492L503.406 151.32H506.043L501.109 156.617L506.617 164H504.074L499.656 158.129Z" fill="#333333"/>
<path d="M19.543 211H17.3633V196.551L12.9922 198.156V196.188L19.2031 193.855H19.543V211ZM47.0742 211H35.8945V209.441L41.8008 202.879C42.6758 201.887 43.2773 201.082 43.6055 200.465C43.9414 199.84 44.1094 199.195 44.1094 198.531C44.1094 197.641 43.8398 196.91 43.3008 196.34C42.7617 195.77 42.043 195.484 41.1445 195.484C40.0664 195.484 39.2266 195.793 38.625 196.41C38.0312 197.02 37.7344 197.871 37.7344 198.965H35.5664C35.5664 197.395 36.0703 196.125 37.0781 195.156C38.0938 194.188 39.4492 193.703 41.1445 193.703C42.7305 193.703 43.9844 194.121 44.9062 194.957C45.8281 195.785 46.2891 196.891 46.2891 198.273C46.2891 199.953 45.2188 201.953 43.0781 204.273L38.5078 209.23H47.0742V211ZM62.5234 201.414H64.1523C65.1758 201.398 65.9805 201.129 66.5664 200.605C67.1523 200.082 67.4453 199.375 67.4453 198.484C67.4453 196.484 66.4492 195.484 64.457 195.484C63.5195 195.484 62.7695 195.754 62.207 196.293C61.6523 196.824 61.375 197.531 61.375 198.414H59.207C59.207 197.062 59.6992 195.941 60.6836 195.051C61.6758 194.152 62.9336 193.703 64.457 193.703C66.0664 193.703 67.3281 194.129 68.2422 194.98C69.1562 195.832 69.6133 197.016 69.6133 198.531C69.6133 199.273 69.3711 199.992 68.8867 200.688C68.4102 201.383 67.7578 201.902 66.9297 202.246C67.8672 202.543 68.5898 203.035 69.0977 203.723C69.6133 204.41 69.8711 205.25 69.8711 206.242C69.8711 207.773 69.3711 208.988 68.3711 209.887C67.3711 210.785 66.0703 211.234 64.4688 211.234C62.8672 211.234 61.5625 210.801 60.5547 209.934C59.5547 209.066 59.0547 207.922 59.0547 206.5H61.2344C61.2344 207.398 61.5273 208.117 62.1133 208.656C62.6992 209.195 63.4844 209.465 64.4688 209.465C65.5156 209.465 66.3164 209.191 66.8711 208.645C67.4258 208.098 67.7031 207.312 67.7031 206.289C67.7031 205.297 67.3984 204.535 66.7891 204.004C66.1797 203.473 65.3008 203.199 64.1523 203.184H62.5234V201.414ZM92 205.27H94.3672V207.039H92V211H89.8203V207.039H82.0508V205.762L89.6914 193.938H92V205.27ZM84.5117 205.27H89.8203V196.902L89.5625 197.371L84.5117 205.27ZM107.32 202.445L108.188 193.938H116.93V195.941H110.027L109.512 200.594C110.348 200.102 111.297 199.855 112.359 199.855C113.914 199.855 115.148 200.371 116.062 201.402C116.977 202.426 117.434 203.812 117.434 205.562C117.434 207.32 116.957 208.707 116.004 209.723C115.059 210.73 113.734 211.234 112.031 211.234C110.523 211.234 109.293 210.816 108.34 209.98C107.387 209.145 106.844 207.988 106.711 206.512H108.762C108.895 207.488 109.242 208.227 109.805 208.727C110.367 209.219 111.109 209.465 112.031 209.465C113.039 209.465 113.828 209.121 114.398 208.434C114.977 207.746 115.266 206.797 115.266 205.586C115.266 204.445 114.953 203.531 114.328 202.844C113.711 202.148 112.887 201.801 111.855 201.801C110.91 201.801 110.168 202.008 109.629 202.422L109.055 202.891L107.32 202.445ZM138.309 193.926V195.766H137.91C136.223 195.797 134.879 196.297 133.879 197.266C132.879 198.234 132.301 199.598 132.145 201.355C133.043 200.324 134.27 199.809 135.824 199.809C137.309 199.809 138.492 200.332 139.375 201.379C140.266 202.426 140.711 203.777 140.711 205.434C140.711 207.191 140.23 208.598 139.27 209.652C138.316 210.707 137.035 211.234 135.426 211.234C133.793 211.234 132.469 210.609 131.453 209.359C130.438 208.102 129.93 206.484 129.93 204.508V203.676C129.93 200.535 130.598 198.137 131.934 196.48C133.277 194.816 135.273 193.965 137.922 193.926H138.309ZM135.461 201.613C134.719 201.613 134.035 201.836 133.41 202.281C132.785 202.727 132.352 203.285 132.109 203.957V204.754C132.109 206.16 132.426 207.293 133.059 208.152C133.691 209.012 134.48 209.441 135.426 209.441C136.402 209.441 137.168 209.082 137.723 208.363C138.285 207.645 138.566 206.703 138.566 205.539C138.566 204.367 138.281 203.422 137.711 202.703C137.148 201.977 136.398 201.613 135.461 201.613ZM164.293 195.156L157.227 211H154.953L161.996 195.719H152.762V193.938H164.293V195.156ZM187.102 198.391C187.102 199.242 186.875 200 186.422 200.664C185.977 201.328 185.371 201.848 184.605 202.223C185.496 202.605 186.199 203.164 186.715 203.898C187.238 204.633 187.5 205.465 187.5 206.395C187.5 207.871 187 209.047 186 209.922C185.008 210.797 183.699 211.234 182.074 211.234C180.434 211.234 179.117 210.797 178.125 209.922C177.141 209.039 176.648 207.863 176.648 206.395C176.648 205.473 176.898 204.641 177.398 203.898C177.906 203.156 178.605 202.594 179.496 202.211C178.738 201.836 178.141 201.316 177.703 200.652C177.266 199.988 177.047 199.234 177.047 198.391C177.047 196.953 177.508 195.812 178.43 194.969C179.352 194.125 180.566 193.703 182.074 193.703C183.574 193.703 184.785 194.125 185.707 194.969C186.637 195.812 187.102 196.953 187.102 198.391ZM185.332 206.348C185.332 205.395 185.027 204.617 184.418 204.016C183.816 203.414 183.027 203.113 182.051 203.113C181.074 203.113 180.289 203.41 179.695 204.004C179.109 204.598 178.816 205.379 178.816 206.348C178.816 207.316 179.102 208.078 179.672 208.633C180.25 209.188 181.051 209.465 182.074 209.465C183.09 209.465 183.887 209.188 184.465 208.633C185.043 208.07 185.332 207.309 185.332 206.348ZM182.074 195.484C181.223 195.484 180.531 195.75 180 196.281C179.477 196.805 179.215 197.52 179.215 198.426C179.215 199.293 179.473 199.996 179.988 200.535C180.512 201.066 181.207 201.332 182.074 201.332C182.941 201.332 183.633 201.066 184.148 200.535C184.672 199.996 184.934 199.293 184.934 198.426C184.934 197.559 184.664 196.852 184.125 196.305C183.586 195.758 182.902 195.484 182.074 195.484ZM208.539 203.5C208.086 204.039 207.543 204.473 206.91 204.801C206.285 205.129 205.598 205.293 204.848 205.293C203.863 205.293 203.004 205.051 202.27 204.566C201.543 204.082 200.98 203.402 200.582 202.527C200.184 201.645 199.984 200.672 199.984 199.609C199.984 198.469 200.199 197.441 200.629 196.527C201.066 195.613 201.684 194.914 202.48 194.43C203.277 193.945 204.207 193.703 205.27 193.703C206.957 193.703 208.285 194.336 209.254 195.602C210.23 196.859 210.719 198.578 210.719 200.758V201.391C210.719 204.711 210.062 207.137 208.75 208.668C207.438 210.191 205.457 210.973 202.809 211.012H202.387V209.184H202.844C204.633 209.152 206.008 208.688 206.969 207.789C207.93 206.883 208.453 205.453 208.539 203.5ZM205.199 203.5C205.926 203.5 206.594 203.277 207.203 202.832C207.82 202.387 208.27 201.836 208.551 201.18V200.312C208.551 198.891 208.242 197.734 207.625 196.844C207.008 195.953 206.227 195.508 205.281 195.508C204.328 195.508 203.562 195.875 202.984 196.609C202.406 197.336 202.117 198.297 202.117 199.492C202.117 200.656 202.395 201.617 202.949 202.375C203.512 203.125 204.262 203.5 205.199 203.5ZM234.406 203.723C234.406 206.262 233.973 208.148 233.105 209.383C232.238 210.617 230.883 211.234 229.039 211.234C227.219 211.234 225.871 210.633 224.996 209.43C224.121 208.219 223.668 206.414 223.637 204.016V201.121C223.637 198.613 224.07 196.75 224.938 195.531C225.805 194.312 227.164 193.703 229.016 193.703C230.852 193.703 232.203 194.293 233.07 195.473C233.938 196.645 234.383 198.457 234.406 200.91V203.723ZM232.238 200.758C232.238 198.922 231.98 197.586 231.465 196.75C230.949 195.906 230.133 195.484 229.016 195.484C227.906 195.484 227.098 195.902 226.59 196.738C226.082 197.574 225.82 198.859 225.805 200.594V204.062C225.805 205.906 226.07 207.27 226.602 208.152C227.141 209.027 227.953 209.465 229.039 209.465C230.109 209.465 230.902 209.051 231.418 208.223C231.941 207.395 232.215 206.09 232.238 204.309V200.758Z" fill="#333333"/>
</svg>
