<svg width="440" height="404" viewBox="0 0 440 404" fill="none" xmlns="http://www.w3.org/2000/svg">
<path fill-rule="evenodd" clip-rule="evenodd" d="M221.727 312.833L221.381 119.105C221.381 119.105 154.024 132.228 142.625 153.293C131.226 174.357 111.191 197.84 118.1 228.919C125.008 260.343 136.407 284.861 151.606 297.293C166.805 310.07 173.022 314.559 173.022 314.559L184.767 377.754L197.547 379.826L202.038 396.401L235.198 397.092L242.798 380.171L256.615 376.027L265.941 313.869L221.727 312.833Z" fill="#FAFAFA"/>
<path fill-rule="evenodd" clip-rule="evenodd" d="M221.727 312.838L221.382 119.113C221.382 119.113 242.453 115.66 255.924 127.055C269.396 138.451 270.432 139.487 270.432 139.487C270.432 139.487 292.539 142.249 301.865 157.098C311.192 171.947 305.665 189.559 305.665 189.559C305.665 189.559 321.9 209.933 323.282 225.127C324.663 239.976 311.537 245.501 311.537 245.501C311.537 245.501 314.301 268.637 302.556 276.234C290.812 283.486 283.903 285.558 283.903 285.558C283.903 285.558 281.14 312.839 267.669 313.874C254.197 315.256 221.727 312.838 221.727 312.838Z" fill="#9FCED0"/>
<path d="M234.507 138.448C232.435 138.448 231.053 136.721 231.399 134.649C231.399 132.577 233.126 131.196 235.198 131.541C235.198 131.541 257.651 132.922 256.96 158.477C256.96 160.548 255.233 161.93 253.506 161.93C251.433 161.93 250.051 160.203 250.051 158.477C250.397 139.138 234.507 138.448 234.507 138.448ZM280.103 161.584C278.376 160.548 278.031 158.477 279.067 156.75C280.103 155.023 282.176 154.678 283.903 155.714C283.903 155.714 300.483 165.728 293.575 185.412C292.884 187.138 290.811 188.174 289.084 187.484C287.357 186.793 286.321 184.721 287.012 182.995C292.193 168.836 280.103 161.584 280.103 161.584ZM288.739 247.916C287.703 246.534 288.048 244.117 289.43 243.081C290.811 242.045 293.229 242.39 294.266 243.772C294.266 243.772 307.392 260.693 289.084 270.707C287.357 271.743 285.285 271.052 284.248 269.326C283.212 267.599 283.903 265.527 285.63 264.491C296.684 258.621 288.739 247.916 288.739 247.916Z" fill="#FAFAFA"/>
<path fill-rule="evenodd" clip-rule="evenodd" d="M185.803 224.085C179.24 221.668 172.677 217.524 168.187 211.308C163.696 204.747 163.351 199.222 165.078 195.769C165.769 194.388 166.805 193.352 167.841 192.661C168.878 191.97 170.259 191.625 171.296 191.625C174.404 191.625 177.513 194.042 180.277 199.567C183.04 205.438 184.767 214.071 185.803 224.085ZM198.929 227.193C197.548 214.071 195.475 202.33 191.676 194.388C186.84 184.028 179.24 179.539 171.986 179.193C168.187 179.193 164.733 179.884 161.624 181.956C158.515 183.683 156.097 186.445 154.37 189.898C150.57 197.15 150.916 207.51 158.515 218.215C166.114 228.92 176.822 234.445 187.53 237.207C188.567 252.056 188.567 268.286 188.567 282.79C188.567 291.768 188.912 301.783 188.912 308.344H201.693C201.347 301.437 201.347 291.768 201.347 282.79C201.347 268.977 201.347 253.783 200.311 239.625C205.838 239.97 211.365 240.315 214.819 239.97V227.193C211.019 227.884 204.802 227.884 198.929 227.193Z" fill="#9FCED0"/>
<path d="M233.126 384.662L232.09 390.878H220H207.91L206.874 384.662H220.345H233.126ZM182.003 322.158L181.658 319.741H219.655H257.651L255.579 333.209L182.003 322.158ZM252.47 354.619L185.458 344.259L184.076 334.935L253.851 345.64L252.47 354.619ZM151.952 153.986C167.841 138.101 189.603 127.742 213.437 126.015V306.964H175.786C160.242 299.022 147.116 286.936 138.135 272.087C129.154 257.583 123.972 240.317 123.972 221.67C123.972 195.425 134.68 171.598 151.952 153.986ZM226.218 307.31V227.195C232.781 231.339 241.762 234.101 253.506 230.993C256.96 230.303 259.033 226.849 257.997 223.396C257.306 219.943 253.851 217.871 250.397 218.907C236.926 222.36 228.981 214.072 226.218 210.965V124.979C232.781 124.289 245.216 124.634 255.924 134.303C268.359 145.699 261.796 164.001 259.724 168.835C249.361 164.691 239.344 167.109 239.344 167.109C235.889 167.799 233.817 171.252 234.508 174.706C235.199 178.159 238.653 180.231 242.107 179.54C242.107 179.54 250.397 177.814 257.997 182.648C264.56 186.792 263.869 196.116 263.869 196.116C263.523 199.569 266.287 202.677 269.741 203.022C273.195 203.367 276.304 200.605 276.649 197.152C276.649 197.152 277.686 185.065 270.086 176.432C270.086 176.087 270.432 176.087 270.432 175.742C270.432 175.742 277.34 161.238 275.268 146.044C278.031 146.735 280.794 147.425 283.212 148.461C288.394 150.878 292.884 154.677 295.993 159.166C299.102 163.655 300.829 169.181 301.174 175.051C301.174 179.886 300.138 184.72 297.72 189.9C296.338 193.008 297.72 196.806 300.829 198.188C301.174 198.533 301.865 198.533 302.556 198.533C307.047 199.224 310.501 201.641 312.919 205.094C314.991 207.511 316.373 210.619 317.064 214.418V214.763C317.755 218.216 317.755 222.015 317.064 225.468C316.373 229.612 314.646 233.756 311.883 237.554C308.428 231.684 303.247 226.159 295.993 221.67C292.884 219.943 289.085 220.634 287.357 223.742C285.63 226.849 286.321 230.648 289.43 232.375C299.793 238.936 304.283 247.914 304.283 256.547C304.283 260.346 303.247 263.799 301.52 266.907C299.793 270.015 297.375 272.777 294.611 274.849C288.739 278.993 279.758 280.374 269.396 276.576C269.741 274.504 270.086 272.432 270.086 270.36C270.086 264.144 267.323 258.274 265.941 255.857C264.214 252.749 260.415 251.713 257.306 253.439C254.197 255.166 253.161 258.964 254.888 262.072C255.924 263.454 257.306 266.907 257.306 270.705C257.306 272.777 256.96 274.849 255.579 276.921C254.542 278.303 253.506 279.684 252.124 280.72C250.397 282.101 248.325 283.137 246.598 284.173C243.489 285.554 242.107 289.353 243.489 292.461C244.87 295.569 248.67 296.95 251.779 295.569C254.197 294.533 256.96 292.806 259.724 290.734C260.76 290.043 261.796 289.008 262.832 287.972C269.395 290.389 275.613 291.77 281.14 291.77C279.413 297.986 275.268 307.31 264.905 308H226.218V307.31ZM219.309 113.584C189.603 113.929 162.66 126.015 143.316 145.353C123.627 165.037 111.537 192.317 111.537 222.015C111.537 243.08 117.409 262.418 127.772 278.993C137.789 295.223 151.952 308.691 168.877 317.669L178.204 379.482C178.549 382.59 181.313 385.007 184.421 385.007H193.748L196.166 398.475C196.511 401.583 199.275 404 202.383 404H219.655H236.926C240.035 404 242.452 401.928 243.143 398.82L245.907 385.007H255.233C258.342 385.007 261.105 382.59 261.451 379.482L270.777 319.396C289.085 315.252 293.575 295.914 294.611 288.662C297.029 287.626 299.447 286.59 301.52 284.864C306.356 281.756 310.155 277.267 312.573 272.432C314.991 267.598 316.718 262.072 316.718 256.202C316.718 254.475 316.718 252.403 316.373 250.677C323.627 244.116 327.772 235.828 329.154 227.195C330.19 222.015 329.845 216.49 328.808 211.31V210.965C327.772 205.785 325.354 200.95 322.245 196.806C319.482 193.008 315.682 189.9 311.192 187.828C312.573 182.993 313.264 178.504 313.264 174.015C313.264 165.727 310.501 157.785 306.01 151.224C301.52 144.663 295.302 139.483 288.048 136.03C282.522 133.612 276.649 131.886 270.086 131.54C268.359 128.778 266.287 126.36 263.869 123.943C246.252 108.749 224.145 112.202 219.309 113.584ZM187.53 357.727L250.743 367.396L250.052 372.23H240.725H219.655H198.584H189.257L187.53 357.727Z" fill="#366B6D"/>
<g filter="url(#filter0_d)">
<path d="M322.245 108.403C319.827 110.82 319.827 114.964 322.245 117.382C324.663 119.799 328.808 119.799 331.226 117.382L361.624 86.993C364.041 84.5758 364.041 80.4318 361.624 78.0146C359.206 75.5973 355.06 75.5973 352.642 78.0146L322.245 108.403ZM109.465 118.072C111.883 120.49 116.028 120.49 118.446 118.072C120.864 115.655 120.864 111.511 118.446 109.094L87.3575 78.0146C84.9396 75.5973 80.7945 75.5973 78.3765 78.0146C75.9585 80.4318 75.9585 84.5758 78.3765 86.993L109.465 118.072ZM371.295 213.037C367.841 213.037 365.078 215.799 365.078 219.252C365.078 222.706 367.841 225.468 371.295 225.468H413.782C417.237 225.468 420 222.706 420 219.252C420 215.799 417.237 213.037 413.782 213.037H371.295ZM70.0864 225.814C73.5406 225.814 76.3039 223.051 76.3039 219.598C76.3039 216.145 73.5406 213.382 70.0864 213.382H26.2176C22.7633 213.382 20 216.145 20 219.598C20 223.051 22.7633 225.814 26.2176 225.814H70.0864ZM331.917 321.814C329.499 319.397 325.354 319.397 322.936 321.814C320.518 324.231 320.518 328.375 322.936 330.792L352.642 360.49C355.06 362.908 359.206 362.908 361.624 360.49C364.041 358.073 364.041 353.929 361.624 351.512L331.917 321.814ZM117.755 330.102C120.173 327.684 120.173 323.541 117.755 321.123C115.337 318.706 111.192 318.706 108.774 321.123L78.3765 351.512C75.9585 353.929 75.9585 358.073 78.3765 360.49C80.7945 362.908 84.9396 362.908 87.3575 360.49L117.755 330.102ZM213.782 69.3815C213.782 72.8347 216.546 75.5973 220 75.5973C223.454 75.5973 226.218 72.8347 226.218 69.3815V26.2158C226.218 22.7626 223.454 20 220 20C216.546 20 213.782 22.7626 213.782 26.2158V69.3815Z" fill="#C8E3E4"/>
</g>
<defs>
<filter id="filter0_d" x="0" y="0" width="440" height="382.303" filterUnits="userSpaceOnUse" color-interpolation-filters="sRGB">
<feFlood flood-opacity="0" result="BackgroundImageFix"/>
<feColorMatrix in="SourceAlpha" type="matrix" values="0 0 0 0 0 0 0 0 0 0 0 0 0 0 0 0 0 0 127 0"/>
<feOffset/>
<feGaussianBlur stdDeviation="10"/>
<feColorMatrix type="matrix" values="0 0 0 0 0.623529 0 0 0 0 0.807843 0 0 0 0 0.815686 0 0 0 0.2 0"/>
<feBlend mode="normal" in2="BackgroundImageFix" result="effect1_dropShadow"/>
<feBlend mode="normal" in="SourceGraphic" in2="effect1_dropShadow" result="shape"/>
</filter>
</defs>
</svg>
