<svg width="70" height="109" viewBox="0 0 70 109" fill="none" xmlns="http://www.w3.org/2000/svg">
<path d="M29.64 108.35C47.04 108.35 70.14 101.75 69.39 73.55C69.09 63.05 59.94 51.95 45.24 48.35C72.09 29.3 56.94 0.0499911 31.74 0.0499911C20.79 0.0499911 4.59004 8 4.74004 26.15L6.54004 26.3C9.99004 15.95 24.39 14.75 31.14 19.85C40.14 26.75 41.49 47.15 18.99 52.7V54.65C39.84 56.15 43.89 71.6 44.94 78.95C47.04 93.5 42.84 106.4 29.49 106.4C17.49 106.4 15.39 102.05 16.89 101.75C19.89 101 21.99 98.9 23.49 95.9C26.34 89.75 23.64 82.7 17.49 79.85C11.64 77 4.44004 79.55 1.59004 85.7C-0.359961 89.9 0.390039 95.3 2.94004 98.3C8.94004 105.2 17.19 108.35 29.64 108.35Z" fill="#51A1A4" fill-opacity="0.15"/>
</svg>
