<svg width="933" height="300" viewBox="0 0 933 300" fill="none" xmlns="http://www.w3.org/2000/svg">
<g filter="url(#filter0_d)">
<path d="M71.3203 245.463C102.961 245.463 137.238 226.859 159.064 188.627C170.197 168.852 175.178 150.102 175.178 133.842C175.178 100.004 153.645 76.8594 122.15 76.8594C116.438 76.8594 110.432 77.5918 104.133 79.2031C122.883 64.1152 129.914 47.2695 129.914 34.6719C129.914 24.125 124.934 16.6543 117.756 15.9219H116.584C94.9043 15.9219 65.9004 71.1465 58.7227 133.256L56.5254 133.549L56.3789 123.881C56.3789 92.0938 61.5059 61.1855 69.123 37.1621C69.416 36.2832 69.5625 35.4043 69.5625 34.6719C69.5625 31.0098 66.7793 28.373 63.9961 28.373C61.6523 28.373 59.1621 30.1309 57.8438 34.2324C50.8125 58.1094 47.7363 80.668 47.7363 103.373C47.7363 113.773 48.3223 124.32 49.6406 134.867C28.2539 140.434 12.2871 157.865 7.74609 176.908C6.86719 180.717 6.42773 184.672 6.42773 188.773C6.42773 203.715 12.7266 218.803 23.8594 228.471C37.1895 239.75 53.8887 245.463 71.3203 245.463ZM104.279 79.9355L104.133 79.2031L104.279 79.9355ZM68.9766 95.0234C80.8418 50.1992 102.229 18.8516 116.584 18.8516H117.463C121.271 19.1445 122.443 22.0742 122.443 25.8828C122.443 29.6914 121.125 34.3789 119.807 38.041C112.629 56.791 87.2871 77.4453 73.6641 90.9219C72.1992 92.3867 70.5879 93.7051 68.9766 95.0234ZM57.4043 148.197C57.2578 145.707 56.9648 142.484 56.6719 136.479L58.4297 136.332C57.9902 140.287 57.6973 144.242 57.4043 148.197ZM62.0918 238.285C47.5898 238.285 34.6992 234.037 25.7637 226.273C15.3633 217.191 9.35742 202.982 9.35742 188.773C9.35742 184.965 9.79688 181.156 10.6758 177.494C14.9238 159.477 30.1582 143.07 50.0801 137.797C51.6914 149.076 53.1562 156.107 57.2578 170.316L57.5508 171.342L60.334 170.902C60.041 169.438 60.041 166.361 60.041 162.113C60.041 155.082 60.334 145.414 61.3594 136.039H64.2891C75.7148 136.039 87.4336 139.115 97.1016 145.121L98.7129 142.631C88.459 136.186 76.7402 132.963 65.168 132.963L61.6523 133.109C62.9707 121.684 65.168 110.258 67.8047 99.2715C76.4473 94.291 80.9883 94.584 96.6621 84.4766C99.2988 83.5977 102.082 82.7188 104.719 81.9863C108.967 80.9609 113.215 80.375 117.463 80.375C142.219 80.375 163.459 98.832 163.459 130.18C163.459 144.828 158.771 162.406 147.639 182.182C125.666 221.439 90.8027 238.285 62.0918 238.285ZM203.561 176.029C217.623 176.029 233.883 157.865 241.354 146.293L238.863 144.682C232.271 155.229 216.451 172.953 203.561 172.953C197.848 172.66 195.797 168.705 195.797 160.209C195.797 154.057 197.262 147.025 199.02 142.045C200.631 143.217 202.535 143.803 204.439 143.803C213.229 143.803 219.527 136.332 219.527 130.326C219.527 124.467 216.305 121.391 210.885 121.098C204.879 121.098 196.383 124.76 190.816 131.791C186.129 137.357 183.346 145.414 183.346 153.031C183.346 164.896 189.352 175.297 203.561 176.029ZM204.439 140.727C202.828 140.727 201.217 140.287 200.045 139.115C204.439 130.326 207.516 124.174 211.764 124.174C214.693 124.32 216.598 126.957 216.598 130.18C216.598 134.721 211.764 140.727 204.439 140.727ZM281.162 184.232C286.289 184.232 290.391 179.691 293.027 175.004C298.594 165.775 302.549 155.814 305.186 145.414L302.256 144.828C299.766 154.936 295.811 164.604 290.537 173.539C287.461 178.666 284.238 181.303 281.016 181.303H280.576C276.182 180.863 273.984 175.15 272.959 170.902C272.227 167.68 271.787 164.164 271.787 160.648C271.787 147.611 276.328 133.988 278.379 130.033L278.525 129.447C278.525 127.25 273.984 124.467 270.615 124.467C269.15 124.467 267.832 125.053 267.246 126.518C266.66 126.078 265.928 125.639 265.195 125.346C262.852 124.467 260.361 124.027 257.871 124.027C244.834 124.027 232.822 136.039 232.822 149.516C232.822 151.566 232.969 153.471 233.555 155.521C234.434 159.477 236.777 163.139 240.732 163.871L242.051 164.018C250.107 164.018 258.75 150.541 262.852 143.949C262.559 146.879 262.266 149.662 262.266 152.299C262.266 169.73 269.297 181.596 276.914 183.793C276.914 183.793 278.232 184.232 280.43 184.232H281.162ZM242.197 161.088L241.318 160.941C240.293 160.648 240 160.062 240 159.33C240 158.305 240.586 156.986 241.025 155.668C245.566 144.242 252.744 135.893 262.559 129.447C263.291 129.008 263.877 128.715 264.609 128.715C265.195 128.715 265.781 128.861 266.221 129.301C265.488 131.352 264.756 133.549 264.316 135.746C260.947 141.605 249.814 161.088 242.197 161.088ZM348.217 180.131C350.121 179.984 352.318 178.959 353.93 177.348C358.91 172.221 363.891 152.299 365.355 145.268L362.572 144.682C361.107 151.127 356.273 170.902 351.732 175.297C350.561 176.469 348.949 177.201 347.484 177.201C343.383 177.201 340.6 168.705 340.6 156.84C340.6 148.783 341.771 139.408 344.848 130.033L345.58 127.982V127.543C345.58 125.346 341.039 123.148 337.67 123.148C336.205 123.148 334.887 123.588 334.447 124.76C332.104 132.23 330.932 139.555 330.932 147.025L331.078 152.006C328.148 159.77 321.557 173.393 313.207 173.979C312.328 173.979 311.449 173.686 310.717 173.246C307.934 171.488 307.201 167.68 307.055 164.457V162.553C307.055 160.648 307.055 157.279 307.494 153.617C308.52 145.707 310.717 138.822 313.939 131.791L314.086 131.205C314.086 129.154 308.959 126.225 305.736 126.225C304.564 126.225 303.686 126.664 303.246 127.396C299.584 135.307 297.973 144.096 297.973 152.006C297.973 165.482 302.66 176.469 309.984 177.201C309.984 177.201 310.57 177.348 311.596 177.348C312.475 177.348 313.5 177.201 314.965 176.908C322.729 175.297 328.441 165.336 331.811 158.012C333.715 170.756 339.281 178.812 344.848 179.838C344.848 179.838 346.166 180.131 347.484 180.131H348.217ZM374.842 178.08C380.994 177.934 384.363 172.514 386.854 167.094C389.93 160.355 392.42 153.178 394.324 145.854L391.541 145.121C389.637 152.299 387.146 159.33 384.07 165.922C382.312 170.023 379.529 175.297 374.695 175.443H374.402C372.059 175.443 370.887 173.393 369.861 171.195C366.932 164.75 365.76 155.814 365.76 145.854C365.76 120.805 373.23 88.7246 379.236 70.707C411.023 66.752 441.932 54.1543 473.279 54.1543C476.648 54.1543 479.871 54.3008 483.24 54.5938C488.807 55.0332 495.838 56.2051 500.818 60.4531C503.748 62.9434 505.652 66.8984 505.652 70.707C505.652 72.6113 505.213 74.5156 504.041 76.127L506.385 77.8848C507.996 75.6875 508.582 73.1973 508.582 70.707C508.582 66.0195 506.238 61.1855 502.723 58.2559C497.156 53.4219 489.539 52.1035 483.533 51.6641C480.164 51.3711 476.795 51.2246 473.279 51.2246C442.078 51.2246 411.316 63.5293 380.262 67.6309C381.58 63.5293 383.924 57.377 383.924 57.377C384.217 56.3516 384.51 55.4727 384.51 54.5938C384.51 51.0781 381.58 48.5879 378.65 48.5879C376.6 48.5879 374.402 49.9062 373.23 52.8359C371.033 58.6953 369.568 62.7969 367.811 68.8027L360.779 68.9492C354.188 68.9492 347.596 68.3633 342.762 65.7266C337.635 63.0898 334.412 58.2559 334.412 53.5684H331.482V53.8613C331.482 59.4277 335.438 65.1406 341.297 68.3633C346.717 71.1465 353.309 71.8789 360.047 71.8789L366.932 71.7324C362.391 87.8457 358.143 111.43 358.143 132.963C358.143 146.879 359.9 160.062 364.588 169.73C366.346 173.539 368.689 178.08 373.523 178.08H374.842ZM397.951 274.32C401.467 274.32 405.275 272.416 408.938 270.512C430.617 258.207 455.08 213.529 455.08 170.902C455.08 168.559 455.08 166.361 454.934 164.164C463.283 156.693 472.072 150.395 480.861 145.854L479.543 143.217C471.047 147.611 462.697 153.471 454.641 160.502C453.615 148.051 450.979 138.529 446.877 128.715C444.973 124.467 442.336 121.244 438.967 121.244C437.941 121.244 436.77 121.684 435.451 122.416C430.764 125.639 429.445 130.473 414.943 165.629C412.746 171.195 408.645 181.303 401.32 181.303H400.295C396.486 180.863 394.582 175.443 394.582 167.826C394.582 157.719 398.098 143.949 405.275 133.549L405.568 132.67C405.568 130.18 400.881 126.225 397.658 126.225C396.779 126.225 396.047 126.518 395.461 127.25C388.723 137.211 385.939 148.637 385.939 158.598C385.939 172.367 391.359 183.5 399.562 184.232L401.467 184.379C409.816 184.379 414.357 174.564 417.727 166.801C431.936 132.377 433.254 127.543 437.062 124.906C437.648 124.613 438.234 124.32 438.82 124.32C439.992 124.32 441.018 125.199 441.75 126.664C443.508 129.887 444.826 140.58 444.826 152.885C444.826 158.598 444.533 164.75 443.801 170.756C425.197 189.799 408.938 213.529 397.805 233.891C392.678 243.412 389.895 251.615 389.162 259.525L389.016 262.602C389.016 265.824 389.602 269.34 391.799 271.684C393.703 273.588 395.754 274.32 397.951 274.32ZM397.365 271.098C396.047 271.098 395.021 270.805 393.996 269.779C392.678 268.314 391.945 265.824 391.945 262.602L392.092 259.818C392.678 252.348 395.461 244.584 400.441 235.355C410.842 216.02 425.93 193.9 443.215 175.59C439.113 206.645 417.873 263.92 400.002 270.658C399.123 270.951 398.098 271.098 397.365 271.098Z" fill="black"/>
</g>
<g filter="url(#filter1_d)">
<path d="M582.839 93V97.4L523.639 228.4H530.439C542.439 228.4 552.972 224.6 562.039 217C571.239 209.267 577.839 198.333 581.839 184.2H585.439L583.039 233H480.639V229.2L540.439 97.4H532.239C520.372 97.4 511.372 100 505.239 105.2C499.106 110.4 492.172 121.067 484.439 137.2H480.839L483.839 93H582.839ZM658.6 193.6V176.6C658.6 163.667 657.867 154.267 656.4 148.4C655.067 142.4 651.867 139.4 646.8 139.4C643.867 139.4 641.467 140.267 639.6 142C637.867 143.6 636.6 146.333 635.8 150.2C634.6 156.2 634 165.333 634 177.6V193.2C634 207.733 634.4 216.467 635.2 219.4C636.133 222.333 637.067 224.733 638 226.6C639.467 229.8 642.333 231.4 646.6 231.4C651.8 231.4 655.2 228.4 656.8 222.4C658 218.133 658.6 208.533 658.6 193.6ZM646.2 235C629.533 235 616.933 230.733 608.4 222.2C599.867 213.667 595.6 201.467 595.6 185.6C595.6 169.6 600.133 157.333 609.2 148.8C618.4 140.133 631.267 135.8 647.8 135.8C664.333 135.8 676.667 139.8 684.8 147.8C692.933 155.667 697 167.733 697 184C697 218 680.067 235 646.2 235ZM701.494 137.8H749.694V156.2C751.827 150.067 755.094 145.133 759.494 141.4C763.894 137.667 770.56 135.8 779.494 135.8C800.16 135.8 810.494 146.933 810.494 169.2V229.4H821.694V233H765.094V229.4H773.294V164.4C773.294 156.4 772.76 151.267 771.694 149C770.627 146.6 768.694 145.4 765.894 145.4C761.627 145.4 757.827 148.2 754.494 153.8C751.294 159.4 749.694 166.2 749.694 174.2V229.4H758.294V233H701.494V229.4H712.494V141.4H701.494V137.8ZM875.436 235C858.236 235 845.303 230.6 836.636 221.8C828.103 212.867 823.836 200.533 823.836 184.8C823.836 168.933 828.636 156.8 838.236 148.4C847.969 140 860.303 135.8 875.236 135.8C905.503 135.8 920.036 151 918.836 181.4H862.436V189.2C862.436 202.267 864.103 212.133 867.436 218.8C870.769 225.467 876.569 228.8 884.836 228.8C900.303 228.8 910.436 220.533 915.236 204L918.836 204.6C916.303 214.2 911.703 221.667 905.036 227C898.503 232.333 888.636 235 875.436 235ZM862.636 177.4H883.236V167.6C883.236 156.8 882.569 149.467 881.236 145.6C880.036 141.6 877.503 139.6 873.636 139.6C869.903 139.6 867.103 141.733 865.236 146C863.503 150.133 862.636 157.333 862.636 167.6V177.4Z" fill="url(#paint0_linear)"/>
</g>
<path d="M466.517 275.087C467.815 275.329 468.915 275.989 469.817 277.067C470.719 278.145 471.17 279.399 471.17 280.829C471.17 281.995 470.873 283.051 470.279 283.997C469.707 284.921 468.86 285.658 467.738 286.208C466.616 286.736 465.274 287 463.712 287H455.726V263.933H463.481C465.813 263.933 467.584 264.472 468.794 265.55C470.026 266.628 470.642 268.025 470.642 269.741C470.642 271.171 470.257 272.337 469.487 273.239C468.717 274.119 467.727 274.735 466.517 275.087ZM458.036 274.13H463.415C464.977 274.13 466.176 273.767 467.012 273.041C467.87 272.293 468.299 271.27 468.299 269.972C468.299 268.696 467.87 267.695 467.012 266.969C466.176 266.243 464.944 265.88 463.316 265.88H458.036V274.13ZM463.547 285.053C465.219 285.053 466.517 284.657 467.441 283.865C468.387 283.073 468.86 281.984 468.86 280.598C468.86 279.212 468.365 278.112 467.375 277.298C466.407 276.462 465.098 276.044 463.448 276.044H458.036V285.053H463.547ZM495.719 277.067C495.719 277.859 495.697 278.464 495.653 278.882H480.704C480.77 280.246 481.1 281.412 481.694 282.38C482.288 283.348 483.069 284.085 484.037 284.591C485.005 285.075 486.061 285.317 487.205 285.317C488.701 285.317 489.955 284.954 490.967 284.228C492.001 283.502 492.683 282.523 493.013 281.291H495.455C495.015 283.051 494.069 284.492 492.617 285.614C491.187 286.714 489.383 287.264 487.205 287.264C485.511 287.264 483.993 286.89 482.651 286.142C481.309 285.372 480.253 284.294 479.483 282.908C478.735 281.5 478.361 279.861 478.361 277.991C478.361 276.121 478.735 274.482 479.483 273.074C480.231 271.666 481.276 270.588 482.618 269.84C483.96 269.092 485.489 268.718 487.205 268.718C488.921 268.718 490.417 269.092 491.693 269.84C492.991 270.588 493.981 271.6 494.663 272.876C495.367 274.13 495.719 275.527 495.719 277.067ZM493.376 277.001C493.398 275.659 493.123 274.515 492.551 273.569C492.001 272.623 491.242 271.908 490.274 271.424C489.306 270.94 488.25 270.698 487.106 270.698C485.39 270.698 483.927 271.248 482.717 272.348C481.507 273.448 480.836 274.999 480.704 277.001H493.376ZM519.311 263.933V287H517.001V263.933H519.311ZM536.99 268.652C539.146 268.652 540.906 269.323 542.27 270.665C543.634 271.985 544.316 273.91 544.316 276.44V287H542.039V276.704C542.039 274.746 541.544 273.25 540.554 272.216C539.586 271.182 538.255 270.665 536.561 270.665C534.823 270.665 533.437 271.215 532.403 272.315C531.369 273.415 530.852 275.032 530.852 277.166V287H528.542V268.982H530.852V272.051C531.424 270.951 532.249 270.115 533.327 269.543C534.405 268.949 535.626 268.652 536.99 268.652ZM559.629 287.264C557.561 287.264 555.867 286.791 554.547 285.845C553.249 284.877 552.523 283.568 552.369 281.918H554.745C554.855 282.93 555.328 283.755 556.164 284.393C557.022 285.009 558.166 285.317 559.596 285.317C560.85 285.317 561.829 285.02 562.533 284.426C563.259 283.832 563.622 283.095 563.622 282.215C563.622 281.599 563.424 281.093 563.028 280.697C562.632 280.301 562.126 279.993 561.51 279.773C560.916 279.531 560.102 279.278 559.068 279.014C557.726 278.662 556.637 278.31 555.801 277.958C554.965 277.606 554.25 277.089 553.656 276.407C553.084 275.703 552.798 274.768 552.798 273.602C552.798 272.722 553.062 271.908 553.59 271.16C554.118 270.412 554.866 269.818 555.834 269.378C556.802 268.938 557.902 268.718 559.134 268.718C561.07 268.718 562.632 269.213 563.82 270.203C565.008 271.171 565.646 272.513 565.734 274.229H563.424C563.358 273.173 562.94 272.326 562.17 271.688C561.422 271.028 560.388 270.698 559.068 270.698C557.902 270.698 556.956 270.973 556.23 271.523C555.504 272.073 555.141 272.755 555.141 273.569C555.141 274.273 555.35 274.856 555.768 275.318C556.208 275.758 556.747 276.11 557.385 276.374C558.023 276.616 558.881 276.891 559.959 277.199C561.257 277.551 562.291 277.892 563.061 278.222C563.831 278.552 564.491 279.036 565.041 279.674C565.591 280.312 565.877 281.159 565.899 282.215C565.899 283.183 565.635 284.052 565.107 284.822C564.579 285.57 563.842 286.164 562.896 286.604C561.95 287.044 560.861 287.264 559.629 287.264ZM576.524 272.942C577.096 271.732 577.998 270.731 579.23 269.939C580.484 269.125 581.969 268.718 583.685 268.718C585.313 268.718 586.776 269.103 588.074 269.873C589.394 270.621 590.417 271.699 591.143 273.107C591.891 274.493 592.265 276.11 592.265 277.958C592.265 279.806 591.891 281.434 591.143 282.842C590.417 284.25 589.394 285.339 588.074 286.109C586.776 286.879 585.313 287.264 583.685 287.264C581.991 287.264 580.517 286.868 579.263 286.076C578.009 285.262 577.096 284.25 576.524 283.04V295.514H574.247V268.982H576.524V272.942ZM589.922 277.958C589.922 276.462 589.625 275.175 589.031 274.097C588.459 272.997 587.667 272.161 586.655 271.589C585.643 271.017 584.499 270.731 583.223 270.731C581.991 270.731 580.858 271.028 579.824 271.622C578.812 272.216 578.009 273.063 577.415 274.163C576.821 275.263 576.524 276.539 576.524 277.991C576.524 279.443 576.821 280.719 577.415 281.819C578.009 282.919 578.812 283.766 579.824 284.36C580.858 284.954 581.991 285.251 583.223 285.251C584.499 285.251 585.643 284.965 586.655 284.393C587.667 283.799 588.459 282.952 589.031 281.852C589.625 280.73 589.922 279.432 589.922 277.958ZM601.67 265.583C601.208 265.583 600.812 265.418 600.482 265.088C600.152 264.758 599.987 264.351 599.987 263.867C599.987 263.383 600.152 262.987 600.482 262.679C600.812 262.349 601.208 262.184 601.67 262.184C602.132 262.184 602.528 262.349 602.858 262.679C603.188 262.987 603.353 263.383 603.353 263.867C603.353 264.351 603.188 264.758 602.858 265.088C602.528 265.418 602.132 265.583 601.67 265.583ZM602.825 268.982V287H600.515V268.982H602.825ZM614.367 272.183C614.873 271.061 615.643 270.192 616.677 269.576C617.733 268.96 619.02 268.652 620.538 268.652V271.061H619.911C618.239 271.061 616.897 271.512 615.885 272.414C614.873 273.316 614.367 274.823 614.367 276.935V287H612.057V268.982H614.367V272.183ZM644.315 277.067C644.315 277.859 644.293 278.464 644.249 278.882H629.3C629.366 280.246 629.696 281.412 630.29 282.38C630.884 283.348 631.665 284.085 632.633 284.591C633.601 285.075 634.657 285.317 635.801 285.317C637.297 285.317 638.551 284.954 639.563 284.228C640.597 283.502 641.279 282.523 641.609 281.291H644.051C643.611 283.051 642.665 284.492 641.213 285.614C639.783 286.714 637.979 287.264 635.801 287.264C634.107 287.264 632.589 286.89 631.247 286.142C629.905 285.372 628.849 284.294 628.079 282.908C627.331 281.5 626.957 279.861 626.957 277.991C626.957 276.121 627.331 274.482 628.079 273.074C628.827 271.666 629.872 270.588 631.214 269.84C632.556 269.092 634.085 268.718 635.801 268.718C637.517 268.718 639.013 269.092 640.289 269.84C641.587 270.588 642.577 271.6 643.259 272.876C643.963 274.13 644.315 275.527 644.315 277.067ZM641.972 277.001C641.994 275.659 641.719 274.515 641.147 273.569C640.597 272.623 639.838 271.908 638.87 271.424C637.902 270.94 636.846 270.698 635.702 270.698C633.986 270.698 632.523 271.248 631.313 272.348C630.103 273.448 629.432 274.999 629.3 277.001H641.972ZM652.937 287.165C652.453 287.165 652.046 287 651.716 286.67C651.408 286.34 651.254 285.933 651.254 285.449C651.254 284.965 651.408 284.569 651.716 284.261C652.046 283.931 652.453 283.766 652.937 283.766C653.399 283.766 653.784 283.931 654.092 284.261C654.422 284.569 654.587 284.965 654.587 285.449C654.587 285.933 654.422 286.34 654.092 286.67C653.784 287 653.399 287.165 652.937 287.165ZM693.741 270.665C693.081 269.147 692.069 267.959 690.705 267.101C689.363 266.221 687.779 265.781 685.953 265.781C684.237 265.781 682.697 266.177 681.333 266.969C679.969 267.761 678.891 268.894 678.099 270.368C677.307 271.82 676.911 273.514 676.911 275.45C676.911 277.386 677.307 279.091 678.099 280.565C678.891 282.039 679.969 283.172 681.333 283.964C682.697 284.756 684.237 285.152 685.953 285.152C687.559 285.152 689 284.811 690.276 284.129C691.574 283.425 692.608 282.435 693.378 281.159C694.17 279.861 694.621 278.354 694.731 276.638H685.029V274.757H697.173V276.44C697.063 278.464 696.513 280.301 695.523 281.951C694.533 283.579 693.202 284.866 691.53 285.812C689.88 286.758 688.021 287.231 685.953 287.231C683.819 287.231 681.883 286.736 680.145 285.746C678.407 284.734 677.032 283.337 676.02 281.555C675.03 279.751 674.535 277.716 674.535 275.45C674.535 273.184 675.03 271.16 676.02 269.378C677.032 267.574 678.407 266.177 680.145 265.187C681.883 264.175 683.819 263.669 685.953 263.669C688.417 263.669 690.573 264.285 692.421 265.517C694.269 266.749 695.611 268.465 696.447 270.665H693.741ZM721.706 277.067C721.706 277.859 721.684 278.464 721.64 278.882H706.691C706.757 280.246 707.087 281.412 707.681 282.38C708.275 283.348 709.056 284.085 710.024 284.591C710.992 285.075 712.048 285.317 713.192 285.317C714.688 285.317 715.942 284.954 716.954 284.228C717.988 283.502 718.67 282.523 719 281.291H721.442C721.002 283.051 720.056 284.492 718.604 285.614C717.174 286.714 715.37 287.264 713.192 287.264C711.498 287.264 709.98 286.89 708.638 286.142C707.296 285.372 706.24 284.294 705.47 282.908C704.722 281.5 704.348 279.861 704.348 277.991C704.348 276.121 704.722 274.482 705.47 273.074C706.218 271.666 707.263 270.588 708.605 269.84C709.947 269.092 711.476 268.718 713.192 268.718C714.908 268.718 716.404 269.092 717.68 269.84C718.978 270.588 719.968 271.6 720.65 272.876C721.354 274.13 721.706 275.527 721.706 277.067ZM719.363 277.001C719.385 275.659 719.11 274.515 718.538 273.569C717.988 272.623 717.229 271.908 716.261 271.424C715.293 270.94 714.237 270.698 713.093 270.698C711.377 270.698 709.914 271.248 708.704 272.348C707.494 273.448 706.823 274.999 706.691 277.001H719.363ZM732.935 270.929V282.116C732.935 283.216 733.144 283.975 733.562 284.393C733.98 284.811 734.717 285.02 735.773 285.02H737.885V287H735.41C733.782 287 732.572 286.626 731.78 285.878C730.988 285.108 730.592 283.854 730.592 282.116V270.929H728.084V268.982H730.592V264.461H732.935V268.982H737.885V270.929H732.935ZM761.061 263.933V287H758.751V263.933H761.061ZM778.74 268.652C780.896 268.652 782.656 269.323 784.02 270.665C785.384 271.985 786.066 273.91 786.066 276.44V287H783.789V276.704C783.789 274.746 783.294 273.25 782.304 272.216C781.336 271.182 780.005 270.665 778.311 270.665C776.573 270.665 775.187 271.215 774.153 272.315C773.119 273.415 772.602 275.032 772.602 277.166V287H770.292V268.982H772.602V272.051C773.174 270.951 773.999 270.115 775.077 269.543C776.155 268.949 777.376 268.652 778.74 268.652ZM801.379 287.264C799.311 287.264 797.617 286.791 796.297 285.845C794.999 284.877 794.273 283.568 794.119 281.918H796.495C796.605 282.93 797.078 283.755 797.914 284.393C798.772 285.009 799.916 285.317 801.346 285.317C802.6 285.317 803.579 285.02 804.283 284.426C805.009 283.832 805.372 283.095 805.372 282.215C805.372 281.599 805.174 281.093 804.778 280.697C804.382 280.301 803.876 279.993 803.26 279.773C802.666 279.531 801.852 279.278 800.818 279.014C799.476 278.662 798.387 278.31 797.551 277.958C796.715 277.606 796 277.089 795.406 276.407C794.834 275.703 794.548 274.768 794.548 273.602C794.548 272.722 794.812 271.908 795.34 271.16C795.868 270.412 796.616 269.818 797.584 269.378C798.552 268.938 799.652 268.718 800.884 268.718C802.82 268.718 804.382 269.213 805.57 270.203C806.758 271.171 807.396 272.513 807.484 274.229H805.174C805.108 273.173 804.69 272.326 803.92 271.688C803.172 271.028 802.138 270.698 800.818 270.698C799.652 270.698 798.706 270.973 797.98 271.523C797.254 272.073 796.891 272.755 796.891 273.569C796.891 274.273 797.1 274.856 797.518 275.318C797.958 275.758 798.497 276.11 799.135 276.374C799.773 276.616 800.631 276.891 801.709 277.199C803.007 277.551 804.041 277.892 804.811 278.222C805.581 278.552 806.241 279.036 806.791 279.674C807.341 280.312 807.627 281.159 807.649 282.215C807.649 283.183 807.385 284.052 806.857 284.822C806.329 285.57 805.592 286.164 804.646 286.604C803.7 287.044 802.611 287.264 801.379 287.264ZM818.274 272.942C818.846 271.732 819.748 270.731 820.98 269.939C822.234 269.125 823.719 268.718 825.435 268.718C827.063 268.718 828.526 269.103 829.824 269.873C831.144 270.621 832.167 271.699 832.893 273.107C833.641 274.493 834.015 276.11 834.015 277.958C834.015 279.806 833.641 281.434 832.893 282.842C832.167 284.25 831.144 285.339 829.824 286.109C828.526 286.879 827.063 287.264 825.435 287.264C823.741 287.264 822.267 286.868 821.013 286.076C819.759 285.262 818.846 284.25 818.274 283.04V295.514H815.997V268.982H818.274V272.942ZM831.672 277.958C831.672 276.462 831.375 275.175 830.781 274.097C830.209 272.997 829.417 272.161 828.405 271.589C827.393 271.017 826.249 270.731 824.973 270.731C823.741 270.731 822.608 271.028 821.574 271.622C820.562 272.216 819.759 273.063 819.165 274.163C818.571 275.263 818.274 276.539 818.274 277.991C818.274 279.443 818.571 280.719 819.165 281.819C819.759 282.919 820.562 283.766 821.574 284.36C822.608 284.954 823.741 285.251 824.973 285.251C826.249 285.251 827.393 284.965 828.405 284.393C829.417 283.799 830.209 282.952 830.781 281.852C831.375 280.73 831.672 279.432 831.672 277.958ZM843.42 265.583C842.958 265.583 842.562 265.418 842.232 265.088C841.902 264.758 841.737 264.351 841.737 263.867C841.737 263.383 841.902 262.987 842.232 262.679C842.562 262.349 842.958 262.184 843.42 262.184C843.882 262.184 844.278 262.349 844.608 262.679C844.938 262.987 845.103 263.383 845.103 263.867C845.103 264.351 844.938 264.758 844.608 265.088C844.278 265.418 843.882 265.583 843.42 265.583ZM844.575 268.982V287H842.265V268.982H844.575ZM856.117 272.183C856.623 271.061 857.393 270.192 858.427 269.576C859.483 268.96 860.77 268.652 862.288 268.652V271.061H861.661C859.989 271.061 858.647 271.512 857.635 272.414C856.623 273.316 856.117 274.823 856.117 276.935V287H853.807V268.982H856.117V272.183ZM886.065 277.067C886.065 277.859 886.043 278.464 885.999 278.882H871.05C871.116 280.246 871.446 281.412 872.04 282.38C872.634 283.348 873.415 284.085 874.383 284.591C875.351 285.075 876.407 285.317 877.551 285.317C879.047 285.317 880.301 284.954 881.313 284.228C882.347 283.502 883.029 282.523 883.359 281.291H885.801C885.361 283.051 884.415 284.492 882.963 285.614C881.533 286.714 879.729 287.264 877.551 287.264C875.857 287.264 874.339 286.89 872.997 286.142C871.655 285.372 870.599 284.294 869.829 282.908C869.081 281.5 868.707 279.861 868.707 277.991C868.707 276.121 869.081 274.482 869.829 273.074C870.577 271.666 871.622 270.588 872.964 269.84C874.306 269.092 875.835 268.718 877.551 268.718C879.267 268.718 880.763 269.092 882.039 269.84C883.337 270.588 884.327 271.6 885.009 272.876C885.713 274.13 886.065 275.527 886.065 277.067ZM883.722 277.001C883.744 275.659 883.469 274.515 882.897 273.569C882.347 272.623 881.588 271.908 880.62 271.424C879.652 270.94 878.596 270.698 877.452 270.698C875.736 270.698 874.273 271.248 873.063 272.348C871.853 273.448 871.182 274.999 871.05 277.001H883.722ZM893.235 277.958C893.235 276.11 893.609 274.493 894.357 273.107C895.105 271.699 896.128 270.621 897.426 269.873C898.746 269.103 900.231 268.718 901.881 268.718C903.465 268.718 904.895 269.103 906.171 269.873C907.447 270.643 908.382 271.644 908.976 272.876V262.58H911.286V287H908.976V282.974C908.426 284.228 907.524 285.262 906.27 286.076C905.016 286.868 903.542 287.264 901.848 287.264C900.198 287.264 898.713 286.879 897.393 286.109C896.095 285.339 895.072 284.25 894.324 282.842C893.598 281.434 893.235 279.806 893.235 277.958ZM908.976 277.991C908.976 276.539 908.679 275.263 908.085 274.163C907.491 273.063 906.677 272.216 905.643 271.622C904.631 271.028 903.509 270.731 902.277 270.731C901.001 270.731 899.857 271.017 898.845 271.589C897.833 272.161 897.03 272.997 896.436 274.097C895.864 275.175 895.578 276.462 895.578 277.958C895.578 279.432 895.864 280.73 896.436 281.852C897.03 282.952 897.833 283.799 898.845 284.393C899.857 284.965 901.001 285.251 902.277 285.251C903.509 285.251 904.631 284.954 905.643 284.36C906.677 283.766 907.491 282.919 908.085 281.819C908.679 280.719 908.976 279.443 908.976 277.991ZM920.955 287.165C920.471 287.165 920.064 287 919.734 286.67C919.426 286.34 919.272 285.933 919.272 285.449C919.272 284.965 919.426 284.569 919.734 284.261C920.064 283.931 920.471 283.766 920.955 283.766C921.417 283.766 921.802 283.931 922.11 284.261C922.44 284.569 922.605 284.965 922.605 285.449C922.605 285.933 922.44 286.34 922.11 286.67C921.802 287 921.417 287.165 920.955 287.165Z" fill="#272727"/>
<defs>
<filter id="filter0_d" x="0.427734" y="9.92188" width="522.154" height="278.398" filterUnits="userSpaceOnUse" color-interpolation-filters="sRGB">
<feFlood flood-opacity="0" result="BackgroundImageFix"/>
<feColorMatrix in="SourceAlpha" type="matrix" values="0 0 0 0 0 0 0 0 0 0 0 0 0 0 0 0 0 0 127 0"/>
<feOffset dx="4" dy="4"/>
<feGaussianBlur stdDeviation="5"/>
<feColorMatrix type="matrix" values="0 0 0 0 0 0 0 0 0 0 0 0 0 0 0 0 0 0 0.25 0"/>
<feBlend mode="normal" in2="BackgroundImageFix" result="effect1_dropShadow"/>
<feBlend mode="normal" in="SourceGraphic" in2="effect1_dropShadow" result="shape"/>
</filter>
<filter id="filter1_d" x="474.639" y="87" width="458.266" height="162" filterUnits="userSpaceOnUse" color-interpolation-filters="sRGB">
<feFlood flood-opacity="0" result="BackgroundImageFix"/>
<feColorMatrix in="SourceAlpha" type="matrix" values="0 0 0 0 0 0 0 0 0 0 0 0 0 0 0 0 0 0 127 0"/>
<feOffset dx="4" dy="4"/>
<feGaussianBlur stdDeviation="5"/>
<feColorMatrix type="matrix" values="0 0 0 0 0 0 0 0 0 0 0 0 0 0 0 0 0 0 0.25 0"/>
<feBlend mode="normal" in2="BackgroundImageFix" result="effect1_dropShadow"/>
<feBlend mode="normal" in="SourceGraphic" in2="effect1_dropShadow" result="shape"/>
</filter>
<linearGradient id="paint0_linear" x1="471" y1="156" x2="924" y2="156" gradientUnits="userSpaceOnUse">
<stop stop-color="#FF0060"/>
<stop offset="1" stop-color="#FF69A2"/>
</linearGradient>
</defs>
</svg>
