<svg width="663" height="450" viewBox="0 0 663 450" fill="none" xmlns="http://www.w3.org/2000/svg">
<path opacity="0.08" d="M268.726 379.999L159.302 182.904L261.035 67.7676H217.31L78.6621 224.652V67.7676H42.4072V379.999H78.6621V273.871L132.275 213.446L225 379.999H268.726ZM306.279 159.394C273.101 159.394 244.976 167.084 222.124 182.465L235.088 207.733C253.325 196.088 275.078 190.155 299.907 190.155C334.185 190.155 355.278 208.173 355.278 249.481V271.894C335.942 257.611 312.871 250.36 285.845 250.36C264.971 250.36 247.173 256.073 232.891 267.719C218.389 279.364 211.138 296.723 211.138 319.794C211.138 341.547 217.949 358.246 231.353 369.672C244.756 381.098 261.455 386.811 281.45 386.811C313.091 386.811 339.678 372.089 355.278 349.896V379.999H389.775V246.845C389.775 187.958 359.014 159.394 306.279 159.394ZM291.338 361.103C278.154 361.103 267.168 357.147 258.379 349.457C249.37 341.767 244.976 331.659 244.976 318.695C244.976 304.633 249.59 293.866 259.038 286.176C268.267 278.485 279.692 274.75 293.535 274.75C317.925 274.75 338.359 282.44 355.278 297.602V320.233C344.951 344.184 322.319 361.103 291.338 361.103ZM473.252 160.053C456.992 160.053 442.93 165.546 430.845 176.752C418.76 187.958 409.971 203.119 404.917 222.016V166.205H369.761V379.999H404.917V264.423C409.971 238.715 419.858 219.599 434.58 207.514C449.082 195.429 466.44 190.814 486.436 193.671V161.811C482.261 160.712 477.866 160.053 473.252 160.053ZM596.338 310.346C582.935 340.009 562.72 354.73 535.693 354.73C521.851 354.73 510.645 350.116 501.636 340.668C492.627 331.439 488.013 316.718 488.013 296.723V166.205H452.856V305.731C452.856 359.125 480.322 386.811 523.389 386.811C557.666 386.811 582.495 369.672 596.338 342.646V379.999H631.494V166.205H596.338V310.346Z" fill="#FF69A2"/>
<path d="M50.8945 203.475H53.1621V215.999H50.8945V210.567H45.6211V215.999H43.3535V203.475H45.6211V208.493H50.8945V203.475ZM61.3184 209.539C62.0273 209.773 62.6016 210.16 63.041 210.699C63.4746 211.238 63.6914 211.912 63.6914 212.721C63.6914 213.91 63.2871 214.801 62.4785 215.393C61.6699 215.99 60.6006 216.289 59.2705 216.289C57.5596 216.289 56.083 215.753 54.8408 214.681L55.9219 212.888C56.4434 213.339 56.9297 213.655 57.3809 213.837C57.832 214.03 58.3828 214.127 59.0332 214.127C59.7012 214.127 60.2402 213.975 60.6504 213.67C61.0605 213.365 61.2656 212.899 61.2656 212.272C61.2656 211.634 61.0371 211.162 60.5801 210.857C60.1289 210.553 59.5488 210.4 58.8398 210.4H57.8818L57.8994 208.854H58.7783C59.417 208.854 59.9502 208.684 60.3779 208.344C60.7998 208.01 61.0107 207.544 61.0107 206.946C61.0107 206.396 60.832 205.985 60.4746 205.716C60.123 205.44 59.6543 205.303 59.0684 205.303C57.9785 205.303 56.9824 205.684 56.0801 206.445L55.0957 204.802C56.2793 203.724 57.7793 203.185 59.5957 203.185C60.6445 203.185 61.5322 203.437 62.2588 203.94C62.6221 204.192 62.9033 204.532 63.1025 204.96C63.3076 205.382 63.4102 205.877 63.4102 206.445C63.4102 207.201 63.2197 207.843 62.8389 208.37C62.4639 208.897 61.957 209.287 61.3184 209.539ZM75.7148 201.4L70.0283 218.012H67.8486L73.5352 201.4H75.7148ZM87.8086 215.999L84.8555 210.093L83.1855 212.149V215.999H80.918V203.475H83.1855V209.029L87.6504 203.475H90.2959L86.499 208.098L90.4893 215.999H87.8086ZM95.1738 207.14C97.5234 207.14 98.6982 208.358 98.6982 210.796V215.999H96.6152V215.085C95.9531 215.888 95.0508 216.289 93.9082 216.289C93.0879 216.289 92.4258 216.058 91.9219 215.595C91.4121 215.126 91.1572 214.443 91.1572 213.547C91.1572 212.633 91.4473 211.936 92.0273 211.455C92.6016 210.98 93.3018 210.743 94.1279 210.743C95.0771 210.743 95.9062 210.972 96.6152 211.429V210.98C96.6152 209.656 95.9854 208.988 94.7256 208.977C93.8115 208.977 93.0059 209.193 92.3086 209.627L91.5703 208.115C92.5488 207.465 93.75 207.14 95.1738 207.14ZM94.6289 214.812C95.1035 214.812 95.5078 214.701 95.8418 214.479C96.1758 214.256 96.4336 213.96 96.6152 213.591V212.791C96.0586 212.369 95.417 212.161 94.6904 212.167C94.4736 212.167 94.2715 212.199 94.084 212.264C93.9023 212.322 93.7441 212.41 93.6094 212.527C93.4805 212.639 93.3779 212.779 93.3018 212.949C93.2314 213.113 93.1963 213.301 93.1963 213.512C93.1963 213.916 93.3281 214.235 93.5918 214.47C93.8613 214.698 94.207 214.812 94.6289 214.812ZM105.255 207.157C105.478 207.157 105.677 207.189 105.853 207.254L105.835 209.179C105.038 209.044 104.376 209.199 103.849 209.645C103.321 210.084 102.967 210.775 102.785 211.719V215.999H100.632V207.412H102.785V209.486C102.984 208.801 103.304 208.238 103.743 207.799C104.171 207.371 104.675 207.157 105.255 207.157ZM112.321 207.412H114.483V215.999H112.321V214.663C111.765 215.735 110.854 216.277 109.588 216.289C109.166 216.289 108.785 216.222 108.445 216.087C108.105 215.952 107.815 215.753 107.575 215.489C107.341 215.22 107.159 214.889 107.03 214.496C106.907 214.098 106.846 213.638 106.846 213.116V207.412H109.008V212.51C109.008 213.148 109.143 213.614 109.412 213.907C109.682 214.2 110.039 214.347 110.484 214.347C111.299 214.347 111.911 213.878 112.321 212.94V207.412ZM135.964 215.999H133.767V207.447L130.576 215.208H128.854L125.646 207.395V215.999H123.545V203.475H126.208L129.82 211.807L133.266 203.475H135.85L135.964 215.999ZM145.79 211.517V212.272H139.919C140.089 213.69 140.868 214.399 142.257 214.399C143.253 214.399 144.19 214.136 145.069 213.608L145.79 215.19C144.765 215.923 143.505 216.289 142.011 216.289C140.657 216.289 139.614 215.888 138.882 215.085C138.144 214.282 137.774 213.166 137.774 211.736C137.774 210.336 138.164 209.22 138.943 208.388C139.723 207.556 140.736 207.14 141.984 207.14C143.139 207.14 144.062 207.512 144.753 208.256C145.444 209 145.79 210.087 145.79 211.517ZM141.932 208.818C141.686 208.818 141.451 208.862 141.229 208.95C141.012 209.038 140.815 209.17 140.64 209.346C140.47 209.516 140.323 209.729 140.2 209.987C140.077 210.245 139.989 210.544 139.937 210.884H143.681C143.61 210.175 143.42 209.653 143.109 209.319C142.799 208.985 142.406 208.818 141.932 208.818ZM153.261 202.569H155.423V215.999H153.261V214.795C152.54 215.791 151.567 216.289 150.343 216.289C149.3 216.289 148.43 215.905 147.732 215.138C147.035 214.37 146.687 213.23 146.687 211.719C146.687 210.934 146.795 210.242 147.012 209.645C147.229 209.047 147.519 208.569 147.882 208.212C148.245 207.86 148.644 207.594 149.077 207.412C149.517 207.23 149.991 207.14 150.501 207.14C151.72 207.14 152.64 207.614 153.261 208.563V202.569ZM150.958 214.347C151.491 214.347 151.954 214.209 152.347 213.934C152.739 213.652 153.044 213.254 153.261 212.738V210.541C153.067 210.043 152.78 209.668 152.399 209.416C152.019 209.158 151.573 209.029 151.063 209.029C150.437 209.029 149.909 209.252 149.481 209.697C149.048 210.148 148.831 210.816 148.831 211.701C148.831 212.592 149.033 213.254 149.438 213.688C149.842 214.127 150.349 214.347 150.958 214.347ZM159.51 205.443C159.252 205.701 158.944 205.83 158.587 205.83C158.224 205.83 157.907 205.701 157.638 205.443C157.374 205.186 157.242 204.869 157.242 204.494C157.242 204.119 157.374 203.806 157.638 203.554C157.907 203.296 158.224 203.167 158.587 203.167C158.944 203.167 159.252 203.296 159.51 203.554C159.762 203.806 159.888 204.119 159.888 204.494C159.888 204.875 159.762 205.191 159.51 205.443ZM157.497 215.999V207.412H159.659V215.999H157.497ZM167.13 207.412H169.292V215.999H167.13V214.663C166.573 215.735 165.662 216.277 164.396 216.289C163.975 216.289 163.594 216.222 163.254 216.087C162.914 215.952 162.624 215.753 162.384 215.489C162.149 215.22 161.968 214.889 161.839 214.496C161.716 214.098 161.654 213.638 161.654 213.116V207.412H163.816V212.51C163.816 213.148 163.951 213.614 164.221 213.907C164.49 214.2 164.848 214.347 165.293 214.347C166.107 214.347 166.72 213.878 167.13 212.94V207.412ZM181.333 207.14C182.171 207.14 182.827 207.406 183.302 207.939C183.782 208.467 184.022 209.252 184.022 210.295V215.999H181.86V210.866C181.86 210.257 181.731 209.809 181.474 209.521C181.216 209.234 180.882 209.091 180.472 209.091C179.669 209.091 179.095 209.574 178.749 210.541V215.999H176.587V210.866C176.587 210.257 176.452 209.809 176.183 209.521C175.913 209.234 175.562 209.091 175.128 209.091C174.384 209.091 173.818 209.551 173.432 210.471V215.999H171.278V207.412H173.432V208.73C173.965 207.682 174.835 207.151 176.042 207.14C176.681 207.14 177.22 207.304 177.659 207.632C178.104 207.954 178.412 208.435 178.582 209.073C178.822 208.487 179.168 208.019 179.619 207.667C180.076 207.315 180.647 207.14 181.333 207.14ZM191.467 200.75L193.198 201.743C191.845 204.011 191.168 206.873 191.168 210.33C191.168 213.787 191.845 216.649 193.198 218.917L191.467 219.901C191.08 219.327 190.734 218.688 190.43 217.985C190.125 217.282 189.861 216.506 189.639 215.656C189.182 213.975 188.953 212.196 188.953 210.321C188.953 208.452 189.182 206.674 189.639 204.986C190.084 203.316 190.693 201.904 191.467 200.75ZM197.268 203.475V215.999H195V205.435H193.954V203.475H197.268ZM206.487 209.627C207.19 209.879 207.729 210.269 208.104 210.796C208.479 211.317 208.667 211.965 208.667 212.738C208.667 213.336 208.562 213.857 208.351 214.303C208.146 214.742 207.841 215.111 207.437 215.41C207.038 215.703 206.549 215.923 205.969 216.069C205.395 216.216 204.738 216.289 204 216.289C203.262 216.289 202.603 216.216 202.022 216.069C201.448 215.923 200.962 215.703 200.563 215.41C200.165 215.111 199.86 214.742 199.649 214.303C199.444 213.857 199.342 213.336 199.342 212.738C199.342 211.965 199.526 211.317 199.896 210.796C200.271 210.269 200.812 209.879 201.521 209.627C200.977 209.346 200.546 208.953 200.229 208.449C199.913 207.945 199.755 207.324 199.755 206.586C199.755 205.566 200.112 204.743 200.827 204.116C201.536 203.495 202.597 203.185 204.009 203.185C205.415 203.185 206.473 203.495 207.182 204.116C207.896 204.743 208.254 205.566 208.254 206.586C208.254 207.312 208.096 207.931 207.779 208.44C207.463 208.95 207.032 209.346 206.487 209.627ZM206.057 207.052C206.057 206.483 205.875 206.044 205.512 205.733C205.148 205.423 204.647 205.268 204.009 205.268C203.37 205.268 202.866 205.423 202.497 205.733C202.134 206.044 201.952 206.483 201.952 207.052C201.952 207.626 202.143 208.086 202.523 208.432C202.904 208.783 203.396 208.959 204 208.959C204.604 208.959 205.096 208.78 205.477 208.423C205.863 208.071 206.057 207.614 206.057 207.052ZM202.269 210.919C201.841 211.235 201.627 211.689 201.627 212.281C201.627 212.873 201.838 213.333 202.26 213.661C202.676 213.995 203.256 214.162 204 214.162C204.744 214.162 205.327 213.995 205.749 213.661C206.171 213.333 206.382 212.876 206.382 212.29C206.382 211.71 206.165 211.256 205.731 210.928C205.304 210.611 204.727 210.453 204 210.453C203.273 210.453 202.696 210.608 202.269 210.919ZM215.479 207.14C215.959 207.14 216.407 207.228 216.823 207.403C217.239 207.579 217.617 207.843 217.957 208.194C218.297 208.552 218.563 209.032 218.757 209.636C218.95 210.233 219.047 210.934 219.047 211.736C219.047 212.533 218.944 213.228 218.739 213.819C218.54 214.411 218.259 214.883 217.896 215.234C217.175 215.938 216.293 216.289 215.25 216.289C214.02 216.289 213.1 215.791 212.49 214.795V220.411H210.337V207.412H212.49V209.012C213.17 207.764 214.166 207.14 215.479 207.14ZM214.723 214.303C215.332 214.303 215.848 214.083 216.27 213.644C216.691 213.21 216.902 212.568 216.902 211.719C216.902 210.869 216.697 210.222 216.287 209.776C215.877 209.331 215.367 209.108 214.758 209.108C213.668 209.108 212.912 209.7 212.49 210.884V212.413C212.672 212.999 212.95 213.462 213.325 213.802C213.706 214.136 214.172 214.303 214.723 214.303ZM227.326 215.999H225.023L223.274 212.888L221.569 215.999H219.223L221.982 211.736L219.302 207.412H221.604L223.362 210.523L224.953 207.412H227.273L224.646 211.64L227.326 215.999ZM229.462 219.901L227.722 218.917C229.087 216.644 229.77 213.781 229.77 210.33C229.77 206.82 229.087 203.929 227.722 201.655L229.462 200.662C230.229 201.811 230.842 203.231 231.299 204.925C231.756 206.63 231.984 208.432 231.984 210.33C231.984 212.199 231.756 213.975 231.299 215.656C230.842 217.338 230.229 218.753 229.462 219.901Z" fill="#333333"/>
<path d="M51.6211 156.636H54.5742V168.999H51.6211V163.913H46.6055V168.999H43.6523V156.636H46.6055V161.323H51.6211V156.636ZM61.2656 166.315H68.707V168.999H57.2578V166.526L60.375 163.573C61.0156 162.972 61.5781 162.401 62.0625 161.862C62.5469 161.323 62.9492 160.808 63.2695 160.315C63.5898 159.815 63.832 159.327 63.9961 158.851C64.1602 158.374 64.2422 157.901 64.2422 157.433C64.2422 157.011 64.1758 156.636 64.043 156.308C63.918 155.979 63.7383 155.706 63.5039 155.487C63.2773 155.261 63 155.089 62.6719 154.972C62.3516 154.854 61.9961 154.796 61.6055 154.796C60.3242 154.796 59.0195 155.331 57.6914 156.401L56.2266 154.14C57.9453 152.671 59.9062 151.937 62.1094 151.937C63.6797 151.937 64.9609 152.37 65.9531 153.237C66.9375 154.112 67.4297 155.343 67.4297 156.929C67.4297 158.397 67.0547 159.737 66.3047 160.948C65.5547 162.151 64.5 163.37 63.1406 164.604L61.2656 166.315ZM84.5391 149.534L76.957 171.683H74.0508L81.6328 149.534H84.5391ZM98.6016 168.999L95.9648 163.597L94.2305 165.636V168.999H91.2773V156.636H94.2305V161.968L98.5547 156.636H101.848L98.0977 161.077L102.059 168.999H98.6016ZM112.863 168.999L112.02 166.667H106.57L105.809 168.999H102.996L107.531 156.636H110.988L115.863 168.999H112.863ZM107.273 164.651H111.281L109.184 158.944L107.273 164.651ZM125.25 168.999L122.988 164.534H120.902V168.999H117.996V156.636H123.375C126.562 156.636 128.156 157.886 128.156 160.386C128.156 161.308 127.953 162.085 127.547 162.718C127.141 163.343 126.559 163.819 125.801 164.147L128.637 168.999H125.25ZM120.902 159.132V162.331H123.258C123.867 162.331 124.344 162.187 124.688 161.897C125.031 161.608 125.203 161.206 125.203 160.69C125.211 159.651 124.562 159.132 123.258 159.132H120.902ZM136.02 169.339C134.348 169.339 133.039 168.866 132.094 167.921C131.133 166.968 130.652 165.64 130.652 163.937V156.636H133.605V163.772C133.605 164.624 133.824 165.292 134.262 165.776C134.699 166.261 135.285 166.503 136.02 166.503C136.754 166.503 137.332 166.265 137.754 165.788C138.184 165.312 138.398 164.64 138.398 163.772V156.636H141.352V163.937C141.352 165.663 140.879 166.995 139.934 167.933C138.988 168.87 137.684 169.339 136.02 169.339ZM163.934 168.999V162.812C163.934 162.538 163.938 162.261 163.945 161.979C163.953 161.69 163.965 161.397 163.98 161.101C163.855 161.476 163.738 161.812 163.629 162.108C163.527 162.405 163.426 162.671 163.324 162.905L160.805 168.108H159.152L156.656 162.999C156.547 162.733 156.434 162.444 156.316 162.132C156.199 161.819 156.074 161.476 155.941 161.101C155.957 161.429 155.969 161.729 155.977 162.003C155.984 162.276 155.988 162.53 155.988 162.765V168.999H153.293V156.636H156.516L160.137 164.241L163.523 156.636H166.594L166.758 168.999H163.934ZM179.121 159.155H173.051V161.581H177.691V163.69H173.051V166.456H179.121V168.999H170.074V156.636H179.121V159.155ZM186.211 156.636C188.43 156.636 190.152 157.124 191.379 158.101C192.59 159.077 193.195 160.589 193.195 162.636C193.195 164.714 192.582 166.292 191.355 167.37C190.129 168.456 188.414 168.999 186.211 168.999H181.699V156.636H186.211ZM190.078 162.659C190.078 161.55 189.738 160.71 189.059 160.14C188.387 159.569 187.43 159.284 186.188 159.284H184.652V166.339H186.188C187.414 166.339 188.363 166.007 189.035 165.343C189.723 164.687 190.07 163.792 190.078 162.659ZM198.668 156.636V168.999H195.715V156.636H198.668ZM207.012 169.339C205.34 169.339 204.031 168.866 203.086 167.921C202.125 166.968 201.645 165.64 201.645 163.937V156.636H204.598V163.772C204.598 164.624 204.816 165.292 205.254 165.776C205.691 166.261 206.277 166.503 207.012 166.503C207.746 166.503 208.324 166.265 208.746 165.788C209.176 165.312 209.391 164.64 209.391 163.772V156.636H212.344V163.937C212.344 165.663 211.871 166.995 210.926 167.933C209.98 168.87 208.676 169.339 207.012 169.339ZM225.973 168.999V162.812C225.973 162.538 225.977 162.261 225.984 161.979C225.992 161.69 226.004 161.397 226.02 161.101C225.895 161.476 225.777 161.812 225.668 162.108C225.566 162.405 225.465 162.671 225.363 162.905L222.844 168.108H221.191L218.695 162.999C218.586 162.733 218.473 162.444 218.355 162.132C218.238 161.819 218.113 161.476 217.98 161.101C217.996 161.429 218.008 161.729 218.016 162.003C218.023 162.276 218.027 162.53 218.027 162.765V168.999H215.332V156.636H218.555L222.176 164.241L225.562 156.636H228.633L228.797 168.999H225.973ZM239.18 148.667L241.488 149.991C239.684 153.015 238.781 156.831 238.781 161.44C238.781 166.05 239.684 169.866 241.488 172.89L239.18 174.202C238.664 173.437 238.203 172.585 237.797 171.647C237.391 170.71 237.039 169.675 236.742 168.542C236.133 166.3 235.828 163.929 235.828 161.429C235.828 158.937 236.133 156.565 236.742 154.315C237.336 152.089 238.148 150.206 239.18 148.667ZM246.891 166.315H254.332V168.999H242.883V166.526L246 163.573C246.641 162.972 247.203 162.401 247.688 161.862C248.172 161.323 248.574 160.808 248.895 160.315C249.215 159.815 249.457 159.327 249.621 158.851C249.785 158.374 249.867 157.901 249.867 157.433C249.867 157.011 249.801 156.636 249.668 156.308C249.543 155.979 249.363 155.706 249.129 155.487C248.902 155.261 248.625 155.089 248.297 154.972C247.977 154.854 247.621 154.796 247.23 154.796C245.949 154.796 244.645 155.331 243.316 156.401L241.852 154.14C243.57 152.671 245.531 151.937 247.734 151.937C249.305 151.937 250.586 152.37 251.578 153.237C252.562 154.112 253.055 155.343 253.055 156.929C253.055 158.397 252.68 159.737 251.93 160.948C251.18 162.151 250.125 163.37 248.766 164.604L246.891 166.315ZM268.523 163.315V165.929H266.121V168.999H263.191V165.929H255.387V163.362L262.16 152.218H266.121V163.315H268.523ZM258.539 163.315H263.191V155.194L258.539 163.315ZM275.285 156.636C276.98 156.636 278.25 156.968 279.094 157.632C279.945 158.296 280.371 159.382 280.371 160.89C280.371 161.601 280.266 162.226 280.055 162.765C279.844 163.304 279.535 163.753 279.129 164.112C278.73 164.472 278.242 164.745 277.664 164.933C277.086 165.112 276.43 165.202 275.695 165.202H273.34V168.999H270.387V156.636H275.285ZM275.262 162.976C275.941 162.976 276.465 162.796 276.832 162.437C277.207 162.077 277.395 161.593 277.395 160.983C277.395 160.374 277.207 159.913 276.832 159.601C276.465 159.288 275.941 159.132 275.262 159.132H273.34V162.976H275.262ZM292.805 168.999H289.594L287.098 164.101L284.648 168.999H281.379L285 162.519L281.578 156.636H284.789L287.168 161.171L289.418 156.636H292.617L289.277 162.542L292.805 168.999ZM296.074 174.202L293.754 172.89C295.574 169.858 296.484 166.042 296.484 161.44C296.484 156.761 295.574 152.905 293.754 149.874L296.074 148.55C297.098 150.081 297.914 151.976 298.523 154.233C299.133 156.507 299.438 158.909 299.438 161.44C299.438 163.933 299.133 166.3 298.523 168.542C297.914 170.784 297.098 172.671 296.074 174.202Z" fill="#333333"/>
<path d="M65.7188 73.6006H71.7656V106.999H65.7188V92.5146H51.6562V106.999H45.6094V73.6006H51.6562V86.9834H65.7188V73.6006ZM90.5 73.6006V106.999H84.4531V78.8271H81.6641V73.6006H90.5ZM135.094 68.0693L119.93 112.366H114.117L129.281 68.0693H135.094ZM177.344 106.999L169.469 91.249L165.016 96.7334V106.999H158.969V73.6006H165.016V88.4131L176.922 73.6006H183.977L173.852 85.9287L184.492 106.999H177.344ZM201.984 83.374C208.25 83.374 211.383 86.624 211.383 93.124V106.999H205.828V104.562C204.062 106.702 201.656 107.772 198.609 107.772C196.422 107.772 194.656 107.155 193.312 105.921C191.953 104.671 191.273 102.851 191.273 100.46C191.273 98.0225 192.047 96.1631 193.594 94.8818C195.125 93.6162 196.992 92.9834 199.195 92.9834C201.727 92.9834 203.938 93.5928 205.828 94.8115V93.6162C205.828 90.085 204.148 88.3037 200.789 88.2725C198.352 88.2725 196.203 88.8506 194.344 90.0068L192.375 85.9756C194.984 84.2412 198.188 83.374 201.984 83.374ZM200.531 103.835C201.797 103.835 202.875 103.538 203.766 102.944C204.656 102.351 205.344 101.562 205.828 100.577V98.4443C204.344 97.3193 202.633 96.7646 200.695 96.7803C200.117 96.7803 199.578 96.8662 199.078 97.0381C198.594 97.1943 198.172 97.4287 197.812 97.7412C197.469 98.0381 197.195 98.4131 196.992 98.8662C196.805 99.3037 196.711 99.8037 196.711 100.366C196.711 101.444 197.062 102.296 197.766 102.921C198.484 103.53 199.406 103.835 200.531 103.835ZM233.867 83.4209C234.461 83.4209 234.992 83.5068 235.461 83.6787L235.414 88.8115C233.289 88.4521 231.523 88.8662 230.117 90.0537C228.711 91.2256 227.766 93.0693 227.281 95.585V106.999H221.539V84.1006H227.281V89.6318C227.812 87.8037 228.664 86.3037 229.836 85.1318C230.977 83.9912 232.32 83.4209 233.867 83.4209ZM257.711 84.1006H263.477V106.999H257.711V103.437C256.227 106.296 253.797 107.741 250.422 107.772C249.297 107.772 248.281 107.593 247.375 107.233C246.469 106.874 245.695 106.343 245.055 105.64C244.43 104.921 243.945 104.038 243.602 102.991C243.273 101.929 243.109 100.702 243.109 99.3115V84.1006H248.875V97.6943C248.875 99.3975 249.234 100.64 249.953 101.421C250.672 102.202 251.625 102.593 252.812 102.593C254.984 102.593 256.617 101.343 257.711 98.8428V84.1006ZM335.758 106.999H329.898V84.1943L321.391 104.89H316.797L308.242 84.0537V106.999H302.641V73.6006H309.742L319.375 95.8193L328.562 73.6006H335.453L335.758 106.999ZM366.961 95.0459V97.0615H351.305C351.758 100.843 353.836 102.733 357.539 102.733C360.195 102.733 362.695 102.03 365.039 100.624L366.961 104.843C364.227 106.796 360.867 107.772 356.883 107.772C353.273 107.772 350.492 106.702 348.539 104.562C346.57 102.421 345.586 99.4443 345.586 95.6318C345.586 91.8975 346.625 88.9209 348.703 86.7021C350.781 84.4834 353.484 83.374 356.812 83.374C359.891 83.374 362.352 84.3662 364.195 86.3506C366.039 88.335 366.961 91.2334 366.961 95.0459ZM356.672 87.8506C356.016 87.8506 355.391 87.9678 354.797 88.2021C354.219 88.4365 353.695 88.7881 353.227 89.2568C352.773 89.71 352.383 90.2803 352.055 90.9678C351.727 91.6553 351.492 92.4521 351.352 93.3584H361.336C361.148 91.4678 360.641 90.0771 359.812 89.1865C358.984 88.2959 357.938 87.8506 356.672 87.8506ZM391.883 71.1865H397.648V106.999H391.883V103.788C389.961 106.444 387.367 107.772 384.102 107.772C381.32 107.772 379 106.749 377.141 104.702C375.281 102.655 374.352 99.6162 374.352 95.585C374.352 93.4912 374.641 91.6475 375.219 90.0537C375.797 88.46 376.57 87.1865 377.539 86.2334C378.508 85.2959 379.57 84.585 380.727 84.1006C381.898 83.6162 383.164 83.374 384.523 83.374C387.773 83.374 390.227 84.6396 391.883 87.1709V71.1865ZM385.742 102.593C387.164 102.593 388.398 102.226 389.445 101.491C390.492 100.741 391.305 99.6787 391.883 98.3037V92.4443C391.367 91.1162 390.602 90.1162 389.586 89.4443C388.57 88.7568 387.383 88.4131 386.023 88.4131C384.352 88.4131 382.945 89.0068 381.805 90.1943C380.648 91.3975 380.07 93.1787 380.07 95.5381C380.07 97.9131 380.609 99.6787 381.688 100.835C382.766 102.007 384.117 102.593 385.742 102.593ZM413.547 78.8506C412.859 79.5381 412.039 79.8818 411.086 79.8818C410.117 79.8818 409.273 79.5381 408.555 78.8506C407.852 78.1631 407.5 77.3193 407.5 76.3193C407.5 75.3193 407.852 74.4834 408.555 73.8115C409.273 73.124 410.117 72.7803 411.086 72.7803C412.039 72.7803 412.859 73.124 413.547 73.8115C414.219 74.4834 414.555 75.3193 414.555 76.3193C414.555 77.335 414.219 78.1787 413.547 78.8506ZM408.18 106.999V84.1006H413.945V106.999H408.18ZM438.867 84.1006H444.633V106.999H438.867V103.437C437.383 106.296 434.953 107.741 431.578 107.772C430.453 107.772 429.438 107.593 428.531 107.233C427.625 106.874 426.852 106.343 426.211 105.64C425.586 104.921 425.102 104.038 424.758 102.991C424.43 101.929 424.266 100.702 424.266 99.3115V84.1006H430.031V97.6943C430.031 99.3975 430.391 100.64 431.109 101.421C431.828 102.202 432.781 102.593 433.969 102.593C436.141 102.593 437.773 101.343 438.867 98.8428V84.1006ZM481.742 83.374C483.977 83.374 485.727 84.085 486.992 85.5068C488.273 86.9131 488.914 89.0068 488.914 91.7881V106.999H483.148V93.3115C483.148 91.6865 482.805 90.4912 482.117 89.7256C481.43 88.96 480.539 88.5771 479.445 88.5771C477.305 88.5771 475.773 89.8662 474.852 92.4443V106.999H469.086V93.3115C469.086 91.6865 468.727 90.4912 468.008 89.7256C467.289 88.96 466.352 88.5771 465.195 88.5771C463.211 88.5771 461.703 89.8037 460.672 92.2568V106.999H454.93V84.1006H460.672V87.6162C462.094 84.8193 464.414 83.4053 467.633 83.374C469.336 83.374 470.773 83.8115 471.945 84.6865C473.133 85.5459 473.953 86.8271 474.406 88.5303C475.047 86.9678 475.969 85.7178 477.172 84.7803C478.391 83.8428 479.914 83.374 481.742 83.374ZM537.984 95.6318V100.858H533.18V106.999H527.32V100.858H511.711V95.7256L525.258 73.4365H533.18V95.6318H537.984ZM518.016 95.6318H527.32V79.3896L518.016 95.6318ZM564.383 90.0068C566.258 90.6787 567.695 91.7178 568.695 93.124C569.695 94.5146 570.195 96.2412 570.195 98.3037C570.195 99.8975 569.914 101.288 569.352 102.476C568.805 103.647 567.992 104.632 566.914 105.429C565.852 106.21 564.547 106.796 563 107.187C561.469 107.577 559.719 107.772 557.75 107.772C555.781 107.772 554.023 107.577 552.477 107.187C550.945 106.796 549.648 106.21 548.586 105.429C547.523 104.632 546.711 103.647 546.148 102.476C545.602 101.288 545.328 99.8975 545.328 98.3037C545.328 96.2412 545.82 94.5146 546.805 93.124C547.805 91.7178 549.25 90.6787 551.141 90.0068C549.688 89.2568 548.539 88.21 547.695 86.8662C546.852 85.5225 546.43 83.8662 546.43 81.8975C546.43 79.1787 547.383 76.9834 549.289 75.3115C551.18 73.6553 554.008 72.8271 557.773 72.8271C561.523 72.8271 564.344 73.6553 566.234 75.3115C568.141 76.9834 569.094 79.1787 569.094 81.8975C569.094 83.835 568.672 85.4834 567.828 86.8428C566.984 88.2021 565.836 89.2568 564.383 90.0068ZM563.234 83.1396C563.234 81.624 562.75 80.4521 561.781 79.624C560.812 78.7959 559.477 78.3818 557.773 78.3818C556.07 78.3818 554.727 78.7959 553.742 79.624C552.773 80.4521 552.289 81.624 552.289 83.1396C552.289 84.6709 552.797 85.8975 553.812 86.8193C554.828 87.7568 556.141 88.2256 557.75 88.2256C559.359 88.2256 560.672 87.749 561.688 86.7959C562.719 85.8584 563.234 84.6396 563.234 83.1396ZM553.133 93.4521C551.992 94.2959 551.422 95.5068 551.422 97.085C551.422 98.6631 551.984 99.8896 553.109 100.765C554.219 101.655 555.766 102.101 557.75 102.101C559.734 102.101 561.289 101.655 562.414 100.765C563.539 99.8896 564.102 98.6709 564.102 97.1084C564.102 95.5615 563.523 94.3506 562.367 93.4756C561.227 92.6318 559.688 92.21 557.75 92.21C555.812 92.21 554.273 92.624 553.133 93.4521ZM593.359 83.374C594.641 83.374 595.836 83.6084 596.945 84.0771C598.055 84.5459 599.062 85.249 599.969 86.1865C600.875 87.1396 601.586 88.4209 602.102 90.0303C602.617 91.624 602.875 93.4912 602.875 95.6318C602.875 97.7568 602.602 99.6084 602.055 101.187C601.523 102.765 600.773 104.022 599.805 104.96C597.883 106.835 595.531 107.772 592.75 107.772C589.469 107.772 587.016 106.444 585.391 103.788V118.765H579.648V84.1006H585.391V88.3662C587.203 85.0381 589.859 83.374 593.359 83.374ZM591.344 102.476C592.969 102.476 594.344 101.89 595.469 100.718C596.594 99.5615 597.156 97.8506 597.156 95.585C597.156 93.3193 596.609 91.5928 595.516 90.4053C594.422 89.2178 593.062 88.624 591.438 88.624C588.531 88.624 586.516 90.2021 585.391 93.3584V97.4365C585.875 98.999 586.617 100.233 587.617 101.14C588.633 102.03 589.875 102.476 591.344 102.476ZM629.953 106.999H623.812L619.148 98.7021L614.602 106.999H608.344L615.703 95.6318L608.555 84.1006H614.695L619.383 92.3975L623.625 84.1006H629.812L622.805 95.374L629.953 106.999Z" fill="#333333"/>
<path d="M49.2812 294.077C50.3047 293.632 50.8984 292.718 50.8984 291.522C50.8984 289.796 49.7969 288.897 47.7422 288.897H43.5078V299.999H47.9219C49.0625 299.999 49.9453 299.71 50.5781 299.132C51.2109 298.554 51.5234 297.772 51.5234 296.78C51.5234 295.288 50.6641 294.319 49.2812 294.077ZM49.6016 291.757C49.6016 292.39 49.4062 292.882 49.0156 293.241C48.625 293.608 48.1562 293.788 47.6016 293.788H44.7969V290.046H47.5234C48.9062 290.046 49.6016 290.616 49.6016 291.757ZM44.7969 298.851V294.687H47.9062C49.3359 294.687 50.2109 295.312 50.2109 296.655C50.2109 297.358 50 297.897 49.5859 298.28C49.1719 298.663 48.6172 298.851 47.9219 298.851H44.7969ZM59.125 299.163C59.8359 298.444 60.1875 297.452 60.1875 296.194C60.1875 294.944 59.8359 293.96 59.125 293.233C58.4141 292.515 57.5 292.155 56.3828 292.155C55.2656 292.155 54.3516 292.515 53.6406 293.233C52.9297 293.96 52.5781 294.944 52.5781 296.194C52.5781 297.452 52.9297 298.437 53.6406 299.155C54.3516 299.882 55.2656 300.241 56.3828 300.241C57.5 300.241 58.4141 299.882 59.125 299.163ZM54.5781 298.335C54.0859 297.843 53.8359 297.132 53.8359 296.187C53.8359 295.249 54.0781 294.538 54.5625 294.046C55.0391 293.554 55.6484 293.304 56.3828 293.296C57.0938 293.288 57.7031 293.538 58.2031 294.046C58.6953 294.554 58.9453 295.265 58.9453 296.179C58.9453 297.093 58.7031 297.804 58.2109 298.312C57.7188 298.819 57.1094 299.069 56.3906 299.069C55.6719 299.069 55.0703 298.827 54.5781 298.335ZM67.3906 293.632C66.7891 292.647 65.8906 292.155 64.6875 292.155C63.7266 292.155 62.9219 292.499 62.2578 293.194C61.5938 293.89 61.2656 294.89 61.2656 296.194C61.2656 297.515 61.5703 298.522 62.1875 299.21C62.7969 299.897 63.5781 300.241 64.5234 300.241C65.7656 300.241 66.7188 299.71 67.3906 298.64V299.999H68.6406V288.093H67.3906V293.632ZM64.8281 299.101C64.1641 299.101 63.6172 298.858 63.1719 298.374C62.7266 297.89 62.5078 297.163 62.5078 296.187C62.5078 295.218 62.75 294.491 63.2344 293.999C63.7109 293.507 64.2891 293.265 64.9609 293.265C66.0859 293.265 66.9609 293.874 67.3906 294.96V297.249C66.8984 298.413 66.0078 299.101 64.8281 299.101ZM73.4766 298.562L71.1406 292.397H69.8125L72.875 299.952L71.1797 303.921H72.4844L77.1797 292.397H75.8516L73.4766 298.562ZM84.7812 297.187C85.2266 296.757 85.6094 296.366 85.9219 296.015C86.2266 295.663 86.5391 295.257 86.8594 294.804C87.4844 293.897 87.8047 292.897 87.8047 291.874C87.8047 290.858 87.4922 290.069 86.875 289.507C86.25 288.952 85.4609 288.671 84.5 288.671C83.1328 288.671 81.8828 289.14 80.75 290.077L81.4062 291.069C82.3672 290.296 83.3359 289.905 84.3047 289.905C84.9219 289.905 85.4297 290.093 85.8281 290.476C86.2188 290.858 86.4141 291.382 86.4141 292.046C86.4141 292.796 86.1719 293.538 85.6953 294.28C85.2188 295.022 84.5312 295.819 83.6328 296.687L81.375 298.929V299.999H88.7344V298.827H83.0547L84.7812 297.187ZM97.7734 287.022L92.7109 301.788H93.9766L99.0312 287.022H97.7734ZM112.398 299.999L108.508 292.991L112.125 288.897H110.57L105.641 294.476V288.897H104.352V299.999H105.641V296.226L107.547 294.077L110.844 299.999H112.398ZM116.578 292.155C115.398 292.155 114.398 292.429 113.586 292.976L114.047 293.874C114.695 293.46 115.469 293.249 116.352 293.249C117.57 293.249 118.32 293.89 118.32 295.358V296.155C117.633 295.647 116.812 295.39 115.852 295.39C115.109 295.39 114.477 295.593 113.969 296.007C113.453 296.421 113.195 297.038 113.195 297.858C113.195 298.632 113.438 299.226 113.914 299.632C114.391 300.038 114.984 300.241 115.695 300.241C116.82 300.241 117.766 299.718 118.32 298.929V299.999H119.547V295.265C119.547 293.171 118.453 292.155 116.578 292.155ZM116.047 299.327C115.578 299.327 115.188 299.187 114.875 298.913C114.555 298.64 114.398 298.28 114.398 297.819C114.398 297.319 114.562 296.937 114.898 296.663C115.227 296.39 115.633 296.257 116.125 296.257C116.992 296.257 117.719 296.53 118.32 297.069V297.874C117.953 298.726 117.148 299.327 116.047 299.327ZM125.359 292.179C124.781 292.179 124.281 292.374 123.852 292.772C123.422 293.171 123.109 293.71 122.93 294.382V292.397H121.68V299.999H122.93V295.89C123.109 294.976 123.461 294.296 123.984 293.866C124.5 293.437 125.117 293.272 125.828 293.374V292.241C125.68 292.202 125.523 292.179 125.359 292.179ZM132.047 297.522C131.57 298.577 130.852 299.101 129.891 299.101C129.398 299.101 129 298.937 128.68 298.601C128.359 298.272 128.195 297.749 128.195 297.038V292.397H126.945V297.358C126.945 299.257 127.922 300.241 129.453 300.241C130.672 300.241 131.555 299.632 132.047 298.671V299.999H133.297V292.397H132.047V297.522ZM147.32 299.999L144.359 295.218C145.203 295.077 145.859 294.718 146.336 294.147C146.812 293.577 147.047 292.866 147.047 292.015C147.047 289.96 145.75 288.897 143.555 288.897H139.258V299.999H140.547V295.28H142.969L145.766 299.999H147.32ZM143.445 290.062C144.812 290.062 145.672 290.718 145.672 292.062C145.672 293.429 144.805 294.194 143.461 294.194H140.547V290.062H143.445ZM154.367 298.304C153.578 298.843 152.688 299.116 151.711 299.116C150.242 299.116 149.297 298.257 149.211 296.444H154.828V296.046C154.828 294.765 154.531 293.796 153.945 293.14C153.352 292.483 152.57 292.155 151.602 292.155C150.531 292.155 149.664 292.522 148.984 293.257C148.305 293.999 147.969 294.983 147.969 296.21C147.969 297.476 148.289 298.46 148.922 299.171C149.555 299.882 150.438 300.241 151.578 300.241C152.867 300.241 153.961 299.905 154.844 299.233L154.367 298.304ZM151.547 293.171C152.102 293.171 152.562 293.366 152.945 293.757C153.32 294.155 153.539 294.765 153.602 295.585H149.242C149.328 294.804 149.594 294.202 150.031 293.788C150.461 293.374 150.969 293.171 151.547 293.171ZM157.789 299.374C157.109 299.374 156.766 299.077 156.766 298.476C156.766 298.093 156.961 297.772 157.344 297.507C157.781 297.733 158.273 297.843 158.828 297.843C159.703 297.843 160.422 297.585 160.984 297.069C161.539 296.562 161.82 295.858 161.82 294.976C161.82 294.335 161.672 293.788 161.375 293.343H162.461V292.397H160.172C159.766 292.233 159.32 292.155 158.828 292.155C157.969 292.155 157.273 292.405 156.734 292.897C156.195 293.397 155.922 294.093 155.922 294.976C155.922 295.827 156.18 296.515 156.703 297.038C156.109 297.382 155.711 298.038 155.711 298.655C155.711 299.374 156.008 299.882 156.609 300.179C155.898 300.569 155.539 301.155 155.539 301.937C155.539 303.405 156.766 304.155 158.961 304.155C160.078 304.155 160.969 303.937 161.633 303.507C162.297 303.069 162.625 302.421 162.625 301.569C162.625 300.187 161.672 299.374 160.109 299.374H157.789ZM158.883 293.116C159.414 293.116 159.859 293.272 160.227 293.593C160.586 293.913 160.766 294.382 160.766 294.991C160.766 295.593 160.586 296.054 160.234 296.374C159.875 296.702 159.422 296.866 158.883 296.866C158.336 296.866 157.883 296.702 157.531 296.374C157.172 296.054 156.992 295.593 156.992 294.991C156.992 294.382 157.172 293.913 157.539 293.593C157.906 293.272 158.352 293.116 158.883 293.116ZM158.961 303.147C157.531 303.147 156.641 302.694 156.641 301.757C156.641 301.062 157.141 300.546 157.953 300.397H160.016C160.891 300.397 161.469 300.827 161.469 301.616C161.469 302.124 161.242 302.507 160.781 302.765C160.32 303.022 159.719 303.147 158.961 303.147ZM168.672 297.522C168.195 298.577 167.477 299.101 166.516 299.101C166.023 299.101 165.625 298.937 165.305 298.601C164.984 298.272 164.82 297.749 164.82 297.038V292.397H163.57V297.358C163.57 299.257 164.547 300.241 166.078 300.241C167.297 300.241 168.18 299.632 168.672 298.671V299.999H169.922V292.397H168.672V297.522ZM172.086 288.093V299.999H173.336V288.093H172.086ZM178.25 292.155C177.07 292.155 176.07 292.429 175.258 292.976L175.719 293.874C176.367 293.46 177.141 293.249 178.023 293.249C179.242 293.249 179.992 293.89 179.992 295.358V296.155C179.305 295.647 178.484 295.39 177.523 295.39C176.781 295.39 176.148 295.593 175.641 296.007C175.125 296.421 174.867 297.038 174.867 297.858C174.867 298.632 175.109 299.226 175.586 299.632C176.062 300.038 176.656 300.241 177.367 300.241C178.492 300.241 179.438 299.718 179.992 298.929V299.999H181.219V295.265C181.219 293.171 180.125 292.155 178.25 292.155ZM177.719 299.327C177.25 299.327 176.859 299.187 176.547 298.913C176.227 298.64 176.07 298.28 176.07 297.819C176.07 297.319 176.234 296.937 176.57 296.663C176.898 296.39 177.305 296.257 177.797 296.257C178.664 296.257 179.391 296.53 179.992 297.069V297.874C179.625 298.726 178.82 299.327 177.719 299.327ZM187.031 292.179C186.453 292.179 185.953 292.374 185.523 292.772C185.094 293.171 184.781 293.71 184.602 294.382V292.397H183.352V299.999H184.602V295.89C184.781 294.976 185.133 294.296 185.656 293.866C186.172 293.437 186.789 293.272 187.5 293.374V292.241C187.352 292.202 187.195 292.179 187.031 292.179ZM193.93 286.546C193.234 287.593 192.695 288.858 192.312 290.351C191.93 291.843 191.734 293.382 191.734 294.96C191.734 296.538 191.93 298.069 192.312 299.562C192.695 301.062 193.234 302.327 193.93 303.374L194.922 302.78C193.664 300.671 193.031 298.062 193.031 294.96C193.031 291.858 193.664 289.249 194.922 287.132L193.93 286.546ZM195.664 288.897V290.015H196.625V299.999H197.922V288.897H195.664ZM204.742 289.874C205.594 289.866 206.344 290.187 206.977 290.851L207.734 289.843C206.883 289.038 205.867 288.64 204.695 288.64C203.25 288.64 202.117 289.163 201.289 290.202C200.453 291.241 200.039 292.694 200.039 294.562C200.039 298.351 201.547 300.241 204.195 300.241C205.414 300.241 206.375 299.897 207.086 299.218C207.797 298.538 208.148 297.647 208.148 296.562C208.148 295.476 207.844 294.64 207.234 294.062C206.617 293.491 205.797 293.202 204.758 293.202C203.031 293.202 201.938 293.952 201.445 295.147C201.422 294.89 201.414 294.647 201.414 294.413C201.414 292.944 201.719 291.819 202.336 291.038C202.953 290.265 203.75 289.874 204.742 289.874ZM204.453 294.241C205.883 294.241 206.789 295.022 206.789 296.53C206.789 297.288 206.547 297.89 206.07 298.343C205.586 298.796 204.961 299.022 204.195 299.022C203.469 299.022 202.875 298.78 202.414 298.296C201.953 297.812 201.719 297.233 201.719 296.562C201.719 295.866 201.977 295.312 202.484 294.882C202.992 294.452 203.648 294.241 204.453 294.241ZM213.875 292.155C212.594 292.155 211.641 292.772 211.008 293.999V292.397H209.758V303.921H211.008V298.624C211.539 299.624 212.461 300.241 213.742 300.241C214.711 300.241 215.516 299.897 216.164 299.21C216.812 298.522 217.133 297.522 217.133 296.21C217.133 294.89 216.82 293.882 216.203 293.187C215.578 292.499 214.805 292.155 213.875 292.155ZM213.484 299.085C212.305 299.085 211.438 298.327 211.008 297.085V295.233C211.477 294.015 212.359 293.312 213.516 293.312C214.164 293.312 214.727 293.554 215.195 294.038C215.656 294.53 215.891 295.249 215.891 296.21C215.891 297.155 215.656 297.874 215.188 298.358C214.711 298.843 214.148 299.085 213.484 299.085ZM221.617 296.14L224.031 292.397H222.672L220.867 295.507L218.883 292.397H217.539L220.047 296.179L217.477 299.999H218.82L220.805 296.851L222.75 299.999H224.094L221.617 296.14ZM225.547 303.374C226.227 302.327 226.766 301.062 227.156 299.562C227.539 298.069 227.734 296.538 227.734 294.96C227.734 293.374 227.539 291.827 227.156 290.319C226.766 288.819 226.227 287.554 225.547 286.515L224.539 287.085C225.812 289.202 226.445 291.827 226.445 294.96C226.445 298.062 225.812 300.663 224.539 302.78L225.547 303.374Z" fill="#333333"/>
<path d="M49.5391 252.046C50.2057 252.187 50.7266 252.483 51.1016 252.937C51.4766 253.384 51.6641 253.973 51.6641 254.702C51.6641 255.723 51.3385 256.528 50.6875 257.116C50.0365 257.705 49.0885 257.999 47.8438 257.999H43.2812V246.866H47.8203C48.8568 246.866 49.6536 247.093 50.2109 247.546C50.7734 247.999 51.0547 248.679 51.0547 249.585C51.0547 250.137 50.9245 250.627 50.6641 251.054C50.4036 251.481 50.0286 251.812 49.5391 252.046ZM49.0859 250.03C49.0859 249.103 48.5208 248.64 47.3906 248.64H45.2969V251.632H47.4375C47.9062 251.632 48.2995 251.489 48.6172 251.202C48.9297 250.921 49.0859 250.53 49.0859 250.03ZM47.8047 256.226C48.0807 256.226 48.3307 256.189 48.5547 256.116C48.7839 256.038 48.9792 255.926 49.1406 255.78C49.3021 255.629 49.4271 255.444 49.5156 255.226C49.6042 255.007 49.6484 254.757 49.6484 254.476C49.6484 253.944 49.4818 253.554 49.1484 253.304C48.8203 253.054 48.3672 252.929 47.7891 252.929H45.2969V256.226H47.8047ZM59.3203 257.171C58.5911 257.895 57.638 258.257 56.4609 258.257C55.2891 258.257 54.3385 257.892 53.6094 257.163C52.875 256.434 52.5078 255.439 52.5078 254.179C52.5078 252.918 52.875 251.926 53.6094 251.202C54.3385 250.483 55.2891 250.124 56.4609 250.124C57.6328 250.124 58.5859 250.483 59.3203 251.202C60.0495 251.931 60.4141 252.924 60.4141 254.179C60.4141 255.444 60.0495 256.442 59.3203 257.171ZM55 255.89C55.3854 256.28 55.8724 256.476 56.4609 256.476C57.0495 256.476 57.5391 256.275 57.9297 255.874C58.3151 255.473 58.5078 254.905 58.5078 254.171C58.5078 253.442 58.3151 252.871 57.9297 252.46C57.5391 252.059 57.0495 251.858 56.4609 251.858C55.8724 251.864 55.3828 252.062 54.9922 252.452C54.6068 252.848 54.4141 253.421 54.4141 254.171C54.4141 254.931 54.6094 255.504 55 255.89ZM67.0703 246.062H68.9922V257.999H67.0703V256.929C66.4297 257.814 65.5651 258.257 64.4766 258.257C63.5495 258.257 62.776 257.916 62.1562 257.233C61.5365 256.551 61.2266 255.538 61.2266 254.194C61.2266 253.496 61.3229 252.882 61.5156 252.351C61.7083 251.819 61.9661 251.395 62.2891 251.077C62.612 250.765 62.9661 250.528 63.3516 250.366C63.7422 250.205 64.1641 250.124 64.6172 250.124C65.7005 250.124 66.5182 250.546 67.0703 251.39V246.062ZM65.0234 256.53C65.4974 256.53 65.9089 256.408 66.2578 256.163C66.6068 255.913 66.8776 255.559 67.0703 255.101V253.147C66.8984 252.705 66.6432 252.371 66.3047 252.147C65.9661 251.918 65.5703 251.804 65.1172 251.804C64.5599 251.804 64.0911 252.002 63.7109 252.397C63.3255 252.799 63.1328 253.392 63.1328 254.179C63.1328 254.97 63.3125 255.559 63.6719 255.944C64.0312 256.335 64.4818 256.53 65.0234 256.53ZM75.7812 250.366H77.7969L73.2031 261.952H71.2031L72.8984 257.968L69.9375 250.366H71.9844L73.8438 255.819L75.7812 250.366ZM84.2656 246.866V257.999H82.25V248.608H81.3203V246.866H84.2656ZM95.7969 245.022L90.7422 259.788H88.8047L93.8594 245.022H95.7969ZM106.547 257.999L103.922 252.749L102.438 254.577V257.999H100.422V246.866H102.438V251.804L106.406 246.866H108.758L105.383 250.976L108.93 257.999H106.547ZM113.094 250.124C115.182 250.124 116.227 251.207 116.227 253.374V257.999H114.375V257.187C113.786 257.9 112.984 258.257 111.969 258.257C111.24 258.257 110.651 258.051 110.203 257.64C109.75 257.223 109.523 256.616 109.523 255.819C109.523 255.007 109.781 254.387 110.297 253.96C110.807 253.538 111.43 253.327 112.164 253.327C113.008 253.327 113.745 253.53 114.375 253.937V253.538C114.375 252.361 113.815 251.767 112.695 251.757C111.883 251.757 111.167 251.95 110.547 252.335L109.891 250.991C110.76 250.413 111.828 250.124 113.094 250.124ZM112.609 256.944C113.031 256.944 113.391 256.845 113.688 256.647C113.984 256.45 114.214 256.187 114.375 255.858V255.147C113.88 254.772 113.31 254.588 112.664 254.593C112.471 254.593 112.292 254.621 112.125 254.679C111.964 254.731 111.823 254.809 111.703 254.913C111.589 255.012 111.497 255.137 111.43 255.288C111.367 255.434 111.336 255.601 111.336 255.788C111.336 256.147 111.453 256.431 111.688 256.64C111.927 256.843 112.234 256.944 112.609 256.944ZM122.055 250.14C122.253 250.14 122.43 250.168 122.586 250.226L122.57 251.937C121.862 251.817 121.273 251.955 120.805 252.351C120.336 252.741 120.021 253.356 119.859 254.194V257.999H117.945V250.366H119.859V252.21C120.036 251.601 120.32 251.101 120.711 250.71C121.091 250.33 121.539 250.14 122.055 250.14ZM128.336 250.366H130.258V257.999H128.336V256.812C127.841 257.765 127.031 258.246 125.906 258.257C125.531 258.257 125.193 258.197 124.891 258.077C124.589 257.957 124.331 257.78 124.117 257.546C123.909 257.306 123.747 257.012 123.633 256.663C123.523 256.309 123.469 255.9 123.469 255.437V250.366H125.391V254.897C125.391 255.465 125.51 255.879 125.75 256.14C125.99 256.4 126.307 256.53 126.703 256.53C127.427 256.53 127.971 256.114 128.336 255.28V250.366ZM146.367 257.999H144.414V250.397L141.578 257.296H140.047L137.195 250.351V257.999H135.328V246.866H137.695L140.906 254.272L143.969 246.866H146.266L146.367 257.999ZM155.102 254.015V254.687H149.883C150.034 255.947 150.727 256.577 151.961 256.577C152.846 256.577 153.68 256.343 154.461 255.874L155.102 257.28C154.19 257.931 153.07 258.257 151.742 258.257C150.539 258.257 149.612 257.9 148.961 257.187C148.305 256.473 147.977 255.481 147.977 254.21C147.977 252.965 148.323 251.973 149.016 251.233C149.708 250.494 150.609 250.124 151.719 250.124C152.745 250.124 153.565 250.455 154.18 251.116C154.794 251.778 155.102 252.744 155.102 254.015ZM151.672 251.616C151.453 251.616 151.245 251.655 151.047 251.733C150.854 251.812 150.68 251.929 150.523 252.085C150.372 252.236 150.242 252.426 150.133 252.655C150.023 252.884 149.945 253.15 149.898 253.452H153.227C153.164 252.822 152.995 252.358 152.719 252.062C152.443 251.765 152.094 251.616 151.672 251.616ZM161.742 246.062H163.664V257.999H161.742V256.929C161.102 257.814 160.237 258.257 159.148 258.257C158.221 258.257 157.448 257.916 156.828 257.233C156.208 256.551 155.898 255.538 155.898 254.194C155.898 253.496 155.995 252.882 156.188 252.351C156.38 251.819 156.638 251.395 156.961 251.077C157.284 250.765 157.638 250.528 158.023 250.366C158.414 250.205 158.836 250.124 159.289 250.124C160.372 250.124 161.19 250.546 161.742 251.39V246.062ZM159.695 256.53C160.169 256.53 160.581 256.408 160.93 256.163C161.279 255.913 161.549 255.559 161.742 255.101V253.147C161.57 252.705 161.315 252.371 160.977 252.147C160.638 251.918 160.242 251.804 159.789 251.804C159.232 251.804 158.763 252.002 158.383 252.397C157.997 252.799 157.805 253.392 157.805 254.179C157.805 254.97 157.984 255.559 158.344 255.944C158.703 256.335 159.154 256.53 159.695 256.53ZM167.297 248.616C167.068 248.845 166.794 248.96 166.477 248.96C166.154 248.96 165.872 248.845 165.633 248.616C165.398 248.387 165.281 248.106 165.281 247.772C165.281 247.439 165.398 247.16 165.633 246.937C165.872 246.707 166.154 246.593 166.477 246.593C166.794 246.593 167.068 246.707 167.297 246.937C167.521 247.16 167.633 247.439 167.633 247.772C167.633 248.111 167.521 248.392 167.297 248.616ZM165.508 257.999V250.366H167.43V257.999H165.508ZM174.07 250.366H175.992V257.999H174.07V256.812C173.576 257.765 172.766 258.246 171.641 258.257C171.266 258.257 170.927 258.197 170.625 258.077C170.323 257.957 170.065 257.78 169.852 257.546C169.643 257.306 169.482 257.012 169.367 256.663C169.258 256.309 169.203 255.9 169.203 255.437V250.366H171.125V254.897C171.125 255.465 171.245 255.879 171.484 256.14C171.724 256.4 172.042 256.53 172.438 256.53C173.161 256.53 173.706 256.114 174.07 255.28V250.366ZM186.695 250.124C187.44 250.124 188.023 250.361 188.445 250.835C188.872 251.304 189.086 252.002 189.086 252.929V257.999H187.164V253.437C187.164 252.895 187.049 252.496 186.82 252.241C186.591 251.986 186.294 251.858 185.93 251.858C185.216 251.858 184.706 252.288 184.398 253.147V257.999H182.477V253.437C182.477 252.895 182.357 252.496 182.117 252.241C181.878 251.986 181.565 251.858 181.18 251.858C180.518 251.858 180.016 252.267 179.672 253.085V257.999H177.758V250.366H179.672V251.538C180.146 250.606 180.919 250.134 181.992 250.124C182.56 250.124 183.039 250.27 183.43 250.562C183.826 250.848 184.099 251.275 184.25 251.843C184.464 251.322 184.771 250.905 185.172 250.593C185.578 250.28 186.086 250.124 186.695 250.124ZM195.703 244.444L197.242 245.327C196.039 247.343 195.438 249.887 195.438 252.96C195.438 256.033 196.039 258.577 197.242 260.593L195.703 261.468C195.359 260.957 195.052 260.39 194.781 259.765C194.51 259.14 194.276 258.45 194.078 257.694C193.672 256.2 193.469 254.619 193.469 252.952C193.469 251.291 193.672 249.71 194.078 248.21C194.474 246.726 195.016 245.47 195.703 244.444ZM200.859 246.866V257.999H198.844V248.608H197.914V246.866H200.859ZM207.68 248.491C206.826 248.491 206.143 248.819 205.633 249.476C205.117 250.132 204.859 251.085 204.859 252.335V252.64C205.411 251.634 206.398 251.132 207.82 251.132C208.852 251.132 209.674 251.413 210.289 251.976C210.904 252.543 211.211 253.371 211.211 254.46C211.211 255.58 210.846 256.491 210.117 257.194C209.393 257.903 208.388 258.257 207.102 258.257C206.404 258.257 205.784 258.134 205.242 257.89C204.706 257.645 204.253 257.283 203.883 256.804C203.513 256.325 203.232 255.731 203.039 255.022C202.846 254.309 202.75 253.486 202.75 252.554C202.75 250.689 203.182 249.231 204.047 248.179C204.917 247.132 206.096 246.608 207.586 246.608C208.862 246.608 209.932 247.007 210.797 247.804L209.711 249.358C209.128 248.78 208.451 248.491 207.68 248.491ZM207.281 252.64C206.635 252.64 206.112 252.806 205.711 253.14C205.305 253.473 205.102 253.913 205.102 254.46C205.102 254.991 205.289 255.444 205.664 255.819C206.034 256.194 206.513 256.382 207.102 256.382C207.711 256.382 208.208 256.205 208.594 255.851C208.974 255.502 209.164 255.033 209.164 254.444C209.164 253.845 208.997 253.395 208.664 253.093C208.336 252.791 207.875 252.64 207.281 252.64ZM217.062 250.124C217.49 250.124 217.888 250.202 218.258 250.358C218.628 250.515 218.964 250.749 219.266 251.062C219.568 251.379 219.805 251.806 219.977 252.343C220.148 252.874 220.234 253.496 220.234 254.21C220.234 254.918 220.143 255.535 219.961 256.062C219.784 256.588 219.534 257.007 219.211 257.319C218.57 257.944 217.786 258.257 216.859 258.257C215.766 258.257 214.948 257.814 214.406 256.929V261.921H212.492V250.366H214.406V251.788C215.01 250.679 215.896 250.124 217.062 250.124ZM216.391 256.491C216.932 256.491 217.391 256.296 217.766 255.905C218.141 255.52 218.328 254.95 218.328 254.194C218.328 253.439 218.146 252.864 217.781 252.468C217.417 252.072 216.964 251.874 216.422 251.874C215.453 251.874 214.781 252.4 214.406 253.452V254.812C214.568 255.332 214.815 255.744 215.148 256.046C215.487 256.343 215.901 256.491 216.391 256.491ZM227.594 257.999H225.547L223.992 255.233L222.477 257.999H220.391L222.844 254.21L220.461 250.366H222.508L224.07 253.132L225.484 250.366H227.547L225.211 254.124L227.594 257.999ZM229.492 261.468L227.945 260.593C229.159 258.572 229.766 256.028 229.766 252.96C229.766 249.84 229.159 247.27 227.945 245.249L229.492 244.366C230.174 245.387 230.719 246.65 231.125 248.155C231.531 249.671 231.734 251.272 231.734 252.96C231.734 254.621 231.531 256.2 231.125 257.694C230.719 259.189 230.174 260.447 229.492 261.468Z" fill="#333333"/>
<path d="M48.1255 333.162C48.6672 333.276 49.0903 333.518 49.395 333.886C49.6997 334.25 49.8521 334.728 49.8521 335.32C49.8521 336.15 49.5876 336.804 49.0586 337.282C48.5296 337.76 47.7594 337.999 46.748 337.999H43.041V328.954H46.729C47.5711 328.954 48.2186 329.138 48.6714 329.506C49.1284 329.874 49.3569 330.426 49.3569 331.163C49.3569 331.611 49.2511 332.009 49.0396 332.356C48.828 332.703 48.5233 332.972 48.1255 333.162ZM47.7573 331.524C47.7573 330.771 47.2982 330.395 46.3799 330.395H44.6787V332.826H46.418C46.7988 332.826 47.1183 332.709 47.3765 332.477C47.6304 332.248 47.7573 331.931 47.7573 331.524ZM46.7163 336.558C46.9406 336.558 47.1437 336.528 47.3257 336.469C47.5119 336.406 47.6706 336.315 47.8018 336.196C47.9329 336.074 48.0345 335.923 48.1064 335.746C48.1784 335.568 48.2144 335.365 48.2144 335.136C48.2144 334.705 48.0789 334.387 47.8081 334.184C47.5415 333.981 47.1733 333.879 46.7036 333.879H44.6787V336.558H46.7163ZM54.8032 331.797H56.3647V337.999H54.8032V337.034C54.4012 337.809 53.7432 338.2 52.8291 338.208C52.5244 338.208 52.2493 338.16 52.0039 338.062C51.7585 337.965 51.549 337.821 51.3755 337.631C51.2062 337.436 51.075 337.197 50.9819 336.914C50.8931 336.626 50.8486 336.294 50.8486 335.917V331.797H52.4102V335.479C52.4102 335.94 52.5075 336.277 52.7021 336.488C52.8968 336.7 53.1549 336.806 53.4766 336.806C54.0648 336.806 54.507 336.467 54.8032 335.79V331.797ZM61.373 336.476L61.811 337.688C61.2736 338.035 60.6515 338.208 59.9448 338.208C58.6795 338.208 58.0469 337.44 58.0469 335.904V332.997H57.3169V331.797H58.0469V329.899H59.6021V331.797H61.3604V332.997H59.6021V335.714C59.6021 336.45 59.8581 336.818 60.3701 336.818C60.7298 336.81 61.0641 336.696 61.373 336.476ZM66.1465 336.476L66.5845 337.688C66.047 338.035 65.425 338.208 64.7183 338.208C63.453 338.208 62.8203 337.44 62.8203 335.904V332.997H62.0903V331.797H62.8203V329.899H64.3755V331.797H66.1338V332.997H64.3755V335.714C64.3755 336.45 64.6315 336.818 65.1436 336.818C65.5033 336.81 65.8376 336.696 66.1465 336.476ZM72.2593 337.326C71.6668 337.914 70.8924 338.208 69.936 338.208C68.9839 338.208 68.2116 337.912 67.6191 337.32C67.0225 336.727 66.7241 335.919 66.7241 334.895C66.7241 333.871 67.0225 333.065 67.6191 332.477C68.2116 331.893 68.9839 331.601 69.936 331.601C70.8882 331.601 71.6626 331.893 72.2593 332.477C72.8517 333.069 73.1479 333.875 73.1479 334.895C73.1479 335.923 72.8517 336.734 72.2593 337.326ZM68.749 336.285C69.0622 336.603 69.4578 336.761 69.936 336.761C70.4142 336.761 70.812 336.598 71.1294 336.272C71.4425 335.947 71.5991 335.485 71.5991 334.889C71.5991 334.296 71.4425 333.833 71.1294 333.499C70.812 333.173 70.4142 333.01 69.936 333.01C69.4578 333.014 69.0601 333.175 68.7427 333.492C68.4295 333.814 68.2729 334.279 68.2729 334.889C68.2729 335.507 68.4316 335.972 68.749 336.285ZM77.75 331.601C78.3678 331.601 78.8566 331.793 79.2163 332.178C79.5802 332.568 79.7622 333.135 79.7622 333.879V337.999H78.2007V334.33C78.2007 333.869 78.1012 333.535 77.9023 333.327C77.7035 333.116 77.4432 333.01 77.1216 333.01C76.508 333.01 76.0488 333.346 75.7441 334.019V337.999H74.189V331.797H75.7441V332.775C76.1715 331.992 76.8402 331.601 77.75 331.601ZM88.8203 327.456L84.7134 339.453H83.1392L87.2461 327.456H88.8203ZM97.5547 337.999L95.4219 333.733L94.2158 335.219V337.999H92.5781V328.954H94.2158V332.965L97.4404 328.954H99.3511L96.6089 332.292L99.4907 337.999H97.5547ZM102.874 331.601C104.571 331.601 105.419 332.481 105.419 334.241V337.999H103.915V337.339C103.437 337.919 102.785 338.208 101.96 338.208C101.368 338.208 100.889 338.041 100.525 337.707C100.157 337.368 99.9731 336.875 99.9731 336.228C99.9731 335.568 100.183 335.064 100.602 334.717C101.016 334.375 101.522 334.203 102.119 334.203C102.804 334.203 103.403 334.368 103.915 334.698V334.375C103.915 333.418 103.46 332.936 102.55 332.927C101.89 332.927 101.308 333.084 100.805 333.397L100.271 332.305C100.978 331.835 101.846 331.601 102.874 331.601ZM102.48 337.142C102.823 337.142 103.115 337.062 103.356 336.901C103.598 336.74 103.784 336.526 103.915 336.26V335.682C103.513 335.377 103.05 335.227 102.525 335.231C102.368 335.231 102.222 335.255 102.087 335.301C101.956 335.344 101.841 335.407 101.744 335.492C101.651 335.572 101.577 335.674 101.522 335.796C101.471 335.915 101.446 336.05 101.446 336.203C101.446 336.495 101.541 336.725 101.731 336.895C101.926 337.06 102.176 337.142 102.48 337.142ZM110.155 331.613C110.316 331.613 110.459 331.637 110.586 331.683L110.574 333.073C109.998 332.976 109.52 333.088 109.139 333.41C108.758 333.727 108.502 334.226 108.371 334.908V337.999H106.816V331.797H108.371V333.295C108.515 332.8 108.746 332.394 109.063 332.077C109.372 331.768 109.736 331.613 110.155 331.613ZM115.258 331.797H116.82V337.999H115.258V337.034C114.856 337.809 114.198 338.2 113.284 338.208C112.979 338.208 112.704 338.16 112.459 338.062C112.214 337.965 112.004 337.821 111.831 337.631C111.661 337.436 111.53 337.197 111.437 336.914C111.348 336.626 111.304 336.294 111.304 335.917V331.797H112.865V335.479C112.865 335.94 112.963 336.277 113.157 336.488C113.352 336.7 113.61 336.806 113.932 336.806C114.52 336.806 114.962 336.467 115.258 335.79V331.797ZM129.909 337.999H128.322V331.823L126.018 337.428H124.773L122.457 331.785V337.999H120.939V328.954H122.863L125.472 334.971L127.96 328.954H129.826L129.909 337.999ZM137.005 334.762V335.308H132.765C132.888 336.332 133.451 336.844 134.454 336.844C135.173 336.844 135.85 336.653 136.485 336.272L137.005 337.415C136.265 337.944 135.355 338.208 134.276 338.208C133.298 338.208 132.545 337.919 132.016 337.339C131.483 336.759 131.216 335.953 131.216 334.92C131.216 333.909 131.498 333.103 132.061 332.502C132.623 331.901 133.355 331.601 134.257 331.601C135.09 331.601 135.757 331.869 136.256 332.407C136.756 332.944 137.005 333.729 137.005 334.762ZM134.219 332.813C134.041 332.813 133.872 332.845 133.711 332.908C133.554 332.972 133.413 333.067 133.286 333.194C133.163 333.317 133.057 333.471 132.968 333.657C132.879 333.843 132.816 334.059 132.778 334.305H135.482C135.431 333.793 135.294 333.416 135.069 333.175C134.845 332.934 134.562 332.813 134.219 332.813ZM142.401 328.3H143.962V337.999H142.401V337.129C141.88 337.849 141.178 338.208 140.293 338.208C139.54 338.208 138.912 337.931 138.408 337.377C137.905 336.823 137.653 336 137.653 334.908C137.653 334.341 137.731 333.841 137.888 333.41C138.044 332.978 138.254 332.633 138.516 332.375C138.778 332.121 139.066 331.929 139.379 331.797C139.697 331.666 140.04 331.601 140.408 331.601C141.288 331.601 141.952 331.943 142.401 332.629V328.3ZM140.738 336.806C141.123 336.806 141.457 336.706 141.741 336.507C142.024 336.304 142.244 336.016 142.401 335.644V334.057C142.261 333.697 142.054 333.427 141.779 333.245C141.504 333.058 141.182 332.965 140.814 332.965C140.361 332.965 139.98 333.126 139.671 333.448C139.358 333.774 139.202 334.256 139.202 334.895C139.202 335.538 139.348 336.016 139.64 336.33C139.932 336.647 140.298 336.806 140.738 336.806ZM146.914 330.375C146.728 330.562 146.506 330.655 146.248 330.655C145.985 330.655 145.757 330.562 145.562 330.375C145.372 330.189 145.276 329.961 145.276 329.69C145.276 329.419 145.372 329.193 145.562 329.011C145.757 328.825 145.985 328.731 146.248 328.731C146.506 328.731 146.728 328.825 146.914 329.011C147.096 329.193 147.187 329.419 147.187 329.69C147.187 329.965 147.096 330.194 146.914 330.375ZM145.46 337.999V331.797H147.022V337.999H145.46ZM152.417 331.797H153.979V337.999H152.417V337.034C152.015 337.809 151.357 338.2 150.443 338.208C150.139 338.208 149.864 338.16 149.618 338.062C149.373 337.965 149.163 337.821 148.99 337.631C148.82 337.436 148.689 337.197 148.596 336.914C148.507 336.626 148.463 336.294 148.463 335.917V331.797H150.024V335.479C150.024 335.94 150.122 336.277 150.316 336.488C150.511 336.7 150.769 336.806 151.091 336.806C151.679 336.806 152.121 336.467 152.417 335.79V331.797ZM162.675 331.601C163.28 331.601 163.754 331.793 164.097 332.178C164.444 332.559 164.618 333.126 164.618 333.879V337.999H163.056V334.292C163.056 333.852 162.963 333.528 162.777 333.321C162.591 333.113 162.349 333.01 162.053 333.01C161.473 333.01 161.059 333.359 160.809 334.057V337.999H159.248V334.292C159.248 333.852 159.15 333.528 158.956 333.321C158.761 333.113 158.507 333.01 158.194 333.01C157.656 333.01 157.248 333.342 156.969 334.006V337.999H155.414V331.797H156.969V332.75C157.354 331.992 157.982 331.609 158.854 331.601C159.315 331.601 159.705 331.719 160.022 331.956C160.344 332.189 160.566 332.536 160.688 332.997C160.862 332.574 161.112 332.235 161.438 331.981C161.768 331.728 162.18 331.601 162.675 331.601ZM169.994 326.986L171.245 327.703C170.267 329.341 169.778 331.408 169.778 333.905C169.778 336.402 170.267 338.469 171.245 340.106L169.994 340.817C169.715 340.403 169.465 339.941 169.245 339.434C169.025 338.926 168.835 338.365 168.674 337.751C168.344 336.537 168.179 335.253 168.179 333.898C168.179 332.549 168.344 331.264 168.674 330.045C168.995 328.839 169.436 327.819 169.994 326.986ZM174.184 328.954V337.999H172.546V330.369H171.791V328.954H174.184ZM180.074 333.333C180.586 333.503 181.001 333.782 181.318 334.171C181.632 334.561 181.788 335.047 181.788 335.631C181.788 336.49 181.496 337.134 180.912 337.561C180.328 337.993 179.556 338.208 178.595 338.208C177.36 338.208 176.293 337.821 175.396 337.047L176.177 335.752C176.553 336.078 176.905 336.306 177.23 336.438C177.556 336.577 177.954 336.647 178.424 336.647C178.906 336.647 179.296 336.537 179.592 336.317C179.888 336.097 180.036 335.76 180.036 335.308C180.036 334.846 179.871 334.506 179.541 334.286C179.215 334.066 178.796 333.956 178.284 333.956H177.592L177.605 332.838H178.24C178.701 332.838 179.086 332.716 179.395 332.47C179.7 332.229 179.852 331.893 179.852 331.461C179.852 331.063 179.723 330.767 179.465 330.572C179.211 330.373 178.872 330.274 178.449 330.274C177.662 330.274 176.943 330.549 176.291 331.099L175.58 329.912C176.435 329.133 177.518 328.744 178.83 328.744C179.588 328.744 180.229 328.926 180.753 329.29C181.016 329.472 181.219 329.717 181.363 330.026C181.511 330.331 181.585 330.689 181.585 331.099C181.585 331.645 181.447 332.108 181.172 332.489C180.902 332.87 180.535 333.152 180.074 333.333ZM186.485 331.601C186.832 331.601 187.156 331.664 187.457 331.791C187.757 331.918 188.03 332.108 188.275 332.362C188.521 332.62 188.713 332.967 188.853 333.403C188.993 333.835 189.062 334.341 189.062 334.92C189.062 335.496 188.988 335.997 188.84 336.425C188.696 336.852 188.493 337.193 188.231 337.447C187.71 337.955 187.074 338.208 186.32 338.208C185.432 338.208 184.767 337.849 184.327 337.129V341.186H182.772V331.797H184.327V332.953C184.818 332.051 185.537 331.601 186.485 331.601ZM185.939 336.774C186.38 336.774 186.752 336.615 187.057 336.298C187.361 335.985 187.514 335.521 187.514 334.908C187.514 334.294 187.366 333.826 187.069 333.505C186.773 333.183 186.405 333.022 185.965 333.022C185.178 333.022 184.632 333.45 184.327 334.305V335.409C184.458 335.832 184.659 336.167 184.93 336.412C185.205 336.653 185.542 336.774 185.939 336.774ZM195.042 337.999H193.379L192.116 335.752L190.884 337.999H189.189L191.183 334.92L189.247 331.797H190.91L192.179 334.044L193.328 331.797H195.004L193.106 334.851L195.042 337.999ZM196.584 340.817L195.328 340.106C196.314 338.465 196.807 336.397 196.807 333.905C196.807 331.37 196.314 329.282 195.328 327.64L196.584 326.922C197.139 327.752 197.581 328.778 197.911 330.001C198.241 331.232 198.406 332.534 198.406 333.905C198.406 335.255 198.241 336.537 197.911 337.751C197.581 338.966 197.139 339.988 196.584 340.817Z" fill="#333333"/>
<path d="M46.0308 376.145C44.994 376.145 44.154 375.828 43.5107 375.193C42.8675 374.562 42.5459 373.699 42.5459 372.603C42.5459 371.554 42.8739 370.72 43.5298 370.102C44.1857 369.484 45.0194 369.175 46.0308 369.175C47.0422 369.175 47.8758 369.482 48.5317 370.096C49.1877 370.714 49.5156 371.549 49.5156 372.603C49.5156 373.708 49.1982 374.575 48.5635 375.206C47.9245 375.832 47.0802 376.145 46.0308 376.145ZM46.0308 375.466C46.8602 375.466 47.5246 375.206 48.0239 374.685C48.5233 374.169 48.7729 373.475 48.7729 372.603C48.7729 371.769 48.5169 371.103 48.0049 370.604C47.4928 370.108 46.8348 369.861 46.0308 369.861C45.2183 369.861 44.5602 370.111 44.0566 370.61C43.5446 371.109 43.2886 371.774 43.2886 372.603C43.2886 373.475 43.5446 374.169 44.0566 374.685C44.5729 375.206 45.231 375.466 46.0308 375.466ZM55.457 369.315H56.2251L53.5337 375.999H52.6577L50.1631 369.315H50.9565L52.8037 374.323C52.901 374.653 52.9751 374.911 53.0259 375.098C53.0767 375.28 53.1063 375.39 53.1147 375.428C53.1401 375.322 53.1782 375.191 53.229 375.034C53.284 374.873 53.3369 374.71 53.3877 374.545C53.4131 374.461 53.4342 374.393 53.4512 374.342C53.4723 374.287 53.4871 374.245 53.4956 374.215L55.457 369.315ZM62.5601 369.943H58.6499V372.216H61.792V372.762H58.6499V375.377H62.5601V375.999H57.9453V369.315H62.5601V369.943ZM68.5713 375.999L66.7114 373.136H64.9341V375.999H64.2422V369.315H66.9844C67.708 369.315 68.2666 369.472 68.6602 369.785C69.0537 370.094 69.2505 370.553 69.2505 371.162C69.2505 371.429 69.2103 371.674 69.1299 371.898C69.0495 372.123 68.931 372.319 68.7744 372.489C68.6178 372.658 68.4274 372.796 68.2031 372.901C67.9831 373.007 67.7292 373.077 67.4414 373.111L69.4028 375.999H68.5713ZM64.9341 369.943V372.565H66.9717C67.4541 372.565 67.835 372.449 68.1143 372.216C68.3936 371.983 68.5332 371.649 68.5332 371.213C68.5332 370.781 68.3914 370.462 68.1079 370.254C67.8286 370.047 67.4499 369.943 66.9717 369.943H64.9341ZM71.8911 375.377H75.1157V375.999H71.1865V369.315H71.8911V375.377ZM77.2358 369.315V375.999H76.5312V369.315H77.2358ZM84.0659 369.315H84.7134V375.999H84.0278L80.1431 370.515V375.999H79.4893V369.315H80.1431L84.0659 374.856V369.315ZM91.5942 369.943H87.6841V372.216H90.8262V372.762H87.6841V375.377H91.5942V375.999H86.9795V369.315H91.5942V369.943ZM100.278 365.456L96.1709 377.453H95.46L99.5669 365.456H100.278ZM109.12 375.999L106.848 372.317L105.508 373.714V375.999H104.791V369.315H105.508V372.825L108.942 369.315H109.761L107.381 371.771L109.971 375.999H109.12ZM116.433 375.999L115.747 374.349H112.142L111.481 375.999H110.809L113.525 369.315H114.357L117.175 375.999H116.433ZM112.364 373.815H115.525L113.913 369.943L112.364 373.815ZM123.034 375.999L121.174 373.136H119.397V375.999H118.705V369.315H121.447C122.171 369.315 122.729 369.472 123.123 369.785C123.517 370.094 123.713 370.553 123.713 371.162C123.713 371.429 123.673 371.674 123.593 371.898C123.512 372.123 123.394 372.319 123.237 372.489C123.081 372.658 122.89 372.796 122.666 372.901C122.446 373.007 122.192 373.077 121.904 373.111L123.866 375.999H123.034ZM119.397 369.943V372.565H121.435C121.917 372.565 122.298 372.449 122.577 372.216C122.856 371.983 122.996 371.649 122.996 371.213C122.996 370.781 122.854 370.462 122.571 370.254C122.292 370.047 121.913 369.943 121.435 369.943H119.397ZM128.315 376.145C127.499 376.145 126.843 375.893 126.348 375.39C125.848 374.89 125.599 374.201 125.599 373.32V369.315H126.303V373.308C126.303 373.968 126.492 374.493 126.868 374.882C127.245 375.271 127.727 375.466 128.315 375.466C128.912 375.466 129.392 375.271 129.756 374.882C130.12 374.493 130.302 373.968 130.302 373.308V369.315H131.02V373.32C131.02 374.209 130.774 374.903 130.283 375.402C129.788 375.897 129.132 376.145 128.315 376.145ZM136.815 375.377H140.04V375.999H136.11V369.315H136.815V375.377ZM142.16 369.315V375.999H141.455V369.315H142.16ZM147.104 372.305H149.967V375.65C149.066 375.98 148.16 376.145 147.25 376.145C146.205 376.145 145.374 375.836 144.756 375.218C144.138 374.6 143.829 373.752 143.829 372.673C143.829 371.594 144.153 370.741 144.8 370.115C145.439 369.488 146.269 369.175 147.289 369.175C148.397 369.175 149.29 369.482 149.967 370.096L149.51 370.629C148.96 370.117 148.224 369.861 147.301 369.861C146.497 369.861 145.839 370.117 145.327 370.629C144.815 371.141 144.559 371.822 144.559 372.673C144.559 373.532 144.809 374.209 145.308 374.704C145.803 375.203 146.468 375.453 147.301 375.453C148.029 375.453 148.679 375.341 149.25 375.117V372.895H147.104V372.305ZM156.601 369.315H157.299V375.999H156.601V372.812H152.557V375.999H151.853V369.315H152.557V372.178H156.601V369.315ZM164.332 369.315V369.943H161.888V375.999H161.171V369.943H158.74V369.315H164.332ZM169.937 365.119L170.496 365.443C169.438 367.212 168.909 369.366 168.909 371.905C168.909 374.444 169.438 376.598 170.496 378.367L169.937 378.69C169.658 378.255 169.41 377.778 169.194 377.262C168.983 376.746 168.803 376.183 168.655 375.574C168.35 374.368 168.198 373.145 168.198 371.905C168.198 370.665 168.35 369.44 168.655 368.229C168.803 367.624 168.983 367.064 169.194 366.547C169.41 366.031 169.658 365.555 169.937 365.119ZM172.641 366.979V375.999H171.924V367.601H171.143V366.979H172.641ZM177.891 371.333C178.475 371.448 178.959 371.708 179.344 372.114C179.734 372.525 179.928 373.058 179.928 373.714C179.928 374.539 179.657 375.159 179.116 375.574C178.574 375.988 177.869 376.196 177.002 376.196C175.889 376.196 174.884 375.809 173.987 375.034L174.38 374.463C174.812 374.84 175.225 375.108 175.618 375.269C175.999 375.426 176.452 375.504 176.977 375.504C177.586 375.504 178.104 375.347 178.532 375.034C178.951 374.721 179.16 374.253 179.16 373.631C179.16 372.958 178.934 372.459 178.481 372.133C178.024 371.816 177.44 371.657 176.729 371.657H176.132L176.145 371.073H176.716C177.321 371.073 177.836 370.896 178.259 370.54C178.678 370.185 178.887 369.698 178.887 369.08C178.887 368.813 178.843 368.579 178.754 368.375C178.669 368.172 178.544 368.003 178.379 367.868C178.219 367.728 178.022 367.624 177.789 367.557C177.561 367.489 177.302 367.455 177.015 367.455C176.092 367.455 175.278 367.785 174.571 368.445L174.209 367.925C175.017 367.163 175.993 366.782 177.135 366.782C177.465 366.782 177.772 366.822 178.056 366.903C178.343 366.979 178.608 367.1 178.849 367.265C179.09 367.43 179.283 367.66 179.427 367.957C179.571 368.249 179.643 368.593 179.643 368.991C179.643 369.558 179.482 370.049 179.16 370.464C178.843 370.883 178.42 371.173 177.891 371.333ZM183.857 369.315C185.436 369.315 186.223 369.971 186.219 371.283C186.219 371.934 186.018 372.436 185.616 372.787C185.214 373.134 184.649 373.308 183.921 373.308H182.023V375.999H181.318V369.315H183.857ZM183.857 372.736C184.111 372.736 184.34 372.705 184.543 372.641C184.75 372.573 184.924 372.478 185.063 372.355C185.207 372.229 185.317 372.076 185.394 371.898C185.47 371.721 185.508 371.52 185.508 371.295C185.508 370.851 185.362 370.515 185.07 370.286C184.782 370.058 184.378 369.943 183.857 369.943H182.023V372.736H183.857ZM192.649 375.999H191.843L189.837 372.863L187.837 375.999H187.019L189.316 372.476L187.12 369.315H187.926L189.85 372.14L191.748 369.315H192.541L190.37 372.489L192.649 375.999ZM193.944 378.69L193.385 378.367C194.435 376.594 194.959 374.44 194.959 371.905C194.959 369.361 194.435 367.203 193.385 365.43L193.944 365.106C194.498 365.965 194.928 367.002 195.232 368.217C195.537 369.436 195.689 370.665 195.689 371.905C195.689 373.145 195.537 374.368 195.232 375.574C195.08 376.183 194.896 376.746 194.68 377.262C194.469 377.778 194.223 378.255 193.944 378.69Z" fill="#333333"/>
</svg>
