<svg width="30" height="30" viewBox="0 0 30 30" fill="none" xmlns="http://www.w3.org/2000/svg">
<path d="M17.4998 23.7494C17.7918 23.75 18.0749 23.6483 18.2998 23.4619C18.4263 23.357 18.531 23.2281 18.6076 23.0827C18.6843 22.9373 18.7316 22.7781 18.7467 22.6144C18.7618 22.4507 18.7444 22.2856 18.6956 22.1286C18.6468 21.9716 18.5675 21.8257 18.4623 21.6994L12.8623 14.9994L18.2623 8.28694C18.3661 8.15908 18.4436 8.01196 18.4904 7.85403C18.5372 7.69611 18.5523 7.53049 18.5349 7.36671C18.5175 7.20292 18.4679 7.0442 18.3889 6.89965C18.3099 6.75511 18.2032 6.62759 18.0748 6.52444C17.9454 6.41064 17.794 6.32481 17.6299 6.27232C17.4658 6.21983 17.2927 6.20183 17.1213 6.21944C16.9499 6.23704 16.784 6.28988 16.6341 6.37463C16.4841 6.45938 16.3532 6.57422 16.2498 6.71194L10.2123 14.2119C10.0284 14.4356 9.9279 14.7162 9.9279 15.0057C9.9279 15.2952 10.0284 15.5758 10.2123 15.7994L16.4623 23.2994C16.5877 23.4507 16.7469 23.5703 16.9272 23.6485C17.1075 23.7267 17.3036 23.7613 17.4998 23.7494Z" fill="#3B3D41"/>
</svg>
