<svg width="30" height="30" viewBox="0 0 30 30" fill="none" xmlns="http://www.w3.org/2000/svg">
<path d="M12.5002 23.7494C12.2082 23.75 11.9251 23.6483 11.7002 23.4619C11.5737 23.357 11.469 23.2281 11.3924 23.0827C11.3157 22.9373 11.2684 22.7781 11.2533 22.6144C11.2382 22.4507 11.2556 22.2856 11.3044 22.1286C11.3532 21.9716 11.4325 21.8257 11.5377 21.6994L17.1377 14.9994L11.7377 8.28694C11.6339 8.15908 11.5564 8.01196 11.5096 7.85403C11.4628 7.69611 11.4477 7.53049 11.4651 7.36671C11.4825 7.20292 11.5321 7.0442 11.6111 6.89965C11.6901 6.75511 11.7968 6.62759 11.9252 6.52444C12.0546 6.41064 12.206 6.32481 12.3701 6.27232C12.5342 6.21983 12.7073 6.20183 12.8787 6.21944C13.0501 6.23704 13.216 6.28988 13.3659 6.37463C13.5159 6.45938 13.6468 6.57422 13.7502 6.71194L19.7877 14.2119C19.9716 14.4356 20.0721 14.7162 20.0721 15.0057C20.0721 15.2952 19.9716 15.5758 19.7877 15.7994L13.5377 23.2994C13.4123 23.4507 13.2531 23.5703 13.0728 23.6485C12.8925 23.7267 12.6964 23.7613 12.5002 23.7494Z" fill="#3B3D41"/>
</svg>
