<svg width="998" height="246" viewBox="0 0 998 246" fill="none" xmlns="http://www.w3.org/2000/svg">
<path d="M134.8 111.2L172.2 19.2H194.4L134.8 166.4L105.2 92.8L75.4 166.4L15.8 19.2H38L75.4 111.2L94 65.4L75.4 19.2H97.4L105.2 38L116.2 65.4L134.8 111.2ZM214.156 60.4H234.556V166H214.156V60.4ZM214.156 49.6V29.2H234.556V49.6H214.156ZM312.555 117.2C314.421 119.867 315.888 122.8 316.955 126C318.021 129.067 318.488 132.333 318.355 135.8C318.221 140.2 317.221 144.267 315.355 148C313.488 151.733 311.021 155 307.955 157.8C304.888 160.6 301.288 162.8 297.155 164.4C293.021 165.867 288.688 166.533 284.155 166.4C277.755 166.133 271.955 164.467 266.755 161.4C261.688 158.333 257.821 154.267 255.155 149.2L272.355 137.2C273.021 139.6 274.488 141.667 276.755 143.4C279.021 145 281.688 145.8 284.755 145.8C288.221 145.933 291.221 145 293.755 143C296.421 140.867 297.755 138.267 297.755 135.2C297.755 134.267 297.688 133.6 297.555 133.2V132.8C297.421 132.533 297.355 132.333 297.355 132.2C297.355 131.933 297.288 131.667 297.155 131.4C296.221 129.133 294.488 127.267 291.955 125.8C291.555 125.533 290.955 125.267 290.155 125L290.355 124.8C288.488 123.733 286.421 122.733 284.155 121.8C281.888 120.733 279.555 119.667 277.155 118.6C274.888 117.4 272.621 116.2 270.355 115C268.088 113.667 265.955 112.133 263.955 110.4V110.2L263.355 109.6C260.555 106.933 258.355 103.867 256.755 100.4C255.155 96.8 254.421 93 254.555 89C254.688 85 255.621 81.2667 257.355 77.8C259.088 74.3333 261.355 71.3333 264.155 68.8C267.088 66.2667 270.488 64.2667 274.355 62.8C278.221 61.3333 282.355 60.6667 286.755 60.8C292.488 61.0667 297.621 62.4667 302.155 65C306.821 67.5333 310.488 70.9333 313.155 75.2L296.355 86.8C295.555 85.3333 294.221 84.0667 292.355 83C290.621 81.9333 288.621 81.4 286.355 81.4C283.288 81.2667 280.621 82 278.355 83.6C276.221 85.2 275.155 87.1333 275.155 89.4C275.155 90.0667 275.221 90.5333 275.355 90.8C275.621 92.2667 276.288 93.5333 277.355 94.6C278.421 95.6667 279.755 96.5333 281.355 97.2C283.888 98.6667 286.755 100.2 289.955 101.8C293.288 103.267 296.621 104.933 299.955 106.8C302.355 107.867 304.755 109.4 307.155 111.4L308.155 112.4C309.488 113.6 310.955 115.2 312.555 117.2ZM396.458 120.2H356.258C357.058 123.8 358.391 127.2 360.258 130.4C362.258 133.467 364.658 136.133 367.458 138.4C370.258 140.667 373.391 142.467 376.858 143.8C380.324 145 383.991 145.6 387.858 145.6C392.524 145.6 396.858 144.667 400.858 142.8C404.991 140.933 408.591 138.333 411.658 135H415.458H435.858C435.058 137 434.058 138.933 432.858 140.8C431.791 142.533 430.591 144.267 429.258 146C424.458 152.133 418.458 157.067 411.258 160.8C404.058 164.4 396.258 166.2 387.858 166.2C380.524 166.2 373.658 164.867 367.258 162.2C360.858 159.4 355.258 155.6 350.458 150.8C345.658 146 341.858 140.4 339.058 134C336.391 127.6 335.058 120.733 335.058 113.4C335.058 106.067 336.391 99.2 339.058 92.8C341.858 86.4 345.658 80.8 350.458 76C355.258 71.2 360.858 67.4667 367.258 64.8C373.658 62 380.524 60.6 387.858 60.6C396.258 60.6 404.058 62.4667 411.258 66.2C418.458 69.8 424.458 74.7333 429.258 81C433.658 86.3333 436.858 92.6 438.858 99.8C440.058 104.067 440.658 108.6 440.658 113.4C440.658 115.8 440.458 118.067 440.058 120.2H419.258H396.458ZM387.858 81.2C381.324 81.2 375.458 82.9333 370.258 86.4C365.191 89.7333 361.324 94.2 358.658 99.8H405.258H417.058C416.391 98.7333 415.724 97.6667 415.058 96.6C414.524 95.5333 413.924 94.5333 413.258 93.6C410.191 89.7333 406.458 86.7333 402.058 84.6C397.658 82.3333 392.924 81.2 387.858 81.2ZM535.567 44.8V19.4H556.967V165.8H535.567V139.6V120.4H478.567V139.6V165.8H457.167V19.4H478.567V44.8V82.4V101.2V101.6H535.567V101.2V82.4V44.8ZM626.413 60.4C633.746 60.4 640.613 61.8 647.013 64.6C653.413 67.2667 659.013 71 663.813 75.8C668.613 80.6 672.346 86.2 675.013 92.6C677.813 99 679.213 105.867 679.213 113.2C679.213 120.533 677.813 127.4 675.013 133.8C672.346 140.2 668.613 145.8 663.813 150.6C659.013 155.4 653.413 159.2 647.013 162C640.613 164.667 633.746 166 626.413 166C619.079 166 612.213 164.667 605.813 162C599.413 159.2 593.813 155.4 589.013 150.6C584.213 145.8 580.413 140.2 577.613 133.8C574.946 127.4 573.613 120.533 573.613 113.2C573.613 105.867 574.946 99 577.613 92.6C580.413 86.2 584.213 80.6 589.013 75.8C593.813 71 599.413 67.2667 605.813 64.6C612.213 61.8 619.079 60.4 626.413 60.4ZM626.413 145.4C630.813 145.4 634.946 144.6 638.813 143C642.813 141.267 646.279 138.933 649.213 136C652.146 133.067 654.413 129.667 656.013 125.8C657.746 121.8 658.613 117.6 658.613 113.2C658.613 108.8 657.746 104.667 656.013 100.8C654.413 96.8 652.146 93.3333 649.213 90.4C646.279 87.4667 642.813 85.2 638.813 83.6C634.946 81.8667 630.813 81 626.413 81C622.013 81 617.813 81.8667 613.813 83.6C609.946 85.2 606.546 87.4667 603.613 90.4C600.679 93.3333 598.346 96.8 596.613 100.8C594.879 104.667 594.013 108.8 594.013 113.2C594.013 117.6 594.879 121.8 596.613 125.8C598.346 129.667 600.679 133.067 603.613 136C606.546 138.933 609.946 141.267 613.813 143C617.813 144.6 622.013 145.4 626.413 145.4ZM838.922 67.6C845.189 71.7333 850.189 77.2 853.922 84C857.655 90.6667 859.522 98 859.522 106V166.2H838.922V144.6V106C838.922 102.533 838.255 99.2667 836.922 96.2C835.589 93.1333 833.722 90.4667 831.322 88.2C829.055 85.8 826.389 83.9333 823.322 82.6C820.255 81.2667 816.989 80.6 813.522 80.6C810.055 80.6 806.722 81.2667 803.522 82.6C800.455 83.9333 797.722 85.8 795.322 88.2C793.055 90.4667 791.255 93.1333 789.922 96.2C788.589 99.2667 787.922 102.533 787.922 106V144.6V166.2H767.322V144.6V106C767.322 102.533 766.655 99.2667 765.322 96.2C763.989 93.1333 762.122 90.4667 759.722 88.2C757.455 85.8 754.789 83.9333 751.722 82.6C748.655 81.2667 745.389 80.6 741.922 80.6C738.455 80.6 735.122 81.2667 731.922 82.6C728.855 83.9333 726.122 85.8 723.722 88.2C721.455 90.4667 719.655 93.1333 718.322 96.2C716.989 99.2667 716.322 102.533 716.322 106V144.6V166.2H695.722V106V60H716.322V67.6C720.055 65.2 724.055 63.3333 728.322 62C732.722 60.6667 737.255 60 741.922 60C746.589 60 751.055 60.6667 755.322 62C759.722 63.3333 763.722 65.2 767.322 67.6C771.189 70.1333 774.655 73.3333 777.722 77.2C780.655 73.4667 784.055 70.2667 787.922 67.6C791.655 65.2 795.655 63.3333 799.922 62C804.322 60.6667 808.855 60 813.522 60C818.189 60 822.655 60.6667 826.922 62C831.322 63.3333 835.322 65.2 838.922 67.6ZM937.434 120.2H897.234C898.034 123.8 899.368 127.2 901.234 130.4C903.234 133.467 905.634 136.133 908.434 138.4C911.234 140.667 914.368 142.467 917.834 143.8C921.301 145 924.968 145.6 928.834 145.6C933.501 145.6 937.834 144.667 941.834 142.8C945.968 140.933 949.568 138.333 952.634 135H956.434H976.834C976.034 137 975.034 138.933 973.834 140.8C972.768 142.533 971.568 144.267 970.234 146C965.434 152.133 959.434 157.067 952.234 160.8C945.034 164.4 937.234 166.2 928.834 166.2C921.501 166.2 914.634 164.867 908.234 162.2C901.834 159.4 896.234 155.6 891.434 150.8C886.634 146 882.834 140.4 880.034 134C877.368 127.6 876.034 120.733 876.034 113.4C876.034 106.067 877.368 99.2 880.034 92.8C882.834 86.4 886.634 80.8 891.434 76C896.234 71.2 901.834 67.4667 908.234 64.8C914.634 62 921.501 60.6 928.834 60.6C937.234 60.6 945.034 62.4667 952.234 66.2C959.434 69.8 965.434 74.7333 970.234 81C974.634 86.3333 977.834 92.6 979.834 99.8C981.034 104.067 981.634 108.6 981.634 113.4C981.634 115.8 981.434 118.067 981.034 120.2H960.234H937.434ZM928.834 81.2C922.301 81.2 916.434 82.9333 911.234 86.4C906.168 89.7333 902.301 94.2 899.634 99.8H946.234H958.034C957.368 98.7333 956.701 97.6667 956.034 96.6C955.501 95.5333 954.901 94.5333 954.234 93.6C951.168 89.7333 947.434 86.7333 943.034 84.6C938.634 82.3333 933.901 81.2 928.834 81.2Z" fill="#366B6D"/>
<rect x="572" y="56" width="110" height="110" fill="white"/>
<path fill-rule="evenodd" clip-rule="evenodd" d="M609.432 113.312C606.124 112.104 602.816 110.032 600.553 106.925C598.29 103.646 598.116 100.884 598.986 99.1577C599.334 98.4673 599.857 97.9495 600.379 97.6042C600.901 97.259 601.598 97.0864 602.12 97.0864C603.687 97.0864 605.254 98.2947 606.647 101.056C608.039 103.991 608.91 108.306 609.432 113.312ZM616.048 114.866C615.352 108.306 614.307 102.437 612.392 98.4673C609.955 93.2889 606.124 91.0449 602.468 90.8723C600.553 90.8723 598.812 91.2175 597.245 92.2532C595.678 93.1163 594.459 94.4972 593.589 96.2233C591.674 99.8482 591.848 105.027 595.678 110.378C599.508 115.729 604.906 118.49 610.303 119.871C610.825 127.294 610.825 135.406 610.825 142.656C610.825 147.144 611.062 154.882 610.81 158.131L617.362 159.381C617.188 155.928 617.267 147.144 617.267 142.656C617.267 135.752 617.267 128.157 616.745 121.08C619.53 121.252 622.316 121.425 624.057 121.252V114.866C622.142 115.211 619.008 115.211 616.048 114.866Z" fill="#9FCED0"/>
<path fill-rule="evenodd" clip-rule="evenodd" d="M623.36 63.7908C611.347 64.6538 600.379 69.8322 592.37 77.7725C583.665 86.5757 578.268 98.4861 578.268 111.605C578.268 120.926 580.879 129.557 585.406 136.806C589.107 142.876 594.206 148.022 600.225 151.867V159.23C591.993 154.745 585.098 148.156 580.183 140.259C574.96 131.973 572 122.307 572 111.777C572 96.9326 578.094 83.2961 588.017 73.4571C597.767 63.7908 611.347 57.7493 626.32 57.5767C628.757 56.8862 639.9 55.1601 648.779 62.7551C649.998 63.9634 651.043 65.1717 651.913 66.5526C655.221 66.7252 658.181 67.5883 660.966 68.7966C664.623 70.5227 667.756 73.1119 670.02 76.3916C672.283 79.6712 673.676 83.6413 673.676 87.784C673.676 90.028 673.328 92.272 672.631 94.6886C674.895 95.7243 676.81 97.2778 678.203 99.1765C679.77 101.248 680.988 103.664 681.511 106.254V106.426C682.033 109.016 682.207 111.777 681.685 114.367C680.988 118.682 678.899 122.825 675.243 126.104C675.417 126.967 675.417 128.003 675.417 128.866C675.417 131.801 674.546 134.562 673.328 136.979C672.109 139.395 670.194 141.639 667.756 143.193C666.712 144.056 665.493 144.574 664.274 145.092C663.759 148.666 661.552 158.114 652.644 160.363V153.791C655.488 152.192 656.83 148.98 657.484 146.645C654.699 146.645 651.565 145.955 648.257 144.747L648.257 144.747C647.735 145.264 647.212 145.782 646.69 146.127C645.297 147.163 643.904 148.026 642.686 148.544C641.119 149.234 639.204 148.544 638.507 146.99C637.811 145.437 638.507 143.538 640.074 142.848C640.306 142.71 640.55 142.572 640.8 142.431C641.489 142.042 642.221 141.628 642.86 141.122C643.556 140.604 644.078 139.913 644.601 139.223L644.601 139.223C645.297 138.187 645.471 137.152 645.471 136.116C645.471 134.217 644.775 132.491 644.253 131.8C643.382 130.247 643.904 128.348 645.471 127.485C647.038 126.622 648.953 127.14 649.824 128.693C650.52 129.902 651.913 132.836 651.913 135.943C651.913 136.979 651.739 138.015 651.565 139.05C656.788 140.949 661.315 140.259 664.274 138.187C665.667 137.152 666.886 135.771 667.756 134.217C668.627 132.664 669.149 130.937 669.149 129.039C669.149 124.723 666.886 120.235 661.663 116.956C660.096 116.093 659.748 114.194 660.618 112.64C661.489 111.087 663.404 110.742 664.971 111.605C668.627 113.849 671.238 116.611 672.98 119.545C674.372 117.646 675.243 115.575 675.591 113.503C675.939 111.777 675.939 109.879 675.591 108.152V107.98C675.243 106.081 674.546 104.528 673.502 103.319C672.283 101.593 670.542 100.385 668.279 100.04C667.931 100.04 667.582 100.04 667.408 99.867C665.841 99.1765 665.145 97.2778 665.841 95.7243C667.06 93.1351 667.582 90.7185 667.582 88.3019C667.408 85.3675 666.538 82.6056 664.971 80.3617C663.404 78.1177 661.14 76.2189 658.529 75.0106C657.31 74.4928 655.917 74.1476 654.525 73.8024C655.569 81.3973 652.087 88.6471 652.087 88.6471C652.087 88.7334 652.044 88.7766 652 88.8197C651.957 88.8629 651.913 88.906 651.913 88.9923C655.743 93.3077 655.221 99.3491 655.221 99.3491C655.047 101.075 653.48 102.456 651.739 102.284C649.998 102.111 648.605 100.557 648.779 98.8313C648.779 98.8313 649.127 94.1707 645.819 92.0994C641.989 89.6828 637.811 90.5459 637.811 90.5459C636.07 90.8911 634.329 89.8554 633.981 88.1293C633.632 86.4031 634.677 84.677 636.418 84.3318C636.418 84.3318 641.467 83.1235 646.69 85.1948C647.735 82.7783 651.043 73.6297 644.775 67.9335C639.378 63.1003 633.11 62.9277 629.802 63.2729V106.254C631.195 107.807 635.199 111.95 641.989 110.224C643.73 109.706 645.471 110.742 645.819 112.468C646.342 114.194 645.297 115.92 643.556 116.265C637.637 117.819 633.11 116.438 629.802 114.367V150.883H623.36V63.7908Z" fill="#366B6D"/>
<path fill-rule="evenodd" clip-rule="evenodd" d="M589.449 151.383C599.252 160.473 612.452 166 626.767 166C637.384 166 647.566 164.061 655.92 158.881C659.021 156.983 660.786 154.364 662.029 151.383L655.614 151.383C654.661 152.097 653.672 152.766 652.644 153.382C645.334 157.872 635.992 159.784 626.593 159.784C616.53 159.784 607.247 156.658 599.416 151.383L589.449 151.383ZM639.469 61.9077C636.492 59.3249 632.995 57.796 629.378 57.2219C626.767 56.7039 623.982 56.8765 621.371 57.3945L621.197 57.3945C618.586 57.9125 616.15 59.1212 614.061 60.6751C613.543 61.0492 613.05 61.4612 612.586 61.9077L639.469 61.9077Z" fill="#366B6D"/>
<rect x="623.361" y="150.383" width="6.44146" height="10.997" fill="#366B6D"/>
<path d="M292.545 208.933V210.847H286.143V232H283.833V210.847H277.398V208.933H292.545ZM295.387 222.958C295.387 221.11 295.75 219.493 296.476 218.107C297.224 216.699 298.247 215.621 299.545 214.873C300.865 214.103 302.35 213.718 304 213.718C305.716 213.718 307.19 214.114 308.422 214.906C309.676 215.698 310.578 216.71 311.128 217.942V213.982H313.438V232H311.128V228.007C310.556 229.239 309.643 230.262 308.389 231.076C307.157 231.868 305.683 232.264 303.967 232.264C302.339 232.264 300.865 231.879 299.545 231.109C298.247 230.339 297.224 229.25 296.476 227.842C295.75 226.434 295.387 224.806 295.387 222.958ZM311.128 222.991C311.128 221.539 310.831 220.263 310.237 219.163C309.643 218.063 308.829 217.216 307.795 216.622C306.783 216.028 305.661 215.731 304.429 215.731C303.153 215.731 302.009 216.017 300.997 216.589C299.985 217.161 299.182 217.997 298.588 219.097C298.016 220.175 297.73 221.462 297.73 222.958C297.73 224.432 298.016 225.73 298.588 226.852C299.182 227.952 299.985 228.799 300.997 229.393C302.009 229.965 303.153 230.251 304.429 230.251C305.661 230.251 306.783 229.954 307.795 229.36C308.829 228.766 309.643 227.919 310.237 226.819C310.831 225.719 311.128 224.443 311.128 222.991ZM328.696 232L321.271 223.915V232H318.961V207.58H321.271V222.034L328.531 213.982H331.765L323.218 222.958L331.831 232H328.696ZM351.369 222.067C351.369 222.859 351.347 223.464 351.303 223.882H336.354C336.42 225.246 336.75 226.412 337.344 227.38C337.938 228.348 338.719 229.085 339.687 229.591C340.655 230.075 341.711 230.317 342.855 230.317C344.351 230.317 345.605 229.954 346.617 229.228C347.651 228.502 348.333 227.523 348.663 226.291H351.105C350.665 228.051 349.719 229.492 348.267 230.614C346.837 231.714 345.033 232.264 342.855 232.264C341.161 232.264 339.643 231.89 338.301 231.142C336.959 230.372 335.903 229.294 335.133 227.908C334.385 226.5 334.011 224.861 334.011 222.991C334.011 221.121 334.385 219.482 335.133 218.074C335.881 216.666 336.926 215.588 338.268 214.84C339.61 214.092 341.139 213.718 342.855 213.718C344.571 213.718 346.067 214.092 347.343 214.84C348.641 215.588 349.631 216.6 350.313 217.876C351.017 219.13 351.369 220.527 351.369 222.067ZM349.026 222.001C349.048 220.659 348.773 219.515 348.201 218.569C347.651 217.623 346.892 216.908 345.924 216.424C344.956 215.94 343.9 215.698 342.756 215.698C341.04 215.698 339.577 216.248 338.367 217.348C337.157 218.448 336.486 219.999 336.354 222.001H349.026ZM364.095 220.45C364.095 218.184 364.59 216.16 365.58 214.378C366.57 212.574 367.923 211.177 369.639 210.187C371.355 209.175 373.269 208.669 375.381 208.669C377.955 208.669 380.155 209.285 381.981 210.517C383.829 211.727 385.171 213.443 386.007 215.665H383.301C382.641 214.103 381.629 212.882 380.265 212.002C378.923 211.122 377.295 210.682 375.381 210.682C373.687 210.682 372.158 211.078 370.794 211.87C369.452 212.662 368.396 213.806 367.626 215.302C366.856 216.776 366.471 218.492 366.471 220.45C366.471 222.408 366.856 224.124 367.626 225.598C368.396 227.072 369.452 228.205 370.794 228.997C372.158 229.789 373.687 230.185 375.381 230.185C377.295 230.185 378.923 229.756 380.265 228.898C381.629 228.018 382.641 226.808 383.301 225.268H386.007C385.171 227.468 383.829 229.173 381.981 230.383C380.133 231.593 377.933 232.198 375.381 232.198C373.269 232.198 371.355 231.703 369.639 230.713C367.923 229.701 366.57 228.304 365.58 226.522C364.59 224.74 364.095 222.716 364.095 220.45ZM398.747 232.264C397.053 232.264 395.524 231.89 394.16 231.142C392.818 230.372 391.751 229.294 390.959 227.908C390.189 226.5 389.804 224.861 389.804 222.991C389.804 221.121 390.2 219.493 390.992 218.107C391.784 216.699 392.862 215.621 394.226 214.873C395.59 214.103 397.119 213.718 398.813 213.718C400.507 213.718 402.036 214.103 403.4 214.873C404.786 215.621 405.864 216.699 406.634 218.107C407.426 219.493 407.822 221.121 407.822 222.991C407.822 224.839 407.426 226.467 406.634 227.875C405.842 229.283 404.753 230.372 403.367 231.142C401.981 231.89 400.441 232.264 398.747 232.264ZM398.747 230.251C399.935 230.251 401.035 229.987 402.047 229.459C403.059 228.909 403.873 228.095 404.489 227.017C405.127 225.917 405.446 224.575 405.446 222.991C405.446 221.407 405.138 220.076 404.522 218.998C403.906 217.898 403.092 217.084 402.08 216.556C401.068 216.006 399.968 215.731 398.78 215.731C397.592 215.731 396.492 216.006 395.48 216.556C394.468 217.084 393.654 217.898 393.038 218.998C392.444 220.076 392.147 221.407 392.147 222.991C392.147 224.575 392.444 225.917 393.038 227.017C393.654 228.095 394.457 228.909 395.447 229.459C396.459 229.987 397.559 230.251 398.747 230.251ZM420.731 213.652C422.887 213.652 424.647 214.323 426.011 215.665C427.375 216.985 428.057 218.91 428.057 221.44V232H425.78V221.704C425.78 219.746 425.285 218.25 424.295 217.216C423.327 216.182 421.996 215.665 420.302 215.665C418.564 215.665 417.178 216.215 416.144 217.315C415.11 218.415 414.593 220.032 414.593 222.166V232H412.283V213.982H414.593V217.051C415.165 215.951 415.99 215.115 417.068 214.543C418.146 213.949 419.367 213.652 420.731 213.652ZM436.418 215.929V227.116C436.418 228.216 436.627 228.975 437.045 229.393C437.463 229.811 438.2 230.02 439.256 230.02H441.368V232H438.893C437.265 232 436.055 231.626 435.263 230.878C434.471 230.108 434.075 228.854 434.075 227.116V215.929H431.567V213.982H434.075V209.461H436.418V213.982H441.368V215.929H436.418ZM447.738 217.183C448.244 216.061 449.014 215.192 450.048 214.576C451.104 213.96 452.391 213.652 453.909 213.652V216.061H453.282C451.61 216.061 450.268 216.512 449.256 217.414C448.244 218.316 447.738 219.823 447.738 221.935V232H445.428V213.982H447.738V217.183ZM465.521 232.264C463.827 232.264 462.298 231.89 460.934 231.142C459.592 230.372 458.525 229.294 457.733 227.908C456.963 226.5 456.578 224.861 456.578 222.991C456.578 221.121 456.974 219.493 457.766 218.107C458.558 216.699 459.636 215.621 461 214.873C462.364 214.103 463.893 213.718 465.587 213.718C467.281 213.718 468.81 214.103 470.174 214.873C471.56 215.621 472.638 216.699 473.408 218.107C474.2 219.493 474.596 221.121 474.596 222.991C474.596 224.839 474.2 226.467 473.408 227.875C472.616 229.283 471.527 230.372 470.141 231.142C468.755 231.89 467.215 232.264 465.521 232.264ZM465.521 230.251C466.709 230.251 467.809 229.987 468.821 229.459C469.833 228.909 470.647 228.095 471.263 227.017C471.901 225.917 472.22 224.575 472.22 222.991C472.22 221.407 471.912 220.076 471.296 218.998C470.68 217.898 469.866 217.084 468.854 216.556C467.842 216.006 466.742 215.731 465.554 215.731C464.366 215.731 463.266 216.006 462.254 216.556C461.242 217.084 460.428 217.898 459.812 218.998C459.218 220.076 458.921 221.407 458.921 222.991C458.921 224.575 459.218 225.917 459.812 227.017C460.428 228.095 461.231 228.909 462.221 229.459C463.233 229.987 464.333 230.251 465.521 230.251ZM481.367 207.58V232H479.057V207.58H481.367ZM506.516 232.231C504.382 232.231 502.446 231.736 500.708 230.746C498.97 229.734 497.595 228.337 496.583 226.555C495.593 224.751 495.098 222.716 495.098 220.45C495.098 218.184 495.593 216.16 496.583 214.378C497.595 212.574 498.97 211.177 500.708 210.187C502.446 209.175 504.382 208.669 506.516 208.669C508.672 208.669 510.619 209.175 512.357 210.187C514.095 211.177 515.459 212.574 516.449 214.378C517.439 216.16 517.934 218.184 517.934 220.45C517.934 222.716 517.439 224.751 516.449 226.555C515.459 228.337 514.095 229.734 512.357 230.746C510.619 231.736 508.672 232.231 506.516 232.231ZM506.516 230.218C508.232 230.218 509.772 229.822 511.136 229.03C512.5 228.238 513.578 227.105 514.37 225.631C515.162 224.135 515.558 222.408 515.558 220.45C515.558 218.492 515.162 216.776 514.37 215.302C513.578 213.828 512.5 212.695 511.136 211.903C509.772 211.111 508.232 210.715 506.516 210.715C504.8 210.715 503.26 211.111 501.896 211.903C500.532 212.695 499.454 213.828 498.662 215.302C497.87 216.776 497.474 218.492 497.474 220.45C497.474 222.408 497.87 224.135 498.662 225.631C499.454 227.105 500.532 228.238 501.896 229.03C503.26 229.822 504.8 230.218 506.516 230.218ZM529.506 215.929H525.315V232H523.005V215.929H520.497V213.982H523.005V212.728C523.005 210.77 523.5 209.329 524.49 208.405C525.502 207.481 527.13 207.019 529.374 207.019V208.999C527.878 208.999 526.822 209.285 526.206 209.857C525.612 210.429 525.315 211.386 525.315 212.728V213.982H529.506V215.929ZM557.944 208.933L550.552 223.024V232H548.242V223.024L540.784 208.933H543.391L549.397 220.912L555.37 208.933H557.944ZM569.462 232.264C567.768 232.264 566.239 231.89 564.875 231.142C563.533 230.372 562.466 229.294 561.674 227.908C560.904 226.5 560.519 224.861 560.519 222.991C560.519 221.121 560.915 219.493 561.707 218.107C562.499 216.699 563.577 215.621 564.941 214.873C566.305 214.103 567.834 213.718 569.528 213.718C571.222 213.718 572.751 214.103 574.115 214.873C575.501 215.621 576.579 216.699 577.349 218.107C578.141 219.493 578.537 221.121 578.537 222.991C578.537 224.839 578.141 226.467 577.349 227.875C576.557 229.283 575.468 230.372 574.082 231.142C572.696 231.89 571.156 232.264 569.462 232.264ZM569.462 230.251C570.65 230.251 571.75 229.987 572.762 229.459C573.774 228.909 574.588 228.095 575.204 227.017C575.842 225.917 576.161 224.575 576.161 222.991C576.161 221.407 575.853 220.076 575.237 218.998C574.621 217.898 573.807 217.084 572.795 216.556C571.783 216.006 570.683 215.731 569.495 215.731C568.307 215.731 567.207 216.006 566.195 216.556C565.183 217.084 564.369 217.898 563.753 218.998C563.159 220.076 562.862 221.407 562.862 222.991C562.862 224.575 563.159 225.917 563.753 227.017C564.369 228.095 565.172 228.909 566.162 229.459C567.174 229.987 568.274 230.251 569.462 230.251ZM598.606 213.982V232H596.296V228.832C595.768 229.954 594.954 230.812 593.854 231.406C592.754 232 591.522 232.297 590.158 232.297C588.002 232.297 586.242 231.637 584.878 230.317C583.514 228.975 582.832 227.039 582.832 224.509V213.982H585.109V224.245C585.109 226.203 585.593 227.699 586.561 228.733C587.551 229.767 588.893 230.284 590.587 230.284C592.325 230.284 593.711 229.734 594.745 228.634C595.779 227.534 596.296 225.917 596.296 223.783V213.982H598.606ZM606.44 217.183C606.946 216.061 607.716 215.192 608.75 214.576C609.806 213.96 611.093 213.652 612.611 213.652V216.061H611.984C610.312 216.061 608.97 216.512 607.958 217.414C606.946 218.316 606.44 219.823 606.44 221.935V232H604.13V213.982H606.44V217.183ZM642.769 208.933V232H640.459V221.209H627.952V232H625.642V208.933H627.952V219.295H640.459V208.933H642.769ZM656.176 232.264C654.482 232.264 652.953 231.89 651.589 231.142C650.247 230.372 649.18 229.294 648.388 227.908C647.618 226.5 647.233 224.861 647.233 222.991C647.233 221.121 647.629 219.493 648.421 218.107C649.213 216.699 650.291 215.621 651.655 214.873C653.019 214.103 654.548 213.718 656.242 213.718C657.936 213.718 659.465 214.103 660.829 214.873C662.215 215.621 663.293 216.699 664.063 218.107C664.855 219.493 665.251 221.121 665.251 222.991C665.251 224.839 664.855 226.467 664.063 227.875C663.271 229.283 662.182 230.372 660.796 231.142C659.41 231.89 657.87 232.264 656.176 232.264ZM656.176 230.251C657.364 230.251 658.464 229.987 659.476 229.459C660.488 228.909 661.302 228.095 661.918 227.017C662.556 225.917 662.875 224.575 662.875 222.991C662.875 221.407 662.567 220.076 661.951 218.998C661.335 217.898 660.521 217.084 659.509 216.556C658.497 216.006 657.397 215.731 656.209 215.731C655.021 215.731 653.921 216.006 652.909 216.556C651.897 217.084 651.083 217.898 650.467 218.998C649.873 220.076 649.576 221.407 649.576 222.991C649.576 224.575 649.873 225.917 650.467 227.017C651.083 228.095 651.886 228.909 652.876 229.459C653.888 229.987 654.988 230.251 656.176 230.251ZM691.162 213.652C693.274 213.652 694.99 214.323 696.31 215.665C697.652 216.985 698.323 218.91 698.323 221.44V232H696.046V221.704C696.046 219.746 695.573 218.25 694.627 217.216C693.681 216.182 692.394 215.665 690.766 215.665C689.072 215.665 687.719 216.226 686.707 217.348C685.695 218.47 685.189 220.098 685.189 222.232V232H682.912V221.704C682.912 219.746 682.439 218.25 681.493 217.216C680.547 216.182 679.249 215.665 677.599 215.665C675.905 215.665 674.552 216.226 673.54 217.348C672.528 218.47 672.022 220.098 672.022 222.232V232H669.712V213.982H672.022V217.084C672.594 215.962 673.408 215.115 674.464 214.543C675.52 213.949 676.697 213.652 677.995 213.652C679.557 213.652 680.921 214.026 682.087 214.774C683.275 215.522 684.133 216.622 684.661 218.074C685.145 216.644 685.97 215.555 687.136 214.807C688.324 214.037 689.666 213.652 691.162 213.652ZM720.005 222.067C720.005 222.859 719.983 223.464 719.939 223.882H704.99C705.056 225.246 705.386 226.412 705.98 227.38C706.574 228.348 707.355 229.085 708.323 229.591C709.291 230.075 710.347 230.317 711.491 230.317C712.987 230.317 714.241 229.954 715.253 229.228C716.287 228.502 716.969 227.523 717.299 226.291H719.741C719.301 228.051 718.355 229.492 716.903 230.614C715.473 231.714 713.669 232.264 711.491 232.264C709.797 232.264 708.279 231.89 706.937 231.142C705.595 230.372 704.539 229.294 703.769 227.908C703.021 226.5 702.647 224.861 702.647 222.991C702.647 221.121 703.021 219.482 703.769 218.074C704.517 216.666 705.562 215.588 706.904 214.84C708.246 214.092 709.775 213.718 711.491 213.718C713.207 213.718 714.703 214.092 715.979 214.84C717.277 215.588 718.267 216.6 718.949 217.876C719.653 219.13 720.005 220.527 720.005 222.067ZM717.662 222.001C717.684 220.659 717.409 219.515 716.837 218.569C716.287 217.623 715.528 216.908 714.56 216.424C713.592 215.94 712.536 215.698 711.392 215.698C709.676 215.698 708.213 216.248 707.003 217.348C705.793 218.448 705.122 219.999 704.99 222.001H717.662Z" fill="#272727"/>
</svg>
