<svg width="111" height="110" viewBox="0 0 111 110" fill="none" xmlns="http://www.w3.org/2000/svg">
<path fill-rule="evenodd" clip-rule="evenodd" d="M71.5474 39.1681C71.4194 39.3897 71.4795 39.6719 71.6839 39.8261C78.581 45.0277 83.0396 53.2905 83.0396 62.5948C83.0396 78.3349 70.2797 91.0948 54.5396 91.0948C38.7994 91.0948 26.0396 78.3349 26.0396 62.5948C26.0396 53.5939 30.212 45.5677 36.7283 40.3446C36.9237 40.188 36.9781 39.9124 36.8529 39.6955C36.7014 39.4331 36.3532 39.3639 36.1166 39.5533C29.3641 44.9594 25.0396 53.272 25.0396 62.5948C25.0396 78.8872 38.2472 92.0948 54.5396 92.0948C70.832 92.0948 84.0396 78.8872 84.0396 62.5948C84.0396 52.9581 79.4188 44.4006 72.2721 39.0171C72.0348 38.8383 71.6959 38.9108 71.5474 39.1681Z" fill="black"/>
<rect x="54.0396" y="32" width="1" height="10" rx="0.5" fill="black"/>
<rect x="54.0396" y="47" width="1" height="19" rx="0.5" fill="black"/>
<rect x="49.0396" y="60.7071" width="1" height="8" rx="0.5" transform="rotate(-45 49.0396 60.7071)" fill="black"/>
<rect x="59.6963" y="60" width="1" height="8" rx="0.5" transform="rotate(45 59.6963 60)" fill="black"/>
<path d="M15.6064 40.8593C15.3825 41.463 15.0762 41.9666 14.6877 42.37C14.2936 42.7614 13.8581 43.0229 13.3812 43.1546C12.8956 43.2831 12.4017 43.2592 11.8997 43.0829L12.372 41.8097C12.817 41.925 13.2451 41.8847 13.6562 41.6888C14.0618 41.4809 14.375 41.0794 14.5957 40.4843C14.8067 39.9155 14.8323 39.4173 14.6724 38.9897C14.5069 38.55 14.2011 38.2474 13.7548 38.0819C13.4048 37.952 13.0847 37.9428 12.7945 38.0542C12.5043 38.1655 12.2488 38.3445 12.0279 38.5911C11.807 38.8376 11.5401 39.1816 11.227 39.623C10.8455 40.1683 10.5079 40.5956 10.214 40.9047C9.92342 41.205 9.56317 41.4248 9.13326 41.5639C8.69785 41.6911 8.19575 41.6492 7.62695 41.4382C7.12816 41.2532 6.73332 40.9624 6.44243 40.5658C6.15153 40.1692 5.98548 39.7044 5.94425 39.1715C5.90628 38.6298 5.99766 38.0614 6.21839 37.4664C6.5365 36.6088 7.01057 35.9883 7.64061 35.6048C8.27389 35.2125 8.95792 35.1129 9.6927 35.3058L9.20579 36.6184C8.83953 36.5323 8.46509 36.6025 8.08247 36.8289C7.69109 37.052 7.3964 37.4305 7.19839 37.9643C7.01337 38.4631 6.99369 38.9187 7.13935 39.3311C7.27626 39.7402 7.57661 40.0308 8.0404 40.2029C8.37292 40.3262 8.67828 40.335 8.95646 40.2291C9.23789 40.1145 9.4858 39.9427 9.70018 39.7136C9.90907 39.4725 10.176 39.1286 10.5011 38.6817C10.8913 38.1396 11.2377 37.7156 11.5403 37.4097C11.8342 37.1006 12.2004 36.8781 12.6391 36.7422C13.069 36.603 13.5727 36.6406 14.1502 36.8548C14.5965 37.0204 14.9727 37.2943 15.2789 37.6766C15.585 38.059 15.7746 38.5275 15.8476 39.0822C15.9205 39.6368 15.8402 40.2292 15.6064 40.8593Z" fill="black"/>
<path d="M22.0115 24.322C21.3582 23.6295 20.9282 22.861 20.7217 22.0165C20.5088 21.1652 20.5231 20.3304 20.7648 19.5121C21.0133 18.6874 21.4668 17.9645 22.1253 17.3432C22.8992 16.613 23.7508 16.1624 24.6801 15.9913C25.6094 15.8203 26.5299 15.9527 27.4416 16.3885L26.3316 17.4358C25.7312 17.1938 25.1355 17.1336 24.5443 17.255C23.96 17.3701 23.4098 17.671 22.8939 18.1578C22.3983 18.6254 22.0625 19.1603 21.8866 19.7626C21.7106 20.3649 21.7123 20.9856 21.8918 21.6247C22.0649 22.2569 22.4205 22.8582 22.9585 23.4284C23.4901 23.9919 24.0697 24.3818 24.6973 24.5981C25.3184 24.8076 25.9347 24.8421 26.5462 24.7014C27.1578 24.5607 27.7113 24.2566 28.2069 23.789C28.7228 23.3022 29.0584 22.7739 29.2136 22.204C29.3692 21.6209 29.3437 21.0226 29.1371 20.4092L30.247 19.362C30.6228 20.2906 30.6982 21.2139 30.4735 22.1317C30.2423 23.0427 29.7398 23.8633 28.9659 24.5935C28.3074 25.2148 27.5625 25.6289 26.7311 25.8358C25.9002 26.0295 25.0692 25.9987 24.2381 25.7435C23.407 25.4882 22.6648 25.0144 22.0115 24.322Z" fill="black"/>
<path d="M49.8546 16.2191L46.6051 12.9386L45.1142 13.3245L46.1139 17.1872L44.8805 17.5064L42.4356 8.05967L45.4851 7.27043C46.199 7.08569 46.8314 7.05216 47.3825 7.16985C47.9426 7.28519 48.3984 7.51912 48.7499 7.87162C49.1014 8.22411 49.3462 8.66692 49.4842 9.20002C49.6525 9.85058 49.6113 10.4735 49.3604 11.0686C49.1186 11.6615 48.6437 12.1363 47.9358 12.493L51.332 15.8367L49.8546 16.2191ZM44.8581 12.3351L46.6743 11.8651C47.3429 11.692 47.8023 11.3996 48.0524 10.9878C48.3002 10.5669 48.3528 10.0809 48.2101 9.52974C48.0652 8.96954 47.7858 8.57909 47.3719 8.3584C46.9671 8.13537 46.4259 8.11156 45.7482 8.28694L43.9321 8.75698L44.8581 12.3351Z" fill="black"/>
<path d="M69.0401 18.525C68.1542 18.3384 67.3892 17.9627 66.7451 17.3978C66.1029 16.8238 65.6451 16.1217 65.3717 15.2916C65.1093 14.4542 65.0762 13.5697 65.2724 12.6382C65.4685 11.7066 65.8546 10.9152 66.4305 10.2639C67.0175 9.60536 67.7196 9.14755 68.5368 8.89044C69.3559 8.62419 70.2084 8.58436 71.0943 8.77093C71.9893 8.95942 72.7579 9.34067 73.4001 9.91466C74.0442 10.4795 74.4984 11.1761 74.7627 12.0043C75.027 12.8326 75.0601 13.717 74.862 14.6577C74.6639 15.5984 74.2769 16.3944 73.701 17.0457C73.125 17.697 72.4275 18.1558 71.6084 18.422C70.7912 18.6792 69.9351 18.7135 69.0401 18.525ZM69.268 17.4427C69.9347 17.5831 70.5656 17.5538 71.1607 17.3549C71.765 17.1578 72.2784 16.8034 72.7009 16.2915C73.1326 15.7815 73.4283 15.1475 73.5879 14.3894C73.7495 13.6223 73.7347 12.9228 73.5434 12.2912C73.3632 11.6524 73.0409 11.1219 72.5766 10.6998C72.1123 10.2777 71.5422 9.99552 70.8664 9.85319C70.1905 9.71085 69.555 9.73917 68.9599 9.93813C68.3648 10.1371 67.8514 10.4916 67.4197 11.0016C66.9991 11.5043 66.708 12.1393 66.5464 12.9065C66.3868 13.6645 66.397 14.363 66.5773 15.0018C66.7666 15.6426 67.0934 16.174 67.5578 16.5961C68.0312 17.0201 68.6013 17.3023 69.268 17.4427Z" fill="black"/>
<path d="M86.1838 28.2548L88.7273 30.5351L88.0357 31.3065L84.5436 28.1757L91.0574 20.9101L92.006 21.7605L86.1838 28.2548Z" fill="black"/>
<path d="M96.2866 43.697L97.6874 46.8126L96.7425 47.2374L94.8193 42.9599L103.719 38.9585L104.242 40.1205L96.2866 43.697Z" fill="black"/>
</svg>
