<svg width="561" height="50" viewBox="0 0 561 50" fill="none" xmlns="http://www.w3.org/2000/svg">
<path d="M174.391 20.566C174.391 22.546 173.742 24.141 172.444 25.351C171.146 26.561 169.199 27.166 166.603 27.166H161.95V37H159.64V13.933H166.603C169.177 13.933 171.113 14.538 172.411 15.748C173.731 16.958 174.391 18.564 174.391 20.566ZM166.603 25.186C170.211 25.186 172.015 23.646 172.015 20.566C172.015 19.026 171.586 17.86 170.728 17.068C169.87 16.276 168.495 15.88 166.603 15.88H161.95V25.186H166.603ZM194.819 27.067C194.819 27.859 194.797 28.464 194.753 28.882H179.804C179.87 30.246 180.2 31.412 180.794 32.38C181.388 33.348 182.169 34.085 183.137 34.591C184.105 35.075 185.161 35.317 186.305 35.317C187.801 35.317 189.055 34.954 190.067 34.228C191.101 33.502 191.783 32.523 192.113 31.291H194.555C194.115 33.051 193.169 34.492 191.717 35.614C190.287 36.714 188.483 37.264 186.305 37.264C184.611 37.264 183.093 36.89 181.751 36.142C180.409 35.372 179.353 34.294 178.583 32.908C177.835 31.5 177.461 29.861 177.461 27.991C177.461 26.121 177.835 24.482 178.583 23.074C179.331 21.666 180.376 20.588 181.718 19.84C183.06 19.092 184.589 18.718 186.305 18.718C188.021 18.718 189.517 19.092 190.793 19.84C192.091 20.588 193.081 21.6 193.763 22.876C194.467 24.13 194.819 25.527 194.819 27.067ZM192.476 27.001C192.498 25.659 192.223 24.515 191.651 23.569C191.101 22.623 190.342 21.908 189.374 21.424C188.406 20.94 187.35 20.698 186.206 20.698C184.49 20.698 183.027 21.248 181.817 22.348C180.607 23.448 179.936 24.999 179.804 27.001H192.476ZM201.605 22.183C202.111 21.061 202.881 20.192 203.915 19.576C204.971 18.96 206.258 18.652 207.776 18.652V21.061H207.149C205.477 21.061 204.135 21.512 203.123 22.414C202.111 23.316 201.605 24.823 201.605 26.935V37H199.295V18.982H201.605V22.183ZM217.705 37.264C215.637 37.264 213.943 36.791 212.623 35.845C211.325 34.877 210.599 33.568 210.445 31.918H212.821C212.931 32.93 213.404 33.755 214.24 34.393C215.098 35.009 216.242 35.317 217.672 35.317C218.926 35.317 219.905 35.02 220.609 34.426C221.335 33.832 221.698 33.095 221.698 32.215C221.698 31.599 221.5 31.093 221.104 30.697C220.708 30.301 220.202 29.993 219.586 29.773C218.992 29.531 218.178 29.278 217.144 29.014C215.802 28.662 214.713 28.31 213.877 27.958C213.041 27.606 212.326 27.089 211.732 26.407C211.16 25.703 210.874 24.768 210.874 23.602C210.874 22.722 211.138 21.908 211.666 21.16C212.194 20.412 212.942 19.818 213.91 19.378C214.878 18.938 215.978 18.718 217.21 18.718C219.146 18.718 220.708 19.213 221.896 20.203C223.084 21.171 223.722 22.513 223.81 24.229H221.5C221.434 23.173 221.016 22.326 220.246 21.688C219.498 21.028 218.464 20.698 217.144 20.698C215.978 20.698 215.032 20.973 214.306 21.523C213.58 22.073 213.217 22.755 213.217 23.569C213.217 24.273 213.426 24.856 213.844 25.318C214.284 25.758 214.823 26.11 215.461 26.374C216.099 26.616 216.957 26.891 218.035 27.199C219.333 27.551 220.367 27.892 221.137 28.222C221.907 28.552 222.567 29.036 223.117 29.674C223.667 30.312 223.953 31.159 223.975 32.215C223.975 33.183 223.711 34.052 223.183 34.822C222.655 35.57 221.918 36.164 220.972 36.604C220.026 37.044 218.937 37.264 217.705 37.264ZM236.461 37.264C234.767 37.264 233.238 36.89 231.874 36.142C230.532 35.372 229.465 34.294 228.673 32.908C227.903 31.5 227.518 29.861 227.518 27.991C227.518 26.121 227.914 24.493 228.706 23.107C229.498 21.699 230.576 20.621 231.94 19.873C233.304 19.103 234.833 18.718 236.527 18.718C238.221 18.718 239.75 19.103 241.114 19.873C242.5 20.621 243.578 21.699 244.348 23.107C245.14 24.493 245.536 26.121 245.536 27.991C245.536 29.839 245.14 31.467 244.348 32.875C243.556 34.283 242.467 35.372 241.081 36.142C239.695 36.89 238.155 37.264 236.461 37.264ZM236.461 35.251C237.649 35.251 238.749 34.987 239.761 34.459C240.773 33.909 241.587 33.095 242.203 32.017C242.841 30.917 243.16 29.575 243.16 27.991C243.16 26.407 242.852 25.076 242.236 23.998C241.62 22.898 240.806 22.084 239.794 21.556C238.782 21.006 237.682 20.731 236.494 20.731C235.306 20.731 234.206 21.006 233.194 21.556C232.182 22.084 231.368 22.898 230.752 23.998C230.158 25.076 229.861 26.407 229.861 27.991C229.861 29.575 230.158 30.917 230.752 32.017C231.368 33.095 232.171 33.909 233.161 34.459C234.173 34.987 235.273 35.251 236.461 35.251ZM258.444 18.652C260.6 18.652 262.36 19.323 263.724 20.665C265.088 21.985 265.77 23.91 265.77 26.44V37H263.493V26.704C263.493 24.746 262.998 23.25 262.008 22.216C261.04 21.182 259.709 20.665 258.015 20.665C256.277 20.665 254.891 21.215 253.857 22.315C252.823 23.415 252.306 25.032 252.306 27.166V37H249.996V18.982H252.306V22.051C252.878 20.951 253.703 20.115 254.781 19.543C255.859 18.949 257.08 18.652 258.444 18.652ZM270.073 27.958C270.073 26.11 270.436 24.493 271.162 23.107C271.91 21.699 272.933 20.621 274.231 19.873C275.551 19.103 277.036 18.718 278.686 18.718C280.402 18.718 281.876 19.114 283.108 19.906C284.362 20.698 285.264 21.71 285.814 22.942V18.982H288.124V37H285.814V33.007C285.242 34.239 284.329 35.262 283.075 36.076C281.843 36.868 280.369 37.264 278.653 37.264C277.025 37.264 275.551 36.879 274.231 36.109C272.933 35.339 271.91 34.25 271.162 32.842C270.436 31.434 270.073 29.806 270.073 27.958ZM285.814 27.991C285.814 26.539 285.517 25.263 284.923 24.163C284.329 23.063 283.515 22.216 282.481 21.622C281.469 21.028 280.347 20.731 279.115 20.731C277.839 20.731 276.695 21.017 275.683 21.589C274.671 22.161 273.868 22.997 273.274 24.097C272.702 25.175 272.416 26.462 272.416 27.958C272.416 29.432 272.702 30.73 273.274 31.852C273.868 32.952 274.671 33.799 275.683 34.393C276.695 34.965 277.839 35.251 279.115 35.251C280.347 35.251 281.469 34.954 282.481 34.36C283.515 33.766 284.329 32.919 284.923 31.819C285.517 30.719 285.814 29.443 285.814 27.991ZM302.458 24.955C302.458 21.171 303.041 18.234 304.207 16.144C305.373 14.054 307.463 13.009 310.477 13.009C313.491 13.009 315.581 14.054 316.747 16.144C317.913 18.234 318.496 21.171 318.496 24.955C318.496 28.805 317.913 31.786 316.747 33.898C315.581 36.01 313.491 37.066 310.477 37.066C307.441 37.066 305.34 36.01 304.174 33.898C303.03 31.786 302.458 28.805 302.458 24.955ZM316.219 24.955C316.219 22.909 316.076 21.182 315.79 19.774C315.504 18.366 314.943 17.233 314.107 16.375C313.271 15.517 312.061 15.088 310.477 15.088C308.893 15.088 307.683 15.517 306.847 16.375C306.011 17.233 305.45 18.366 305.164 19.774C304.878 21.182 304.735 22.909 304.735 24.955C304.735 27.067 304.878 28.838 305.164 30.268C305.45 31.676 306.011 32.809 306.847 33.667C307.683 34.525 308.893 34.954 310.477 34.954C312.061 34.954 313.271 34.525 314.107 33.667C314.943 32.809 315.504 31.676 315.79 30.268C316.076 28.838 316.219 27.067 316.219 24.955ZM321.921 15.418V13.339H327.531V37H325.188V15.418H321.921ZM345.568 40.3H343.258V10.93H345.568V40.3ZM359.834 25.45C359.834 23.184 360.329 21.16 361.319 19.378C362.309 17.574 363.662 16.177 365.378 15.187C367.094 14.175 369.008 13.669 371.12 13.669C373.694 13.669 375.894 14.285 377.72 15.517C379.568 16.727 380.91 18.443 381.746 20.665H379.04C378.38 19.103 377.368 17.882 376.004 17.002C374.662 16.122 373.034 15.682 371.12 15.682C369.426 15.682 367.897 16.078 366.533 16.87C365.191 17.662 364.135 18.806 363.365 20.302C362.595 21.776 362.21 23.492 362.21 25.45C362.21 27.408 362.595 29.124 363.365 30.598C364.135 32.072 365.191 33.205 366.533 33.997C367.897 34.789 369.426 35.185 371.12 35.185C373.034 35.185 374.662 34.756 376.004 33.898C377.368 33.018 378.38 31.808 379.04 30.268H381.746C380.91 32.468 379.568 34.173 377.72 35.383C375.872 36.593 373.672 37.198 371.12 37.198C369.008 37.198 367.094 36.703 365.378 35.713C363.662 34.701 362.309 33.304 361.319 31.522C360.329 29.74 359.834 27.716 359.834 25.45ZM395.179 18.652C396.543 18.652 397.764 18.938 398.842 19.51C399.942 20.082 400.8 20.962 401.416 22.15C402.054 23.316 402.373 24.746 402.373 26.44V37H400.096V26.704C400.096 24.746 399.601 23.25 398.611 22.216C397.643 21.182 396.312 20.665 394.618 20.665C392.88 20.665 391.494 21.215 390.46 22.315C389.426 23.415 388.909 25.032 388.909 27.166V37H386.599V12.58H388.909V22.051C389.481 20.973 390.317 20.137 391.417 19.543C392.539 18.949 393.793 18.652 395.179 18.652ZM410.042 12.58V37H407.732V12.58H410.042ZM423.41 37.264C421.716 37.264 420.187 36.89 418.823 36.142C417.481 35.372 416.414 34.294 415.622 32.908C414.852 31.5 414.467 29.861 414.467 27.991C414.467 26.121 414.863 24.493 415.655 23.107C416.447 21.699 417.525 20.621 418.889 19.873C420.253 19.103 421.782 18.718 423.476 18.718C425.17 18.718 426.699 19.103 428.063 19.873C429.449 20.621 430.527 21.699 431.297 23.107C432.089 24.493 432.485 26.121 432.485 27.991C432.485 29.839 432.089 31.467 431.297 32.875C430.505 34.283 429.416 35.372 428.03 36.142C426.644 36.89 425.104 37.264 423.41 37.264ZM423.41 35.251C424.598 35.251 425.698 34.987 426.71 34.459C427.722 33.909 428.536 33.095 429.152 32.017C429.79 30.917 430.109 29.575 430.109 27.991C430.109 26.407 429.801 25.076 429.185 23.998C428.569 22.898 427.755 22.084 426.743 21.556C425.731 21.006 424.631 20.731 423.443 20.731C422.255 20.731 421.155 21.006 420.143 21.556C419.131 22.084 418.317 22.898 417.701 23.998C417.107 25.076 416.81 26.407 416.81 27.991C416.81 29.575 417.107 30.917 417.701 32.017C418.317 33.095 419.12 33.909 420.11 34.459C421.122 34.987 422.222 35.251 423.41 35.251ZM453.248 27.067C453.248 27.859 453.226 28.464 453.182 28.882H438.233C438.299 30.246 438.629 31.412 439.223 32.38C439.817 33.348 440.598 34.085 441.566 34.591C442.534 35.075 443.59 35.317 444.734 35.317C446.23 35.317 447.484 34.954 448.496 34.228C449.53 33.502 450.212 32.523 450.542 31.291H452.984C452.544 33.051 451.598 34.492 450.146 35.614C448.716 36.714 446.912 37.264 444.734 37.264C443.04 37.264 441.522 36.89 440.18 36.142C438.838 35.372 437.782 34.294 437.012 32.908C436.264 31.5 435.89 29.861 435.89 27.991C435.89 26.121 436.264 24.482 437.012 23.074C437.76 21.666 438.805 20.588 440.147 19.84C441.489 19.092 443.018 18.718 444.734 18.718C446.45 18.718 447.946 19.092 449.222 19.84C450.52 20.588 451.51 21.6 452.192 22.876C452.896 24.13 453.248 25.527 453.248 27.067ZM450.905 27.001C450.927 25.659 450.652 24.515 450.08 23.569C449.53 22.623 448.771 21.908 447.803 21.424C446.835 20.94 445.779 20.698 444.635 20.698C442.919 20.698 441.456 21.248 440.246 22.348C439.036 23.448 438.365 24.999 438.233 27.001H450.905ZM489.569 14.23V37H487.259V18.817L479.141 37H477.458L469.34 18.883V37H467.03V14.23H469.472L478.283 33.964L487.094 14.23H489.569ZM494.003 27.958C494.003 26.11 494.366 24.493 495.092 23.107C495.84 21.699 496.863 20.621 498.161 19.873C499.481 19.103 500.966 18.718 502.616 18.718C504.332 18.718 505.806 19.114 507.038 19.906C508.292 20.698 509.194 21.71 509.744 22.942V18.982H512.054V37H509.744V33.007C509.172 34.239 508.259 35.262 507.005 36.076C505.773 36.868 504.299 37.264 502.583 37.264C500.955 37.264 499.481 36.879 498.161 36.109C496.863 35.339 495.84 34.25 495.092 32.842C494.366 31.434 494.003 29.806 494.003 27.958ZM509.744 27.991C509.744 26.539 509.447 25.263 508.853 24.163C508.259 23.063 507.445 22.216 506.411 21.622C505.399 21.028 504.277 20.731 503.045 20.731C501.769 20.731 500.625 21.017 499.613 21.589C498.601 22.161 497.798 22.997 497.204 24.097C496.632 25.175 496.346 26.462 496.346 27.958C496.346 29.432 496.632 30.73 497.204 31.852C497.798 32.952 498.601 33.799 499.613 34.393C500.625 34.965 501.769 35.251 503.045 35.251C504.277 35.251 505.399 34.954 506.411 34.36C507.445 33.766 508.259 32.919 508.853 31.819C509.447 30.719 509.744 29.443 509.744 27.991ZM519.888 22.183C520.394 21.061 521.164 20.192 522.198 19.576C523.254 18.96 524.541 18.652 526.059 18.652V21.061H525.432C523.76 21.061 522.418 21.512 521.406 22.414C520.394 23.316 519.888 24.823 519.888 26.935V37H517.578V18.982H519.888V22.183ZM539.519 37L532.094 28.915V37H529.784V12.58H532.094V27.034L539.354 18.982H542.588L534.041 27.958L542.654 37H539.519ZM552.093 37.264C550.025 37.264 548.331 36.791 547.011 35.845C545.713 34.877 544.987 33.568 544.833 31.918H547.209C547.319 32.93 547.792 33.755 548.628 34.393C549.486 35.009 550.63 35.317 552.06 35.317C553.314 35.317 554.293 35.02 554.997 34.426C555.723 33.832 556.086 33.095 556.086 32.215C556.086 31.599 555.888 31.093 555.492 30.697C555.096 30.301 554.59 29.993 553.974 29.773C553.38 29.531 552.566 29.278 551.532 29.014C550.19 28.662 549.101 28.31 548.265 27.958C547.429 27.606 546.714 27.089 546.12 26.407C545.548 25.703 545.262 24.768 545.262 23.602C545.262 22.722 545.526 21.908 546.054 21.16C546.582 20.412 547.33 19.818 548.298 19.378C549.266 18.938 550.366 18.718 551.598 18.718C553.534 18.718 555.096 19.213 556.284 20.203C557.472 21.171 558.11 22.513 558.198 24.229H555.888C555.822 23.173 555.404 22.326 554.634 21.688C553.886 21.028 552.852 20.698 551.532 20.698C550.366 20.698 549.42 20.973 548.694 21.523C547.968 22.073 547.605 22.755 547.605 23.569C547.605 24.273 547.814 24.856 548.232 25.318C548.672 25.758 549.211 26.11 549.849 26.374C550.487 26.616 551.345 26.891 552.423 27.199C553.721 27.551 554.755 27.892 555.525 28.222C556.295 28.552 556.955 29.036 557.505 29.674C558.055 30.312 558.341 31.159 558.363 32.215C558.363 33.183 558.099 34.052 557.571 34.822C557.043 35.57 556.306 36.164 555.36 36.604C554.414 37.044 553.325 37.264 552.093 37.264Z" fill="white"/>
<line y1="20.5" x2="150" y2="20.5" stroke="white"/>
</svg>
