<svg width="378" height="410" viewBox="0 0 378 410" fill="none" xmlns="http://www.w3.org/2000/svg">
<path d="M130.354 56.6472C138.975 63.2506 147.077 70.551 154.582 78.4763C166.367 91.0818 177.232 104.563 187.084 118.804C195.607 130.888 203.642 143.289 209.875 156.79C214.086 165.474 216.941 174.759 218.333 184.296C219.842 196.294 217.431 207.056 209.894 216.236C200.549 227.601 188.36 236.114 174.589 240.894C166.991 243.622 159.385 246.297 151.265 247.151C138.666 248.641 125.831 246.039 114.545 239.708C96.6775 229.713 84.119 215.019 76.3709 195.768C69.2653 178.166 64.5865 159.681 62.4731 140.861C61.3377 130.792 60.0055 120.741 59.5481 110.624C58.7951 96.2938 60.5895 82.0078 64.8431 68.4696C65.8933 64.5354 67.256 60.7041 68.9174 57.0136C70.6935 53.5565 73.2846 50.6272 76.4597 48.487C82.7237 44.1862 89.4399 41.1944 97.2935 41.7744C102.785 42.195 108.186 43.601 113.251 45.9289C119.337 48.7835 125.08 52.3828 130.354 56.6472Z" fill="url(#paint0_linear)" fill-opacity="0.2"/>
<path d="M193.122 248.725C203.607 230.396 219.564 216.144 238.431 208.258C246.296 204.97 254.326 202.162 262.48 199.848C271.195 197.128 280.03 194.893 288.947 193.153C299.924 191.005 311.174 192.052 321.47 196.178C324.943 197.585 328.659 198.339 332.158 199.918C342.306 204.117 350.353 212.411 354.541 222.985C360.086 236.854 359 250.641 353.786 264.531C351.448 270.797 348.438 276.779 344.815 282.358C335.046 297.617 323.025 311.173 309.22 322.499C291.771 336.877 272.358 348.357 251.684 356.521C239.523 361.242 227.048 364.643 214.041 364.864C207.476 365.149 200.972 363.881 195.01 361.153C187.876 357.69 182 351.954 178.196 344.74C173.431 335.999 172.503 326.42 172.828 316.469C173.487 302.929 176.149 289.525 180.717 276.739C183.881 266.981 188.04 257.587 193.122 248.725Z" fill="url(#paint1_linear)" fill-opacity="0.6"/>
<path d="M277.023 182.265C266.629 181.339 258.319 177.629 250.275 172.695C239.279 165.686 229.367 156.848 220.896 146.497C211.109 134.949 202.082 122.785 195.303 108.832C190.456 99.2067 187.511 88.5725 186.656 77.6053C186.131 70.0141 186.603 62.3711 188.059 54.9069C189.714 45.8052 193.222 37.2068 198.325 29.746C203.087 22.5499 209.893 17.2551 217.679 14.6904C220.059 13.9372 221.984 12.104 224.208 10.936C228.272 8.73708 232.671 7.3766 237.179 6.92396C241.74 6.66224 246.226 8.15531 249.851 11.1414C254.289 14.8064 258.243 19.1152 261.606 23.9493C268.682 33.4893 274.891 43.635 281.11 53.8115C291.824 71.446 301.256 89.9705 309.323 109.218C313.274 118.091 315.856 127.621 316.966 137.43C318.013 148.155 316.602 158.275 310.165 167.012C306.163 172.259 301.063 176.386 295.3 179.043C289.536 181.699 283.28 182.806 277.064 182.269L277.023 182.265Z" fill="url(#paint2_linear)" fill-opacity="0.4"/>
<path d="M223.48 160.579C222.553 162.165 222.068 163.028 221.565 163.867C216.411 172.58 210.987 181.153 202.863 187.441C196.08 192.78 187.972 196.181 179.404 197.282C171.698 198.28 165.905 194.93 160.935 189.676C159.462 188.121 158.088 187.19 155.811 187.013C151.602 186.688 148.448 184.6 147.601 180.1C146.988 176.922 145.098 174.938 142.232 173.511C140.533 172.617 139.014 171.417 137.753 169.972C137.189 169.359 136.98 167.522 137.452 166.996C139.22 165.067 137.986 163.542 137.09 162.042C136.09 160.371 134.636 159.428 132.464 160.113C126.727 161.92 121.879 160.021 119.578 154.853C117.885 151.051 117.78 146.403 117.608 142.099C117.394 136.741 117.891 131.358 117.983 125.982C118.026 123.392 116.645 122.155 114.05 121.427C108.122 119.755 102.311 117.508 97.9424 112.983C95.2426 110.19 93.1502 106.823 90.2049 102.947C92.9539 102.395 94.6719 101.801 96.4084 101.722C106.042 101.41 114.344 106.418 117.332 115.603C119.044 120.882 121.848 122.425 126.898 122.633C138.446 123.104 149.209 120.288 159.524 115.524C172.109 109.713 182.43 100.724 192.769 91.7042C215.208 72.1098 234.868 49.7721 256.117 29.0081C268.266 17.1351 281.416 6.74396 297.744 1.07382C298.707 0.737036 299.658 0.357393 300.628 0.0389835C301.152 -0.0129945 301.681 -0.0129945 302.205 0.0389835C301.293 0.590405 300.353 1.09322 299.388 1.54531C284.116 7.40527 271.463 17.178 259.971 28.5305C241.955 46.3247 224.216 64.4129 205.973 81.9927C194.745 92.8248 183.442 103.706 170.047 111.997C155.038 121.28 139.042 126.607 121.081 123.355C120.905 123.361 120.733 123.407 120.578 123.49C120.578 132.424 120.4 141.346 120.634 150.249C120.805 156.746 126.616 160.187 132.703 157.872C132.519 155.025 132.089 152.202 132.194 149.398C132.427 140.825 142.496 135.363 149.958 139.717C154.805 142.546 155.13 149.055 150.301 152.827C148.381 154.327 145.748 154.933 143.41 155.888C141.073 156.844 138.765 157.658 136.44 158.54C137.698 161.105 138.606 163.132 139.674 165.067C140.612 166.775 146.767 168.129 148.675 166.751C151.393 164.84 154.253 165.012 157.198 165.459C161.747 166.137 166.282 166.89 170.802 167.718C171.866 167.964 172.803 168.591 173.434 169.482C161.954 169.819 150.528 172.727 138.931 169.023C140.023 169.776 141.017 170.792 142.226 171.245C146.215 172.752 148.417 175.47 149.362 179.653C150.307 183.835 151.817 184.668 155.744 184.551C152.271 179.72 152.921 177.234 158.609 174.436C162.708 172.421 167.077 171.374 171.673 171.913C172.679 172.035 174.127 172.562 174.428 173.291C174.729 174.019 174.164 175.556 173.477 176.205C169.648 179.818 165.666 183.278 161.328 187.154C162.051 188.169 162.873 189.111 163.782 189.964C171.759 196.547 180.558 196.204 189.486 192.603C204.212 186.67 213.625 175.342 220.522 161.528C221.467 159.642 220.448 159.078 219.24 158.172C212.674 153.341 206.82 147.836 203.347 140.286C197.874 128.395 198.328 116.901 206.286 106.21C210.306 100.803 215.932 99.8359 221.749 103.222C228.701 107.276 231.567 113.919 232.794 121.42C234.15 129.944 231.874 138.039 229.247 146.011C228.045 149.699 226.611 153.306 224.952 156.813C223.921 158.974 224.418 160.083 226.259 161.307C231.843 165.024 236.942 169.415 240.176 175.311C249.993 193.21 243.612 210.967 224.547 217.078C216.466 219.668 207.771 220.391 199.334 221.83C190.087 223.403 180.632 224.126 171.593 226.477C160.972 229.239 152.295 235.662 145.515 244.382C141.22 249.893 139.287 256.242 139.085 263.174C138.643 278.225 143.429 292.149 148.724 305.853C154.928 321.902 161.708 337.694 167.991 353.002C167.432 352.452 166.944 351.835 166.537 351.165C159.696 338.735 153.093 326.17 148.411 312.748C144.693 302.093 140.864 291.402 138.268 280.448C136.728 273.933 136.784 266.811 137.348 260.063C138.428 247.051 146.092 238.02 156.842 231.284C167.856 224.352 180.159 221.732 192.842 220.317C201.678 219.331 210.575 218.676 219.301 217.103C231.61 214.88 241.464 204.299 242.078 193.406C242.507 185.898 240.667 178.991 235.543 173.284C231.757 169.072 227.744 165.061 223.48 160.579ZM222.179 157.842C222.921 156.084 223.633 154.553 224.228 152.98C227.591 144.077 230.622 135.051 230.241 125.425C229.904 116.724 227.431 108.892 218.908 104.49C214.441 102.175 210.931 102.953 207.863 106.872C204.202 111.585 202.202 117.373 202.175 123.337C201.856 138.676 210.551 148.865 222.179 157.842ZM134.36 156.005C138.434 154.56 142.337 153.243 146.141 151.786C147.49 151.332 148.739 150.625 149.823 149.704C150.354 149.219 150.771 148.623 151.043 147.958C151.315 147.293 151.436 146.576 151.396 145.859C151.357 145.142 151.159 144.443 150.815 143.811C150.472 143.18 149.993 142.633 149.412 142.209C147.055 140.445 144.374 139.594 141.349 140.409C135.372 141.988 132.12 149.587 134.36 155.98V156.005ZM93.6227 104.459C94.8499 111.433 108.349 120.226 116.05 119.988C112.417 108.923 104.625 104.514 93.6227 104.435V104.459ZM172.483 174.595L171.968 173.187C167.402 174.344 162.764 175.342 158.303 176.72C156.548 177.258 154.523 178.483 155.271 180.902C155.965 183.167 159.843 184.472 161.782 183.057C165.457 180.363 168.93 177.405 172.483 174.57V174.595ZM149.332 169.084H163.199V168.257C158.53 167.669 153.866 164.889 149.332 169.041V169.084Z" fill="black"/>
<defs>
<linearGradient id="paint0_linear" x1="82.2279" y1="215.967" x2="177.346" y2="92.9592" gradientUnits="userSpaceOnUse">
<stop stop-color="#FF0060"/>
<stop offset="1" stop-color="#F74588"/>
</linearGradient>
<linearGradient id="paint1_linear" x1="198.872" y1="239.016" x2="325.867" y2="314.416" gradientUnits="userSpaceOnUse">
<stop stop-color="#FF0060"/>
<stop offset="1" stop-color="#F74588"/>
</linearGradient>
<linearGradient id="paint2_linear" x1="184.785" y1="88.0568" x2="321.123" y2="99.3547" gradientUnits="userSpaceOnUse">
<stop stop-color="#FF0060"/>
<stop offset="1" stop-color="#F74588"/>
</linearGradient>
</defs>
</svg>
