<svg width="378" height="411" viewBox="0 0 378 411" fill="none" xmlns="http://www.w3.org/2000/svg">
<path d="M130.354 57.6267C138.975 64.2301 147.077 71.5305 154.582 79.4557C166.367 92.0613 177.232 105.542 187.084 119.783C195.607 131.867 203.642 144.269 209.875 157.769C214.086 166.453 216.941 175.739 218.333 185.276C219.842 197.274 217.431 208.035 209.894 217.215C200.549 228.58 188.36 237.093 174.589 241.874C166.991 244.601 159.385 247.276 151.265 248.131C138.666 249.621 125.831 247.019 114.545 240.687C96.6775 230.692 84.119 215.999 76.3709 196.747C69.2653 179.145 64.5865 160.66 62.4731 141.84C61.3377 131.771 60.0055 121.721 59.5481 111.603C58.7951 97.2733 60.5895 82.9873 64.8431 69.4491C65.8933 65.5149 67.256 61.6836 68.9174 57.9931C70.6935 54.536 73.2846 51.6067 76.4597 49.4665C82.7237 45.1657 89.4399 42.1739 97.2935 42.7539C102.785 43.1745 108.186 44.5805 113.251 46.9084C119.337 49.763 125.08 53.3623 130.354 57.6267Z" fill="url(#paint0_linear)" fill-opacity="0.2"/>
<path d="M193.122 249.704C203.607 231.375 219.564 217.123 238.431 209.238C246.296 205.949 254.326 203.141 262.48 200.827C271.195 198.107 280.03 195.873 288.947 194.133C299.924 191.985 311.174 193.031 321.47 197.158C324.943 198.565 328.659 199.318 332.158 200.897C342.306 205.097 350.353 213.391 354.541 223.964C360.086 237.834 359 251.621 353.786 265.51C351.448 271.777 348.438 277.759 344.815 283.338C335.046 298.597 323.025 312.153 309.22 323.479C291.771 337.857 272.358 349.336 251.684 357.501C239.523 362.221 227.048 365.622 214.041 365.843C207.476 366.129 200.972 364.861 195.01 362.133C187.876 358.669 182 352.933 178.196 345.72C173.431 336.979 172.503 327.399 172.828 317.448C173.487 303.908 176.149 290.504 180.717 277.719C183.881 267.96 188.04 258.567 193.122 249.704Z" fill="url(#paint1_linear)" fill-opacity="0.6"/>
<path d="M277.023 183.245C266.629 182.319 258.319 178.609 250.275 173.675C239.279 166.666 229.367 157.827 220.896 147.477C211.109 135.928 202.082 123.765 195.303 109.811C190.456 100.186 187.511 89.552 186.656 78.5848C186.131 70.9936 186.603 63.3506 188.059 55.8864C189.714 46.7847 193.222 38.1863 198.325 30.7255C203.087 23.5294 209.893 18.2346 217.679 15.6699C220.059 14.9167 221.984 13.0835 224.208 11.9155C228.272 9.71657 232.671 8.35609 237.179 7.90345C241.74 7.64173 246.226 9.1348 249.851 12.1209C254.289 15.7859 258.243 20.0947 261.606 24.9288C268.682 34.4688 274.891 44.6145 281.11 54.7909C291.824 72.4255 301.256 90.95 309.323 110.198C313.274 119.07 315.856 128.601 316.966 138.409C318.013 149.135 316.602 159.255 310.165 167.992C306.163 173.239 301.063 177.366 295.3 180.022C289.536 182.679 283.28 183.785 277.064 183.248L277.023 183.245Z" fill="url(#paint2_linear)" fill-opacity="0.4"/>
<path d="M223.48 161.557C222.553 163.143 222.068 164.007 221.565 164.845C216.411 173.559 210.987 182.131 202.863 188.42C196.08 193.759 187.972 197.16 179.404 198.26C171.698 199.258 165.905 195.909 160.935 190.655C159.462 189.1 158.088 188.169 155.811 187.991C151.602 187.667 148.448 185.579 147.601 181.078C146.988 177.9 145.098 175.916 142.232 174.49C140.533 173.596 139.014 172.396 137.753 170.95C137.189 170.338 136.98 168.501 137.452 167.974C139.22 166.046 137.986 164.521 137.09 163.021C136.09 161.349 134.636 160.406 132.464 161.092C126.727 162.898 121.879 161 119.578 155.832C117.885 152.029 117.78 147.382 117.608 143.077C117.394 137.719 117.891 132.337 117.983 126.961C118.026 124.371 116.645 123.134 114.05 122.405C108.122 120.733 102.311 118.486 97.9424 113.961C95.2426 111.169 93.1502 107.801 90.2049 103.925C92.9539 103.374 94.6719 102.78 96.4084 102.7C106.042 102.388 114.344 107.397 117.332 116.582C119.044 121.86 121.848 123.403 126.898 123.611C138.446 124.083 149.209 121.266 159.524 116.502C172.109 110.691 182.43 101.702 192.769 92.6828C215.208 73.0883 234.868 50.7506 256.117 29.9867C268.266 18.1136 281.416 7.72247 297.744 2.05233C298.707 1.71555 299.658 1.33591 300.628 1.0175C301.152 0.965521 301.681 0.965521 302.205 1.0175C301.293 1.56892 300.353 2.07173 299.388 2.52382C284.116 8.38378 271.463 18.1565 259.971 29.509C241.955 47.3032 224.216 65.3914 205.973 82.9713C194.745 93.8033 183.442 104.684 170.047 112.975C155.038 122.258 139.042 127.585 121.081 124.334C120.905 124.339 120.733 124.385 120.578 124.469C120.578 133.402 120.4 142.324 120.634 151.227C120.805 157.724 126.616 161.165 132.703 158.851C132.519 156.003 132.089 153.181 132.194 150.376C132.427 141.804 142.496 136.342 149.958 140.695C154.805 143.524 155.13 150.033 150.301 153.805C148.381 155.305 145.748 155.912 143.41 156.867C141.073 157.822 138.765 158.636 136.44 159.518C137.698 162.084 138.606 164.111 139.674 166.046C140.612 167.754 146.767 169.107 148.675 167.729C151.393 165.819 154.253 165.99 157.198 166.437C161.747 167.115 166.282 167.868 170.802 168.697C171.866 168.942 172.803 169.57 173.434 170.46C161.954 170.797 150.528 173.706 138.931 170.001C140.023 170.754 141.017 171.771 142.226 172.224C146.215 173.73 148.417 176.449 149.362 180.631C150.307 184.813 151.817 185.646 155.744 185.53C152.271 180.699 152.921 178.212 158.609 175.414C162.708 173.4 167.077 172.353 171.673 172.891C172.679 173.014 174.127 173.54 174.428 174.269C174.729 174.998 174.164 176.535 173.477 177.184C169.648 180.797 165.666 184.256 161.328 188.132C162.051 189.148 162.873 190.089 163.782 190.943C171.759 197.525 180.558 197.182 189.486 193.582C204.212 187.648 213.625 176.32 220.522 162.506C221.467 160.62 220.448 160.057 219.24 159.151C212.674 154.32 206.82 148.815 203.347 141.265C197.874 129.373 198.328 117.88 206.286 107.189C210.306 101.782 215.932 100.814 221.749 104.201C228.701 108.254 231.567 114.898 232.794 122.399C234.15 130.923 231.874 139.017 229.247 146.99C228.045 150.677 226.611 154.285 224.952 157.791C223.921 159.953 224.418 161.061 226.259 162.286C231.843 166.003 236.942 170.393 240.176 176.29C249.993 194.188 243.612 211.946 224.547 218.057C216.466 220.647 207.771 221.369 199.334 222.808C190.087 224.382 180.632 225.104 171.593 227.456C160.972 230.217 152.295 236.641 145.515 245.36C141.22 250.871 139.287 257.221 139.085 264.152C138.643 279.203 143.429 293.128 148.724 306.832C154.928 322.881 161.708 338.673 167.991 353.981C167.432 353.431 166.944 352.814 166.537 352.144C159.696 339.714 153.093 327.149 148.411 313.726C144.693 303.072 140.864 292.381 138.268 281.426C136.728 274.911 136.784 267.79 137.348 261.042C138.428 248.03 146.092 238.998 156.842 232.263C167.856 225.331 180.159 222.71 192.842 221.296C201.678 220.31 210.575 219.655 219.301 218.081C231.61 215.858 241.464 205.277 242.078 194.384C242.507 186.877 240.667 179.97 235.543 174.263C231.757 170.05 227.744 166.039 223.48 161.557ZM222.179 158.82C222.921 157.063 223.633 155.532 224.228 153.958C227.591 145.055 230.622 136.029 230.241 126.404C229.904 117.702 227.431 109.871 218.908 105.468C214.441 103.154 210.931 103.931 207.863 107.85C204.202 112.564 202.202 118.352 202.175 124.316C201.856 139.654 210.551 149.843 222.179 158.82ZM134.36 156.983C138.434 155.538 142.337 154.222 146.141 152.764C147.49 152.31 148.739 151.604 149.823 150.682C150.354 150.198 150.771 149.601 151.043 148.937C151.315 148.272 151.436 147.555 151.396 146.838C151.357 146.121 151.159 145.421 150.815 144.79C150.472 144.159 149.993 143.611 149.412 143.187C147.055 141.424 144.374 140.573 141.349 141.387C135.372 142.967 132.12 150.566 134.36 156.959V156.983ZM93.6227 105.438C94.8499 112.412 108.349 121.205 116.05 120.966C112.417 109.901 104.625 105.493 93.6227 105.413V105.438ZM172.483 175.573L171.968 174.165C167.402 175.322 162.764 176.32 158.303 177.698C156.548 178.237 154.523 179.462 155.271 181.88C155.965 184.146 159.843 185.45 161.782 184.036C165.457 181.341 168.93 178.384 172.483 175.549V175.573ZM149.332 170.062H163.199V169.236C158.53 168.648 153.866 165.868 149.332 170.02V170.062Z" fill="black"/>
<defs>
<linearGradient id="paint0_linear" x1="82.2279" y1="216.947" x2="177.346" y2="93.9387" gradientUnits="userSpaceOnUse">
<stop stop-color="#FF0060"/>
<stop offset="1" stop-color="#F74588"/>
</linearGradient>
<linearGradient id="paint1_linear" x1="198.872" y1="239.996" x2="325.867" y2="315.396" gradientUnits="userSpaceOnUse">
<stop stop-color="#FF0060"/>
<stop offset="1" stop-color="#F74588"/>
</linearGradient>
<linearGradient id="paint2_linear" x1="184.785" y1="89.0363" x2="321.123" y2="100.334" gradientUnits="userSpaceOnUse">
<stop stop-color="#FF0060"/>
<stop offset="1" stop-color="#F74588"/>
</linearGradient>
</defs>
</svg>
