<svg width="1447" height="472" viewBox="0 0 1447 472" fill="none" xmlns="http://www.w3.org/2000/svg">
<g filter="url(#filter0_d)">
<rect x="6" y="6" width="200" height="60" rx="30" fill="white"/>
<path d="M83.85 41.917H88.619V43H82.52V29.719H83.85V41.917ZM95.2081 43.152C94.2327 43.152 93.3524 42.9367 92.5671 42.506C91.7944 42.0627 91.1801 41.442 90.7241 40.644C90.2807 39.8333 90.0591 38.8897 90.0591 37.813C90.0591 36.7363 90.2871 35.799 90.7431 35.001C91.1991 34.1903 91.8197 33.5697 92.6051 33.139C93.3904 32.6957 94.2707 32.474 95.2461 32.474C96.2214 32.474 97.1017 32.6957 97.8871 33.139C98.6851 33.5697 99.3057 34.1903 99.7491 35.001C100.205 35.799 100.433 36.7363 100.433 37.813C100.433 38.877 100.205 39.8143 99.7491 40.625C99.2931 41.4357 98.6661 42.0627 97.8681 42.506C97.0701 42.9367 96.1834 43.152 95.2081 43.152ZM95.2081 41.993C95.8921 41.993 96.5254 41.841 97.1081 41.537C97.6907 41.2203 98.1594 40.7517 98.5141 40.131C98.8814 39.4977 99.0651 38.725 99.0651 37.813C99.0651 36.901 98.8877 36.1347 98.5331 35.514C98.1784 34.8807 97.7097 34.412 97.1271 34.108C96.5444 33.7913 95.9111 33.633 95.2271 33.633C94.5431 33.633 93.9097 33.7913 93.3271 34.108C92.7444 34.412 92.2757 34.8807 91.9211 35.514C91.5791 36.1347 91.4081 36.901 91.4081 37.813C91.4081 38.725 91.5791 39.4977 91.9211 40.131C92.2757 40.7517 92.7381 41.2203 93.3081 41.537C93.8907 41.841 94.5241 41.993 95.2081 41.993ZM107.358 32.474C108.334 32.474 109.182 32.702 109.904 33.158C110.626 33.614 111.146 34.1903 111.462 34.887V32.626H112.792V43.266C112.792 44.216 112.583 45.0583 112.165 45.793C111.76 46.5277 111.19 47.0913 110.455 47.484C109.721 47.8893 108.885 48.092 107.947 48.092C106.617 48.092 105.509 47.7753 104.622 47.142C103.748 46.5087 103.204 45.6473 102.988 44.558H104.299C104.527 45.28 104.958 45.8563 105.591 46.287C106.237 46.7177 107.023 46.933 107.947 46.933C108.619 46.933 109.22 46.7873 109.752 46.496C110.284 46.2173 110.702 45.7993 111.007 45.242C111.31 44.6847 111.462 44.026 111.462 43.266V40.701C111.133 41.4103 110.607 41.9993 109.885 42.468C109.176 42.924 108.334 43.152 107.358 43.152C106.408 43.152 105.553 42.9303 104.793 42.487C104.046 42.0437 103.457 41.4167 103.026 40.606C102.608 39.7953 102.399 38.858 102.399 37.794C102.399 36.73 102.608 35.799 103.026 35.001C103.457 34.1903 104.046 33.5697 104.793 33.139C105.553 32.6957 106.408 32.474 107.358 32.474ZM111.462 37.813C111.462 36.977 111.291 36.2423 110.949 35.609C110.607 34.9757 110.139 34.488 109.543 34.146C108.961 33.804 108.315 33.633 107.605 33.633C106.871 33.633 106.212 33.7977 105.629 34.127C105.047 34.4563 104.584 34.9377 104.242 35.571C103.913 36.1917 103.748 36.9327 103.748 37.794C103.748 38.6427 103.913 39.39 104.242 40.036C104.584 40.6693 105.047 41.157 105.629 41.499C106.212 41.8283 106.871 41.993 107.605 41.993C108.315 41.993 108.961 41.822 109.543 41.48C110.139 41.138 110.607 40.6503 110.949 40.017C111.291 39.3837 111.462 38.649 111.462 37.813ZM116.644 30.669C116.378 30.669 116.15 30.574 115.96 30.384C115.77 30.194 115.675 29.9597 115.675 29.681C115.675 29.4023 115.77 29.1743 115.96 28.997C116.15 28.807 116.378 28.712 116.644 28.712C116.91 28.712 117.138 28.807 117.328 28.997C117.518 29.1743 117.613 29.4023 117.613 29.681C117.613 29.9597 117.518 30.194 117.328 30.384C117.138 30.574 116.91 30.669 116.644 30.669ZM117.309 32.626V43H115.979V32.626H117.309ZM125.335 32.436C126.576 32.436 127.589 32.8223 128.375 33.595C129.16 34.355 129.553 35.4633 129.553 36.92V43H128.242V37.072C128.242 35.9447 127.957 35.0833 127.387 34.488C126.829 33.8927 126.063 33.595 125.088 33.595C124.087 33.595 123.289 33.9117 122.694 34.545C122.098 35.1783 121.801 36.1093 121.801 37.338V43H120.471V32.626H121.801V34.393C122.13 33.7597 122.605 33.2783 123.226 32.949C123.846 32.607 124.549 32.436 125.335 32.436Z" fill="black"/>
<rect x="6" y="86" width="200" height="60" rx="30" fill="white"/>
<path d="M83.85 121.917H88.619V123H82.52V109.719H83.85V121.917ZM95.2081 123.152C94.2327 123.152 93.3524 122.937 92.5671 122.506C91.7944 122.063 91.1801 121.442 90.7241 120.644C90.2807 119.833 90.0591 118.89 90.0591 117.813C90.0591 116.736 90.2871 115.799 90.7431 115.001C91.1991 114.19 91.8197 113.57 92.6051 113.139C93.3904 112.696 94.2707 112.474 95.2461 112.474C96.2214 112.474 97.1017 112.696 97.8871 113.139C98.6851 113.57 99.3057 114.19 99.7491 115.001C100.205 115.799 100.433 116.736 100.433 117.813C100.433 118.877 100.205 119.814 99.7491 120.625C99.2931 121.436 98.6661 122.063 97.8681 122.506C97.0701 122.937 96.1834 123.152 95.2081 123.152ZM95.2081 121.993C95.8921 121.993 96.5254 121.841 97.1081 121.537C97.6907 121.22 98.1594 120.752 98.5141 120.131C98.8814 119.498 99.0651 118.725 99.0651 117.813C99.0651 116.901 98.8877 116.135 98.5331 115.514C98.1784 114.881 97.7097 114.412 97.1271 114.108C96.5444 113.791 95.9111 113.633 95.2271 113.633C94.5431 113.633 93.9097 113.791 93.3271 114.108C92.7444 114.412 92.2757 114.881 91.9211 115.514C91.5791 116.135 91.4081 116.901 91.4081 117.813C91.4081 118.725 91.5791 119.498 91.9211 120.131C92.2757 120.752 92.7381 121.22 93.3081 121.537C93.8907 121.841 94.5241 121.993 95.2081 121.993ZM107.358 112.474C108.334 112.474 109.182 112.702 109.904 113.158C110.626 113.614 111.146 114.19 111.462 114.887V112.626H112.792V123.266C112.792 124.216 112.583 125.058 112.165 125.793C111.76 126.528 111.19 127.091 110.455 127.484C109.721 127.889 108.885 128.092 107.947 128.092C106.617 128.092 105.509 127.775 104.622 127.142C103.748 126.509 103.204 125.647 102.988 124.558H104.299C104.527 125.28 104.958 125.856 105.591 126.287C106.237 126.718 107.023 126.933 107.947 126.933C108.619 126.933 109.22 126.787 109.752 126.496C110.284 126.217 110.702 125.799 111.007 125.242C111.31 124.685 111.462 124.026 111.462 123.266V120.701C111.133 121.41 110.607 121.999 109.885 122.468C109.176 122.924 108.334 123.152 107.358 123.152C106.408 123.152 105.553 122.93 104.793 122.487C104.046 122.044 103.457 121.417 103.026 120.606C102.608 119.795 102.399 118.858 102.399 117.794C102.399 116.73 102.608 115.799 103.026 115.001C103.457 114.19 104.046 113.57 104.793 113.139C105.553 112.696 106.408 112.474 107.358 112.474ZM111.462 117.813C111.462 116.977 111.291 116.242 110.949 115.609C110.607 114.976 110.139 114.488 109.543 114.146C108.961 113.804 108.315 113.633 107.605 113.633C106.871 113.633 106.212 113.798 105.629 114.127C105.047 114.456 104.584 114.938 104.242 115.571C103.913 116.192 103.748 116.933 103.748 117.794C103.748 118.643 103.913 119.39 104.242 120.036C104.584 120.669 105.047 121.157 105.629 121.499C106.212 121.828 106.871 121.993 107.605 121.993C108.315 121.993 108.961 121.822 109.543 121.48C110.139 121.138 110.607 120.65 110.949 120.017C111.291 119.384 111.462 118.649 111.462 117.813ZM116.644 110.669C116.378 110.669 116.15 110.574 115.96 110.384C115.77 110.194 115.675 109.96 115.675 109.681C115.675 109.402 115.77 109.174 115.96 108.997C116.15 108.807 116.378 108.712 116.644 108.712C116.91 108.712 117.138 108.807 117.328 108.997C117.518 109.174 117.613 109.402 117.613 109.681C117.613 109.96 117.518 110.194 117.328 110.384C117.138 110.574 116.91 110.669 116.644 110.669ZM117.309 112.626V123H115.979V112.626H117.309ZM125.335 112.436C126.576 112.436 127.589 112.822 128.375 113.595C129.16 114.355 129.553 115.463 129.553 116.92V123H128.242V117.072C128.242 115.945 127.957 115.083 127.387 114.488C126.829 113.893 126.063 113.595 125.088 113.595C124.087 113.595 123.289 113.912 122.694 114.545C122.098 115.178 121.801 116.109 121.801 117.338V123H120.471V112.626H121.801V114.393C122.13 113.76 122.605 113.278 123.226 112.949C123.846 112.607 124.549 112.436 125.335 112.436Z" fill="black"/>
<rect x="6" y="166" width="200" height="60" rx="30" fill="white"/>
<path d="M83.85 201.917H88.619V203H82.52V189.719H83.85V201.917ZM95.2081 203.152C94.2327 203.152 93.3524 202.937 92.5671 202.506C91.7944 202.063 91.1801 201.442 90.7241 200.644C90.2807 199.833 90.0591 198.89 90.0591 197.813C90.0591 196.736 90.2871 195.799 90.7431 195.001C91.1991 194.19 91.8197 193.57 92.6051 193.139C93.3904 192.696 94.2707 192.474 95.2461 192.474C96.2214 192.474 97.1017 192.696 97.8871 193.139C98.6851 193.57 99.3057 194.19 99.7491 195.001C100.205 195.799 100.433 196.736 100.433 197.813C100.433 198.877 100.205 199.814 99.7491 200.625C99.2931 201.436 98.6661 202.063 97.8681 202.506C97.0701 202.937 96.1834 203.152 95.2081 203.152ZM95.2081 201.993C95.8921 201.993 96.5254 201.841 97.1081 201.537C97.6907 201.22 98.1594 200.752 98.5141 200.131C98.8814 199.498 99.0651 198.725 99.0651 197.813C99.0651 196.901 98.8877 196.135 98.5331 195.514C98.1784 194.881 97.7097 194.412 97.1271 194.108C96.5444 193.791 95.9111 193.633 95.2271 193.633C94.5431 193.633 93.9097 193.791 93.3271 194.108C92.7444 194.412 92.2757 194.881 91.9211 195.514C91.5791 196.135 91.4081 196.901 91.4081 197.813C91.4081 198.725 91.5791 199.498 91.9211 200.131C92.2757 200.752 92.7381 201.22 93.3081 201.537C93.8907 201.841 94.5241 201.993 95.2081 201.993ZM107.358 192.474C108.334 192.474 109.182 192.702 109.904 193.158C110.626 193.614 111.146 194.19 111.462 194.887V192.626H112.792V203.266C112.792 204.216 112.583 205.058 112.165 205.793C111.76 206.528 111.19 207.091 110.455 207.484C109.721 207.889 108.885 208.092 107.947 208.092C106.617 208.092 105.509 207.775 104.622 207.142C103.748 206.509 103.204 205.647 102.988 204.558H104.299C104.527 205.28 104.958 205.856 105.591 206.287C106.237 206.718 107.023 206.933 107.947 206.933C108.619 206.933 109.22 206.787 109.752 206.496C110.284 206.217 110.702 205.799 111.007 205.242C111.31 204.685 111.462 204.026 111.462 203.266V200.701C111.133 201.41 110.607 201.999 109.885 202.468C109.176 202.924 108.334 203.152 107.358 203.152C106.408 203.152 105.553 202.93 104.793 202.487C104.046 202.044 103.457 201.417 103.026 200.606C102.608 199.795 102.399 198.858 102.399 197.794C102.399 196.73 102.608 195.799 103.026 195.001C103.457 194.19 104.046 193.57 104.793 193.139C105.553 192.696 106.408 192.474 107.358 192.474ZM111.462 197.813C111.462 196.977 111.291 196.242 110.949 195.609C110.607 194.976 110.139 194.488 109.543 194.146C108.961 193.804 108.315 193.633 107.605 193.633C106.871 193.633 106.212 193.798 105.629 194.127C105.047 194.456 104.584 194.938 104.242 195.571C103.913 196.192 103.748 196.933 103.748 197.794C103.748 198.643 103.913 199.39 104.242 200.036C104.584 200.669 105.047 201.157 105.629 201.499C106.212 201.828 106.871 201.993 107.605 201.993C108.315 201.993 108.961 201.822 109.543 201.48C110.139 201.138 110.607 200.65 110.949 200.017C111.291 199.384 111.462 198.649 111.462 197.813ZM116.644 190.669C116.378 190.669 116.15 190.574 115.96 190.384C115.77 190.194 115.675 189.96 115.675 189.681C115.675 189.402 115.77 189.174 115.96 188.997C116.15 188.807 116.378 188.712 116.644 188.712C116.91 188.712 117.138 188.807 117.328 188.997C117.518 189.174 117.613 189.402 117.613 189.681C117.613 189.96 117.518 190.194 117.328 190.384C117.138 190.574 116.91 190.669 116.644 190.669ZM117.309 192.626V203H115.979V192.626H117.309ZM125.335 192.436C126.576 192.436 127.589 192.822 128.375 193.595C129.16 194.355 129.553 195.463 129.553 196.92V203H128.242V197.072C128.242 195.945 127.957 195.083 127.387 194.488C126.829 193.893 126.063 193.595 125.088 193.595C124.087 193.595 123.289 193.912 122.694 194.545C122.098 195.178 121.801 196.109 121.801 197.338V203H120.471V192.626H121.801V194.393C122.13 193.76 122.605 193.278 123.226 192.949C123.846 192.607 124.549 192.436 125.335 192.436Z" fill="black"/>
<rect x="6" y="246" width="200" height="60" rx="30" fill="white"/>
<path d="M83.85 281.917H88.619V283H82.52V269.719H83.85V281.917ZM95.2081 283.152C94.2327 283.152 93.3524 282.937 92.5671 282.506C91.7944 282.063 91.1801 281.442 90.7241 280.644C90.2807 279.833 90.0591 278.89 90.0591 277.813C90.0591 276.736 90.2871 275.799 90.7431 275.001C91.1991 274.19 91.8197 273.57 92.6051 273.139C93.3904 272.696 94.2707 272.474 95.2461 272.474C96.2214 272.474 97.1017 272.696 97.8871 273.139C98.6851 273.57 99.3057 274.19 99.7491 275.001C100.205 275.799 100.433 276.736 100.433 277.813C100.433 278.877 100.205 279.814 99.7491 280.625C99.2931 281.436 98.6661 282.063 97.8681 282.506C97.0701 282.937 96.1834 283.152 95.2081 283.152ZM95.2081 281.993C95.8921 281.993 96.5254 281.841 97.1081 281.537C97.6907 281.22 98.1594 280.752 98.5141 280.131C98.8814 279.498 99.0651 278.725 99.0651 277.813C99.0651 276.901 98.8877 276.135 98.5331 275.514C98.1784 274.881 97.7097 274.412 97.1271 274.108C96.5444 273.791 95.9111 273.633 95.2271 273.633C94.5431 273.633 93.9097 273.791 93.3271 274.108C92.7444 274.412 92.2757 274.881 91.9211 275.514C91.5791 276.135 91.4081 276.901 91.4081 277.813C91.4081 278.725 91.5791 279.498 91.9211 280.131C92.2757 280.752 92.7381 281.22 93.3081 281.537C93.8907 281.841 94.5241 281.993 95.2081 281.993ZM107.358 272.474C108.334 272.474 109.182 272.702 109.904 273.158C110.626 273.614 111.146 274.19 111.462 274.887V272.626H112.792V283.266C112.792 284.216 112.583 285.058 112.165 285.793C111.76 286.528 111.19 287.091 110.455 287.484C109.721 287.889 108.885 288.092 107.947 288.092C106.617 288.092 105.509 287.775 104.622 287.142C103.748 286.509 103.204 285.647 102.988 284.558H104.299C104.527 285.28 104.958 285.856 105.591 286.287C106.237 286.718 107.023 286.933 107.947 286.933C108.619 286.933 109.22 286.787 109.752 286.496C110.284 286.217 110.702 285.799 111.007 285.242C111.31 284.685 111.462 284.026 111.462 283.266V280.701C111.133 281.41 110.607 281.999 109.885 282.468C109.176 282.924 108.334 283.152 107.358 283.152C106.408 283.152 105.553 282.93 104.793 282.487C104.046 282.044 103.457 281.417 103.026 280.606C102.608 279.795 102.399 278.858 102.399 277.794C102.399 276.73 102.608 275.799 103.026 275.001C103.457 274.19 104.046 273.57 104.793 273.139C105.553 272.696 106.408 272.474 107.358 272.474ZM111.462 277.813C111.462 276.977 111.291 276.242 110.949 275.609C110.607 274.976 110.139 274.488 109.543 274.146C108.961 273.804 108.315 273.633 107.605 273.633C106.871 273.633 106.212 273.798 105.629 274.127C105.047 274.456 104.584 274.938 104.242 275.571C103.913 276.192 103.748 276.933 103.748 277.794C103.748 278.643 103.913 279.39 104.242 280.036C104.584 280.669 105.047 281.157 105.629 281.499C106.212 281.828 106.871 281.993 107.605 281.993C108.315 281.993 108.961 281.822 109.543 281.48C110.139 281.138 110.607 280.65 110.949 280.017C111.291 279.384 111.462 278.649 111.462 277.813ZM116.644 270.669C116.378 270.669 116.15 270.574 115.96 270.384C115.77 270.194 115.675 269.96 115.675 269.681C115.675 269.402 115.77 269.174 115.96 268.997C116.15 268.807 116.378 268.712 116.644 268.712C116.91 268.712 117.138 268.807 117.328 268.997C117.518 269.174 117.613 269.402 117.613 269.681C117.613 269.96 117.518 270.194 117.328 270.384C117.138 270.574 116.91 270.669 116.644 270.669ZM117.309 272.626V283H115.979V272.626H117.309ZM125.335 272.436C126.576 272.436 127.589 272.822 128.375 273.595C129.16 274.355 129.553 275.463 129.553 276.92V283H128.242V277.072C128.242 275.945 127.957 275.083 127.387 274.488C126.829 273.893 126.063 273.595 125.088 273.595C124.087 273.595 123.289 273.912 122.694 274.545C122.098 275.178 121.801 276.109 121.801 277.338V283H120.471V272.626H121.801V274.393C122.13 273.76 122.605 273.278 123.226 272.949C123.846 272.607 124.549 272.436 125.335 272.436Z" fill="black"/>
<rect x="747" y="21" width="200" height="60" rx="30" fill="white"/>
<path d="M824.85 56.917H829.619V58H823.52V44.719H824.85V56.917ZM836.208 58.152C835.233 58.152 834.352 57.9367 833.567 57.506C832.794 57.0627 832.18 56.442 831.724 55.644C831.281 54.8333 831.059 53.8897 831.059 52.813C831.059 51.7363 831.287 50.799 831.743 50.001C832.199 49.1903 832.82 48.5697 833.605 48.139C834.39 47.6957 835.271 47.474 836.246 47.474C837.221 47.474 838.102 47.6957 838.887 48.139C839.685 48.5697 840.306 49.1903 840.749 50.001C841.205 50.799 841.433 51.7363 841.433 52.813C841.433 53.877 841.205 54.8143 840.749 55.625C840.293 56.4357 839.666 57.0627 838.868 57.506C838.07 57.9367 837.183 58.152 836.208 58.152ZM836.208 56.993C836.892 56.993 837.525 56.841 838.108 56.537C838.691 56.2203 839.159 55.7517 839.514 55.131C839.881 54.4977 840.065 53.725 840.065 52.813C840.065 51.901 839.888 51.1347 839.533 50.514C839.178 49.8807 838.71 49.412 838.127 49.108C837.544 48.7913 836.911 48.633 836.227 48.633C835.543 48.633 834.91 48.7913 834.327 49.108C833.744 49.412 833.276 49.8807 832.921 50.514C832.579 51.1347 832.408 51.901 832.408 52.813C832.408 53.725 832.579 54.4977 832.921 55.131C833.276 55.7517 833.738 56.2203 834.308 56.537C834.891 56.841 835.524 56.993 836.208 56.993ZM848.358 47.474C849.334 47.474 850.182 47.702 850.904 48.158C851.626 48.614 852.146 49.1903 852.462 49.887V47.626H853.792V58.266C853.792 59.216 853.583 60.0583 853.165 60.793C852.76 61.5277 852.19 62.0913 851.455 62.484C850.721 62.8893 849.885 63.092 848.947 63.092C847.617 63.092 846.509 62.7753 845.622 62.142C844.748 61.5087 844.204 60.6473 843.988 59.558H845.299C845.527 60.28 845.958 60.8563 846.591 61.287C847.237 61.7177 848.023 61.933 848.947 61.933C849.619 61.933 850.22 61.7873 850.752 61.496C851.284 61.2173 851.702 60.7993 852.007 60.242C852.31 59.6847 852.462 59.026 852.462 58.266V55.701C852.133 56.4103 851.607 56.9993 850.885 57.468C850.176 57.924 849.334 58.152 848.358 58.152C847.408 58.152 846.553 57.9303 845.793 57.487C845.046 57.0437 844.457 56.4167 844.026 55.606C843.608 54.7953 843.399 53.858 843.399 52.794C843.399 51.73 843.608 50.799 844.026 50.001C844.457 49.1903 845.046 48.5697 845.793 48.139C846.553 47.6957 847.408 47.474 848.358 47.474ZM852.462 52.813C852.462 51.977 852.291 51.2423 851.949 50.609C851.607 49.9757 851.139 49.488 850.543 49.146C849.961 48.804 849.315 48.633 848.605 48.633C847.871 48.633 847.212 48.7977 846.629 49.127C846.047 49.4563 845.584 49.9377 845.242 50.571C844.913 51.1917 844.748 51.9327 844.748 52.794C844.748 53.6427 844.913 54.39 845.242 55.036C845.584 55.6693 846.047 56.157 846.629 56.499C847.212 56.8283 847.871 56.993 848.605 56.993C849.315 56.993 849.961 56.822 850.543 56.48C851.139 56.138 851.607 55.6503 851.949 55.017C852.291 54.3837 852.462 53.649 852.462 52.813ZM857.644 45.669C857.378 45.669 857.15 45.574 856.96 45.384C856.77 45.194 856.675 44.9597 856.675 44.681C856.675 44.4023 856.77 44.1743 856.96 43.997C857.15 43.807 857.378 43.712 857.644 43.712C857.91 43.712 858.138 43.807 858.328 43.997C858.518 44.1743 858.613 44.4023 858.613 44.681C858.613 44.9597 858.518 45.194 858.328 45.384C858.138 45.574 857.91 45.669 857.644 45.669ZM858.309 47.626V58H856.979V47.626H858.309ZM866.335 47.436C867.576 47.436 868.589 47.8223 869.375 48.595C870.16 49.355 870.553 50.4633 870.553 51.92V58H869.242V52.072C869.242 50.9447 868.957 50.0833 868.387 49.488C867.829 48.8927 867.063 48.595 866.088 48.595C865.087 48.595 864.289 48.9117 863.694 49.545C863.098 50.1783 862.801 51.1093 862.801 52.338V58H861.471V47.626H862.801V49.393C863.13 48.7597 863.605 48.2783 864.226 47.949C864.846 47.607 865.549 47.436 866.335 47.436Z" fill="black"/>
<rect x="747" y="101" width="200" height="60" rx="30" fill="white"/>
<path d="M824.85 136.917H829.619V138H823.52V124.719H824.85V136.917ZM836.208 138.152C835.233 138.152 834.352 137.937 833.567 137.506C832.794 137.063 832.18 136.442 831.724 135.644C831.281 134.833 831.059 133.89 831.059 132.813C831.059 131.736 831.287 130.799 831.743 130.001C832.199 129.19 832.82 128.57 833.605 128.139C834.39 127.696 835.271 127.474 836.246 127.474C837.221 127.474 838.102 127.696 838.887 128.139C839.685 128.57 840.306 129.19 840.749 130.001C841.205 130.799 841.433 131.736 841.433 132.813C841.433 133.877 841.205 134.814 840.749 135.625C840.293 136.436 839.666 137.063 838.868 137.506C838.07 137.937 837.183 138.152 836.208 138.152ZM836.208 136.993C836.892 136.993 837.525 136.841 838.108 136.537C838.691 136.22 839.159 135.752 839.514 135.131C839.881 134.498 840.065 133.725 840.065 132.813C840.065 131.901 839.888 131.135 839.533 130.514C839.178 129.881 838.71 129.412 838.127 129.108C837.544 128.791 836.911 128.633 836.227 128.633C835.543 128.633 834.91 128.791 834.327 129.108C833.744 129.412 833.276 129.881 832.921 130.514C832.579 131.135 832.408 131.901 832.408 132.813C832.408 133.725 832.579 134.498 832.921 135.131C833.276 135.752 833.738 136.22 834.308 136.537C834.891 136.841 835.524 136.993 836.208 136.993ZM848.358 127.474C849.334 127.474 850.182 127.702 850.904 128.158C851.626 128.614 852.146 129.19 852.462 129.887V127.626H853.792V138.266C853.792 139.216 853.583 140.058 853.165 140.793C852.76 141.528 852.19 142.091 851.455 142.484C850.721 142.889 849.885 143.092 848.947 143.092C847.617 143.092 846.509 142.775 845.622 142.142C844.748 141.509 844.204 140.647 843.988 139.558H845.299C845.527 140.28 845.958 140.856 846.591 141.287C847.237 141.718 848.023 141.933 848.947 141.933C849.619 141.933 850.22 141.787 850.752 141.496C851.284 141.217 851.702 140.799 852.007 140.242C852.31 139.685 852.462 139.026 852.462 138.266V135.701C852.133 136.41 851.607 136.999 850.885 137.468C850.176 137.924 849.334 138.152 848.358 138.152C847.408 138.152 846.553 137.93 845.793 137.487C845.046 137.044 844.457 136.417 844.026 135.606C843.608 134.795 843.399 133.858 843.399 132.794C843.399 131.73 843.608 130.799 844.026 130.001C844.457 129.19 845.046 128.57 845.793 128.139C846.553 127.696 847.408 127.474 848.358 127.474ZM852.462 132.813C852.462 131.977 852.291 131.242 851.949 130.609C851.607 129.976 851.139 129.488 850.543 129.146C849.961 128.804 849.315 128.633 848.605 128.633C847.871 128.633 847.212 128.798 846.629 129.127C846.047 129.456 845.584 129.938 845.242 130.571C844.913 131.192 844.748 131.933 844.748 132.794C844.748 133.643 844.913 134.39 845.242 135.036C845.584 135.669 846.047 136.157 846.629 136.499C847.212 136.828 847.871 136.993 848.605 136.993C849.315 136.993 849.961 136.822 850.543 136.48C851.139 136.138 851.607 135.65 851.949 135.017C852.291 134.384 852.462 133.649 852.462 132.813ZM857.644 125.669C857.378 125.669 857.15 125.574 856.96 125.384C856.77 125.194 856.675 124.96 856.675 124.681C856.675 124.402 856.77 124.174 856.96 123.997C857.15 123.807 857.378 123.712 857.644 123.712C857.91 123.712 858.138 123.807 858.328 123.997C858.518 124.174 858.613 124.402 858.613 124.681C858.613 124.96 858.518 125.194 858.328 125.384C858.138 125.574 857.91 125.669 857.644 125.669ZM858.309 127.626V138H856.979V127.626H858.309ZM866.335 127.436C867.576 127.436 868.589 127.822 869.375 128.595C870.16 129.355 870.553 130.463 870.553 131.92V138H869.242V132.072C869.242 130.945 868.957 130.083 868.387 129.488C867.829 128.893 867.063 128.595 866.088 128.595C865.087 128.595 864.289 128.912 863.694 129.545C863.098 130.178 862.801 131.109 862.801 132.338V138H861.471V127.626H862.801V129.393C863.13 128.76 863.605 128.278 864.226 127.949C864.846 127.607 865.549 127.436 866.335 127.436Z" fill="black"/>
<rect x="747" y="181" width="200" height="60" rx="30" fill="white"/>
<path d="M824.85 216.917H829.619V218H823.52V204.719H824.85V216.917ZM836.208 218.152C835.233 218.152 834.352 217.937 833.567 217.506C832.794 217.063 832.18 216.442 831.724 215.644C831.281 214.833 831.059 213.89 831.059 212.813C831.059 211.736 831.287 210.799 831.743 210.001C832.199 209.19 832.82 208.57 833.605 208.139C834.39 207.696 835.271 207.474 836.246 207.474C837.221 207.474 838.102 207.696 838.887 208.139C839.685 208.57 840.306 209.19 840.749 210.001C841.205 210.799 841.433 211.736 841.433 212.813C841.433 213.877 841.205 214.814 840.749 215.625C840.293 216.436 839.666 217.063 838.868 217.506C838.07 217.937 837.183 218.152 836.208 218.152ZM836.208 216.993C836.892 216.993 837.525 216.841 838.108 216.537C838.691 216.22 839.159 215.752 839.514 215.131C839.881 214.498 840.065 213.725 840.065 212.813C840.065 211.901 839.888 211.135 839.533 210.514C839.178 209.881 838.71 209.412 838.127 209.108C837.544 208.791 836.911 208.633 836.227 208.633C835.543 208.633 834.91 208.791 834.327 209.108C833.744 209.412 833.276 209.881 832.921 210.514C832.579 211.135 832.408 211.901 832.408 212.813C832.408 213.725 832.579 214.498 832.921 215.131C833.276 215.752 833.738 216.22 834.308 216.537C834.891 216.841 835.524 216.993 836.208 216.993ZM848.358 207.474C849.334 207.474 850.182 207.702 850.904 208.158C851.626 208.614 852.146 209.19 852.462 209.887V207.626H853.792V218.266C853.792 219.216 853.583 220.058 853.165 220.793C852.76 221.528 852.19 222.091 851.455 222.484C850.721 222.889 849.885 223.092 848.947 223.092C847.617 223.092 846.509 222.775 845.622 222.142C844.748 221.509 844.204 220.647 843.988 219.558H845.299C845.527 220.28 845.958 220.856 846.591 221.287C847.237 221.718 848.023 221.933 848.947 221.933C849.619 221.933 850.22 221.787 850.752 221.496C851.284 221.217 851.702 220.799 852.007 220.242C852.31 219.685 852.462 219.026 852.462 218.266V215.701C852.133 216.41 851.607 216.999 850.885 217.468C850.176 217.924 849.334 218.152 848.358 218.152C847.408 218.152 846.553 217.93 845.793 217.487C845.046 217.044 844.457 216.417 844.026 215.606C843.608 214.795 843.399 213.858 843.399 212.794C843.399 211.73 843.608 210.799 844.026 210.001C844.457 209.19 845.046 208.57 845.793 208.139C846.553 207.696 847.408 207.474 848.358 207.474ZM852.462 212.813C852.462 211.977 852.291 211.242 851.949 210.609C851.607 209.976 851.139 209.488 850.543 209.146C849.961 208.804 849.315 208.633 848.605 208.633C847.871 208.633 847.212 208.798 846.629 209.127C846.047 209.456 845.584 209.938 845.242 210.571C844.913 211.192 844.748 211.933 844.748 212.794C844.748 213.643 844.913 214.39 845.242 215.036C845.584 215.669 846.047 216.157 846.629 216.499C847.212 216.828 847.871 216.993 848.605 216.993C849.315 216.993 849.961 216.822 850.543 216.48C851.139 216.138 851.607 215.65 851.949 215.017C852.291 214.384 852.462 213.649 852.462 212.813ZM857.644 205.669C857.378 205.669 857.15 205.574 856.96 205.384C856.77 205.194 856.675 204.96 856.675 204.681C856.675 204.402 856.77 204.174 856.96 203.997C857.15 203.807 857.378 203.712 857.644 203.712C857.91 203.712 858.138 203.807 858.328 203.997C858.518 204.174 858.613 204.402 858.613 204.681C858.613 204.96 858.518 205.194 858.328 205.384C858.138 205.574 857.91 205.669 857.644 205.669ZM858.309 207.626V218H856.979V207.626H858.309ZM866.335 207.436C867.576 207.436 868.589 207.822 869.375 208.595C870.16 209.355 870.553 210.463 870.553 211.92V218H869.242V212.072C869.242 210.945 868.957 210.083 868.387 209.488C867.829 208.893 867.063 208.595 866.088 208.595C865.087 208.595 864.289 208.912 863.694 209.545C863.098 210.178 862.801 211.109 862.801 212.338V218H861.471V207.626H862.801V209.393C863.13 208.76 863.605 208.278 864.226 207.949C864.846 207.607 865.549 207.436 866.335 207.436Z" fill="black"/>
<rect x="747" y="341" width="200" height="60" rx="30" fill="white"/>
<path d="M824.85 376.917H829.619V378H823.52V364.719H824.85V376.917ZM836.208 378.152C835.233 378.152 834.352 377.937 833.567 377.506C832.794 377.063 832.18 376.442 831.724 375.644C831.281 374.833 831.059 373.89 831.059 372.813C831.059 371.736 831.287 370.799 831.743 370.001C832.199 369.19 832.82 368.57 833.605 368.139C834.39 367.696 835.271 367.474 836.246 367.474C837.221 367.474 838.102 367.696 838.887 368.139C839.685 368.57 840.306 369.19 840.749 370.001C841.205 370.799 841.433 371.736 841.433 372.813C841.433 373.877 841.205 374.814 840.749 375.625C840.293 376.436 839.666 377.063 838.868 377.506C838.07 377.937 837.183 378.152 836.208 378.152ZM836.208 376.993C836.892 376.993 837.525 376.841 838.108 376.537C838.691 376.22 839.159 375.752 839.514 375.131C839.881 374.498 840.065 373.725 840.065 372.813C840.065 371.901 839.888 371.135 839.533 370.514C839.178 369.881 838.71 369.412 838.127 369.108C837.544 368.791 836.911 368.633 836.227 368.633C835.543 368.633 834.91 368.791 834.327 369.108C833.744 369.412 833.276 369.881 832.921 370.514C832.579 371.135 832.408 371.901 832.408 372.813C832.408 373.725 832.579 374.498 832.921 375.131C833.276 375.752 833.738 376.22 834.308 376.537C834.891 376.841 835.524 376.993 836.208 376.993ZM848.358 367.474C849.334 367.474 850.182 367.702 850.904 368.158C851.626 368.614 852.146 369.19 852.462 369.887V367.626H853.792V378.266C853.792 379.216 853.583 380.058 853.165 380.793C852.76 381.528 852.19 382.091 851.455 382.484C850.721 382.889 849.885 383.092 848.947 383.092C847.617 383.092 846.509 382.775 845.622 382.142C844.748 381.509 844.204 380.647 843.988 379.558H845.299C845.527 380.28 845.958 380.856 846.591 381.287C847.237 381.718 848.023 381.933 848.947 381.933C849.619 381.933 850.22 381.787 850.752 381.496C851.284 381.217 851.702 380.799 852.007 380.242C852.31 379.685 852.462 379.026 852.462 378.266V375.701C852.133 376.41 851.607 376.999 850.885 377.468C850.176 377.924 849.334 378.152 848.358 378.152C847.408 378.152 846.553 377.93 845.793 377.487C845.046 377.044 844.457 376.417 844.026 375.606C843.608 374.795 843.399 373.858 843.399 372.794C843.399 371.73 843.608 370.799 844.026 370.001C844.457 369.19 845.046 368.57 845.793 368.139C846.553 367.696 847.408 367.474 848.358 367.474ZM852.462 372.813C852.462 371.977 852.291 371.242 851.949 370.609C851.607 369.976 851.139 369.488 850.543 369.146C849.961 368.804 849.315 368.633 848.605 368.633C847.871 368.633 847.212 368.798 846.629 369.127C846.047 369.456 845.584 369.938 845.242 370.571C844.913 371.192 844.748 371.933 844.748 372.794C844.748 373.643 844.913 374.39 845.242 375.036C845.584 375.669 846.047 376.157 846.629 376.499C847.212 376.828 847.871 376.993 848.605 376.993C849.315 376.993 849.961 376.822 850.543 376.48C851.139 376.138 851.607 375.65 851.949 375.017C852.291 374.384 852.462 373.649 852.462 372.813ZM857.644 365.669C857.378 365.669 857.15 365.574 856.96 365.384C856.77 365.194 856.675 364.96 856.675 364.681C856.675 364.402 856.77 364.174 856.96 363.997C857.15 363.807 857.378 363.712 857.644 363.712C857.91 363.712 858.138 363.807 858.328 363.997C858.518 364.174 858.613 364.402 858.613 364.681C858.613 364.96 858.518 365.194 858.328 365.384C858.138 365.574 857.91 365.669 857.644 365.669ZM858.309 367.626V378H856.979V367.626H858.309ZM866.335 367.436C867.576 367.436 868.589 367.822 869.375 368.595C870.16 369.355 870.553 370.463 870.553 371.92V378H869.242V372.072C869.242 370.945 868.957 370.083 868.387 369.488C867.829 368.893 867.063 368.595 866.088 368.595C865.087 368.595 864.289 368.912 863.694 369.545C863.098 370.178 862.801 371.109 862.801 372.338V378H861.471V367.626H862.801V369.393C863.13 368.76 863.605 368.278 864.226 367.949C864.846 367.607 865.549 367.436 866.335 367.436Z" fill="black"/>
<rect x="747" y="261" width="200" height="60" rx="30" fill="white"/>
<path d="M824.85 296.917H829.619V298H823.52V284.719H824.85V296.917ZM836.208 298.152C835.233 298.152 834.352 297.937 833.567 297.506C832.794 297.063 832.18 296.442 831.724 295.644C831.281 294.833 831.059 293.89 831.059 292.813C831.059 291.736 831.287 290.799 831.743 290.001C832.199 289.19 832.82 288.57 833.605 288.139C834.39 287.696 835.271 287.474 836.246 287.474C837.221 287.474 838.102 287.696 838.887 288.139C839.685 288.57 840.306 289.19 840.749 290.001C841.205 290.799 841.433 291.736 841.433 292.813C841.433 293.877 841.205 294.814 840.749 295.625C840.293 296.436 839.666 297.063 838.868 297.506C838.07 297.937 837.183 298.152 836.208 298.152ZM836.208 296.993C836.892 296.993 837.525 296.841 838.108 296.537C838.691 296.22 839.159 295.752 839.514 295.131C839.881 294.498 840.065 293.725 840.065 292.813C840.065 291.901 839.888 291.135 839.533 290.514C839.178 289.881 838.71 289.412 838.127 289.108C837.544 288.791 836.911 288.633 836.227 288.633C835.543 288.633 834.91 288.791 834.327 289.108C833.744 289.412 833.276 289.881 832.921 290.514C832.579 291.135 832.408 291.901 832.408 292.813C832.408 293.725 832.579 294.498 832.921 295.131C833.276 295.752 833.738 296.22 834.308 296.537C834.891 296.841 835.524 296.993 836.208 296.993ZM848.358 287.474C849.334 287.474 850.182 287.702 850.904 288.158C851.626 288.614 852.146 289.19 852.462 289.887V287.626H853.792V298.266C853.792 299.216 853.583 300.058 853.165 300.793C852.76 301.528 852.19 302.091 851.455 302.484C850.721 302.889 849.885 303.092 848.947 303.092C847.617 303.092 846.509 302.775 845.622 302.142C844.748 301.509 844.204 300.647 843.988 299.558H845.299C845.527 300.28 845.958 300.856 846.591 301.287C847.237 301.718 848.023 301.933 848.947 301.933C849.619 301.933 850.22 301.787 850.752 301.496C851.284 301.217 851.702 300.799 852.007 300.242C852.31 299.685 852.462 299.026 852.462 298.266V295.701C852.133 296.41 851.607 296.999 850.885 297.468C850.176 297.924 849.334 298.152 848.358 298.152C847.408 298.152 846.553 297.93 845.793 297.487C845.046 297.044 844.457 296.417 844.026 295.606C843.608 294.795 843.399 293.858 843.399 292.794C843.399 291.73 843.608 290.799 844.026 290.001C844.457 289.19 845.046 288.57 845.793 288.139C846.553 287.696 847.408 287.474 848.358 287.474ZM852.462 292.813C852.462 291.977 852.291 291.242 851.949 290.609C851.607 289.976 851.139 289.488 850.543 289.146C849.961 288.804 849.315 288.633 848.605 288.633C847.871 288.633 847.212 288.798 846.629 289.127C846.047 289.456 845.584 289.938 845.242 290.571C844.913 291.192 844.748 291.933 844.748 292.794C844.748 293.643 844.913 294.39 845.242 295.036C845.584 295.669 846.047 296.157 846.629 296.499C847.212 296.828 847.871 296.993 848.605 296.993C849.315 296.993 849.961 296.822 850.543 296.48C851.139 296.138 851.607 295.65 851.949 295.017C852.291 294.384 852.462 293.649 852.462 292.813ZM857.644 285.669C857.378 285.669 857.15 285.574 856.96 285.384C856.77 285.194 856.675 284.96 856.675 284.681C856.675 284.402 856.77 284.174 856.96 283.997C857.15 283.807 857.378 283.712 857.644 283.712C857.91 283.712 858.138 283.807 858.328 283.997C858.518 284.174 858.613 284.402 858.613 284.681C858.613 284.96 858.518 285.194 858.328 285.384C858.138 285.574 857.91 285.669 857.644 285.669ZM858.309 287.626V298H856.979V287.626H858.309ZM866.335 287.436C867.576 287.436 868.589 287.822 869.375 288.595C870.16 289.355 870.553 290.463 870.553 291.92V298H869.242V292.072C869.242 290.945 868.957 290.083 868.387 289.488C867.829 288.893 867.063 288.595 866.088 288.595C865.087 288.595 864.289 288.912 863.694 289.545C863.098 290.178 862.801 291.109 862.801 292.338V298H861.471V287.626H862.801V289.393C863.13 288.76 863.605 288.278 864.226 287.949C864.846 287.607 865.549 287.436 866.335 287.436Z" fill="black"/>
<rect x="994" y="6" width="200" height="60" rx="30" fill="white"/>
<path d="M1071.85 41.917H1076.62V43H1070.52V29.719H1071.85V41.917ZM1083.21 43.152C1082.23 43.152 1081.35 42.9367 1080.57 42.506C1079.79 42.0627 1079.18 41.442 1078.72 40.644C1078.28 39.8333 1078.06 38.8897 1078.06 37.813C1078.06 36.7363 1078.29 35.799 1078.74 35.001C1079.2 34.1903 1079.82 33.5697 1080.61 33.139C1081.39 32.6957 1082.27 32.474 1083.25 32.474C1084.22 32.474 1085.1 32.6957 1085.89 33.139C1086.69 33.5697 1087.31 34.1903 1087.75 35.001C1088.21 35.799 1088.43 36.7363 1088.43 37.813C1088.43 38.877 1088.21 39.8143 1087.75 40.625C1087.29 41.4357 1086.67 42.0627 1085.87 42.506C1085.07 42.9367 1084.18 43.152 1083.21 43.152ZM1083.21 41.993C1083.89 41.993 1084.53 41.841 1085.11 41.537C1085.69 41.2203 1086.16 40.7517 1086.51 40.131C1086.88 39.4977 1087.07 38.725 1087.07 37.813C1087.07 36.901 1086.89 36.1347 1086.53 35.514C1086.18 34.8807 1085.71 34.412 1085.13 34.108C1084.54 33.7913 1083.91 33.633 1083.23 33.633C1082.54 33.633 1081.91 33.7913 1081.33 34.108C1080.74 34.412 1080.28 34.8807 1079.92 35.514C1079.58 36.1347 1079.41 36.901 1079.41 37.813C1079.41 38.725 1079.58 39.4977 1079.92 40.131C1080.28 40.7517 1080.74 41.2203 1081.31 41.537C1081.89 41.841 1082.52 41.993 1083.21 41.993ZM1095.36 32.474C1096.33 32.474 1097.18 32.702 1097.9 33.158C1098.63 33.614 1099.15 34.1903 1099.46 34.887V32.626H1100.79V43.266C1100.79 44.216 1100.58 45.0583 1100.17 45.793C1099.76 46.5277 1099.19 47.0913 1098.46 47.484C1097.72 47.8893 1096.88 48.092 1095.95 48.092C1094.62 48.092 1093.51 47.7753 1092.62 47.142C1091.75 46.5087 1091.2 45.6473 1090.99 44.558H1092.3C1092.53 45.28 1092.96 45.8563 1093.59 46.287C1094.24 46.7177 1095.02 46.933 1095.95 46.933C1096.62 46.933 1097.22 46.7873 1097.75 46.496C1098.28 46.2173 1098.7 45.7993 1099.01 45.242C1099.31 44.6847 1099.46 44.026 1099.46 43.266V40.701C1099.13 41.4103 1098.61 41.9993 1097.89 42.468C1097.18 42.924 1096.33 43.152 1095.36 43.152C1094.41 43.152 1093.55 42.9303 1092.79 42.487C1092.05 42.0437 1091.46 41.4167 1091.03 40.606C1090.61 39.7953 1090.4 38.858 1090.4 37.794C1090.4 36.73 1090.61 35.799 1091.03 35.001C1091.46 34.1903 1092.05 33.5697 1092.79 33.139C1093.55 32.6957 1094.41 32.474 1095.36 32.474ZM1099.46 37.813C1099.46 36.977 1099.29 36.2423 1098.95 35.609C1098.61 34.9757 1098.14 34.488 1097.54 34.146C1096.96 33.804 1096.31 33.633 1095.61 33.633C1094.87 33.633 1094.21 33.7977 1093.63 34.127C1093.05 34.4563 1092.58 34.9377 1092.24 35.571C1091.91 36.1917 1091.75 36.9327 1091.75 37.794C1091.75 38.6427 1091.91 39.39 1092.24 40.036C1092.58 40.6693 1093.05 41.157 1093.63 41.499C1094.21 41.8283 1094.87 41.993 1095.61 41.993C1096.31 41.993 1096.96 41.822 1097.54 41.48C1098.14 41.138 1098.61 40.6503 1098.95 40.017C1099.29 39.3837 1099.46 38.649 1099.46 37.813ZM1104.64 30.669C1104.38 30.669 1104.15 30.574 1103.96 30.384C1103.77 30.194 1103.67 29.9597 1103.67 29.681C1103.67 29.4023 1103.77 29.1743 1103.96 28.997C1104.15 28.807 1104.38 28.712 1104.64 28.712C1104.91 28.712 1105.14 28.807 1105.33 28.997C1105.52 29.1743 1105.61 29.4023 1105.61 29.681C1105.61 29.9597 1105.52 30.194 1105.33 30.384C1105.14 30.574 1104.91 30.669 1104.64 30.669ZM1105.31 32.626V43H1103.98V32.626H1105.31ZM1113.33 32.436C1114.58 32.436 1115.59 32.8223 1116.37 33.595C1117.16 34.355 1117.55 35.4633 1117.55 36.92V43H1116.24V37.072C1116.24 35.9447 1115.96 35.0833 1115.39 34.488C1114.83 33.8927 1114.06 33.595 1113.09 33.595C1112.09 33.595 1111.29 33.9117 1110.69 34.545C1110.1 35.1783 1109.8 36.1093 1109.8 37.338V43H1108.47V32.626H1109.8V34.393C1110.13 33.7597 1110.6 33.2783 1111.23 32.949C1111.85 32.607 1112.55 32.436 1113.33 32.436Z" fill="black"/>
<rect x="994" y="86" width="200" height="60" rx="30" fill="white"/>
<path d="M1071.85 121.917H1076.62V123H1070.52V109.719H1071.85V121.917ZM1083.21 123.152C1082.23 123.152 1081.35 122.937 1080.57 122.506C1079.79 122.063 1079.18 121.442 1078.72 120.644C1078.28 119.833 1078.06 118.89 1078.06 117.813C1078.06 116.736 1078.29 115.799 1078.74 115.001C1079.2 114.19 1079.82 113.57 1080.61 113.139C1081.39 112.696 1082.27 112.474 1083.25 112.474C1084.22 112.474 1085.1 112.696 1085.89 113.139C1086.69 113.57 1087.31 114.19 1087.75 115.001C1088.21 115.799 1088.43 116.736 1088.43 117.813C1088.43 118.877 1088.21 119.814 1087.75 120.625C1087.29 121.436 1086.67 122.063 1085.87 122.506C1085.07 122.937 1084.18 123.152 1083.21 123.152ZM1083.21 121.993C1083.89 121.993 1084.53 121.841 1085.11 121.537C1085.69 121.22 1086.16 120.752 1086.51 120.131C1086.88 119.498 1087.07 118.725 1087.07 117.813C1087.07 116.901 1086.89 116.135 1086.53 115.514C1086.18 114.881 1085.71 114.412 1085.13 114.108C1084.54 113.791 1083.91 113.633 1083.23 113.633C1082.54 113.633 1081.91 113.791 1081.33 114.108C1080.74 114.412 1080.28 114.881 1079.92 115.514C1079.58 116.135 1079.41 116.901 1079.41 117.813C1079.41 118.725 1079.58 119.498 1079.92 120.131C1080.28 120.752 1080.74 121.22 1081.31 121.537C1081.89 121.841 1082.52 121.993 1083.21 121.993ZM1095.36 112.474C1096.33 112.474 1097.18 112.702 1097.9 113.158C1098.63 113.614 1099.15 114.19 1099.46 114.887V112.626H1100.79V123.266C1100.79 124.216 1100.58 125.058 1100.17 125.793C1099.76 126.528 1099.19 127.091 1098.46 127.484C1097.72 127.889 1096.88 128.092 1095.95 128.092C1094.62 128.092 1093.51 127.775 1092.62 127.142C1091.75 126.509 1091.2 125.647 1090.99 124.558H1092.3C1092.53 125.28 1092.96 125.856 1093.59 126.287C1094.24 126.718 1095.02 126.933 1095.95 126.933C1096.62 126.933 1097.22 126.787 1097.75 126.496C1098.28 126.217 1098.7 125.799 1099.01 125.242C1099.31 124.685 1099.46 124.026 1099.46 123.266V120.701C1099.13 121.41 1098.61 121.999 1097.89 122.468C1097.18 122.924 1096.33 123.152 1095.36 123.152C1094.41 123.152 1093.55 122.93 1092.79 122.487C1092.05 122.044 1091.46 121.417 1091.03 120.606C1090.61 119.795 1090.4 118.858 1090.4 117.794C1090.4 116.73 1090.61 115.799 1091.03 115.001C1091.46 114.19 1092.05 113.57 1092.79 113.139C1093.55 112.696 1094.41 112.474 1095.36 112.474ZM1099.46 117.813C1099.46 116.977 1099.29 116.242 1098.95 115.609C1098.61 114.976 1098.14 114.488 1097.54 114.146C1096.96 113.804 1096.31 113.633 1095.61 113.633C1094.87 113.633 1094.21 113.798 1093.63 114.127C1093.05 114.456 1092.58 114.938 1092.24 115.571C1091.91 116.192 1091.75 116.933 1091.75 117.794C1091.75 118.643 1091.91 119.39 1092.24 120.036C1092.58 120.669 1093.05 121.157 1093.63 121.499C1094.21 121.828 1094.87 121.993 1095.61 121.993C1096.31 121.993 1096.96 121.822 1097.54 121.48C1098.14 121.138 1098.61 120.65 1098.95 120.017C1099.29 119.384 1099.46 118.649 1099.46 117.813ZM1104.64 110.669C1104.38 110.669 1104.15 110.574 1103.96 110.384C1103.77 110.194 1103.67 109.96 1103.67 109.681C1103.67 109.402 1103.77 109.174 1103.96 108.997C1104.15 108.807 1104.38 108.712 1104.64 108.712C1104.91 108.712 1105.14 108.807 1105.33 108.997C1105.52 109.174 1105.61 109.402 1105.61 109.681C1105.61 109.96 1105.52 110.194 1105.33 110.384C1105.14 110.574 1104.91 110.669 1104.64 110.669ZM1105.31 112.626V123H1103.98V112.626H1105.31ZM1113.33 112.436C1114.58 112.436 1115.59 112.822 1116.37 113.595C1117.16 114.355 1117.55 115.463 1117.55 116.92V123H1116.24V117.072C1116.24 115.945 1115.96 115.083 1115.39 114.488C1114.83 113.893 1114.06 113.595 1113.09 113.595C1112.09 113.595 1111.29 113.912 1110.69 114.545C1110.1 115.178 1109.8 116.109 1109.8 117.338V123H1108.47V112.626H1109.8V114.393C1110.13 113.76 1110.6 113.278 1111.23 112.949C1111.85 112.607 1112.55 112.436 1113.33 112.436Z" fill="black"/>
<rect x="994" y="166" width="200" height="60" rx="30" fill="white"/>
<path d="M1071.85 201.917H1076.62V203H1070.52V189.719H1071.85V201.917ZM1083.21 203.152C1082.23 203.152 1081.35 202.937 1080.57 202.506C1079.79 202.063 1079.18 201.442 1078.72 200.644C1078.28 199.833 1078.06 198.89 1078.06 197.813C1078.06 196.736 1078.29 195.799 1078.74 195.001C1079.2 194.19 1079.82 193.57 1080.61 193.139C1081.39 192.696 1082.27 192.474 1083.25 192.474C1084.22 192.474 1085.1 192.696 1085.89 193.139C1086.69 193.57 1087.31 194.19 1087.75 195.001C1088.21 195.799 1088.43 196.736 1088.43 197.813C1088.43 198.877 1088.21 199.814 1087.75 200.625C1087.29 201.436 1086.67 202.063 1085.87 202.506C1085.07 202.937 1084.18 203.152 1083.21 203.152ZM1083.21 201.993C1083.89 201.993 1084.53 201.841 1085.11 201.537C1085.69 201.22 1086.16 200.752 1086.51 200.131C1086.88 199.498 1087.07 198.725 1087.07 197.813C1087.07 196.901 1086.89 196.135 1086.53 195.514C1086.18 194.881 1085.71 194.412 1085.13 194.108C1084.54 193.791 1083.91 193.633 1083.23 193.633C1082.54 193.633 1081.91 193.791 1081.33 194.108C1080.74 194.412 1080.28 194.881 1079.92 195.514C1079.58 196.135 1079.41 196.901 1079.41 197.813C1079.41 198.725 1079.58 199.498 1079.92 200.131C1080.28 200.752 1080.74 201.22 1081.31 201.537C1081.89 201.841 1082.52 201.993 1083.21 201.993ZM1095.36 192.474C1096.33 192.474 1097.18 192.702 1097.9 193.158C1098.63 193.614 1099.15 194.19 1099.46 194.887V192.626H1100.79V203.266C1100.79 204.216 1100.58 205.058 1100.17 205.793C1099.76 206.528 1099.19 207.091 1098.46 207.484C1097.72 207.889 1096.88 208.092 1095.95 208.092C1094.62 208.092 1093.51 207.775 1092.62 207.142C1091.75 206.509 1091.2 205.647 1090.99 204.558H1092.3C1092.53 205.28 1092.96 205.856 1093.59 206.287C1094.24 206.718 1095.02 206.933 1095.95 206.933C1096.62 206.933 1097.22 206.787 1097.75 206.496C1098.28 206.217 1098.7 205.799 1099.01 205.242C1099.31 204.685 1099.46 204.026 1099.46 203.266V200.701C1099.13 201.41 1098.61 201.999 1097.89 202.468C1097.18 202.924 1096.33 203.152 1095.36 203.152C1094.41 203.152 1093.55 202.93 1092.79 202.487C1092.05 202.044 1091.46 201.417 1091.03 200.606C1090.61 199.795 1090.4 198.858 1090.4 197.794C1090.4 196.73 1090.61 195.799 1091.03 195.001C1091.46 194.19 1092.05 193.57 1092.79 193.139C1093.55 192.696 1094.41 192.474 1095.36 192.474ZM1099.46 197.813C1099.46 196.977 1099.29 196.242 1098.95 195.609C1098.61 194.976 1098.14 194.488 1097.54 194.146C1096.96 193.804 1096.31 193.633 1095.61 193.633C1094.87 193.633 1094.21 193.798 1093.63 194.127C1093.05 194.456 1092.58 194.938 1092.24 195.571C1091.91 196.192 1091.75 196.933 1091.75 197.794C1091.75 198.643 1091.91 199.39 1092.24 200.036C1092.58 200.669 1093.05 201.157 1093.63 201.499C1094.21 201.828 1094.87 201.993 1095.61 201.993C1096.31 201.993 1096.96 201.822 1097.54 201.48C1098.14 201.138 1098.61 200.65 1098.95 200.017C1099.29 199.384 1099.46 198.649 1099.46 197.813ZM1104.64 190.669C1104.38 190.669 1104.15 190.574 1103.96 190.384C1103.77 190.194 1103.67 189.96 1103.67 189.681C1103.67 189.402 1103.77 189.174 1103.96 188.997C1104.15 188.807 1104.38 188.712 1104.64 188.712C1104.91 188.712 1105.14 188.807 1105.33 188.997C1105.52 189.174 1105.61 189.402 1105.61 189.681C1105.61 189.96 1105.52 190.194 1105.33 190.384C1105.14 190.574 1104.91 190.669 1104.64 190.669ZM1105.31 192.626V203H1103.98V192.626H1105.31ZM1113.33 192.436C1114.58 192.436 1115.59 192.822 1116.37 193.595C1117.16 194.355 1117.55 195.463 1117.55 196.92V203H1116.24V197.072C1116.24 195.945 1115.96 195.083 1115.39 194.488C1114.83 193.893 1114.06 193.595 1113.09 193.595C1112.09 193.595 1111.29 193.912 1110.69 194.545C1110.1 195.178 1109.8 196.109 1109.8 197.338V203H1108.47V192.626H1109.8V194.393C1110.13 193.76 1110.6 193.278 1111.23 192.949C1111.85 192.607 1112.55 192.436 1113.33 192.436Z" fill="black"/>
<rect x="994" y="406" width="200" height="60" rx="30" fill="white"/>
<path d="M1071.85 441.917H1076.62V443H1070.52V429.719H1071.85V441.917ZM1083.21 443.152C1082.23 443.152 1081.35 442.937 1080.57 442.506C1079.79 442.063 1079.18 441.442 1078.72 440.644C1078.28 439.833 1078.06 438.89 1078.06 437.813C1078.06 436.736 1078.29 435.799 1078.74 435.001C1079.2 434.19 1079.82 433.57 1080.61 433.139C1081.39 432.696 1082.27 432.474 1083.25 432.474C1084.22 432.474 1085.1 432.696 1085.89 433.139C1086.69 433.57 1087.31 434.19 1087.75 435.001C1088.21 435.799 1088.43 436.736 1088.43 437.813C1088.43 438.877 1088.21 439.814 1087.75 440.625C1087.29 441.436 1086.67 442.063 1085.87 442.506C1085.07 442.937 1084.18 443.152 1083.21 443.152ZM1083.21 441.993C1083.89 441.993 1084.53 441.841 1085.11 441.537C1085.69 441.22 1086.16 440.752 1086.51 440.131C1086.88 439.498 1087.07 438.725 1087.07 437.813C1087.07 436.901 1086.89 436.135 1086.53 435.514C1086.18 434.881 1085.71 434.412 1085.13 434.108C1084.54 433.791 1083.91 433.633 1083.23 433.633C1082.54 433.633 1081.91 433.791 1081.33 434.108C1080.74 434.412 1080.28 434.881 1079.92 435.514C1079.58 436.135 1079.41 436.901 1079.41 437.813C1079.41 438.725 1079.58 439.498 1079.92 440.131C1080.28 440.752 1080.74 441.22 1081.31 441.537C1081.89 441.841 1082.52 441.993 1083.21 441.993ZM1095.36 432.474C1096.33 432.474 1097.18 432.702 1097.9 433.158C1098.63 433.614 1099.15 434.19 1099.46 434.887V432.626H1100.79V443.266C1100.79 444.216 1100.58 445.058 1100.17 445.793C1099.76 446.528 1099.19 447.091 1098.46 447.484C1097.72 447.889 1096.88 448.092 1095.95 448.092C1094.62 448.092 1093.51 447.775 1092.62 447.142C1091.75 446.509 1091.2 445.647 1090.99 444.558H1092.3C1092.53 445.28 1092.96 445.856 1093.59 446.287C1094.24 446.718 1095.02 446.933 1095.95 446.933C1096.62 446.933 1097.22 446.787 1097.75 446.496C1098.28 446.217 1098.7 445.799 1099.01 445.242C1099.31 444.685 1099.46 444.026 1099.46 443.266V440.701C1099.13 441.41 1098.61 441.999 1097.89 442.468C1097.18 442.924 1096.33 443.152 1095.36 443.152C1094.41 443.152 1093.55 442.93 1092.79 442.487C1092.05 442.044 1091.46 441.417 1091.03 440.606C1090.61 439.795 1090.4 438.858 1090.4 437.794C1090.4 436.73 1090.61 435.799 1091.03 435.001C1091.46 434.19 1092.05 433.57 1092.79 433.139C1093.55 432.696 1094.41 432.474 1095.36 432.474ZM1099.46 437.813C1099.46 436.977 1099.29 436.242 1098.95 435.609C1098.61 434.976 1098.14 434.488 1097.54 434.146C1096.96 433.804 1096.31 433.633 1095.61 433.633C1094.87 433.633 1094.21 433.798 1093.63 434.127C1093.05 434.456 1092.58 434.938 1092.24 435.571C1091.91 436.192 1091.75 436.933 1091.75 437.794C1091.75 438.643 1091.91 439.39 1092.24 440.036C1092.58 440.669 1093.05 441.157 1093.63 441.499C1094.21 441.828 1094.87 441.993 1095.61 441.993C1096.31 441.993 1096.96 441.822 1097.54 441.48C1098.14 441.138 1098.61 440.65 1098.95 440.017C1099.29 439.384 1099.46 438.649 1099.46 437.813ZM1104.64 430.669C1104.38 430.669 1104.15 430.574 1103.96 430.384C1103.77 430.194 1103.67 429.96 1103.67 429.681C1103.67 429.402 1103.77 429.174 1103.96 428.997C1104.15 428.807 1104.38 428.712 1104.64 428.712C1104.91 428.712 1105.14 428.807 1105.33 428.997C1105.52 429.174 1105.61 429.402 1105.61 429.681C1105.61 429.96 1105.52 430.194 1105.33 430.384C1105.14 430.574 1104.91 430.669 1104.64 430.669ZM1105.31 432.626V443H1103.98V432.626H1105.31ZM1113.33 432.436C1114.58 432.436 1115.59 432.822 1116.37 433.595C1117.16 434.355 1117.55 435.463 1117.55 436.92V443H1116.24V437.072C1116.24 435.945 1115.96 435.083 1115.39 434.488C1114.83 433.893 1114.06 433.595 1113.09 433.595C1112.09 433.595 1111.29 433.912 1110.69 434.545C1110.1 435.178 1109.8 436.109 1109.8 437.338V443H1108.47V432.626H1109.8V434.393C1110.13 433.76 1110.6 433.278 1111.23 432.949C1111.85 432.607 1112.55 432.436 1113.33 432.436Z" fill="black"/>
<rect x="994" y="326" width="200" height="60" rx="30" fill="white"/>
<path d="M1071.85 361.917H1076.62V363H1070.52V349.719H1071.85V361.917ZM1083.21 363.152C1082.23 363.152 1081.35 362.937 1080.57 362.506C1079.79 362.063 1079.18 361.442 1078.72 360.644C1078.28 359.833 1078.06 358.89 1078.06 357.813C1078.06 356.736 1078.29 355.799 1078.74 355.001C1079.2 354.19 1079.82 353.57 1080.61 353.139C1081.39 352.696 1082.27 352.474 1083.25 352.474C1084.22 352.474 1085.1 352.696 1085.89 353.139C1086.69 353.57 1087.31 354.19 1087.75 355.001C1088.21 355.799 1088.43 356.736 1088.43 357.813C1088.43 358.877 1088.21 359.814 1087.75 360.625C1087.29 361.436 1086.67 362.063 1085.87 362.506C1085.07 362.937 1084.18 363.152 1083.21 363.152ZM1083.21 361.993C1083.89 361.993 1084.53 361.841 1085.11 361.537C1085.69 361.22 1086.16 360.752 1086.51 360.131C1086.88 359.498 1087.07 358.725 1087.07 357.813C1087.07 356.901 1086.89 356.135 1086.53 355.514C1086.18 354.881 1085.71 354.412 1085.13 354.108C1084.54 353.791 1083.91 353.633 1083.23 353.633C1082.54 353.633 1081.91 353.791 1081.33 354.108C1080.74 354.412 1080.28 354.881 1079.92 355.514C1079.58 356.135 1079.41 356.901 1079.41 357.813C1079.41 358.725 1079.58 359.498 1079.92 360.131C1080.28 360.752 1080.74 361.22 1081.31 361.537C1081.89 361.841 1082.52 361.993 1083.21 361.993ZM1095.36 352.474C1096.33 352.474 1097.18 352.702 1097.9 353.158C1098.63 353.614 1099.15 354.19 1099.46 354.887V352.626H1100.79V363.266C1100.79 364.216 1100.58 365.058 1100.17 365.793C1099.76 366.528 1099.19 367.091 1098.46 367.484C1097.72 367.889 1096.88 368.092 1095.95 368.092C1094.62 368.092 1093.51 367.775 1092.62 367.142C1091.75 366.509 1091.2 365.647 1090.99 364.558H1092.3C1092.53 365.28 1092.96 365.856 1093.59 366.287C1094.24 366.718 1095.02 366.933 1095.95 366.933C1096.62 366.933 1097.22 366.787 1097.75 366.496C1098.28 366.217 1098.7 365.799 1099.01 365.242C1099.31 364.685 1099.46 364.026 1099.46 363.266V360.701C1099.13 361.41 1098.61 361.999 1097.89 362.468C1097.18 362.924 1096.33 363.152 1095.36 363.152C1094.41 363.152 1093.55 362.93 1092.79 362.487C1092.05 362.044 1091.46 361.417 1091.03 360.606C1090.61 359.795 1090.4 358.858 1090.4 357.794C1090.4 356.73 1090.61 355.799 1091.03 355.001C1091.46 354.19 1092.05 353.57 1092.79 353.139C1093.55 352.696 1094.41 352.474 1095.36 352.474ZM1099.46 357.813C1099.46 356.977 1099.29 356.242 1098.95 355.609C1098.61 354.976 1098.14 354.488 1097.54 354.146C1096.96 353.804 1096.31 353.633 1095.61 353.633C1094.87 353.633 1094.21 353.798 1093.63 354.127C1093.05 354.456 1092.58 354.938 1092.24 355.571C1091.91 356.192 1091.75 356.933 1091.75 357.794C1091.75 358.643 1091.91 359.39 1092.24 360.036C1092.58 360.669 1093.05 361.157 1093.63 361.499C1094.21 361.828 1094.87 361.993 1095.61 361.993C1096.31 361.993 1096.96 361.822 1097.54 361.48C1098.14 361.138 1098.61 360.65 1098.95 360.017C1099.29 359.384 1099.46 358.649 1099.46 357.813ZM1104.64 350.669C1104.38 350.669 1104.15 350.574 1103.96 350.384C1103.77 350.194 1103.67 349.96 1103.67 349.681C1103.67 349.402 1103.77 349.174 1103.96 348.997C1104.15 348.807 1104.38 348.712 1104.64 348.712C1104.91 348.712 1105.14 348.807 1105.33 348.997C1105.52 349.174 1105.61 349.402 1105.61 349.681C1105.61 349.96 1105.52 350.194 1105.33 350.384C1105.14 350.574 1104.91 350.669 1104.64 350.669ZM1105.31 352.626V363H1103.98V352.626H1105.31ZM1113.33 352.436C1114.58 352.436 1115.59 352.822 1116.37 353.595C1117.16 354.355 1117.55 355.463 1117.55 356.92V363H1116.24V357.072C1116.24 355.945 1115.96 355.083 1115.39 354.488C1114.83 353.893 1114.06 353.595 1113.09 353.595C1112.09 353.595 1111.29 353.912 1110.69 354.545C1110.1 355.178 1109.8 356.109 1109.8 357.338V363H1108.47V352.626H1109.8V354.393C1110.13 353.76 1110.6 353.278 1111.23 352.949C1111.85 352.607 1112.55 352.436 1113.33 352.436Z" fill="black"/>
<rect x="994" y="246" width="200" height="60" rx="30" fill="white"/>
<path d="M1071.85 281.917H1076.62V283H1070.52V269.719H1071.85V281.917ZM1083.21 283.152C1082.23 283.152 1081.35 282.937 1080.57 282.506C1079.79 282.063 1079.18 281.442 1078.72 280.644C1078.28 279.833 1078.06 278.89 1078.06 277.813C1078.06 276.736 1078.29 275.799 1078.74 275.001C1079.2 274.19 1079.82 273.57 1080.61 273.139C1081.39 272.696 1082.27 272.474 1083.25 272.474C1084.22 272.474 1085.1 272.696 1085.89 273.139C1086.69 273.57 1087.31 274.19 1087.75 275.001C1088.21 275.799 1088.43 276.736 1088.43 277.813C1088.43 278.877 1088.21 279.814 1087.75 280.625C1087.29 281.436 1086.67 282.063 1085.87 282.506C1085.07 282.937 1084.18 283.152 1083.21 283.152ZM1083.21 281.993C1083.89 281.993 1084.53 281.841 1085.11 281.537C1085.69 281.22 1086.16 280.752 1086.51 280.131C1086.88 279.498 1087.07 278.725 1087.07 277.813C1087.07 276.901 1086.89 276.135 1086.53 275.514C1086.18 274.881 1085.71 274.412 1085.13 274.108C1084.54 273.791 1083.91 273.633 1083.23 273.633C1082.54 273.633 1081.91 273.791 1081.33 274.108C1080.74 274.412 1080.28 274.881 1079.92 275.514C1079.58 276.135 1079.41 276.901 1079.41 277.813C1079.41 278.725 1079.58 279.498 1079.92 280.131C1080.28 280.752 1080.74 281.22 1081.31 281.537C1081.89 281.841 1082.52 281.993 1083.21 281.993ZM1095.36 272.474C1096.33 272.474 1097.18 272.702 1097.9 273.158C1098.63 273.614 1099.15 274.19 1099.46 274.887V272.626H1100.79V283.266C1100.79 284.216 1100.58 285.058 1100.17 285.793C1099.76 286.528 1099.19 287.091 1098.46 287.484C1097.72 287.889 1096.88 288.092 1095.95 288.092C1094.62 288.092 1093.51 287.775 1092.62 287.142C1091.75 286.509 1091.2 285.647 1090.99 284.558H1092.3C1092.53 285.28 1092.96 285.856 1093.59 286.287C1094.24 286.718 1095.02 286.933 1095.95 286.933C1096.62 286.933 1097.22 286.787 1097.75 286.496C1098.28 286.217 1098.7 285.799 1099.01 285.242C1099.31 284.685 1099.46 284.026 1099.46 283.266V280.701C1099.13 281.41 1098.61 281.999 1097.89 282.468C1097.18 282.924 1096.33 283.152 1095.36 283.152C1094.41 283.152 1093.55 282.93 1092.79 282.487C1092.05 282.044 1091.46 281.417 1091.03 280.606C1090.61 279.795 1090.4 278.858 1090.4 277.794C1090.4 276.73 1090.61 275.799 1091.03 275.001C1091.46 274.19 1092.05 273.57 1092.79 273.139C1093.55 272.696 1094.41 272.474 1095.36 272.474ZM1099.46 277.813C1099.46 276.977 1099.29 276.242 1098.95 275.609C1098.61 274.976 1098.14 274.488 1097.54 274.146C1096.96 273.804 1096.31 273.633 1095.61 273.633C1094.87 273.633 1094.21 273.798 1093.63 274.127C1093.05 274.456 1092.58 274.938 1092.24 275.571C1091.91 276.192 1091.75 276.933 1091.75 277.794C1091.75 278.643 1091.91 279.39 1092.24 280.036C1092.58 280.669 1093.05 281.157 1093.63 281.499C1094.21 281.828 1094.87 281.993 1095.61 281.993C1096.31 281.993 1096.96 281.822 1097.54 281.48C1098.14 281.138 1098.61 280.65 1098.95 280.017C1099.29 279.384 1099.46 278.649 1099.46 277.813ZM1104.64 270.669C1104.38 270.669 1104.15 270.574 1103.96 270.384C1103.77 270.194 1103.67 269.96 1103.67 269.681C1103.67 269.402 1103.77 269.174 1103.96 268.997C1104.15 268.807 1104.38 268.712 1104.64 268.712C1104.91 268.712 1105.14 268.807 1105.33 268.997C1105.52 269.174 1105.61 269.402 1105.61 269.681C1105.61 269.96 1105.52 270.194 1105.33 270.384C1105.14 270.574 1104.91 270.669 1104.64 270.669ZM1105.31 272.626V283H1103.98V272.626H1105.31ZM1113.33 272.436C1114.58 272.436 1115.59 272.822 1116.37 273.595C1117.16 274.355 1117.55 275.463 1117.55 276.92V283H1116.24V277.072C1116.24 275.945 1115.96 275.083 1115.39 274.488C1114.83 273.893 1114.06 273.595 1113.09 273.595C1112.09 273.595 1111.29 273.912 1110.69 274.545C1110.1 275.178 1109.8 276.109 1109.8 277.338V283H1108.47V272.626H1109.8V274.393C1110.13 273.76 1110.6 273.278 1111.23 272.949C1111.85 272.607 1112.55 272.436 1113.33 272.436Z" fill="black"/>
<rect x="1241" y="181" width="200" height="60" rx="30" fill="white"/>
<path d="M1318.85 216.917H1323.62V218H1317.52V204.719H1318.85V216.917ZM1330.21 218.152C1329.23 218.152 1328.35 217.937 1327.57 217.506C1326.79 217.063 1326.18 216.442 1325.72 215.644C1325.28 214.833 1325.06 213.89 1325.06 212.813C1325.06 211.736 1325.29 210.799 1325.74 210.001C1326.2 209.19 1326.82 208.57 1327.61 208.139C1328.39 207.696 1329.27 207.474 1330.25 207.474C1331.22 207.474 1332.1 207.696 1332.89 208.139C1333.69 208.57 1334.31 209.19 1334.75 210.001C1335.21 210.799 1335.43 211.736 1335.43 212.813C1335.43 213.877 1335.21 214.814 1334.75 215.625C1334.29 216.436 1333.67 217.063 1332.87 217.506C1332.07 217.937 1331.18 218.152 1330.21 218.152ZM1330.21 216.993C1330.89 216.993 1331.53 216.841 1332.11 216.537C1332.69 216.22 1333.16 215.752 1333.51 215.131C1333.88 214.498 1334.07 213.725 1334.07 212.813C1334.07 211.901 1333.89 211.135 1333.53 210.514C1333.18 209.881 1332.71 209.412 1332.13 209.108C1331.54 208.791 1330.91 208.633 1330.23 208.633C1329.54 208.633 1328.91 208.791 1328.33 209.108C1327.74 209.412 1327.28 209.881 1326.92 210.514C1326.58 211.135 1326.41 211.901 1326.41 212.813C1326.41 213.725 1326.58 214.498 1326.92 215.131C1327.28 215.752 1327.74 216.22 1328.31 216.537C1328.89 216.841 1329.52 216.993 1330.21 216.993ZM1342.36 207.474C1343.33 207.474 1344.18 207.702 1344.9 208.158C1345.63 208.614 1346.15 209.19 1346.46 209.887V207.626H1347.79V218.266C1347.79 219.216 1347.58 220.058 1347.17 220.793C1346.76 221.528 1346.19 222.091 1345.46 222.484C1344.72 222.889 1343.88 223.092 1342.95 223.092C1341.62 223.092 1340.51 222.775 1339.62 222.142C1338.75 221.509 1338.2 220.647 1337.99 219.558H1339.3C1339.53 220.28 1339.96 220.856 1340.59 221.287C1341.24 221.718 1342.02 221.933 1342.95 221.933C1343.62 221.933 1344.22 221.787 1344.75 221.496C1345.28 221.217 1345.7 220.799 1346.01 220.242C1346.31 219.685 1346.46 219.026 1346.46 218.266V215.701C1346.13 216.41 1345.61 216.999 1344.89 217.468C1344.18 217.924 1343.33 218.152 1342.36 218.152C1341.41 218.152 1340.55 217.93 1339.79 217.487C1339.05 217.044 1338.46 216.417 1338.03 215.606C1337.61 214.795 1337.4 213.858 1337.4 212.794C1337.4 211.73 1337.61 210.799 1338.03 210.001C1338.46 209.19 1339.05 208.57 1339.79 208.139C1340.55 207.696 1341.41 207.474 1342.36 207.474ZM1346.46 212.813C1346.46 211.977 1346.29 211.242 1345.95 210.609C1345.61 209.976 1345.14 209.488 1344.54 209.146C1343.96 208.804 1343.31 208.633 1342.61 208.633C1341.87 208.633 1341.21 208.798 1340.63 209.127C1340.05 209.456 1339.58 209.938 1339.24 210.571C1338.91 211.192 1338.75 211.933 1338.75 212.794C1338.75 213.643 1338.91 214.39 1339.24 215.036C1339.58 215.669 1340.05 216.157 1340.63 216.499C1341.21 216.828 1341.87 216.993 1342.61 216.993C1343.31 216.993 1343.96 216.822 1344.54 216.48C1345.14 216.138 1345.61 215.65 1345.95 215.017C1346.29 214.384 1346.46 213.649 1346.46 212.813ZM1351.64 205.669C1351.38 205.669 1351.15 205.574 1350.96 205.384C1350.77 205.194 1350.67 204.96 1350.67 204.681C1350.67 204.402 1350.77 204.174 1350.96 203.997C1351.15 203.807 1351.38 203.712 1351.64 203.712C1351.91 203.712 1352.14 203.807 1352.33 203.997C1352.52 204.174 1352.61 204.402 1352.61 204.681C1352.61 204.96 1352.52 205.194 1352.33 205.384C1352.14 205.574 1351.91 205.669 1351.64 205.669ZM1352.31 207.626V218H1350.98V207.626H1352.31ZM1360.33 207.436C1361.58 207.436 1362.59 207.822 1363.37 208.595C1364.16 209.355 1364.55 210.463 1364.55 211.92V218H1363.24V212.072C1363.24 210.945 1362.96 210.083 1362.39 209.488C1361.83 208.893 1361.06 208.595 1360.09 208.595C1359.09 208.595 1358.29 208.912 1357.69 209.545C1357.1 210.178 1356.8 211.109 1356.8 212.338V218H1355.47V207.626H1356.8V209.393C1357.13 208.76 1357.6 208.278 1358.23 207.949C1358.85 207.607 1359.55 207.436 1360.33 207.436Z" fill="black"/>
<rect x="1241" y="101" width="200" height="60" rx="30" fill="white"/>
<path d="M1318.85 136.917H1323.62V138H1317.52V124.719H1318.85V136.917ZM1330.21 138.152C1329.23 138.152 1328.35 137.937 1327.57 137.506C1326.79 137.063 1326.18 136.442 1325.72 135.644C1325.28 134.833 1325.06 133.89 1325.06 132.813C1325.06 131.736 1325.29 130.799 1325.74 130.001C1326.2 129.19 1326.82 128.57 1327.61 128.139C1328.39 127.696 1329.27 127.474 1330.25 127.474C1331.22 127.474 1332.1 127.696 1332.89 128.139C1333.69 128.57 1334.31 129.19 1334.75 130.001C1335.21 130.799 1335.43 131.736 1335.43 132.813C1335.43 133.877 1335.21 134.814 1334.75 135.625C1334.29 136.436 1333.67 137.063 1332.87 137.506C1332.07 137.937 1331.18 138.152 1330.21 138.152ZM1330.21 136.993C1330.89 136.993 1331.53 136.841 1332.11 136.537C1332.69 136.22 1333.16 135.752 1333.51 135.131C1333.88 134.498 1334.07 133.725 1334.07 132.813C1334.07 131.901 1333.89 131.135 1333.53 130.514C1333.18 129.881 1332.71 129.412 1332.13 129.108C1331.54 128.791 1330.91 128.633 1330.23 128.633C1329.54 128.633 1328.91 128.791 1328.33 129.108C1327.74 129.412 1327.28 129.881 1326.92 130.514C1326.58 131.135 1326.41 131.901 1326.41 132.813C1326.41 133.725 1326.58 134.498 1326.92 135.131C1327.28 135.752 1327.74 136.22 1328.31 136.537C1328.89 136.841 1329.52 136.993 1330.21 136.993ZM1342.36 127.474C1343.33 127.474 1344.18 127.702 1344.9 128.158C1345.63 128.614 1346.15 129.19 1346.46 129.887V127.626H1347.79V138.266C1347.79 139.216 1347.58 140.058 1347.17 140.793C1346.76 141.528 1346.19 142.091 1345.46 142.484C1344.72 142.889 1343.88 143.092 1342.95 143.092C1341.62 143.092 1340.51 142.775 1339.62 142.142C1338.75 141.509 1338.2 140.647 1337.99 139.558H1339.3C1339.53 140.28 1339.96 140.856 1340.59 141.287C1341.24 141.718 1342.02 141.933 1342.95 141.933C1343.62 141.933 1344.22 141.787 1344.75 141.496C1345.28 141.217 1345.7 140.799 1346.01 140.242C1346.31 139.685 1346.46 139.026 1346.46 138.266V135.701C1346.13 136.41 1345.61 136.999 1344.89 137.468C1344.18 137.924 1343.33 138.152 1342.36 138.152C1341.41 138.152 1340.55 137.93 1339.79 137.487C1339.05 137.044 1338.46 136.417 1338.03 135.606C1337.61 134.795 1337.4 133.858 1337.4 132.794C1337.4 131.73 1337.61 130.799 1338.03 130.001C1338.46 129.19 1339.05 128.57 1339.79 128.139C1340.55 127.696 1341.41 127.474 1342.36 127.474ZM1346.46 132.813C1346.46 131.977 1346.29 131.242 1345.95 130.609C1345.61 129.976 1345.14 129.488 1344.54 129.146C1343.96 128.804 1343.31 128.633 1342.61 128.633C1341.87 128.633 1341.21 128.798 1340.63 129.127C1340.05 129.456 1339.58 129.938 1339.24 130.571C1338.91 131.192 1338.75 131.933 1338.75 132.794C1338.75 133.643 1338.91 134.39 1339.24 135.036C1339.58 135.669 1340.05 136.157 1340.63 136.499C1341.21 136.828 1341.87 136.993 1342.61 136.993C1343.31 136.993 1343.96 136.822 1344.54 136.48C1345.14 136.138 1345.61 135.65 1345.95 135.017C1346.29 134.384 1346.46 133.649 1346.46 132.813ZM1351.64 125.669C1351.38 125.669 1351.15 125.574 1350.96 125.384C1350.77 125.194 1350.67 124.96 1350.67 124.681C1350.67 124.402 1350.77 124.174 1350.96 123.997C1351.15 123.807 1351.38 123.712 1351.64 123.712C1351.91 123.712 1352.14 123.807 1352.33 123.997C1352.52 124.174 1352.61 124.402 1352.61 124.681C1352.61 124.96 1352.52 125.194 1352.33 125.384C1352.14 125.574 1351.91 125.669 1351.64 125.669ZM1352.31 127.626V138H1350.98V127.626H1352.31ZM1360.33 127.436C1361.58 127.436 1362.59 127.822 1363.37 128.595C1364.16 129.355 1364.55 130.463 1364.55 131.92V138H1363.24V132.072C1363.24 130.945 1362.96 130.083 1362.39 129.488C1361.83 128.893 1361.06 128.595 1360.09 128.595C1359.09 128.595 1358.29 128.912 1357.69 129.545C1357.1 130.178 1356.8 131.109 1356.8 132.338V138H1355.47V127.626H1356.8V129.393C1357.13 128.76 1357.6 128.278 1358.23 127.949C1358.85 127.607 1359.55 127.436 1360.33 127.436Z" fill="black"/>
<rect x="1241" y="261" width="200" height="60" rx="30" fill="white"/>
<path d="M1318.85 296.917H1323.62V298H1317.52V284.719H1318.85V296.917ZM1330.21 298.152C1329.23 298.152 1328.35 297.937 1327.57 297.506C1326.79 297.063 1326.18 296.442 1325.72 295.644C1325.28 294.833 1325.06 293.89 1325.06 292.813C1325.06 291.736 1325.29 290.799 1325.74 290.001C1326.2 289.19 1326.82 288.57 1327.61 288.139C1328.39 287.696 1329.27 287.474 1330.25 287.474C1331.22 287.474 1332.1 287.696 1332.89 288.139C1333.69 288.57 1334.31 289.19 1334.75 290.001C1335.21 290.799 1335.43 291.736 1335.43 292.813C1335.43 293.877 1335.21 294.814 1334.75 295.625C1334.29 296.436 1333.67 297.063 1332.87 297.506C1332.07 297.937 1331.18 298.152 1330.21 298.152ZM1330.21 296.993C1330.89 296.993 1331.53 296.841 1332.11 296.537C1332.69 296.22 1333.16 295.752 1333.51 295.131C1333.88 294.498 1334.07 293.725 1334.07 292.813C1334.07 291.901 1333.89 291.135 1333.53 290.514C1333.18 289.881 1332.71 289.412 1332.13 289.108C1331.54 288.791 1330.91 288.633 1330.23 288.633C1329.54 288.633 1328.91 288.791 1328.33 289.108C1327.74 289.412 1327.28 289.881 1326.92 290.514C1326.58 291.135 1326.41 291.901 1326.41 292.813C1326.41 293.725 1326.58 294.498 1326.92 295.131C1327.28 295.752 1327.74 296.22 1328.31 296.537C1328.89 296.841 1329.52 296.993 1330.21 296.993ZM1342.36 287.474C1343.33 287.474 1344.18 287.702 1344.9 288.158C1345.63 288.614 1346.15 289.19 1346.46 289.887V287.626H1347.79V298.266C1347.79 299.216 1347.58 300.058 1347.17 300.793C1346.76 301.528 1346.19 302.091 1345.46 302.484C1344.72 302.889 1343.88 303.092 1342.95 303.092C1341.62 303.092 1340.51 302.775 1339.62 302.142C1338.75 301.509 1338.2 300.647 1337.99 299.558H1339.3C1339.53 300.28 1339.96 300.856 1340.59 301.287C1341.24 301.718 1342.02 301.933 1342.95 301.933C1343.62 301.933 1344.22 301.787 1344.75 301.496C1345.28 301.217 1345.7 300.799 1346.01 300.242C1346.31 299.685 1346.46 299.026 1346.46 298.266V295.701C1346.13 296.41 1345.61 296.999 1344.89 297.468C1344.18 297.924 1343.33 298.152 1342.36 298.152C1341.41 298.152 1340.55 297.93 1339.79 297.487C1339.05 297.044 1338.46 296.417 1338.03 295.606C1337.61 294.795 1337.4 293.858 1337.4 292.794C1337.4 291.73 1337.61 290.799 1338.03 290.001C1338.46 289.19 1339.05 288.57 1339.79 288.139C1340.55 287.696 1341.41 287.474 1342.36 287.474ZM1346.46 292.813C1346.46 291.977 1346.29 291.242 1345.95 290.609C1345.61 289.976 1345.14 289.488 1344.54 289.146C1343.96 288.804 1343.31 288.633 1342.61 288.633C1341.87 288.633 1341.21 288.798 1340.63 289.127C1340.05 289.456 1339.58 289.938 1339.24 290.571C1338.91 291.192 1338.75 291.933 1338.75 292.794C1338.75 293.643 1338.91 294.39 1339.24 295.036C1339.58 295.669 1340.05 296.157 1340.63 296.499C1341.21 296.828 1341.87 296.993 1342.61 296.993C1343.31 296.993 1343.96 296.822 1344.54 296.48C1345.14 296.138 1345.61 295.65 1345.95 295.017C1346.29 294.384 1346.46 293.649 1346.46 292.813ZM1351.64 285.669C1351.38 285.669 1351.15 285.574 1350.96 285.384C1350.77 285.194 1350.67 284.96 1350.67 284.681C1350.67 284.402 1350.77 284.174 1350.96 283.997C1351.15 283.807 1351.38 283.712 1351.64 283.712C1351.91 283.712 1352.14 283.807 1352.33 283.997C1352.52 284.174 1352.61 284.402 1352.61 284.681C1352.61 284.96 1352.52 285.194 1352.33 285.384C1352.14 285.574 1351.91 285.669 1351.64 285.669ZM1352.31 287.626V298H1350.98V287.626H1352.31ZM1360.33 287.436C1361.58 287.436 1362.59 287.822 1363.37 288.595C1364.16 289.355 1364.55 290.463 1364.55 291.92V298H1363.24V292.072C1363.24 290.945 1362.96 290.083 1362.39 289.488C1361.83 288.893 1361.06 288.595 1360.09 288.595C1359.09 288.595 1358.29 288.912 1357.69 289.545C1357.1 290.178 1356.8 291.109 1356.8 292.338V298H1355.47V287.626H1356.8V289.393C1357.13 288.76 1357.6 288.278 1358.23 287.949C1358.85 287.607 1359.55 287.436 1360.33 287.436Z" fill="black"/>
<rect x="253" y="21" width="200" height="60" rx="30" fill="white"/>
<path d="M330.85 56.917H335.619V58H329.52V44.719H330.85V56.917ZM342.208 58.152C341.233 58.152 340.352 57.9367 339.567 57.506C338.794 57.0627 338.18 56.442 337.724 55.644C337.281 54.8333 337.059 53.8897 337.059 52.813C337.059 51.7363 337.287 50.799 337.743 50.001C338.199 49.1903 338.82 48.5697 339.605 48.139C340.39 47.6957 341.271 47.474 342.246 47.474C343.221 47.474 344.102 47.6957 344.887 48.139C345.685 48.5697 346.306 49.1903 346.749 50.001C347.205 50.799 347.433 51.7363 347.433 52.813C347.433 53.877 347.205 54.8143 346.749 55.625C346.293 56.4357 345.666 57.0627 344.868 57.506C344.07 57.9367 343.183 58.152 342.208 58.152ZM342.208 56.993C342.892 56.993 343.525 56.841 344.108 56.537C344.691 56.2203 345.159 55.7517 345.514 55.131C345.881 54.4977 346.065 53.725 346.065 52.813C346.065 51.901 345.888 51.1347 345.533 50.514C345.178 49.8807 344.71 49.412 344.127 49.108C343.544 48.7913 342.911 48.633 342.227 48.633C341.543 48.633 340.91 48.7913 340.327 49.108C339.744 49.412 339.276 49.8807 338.921 50.514C338.579 51.1347 338.408 51.901 338.408 52.813C338.408 53.725 338.579 54.4977 338.921 55.131C339.276 55.7517 339.738 56.2203 340.308 56.537C340.891 56.841 341.524 56.993 342.208 56.993ZM354.358 47.474C355.334 47.474 356.182 47.702 356.904 48.158C357.626 48.614 358.146 49.1903 358.462 49.887V47.626H359.792V58.266C359.792 59.216 359.583 60.0583 359.165 60.793C358.76 61.5277 358.19 62.0913 357.455 62.484C356.721 62.8893 355.885 63.092 354.947 63.092C353.617 63.092 352.509 62.7753 351.622 62.142C350.748 61.5087 350.204 60.6473 349.988 59.558H351.299C351.527 60.28 351.958 60.8563 352.591 61.287C353.237 61.7177 354.023 61.933 354.947 61.933C355.619 61.933 356.22 61.7873 356.752 61.496C357.284 61.2173 357.702 60.7993 358.007 60.242C358.31 59.6847 358.462 59.026 358.462 58.266V55.701C358.133 56.4103 357.607 56.9993 356.885 57.468C356.176 57.924 355.334 58.152 354.358 58.152C353.408 58.152 352.553 57.9303 351.793 57.487C351.046 57.0437 350.457 56.4167 350.026 55.606C349.608 54.7953 349.399 53.858 349.399 52.794C349.399 51.73 349.608 50.799 350.026 50.001C350.457 49.1903 351.046 48.5697 351.793 48.139C352.553 47.6957 353.408 47.474 354.358 47.474ZM358.462 52.813C358.462 51.977 358.291 51.2423 357.949 50.609C357.607 49.9757 357.139 49.488 356.543 49.146C355.961 48.804 355.315 48.633 354.605 48.633C353.871 48.633 353.212 48.7977 352.629 49.127C352.047 49.4563 351.584 49.9377 351.242 50.571C350.913 51.1917 350.748 51.9327 350.748 52.794C350.748 53.6427 350.913 54.39 351.242 55.036C351.584 55.6693 352.047 56.157 352.629 56.499C353.212 56.8283 353.871 56.993 354.605 56.993C355.315 56.993 355.961 56.822 356.543 56.48C357.139 56.138 357.607 55.6503 357.949 55.017C358.291 54.3837 358.462 53.649 358.462 52.813ZM363.644 45.669C363.378 45.669 363.15 45.574 362.96 45.384C362.77 45.194 362.675 44.9597 362.675 44.681C362.675 44.4023 362.77 44.1743 362.96 43.997C363.15 43.807 363.378 43.712 363.644 43.712C363.91 43.712 364.138 43.807 364.328 43.997C364.518 44.1743 364.613 44.4023 364.613 44.681C364.613 44.9597 364.518 45.194 364.328 45.384C364.138 45.574 363.91 45.669 363.644 45.669ZM364.309 47.626V58H362.979V47.626H364.309ZM372.335 47.436C373.576 47.436 374.589 47.8223 375.375 48.595C376.16 49.355 376.553 50.4633 376.553 51.92V58H375.242V52.072C375.242 50.9447 374.957 50.0833 374.387 49.488C373.829 48.8927 373.063 48.595 372.088 48.595C371.087 48.595 370.289 48.9117 369.694 49.545C369.098 50.1783 368.801 51.1093 368.801 52.338V58H367.471V47.626H368.801V49.393C369.13 48.7597 369.605 48.2783 370.226 47.949C370.846 47.607 371.549 47.436 372.335 47.436Z" fill="black"/>
<rect x="253" y="101" width="200" height="60" rx="30" fill="white"/>
<path d="M330.85 136.917H335.619V138H329.52V124.719H330.85V136.917ZM342.208 138.152C341.233 138.152 340.352 137.937 339.567 137.506C338.794 137.063 338.18 136.442 337.724 135.644C337.281 134.833 337.059 133.89 337.059 132.813C337.059 131.736 337.287 130.799 337.743 130.001C338.199 129.19 338.82 128.57 339.605 128.139C340.39 127.696 341.271 127.474 342.246 127.474C343.221 127.474 344.102 127.696 344.887 128.139C345.685 128.57 346.306 129.19 346.749 130.001C347.205 130.799 347.433 131.736 347.433 132.813C347.433 133.877 347.205 134.814 346.749 135.625C346.293 136.436 345.666 137.063 344.868 137.506C344.07 137.937 343.183 138.152 342.208 138.152ZM342.208 136.993C342.892 136.993 343.525 136.841 344.108 136.537C344.691 136.22 345.159 135.752 345.514 135.131C345.881 134.498 346.065 133.725 346.065 132.813C346.065 131.901 345.888 131.135 345.533 130.514C345.178 129.881 344.71 129.412 344.127 129.108C343.544 128.791 342.911 128.633 342.227 128.633C341.543 128.633 340.91 128.791 340.327 129.108C339.744 129.412 339.276 129.881 338.921 130.514C338.579 131.135 338.408 131.901 338.408 132.813C338.408 133.725 338.579 134.498 338.921 135.131C339.276 135.752 339.738 136.22 340.308 136.537C340.891 136.841 341.524 136.993 342.208 136.993ZM354.358 127.474C355.334 127.474 356.182 127.702 356.904 128.158C357.626 128.614 358.146 129.19 358.462 129.887V127.626H359.792V138.266C359.792 139.216 359.583 140.058 359.165 140.793C358.76 141.528 358.19 142.091 357.455 142.484C356.721 142.889 355.885 143.092 354.947 143.092C353.617 143.092 352.509 142.775 351.622 142.142C350.748 141.509 350.204 140.647 349.988 139.558H351.299C351.527 140.28 351.958 140.856 352.591 141.287C353.237 141.718 354.023 141.933 354.947 141.933C355.619 141.933 356.22 141.787 356.752 141.496C357.284 141.217 357.702 140.799 358.007 140.242C358.31 139.685 358.462 139.026 358.462 138.266V135.701C358.133 136.41 357.607 136.999 356.885 137.468C356.176 137.924 355.334 138.152 354.358 138.152C353.408 138.152 352.553 137.93 351.793 137.487C351.046 137.044 350.457 136.417 350.026 135.606C349.608 134.795 349.399 133.858 349.399 132.794C349.399 131.73 349.608 130.799 350.026 130.001C350.457 129.19 351.046 128.57 351.793 128.139C352.553 127.696 353.408 127.474 354.358 127.474ZM358.462 132.813C358.462 131.977 358.291 131.242 357.949 130.609C357.607 129.976 357.139 129.488 356.543 129.146C355.961 128.804 355.315 128.633 354.605 128.633C353.871 128.633 353.212 128.798 352.629 129.127C352.047 129.456 351.584 129.938 351.242 130.571C350.913 131.192 350.748 131.933 350.748 132.794C350.748 133.643 350.913 134.39 351.242 135.036C351.584 135.669 352.047 136.157 352.629 136.499C353.212 136.828 353.871 136.993 354.605 136.993C355.315 136.993 355.961 136.822 356.543 136.48C357.139 136.138 357.607 135.65 357.949 135.017C358.291 134.384 358.462 133.649 358.462 132.813ZM363.644 125.669C363.378 125.669 363.15 125.574 362.96 125.384C362.77 125.194 362.675 124.96 362.675 124.681C362.675 124.402 362.77 124.174 362.96 123.997C363.15 123.807 363.378 123.712 363.644 123.712C363.91 123.712 364.138 123.807 364.328 123.997C364.518 124.174 364.613 124.402 364.613 124.681C364.613 124.96 364.518 125.194 364.328 125.384C364.138 125.574 363.91 125.669 363.644 125.669ZM364.309 127.626V138H362.979V127.626H364.309ZM372.335 127.436C373.576 127.436 374.589 127.822 375.375 128.595C376.16 129.355 376.553 130.463 376.553 131.92V138H375.242V132.072C375.242 130.945 374.957 130.083 374.387 129.488C373.829 128.893 373.063 128.595 372.088 128.595C371.087 128.595 370.289 128.912 369.694 129.545C369.098 130.178 368.801 131.109 368.801 132.338V138H367.471V127.626H368.801V129.393C369.13 128.76 369.605 128.278 370.226 127.949C370.846 127.607 371.549 127.436 372.335 127.436Z" fill="black"/>
<rect x="253" y="181" width="200" height="60" rx="30" fill="white"/>
<path d="M330.85 216.917H335.619V218H329.52V204.719H330.85V216.917ZM342.208 218.152C341.233 218.152 340.352 217.937 339.567 217.506C338.794 217.063 338.18 216.442 337.724 215.644C337.281 214.833 337.059 213.89 337.059 212.813C337.059 211.736 337.287 210.799 337.743 210.001C338.199 209.19 338.82 208.57 339.605 208.139C340.39 207.696 341.271 207.474 342.246 207.474C343.221 207.474 344.102 207.696 344.887 208.139C345.685 208.57 346.306 209.19 346.749 210.001C347.205 210.799 347.433 211.736 347.433 212.813C347.433 213.877 347.205 214.814 346.749 215.625C346.293 216.436 345.666 217.063 344.868 217.506C344.07 217.937 343.183 218.152 342.208 218.152ZM342.208 216.993C342.892 216.993 343.525 216.841 344.108 216.537C344.691 216.22 345.159 215.752 345.514 215.131C345.881 214.498 346.065 213.725 346.065 212.813C346.065 211.901 345.888 211.135 345.533 210.514C345.178 209.881 344.71 209.412 344.127 209.108C343.544 208.791 342.911 208.633 342.227 208.633C341.543 208.633 340.91 208.791 340.327 209.108C339.744 209.412 339.276 209.881 338.921 210.514C338.579 211.135 338.408 211.901 338.408 212.813C338.408 213.725 338.579 214.498 338.921 215.131C339.276 215.752 339.738 216.22 340.308 216.537C340.891 216.841 341.524 216.993 342.208 216.993ZM354.358 207.474C355.334 207.474 356.182 207.702 356.904 208.158C357.626 208.614 358.146 209.19 358.462 209.887V207.626H359.792V218.266C359.792 219.216 359.583 220.058 359.165 220.793C358.76 221.528 358.19 222.091 357.455 222.484C356.721 222.889 355.885 223.092 354.947 223.092C353.617 223.092 352.509 222.775 351.622 222.142C350.748 221.509 350.204 220.647 349.988 219.558H351.299C351.527 220.28 351.958 220.856 352.591 221.287C353.237 221.718 354.023 221.933 354.947 221.933C355.619 221.933 356.22 221.787 356.752 221.496C357.284 221.217 357.702 220.799 358.007 220.242C358.31 219.685 358.462 219.026 358.462 218.266V215.701C358.133 216.41 357.607 216.999 356.885 217.468C356.176 217.924 355.334 218.152 354.358 218.152C353.408 218.152 352.553 217.93 351.793 217.487C351.046 217.044 350.457 216.417 350.026 215.606C349.608 214.795 349.399 213.858 349.399 212.794C349.399 211.73 349.608 210.799 350.026 210.001C350.457 209.19 351.046 208.57 351.793 208.139C352.553 207.696 353.408 207.474 354.358 207.474ZM358.462 212.813C358.462 211.977 358.291 211.242 357.949 210.609C357.607 209.976 357.139 209.488 356.543 209.146C355.961 208.804 355.315 208.633 354.605 208.633C353.871 208.633 353.212 208.798 352.629 209.127C352.047 209.456 351.584 209.938 351.242 210.571C350.913 211.192 350.748 211.933 350.748 212.794C350.748 213.643 350.913 214.39 351.242 215.036C351.584 215.669 352.047 216.157 352.629 216.499C353.212 216.828 353.871 216.993 354.605 216.993C355.315 216.993 355.961 216.822 356.543 216.48C357.139 216.138 357.607 215.65 357.949 215.017C358.291 214.384 358.462 213.649 358.462 212.813ZM363.644 205.669C363.378 205.669 363.15 205.574 362.96 205.384C362.77 205.194 362.675 204.96 362.675 204.681C362.675 204.402 362.77 204.174 362.96 203.997C363.15 203.807 363.378 203.712 363.644 203.712C363.91 203.712 364.138 203.807 364.328 203.997C364.518 204.174 364.613 204.402 364.613 204.681C364.613 204.96 364.518 205.194 364.328 205.384C364.138 205.574 363.91 205.669 363.644 205.669ZM364.309 207.626V218H362.979V207.626H364.309ZM372.335 207.436C373.576 207.436 374.589 207.822 375.375 208.595C376.16 209.355 376.553 210.463 376.553 211.92V218H375.242V212.072C375.242 210.945 374.957 210.083 374.387 209.488C373.829 208.893 373.063 208.595 372.088 208.595C371.087 208.595 370.289 208.912 369.694 209.545C369.098 210.178 368.801 211.109 368.801 212.338V218H367.471V207.626H368.801V209.393C369.13 208.76 369.605 208.278 370.226 207.949C370.846 207.607 371.549 207.436 372.335 207.436Z" fill="black"/>
<rect x="253" y="341" width="200" height="60" rx="30" fill="white"/>
<path d="M330.85 376.917H335.619V378H329.52V364.719H330.85V376.917ZM342.208 378.152C341.233 378.152 340.352 377.937 339.567 377.506C338.794 377.063 338.18 376.442 337.724 375.644C337.281 374.833 337.059 373.89 337.059 372.813C337.059 371.736 337.287 370.799 337.743 370.001C338.199 369.19 338.82 368.57 339.605 368.139C340.39 367.696 341.271 367.474 342.246 367.474C343.221 367.474 344.102 367.696 344.887 368.139C345.685 368.57 346.306 369.19 346.749 370.001C347.205 370.799 347.433 371.736 347.433 372.813C347.433 373.877 347.205 374.814 346.749 375.625C346.293 376.436 345.666 377.063 344.868 377.506C344.07 377.937 343.183 378.152 342.208 378.152ZM342.208 376.993C342.892 376.993 343.525 376.841 344.108 376.537C344.691 376.22 345.159 375.752 345.514 375.131C345.881 374.498 346.065 373.725 346.065 372.813C346.065 371.901 345.888 371.135 345.533 370.514C345.178 369.881 344.71 369.412 344.127 369.108C343.544 368.791 342.911 368.633 342.227 368.633C341.543 368.633 340.91 368.791 340.327 369.108C339.744 369.412 339.276 369.881 338.921 370.514C338.579 371.135 338.408 371.901 338.408 372.813C338.408 373.725 338.579 374.498 338.921 375.131C339.276 375.752 339.738 376.22 340.308 376.537C340.891 376.841 341.524 376.993 342.208 376.993ZM354.358 367.474C355.334 367.474 356.182 367.702 356.904 368.158C357.626 368.614 358.146 369.19 358.462 369.887V367.626H359.792V378.266C359.792 379.216 359.583 380.058 359.165 380.793C358.76 381.528 358.19 382.091 357.455 382.484C356.721 382.889 355.885 383.092 354.947 383.092C353.617 383.092 352.509 382.775 351.622 382.142C350.748 381.509 350.204 380.647 349.988 379.558H351.299C351.527 380.28 351.958 380.856 352.591 381.287C353.237 381.718 354.023 381.933 354.947 381.933C355.619 381.933 356.22 381.787 356.752 381.496C357.284 381.217 357.702 380.799 358.007 380.242C358.31 379.685 358.462 379.026 358.462 378.266V375.701C358.133 376.41 357.607 376.999 356.885 377.468C356.176 377.924 355.334 378.152 354.358 378.152C353.408 378.152 352.553 377.93 351.793 377.487C351.046 377.044 350.457 376.417 350.026 375.606C349.608 374.795 349.399 373.858 349.399 372.794C349.399 371.73 349.608 370.799 350.026 370.001C350.457 369.19 351.046 368.57 351.793 368.139C352.553 367.696 353.408 367.474 354.358 367.474ZM358.462 372.813C358.462 371.977 358.291 371.242 357.949 370.609C357.607 369.976 357.139 369.488 356.543 369.146C355.961 368.804 355.315 368.633 354.605 368.633C353.871 368.633 353.212 368.798 352.629 369.127C352.047 369.456 351.584 369.938 351.242 370.571C350.913 371.192 350.748 371.933 350.748 372.794C350.748 373.643 350.913 374.39 351.242 375.036C351.584 375.669 352.047 376.157 352.629 376.499C353.212 376.828 353.871 376.993 354.605 376.993C355.315 376.993 355.961 376.822 356.543 376.48C357.139 376.138 357.607 375.65 357.949 375.017C358.291 374.384 358.462 373.649 358.462 372.813ZM363.644 365.669C363.378 365.669 363.15 365.574 362.96 365.384C362.77 365.194 362.675 364.96 362.675 364.681C362.675 364.402 362.77 364.174 362.96 363.997C363.15 363.807 363.378 363.712 363.644 363.712C363.91 363.712 364.138 363.807 364.328 363.997C364.518 364.174 364.613 364.402 364.613 364.681C364.613 364.96 364.518 365.194 364.328 365.384C364.138 365.574 363.91 365.669 363.644 365.669ZM364.309 367.626V378H362.979V367.626H364.309ZM372.335 367.436C373.576 367.436 374.589 367.822 375.375 368.595C376.16 369.355 376.553 370.463 376.553 371.92V378H375.242V372.072C375.242 370.945 374.957 370.083 374.387 369.488C373.829 368.893 373.063 368.595 372.088 368.595C371.087 368.595 370.289 368.912 369.694 369.545C369.098 370.178 368.801 371.109 368.801 372.338V378H367.471V367.626H368.801V369.393C369.13 368.76 369.605 368.278 370.226 367.949C370.846 367.607 371.549 367.436 372.335 367.436Z" fill="black"/>
<rect x="253" y="261" width="200" height="60" rx="30" fill="white"/>
<path d="M330.85 296.917H335.619V298H329.52V284.719H330.85V296.917ZM342.208 298.152C341.233 298.152 340.352 297.937 339.567 297.506C338.794 297.063 338.18 296.442 337.724 295.644C337.281 294.833 337.059 293.89 337.059 292.813C337.059 291.736 337.287 290.799 337.743 290.001C338.199 289.19 338.82 288.57 339.605 288.139C340.39 287.696 341.271 287.474 342.246 287.474C343.221 287.474 344.102 287.696 344.887 288.139C345.685 288.57 346.306 289.19 346.749 290.001C347.205 290.799 347.433 291.736 347.433 292.813C347.433 293.877 347.205 294.814 346.749 295.625C346.293 296.436 345.666 297.063 344.868 297.506C344.07 297.937 343.183 298.152 342.208 298.152ZM342.208 296.993C342.892 296.993 343.525 296.841 344.108 296.537C344.691 296.22 345.159 295.752 345.514 295.131C345.881 294.498 346.065 293.725 346.065 292.813C346.065 291.901 345.888 291.135 345.533 290.514C345.178 289.881 344.71 289.412 344.127 289.108C343.544 288.791 342.911 288.633 342.227 288.633C341.543 288.633 340.91 288.791 340.327 289.108C339.744 289.412 339.276 289.881 338.921 290.514C338.579 291.135 338.408 291.901 338.408 292.813C338.408 293.725 338.579 294.498 338.921 295.131C339.276 295.752 339.738 296.22 340.308 296.537C340.891 296.841 341.524 296.993 342.208 296.993ZM354.358 287.474C355.334 287.474 356.182 287.702 356.904 288.158C357.626 288.614 358.146 289.19 358.462 289.887V287.626H359.792V298.266C359.792 299.216 359.583 300.058 359.165 300.793C358.76 301.528 358.19 302.091 357.455 302.484C356.721 302.889 355.885 303.092 354.947 303.092C353.617 303.092 352.509 302.775 351.622 302.142C350.748 301.509 350.204 300.647 349.988 299.558H351.299C351.527 300.28 351.958 300.856 352.591 301.287C353.237 301.718 354.023 301.933 354.947 301.933C355.619 301.933 356.22 301.787 356.752 301.496C357.284 301.217 357.702 300.799 358.007 300.242C358.31 299.685 358.462 299.026 358.462 298.266V295.701C358.133 296.41 357.607 296.999 356.885 297.468C356.176 297.924 355.334 298.152 354.358 298.152C353.408 298.152 352.553 297.93 351.793 297.487C351.046 297.044 350.457 296.417 350.026 295.606C349.608 294.795 349.399 293.858 349.399 292.794C349.399 291.73 349.608 290.799 350.026 290.001C350.457 289.19 351.046 288.57 351.793 288.139C352.553 287.696 353.408 287.474 354.358 287.474ZM358.462 292.813C358.462 291.977 358.291 291.242 357.949 290.609C357.607 289.976 357.139 289.488 356.543 289.146C355.961 288.804 355.315 288.633 354.605 288.633C353.871 288.633 353.212 288.798 352.629 289.127C352.047 289.456 351.584 289.938 351.242 290.571C350.913 291.192 350.748 291.933 350.748 292.794C350.748 293.643 350.913 294.39 351.242 295.036C351.584 295.669 352.047 296.157 352.629 296.499C353.212 296.828 353.871 296.993 354.605 296.993C355.315 296.993 355.961 296.822 356.543 296.48C357.139 296.138 357.607 295.65 357.949 295.017C358.291 294.384 358.462 293.649 358.462 292.813ZM363.644 285.669C363.378 285.669 363.15 285.574 362.96 285.384C362.77 285.194 362.675 284.96 362.675 284.681C362.675 284.402 362.77 284.174 362.96 283.997C363.15 283.807 363.378 283.712 363.644 283.712C363.91 283.712 364.138 283.807 364.328 283.997C364.518 284.174 364.613 284.402 364.613 284.681C364.613 284.96 364.518 285.194 364.328 285.384C364.138 285.574 363.91 285.669 363.644 285.669ZM364.309 287.626V298H362.979V287.626H364.309ZM372.335 287.436C373.576 287.436 374.589 287.822 375.375 288.595C376.16 289.355 376.553 290.463 376.553 291.92V298H375.242V292.072C375.242 290.945 374.957 290.083 374.387 289.488C373.829 288.893 373.063 288.595 372.088 288.595C371.087 288.595 370.289 288.912 369.694 289.545C369.098 290.178 368.801 291.109 368.801 292.338V298H367.471V287.626H368.801V289.393C369.13 288.76 369.605 288.278 370.226 287.949C370.846 287.607 371.549 287.436 372.335 287.436Z" fill="black"/>
<rect x="500" y="6" width="200" height="60" rx="30" fill="white"/>
<path d="M577.85 41.917H582.619V43H576.52V29.719H577.85V41.917ZM589.208 43.152C588.233 43.152 587.352 42.9367 586.567 42.506C585.794 42.0627 585.18 41.442 584.724 40.644C584.281 39.8333 584.059 38.8897 584.059 37.813C584.059 36.7363 584.287 35.799 584.743 35.001C585.199 34.1903 585.82 33.5697 586.605 33.139C587.39 32.6957 588.271 32.474 589.246 32.474C590.221 32.474 591.102 32.6957 591.887 33.139C592.685 33.5697 593.306 34.1903 593.749 35.001C594.205 35.799 594.433 36.7363 594.433 37.813C594.433 38.877 594.205 39.8143 593.749 40.625C593.293 41.4357 592.666 42.0627 591.868 42.506C591.07 42.9367 590.183 43.152 589.208 43.152ZM589.208 41.993C589.892 41.993 590.525 41.841 591.108 41.537C591.691 41.2203 592.159 40.7517 592.514 40.131C592.881 39.4977 593.065 38.725 593.065 37.813C593.065 36.901 592.888 36.1347 592.533 35.514C592.178 34.8807 591.71 34.412 591.127 34.108C590.544 33.7913 589.911 33.633 589.227 33.633C588.543 33.633 587.91 33.7913 587.327 34.108C586.744 34.412 586.276 34.8807 585.921 35.514C585.579 36.1347 585.408 36.901 585.408 37.813C585.408 38.725 585.579 39.4977 585.921 40.131C586.276 40.7517 586.738 41.2203 587.308 41.537C587.891 41.841 588.524 41.993 589.208 41.993ZM601.358 32.474C602.334 32.474 603.182 32.702 603.904 33.158C604.626 33.614 605.146 34.1903 605.462 34.887V32.626H606.792V43.266C606.792 44.216 606.583 45.0583 606.165 45.793C605.76 46.5277 605.19 47.0913 604.455 47.484C603.721 47.8893 602.885 48.092 601.947 48.092C600.617 48.092 599.509 47.7753 598.622 47.142C597.748 46.5087 597.204 45.6473 596.988 44.558H598.299C598.527 45.28 598.958 45.8563 599.591 46.287C600.237 46.7177 601.023 46.933 601.947 46.933C602.619 46.933 603.22 46.7873 603.752 46.496C604.284 46.2173 604.702 45.7993 605.007 45.242C605.31 44.6847 605.462 44.026 605.462 43.266V40.701C605.133 41.4103 604.607 41.9993 603.885 42.468C603.176 42.924 602.334 43.152 601.358 43.152C600.408 43.152 599.553 42.9303 598.793 42.487C598.046 42.0437 597.457 41.4167 597.026 40.606C596.608 39.7953 596.399 38.858 596.399 37.794C596.399 36.73 596.608 35.799 597.026 35.001C597.457 34.1903 598.046 33.5697 598.793 33.139C599.553 32.6957 600.408 32.474 601.358 32.474ZM605.462 37.813C605.462 36.977 605.291 36.2423 604.949 35.609C604.607 34.9757 604.139 34.488 603.543 34.146C602.961 33.804 602.315 33.633 601.605 33.633C600.871 33.633 600.212 33.7977 599.629 34.127C599.047 34.4563 598.584 34.9377 598.242 35.571C597.913 36.1917 597.748 36.9327 597.748 37.794C597.748 38.6427 597.913 39.39 598.242 40.036C598.584 40.6693 599.047 41.157 599.629 41.499C600.212 41.8283 600.871 41.993 601.605 41.993C602.315 41.993 602.961 41.822 603.543 41.48C604.139 41.138 604.607 40.6503 604.949 40.017C605.291 39.3837 605.462 38.649 605.462 37.813ZM610.644 30.669C610.378 30.669 610.15 30.574 609.96 30.384C609.77 30.194 609.675 29.9597 609.675 29.681C609.675 29.4023 609.77 29.1743 609.96 28.997C610.15 28.807 610.378 28.712 610.644 28.712C610.91 28.712 611.138 28.807 611.328 28.997C611.518 29.1743 611.613 29.4023 611.613 29.681C611.613 29.9597 611.518 30.194 611.328 30.384C611.138 30.574 610.91 30.669 610.644 30.669ZM611.309 32.626V43H609.979V32.626H611.309ZM619.335 32.436C620.576 32.436 621.589 32.8223 622.375 33.595C623.16 34.355 623.553 35.4633 623.553 36.92V43H622.242V37.072C622.242 35.9447 621.957 35.0833 621.387 34.488C620.829 33.8927 620.063 33.595 619.088 33.595C618.087 33.595 617.289 33.9117 616.694 34.545C616.098 35.1783 615.801 36.1093 615.801 37.338V43H614.471V32.626H615.801V34.393C616.13 33.7597 616.605 33.2783 617.226 32.949C617.846 32.607 618.549 32.436 619.335 32.436Z" fill="black"/>
<rect x="500" y="86" width="200" height="60" rx="30" fill="white"/>
<path d="M577.85 121.917H582.619V123H576.52V109.719H577.85V121.917ZM589.208 123.152C588.233 123.152 587.352 122.937 586.567 122.506C585.794 122.063 585.18 121.442 584.724 120.644C584.281 119.833 584.059 118.89 584.059 117.813C584.059 116.736 584.287 115.799 584.743 115.001C585.199 114.19 585.82 113.57 586.605 113.139C587.39 112.696 588.271 112.474 589.246 112.474C590.221 112.474 591.102 112.696 591.887 113.139C592.685 113.57 593.306 114.19 593.749 115.001C594.205 115.799 594.433 116.736 594.433 117.813C594.433 118.877 594.205 119.814 593.749 120.625C593.293 121.436 592.666 122.063 591.868 122.506C591.07 122.937 590.183 123.152 589.208 123.152ZM589.208 121.993C589.892 121.993 590.525 121.841 591.108 121.537C591.691 121.22 592.159 120.752 592.514 120.131C592.881 119.498 593.065 118.725 593.065 117.813C593.065 116.901 592.888 116.135 592.533 115.514C592.178 114.881 591.71 114.412 591.127 114.108C590.544 113.791 589.911 113.633 589.227 113.633C588.543 113.633 587.91 113.791 587.327 114.108C586.744 114.412 586.276 114.881 585.921 115.514C585.579 116.135 585.408 116.901 585.408 117.813C585.408 118.725 585.579 119.498 585.921 120.131C586.276 120.752 586.738 121.22 587.308 121.537C587.891 121.841 588.524 121.993 589.208 121.993ZM601.358 112.474C602.334 112.474 603.182 112.702 603.904 113.158C604.626 113.614 605.146 114.19 605.462 114.887V112.626H606.792V123.266C606.792 124.216 606.583 125.058 606.165 125.793C605.76 126.528 605.19 127.091 604.455 127.484C603.721 127.889 602.885 128.092 601.947 128.092C600.617 128.092 599.509 127.775 598.622 127.142C597.748 126.509 597.204 125.647 596.988 124.558H598.299C598.527 125.28 598.958 125.856 599.591 126.287C600.237 126.718 601.023 126.933 601.947 126.933C602.619 126.933 603.22 126.787 603.752 126.496C604.284 126.217 604.702 125.799 605.007 125.242C605.31 124.685 605.462 124.026 605.462 123.266V120.701C605.133 121.41 604.607 121.999 603.885 122.468C603.176 122.924 602.334 123.152 601.358 123.152C600.408 123.152 599.553 122.93 598.793 122.487C598.046 122.044 597.457 121.417 597.026 120.606C596.608 119.795 596.399 118.858 596.399 117.794C596.399 116.73 596.608 115.799 597.026 115.001C597.457 114.19 598.046 113.57 598.793 113.139C599.553 112.696 600.408 112.474 601.358 112.474ZM605.462 117.813C605.462 116.977 605.291 116.242 604.949 115.609C604.607 114.976 604.139 114.488 603.543 114.146C602.961 113.804 602.315 113.633 601.605 113.633C600.871 113.633 600.212 113.798 599.629 114.127C599.047 114.456 598.584 114.938 598.242 115.571C597.913 116.192 597.748 116.933 597.748 117.794C597.748 118.643 597.913 119.39 598.242 120.036C598.584 120.669 599.047 121.157 599.629 121.499C600.212 121.828 600.871 121.993 601.605 121.993C602.315 121.993 602.961 121.822 603.543 121.48C604.139 121.138 604.607 120.65 604.949 120.017C605.291 119.384 605.462 118.649 605.462 117.813ZM610.644 110.669C610.378 110.669 610.15 110.574 609.96 110.384C609.77 110.194 609.675 109.96 609.675 109.681C609.675 109.402 609.77 109.174 609.96 108.997C610.15 108.807 610.378 108.712 610.644 108.712C610.91 108.712 611.138 108.807 611.328 108.997C611.518 109.174 611.613 109.402 611.613 109.681C611.613 109.96 611.518 110.194 611.328 110.384C611.138 110.574 610.91 110.669 610.644 110.669ZM611.309 112.626V123H609.979V112.626H611.309ZM619.335 112.436C620.576 112.436 621.589 112.822 622.375 113.595C623.16 114.355 623.553 115.463 623.553 116.92V123H622.242V117.072C622.242 115.945 621.957 115.083 621.387 114.488C620.829 113.893 620.063 113.595 619.088 113.595C618.087 113.595 617.289 113.912 616.694 114.545C616.098 115.178 615.801 116.109 615.801 117.338V123H614.471V112.626H615.801V114.393C616.13 113.76 616.605 113.278 617.226 112.949C617.846 112.607 618.549 112.436 619.335 112.436Z" fill="black"/>
<path d="M206 196H218.587C226.871 196 233.587 189.284 233.587 181V66C233.587 57.7157 240.303 51 248.587 51H253" stroke="black"/>
<path d="M453 131H465.587C473.871 131 480.587 124.284 480.587 116V51C480.587 42.7157 487.303 36 495.587 36H500" stroke="black"/>
<path d="M700 116H712.587C720.871 116 727.587 109.284 727.587 101V66C727.587 57.7157 734.303 51 742.587 51H747" stroke="black"/>
<path d="M947 373H959.587C967.871 373 974.587 366.284 974.587 358V51C974.587 42.7157 981.303 36 989.587 36H994" stroke="black"/>
<path d="M1194 436H1206.59C1214.87 436 1221.59 429.284 1221.59 421V146C1221.59 137.716 1228.3 131 1236.59 131H1241" stroke="black"/>
<line x1="206" y1="115.5" x2="233" y2="115.5" stroke="black"/>
</g>
<defs>
<filter id="filter0_d" x="0" y="0" width="1447" height="472" filterUnits="userSpaceOnUse" color-interpolation-filters="sRGB">
<feFlood flood-opacity="0" result="BackgroundImageFix"/>
<feColorMatrix in="SourceAlpha" type="matrix" values="0 0 0 0 0 0 0 0 0 0 0 0 0 0 0 0 0 0 127 0"/>
<feOffset/>
<feGaussianBlur stdDeviation="3"/>
<feColorMatrix type="matrix" values="0 0 0 0 0 0 0 0 0 0 0 0 0 0 0 0 0 0 0.25 0"/>
<feBlend mode="normal" in2="BackgroundImageFix" result="effect1_dropShadow"/>
<feBlend mode="normal" in="SourceGraphic" in2="effect1_dropShadow" result="shape"/>
</filter>
</defs>
</svg>
