<svg width="399" height="306" viewBox="0 0 399 306" fill="none" xmlns="http://www.w3.org/2000/svg">
<path d="M132.959 246.007L135.864 244.127C126.123 227.55 123.218 206.017 123.218 182.604C123.218 148.082 129.541 109.459 129.541 76.1338C129.541 51.6953 126.123 30.333 114.331 15.4648C110.913 11.3633 106.812 8.9707 102.026 8.9707C100.488 8.9707 98.7793 9.1416 97.0703 9.6543C68.1885 17.5156 26.3184 97.8379 17.9443 199.693C12.9883 166.71 11.1084 138.512 11.1084 114.757C11.1084 54.7715 22.7295 22.8135 24.4385 12.7305C24.9512 11.1924 25.1221 9.6543 25.1221 8.28711C25.1221 3.50195 22.3877 0.254883 19.3115 0.254883C16.4062 0.254883 13.1592 2.98926 11.1084 9.4834C4.10156 33.2383 0 63.3164 0 96.2998C0 133.385 5.12695 174.059 16.9189 212.853L17.2607 214.22L20.3369 213.878C20.5078 213.707 20.5078 212.853 20.5078 212.853C22.7295 170.641 31.1035 129.112 45.459 89.4639C56.7383 57.8477 69.043 36.8271 85.1074 21.1045C89.3799 17.0029 93.8232 14.0977 97.9248 12.9014C99.1211 12.5596 100.317 12.3887 101.343 12.3887C105.103 12.3887 108.179 14.2686 110.4 18.1992C115.356 27.0859 117.065 39.2197 117.065 53.2334C117.065 82.9697 109.717 121.935 109.717 159.532C109.717 181.578 112.109 203.111 120.142 222.081C123.901 230.626 128.345 238.829 132.959 246.007ZM163.721 186.534C180.127 186.534 199.097 165.343 207.812 151.842L204.907 149.962C197.217 162.267 178.76 182.945 163.721 182.945C157.056 182.604 154.663 177.989 154.663 168.077C154.663 160.899 156.372 152.696 158.423 146.886C160.303 148.253 162.524 148.937 164.746 148.937C175 148.937 182.349 140.221 182.349 133.214C182.349 126.378 178.589 122.789 172.266 122.447C165.259 122.447 155.347 126.72 148.853 134.923C143.384 141.417 140.137 150.816 140.137 159.703C140.137 173.546 147.144 185.68 163.721 186.534ZM164.746 145.348C162.866 145.348 160.986 144.835 159.619 143.468C164.746 133.214 168.335 126.036 173.291 126.036C176.709 126.207 178.931 129.283 178.931 133.043C178.931 138.341 173.291 145.348 164.746 145.348ZM211.06 111.168C219.263 111.168 229.858 96.9834 229.858 87.9258C229.858 85.3623 229.004 83.3115 227.295 81.9443C226.099 81.0898 225.073 80.748 223.877 80.748C215.674 80.748 210.034 103.307 210.034 103.307C210.034 103.307 210.205 101.085 210.205 98.1797C210.205 92.54 209.351 84.166 204.565 84.166C203.54 84.166 202.515 84.5078 201.318 85.1914C199.609 86.2168 198.926 88.0967 198.926 90.6602C198.926 96.1289 202.173 103.99 205.42 108.092C206.958 110.143 209.009 111.168 211.06 111.168ZM217.212 190.978L219.092 190.807C221.484 190.636 224.048 189.269 226.953 187.047C238.403 177.647 243.53 162.608 247.803 150.475L244.556 149.278C240.454 161.07 235.498 175.597 224.731 184.483C222.168 186.534 219.946 187.56 218.066 187.56C215.845 187.389 214.307 185.509 213.281 183.8C211.914 181.236 211.23 175.597 211.23 168.248C211.23 156.456 212.939 140.562 215.503 127.916V127.574C215.503 125.011 210.889 123.302 207.129 123.302C204.736 123.302 202.686 123.985 202.173 125.694C200.977 132.188 200.122 140.392 200.122 148.766C200.122 168.248 204.053 188.414 213.965 190.636C213.965 190.636 215.332 190.978 217.212 190.978ZM249.17 305.138C263.354 305.138 286.255 294.2 302.832 255.235C311.206 235.24 314.966 215.245 314.966 194.566C314.966 190.636 314.966 186.705 314.624 182.604C326.074 174.4 336.157 165.001 338.037 151.158L334.619 150.646C333.081 162.608 324.536 171.153 314.282 178.673C312.061 160.729 308.301 144.664 299.756 128.6C298.901 127.062 296.509 121.935 291.895 120.226C291.04 119.884 290.186 119.713 289.331 119.713C286.426 119.713 284.375 121.935 284.204 125.182L283.521 126.891C281.641 122.618 276.685 119.884 270.874 119.884C260.278 119.884 246.436 128.6 240.796 151.671C239.941 155.089 239.771 158.336 239.771 161.412C239.771 170.299 242.676 177.477 245.581 180.553C246.948 181.92 248.486 182.604 250.366 182.604H250.708C254.468 182.604 257.031 180.04 259.424 177.306C270.874 163.463 278.564 147.057 285.571 130.821C286.768 133.385 299.414 152.525 302.319 186.705C272.412 206.188 260.107 211.485 247.119 224.303C231.567 239.513 223.877 258.824 223.877 274.889C223.877 288.39 229.346 299.498 240.283 303.6C241.138 303.771 241.821 304.112 242.505 304.283C244.385 304.796 246.606 305.138 249.17 305.138ZM250.708 179.186H250.366C249.341 179.015 248.486 178.673 248.486 176.793L248.657 175.255C249.683 167.564 251.904 162.267 254.468 156.114C261.475 140.221 265.918 131.163 274.463 127.745C275.488 127.232 276.514 127.062 277.368 127.062C279.077 127.062 280.444 127.745 280.957 129.454L282.666 128.6C275.659 145.006 268.14 161.412 256.689 175.084C255.151 177.135 253.271 179.186 250.708 179.186ZM247.461 301.207C245.923 301.207 244.385 301.036 242.847 300.694L241.479 300.353C232.08 296.764 227.295 287.022 227.295 274.889C227.295 260.021 234.644 241.393 249.512 226.866C262.329 214.049 275.146 208.58 302.49 190.636L302.832 199.693C302.832 252.843 275.146 301.207 247.461 301.207ZM354.443 186.534C370.85 186.534 389.819 165.343 398.535 151.842L395.63 149.962C387.939 162.267 369.482 182.945 354.443 182.945C347.778 182.604 345.386 177.989 345.386 168.077C345.386 160.899 347.095 152.696 349.146 146.886C351.025 148.253 353.247 148.937 355.469 148.937C365.723 148.937 373.071 140.221 373.071 133.214C373.071 126.378 369.312 122.789 362.988 122.447C355.981 122.447 346.069 126.72 339.575 134.923C334.106 141.417 330.859 150.816 330.859 159.703C330.859 173.546 337.866 185.68 354.443 186.534ZM355.469 145.348C353.589 145.348 351.709 144.835 350.342 143.468C355.469 133.214 359.058 126.036 364.014 126.036C367.432 126.207 369.653 129.283 369.653 133.043C369.653 138.341 364.014 145.348 355.469 145.348ZM363.159 117.32L365.552 115.611L347.437 84.166C347.266 83.9951 346.924 83.8242 346.582 83.8242C344.019 83.8242 337.183 88.6094 337.183 90.6602L337.354 91.002C337.354 91.002 346.924 107.579 362.988 117.149L363.159 117.32Z" fill="#E0BEA4"/>
</svg>
