<svg width="400" height="366" viewBox="0 0 400 366" fill="none" xmlns="http://www.w3.org/2000/svg">
<path fill-rule="evenodd" clip-rule="evenodd" d="M201.554 283.55L201.243 109.195C201.243 109.195 140.622 121.005 130.362 139.964C120.103 158.922 102.072 180.056 108.29 208.027C114.508 236.309 124.767 258.376 138.445 269.564C152.124 281.063 157.72 285.104 157.72 285.104L168.29 341.979L179.793 343.844L183.834 358.762L213.679 359.383L220.518 344.154L232.953 340.425L241.347 284.482L201.554 283.55Z" fill="#FAFAFA"/>
<path fill-rule="evenodd" clip-rule="evenodd" d="M201.555 283.555L201.244 109.202C201.244 109.202 220.207 106.094 232.332 116.351C244.456 126.607 245.389 127.539 245.389 127.539C245.389 127.539 265.285 130.025 273.679 143.389C282.073 156.753 277.099 172.603 277.099 172.603C277.099 172.603 291.71 190.94 292.953 204.615C294.197 217.979 282.384 222.951 282.384 222.951C282.384 222.951 284.871 243.774 274.301 250.612C263.731 257.138 257.513 259.003 257.513 259.003C257.513 259.003 255.026 283.555 242.902 284.488C230.777 285.731 201.555 283.555 201.555 283.555Z" fill="#9FCED0"/>
<path d="M213.057 126.603C211.191 126.603 209.948 125.049 210.259 123.185C210.259 121.32 211.813 120.077 213.678 120.387C213.678 120.387 233.886 121.631 233.264 144.629C233.264 146.494 231.709 147.737 230.155 147.737C228.29 147.737 227.046 146.183 227.046 144.629C227.357 127.225 213.057 126.603 213.057 126.603ZM254.093 147.426C252.538 146.494 252.228 144.629 253.16 143.075C254.093 141.521 255.958 141.211 257.513 142.143C257.513 142.143 272.435 151.156 266.217 168.871C265.595 170.425 263.73 171.357 262.176 170.736C260.621 170.114 259.689 168.249 260.311 166.696C264.974 153.953 254.093 147.426 254.093 147.426ZM261.865 225.125C260.932 223.881 261.243 221.706 262.487 220.773C263.73 219.841 265.906 220.152 266.839 221.395C266.839 221.395 278.653 236.624 262.176 245.637C260.621 246.569 258.756 245.948 257.824 244.394C256.891 242.84 257.513 240.975 259.067 240.043C269.015 234.759 261.865 225.125 261.865 225.125Z" fill="#FAFAFA"/>
<path fill-rule="evenodd" clip-rule="evenodd" d="M169.223 203.676C163.316 201.501 157.409 197.771 153.368 192.177C149.327 186.272 149.016 181.299 150.57 178.191C151.192 176.948 152.124 176.016 153.057 175.394C153.99 174.773 155.233 174.462 156.166 174.462C158.964 174.462 161.762 176.637 164.249 181.61C166.736 186.893 168.29 194.663 169.223 203.676ZM181.036 206.473C179.793 194.663 177.928 184.096 174.508 176.948C170.156 167.624 163.316 163.584 156.788 163.273C153.368 163.273 150.259 163.895 147.461 165.76C144.663 167.314 142.487 169.8 140.933 172.908C137.513 179.434 137.824 188.758 144.663 198.393C151.503 208.027 161.14 213 170.777 215.486C171.71 228.85 171.71 243.457 171.71 256.51C171.71 264.591 172.021 273.604 172.021 279.509H183.523C183.213 273.293 183.213 264.591 183.213 256.51C183.213 244.079 183.213 230.404 182.28 217.662C187.254 217.972 192.228 218.283 195.337 217.972V206.473C191.917 207.095 186.321 207.095 181.036 206.473Z" fill="#9FCED0"/>
<path d="M211.813 348.196L210.881 353.79H200H189.119L188.187 348.196H200.311H211.813ZM165.803 291.943L165.492 289.767H199.689H233.886L232.021 301.888L165.803 291.943ZM229.223 321.157L168.912 311.833L167.668 303.442L230.466 313.077L229.223 321.157ZM138.756 140.588C153.057 126.291 172.642 116.968 194.093 115.414V278.268H160.207C146.218 271.12 134.404 260.242 126.321 246.878C118.238 233.825 113.575 218.285 113.575 201.503C113.575 177.883 123.212 156.438 138.756 140.588ZM205.596 278.579V206.475C211.503 210.205 219.585 212.691 230.155 209.894C233.264 209.273 235.13 206.165 234.197 203.057C233.575 199.949 230.466 198.084 227.358 199.016C215.233 202.124 208.083 194.665 205.596 191.868V114.481C211.503 113.86 222.694 114.171 232.332 122.873C243.523 133.129 237.617 149.601 235.751 153.952C226.425 150.222 217.409 152.398 217.409 152.398C214.301 153.019 212.435 156.127 213.057 159.235C213.679 162.343 216.788 164.208 219.896 163.586C219.896 163.586 227.358 162.032 234.197 166.383C240.104 170.113 239.482 178.504 239.482 178.504C239.171 181.612 241.658 184.409 244.767 184.72C247.876 185.031 250.674 182.545 250.984 179.437C250.984 179.437 251.917 168.559 245.078 160.789C245.078 160.478 245.389 160.478 245.389 160.168C245.389 160.168 251.606 147.114 249.741 133.44C252.228 134.061 254.715 134.683 256.891 135.615C261.554 137.791 265.596 141.209 268.394 145.25C271.192 149.29 272.746 154.263 273.057 159.546C273.057 163.897 272.124 168.248 269.948 172.91C268.705 175.707 269.948 179.126 272.746 180.369C273.057 180.68 273.679 180.68 274.301 180.68C278.342 181.301 281.451 183.477 283.627 186.585C285.492 188.76 286.736 191.557 287.358 194.976V195.287C287.979 198.395 287.979 201.814 287.358 204.922C286.736 208.651 285.181 212.38 282.694 215.799C279.586 210.516 274.922 205.543 268.394 201.503C265.596 199.949 262.176 200.57 260.622 203.368C259.067 206.165 259.689 209.583 262.487 211.137C271.813 217.042 275.855 225.123 275.855 232.893C275.855 236.311 274.922 239.419 273.368 242.216C271.813 245.013 269.637 247.5 267.15 249.365C261.865 253.094 253.782 254.337 244.456 250.918C244.767 249.054 245.078 247.189 245.078 245.324C245.078 239.73 242.591 234.447 241.347 232.271C239.793 229.474 236.373 228.542 233.575 230.096C230.777 231.649 229.845 235.068 231.399 237.865C232.332 239.108 233.575 242.216 233.575 245.635C233.575 247.5 233.264 249.365 232.021 251.229C231.088 252.472 230.155 253.716 228.912 254.648C227.358 255.891 225.492 256.824 223.938 257.756C221.14 258.999 219.896 262.418 221.14 265.215C222.383 268.012 225.803 269.255 228.601 268.012C230.777 267.08 233.264 265.526 235.751 263.661C236.684 263.039 237.617 262.107 238.549 261.175C244.456 263.35 250.052 264.593 255.026 264.593C253.472 270.187 249.741 278.579 240.415 279.2H205.596V278.579ZM199.378 104.225C172.642 104.536 148.394 115.414 130.984 132.818C113.264 150.533 102.383 175.086 102.383 201.814C102.383 220.772 107.668 238.176 116.995 253.094C126.01 267.701 138.756 279.822 153.99 287.903L162.383 343.534C162.694 346.331 165.181 348.507 167.979 348.507H176.373L178.549 360.628C178.86 363.425 181.347 365.6 184.145 365.6H199.689H215.233C218.031 365.6 220.207 363.735 220.829 360.938L223.316 348.507H231.71C234.508 348.507 236.995 346.331 237.306 343.534L245.699 289.457C262.176 285.727 266.218 268.323 267.15 261.796C269.326 260.864 271.503 259.931 273.368 258.377C277.72 255.58 281.14 251.54 283.316 247.189C285.492 242.838 287.047 237.865 287.047 232.582C287.047 231.028 287.047 229.163 286.736 227.609C293.264 221.704 296.995 214.245 298.238 206.475C299.171 201.814 298.86 196.841 297.927 192.179V191.868C296.995 187.206 294.819 182.855 292.021 179.126C289.534 175.707 286.114 172.91 282.073 171.045C283.316 166.694 283.938 162.654 283.938 158.614C283.938 151.155 281.451 144.007 277.409 138.102C273.368 132.197 267.772 127.535 261.244 124.427C256.269 122.251 250.984 120.697 245.078 120.386C243.523 117.9 241.658 115.725 239.482 113.549C223.627 99.8743 203.731 102.982 199.378 104.225ZM170.777 323.954L227.668 332.656L227.047 337.007H218.653H199.689H180.725H172.332L170.777 323.954Z" fill="#366B6D"/>
<g filter="url(#filter0_d)">
<path d="M292.021 99.5628C289.845 101.738 289.845 105.468 292.021 107.643C294.197 109.819 297.928 109.819 300.104 107.643L327.461 80.2937C329.637 78.1182 329.637 74.3887 327.461 72.2131C325.285 70.0376 321.554 70.0376 319.378 72.2131L292.021 99.5628ZM100.518 108.265C102.694 110.441 106.425 110.441 108.601 108.265C110.777 106.089 110.777 102.36 108.601 100.184L80.6218 72.2131C78.4456 70.0376 74.715 70.0376 72.5388 72.2131C70.3627 74.3887 70.3627 78.1182 72.5388 80.2937L100.518 108.265ZM336.166 193.733C333.057 193.733 330.57 196.219 330.57 199.327C330.57 202.435 333.057 204.921 336.166 204.921H374.404C377.513 204.921 380 202.435 380 199.327C380 196.219 377.513 193.733 374.404 193.733H336.166ZM65.0777 205.232C68.1865 205.232 70.6735 202.746 70.6735 199.638C70.6735 196.53 68.1865 194.044 65.0777 194.044H25.5958C22.487 194.044 20 196.53 20 199.638C20 202.746 22.487 205.232 25.5958 205.232H65.0777ZM300.725 291.633C298.549 289.457 294.819 289.457 292.642 291.633C290.466 293.808 290.466 297.538 292.642 299.713L319.378 326.441C321.554 328.617 325.285 328.617 327.461 326.441C329.637 324.266 329.637 320.536 327.461 318.361L300.725 291.633ZM107.979 299.092C110.155 296.916 110.155 293.187 107.979 291.011C105.803 288.835 102.073 288.835 99.8964 291.011L72.5388 318.361C70.3627 320.536 70.3627 324.266 72.5388 326.441C74.715 328.617 78.4456 328.617 80.6218 326.441L107.979 299.092ZM194.404 64.4433C194.404 67.5512 196.891 70.0376 200 70.0376C203.109 70.0376 205.596 67.5512 205.596 64.4433V25.5943C205.596 22.4863 203.109 20 200 20C196.891 20 194.404 22.4863 194.404 25.5943V64.4433Z" fill="#9FCED0"/>
</g>
<defs>
<filter id="filter0_d" x="0" y="0" width="400" height="348.073" filterUnits="userSpaceOnUse" color-interpolation-filters="sRGB">
<feFlood flood-opacity="0" result="BackgroundImageFix"/>
<feColorMatrix in="SourceAlpha" type="matrix" values="0 0 0 0 0 0 0 0 0 0 0 0 0 0 0 0 0 0 127 0"/>
<feOffset/>
<feGaussianBlur stdDeviation="10"/>
<feColorMatrix type="matrix" values="0 0 0 0 0.623529 0 0 0 0 0.807843 0 0 0 0 0.815686 0 0 0 0.2 0"/>
<feBlend mode="normal" in2="BackgroundImageFix" result="effect1_dropShadow"/>
<feBlend mode="normal" in="SourceGraphic" in2="effect1_dropShadow" result="shape"/>
</filter>
</defs>
</svg>
