<svg width="240" height="462" viewBox="0 0 240 462" fill="none" xmlns="http://www.w3.org/2000/svg">
<rect x="10.5" y="0.5" width="219" height="39" rx="4.5" fill="white"/>
<rect x="10.5" y="0.5" width="219" height="39" rx="4.5" stroke="#6A6A6A"/>
<path d="M26.1949 22.2172L31.5859 16.8288C31.6401 16.7749 31.7024 16.7345 31.773 16.7078C31.8431 16.6806 31.9161 16.667 31.9919 16.667C32.0677 16.667 32.1408 16.6806 32.2114 16.7078C32.2816 16.7345 32.3437 16.7749 32.3978 16.8288L37.8051 22.2172C37.935 22.3466 38 22.4976 38 22.6702C38 22.8428 37.9296 22.9992 37.7889 23.1395C37.6698 23.2689 37.5211 23.3337 37.3427 23.3337C37.1638 23.3337 37.0095 23.2689 36.8796 23.1395L31.9919 18.2528L27.088 23.1395C26.9689 23.2581 26.8227 23.3175 26.6495 23.3175C26.4763 23.3175 26.3248 23.2528 26.1949 23.1233C26.065 22.9939 26 22.8428 26 22.6702C26 22.4976 26.065 22.3466 26.1949 22.2172Z" fill="#161616"/>
<path d="M170.302 23.9541V25H164.266V23.9541H166.72V16.5439L164.546 18.0957V16.9336L166.822 15.3682H167.957V23.9541H170.302ZM182.647 20.085V25H181.383V20.0713C181.383 19.2327 181.212 18.6403 180.87 18.2939C180.533 17.9476 179.947 17.7744 179.113 17.7744H175.928V16.6123H179.134C179.972 16.6123 180.649 16.7308 181.164 16.9678C181.679 17.2002 182.055 17.5716 182.292 18.082C182.529 18.5879 182.647 19.2555 182.647 20.085ZM177.322 19.5518V25H176.064V19.5518H177.322ZM185.922 16.6123V21.0215H184.664V16.6123H185.922ZM194.426 23.9199V25H187.973V23.8379H192.86L187.467 16.6123H189.039L191.644 20.1533C191.994 20.0029 192.25 19.7819 192.409 19.4902C192.569 19.194 192.676 18.7428 192.73 18.1367L192.888 16.6123H194.187L194.05 18.1094C193.991 18.7383 193.897 19.2214 193.77 19.5586C193.642 19.8913 193.462 20.167 193.229 20.3857C192.997 20.6045 192.669 20.7982 192.245 20.9668L194.426 23.9199ZM201.521 20.3379C201.521 19.4766 201.332 18.834 200.954 18.4102C200.576 17.9863 199.981 17.7744 199.17 17.7744H197.283V20.1396H198.944V21.3018H196.005V16.6123H199.184C200.405 16.6123 201.312 16.9176 201.904 17.5283C202.501 18.1344 202.8 19.0801 202.8 20.3652V20.9258C202.8 23.6419 201.515 25 198.944 25H196.08V23.8379H198.979C199.844 23.8379 200.485 23.5986 200.899 23.1201C201.314 22.637 201.521 21.9102 201.521 20.9395V20.3379ZM206.02 16.6123V25H204.762V16.6123H206.02ZM209.533 22.2451L208.986 25H207.66L208.234 22.2725C208.398 21.4886 208.549 20.9372 208.686 20.6182C208.822 20.2946 208.993 20.0326 209.198 19.832C209.408 19.6315 209.688 19.4606 210.039 19.3193L208.063 16.6123H209.615L212.698 20.8574C213.04 20.5384 213.311 20.1533 213.512 19.7021C213.717 19.2464 213.851 18.7246 213.915 18.1367L214.072 16.6123H215.371L215.214 18.1094C215.164 18.6107 215.073 19.0505 214.94 19.4287C214.849 19.6885 214.74 19.9368 214.612 20.1738C214.485 20.4062 214.321 20.6478 214.12 20.8984C213.924 21.1491 213.669 21.4294 213.354 21.7393L215.822 25H214.223L210.613 20.0986C210.249 20.2764 209.989 20.584 209.834 21.0215C209.788 21.1354 209.741 21.2949 209.69 21.5C209.645 21.7051 209.592 21.9535 209.533 22.2451Z" fill="#161616"/>
<g filter="url(#filter0_d_7_5064)">
<g clip-path="url(#clip0_7_5064)">
<rect x="10" y="46" width="220" height="196" rx="5" fill="white"/>
<rect width="220" height="36" transform="translate(10 54)" fill="#F7F7F7"/>
<mask id="mask0_7_5064" style="mask-type:alpha" maskUnits="userSpaceOnUse" x="18" y="62" width="20" height="20">
<rect x="18" y="62" width="20" height="20" fill="#2D7FAD"/>
</mask>
<g mask="url(#mask0_7_5064)">
<path d="M25.9585 76.7087L21.521 72.2712L22.396 71.3753L25.9585 74.9378L33.6043 67.292L34.4793 68.1878L25.9585 76.7087Z" fill="#2D7FAD"/>
</g>
<path d="M172.302 75.9541V77H166.266V75.9541H168.72V68.5439L166.546 70.0957V68.9336L168.822 67.3682H169.957V75.9541H172.302ZM184.647 72.085V77H183.383V72.0713C183.383 71.2327 183.212 70.6403 182.87 70.2939C182.533 69.9476 181.947 69.7744 181.113 69.7744H177.928V68.6123H181.134C181.972 68.6123 182.649 68.7308 183.164 68.9678C183.679 69.2002 184.055 69.5716 184.292 70.082C184.529 70.5879 184.647 71.2555 184.647 72.085ZM179.322 71.5518V77H178.064V71.5518H179.322ZM187.922 68.6123V73.0215H186.664V68.6123H187.922ZM196.426 75.9199V77H189.973V75.8379H194.86L189.467 68.6123H191.039L193.644 72.1533C193.994 72.0029 194.25 71.7819 194.409 71.4902C194.569 71.194 194.676 70.7428 194.73 70.1367L194.888 68.6123H196.187L196.05 70.1094C195.991 70.7383 195.897 71.2214 195.77 71.5586C195.642 71.8913 195.462 72.167 195.229 72.3857C194.997 72.6045 194.669 72.7982 194.245 72.9668L196.426 75.9199ZM203.521 72.3379C203.521 71.4766 203.332 70.834 202.954 70.4102C202.576 69.9863 201.981 69.7744 201.17 69.7744H199.283V72.1396H200.944V73.3018H198.005V68.6123H201.184C202.405 68.6123 203.312 68.9176 203.904 69.5283C204.501 70.1344 204.8 71.0801 204.8 72.3652V72.9258C204.8 75.6419 203.515 77 200.944 77H198.08V75.8379H200.979C201.844 75.8379 202.485 75.5986 202.899 75.1201C203.314 74.637 203.521 73.9102 203.521 72.9395V72.3379ZM208.02 68.6123V77H206.762V68.6123H208.02ZM211.533 74.2451L210.986 77H209.66L210.234 74.2725C210.398 73.4886 210.549 72.9372 210.686 72.6182C210.822 72.2946 210.993 72.0326 211.198 71.832C211.408 71.6315 211.688 71.4606 212.039 71.3193L210.063 68.6123H211.615L214.698 72.8574C215.04 72.5384 215.311 72.1533 215.512 71.7021C215.717 71.2464 215.851 70.7246 215.915 70.1367L216.072 68.6123H217.371L217.214 70.1094C217.164 70.6107 217.073 71.0505 216.94 71.4287C216.849 71.6885 216.74 71.9368 216.612 72.1738C216.485 72.4062 216.321 72.6478 216.12 72.8984C215.924 73.1491 215.669 73.4294 215.354 73.7393L217.822 77H216.223L212.613 72.0986C212.249 72.2764 211.989 72.584 211.834 73.0215C211.788 73.1354 211.741 73.2949 211.69 73.5C211.645 73.7051 211.592 73.9535 211.533 74.2451Z" fill="#2D7FAD"/>
<path d="M172.281 111.954V113H165.903V112.132C166.136 111.599 166.416 111.127 166.744 110.717C167.077 110.307 167.43 109.938 167.804 109.609C168.177 109.281 168.547 108.976 168.911 108.693C169.093 108.552 169.264 108.411 169.424 108.27C169.588 108.128 169.743 107.987 169.889 107.846C170.18 107.563 170.415 107.267 170.593 106.957C170.775 106.647 170.866 106.296 170.866 105.904C170.866 105.376 170.711 104.965 170.401 104.674C170.091 104.382 169.661 104.236 169.109 104.236C168.585 104.236 168.152 104.38 167.811 104.667C167.473 104.95 167.275 105.348 167.216 105.863L165.958 105.747C166.049 104.977 166.375 104.364 166.936 103.908C167.501 103.452 168.225 103.225 169.109 103.225C170.08 103.225 170.825 103.455 171.345 103.915C171.869 104.371 172.131 105.02 172.131 105.863C172.131 106.237 172.044 106.608 171.871 106.978C171.702 107.347 171.45 107.716 171.112 108.085C170.944 108.267 170.698 108.502 170.374 108.789C170.05 109.076 169.652 109.413 169.178 109.801C168.654 110.229 168.237 110.617 167.927 110.963C167.617 111.305 167.394 111.635 167.257 111.954H172.281ZM184.647 108.085V113H183.383V108.071C183.383 107.233 183.212 106.64 182.87 106.294C182.533 105.948 181.947 105.774 181.113 105.774H177.928V104.612H181.134C181.972 104.612 182.649 104.731 183.164 104.968C183.679 105.2 184.055 105.572 184.292 106.082C184.529 106.588 184.647 107.256 184.647 108.085ZM179.322 107.552V113H178.064V107.552H179.322ZM187.922 104.612V109.021H186.664V104.612H187.922ZM196.426 111.92V113H189.973V111.838H194.86L189.467 104.612H191.039L193.644 108.153C193.994 108.003 194.25 107.782 194.409 107.49C194.569 107.194 194.676 106.743 194.73 106.137L194.888 104.612H196.187L196.05 106.109C195.991 106.738 195.897 107.221 195.77 107.559C195.642 107.891 195.462 108.167 195.229 108.386C194.997 108.604 194.669 108.798 194.245 108.967L196.426 111.92ZM203.521 108.338C203.521 107.477 203.332 106.834 202.954 106.41C202.576 105.986 201.981 105.774 201.17 105.774H199.283V108.14H200.944V109.302H198.005V104.612H201.184C202.405 104.612 203.312 104.918 203.904 105.528C204.501 106.134 204.8 107.08 204.8 108.365V108.926C204.8 111.642 203.515 113 200.944 113H198.08V111.838H200.979C201.844 111.838 202.485 111.599 202.899 111.12C203.314 110.637 203.521 109.91 203.521 108.939V108.338ZM208.02 104.612V113H206.762V104.612H208.02ZM211.533 110.245L210.986 113H209.66L210.234 110.272C210.398 109.489 210.549 108.937 210.686 108.618C210.822 108.295 210.993 108.033 211.198 107.832C211.408 107.632 211.688 107.461 212.039 107.319L210.063 104.612H211.615L214.698 108.857C215.04 108.538 215.311 108.153 215.512 107.702C215.717 107.246 215.851 106.725 215.915 106.137L216.072 104.612H217.371L217.214 106.109C217.164 106.611 217.073 107.05 216.94 107.429C216.849 107.688 216.74 107.937 216.612 108.174C216.485 108.406 216.321 108.648 216.12 108.898C215.924 109.149 215.669 109.429 215.354 109.739L217.822 113H216.223L212.613 108.099C212.249 108.276 211.989 108.584 211.834 109.021C211.788 109.135 211.741 109.295 211.69 109.5C211.645 109.705 211.592 109.953 211.533 110.245Z" fill="#161616"/>
<path d="M172.37 146.341C172.37 147.229 172.088 147.918 171.522 148.405C170.957 148.893 170.151 149.137 169.103 149.137C168.127 149.137 167.348 148.918 166.765 148.48C166.186 148.038 165.842 147.387 165.732 146.525L167.004 146.409C167.168 147.549 167.868 148.118 169.103 148.118C169.722 148.118 170.208 147.965 170.559 147.66C170.914 147.355 171.092 146.901 171.092 146.3C171.092 145.776 170.889 145.368 170.483 145.076C170.082 144.78 169.501 144.632 168.74 144.632H168.043V143.565H168.713C169.387 143.565 169.909 143.42 170.278 143.128C170.652 142.832 170.839 142.424 170.839 141.904C170.839 141.389 170.686 140.984 170.381 140.688C170.08 140.387 169.631 140.236 169.034 140.236C168.492 140.236 168.052 140.375 167.715 140.653C167.382 140.931 167.188 141.323 167.134 141.829L165.896 141.733C165.988 140.945 166.313 140.33 166.874 139.888C167.439 139.446 168.164 139.225 169.048 139.225C170.014 139.225 170.764 139.45 171.297 139.901C171.835 140.348 172.104 140.972 172.104 141.774C172.104 142.39 171.93 142.891 171.584 143.278C171.242 143.661 170.743 143.921 170.087 144.058V144.085C170.807 144.162 171.368 144.404 171.769 144.81C172.17 145.215 172.37 145.726 172.37 146.341ZM184.647 144.085V149H183.383V144.071C183.383 143.233 183.212 142.64 182.87 142.294C182.533 141.948 181.947 141.774 181.113 141.774H177.928V140.612H181.134C181.972 140.612 182.649 140.731 183.164 140.968C183.679 141.2 184.055 141.572 184.292 142.082C184.529 142.588 184.647 143.256 184.647 144.085ZM179.322 143.552V149H178.064V143.552H179.322ZM187.922 140.612V145.021H186.664V140.612H187.922ZM196.426 147.92V149H189.973V147.838H194.86L189.467 140.612H191.039L193.644 144.153C193.994 144.003 194.25 143.782 194.409 143.49C194.569 143.194 194.676 142.743 194.73 142.137L194.888 140.612H196.187L196.05 142.109C195.991 142.738 195.897 143.221 195.77 143.559C195.642 143.891 195.462 144.167 195.229 144.386C194.997 144.604 194.669 144.798 194.245 144.967L196.426 147.92ZM203.521 144.338C203.521 143.477 203.332 142.834 202.954 142.41C202.576 141.986 201.981 141.774 201.17 141.774H199.283V144.14H200.944V145.302H198.005V140.612H201.184C202.405 140.612 203.312 140.918 203.904 141.528C204.501 142.134 204.8 143.08 204.8 144.365V144.926C204.8 147.642 203.515 149 200.944 149H198.08V147.838H200.979C201.844 147.838 202.485 147.599 202.899 147.12C203.314 146.637 203.521 145.91 203.521 144.939V144.338ZM208.02 140.612V149H206.762V140.612H208.02ZM211.533 146.245L210.986 149H209.66L210.234 146.272C210.398 145.489 210.549 144.937 210.686 144.618C210.822 144.295 210.993 144.033 211.198 143.832C211.408 143.632 211.688 143.461 212.039 143.319L210.063 140.612H211.615L214.698 144.857C215.04 144.538 215.311 144.153 215.512 143.702C215.717 143.246 215.851 142.725 215.915 142.137L216.072 140.612H217.371L217.214 142.109C217.164 142.611 217.073 143.05 216.94 143.429C216.849 143.688 216.74 143.937 216.612 144.174C216.485 144.406 216.321 144.648 216.12 144.898C215.924 145.149 215.669 145.429 215.354 145.739L217.822 149H216.223L212.613 144.099C212.249 144.276 211.989 144.584 211.834 145.021C211.788 145.135 211.741 145.295 211.69 145.5C211.645 145.705 211.592 145.953 211.533 146.245Z" fill="#161616"/>
<path d="M171.222 182.819V185H170.06V182.819H165.521V181.862L169.93 175.368H171.222V181.849H172.575V182.819H171.222ZM166.655 181.849H170.06V178.007C170.06 177.797 170.06 177.59 170.06 177.385C170.064 177.175 170.073 176.965 170.087 176.756C169.982 176.956 169.891 177.12 169.813 177.248C169.736 177.371 169.665 177.478 169.602 177.569L166.655 181.849ZM184.647 180.085V185H183.383V180.071C183.383 179.233 183.212 178.64 182.87 178.294C182.533 177.948 181.947 177.774 181.113 177.774H177.928V176.612H181.134C181.972 176.612 182.649 176.731 183.164 176.968C183.679 177.2 184.055 177.572 184.292 178.082C184.529 178.588 184.647 179.256 184.647 180.085ZM179.322 179.552V185H178.064V179.552H179.322ZM187.922 176.612V181.021H186.664V176.612H187.922ZM196.426 183.92V185H189.973V183.838H194.86L189.467 176.612H191.039L193.644 180.153C193.994 180.003 194.25 179.782 194.409 179.49C194.569 179.194 194.676 178.743 194.73 178.137L194.888 176.612H196.187L196.05 178.109C195.991 178.738 195.897 179.221 195.77 179.559C195.642 179.891 195.462 180.167 195.229 180.386C194.997 180.604 194.669 180.798 194.245 180.967L196.426 183.92ZM203.521 180.338C203.521 179.477 203.332 178.834 202.954 178.41C202.576 177.986 201.981 177.774 201.17 177.774H199.283V180.14H200.944V181.302H198.005V176.612H201.184C202.405 176.612 203.312 176.918 203.904 177.528C204.501 178.134 204.8 179.08 204.8 180.365V180.926C204.8 183.642 203.515 185 200.944 185H198.08V183.838H200.979C201.844 183.838 202.485 183.599 202.899 183.12C203.314 182.637 203.521 181.91 203.521 180.939V180.338ZM208.02 176.612V185H206.762V176.612H208.02ZM211.533 182.245L210.986 185H209.66L210.234 182.272C210.398 181.489 210.549 180.937 210.686 180.618C210.822 180.295 210.993 180.033 211.198 179.832C211.408 179.632 211.688 179.461 212.039 179.319L210.063 176.612H211.615L214.698 180.857C215.04 180.538 215.311 180.153 215.512 179.702C215.717 179.246 215.851 178.725 215.915 178.137L216.072 176.612H217.371L217.214 178.109C217.164 178.611 217.073 179.05 216.94 179.429C216.849 179.688 216.74 179.937 216.612 180.174C216.485 180.406 216.321 180.648 216.12 180.898C215.924 181.149 215.669 181.429 215.354 181.739L217.822 185H216.223L212.613 180.099C212.249 180.276 211.989 180.584 211.834 181.021C211.788 181.135 211.741 181.295 211.69 181.5C211.645 181.705 211.592 181.953 211.533 182.245Z" fill="#161616"/>
<path d="M172.397 217.862C172.397 218.879 172.094 219.678 171.488 220.262C170.887 220.845 170.05 221.137 168.979 221.137C168.082 221.137 167.357 220.941 166.806 220.549C166.254 220.157 165.906 219.59 165.76 218.847L167.004 218.703C167.136 219.177 167.368 219.535 167.701 219.776C168.034 220.013 168.469 220.132 169.007 220.132C169.668 220.132 170.185 219.934 170.559 219.537C170.932 219.136 171.119 218.587 171.119 217.89C171.119 217.284 170.93 216.794 170.552 216.42C170.178 216.046 169.672 215.859 169.034 215.859C168.701 215.859 168.392 215.912 168.104 216.017C167.817 216.121 167.53 216.299 167.243 216.55H166.04L166.361 211.368H171.837V212.414H167.482L167.298 215.47C167.831 215.06 168.494 214.854 169.287 214.854C169.921 214.854 170.47 214.982 170.935 215.237C171.399 215.488 171.759 215.839 172.015 216.29C172.27 216.741 172.397 217.265 172.397 217.862ZM184.647 216.085V221H183.383V216.071C183.383 215.233 183.212 214.64 182.87 214.294C182.533 213.948 181.947 213.774 181.113 213.774H177.928V212.612H181.134C181.972 212.612 182.649 212.731 183.164 212.968C183.679 213.2 184.055 213.572 184.292 214.082C184.529 214.588 184.647 215.256 184.647 216.085ZM179.322 215.552V221H178.064V215.552H179.322ZM187.922 212.612V217.021H186.664V212.612H187.922ZM196.426 219.92V221H189.973V219.838H194.86L189.467 212.612H191.039L193.644 216.153C193.994 216.003 194.25 215.782 194.409 215.49C194.569 215.194 194.676 214.743 194.73 214.137L194.888 212.612H196.187L196.05 214.109C195.991 214.738 195.897 215.221 195.77 215.559C195.642 215.891 195.462 216.167 195.229 216.386C194.997 216.604 194.669 216.798 194.245 216.967L196.426 219.92ZM203.521 216.338C203.521 215.477 203.332 214.834 202.954 214.41C202.576 213.986 201.981 213.774 201.17 213.774H199.283V216.14H200.944V217.302H198.005V212.612H201.184C202.405 212.612 203.312 212.918 203.904 213.528C204.501 214.134 204.8 215.08 204.8 216.365V216.926C204.8 219.642 203.515 221 200.944 221H198.08V219.838H200.979C201.844 219.838 202.485 219.599 202.899 219.12C203.314 218.637 203.521 217.91 203.521 216.939V216.338ZM208.02 212.612V221H206.762V212.612H208.02ZM211.533 218.245L210.986 221H209.66L210.234 218.272C210.398 217.489 210.549 216.937 210.686 216.618C210.822 216.295 210.993 216.033 211.198 215.832C211.408 215.632 211.688 215.461 212.039 215.319L210.063 212.612H211.615L214.698 216.857C215.04 216.538 215.311 216.153 215.512 215.702C215.717 215.246 215.851 214.725 215.915 214.137L216.072 212.612H217.371L217.214 214.109C217.164 214.611 217.073 215.05 216.94 215.429C216.849 215.688 216.74 215.937 216.612 216.174C216.485 216.406 216.321 216.648 216.12 216.898C215.924 217.149 215.669 217.429 215.354 217.739L217.822 221H216.223L212.613 216.099C212.249 216.276 211.989 216.584 211.834 217.021C211.788 217.135 211.741 217.295 211.69 217.5C211.645 217.705 211.592 217.953 211.533 218.245Z" fill="#161616"/>
</g>
</g>
<rect x="10.5" y="282.5" width="219" height="39" rx="3.5" fill="white"/>
<rect x="10.5" y="282.5" width="219" height="39" rx="3.5" stroke="#161616"/>
<path d="M24.1949 304.217L29.5859 298.829C29.6401 298.775 29.7024 298.735 29.773 298.708C29.8431 298.681 29.9161 298.667 29.9919 298.667C30.0677 298.667 30.1408 298.681 30.2114 298.708C30.2816 298.735 30.3437 298.775 30.3978 298.829L35.8051 304.217C35.935 304.347 36 304.498 36 304.67C36 304.843 35.9296 304.999 35.7889 305.139C35.6698 305.269 35.5211 305.334 35.3427 305.334C35.1638 305.334 35.0095 305.269 34.8796 305.139L29.9919 300.253L25.088 305.139C24.9689 305.258 24.8227 305.317 24.6495 305.317C24.4763 305.317 24.3248 305.253 24.1949 305.123C24.065 304.994 24 304.843 24 304.67C24 304.498 24.065 304.347 24.1949 304.217Z" fill="#161616"/>
<path d="M188.1 298.612V307H186.842V298.612H188.1ZM195.646 302.085V307H194.382V302.071C194.382 301.242 194.213 300.652 193.876 300.301C193.543 299.95 192.958 299.774 192.119 299.774H189.556V298.612H192.133C192.971 298.612 193.648 298.731 194.163 298.968C194.678 299.2 195.054 299.572 195.291 300.082C195.528 300.588 195.646 301.256 195.646 302.085ZM203.597 302.071C203.597 301.242 203.428 300.652 203.091 300.301C202.758 299.95 202.173 299.774 201.334 299.774H199.215V307H197.957V298.612H201.348C202.605 298.612 203.506 298.881 204.048 299.419C204.59 299.957 204.861 300.845 204.861 302.085V307H203.597V302.071ZM208.143 298.612V303.021H206.885V298.612H208.143ZM217.501 305.838V307H210.18V305.838H215.334V302.071C215.334 301.233 215.163 300.64 214.821 300.294C214.484 299.948 213.898 299.774 213.064 299.774H210.501V298.612H213.078C214.336 298.612 215.236 298.881 215.778 299.419C216.321 299.957 216.592 300.845 216.592 302.085V305.838H217.501Z" fill="#A0A0A0"/>
<g filter="url(#filter1_d_7_5064)">
<g clip-path="url(#clip1_7_5064)">
<rect x="10" y="328" width="220" height="124" rx="5" fill="white"/>
<path d="M151.829 357.954V359H145.793V357.954H148.247V350.544L146.073 352.096V350.934L148.35 349.368H149.484V357.954H151.829ZM164.175 354.085V359H162.91V354.071C162.91 353.233 162.739 352.64 162.397 352.294C162.06 351.948 161.475 351.774 160.641 351.774H157.455V350.612H160.661C161.5 350.612 162.176 350.731 162.691 350.968C163.206 351.2 163.582 351.572 163.819 352.082C164.056 352.588 164.175 353.256 164.175 354.085ZM158.85 353.552V359H157.592V353.552H158.85ZM171.223 354.085V359H169.958V354.071C169.958 353.242 169.789 352.652 169.452 352.301C169.119 351.95 168.534 351.774 167.695 351.774H165.132V350.612H167.709C168.548 350.612 169.224 350.731 169.739 350.968C170.254 351.2 170.63 351.572 170.867 352.082C171.104 352.588 171.223 353.256 171.223 354.085ZM175.215 350.612V355.021H173.957V350.612H175.215ZM183.233 354.071C183.233 353.242 183.065 352.652 182.728 352.301C182.395 351.95 181.809 351.774 180.971 351.774H178.852V359H177.594V350.612H180.984C182.242 350.612 183.142 350.881 183.685 351.419C184.227 351.957 184.498 352.845 184.498 354.085V359H183.233V354.071ZM193.501 357.838V359H186.18V357.838H191.334V354.071C191.334 353.233 191.163 352.64 190.821 352.294C190.484 351.948 189.898 351.774 189.064 351.774H186.501V350.612H189.078C190.336 350.612 191.236 350.881 191.778 351.419C192.321 351.957 192.592 352.845 192.592 354.085V357.838H193.501Z" fill="#161616"/>
<rect x="202.5" y="346.5" width="15" height="15" rx="3.5" fill="white" stroke="#C2C2C2"/>
<path d="M151.809 393.954V395H145.431V394.132C145.663 393.599 145.943 393.127 146.271 392.717C146.604 392.307 146.957 391.938 147.331 391.609C147.705 391.281 148.074 390.976 148.438 390.693C148.621 390.552 148.792 390.411 148.951 390.27C149.115 390.128 149.27 389.987 149.416 389.846C149.708 389.563 149.942 389.267 150.12 388.957C150.302 388.647 150.394 388.296 150.394 387.904C150.394 387.376 150.239 386.965 149.929 386.674C149.619 386.382 149.188 386.236 148.637 386.236C148.113 386.236 147.68 386.38 147.338 386.667C147.001 386.95 146.802 387.348 146.743 387.863L145.485 387.747C145.576 386.977 145.902 386.364 146.463 385.908C147.028 385.452 147.753 385.225 148.637 385.225C149.607 385.225 150.353 385.455 150.872 385.915C151.396 386.371 151.658 387.02 151.658 387.863C151.658 388.237 151.572 388.608 151.398 388.978C151.23 389.347 150.977 389.716 150.64 390.085C150.471 390.267 150.225 390.502 149.901 390.789C149.578 391.076 149.179 391.413 148.705 391.801C148.181 392.229 147.764 392.617 147.454 392.963C147.144 393.305 146.921 393.635 146.784 393.954H151.809ZM164.175 390.085V395H162.91V390.071C162.91 389.233 162.739 388.64 162.397 388.294C162.06 387.948 161.475 387.774 160.641 387.774H157.455V386.612H160.661C161.5 386.612 162.176 386.731 162.691 386.968C163.206 387.2 163.582 387.572 163.819 388.082C164.056 388.588 164.175 389.256 164.175 390.085ZM158.85 389.552V395H157.592V389.552H158.85ZM171.223 390.085V395H169.958V390.071C169.958 389.242 169.789 388.652 169.452 388.301C169.119 387.95 168.534 387.774 167.695 387.774H165.132V386.612H167.709C168.548 386.612 169.224 386.731 169.739 386.968C170.254 387.2 170.63 387.572 170.867 388.082C171.104 388.588 171.223 389.256 171.223 390.085ZM175.215 386.612V391.021H173.957V386.612H175.215ZM183.233 390.071C183.233 389.242 183.065 388.652 182.728 388.301C182.395 387.95 181.809 387.774 180.971 387.774H178.852V395H177.594V386.612H180.984C182.242 386.612 183.142 386.881 183.685 387.419C184.227 387.957 184.498 388.845 184.498 390.085V395H183.233V390.071ZM193.501 393.838V395H186.18V393.838H191.334V390.071C191.334 389.233 191.163 388.64 190.821 388.294C190.484 387.948 189.898 387.774 189.064 387.774H186.501V386.612H189.078C190.336 386.612 191.236 386.881 191.778 387.419C192.321 387.957 192.592 388.845 192.592 390.085V393.838H193.501Z" fill="#161616"/>
<rect x="202.5" y="382.5" width="15" height="15" rx="3.5" fill="white" stroke="#C2C2C2"/>
<path d="M151.897 428.341C151.897 429.229 151.615 429.918 151.05 430.405C150.485 430.893 149.678 431.137 148.63 431.137C147.655 431.137 146.875 430.918 146.292 430.48C145.713 430.038 145.369 429.387 145.26 428.525L146.531 428.409C146.695 429.549 147.395 430.118 148.63 430.118C149.25 430.118 149.735 429.965 150.086 429.66C150.441 429.355 150.619 428.901 150.619 428.3C150.619 427.776 150.416 427.368 150.011 427.076C149.61 426.78 149.029 426.632 148.268 426.632H147.57V425.565H148.24C148.915 425.565 149.437 425.42 149.806 425.128C150.179 424.832 150.366 424.424 150.366 423.904C150.366 423.389 150.214 422.984 149.908 422.688C149.607 422.387 149.159 422.236 148.562 422.236C148.019 422.236 147.579 422.375 147.242 422.653C146.91 422.931 146.716 423.323 146.661 423.829L145.424 423.733C145.515 422.945 145.841 422.33 146.401 421.888C146.966 421.446 147.691 421.225 148.575 421.225C149.541 421.225 150.291 421.45 150.824 421.901C151.362 422.348 151.631 422.972 151.631 423.774C151.631 424.39 151.458 424.891 151.111 425.278C150.77 425.661 150.271 425.921 149.614 426.058V426.085C150.334 426.162 150.895 426.404 151.296 426.81C151.697 427.215 151.897 427.726 151.897 428.341ZM164.175 426.085V431H162.91V426.071C162.91 425.233 162.739 424.64 162.397 424.294C162.06 423.948 161.475 423.774 160.641 423.774H157.455V422.612H160.661C161.5 422.612 162.176 422.731 162.691 422.968C163.206 423.2 163.582 423.572 163.819 424.082C164.056 424.588 164.175 425.256 164.175 426.085ZM158.85 425.552V431H157.592V425.552H158.85ZM171.223 426.085V431H169.958V426.071C169.958 425.242 169.789 424.652 169.452 424.301C169.119 423.95 168.534 423.774 167.695 423.774H165.132V422.612H167.709C168.548 422.612 169.224 422.731 169.739 422.968C170.254 423.2 170.63 423.572 170.867 424.082C171.104 424.588 171.223 425.256 171.223 426.085ZM175.215 422.612V427.021H173.957V422.612H175.215ZM183.233 426.071C183.233 425.242 183.065 424.652 182.728 424.301C182.395 423.95 181.809 423.774 180.971 423.774H178.852V431H177.594V422.612H180.984C182.242 422.612 183.142 422.881 183.685 423.419C184.227 423.957 184.498 424.845 184.498 426.085V431H183.233V426.071ZM193.501 429.838V431H186.18V429.838H191.334V426.071C191.334 425.233 191.163 424.64 190.821 424.294C190.484 423.948 189.898 423.774 189.064 423.774H186.501V422.612H189.078C190.336 422.612 191.236 422.881 191.778 423.419C192.321 423.957 192.592 424.845 192.592 426.085V429.838H193.501Z" fill="#161616"/>
<rect x="202.5" y="418.5" width="15" height="15" rx="3.5" fill="white" stroke="#C2C2C2"/>
</g>
</g>
<defs>
<filter id="filter0_d_7_5064" x="0" y="36" width="240" height="216" filterUnits="userSpaceOnUse" color-interpolation-filters="sRGB">
<feFlood flood-opacity="0" result="BackgroundImageFix"/>
<feColorMatrix in="SourceAlpha" type="matrix" values="0 0 0 0 0 0 0 0 0 0 0 0 0 0 0 0 0 0 127 0" result="hardAlpha"/>
<feOffset/>
<feGaussianBlur stdDeviation="5"/>
<feComposite in2="hardAlpha" operator="out"/>
<feColorMatrix type="matrix" values="0 0 0 0 0 0 0 0 0 0 0 0 0 0 0 0 0 0 0.16 0"/>
<feBlend mode="normal" in2="BackgroundImageFix" result="effect1_dropShadow_7_5064"/>
<feBlend mode="normal" in="SourceGraphic" in2="effect1_dropShadow_7_5064" result="shape"/>
</filter>
<filter id="filter1_d_7_5064" x="0" y="318" width="240" height="144" filterUnits="userSpaceOnUse" color-interpolation-filters="sRGB">
<feFlood flood-opacity="0" result="BackgroundImageFix"/>
<feColorMatrix in="SourceAlpha" type="matrix" values="0 0 0 0 0 0 0 0 0 0 0 0 0 0 0 0 0 0 127 0" result="hardAlpha"/>
<feOffset/>
<feGaussianBlur stdDeviation="5"/>
<feComposite in2="hardAlpha" operator="out"/>
<feColorMatrix type="matrix" values="0 0 0 0 0 0 0 0 0 0 0 0 0 0 0 0 0 0 0.16 0"/>
<feBlend mode="normal" in2="BackgroundImageFix" result="effect1_dropShadow_7_5064"/>
<feBlend mode="normal" in="SourceGraphic" in2="effect1_dropShadow_7_5064" result="shape"/>
</filter>
<clipPath id="clip0_7_5064">
<rect x="10" y="46" width="220" height="196" rx="5" fill="white"/>
</clipPath>
<clipPath id="clip1_7_5064">
<rect x="10" y="328" width="220" height="124" rx="5" fill="white"/>
</clipPath>
</defs>
</svg>
