<svg width="323" height="344" viewBox="0 0 323 344" fill="none" xmlns="http://www.w3.org/2000/svg">
<g filter="url(#filter0_d_7_5053)">
<rect x="8" y="8" width="307" height="64" rx="6" fill="white" shape-rendering="crispEdges"/>
<mask id="mask0_7_5053" style="mask-type:alpha" maskUnits="userSpaceOnUse" x="24" y="28" width="24" height="24">
<rect x="24" y="28" width="24" height="24" fill="#D9D9D9"/>
</mask>
<g mask="url(#mask0_7_5053)">
<path d="M35.25 41.95V45.625C35.25 45.8417 35.321 46.021 35.463 46.163C35.6043 46.3043 35.7833 46.375 36 46.375C36.2167 46.375 36.396 46.3043 36.538 46.163C36.6793 46.021 36.75 45.8417 36.75 45.625V41.95L38.075 43.275C38.1417 43.3417 38.225 43.396 38.325 43.438C38.425 43.4793 38.521 43.496 38.613 43.488C38.7043 43.4793 38.7957 43.4583 38.887 43.425C38.979 43.3917 39.0583 43.3333 39.125 43.25C39.275 43.1 39.35 42.925 39.35 42.725C39.35 42.525 39.275 42.35 39.125 42.2L36.625 39.7C36.5417 39.6167 36.446 39.554 36.338 39.512C36.2293 39.4707 36.1167 39.45 36 39.45C35.8833 39.45 35.771 39.4707 35.663 39.512C35.5543 39.554 35.4583 39.6167 35.375 39.7L32.875 42.2C32.725 42.35 32.65 42.525 32.65 42.725C32.65 42.925 32.7333 43.1 32.9 43.25C33.05 43.4 33.221 43.4793 33.413 43.488C33.6043 43.496 33.7833 43.4167 33.95 43.25L35.25 41.95ZM30.3 49.5C29.8 49.5 29.375 49.325 29.025 48.975C28.675 48.625 28.5 48.2 28.5 47.7V32.3C28.5 31.8 28.675 31.375 29.025 31.025C29.375 30.675 29.8 30.5 30.3 30.5H37.5C37.75 30.5 37.9833 30.5457 38.2 30.637C38.4167 30.729 38.6083 30.8583 38.775 31.025L42.975 35.225C43.1417 35.3917 43.271 35.5833 43.363 35.8C43.4543 36.0167 43.5 36.25 43.5 36.5V47.7C43.5 48.2 43.325 48.625 42.975 48.975C42.625 49.325 42.2 49.5 41.7 49.5H30.3ZM37.5 35.6V32H30.3C30.2333 32 30.1667 32.0333 30.1 32.1C30.0333 32.1667 30 32.2333 30 32.3V47.7C30 47.7667 30.0333 47.8333 30.1 47.9C30.1667 47.9667 30.2333 48 30.3 48H41.7C41.7667 48 41.8333 47.9667 41.9 47.9C41.9667 47.8333 42 47.7667 42 47.7V36.5H38.4C38.15 36.5 37.9373 36.4123 37.762 36.237C37.5873 36.0623 37.5 35.85 37.5 35.6Z" fill="#2D7FAD"/>
</g>
<path d="M198.625 42.3203V49.0078H197.188V41.7422C197.188 41.4297 197.161 41.1432 197.109 40.8828C197.062 40.6172 196.984 40.349 196.875 40.0781C196.766 39.8073 196.622 39.5104 196.445 39.1875C196.315 38.9427 196.104 38.5885 195.812 38.125C195.521 37.6615 195.151 37.0911 194.703 36.4141H196.398L196.977 37.3203C197.268 37.7786 197.508 38.1797 197.695 38.5234C197.883 38.862 198.026 39.1458 198.125 39.375C198.26 39.6667 198.365 39.9661 198.438 40.2734C198.516 40.5755 198.568 40.8802 198.594 41.1875C198.833 41.1302 199.047 41.0599 199.234 40.9766C199.422 40.8932 199.583 40.7995 199.719 40.6953C199.99 40.487 200.193 40.2083 200.328 39.8594C200.469 39.5052 200.568 39.0026 200.625 38.3516L200.781 36.4141H202.289L202.078 38.5938C202.026 39.2396 201.904 39.7891 201.711 40.2422C201.523 40.6901 201.253 41.0651 200.898 41.3672C200.372 41.8099 199.615 42.1276 198.625 42.3203ZM211.695 44.6719V46H203.328V44.6719H209.219V40.3672C209.219 39.4089 209.023 38.7318 208.633 38.3359C208.247 37.9401 207.578 37.7422 206.625 37.7422H203.695V36.4141H206.641C208.078 36.4141 209.107 36.7214 209.727 37.3359C210.346 37.9505 210.656 38.9661 210.656 40.3828V44.6719H211.695ZM215.062 36.4141V46H213.625V36.4141H215.062ZM224.984 39.3906C224.984 40.3698 224.786 41.2995 224.391 42.1797C223.995 43.0599 223.435 43.849 222.711 44.5469C221.987 45.2396 221.128 45.7943 220.133 46.2109V44.5625C221.221 44.0729 222.057 43.3932 222.641 42.5234C223.229 41.6484 223.523 40.6693 223.523 39.5859C223.523 38.888 223.37 38.4062 223.062 38.1406C222.76 37.875 222.237 37.7422 221.492 37.7422H217.383V36.4141H221.43C222.716 36.4141 223.63 36.6458 224.172 37.1094C224.714 37.5677 224.984 38.3281 224.984 39.3906ZM219.219 39.7734V49.0078H217.781V39.7734H219.219ZM234.727 40.3828V46H233.281V40.3672C233.281 39.4089 233.086 38.7318 232.695 38.3359C232.31 37.9401 231.641 37.7422 230.688 37.7422H227.047V36.4141H230.711C231.669 36.4141 232.443 36.5495 233.031 36.8203C233.62 37.0859 234.049 37.5104 234.32 38.0938C234.591 38.6719 234.727 39.4349 234.727 40.3828ZM228.641 39.7734V46H227.203V39.7734H228.641ZM250.023 40.3828V46H241.812V36.4141H246.008C247.445 36.4141 248.474 36.7214 249.094 37.3359C249.714 37.9505 250.023 38.9661 250.023 40.3828ZM243.25 44.6719H248.578V40.3672C248.578 39.4193 248.385 38.7448 248 38.3438C247.62 37.9427 246.951 37.7422 245.992 37.7422H243.25V44.6719ZM259.859 45.0312C259.5 45.2708 259.052 45.4661 258.516 45.6172C257.984 45.7682 257.318 45.8802 256.516 45.9531C255.714 46.026 254.721 46.0677 253.539 46.0781L251.711 36.4141H253.203L254.164 41.3438L254.734 41.2344C255.047 41.1615 255.305 41.0677 255.508 40.9531C255.711 40.8333 255.872 40.6667 255.992 40.4531C256.091 40.2865 256.167 40.0807 256.219 39.8359C256.271 39.5911 256.31 39.2995 256.336 38.9609L256.531 36.4141H258.016L257.773 38.9766C257.737 39.4089 257.693 39.7839 257.641 40.1016C257.589 40.4141 257.526 40.6667 257.453 40.8594C257.323 41.25 257.128 41.5521 256.867 41.7656C256.607 41.974 256.174 42.1589 255.57 42.3203L254.398 42.5938L254.781 44.6094H254.969C256.016 44.6094 256.854 44.5495 257.484 44.4297C258.115 44.3047 258.612 44.112 258.977 43.8516C259.221 43.6745 259.427 43.4557 259.594 43.1953C259.76 42.9349 259.901 42.5911 260.016 42.1641C260.13 41.737 260.227 41.1875 260.305 40.5156L260.797 36.4141H262.305L261.805 40.4609C261.701 41.3672 261.565 42.1146 261.398 42.7031C261.232 43.2865 261.023 43.7604 260.773 44.125C260.529 44.4844 260.224 44.7865 259.859 45.0312Z" fill="#161616"/>
<mask id="mask1_7_5053" style="mask-type:alpha" maskUnits="userSpaceOnUse" x="267" y="24" width="32" height="32">
<rect x="267" y="24" width="32" height="32" fill="#C4C4C4"/>
</mask>
<g mask="url(#mask1_7_5053)">
<path d="M278.333 47.0003H286.333C286.622 47.0003 286.861 46.9061 287.051 46.7177C287.239 46.5283 287.333 46.2892 287.333 46.0003C287.333 45.7114 287.239 45.4723 287.051 45.283C286.861 45.0945 286.622 45.0003 286.333 45.0003H278.333C278.045 45.0003 277.806 45.0945 277.617 45.283C277.428 45.4723 277.333 45.7114 277.333 46.0003C277.333 46.2892 277.428 46.5283 277.617 46.7177C277.806 46.9061 278.045 47.0003 278.333 47.0003ZM278.333 41.667H286.333C286.622 41.667 286.861 41.5723 287.051 41.383C287.239 41.1945 287.333 40.9559 287.333 40.667C287.333 40.3781 287.239 40.139 287.051 39.9497C286.861 39.7612 286.622 39.667 286.333 39.667H278.333C278.045 39.667 277.806 39.7612 277.617 39.9497C277.428 40.139 277.333 40.3781 277.333 40.667C277.333 40.9559 277.428 41.1945 277.617 41.383C277.806 41.5723 278.045 41.667 278.333 41.667ZM274.733 52.0003C274.067 52.0003 273.5 51.767 273.033 51.3003C272.567 50.8337 272.333 50.267 272.333 49.6003V29.067C272.333 28.4003 272.567 27.8337 273.033 27.367C273.5 26.9003 274.067 26.667 274.733 26.667H284.333C284.667 26.667 284.978 26.7279 285.267 26.8497C285.556 26.9723 285.811 27.1448 286.033 27.367L291.633 32.967C291.856 33.1892 292.028 33.4448 292.151 33.7337C292.273 34.0225 292.333 34.3337 292.333 34.667V49.6003C292.333 50.267 292.1 50.8337 291.633 51.3003C291.167 51.767 290.6 52.0003 289.933 52.0003H274.733ZM284.333 28.667H274.733C274.645 28.667 274.556 28.7114 274.467 28.8003C274.378 28.8892 274.333 28.9781 274.333 29.067V49.6003C274.333 49.6892 274.378 49.7781 274.467 49.867C274.556 49.9559 274.645 50.0003 274.733 50.0003H289.933C290.022 50.0003 290.111 49.9559 290.2 49.867C290.289 49.7781 290.333 49.6892 290.333 49.6003V34.667H285.533C285.2 34.667 284.917 34.5501 284.683 34.3163C284.45 34.0834 284.333 33.8003 284.333 33.467V28.667ZM274.333 28.667V33.467C274.333 33.8003 274.333 34.0834 274.333 34.3163C274.333 34.5501 274.333 34.667 274.333 34.667V28.667V33.467C274.333 33.8003 274.333 34.0834 274.333 34.3163C274.333 34.5501 274.333 34.667 274.333 34.667V49.6003V29.067C274.333 28.9781 274.333 28.8892 274.333 28.8003C274.333 28.7114 274.333 28.667 274.333 28.667Z" fill="#161616"/>
</g>
</g>
<g filter="url(#filter1_d_7_5053)">
<rect x="8" y="96" width="307" height="64" rx="6" fill="white" shape-rendering="crispEdges"/>
<path d="M198.625 130.32V137.008H197.188V129.742C197.188 129.43 197.161 129.143 197.109 128.883C197.062 128.617 196.984 128.349 196.875 128.078C196.766 127.807 196.622 127.51 196.445 127.188C196.315 126.943 196.104 126.589 195.812 126.125C195.521 125.661 195.151 125.091 194.703 124.414H196.398L196.977 125.32C197.268 125.779 197.508 126.18 197.695 126.523C197.883 126.862 198.026 127.146 198.125 127.375C198.26 127.667 198.365 127.966 198.438 128.273C198.516 128.576 198.568 128.88 198.594 129.188C198.833 129.13 199.047 129.06 199.234 128.977C199.422 128.893 199.583 128.799 199.719 128.695C199.99 128.487 200.193 128.208 200.328 127.859C200.469 127.505 200.568 127.003 200.625 126.352L200.781 124.414H202.289L202.078 126.594C202.026 127.24 201.904 127.789 201.711 128.242C201.523 128.69 201.253 129.065 200.898 129.367C200.372 129.81 199.615 130.128 198.625 130.32ZM211.695 132.672V134H203.328V132.672H209.219V128.367C209.219 127.409 209.023 126.732 208.633 126.336C208.247 125.94 207.578 125.742 206.625 125.742H203.695V124.414H206.641C208.078 124.414 209.107 124.721 209.727 125.336C210.346 125.951 210.656 126.966 210.656 128.383V132.672H211.695ZM215.062 124.414V134H213.625V124.414H215.062ZM224.984 127.391C224.984 128.37 224.786 129.299 224.391 130.18C223.995 131.06 223.435 131.849 222.711 132.547C221.987 133.24 221.128 133.794 220.133 134.211V132.562C221.221 132.073 222.057 131.393 222.641 130.523C223.229 129.648 223.523 128.669 223.523 127.586C223.523 126.888 223.37 126.406 223.062 126.141C222.76 125.875 222.237 125.742 221.492 125.742H217.383V124.414H221.43C222.716 124.414 223.63 124.646 224.172 125.109C224.714 125.568 224.984 126.328 224.984 127.391ZM219.219 127.773V137.008H217.781V127.773H219.219ZM234.727 128.383V134H233.281V128.367C233.281 127.409 233.086 126.732 232.695 126.336C232.31 125.94 231.641 125.742 230.688 125.742H227.047V124.414H230.711C231.669 124.414 232.443 124.549 233.031 124.82C233.62 125.086 234.049 125.51 234.32 126.094C234.591 126.672 234.727 127.435 234.727 128.383ZM228.641 127.773V134H227.203V127.773H228.641ZM250.023 128.383V134H241.812V124.414H246.008C247.445 124.414 248.474 124.721 249.094 125.336C249.714 125.951 250.023 126.966 250.023 128.383ZM243.25 132.672H248.578V128.367C248.578 127.419 248.385 126.745 248 126.344C247.62 125.943 246.951 125.742 245.992 125.742H243.25V132.672ZM259.859 133.031C259.5 133.271 259.052 133.466 258.516 133.617C257.984 133.768 257.318 133.88 256.516 133.953C255.714 134.026 254.721 134.068 253.539 134.078L251.711 124.414H253.203L254.164 129.344L254.734 129.234C255.047 129.161 255.305 129.068 255.508 128.953C255.711 128.833 255.872 128.667 255.992 128.453C256.091 128.286 256.167 128.081 256.219 127.836C256.271 127.591 256.31 127.299 256.336 126.961L256.531 124.414H258.016L257.773 126.977C257.737 127.409 257.693 127.784 257.641 128.102C257.589 128.414 257.526 128.667 257.453 128.859C257.323 129.25 257.128 129.552 256.867 129.766C256.607 129.974 256.174 130.159 255.57 130.32L254.398 130.594L254.781 132.609H254.969C256.016 132.609 256.854 132.549 257.484 132.43C258.115 132.305 258.612 132.112 258.977 131.852C259.221 131.674 259.427 131.456 259.594 131.195C259.76 130.935 259.901 130.591 260.016 130.164C260.13 129.737 260.227 129.188 260.305 128.516L260.797 124.414H262.305L261.805 128.461C261.701 129.367 261.565 130.115 261.398 130.703C261.232 131.286 261.023 131.76 260.773 132.125C260.529 132.484 260.224 132.786 259.859 133.031Z" fill="#161616"/>
<path d="M295 128C295 125.528 294.237 123.116 292.814 121.095C291.392 119.073 289.38 117.54 287.053 116.705C284.726 115.87 282.198 115.774 279.815 116.43C277.432 117.086 275.309 118.463 273.738 120.371C272.166 122.279 271.222 124.625 271.035 127.09C270.847 129.555 271.426 132.018 272.691 134.141C273.956 136.265 275.846 137.946 278.103 138.955C280.359 139.964 282.873 140.251 285.299 139.778L284.733 136.879C282.904 137.236 281.009 137.02 279.308 136.259C277.606 135.499 276.182 134.231 275.228 132.63C274.274 131.029 273.838 129.172 273.979 127.314C274.121 125.456 274.832 123.687 276.017 122.248C277.202 120.81 278.802 119.772 280.599 119.278C282.396 118.783 284.301 118.855 286.055 119.485C287.81 120.114 289.326 121.27 290.399 122.794C291.471 124.318 292.047 126.136 292.047 128H295Z" fill="#2D7FAD"/>
</g>
<g filter="url(#filter2_d_7_5053)">
<rect x="8" y="184" width="307" height="64" rx="6" fill="white" shape-rendering="crispEdges"/>
<mask id="mask2_7_5053" style="mask-type:alpha" maskUnits="userSpaceOnUse" x="24" y="204" width="24" height="24">
<rect x="24" y="204" width="24" height="24" fill="#D9D9D9"/>
</mask>
<g mask="url(#mask2_7_5053)">
<path d="M35.25 217.95V221.625C35.25 221.842 35.321 222.021 35.463 222.163C35.6043 222.304 35.7833 222.375 36 222.375C36.2167 222.375 36.396 222.304 36.538 222.163C36.6793 222.021 36.75 221.842 36.75 221.625V217.95L38.075 219.275C38.1417 219.342 38.225 219.396 38.325 219.438C38.425 219.479 38.521 219.496 38.613 219.488C38.7043 219.479 38.7957 219.458 38.887 219.425C38.979 219.392 39.0583 219.333 39.125 219.25C39.275 219.1 39.35 218.925 39.35 218.725C39.35 218.525 39.275 218.35 39.125 218.2L36.625 215.7C36.5417 215.617 36.446 215.554 36.338 215.512C36.2293 215.471 36.1167 215.45 36 215.45C35.8833 215.45 35.771 215.471 35.663 215.512C35.5543 215.554 35.4583 215.617 35.375 215.7L32.875 218.2C32.725 218.35 32.65 218.525 32.65 218.725C32.65 218.925 32.7333 219.1 32.9 219.25C33.05 219.4 33.221 219.479 33.413 219.488C33.6043 219.496 33.7833 219.417 33.95 219.25L35.25 217.95ZM30.3 225.5C29.8 225.5 29.375 225.325 29.025 224.975C28.675 224.625 28.5 224.2 28.5 223.7V208.3C28.5 207.8 28.675 207.375 29.025 207.025C29.375 206.675 29.8 206.5 30.3 206.5H37.5C37.75 206.5 37.9833 206.546 38.2 206.637C38.4167 206.729 38.6083 206.858 38.775 207.025L42.975 211.225C43.1417 211.392 43.271 211.583 43.363 211.8C43.4543 212.017 43.5 212.25 43.5 212.5V223.7C43.5 224.2 43.325 224.625 42.975 224.975C42.625 225.325 42.2 225.5 41.7 225.5H30.3ZM37.5 211.6V208H30.3C30.2333 208 30.1667 208.033 30.1 208.1C30.0333 208.167 30 208.233 30 208.3V223.7C30 223.767 30.0333 223.833 30.1 223.9C30.1667 223.967 30.2333 224 30.3 224H41.7C41.7667 224 41.8333 223.967 41.9 223.9C41.9667 223.833 42 223.767 42 223.7V212.5H38.4C38.15 212.5 37.9373 212.412 37.762 212.237C37.5873 212.062 37.5 211.85 37.5 211.6Z" fill="#2D7FAD"/>
</g>
<path d="M198.625 218.32V225.008H197.188V217.742C197.188 217.43 197.161 217.143 197.109 216.883C197.062 216.617 196.984 216.349 196.875 216.078C196.766 215.807 196.622 215.51 196.445 215.188C196.315 214.943 196.104 214.589 195.812 214.125C195.521 213.661 195.151 213.091 194.703 212.414H196.398L196.977 213.32C197.268 213.779 197.508 214.18 197.695 214.523C197.883 214.862 198.026 215.146 198.125 215.375C198.26 215.667 198.365 215.966 198.438 216.273C198.516 216.576 198.568 216.88 198.594 217.188C198.833 217.13 199.047 217.06 199.234 216.977C199.422 216.893 199.583 216.799 199.719 216.695C199.99 216.487 200.193 216.208 200.328 215.859C200.469 215.505 200.568 215.003 200.625 214.352L200.781 212.414H202.289L202.078 214.594C202.026 215.24 201.904 215.789 201.711 216.242C201.523 216.69 201.253 217.065 200.898 217.367C200.372 217.81 199.615 218.128 198.625 218.32ZM211.695 220.672V222H203.328V220.672H209.219V216.367C209.219 215.409 209.023 214.732 208.633 214.336C208.247 213.94 207.578 213.742 206.625 213.742H203.695V212.414H206.641C208.078 212.414 209.107 212.721 209.727 213.336C210.346 213.951 210.656 214.966 210.656 216.383V220.672H211.695ZM215.062 212.414V222H213.625V212.414H215.062ZM224.984 215.391C224.984 216.37 224.786 217.299 224.391 218.18C223.995 219.06 223.435 219.849 222.711 220.547C221.987 221.24 221.128 221.794 220.133 222.211V220.562C221.221 220.073 222.057 219.393 222.641 218.523C223.229 217.648 223.523 216.669 223.523 215.586C223.523 214.888 223.37 214.406 223.062 214.141C222.76 213.875 222.237 213.742 221.492 213.742H217.383V212.414H221.43C222.716 212.414 223.63 212.646 224.172 213.109C224.714 213.568 224.984 214.328 224.984 215.391ZM219.219 215.773V225.008H217.781V215.773H219.219ZM234.727 216.383V222H233.281V216.367C233.281 215.409 233.086 214.732 232.695 214.336C232.31 213.94 231.641 213.742 230.688 213.742H227.047V212.414H230.711C231.669 212.414 232.443 212.549 233.031 212.82C233.62 213.086 234.049 213.51 234.32 214.094C234.591 214.672 234.727 215.435 234.727 216.383ZM228.641 215.773V222H227.203V215.773H228.641ZM250.023 216.383V222H241.812V212.414H246.008C247.445 212.414 248.474 212.721 249.094 213.336C249.714 213.951 250.023 214.966 250.023 216.383ZM243.25 220.672H248.578V216.367C248.578 215.419 248.385 214.745 248 214.344C247.62 213.943 246.951 213.742 245.992 213.742H243.25V220.672ZM259.859 221.031C259.5 221.271 259.052 221.466 258.516 221.617C257.984 221.768 257.318 221.88 256.516 221.953C255.714 222.026 254.721 222.068 253.539 222.078L251.711 212.414H253.203L254.164 217.344L254.734 217.234C255.047 217.161 255.305 217.068 255.508 216.953C255.711 216.833 255.872 216.667 255.992 216.453C256.091 216.286 256.167 216.081 256.219 215.836C256.271 215.591 256.31 215.299 256.336 214.961L256.531 212.414H258.016L257.773 214.977C257.737 215.409 257.693 215.784 257.641 216.102C257.589 216.414 257.526 216.667 257.453 216.859C257.323 217.25 257.128 217.552 256.867 217.766C256.607 217.974 256.174 218.159 255.57 218.32L254.398 218.594L254.781 220.609H254.969C256.016 220.609 256.854 220.549 257.484 220.43C258.115 220.305 258.612 220.112 258.977 219.852C259.221 219.674 259.427 219.456 259.594 219.195C259.76 218.935 259.901 218.591 260.016 218.164C260.13 217.737 260.227 217.188 260.305 216.516L260.797 212.414H262.305L261.805 216.461C261.701 217.367 261.565 218.115 261.398 218.703C261.232 219.286 261.023 219.76 260.773 220.125C260.529 220.484 260.224 220.786 259.859 221.031Z" fill="#161616"/>
<mask id="mask3_7_5053" style="mask-type:alpha" maskUnits="userSpaceOnUse" x="267" y="200" width="32" height="32">
<rect x="267" y="200" width="32" height="32" fill="#D9D9D9"/>
</mask>
<g mask="url(#mask3_7_5053)">
<path d="M277.5 221.5C277.7 221.7 277.933 221.8 278.2 221.8C278.467 221.8 278.7 221.7 278.9 221.5L283 217.4L287.133 221.533C287.311 221.711 287.539 221.794 287.817 221.782C288.095 221.772 288.322 221.677 288.5 221.5C288.7 221.3 288.8 221.066 288.8 220.8C288.8 220.533 288.7 220.3 288.5 220.1L284.4 216L288.533 211.866C288.711 211.689 288.794 211.461 288.783 211.182C288.772 210.905 288.678 210.677 288.5 210.5C288.3 210.3 288.067 210.2 287.8 210.2C287.533 210.2 287.3 210.3 287.1 210.5L283 214.6L278.867 210.466C278.689 210.289 278.461 210.205 278.184 210.216C277.906 210.227 277.678 210.322 277.5 210.5C277.3 210.7 277.2 210.933 277.2 211.2C277.2 211.466 277.3 211.7 277.5 211.9L281.6 216L277.467 220.133C277.289 220.311 277.206 220.538 277.217 220.816C277.228 221.094 277.322 221.322 277.5 221.5ZM283 228.666C281.245 228.666 279.595 228.333 278.051 227.666C276.506 227 275.167 226.1 274.033 224.966C272.9 223.833 272 222.494 271.333 220.949C270.667 219.405 270.333 217.755 270.333 216C270.333 214.244 270.667 212.594 271.333 211.049C272 209.505 272.9 208.166 274.033 207.033C275.167 205.9 276.506 205 278.051 204.333C279.595 203.666 281.245 203.333 283 203.333C284.756 203.333 286.406 203.666 287.951 204.333C289.495 205 290.833 205.9 291.967 207.033C293.1 208.166 294 209.505 294.667 211.049C295.333 212.594 295.667 214.244 295.667 216C295.667 217.755 295.333 219.405 294.667 220.949C294 222.494 293.1 223.833 291.967 224.966C290.833 226.1 289.495 227 287.951 227.666C286.406 228.333 284.756 228.666 283 228.666ZM283 226.666C285.956 226.666 288.473 225.628 290.551 223.55C292.628 221.472 293.667 218.955 293.667 216C293.667 213.044 292.628 210.527 290.551 208.449C288.473 206.372 285.956 205.333 283 205.333C280.045 205.333 277.528 206.372 275.451 208.449C273.373 210.527 272.333 213.044 272.333 216C272.333 218.955 273.373 221.472 275.451 223.55C277.528 225.628 280.045 226.666 283 226.666Z" fill="#DB0000"/>
</g>
</g>
<g filter="url(#filter3_d_7_5053)">
<rect x="8" y="272" width="307" height="64" rx="6" fill="white" shape-rendering="crispEdges"/>
<path d="M34.2167 309.805L28.8283 304.414C28.7744 304.36 28.734 304.298 28.7073 304.227C28.6801 304.157 28.6665 304.084 28.6665 304.008C28.6665 303.932 28.6801 303.859 28.7073 303.789C28.734 303.718 28.7744 303.656 28.8283 303.602L34.2167 298.195C34.3461 298.065 34.4971 298 34.6697 298C34.8423 298 34.9988 298.07 35.139 298.211C35.2684 298.33 35.3332 298.479 35.3332 298.657C35.3332 298.836 35.2684 298.991 35.139 299.12L30.2523 304.008L35.139 308.912C35.2577 309.031 35.317 309.177 35.317 309.35C35.317 309.524 35.2523 309.675 35.1228 309.805C34.9934 309.935 34.8423 310 34.6697 310C34.4971 310 34.3461 309.935 34.2167 309.805Z" fill="#161616"/>
<path d="M198.625 294.32V301.008H197.188V293.742C197.188 293.43 197.161 293.143 197.109 292.883C197.062 292.617 196.984 292.349 196.875 292.078C196.766 291.807 196.622 291.51 196.445 291.188C196.315 290.943 196.104 290.589 195.812 290.125C195.521 289.661 195.151 289.091 194.703 288.414H196.398L196.977 289.32C197.268 289.779 197.508 290.18 197.695 290.523C197.883 290.862 198.026 291.146 198.125 291.375C198.26 291.667 198.365 291.966 198.438 292.273C198.516 292.576 198.568 292.88 198.594 293.188C198.833 293.13 199.047 293.06 199.234 292.977C199.422 292.893 199.583 292.799 199.719 292.695C199.99 292.487 200.193 292.208 200.328 291.859C200.469 291.505 200.568 291.003 200.625 290.352L200.781 288.414H202.289L202.078 290.594C202.026 291.24 201.904 291.789 201.711 292.242C201.523 292.69 201.253 293.065 200.898 293.367C200.372 293.81 199.615 294.128 198.625 294.32ZM211.695 296.672V298H203.328V296.672H209.219V292.367C209.219 291.409 209.023 290.732 208.633 290.336C208.247 289.94 207.578 289.742 206.625 289.742H203.695V288.414H206.641C208.078 288.414 209.107 288.721 209.727 289.336C210.346 289.951 210.656 290.966 210.656 292.383V296.672H211.695ZM215.062 288.414V298H213.625V288.414H215.062ZM224.984 291.391C224.984 292.37 224.786 293.299 224.391 294.18C223.995 295.06 223.435 295.849 222.711 296.547C221.987 297.24 221.128 297.794 220.133 298.211V296.562C221.221 296.073 222.057 295.393 222.641 294.523C223.229 293.648 223.523 292.669 223.523 291.586C223.523 290.888 223.37 290.406 223.062 290.141C222.76 289.875 222.237 289.742 221.492 289.742H217.383V288.414H221.43C222.716 288.414 223.63 288.646 224.172 289.109C224.714 289.568 224.984 290.328 224.984 291.391ZM219.219 291.773V301.008H217.781V291.773H219.219ZM234.727 292.383V298H233.281V292.367C233.281 291.409 233.086 290.732 232.695 290.336C232.31 289.94 231.641 289.742 230.688 289.742H227.047V288.414H230.711C231.669 288.414 232.443 288.549 233.031 288.82C233.62 289.086 234.049 289.51 234.32 290.094C234.591 290.672 234.727 291.435 234.727 292.383ZM228.641 291.773V298H227.203V291.773H228.641ZM250.023 292.383V298H241.812V288.414H246.008C247.445 288.414 248.474 288.721 249.094 289.336C249.714 289.951 250.023 290.966 250.023 292.383ZM243.25 296.672H248.578V292.367C248.578 291.419 248.385 290.745 248 290.344C247.62 289.943 246.951 289.742 245.992 289.742H243.25V296.672ZM259.859 297.031C259.5 297.271 259.052 297.466 258.516 297.617C257.984 297.768 257.318 297.88 256.516 297.953C255.714 298.026 254.721 298.068 253.539 298.078L251.711 288.414H253.203L254.164 293.344L254.734 293.234C255.047 293.161 255.305 293.068 255.508 292.953C255.711 292.833 255.872 292.667 255.992 292.453C256.091 292.286 256.167 292.081 256.219 291.836C256.271 291.591 256.31 291.299 256.336 290.961L256.531 288.414H258.016L257.773 290.977C257.737 291.409 257.693 291.784 257.641 292.102C257.589 292.414 257.526 292.667 257.453 292.859C257.323 293.25 257.128 293.552 256.867 293.766C256.607 293.974 256.174 294.159 255.57 294.32L254.398 294.594L254.781 296.609H254.969C256.016 296.609 256.854 296.549 257.484 296.43C258.115 296.305 258.612 296.112 258.977 295.852C259.221 295.674 259.427 295.456 259.594 295.195C259.76 294.935 259.901 294.591 260.016 294.164C260.13 293.737 260.227 293.188 260.305 292.516L260.797 288.414H262.305L261.805 292.461C261.701 293.367 261.565 294.115 261.398 294.703C261.232 295.286 261.023 295.76 260.773 296.125C260.529 296.484 260.224 296.786 259.859 297.031Z" fill="#161616"/>
<path d="M95.6084 314.499V321H94.3779V314.499H93.3389V313.604H94.3779V312.77C94.3779 312.095 94.526 311.61 94.8223 311.313C95.1185 311.017 95.5719 310.869 96.1826 310.869C96.5244 310.869 96.8138 310.896 97.0508 310.951V311.888C96.832 311.851 96.6497 311.833 96.5039 311.833C96.1895 311.833 95.9616 311.913 95.8203 312.072C95.679 312.232 95.6084 312.521 95.6084 312.94V313.604H97.0508V314.499H95.6084ZM99.2041 310.855V312.031H97.9736V310.855H99.2041ZM99.2041 313.604V321H97.9736V313.604H99.2041ZM102.328 310.855V321H101.098V310.855H102.328ZM105.158 317.562C105.158 318.409 105.334 319.063 105.685 319.523C106.035 319.984 106.548 320.214 107.223 320.214C107.756 320.214 108.182 320.107 108.501 319.893C108.825 319.678 109.043 319.407 109.157 319.079L110.237 319.387C109.795 320.553 108.79 321.137 107.223 321.137C106.129 321.137 105.295 320.811 104.721 320.159C104.151 319.507 103.866 318.539 103.866 317.254C103.866 316.033 104.151 315.096 104.721 314.444C105.295 313.793 106.113 313.467 107.175 313.467C108.264 313.467 109.08 313.795 109.622 314.451C110.164 315.107 110.436 316.09 110.436 317.397V317.562H105.158ZM109.164 316.618C109.096 315.839 108.897 315.271 108.569 314.916C108.241 314.556 107.77 314.376 107.154 314.376C106.557 314.376 106.083 314.576 105.732 314.978C105.386 315.374 105.199 315.921 105.172 316.618H109.164ZM119.008 322.894V323.782H110.853V322.894H119.008ZM121.059 316.714V321H119.828V315.183C119.828 314.75 119.824 314.403 119.814 314.144C119.81 313.879 119.801 313.699 119.787 313.604H120.949C120.958 313.69 120.965 313.799 120.97 313.932C120.979 314.064 120.986 314.21 120.99 314.369C120.995 314.529 120.999 314.695 121.004 314.868H121.024C121.307 314.358 121.633 313.998 122.002 313.788C122.376 313.574 122.838 313.467 123.39 313.467C124.201 313.467 124.793 313.674 125.167 314.089C125.545 314.504 125.734 315.164 125.734 316.071V321H124.497V316.311C124.497 315.604 124.383 315.112 124.155 314.834C123.927 314.556 123.533 314.417 122.973 314.417C122.38 314.417 121.913 314.62 121.571 315.025C121.229 315.431 121.059 315.994 121.059 316.714ZM129.48 321.137C128.738 321.137 128.179 320.941 127.806 320.549C127.432 320.157 127.245 319.619 127.245 318.936C127.245 318.17 127.496 317.582 127.997 317.172C128.503 316.762 129.316 316.543 130.438 316.516L132.099 316.488V316.085C132.099 315.483 131.971 315.053 131.716 314.793C131.461 314.533 131.06 314.403 130.513 314.403C129.961 314.403 129.56 314.497 129.31 314.684C129.059 314.87 128.909 315.169 128.858 315.579L127.573 315.463C127.783 314.132 128.772 313.467 130.54 313.467C131.47 313.467 132.169 313.681 132.639 314.109C133.108 314.533 133.343 315.148 133.343 315.955V319.141C133.343 319.505 133.391 319.781 133.486 319.968C133.582 320.15 133.764 320.241 134.033 320.241C134.161 320.241 134.295 320.225 134.437 320.193V320.959C134.282 320.995 134.124 321.023 133.965 321.041C133.805 321.059 133.646 321.068 133.486 321.068C133.031 321.068 132.698 320.95 132.488 320.713C132.283 320.471 132.167 320.095 132.14 319.585H132.099C131.784 320.15 131.417 320.551 130.998 320.788C130.583 321.021 130.077 321.137 129.48 321.137ZM132.099 317.35L130.752 317.377C130.178 317.382 129.74 317.441 129.439 317.555C129.139 317.664 128.909 317.833 128.749 318.061C128.59 318.288 128.51 318.587 128.51 318.956C128.51 319.357 128.617 319.667 128.831 319.886C129.05 320.104 129.36 320.214 129.761 320.214C130.216 320.214 130.618 320.111 130.964 319.906C131.315 319.701 131.59 319.421 131.791 319.065C131.996 318.705 132.099 318.336 132.099 317.958V317.35ZM136.638 316.714V321H135.414V315.183C135.414 314.75 135.41 314.403 135.4 314.144C135.396 313.879 135.387 313.699 135.373 313.604H136.535C136.544 313.704 136.553 313.827 136.562 313.973C136.572 314.118 136.578 314.271 136.583 314.431C136.588 314.586 136.59 314.731 136.59 314.868H136.61C136.875 314.344 137.178 313.979 137.52 313.774C137.861 313.569 138.278 313.467 138.771 313.467C139.331 313.467 139.773 313.578 140.097 313.802C140.425 314.025 140.653 314.381 140.78 314.868H140.801C141.056 314.371 141.364 314.014 141.724 313.795C142.088 313.576 142.528 313.467 143.043 313.467C143.79 313.467 144.333 313.67 144.67 314.075C145.012 314.481 145.183 315.146 145.183 316.071V321H143.966V316.311C143.966 315.595 143.868 315.101 143.672 314.827C143.476 314.554 143.123 314.417 142.612 314.417C142.075 314.417 141.655 314.618 141.354 315.019C141.058 315.415 140.91 315.98 140.91 316.714V321H139.693V316.311C139.693 315.595 139.595 315.101 139.399 314.827C139.203 314.554 138.85 314.417 138.34 314.417C137.816 314.417 137.401 314.618 137.096 315.019C136.79 315.42 136.638 315.985 136.638 316.714ZM147.992 317.562C147.992 318.409 148.168 319.063 148.519 319.523C148.869 319.984 149.382 320.214 150.057 320.214C150.59 320.214 151.016 320.107 151.335 319.893C151.659 319.678 151.877 319.407 151.991 319.079L153.071 319.387C152.629 320.553 151.624 321.137 150.057 321.137C148.963 321.137 148.129 320.811 147.555 320.159C146.985 319.507 146.7 318.539 146.7 317.254C146.7 316.033 146.985 315.096 147.555 314.444C148.129 313.793 148.947 313.467 150.009 313.467C151.098 313.467 151.914 313.795 152.456 314.451C152.998 315.107 153.27 316.09 153.27 317.397V317.562H147.992ZM151.998 316.618C151.93 315.839 151.731 315.271 151.403 314.916C151.075 314.556 150.604 314.376 149.988 314.376C149.391 314.376 148.917 314.576 148.566 314.978C148.22 315.374 148.033 315.921 148.006 316.618H151.998ZM161.842 322.894V323.782H153.687V322.894H161.842ZM168.931 316.181C168.931 317.789 168.646 319.018 168.076 319.865C167.511 320.713 166.675 321.137 165.567 321.137C164.46 321.137 163.628 320.715 163.072 319.872C162.516 319.029 162.238 317.799 162.238 316.181C162.238 314.526 162.507 313.287 163.045 312.462C163.587 311.637 164.442 311.225 165.608 311.225C166.743 311.225 167.579 311.642 168.117 312.476C168.66 313.31 168.931 314.545 168.931 316.181ZM167.68 316.181C167.68 315.251 167.609 314.497 167.468 313.918C167.331 313.335 167.11 312.906 166.805 312.633C166.499 312.359 166.101 312.223 165.608 312.223C165.107 312.223 164.699 312.357 164.385 312.626C164.07 312.895 163.84 313.321 163.694 313.904C163.553 314.483 163.482 315.242 163.482 316.181C163.482 317.092 163.555 317.84 163.701 318.423C163.852 319.006 164.082 319.437 164.392 319.715C164.701 319.993 165.098 320.132 165.581 320.132C166.306 320.132 166.837 319.808 167.174 319.161C167.511 318.514 167.68 317.521 167.68 316.181ZM176.587 319.954V321H170.551V319.954H173.005V312.544L170.831 314.096V312.934L173.107 311.368H174.242V319.954H176.587ZM184.359 319.954V321H177.981V320.132C178.214 319.599 178.494 319.127 178.822 318.717C179.155 318.307 179.508 317.938 179.882 317.609C180.256 317.281 180.625 316.976 180.989 316.693C181.172 316.552 181.342 316.411 181.502 316.27C181.666 316.128 181.821 315.987 181.967 315.846C182.258 315.563 182.493 315.267 182.671 314.957C182.853 314.647 182.944 314.296 182.944 313.904C182.944 313.376 182.789 312.965 182.479 312.674C182.17 312.382 181.739 312.236 181.188 312.236C180.663 312.236 180.23 312.38 179.889 312.667C179.551 312.95 179.353 313.348 179.294 313.863L178.036 313.747C178.127 312.977 178.453 312.364 179.014 311.908C179.579 311.452 180.303 311.225 181.188 311.225C182.158 311.225 182.903 311.455 183.423 311.915C183.947 312.371 184.209 313.02 184.209 313.863C184.209 314.237 184.122 314.608 183.949 314.978C183.781 315.347 183.528 315.716 183.19 316.085C183.022 316.267 182.776 316.502 182.452 316.789C182.129 317.076 181.73 317.413 181.256 317.801C180.732 318.229 180.315 318.617 180.005 318.963C179.695 319.305 179.472 319.635 179.335 319.954H184.359ZM192.241 318.341C192.241 319.229 191.959 319.918 191.394 320.405C190.828 320.893 190.022 321.137 188.974 321.137C187.998 321.137 187.219 320.918 186.636 320.48C186.057 320.038 185.713 319.387 185.604 318.525L186.875 318.409C187.039 319.549 187.739 320.118 188.974 320.118C189.593 320.118 190.079 319.965 190.43 319.66C190.785 319.355 190.963 318.901 190.963 318.3C190.963 317.776 190.76 317.368 190.354 317.076C189.953 316.78 189.372 316.632 188.611 316.632H187.914V315.565H188.584C189.258 315.565 189.78 315.42 190.149 315.128C190.523 314.832 190.71 314.424 190.71 313.904C190.71 313.389 190.557 312.984 190.252 312.688C189.951 312.387 189.502 312.236 188.905 312.236C188.363 312.236 187.923 312.375 187.586 312.653C187.253 312.931 187.06 313.323 187.005 313.829L185.768 313.733C185.859 312.945 186.185 312.33 186.745 311.888C187.31 311.446 188.035 311.225 188.919 311.225C189.885 311.225 190.635 311.45 191.168 311.901C191.706 312.348 191.975 312.972 191.975 313.774C191.975 314.39 191.801 314.891 191.455 315.278C191.113 315.661 190.614 315.921 189.958 316.058V316.085C190.678 316.162 191.239 316.404 191.64 316.81C192.041 317.215 192.241 317.726 192.241 318.341ZM198.886 318.819V321H197.724V318.819H193.185V317.862L197.594 311.368H198.886V317.849H200.239V318.819H198.886ZM194.319 317.849H197.724V314.007C197.724 313.797 197.724 313.59 197.724 313.385C197.728 313.175 197.737 312.965 197.751 312.756C197.646 312.956 197.555 313.12 197.478 313.248C197.4 313.371 197.329 313.478 197.266 313.569L194.319 317.849ZM207.854 317.862C207.854 318.879 207.551 319.678 206.945 320.262C206.344 320.845 205.507 321.137 204.437 321.137C203.539 321.137 202.814 320.941 202.263 320.549C201.711 320.157 201.363 319.59 201.217 318.847L202.461 318.703C202.593 319.177 202.826 319.535 203.158 319.776C203.491 320.013 203.926 320.132 204.464 320.132C205.125 320.132 205.642 319.934 206.016 319.537C206.389 319.136 206.576 318.587 206.576 317.89C206.576 317.284 206.387 316.794 206.009 316.42C205.635 316.046 205.129 315.859 204.491 315.859C204.159 315.859 203.849 315.912 203.562 316.017C203.274 316.121 202.987 316.299 202.7 316.55H201.497L201.818 311.368H207.294V312.414H202.939L202.755 315.47C203.288 315.06 203.951 314.854 204.744 314.854C205.378 314.854 205.927 314.982 206.392 315.237C206.856 315.488 207.216 315.839 207.472 316.29C207.727 316.741 207.854 317.265 207.854 317.862ZM215.62 317.849C215.62 318.865 215.344 319.667 214.793 320.255C214.242 320.843 213.48 321.137 212.51 321.137C211.425 321.137 210.596 320.733 210.021 319.927C209.447 319.12 209.16 317.947 209.16 316.406C209.16 314.738 209.459 313.458 210.056 312.564C210.653 311.671 211.503 311.225 212.605 311.225C213.335 311.225 213.927 311.389 214.383 311.717C214.843 312.045 215.167 312.535 215.354 313.187L214.178 313.398C213.941 312.615 213.412 312.223 212.592 312.223C211.89 312.223 211.345 312.551 210.958 313.207C210.575 313.859 210.384 314.804 210.384 316.044C210.607 315.629 210.922 315.315 211.327 315.101C211.733 314.882 212.198 314.772 212.722 314.772C213.61 314.772 214.314 315.05 214.834 315.606C215.358 316.162 215.62 316.91 215.62 317.849ZM214.369 317.903C214.369 317.206 214.198 316.668 213.856 316.29C213.515 315.912 213.038 315.723 212.428 315.723C211.854 315.723 211.389 315.891 211.033 316.229C210.682 316.561 210.507 317.021 210.507 317.609C210.507 318.102 210.591 318.539 210.76 318.922C210.928 319.305 211.159 319.605 211.45 319.824C211.746 320.038 212.086 320.146 212.469 320.146C213.061 320.146 213.526 319.947 213.863 319.551C214.201 319.15 214.369 318.601 214.369 317.903ZM223.324 312.366C222.832 313.118 222.41 313.788 222.06 314.376C221.713 314.964 221.44 315.472 221.239 315.9C220.834 316.753 220.528 317.593 220.323 318.423C220.123 319.252 220.022 320.111 220.022 321H218.737C218.737 320.362 218.803 319.715 218.936 319.059C219.068 318.398 219.28 317.705 219.571 316.98C219.845 316.301 220.191 315.586 220.61 314.834C221.034 314.077 221.542 313.271 222.135 312.414H216.96V311.368H223.324V312.366ZM231.213 318.313C231.213 319.202 230.93 319.895 230.365 320.392C229.8 320.888 228.989 321.137 227.932 321.137C226.902 321.137 226.095 320.893 225.512 320.405C224.933 319.918 224.644 319.225 224.644 318.327C224.644 317.698 224.824 317.17 225.184 316.741C225.544 316.313 226.004 316.053 226.564 315.962V315.935C226.04 315.812 225.626 315.545 225.32 315.135C225.02 314.725 224.869 314.244 224.869 313.692C224.869 312.959 225.143 312.364 225.689 311.908C226.241 311.452 226.979 311.225 227.904 311.225C228.852 311.225 229.6 311.448 230.146 311.895C230.698 312.341 230.974 312.945 230.974 313.706C230.974 314.257 230.821 314.738 230.516 315.148C230.21 315.559 229.793 315.816 229.265 315.921V315.948C229.88 316.049 230.358 316.311 230.7 316.734C231.042 317.154 231.213 317.68 231.213 318.313ZM229.695 313.774C229.695 312.685 229.098 312.141 227.904 312.141C226.719 312.141 226.127 312.685 226.127 313.774C226.127 314.326 226.282 314.747 226.592 315.039C226.906 315.326 227.348 315.47 227.918 315.47C228.497 315.47 228.937 315.338 229.237 315.073C229.543 314.804 229.695 314.371 229.695 313.774ZM229.935 318.197C229.935 317.6 229.757 317.151 229.401 316.851C229.046 316.545 228.547 316.393 227.904 316.393C227.28 316.393 226.792 316.557 226.441 316.885C226.09 317.208 225.915 317.655 225.915 318.225C225.915 318.885 226.084 319.382 226.421 319.715C226.763 320.048 227.271 320.214 227.945 320.214C228.615 320.214 229.114 320.054 229.442 319.735C229.771 319.412 229.935 318.899 229.935 318.197ZM238.951 315.989C238.951 317.644 238.648 318.915 238.042 319.804C237.44 320.692 236.581 321.137 235.465 321.137C234.713 321.137 234.109 320.979 233.653 320.665C233.202 320.346 232.879 319.833 232.683 319.127L233.858 318.942C234.104 319.744 234.647 320.146 235.485 320.146C236.192 320.146 236.739 319.817 237.126 319.161C237.513 318.505 237.716 317.568 237.734 316.352C237.552 316.762 237.24 317.092 236.798 317.343C236.356 317.589 235.87 317.712 235.342 317.712C234.768 317.712 234.266 317.577 233.838 317.309C233.41 317.04 233.077 316.661 232.84 316.174C232.603 315.686 232.484 315.117 232.484 314.465C232.484 313.458 232.767 312.667 233.332 312.093C233.897 311.514 234.683 311.225 235.69 311.225C236.761 311.225 237.573 311.621 238.124 312.414C238.675 313.207 238.951 314.399 238.951 315.989ZM237.611 314.8C237.611 314.025 237.434 313.403 237.078 312.934C236.723 312.46 236.246 312.223 235.649 312.223C235.057 312.223 234.59 312.425 234.248 312.831C233.906 313.232 233.735 313.777 233.735 314.465C233.735 315.167 233.906 315.723 234.248 316.133C234.59 316.538 235.052 316.741 235.636 316.741C235.991 316.741 236.317 316.659 236.613 316.495C236.914 316.331 237.156 316.103 237.338 315.812C237.52 315.515 237.611 315.178 237.611 314.8ZM242.232 319.503V321H240.899V319.503H242.232ZM250.716 317.268C250.716 318.557 250.488 319.526 250.032 320.173C249.581 320.815 248.902 321.137 247.995 321.137C246.856 321.137 246.09 320.708 245.698 319.852H245.664C245.682 319.883 245.691 320.271 245.691 321.014V323.905H244.461V315.114C244.461 314.736 244.456 314.422 244.447 314.171C244.443 313.916 244.434 313.727 244.42 313.604H245.609C245.614 313.622 245.621 313.711 245.63 313.87C245.644 314.03 245.655 314.203 245.664 314.39C245.673 314.572 245.678 314.706 245.678 314.793H245.705C245.924 314.337 246.213 314.005 246.573 313.795C246.933 313.581 247.407 313.474 247.995 313.474C248.907 313.474 249.588 313.779 250.039 314.39C250.49 315 250.716 315.96 250.716 317.268ZM249.424 317.295C249.424 316.265 249.285 315.529 249.007 315.087C248.729 314.645 248.287 314.424 247.681 314.424C247.006 314.424 246.505 314.659 246.177 315.128C245.853 315.593 245.691 316.347 245.691 317.391C245.691 318.361 245.846 319.077 246.156 319.537C246.466 319.997 246.97 320.228 247.667 320.228C248.278 320.228 248.722 320.004 249 319.558C249.283 319.106 249.424 318.352 249.424 317.295ZM257.019 321C257.009 320.95 256.998 320.856 256.984 320.72C256.975 320.578 256.966 320.424 256.957 320.255C256.952 320.086 256.95 319.938 256.95 319.811H256.923C256.695 320.285 256.392 320.624 256.014 320.829C255.64 321.034 255.175 321.137 254.619 321.137C253.685 321.137 252.997 320.822 252.555 320.193C252.117 319.564 251.898 318.612 251.898 317.336C251.898 316.046 252.124 315.08 252.575 314.438C253.031 313.79 253.712 313.467 254.619 313.467C255.18 313.467 255.647 313.569 256.021 313.774C256.394 313.979 256.695 314.305 256.923 314.752H256.937L256.923 313.925V310.855H258.153V319.476C258.153 319.863 258.156 320.184 258.16 320.439C258.169 320.69 258.181 320.877 258.194 321H257.019ZM253.19 317.295C253.19 318.329 253.327 319.07 253.601 319.517C253.874 319.963 254.318 320.187 254.934 320.187C255.631 320.187 256.137 319.945 256.451 319.462C256.766 318.979 256.923 318.229 256.923 317.213C256.923 316.233 256.766 315.515 256.451 315.06C256.137 314.604 255.635 314.376 254.947 314.376C254.327 314.376 253.879 314.606 253.601 315.066C253.327 315.522 253.19 316.265 253.19 317.295ZM261.571 314.499V321H260.341V314.499H259.302V313.604H260.341V312.77C260.341 312.095 260.489 311.61 260.785 311.313C261.081 311.017 261.535 310.869 262.146 310.869C262.487 310.869 262.777 310.896 263.014 310.951V311.888C262.795 311.851 262.613 311.833 262.467 311.833C262.152 311.833 261.924 311.913 261.783 312.072C261.642 312.232 261.571 312.521 261.571 312.94V313.604H263.014V314.499H261.571Z" fill="#6A6A6A"/>
<mask id="mask4_7_5053" style="mask-type:alpha" maskUnits="userSpaceOnUse" x="267" y="288" width="32" height="32">
<rect x="267" y="288" width="32" height="32" fill="#D9D9D9"/>
</mask>
<g mask="url(#mask4_7_5053)">
<path d="M281.1 306.866L277.967 303.733C277.789 303.555 277.561 303.472 277.284 303.484C277.006 303.494 276.778 303.589 276.6 303.766C276.4 303.966 276.3 304.2 276.3 304.466C276.3 304.733 276.4 304.966 276.6 305.166L280.267 308.833C280.489 309.055 280.767 309.166 281.1 309.166C281.433 309.166 281.722 309.055 281.967 308.833L289.4 301.366C289.578 301.189 289.661 300.961 289.651 300.682C289.639 300.405 289.545 300.177 289.367 300C289.167 299.8 288.933 299.7 288.667 299.7C288.4 299.7 288.167 299.8 287.967 300L281.1 306.866ZM283 316.666C281.245 316.666 279.595 316.333 278.051 315.666C276.506 315 275.167 314.1 274.033 312.966C272.9 311.833 272 310.494 271.333 308.949C270.667 307.405 270.333 305.755 270.333 304C270.333 302.244 270.667 300.594 271.333 299.049C272 297.505 272.9 296.166 274.033 295.033C275.167 293.9 276.506 293 278.051 292.333C279.595 291.666 281.245 291.333 283 291.333C284.756 291.333 286.406 291.666 287.951 292.333C289.495 293 290.833 293.9 291.967 295.033C293.1 296.166 294 297.505 294.667 299.049C295.333 300.594 295.667 302.244 295.667 304C295.667 305.755 295.333 307.405 294.667 308.949C294 310.494 293.1 311.833 291.967 312.966C290.833 314.1 289.495 315 287.951 315.666C286.406 316.333 284.756 316.666 283 316.666ZM283 314.666C285.956 314.666 288.473 313.628 290.551 311.55C292.628 309.472 293.667 306.955 293.667 304C293.667 301.044 292.628 298.527 290.551 296.449C288.473 294.372 285.956 293.333 283 293.333C280.045 293.333 277.528 294.372 275.451 296.449C273.373 298.527 272.333 301.044 272.333 304C272.333 306.955 273.373 309.472 275.451 311.55C277.528 313.628 280.045 314.666 283 314.666Z" fill="#15B37A"/>
</g>
</g>
<defs>
<filter id="filter0_d_7_5053" x="0" y="0" width="323" height="80" filterUnits="userSpaceOnUse" color-interpolation-filters="sRGB">
<feFlood flood-opacity="0" result="BackgroundImageFix"/>
<feColorMatrix in="SourceAlpha" type="matrix" values="0 0 0 0 0 0 0 0 0 0 0 0 0 0 0 0 0 0 127 0" result="hardAlpha"/>
<feOffset/>
<feGaussianBlur stdDeviation="4"/>
<feComposite in2="hardAlpha" operator="out"/>
<feColorMatrix type="matrix" values="0 0 0 0 0 0 0 0 0 0 0 0 0 0 0 0 0 0 0.1 0"/>
<feBlend mode="normal" in2="BackgroundImageFix" result="effect1_dropShadow_7_5053"/>
<feBlend mode="normal" in="SourceGraphic" in2="effect1_dropShadow_7_5053" result="shape"/>
</filter>
<filter id="filter1_d_7_5053" x="0" y="88" width="323" height="80" filterUnits="userSpaceOnUse" color-interpolation-filters="sRGB">
<feFlood flood-opacity="0" result="BackgroundImageFix"/>
<feColorMatrix in="SourceAlpha" type="matrix" values="0 0 0 0 0 0 0 0 0 0 0 0 0 0 0 0 0 0 127 0" result="hardAlpha"/>
<feOffset/>
<feGaussianBlur stdDeviation="4"/>
<feComposite in2="hardAlpha" operator="out"/>
<feColorMatrix type="matrix" values="0 0 0 0 0 0 0 0 0 0 0 0 0 0 0 0 0 0 0.1 0"/>
<feBlend mode="normal" in2="BackgroundImageFix" result="effect1_dropShadow_7_5053"/>
<feBlend mode="normal" in="SourceGraphic" in2="effect1_dropShadow_7_5053" result="shape"/>
</filter>
<filter id="filter2_d_7_5053" x="0" y="176" width="323" height="80" filterUnits="userSpaceOnUse" color-interpolation-filters="sRGB">
<feFlood flood-opacity="0" result="BackgroundImageFix"/>
<feColorMatrix in="SourceAlpha" type="matrix" values="0 0 0 0 0 0 0 0 0 0 0 0 0 0 0 0 0 0 127 0" result="hardAlpha"/>
<feOffset/>
<feGaussianBlur stdDeviation="4"/>
<feComposite in2="hardAlpha" operator="out"/>
<feColorMatrix type="matrix" values="0 0 0 0 0 0 0 0 0 0 0 0 0 0 0 0 0 0 0.1 0"/>
<feBlend mode="normal" in2="BackgroundImageFix" result="effect1_dropShadow_7_5053"/>
<feBlend mode="normal" in="SourceGraphic" in2="effect1_dropShadow_7_5053" result="shape"/>
</filter>
<filter id="filter3_d_7_5053" x="0" y="264" width="323" height="80" filterUnits="userSpaceOnUse" color-interpolation-filters="sRGB">
<feFlood flood-opacity="0" result="BackgroundImageFix"/>
<feColorMatrix in="SourceAlpha" type="matrix" values="0 0 0 0 0 0 0 0 0 0 0 0 0 0 0 0 0 0 127 0" result="hardAlpha"/>
<feOffset/>
<feGaussianBlur stdDeviation="4"/>
<feComposite in2="hardAlpha" operator="out"/>
<feColorMatrix type="matrix" values="0 0 0 0 0 0 0 0 0 0 0 0 0 0 0 0 0 0 0.1 0"/>
<feBlend mode="normal" in2="BackgroundImageFix" result="effect1_dropShadow_7_5053"/>
<feBlend mode="normal" in="SourceGraphic" in2="effect1_dropShadow_7_5053" result="shape"/>
</filter>
</defs>
</svg>
