<svg width="268" height="152" viewBox="0 0 268 152" fill="none" xmlns="http://www.w3.org/2000/svg">
<rect x="0.5" y="0.5" width="267" height="151" rx="4.5" fill="white"/>
<rect x="0.5" y="0.5" width="267" height="151" rx="4.5" stroke="#9747FF" stroke-dasharray="10 5"/>
<rect x="24.5" y="24.5" width="219" height="39" rx="3.5" fill="white"/>
<rect x="24.5" y="24.5" width="219" height="39" rx="3.5" stroke="#A0A0A0"/>
<path d="M101.393 40.6123V45.0215H100.135V40.6123H101.393ZM109.076 44.3379C109.076 43.4766 108.887 42.834 108.509 42.4102C108.131 41.9863 107.536 41.7744 106.725 41.7744H104.838V44.1396H106.499V45.3018H103.56V40.6123H106.738C107.96 40.6123 108.867 40.9176 109.459 41.5283C110.056 42.1344 110.354 43.0801 110.354 44.3652V44.9258C110.354 47.6419 109.069 49 106.499 49H103.635V47.8379H106.533C107.399 47.8379 108.039 47.5986 108.454 47.1201C108.869 46.637 109.076 45.9102 109.076 44.9395V44.3379ZM112.159 47.8926C113.034 47.569 113.782 47.1589 114.401 46.6621C115.026 46.1699 115.5 45.6322 115.823 45.0488C116.151 44.4655 116.315 43.873 116.315 43.2715C116.315 42.2734 115.782 41.7744 114.716 41.7744H111.318V37.6182H112.576V40.6123H114.846C116.673 40.6123 117.587 41.4258 117.587 43.0527C117.587 43.8913 117.386 44.6956 116.985 45.4658C116.584 46.236 116.019 46.9287 115.29 47.5439C114.424 48.2822 113.381 48.8701 112.159 49.3076V47.8926ZM124.895 40.6123V51.6318H123.637V40.6123H124.895ZM128.531 40.6123V49H127.273V40.6123H128.531ZM134.048 43.8594V49H130.213V47.8379H132.79V44.2148C132.79 43.4766 132.754 42.9548 132.681 42.6494C132.608 42.335 132.48 42.1117 132.298 41.9795C132.12 41.8428 131.863 41.7744 131.525 41.7744H130.603V40.6123H131.484C132.214 40.6123 132.747 40.7126 133.084 40.9131C133.421 41.1182 133.665 41.4531 133.815 41.918C133.97 42.3783 134.048 43.0254 134.048 43.8594ZM137.623 40.6123V45.0215H136.365V40.6123H137.623ZM139.722 44.6045C139.722 44.2354 139.751 43.8639 139.811 43.4902C139.874 43.112 139.956 42.7702 140.057 42.4648C140.161 42.1595 140.273 41.9294 140.392 41.7744H139.161V40.6123H143.7C144.958 40.6123 145.86 40.8812 146.407 41.4189C146.954 41.9521 147.228 42.8408 147.228 44.085V44.6865C147.228 46.1449 146.899 47.2523 146.243 48.0088C145.591 48.7607 144.637 49.1367 143.379 49.1367C142.13 49.1367 141.207 48.7858 140.61 48.084C140.018 47.3776 139.722 46.2975 139.722 44.8438V44.6045ZM141.513 41.7744C141.207 42.3122 141.055 43.2373 141.055 44.5498V44.9121C141.055 45.9147 141.255 46.6758 141.656 47.1953C142.062 47.7148 142.645 47.9746 143.406 47.9746C144.277 47.9746 144.906 47.7171 145.293 47.2021C145.685 46.6872 145.881 45.8441 145.881 44.6729V44.0713C145.881 43.2236 145.719 42.6289 145.396 42.2871C145.072 41.9453 144.502 41.7744 143.687 41.7744H141.513Z" fill="#161616"/>
<path d="M161.369 44.2705V49.1038C161.369 49.3122 161.299 49.4858 161.16 49.6247C161.021 49.7636 160.848 49.833 160.639 49.833H159.598C159.389 49.833 159.216 49.7636 159.077 49.6247C158.938 49.4858 158.869 49.3122 158.869 49.1038V44.2705L154.348 38.5205C154.153 38.2566 154.115 37.9927 154.234 37.7288C154.351 37.465 154.577 37.333 154.91 37.333H165.348C165.653 37.333 165.872 37.465 166.004 37.7288C166.136 37.9927 166.105 38.2497 165.91 38.4997L161.369 44.2705ZM160.119 43.833L164.244 38.583H155.994L160.119 43.833Z" fill="#2D7FAD"/>
<rect x="24.5" y="88.5" width="219" height="39" rx="3.5" fill="white"/>
<rect x="24.5" y="88.5" width="219" height="39" rx="3.5" stroke="#A0A0A0"/>
<path d="M44 108.992L39.2047 113.787C39.0787 113.913 38.9175 113.98 38.7209 113.988C38.5238 113.996 38.3543 113.929 38.2126 113.787C38.0709 113.646 38 113.48 38 113.291C38 113.102 38.0709 112.937 38.2126 112.795L43.0079 108L38.2126 103.205C38.0866 103.079 38.0198 102.917 38.0123 102.72C38.0041 102.523 38.0709 102.354 38.2126 102.213C38.3543 102.071 38.5197 102 38.7087 102C38.8976 102 39.063 102.071 39.2047 102.213L44 107.008L48.7953 102.213C48.9213 102.087 49.0828 102.02 49.28 102.011C49.4765 102.004 49.6457 102.071 49.7874 102.213C49.9291 102.354 50 102.52 50 102.709C50 102.898 49.9291 103.063 49.7874 103.205L44.9921 108L49.7874 112.795C49.9134 112.921 49.9802 113.083 49.9877 113.279C49.9959 113.476 49.9291 113.646 49.7874 113.787C49.6457 113.929 49.4803 114 49.2913 114C49.1024 114 48.937 113.929 48.7953 113.787L44 108.992Z" fill="#2D7FAD"/>
<path d="M188.592 104.612V113H187.334V104.612H188.592ZM196.139 108.085V113H194.874V108.071C194.874 107.242 194.705 106.652 194.368 106.301C194.035 105.95 193.45 105.774 192.611 105.774H190.048V104.612H192.625C193.464 104.612 194.14 104.731 194.655 104.968C195.17 105.2 195.546 105.572 195.783 106.082C196.02 106.588 196.139 107.256 196.139 108.085ZM204.089 108.071C204.089 107.242 203.92 106.652 203.583 106.301C203.25 105.95 202.665 105.774 201.826 105.774H199.707V113H198.449V104.612H201.84C203.098 104.612 203.998 104.881 204.54 105.419C205.082 105.957 205.354 106.845 205.354 108.085V113H204.089V108.071ZM214.356 111.838V113H207.035V111.838H212.189V108.071C212.189 107.233 212.019 106.64 211.677 106.294C211.34 105.948 210.754 105.774 209.92 105.774H207.356V104.612H209.934C211.191 104.612 212.091 104.881 212.634 105.419C213.176 105.957 213.447 106.845 213.447 108.085V111.838H214.356ZM219.183 107.859V113H215.348V111.838H217.925V108.215C217.925 107.477 217.888 106.955 217.815 106.649C217.743 106.335 217.615 106.112 217.433 105.979C217.255 105.843 216.997 105.774 216.66 105.774H215.737V104.612H216.619C217.348 104.612 217.882 104.713 218.219 104.913C218.556 105.118 218.8 105.453 218.95 105.918C219.105 106.378 219.183 107.025 219.183 107.859ZM231.378 110.341C231.378 111.229 231.095 111.918 230.53 112.405C229.965 112.893 229.159 113.137 228.11 113.137C227.135 113.137 226.356 112.918 225.772 112.48C225.194 112.038 224.85 111.387 224.74 110.525L226.012 110.409C226.176 111.549 226.875 112.118 228.11 112.118C228.73 112.118 229.215 111.965 229.566 111.66C229.922 111.355 230.1 110.901 230.1 110.3C230.1 109.776 229.897 109.368 229.491 109.076C229.09 108.78 228.509 108.632 227.748 108.632H227.051V107.565H227.721C228.395 107.565 228.917 107.42 229.286 107.128C229.66 106.832 229.847 106.424 229.847 105.904C229.847 105.389 229.694 104.984 229.389 104.688C229.088 104.387 228.639 104.236 228.042 104.236C227.5 104.236 227.06 104.375 226.723 104.653C226.39 104.931 226.196 105.323 226.142 105.829L224.904 105.733C224.995 104.945 225.321 104.33 225.882 103.888C226.447 103.446 227.172 103.225 228.056 103.225C229.022 103.225 229.771 103.45 230.305 103.901C230.842 104.348 231.111 104.972 231.111 105.774C231.111 106.39 230.938 106.891 230.592 107.278C230.25 107.661 229.751 107.921 229.095 108.058V108.085C229.815 108.162 230.375 108.404 230.776 108.81C231.177 109.215 231.378 109.726 231.378 110.341Z" fill="#161616"/>
</svg>
