<svg width="222" height="32" viewBox="0 0 222 32" fill="none" xmlns="http://www.w3.org/2000/svg">
<path d="M221.796 31.1911C219.458 31.1911 217.22 31.1595 214.982 31.21C214.284 31.2247 214.205 30.7705 214.02 30.3352C211.147 23.589 208.277 16.8427 205.404 10.0965C205.257 9.75163 205.098 9.41306 204.884 8.93359C203.143 13.1794 201.459 17.2801 199.781 21.3809C198.565 24.3544 197.328 27.3196 196.165 30.312C195.886 31.0312 195.51 31.2247 194.781 31.2079C192.614 31.1595 190.445 31.1911 188.24 31.1911C185.366 25.3176 182.502 19.4651 179.56 13.4549C181.095 13.4549 182.447 13.4885 183.797 13.4486C186.319 13.3708 187.852 11.8756 187.825 9.57498C187.8 7.61504 186.554 6.08411 184.604 5.95583C182.556 5.82124 180.494 5.92639 178.348 5.92639V31.1469H171.826C171.826 30.76 171.826 30.4172 171.826 30.0765C171.826 22.2263 171.835 14.376 171.812 6.52572C171.812 5.84017 171.992 5.3607 172.507 4.89805C174.069 3.49329 175.555 2.00651 177.128 0.614368C177.502 0.284207 178.092 0.0255455 178.579 0.0297514C181.303 0.0549866 184.07 -0.104837 186.739 0.319957C190.5 0.919294 193.053 3.29141 194.004 7.02622C194.901 10.5486 194.269 13.7935 191.394 16.2981C190.67 16.929 189.794 17.3832 188.921 17.9615C189.731 19.5324 190.563 21.139 191.474 22.9076C191.68 22.466 191.837 22.1463 191.978 21.8225C194.991 14.8702 198.013 7.92207 200.997 0.959249C201.301 0.246354 201.654 -0.0291308 202.45 0.00241323C204.233 0.0739131 206.02 0.0381632 207.802 0.0150309C208.308 0.00872204 208.596 0.109663 208.823 0.641706C213.104 10.6958 217.415 20.7395 221.716 30.7852C221.756 30.8756 221.756 30.9829 221.796 31.1974V31.1911ZM188.159 17.6061C188.339 17.5157 188.459 17.4505 188.583 17.3958C192.274 15.7576 194.095 12.8324 193.836 8.95041C193.582 5.12727 191.136 2.01282 187.468 0.961352C184.459 0.0970454 181.378 0.610162 178.384 0.477677V5.31443C179.379 5.31443 180.288 5.31443 181.196 5.31443C182.105 5.31443 183.016 5.2892 183.923 5.32705C186.59 5.43851 188.377 7.19025 188.371 9.65069C188.364 12.1616 186.519 13.8944 183.795 13.9323C182.697 13.947 181.597 13.9344 180.362 13.9344C183.069 19.4588 185.704 24.8444 188.352 30.2237C188.446 30.4172 188.669 30.6801 188.835 30.6843C190.832 30.7158 192.829 30.7053 194.941 30.7053C192.627 26.2344 190.399 21.9339 188.159 17.6061ZM195.464 30.5917C199.594 20.5018 203.674 10.5381 207.783 0.496603C205.885 0.496603 204.136 0.465059 202.391 0.526044C202.082 0.536559 201.637 0.858309 201.509 1.14851C198.332 8.40575 195.187 15.6756 192.058 22.9539C191.93 23.2525 191.921 23.7172 192.064 24.0011C193.139 26.1545 194.265 28.2848 195.464 30.5896V30.5917ZM208.275 0.677456C207.24 3.19888 206.286 5.48477 205.375 7.78749C205.266 8.06507 205.295 8.47515 205.415 8.75904C208.426 15.8943 211.456 23.0212 214.501 30.1417C214.602 30.3772 214.902 30.6822 215.114 30.6885C217.056 30.7305 219.001 30.7137 221.128 30.7137C216.832 20.6764 212.598 10.7821 208.275 0.679559V0.677456ZM177.792 0.662735C176.07 2.27569 174.594 3.70148 173.063 5.06629C172.517 5.55417 172.313 6.05677 172.315 6.78438C172.341 14.3823 172.33 21.9802 172.33 29.5781C172.33 29.923 172.33 30.2658 172.33 30.6422H177.79V0.662735H177.792Z" fill="white"/>
<path d="M0.234153 25.0938C0.893517 25.2373 1.45613 25.424 2.03307 25.467C3.46647 25.5819 4.38026 24.9287 4.39101 23.4429C4.42685 17.9556 4.40535 12.4647 4.40535 6.79435H0.58892V0.610799C6.48019 0.610799 12.3105 0.585678 18.1373 0.628744C19.6209 0.63951 21.1152 0.76153 22.5809 0.984037C25.6232 1.45059 27.2717 3.39932 27.7841 6.33498C28.017 7.68079 28.1389 9.06249 28.146 10.4298C28.1819 16.7677 28.164 23.102 28.164 29.4398V31.0764H19.4919C19.4919 27.7459 19.4919 24.4765 19.4919 21.2071C19.4919 17.8587 19.5098 14.5103 19.4883 11.1655C19.4632 7.36856 18.8576 6.77282 15.1451 6.77282C14.5502 6.77282 13.9554 6.77282 13.2136 6.77282C13.1742 7.23936 13.1025 7.69156 13.1025 8.14016C13.0953 13.1609 13.1168 18.1853 13.0918 23.2061C13.0595 29.9602 8.26119 33.4306 1.73564 31.4424C0.739427 31.141 0.0908134 30.6744 0.205485 29.4255C0.330908 28.0043 0.234153 26.5652 0.234153 25.0974V25.0938Z" fill="white"/>
<path d="M142.073 31.0797H118.192V0.775684C124.026 0.775684 129.857 0.524466 135.655 0.865404C139.5 1.0915 141.396 3.30222 141.761 7.15662C142.062 10.3579 142.033 13.5914 142.066 16.8106C142.112 21.5191 142.076 26.2241 142.076 31.0797H142.073ZM133.573 25.3663C133.573 19.9436 133.573 14.686 133.573 9.42835C133.573 7.7739 132.885 6.61112 131.129 6.4891C129.606 6.38502 128.068 6.46756 126.535 6.46756V25.3663H133.573Z" fill="white"/>
<path d="M104.285 31.1519C101.156 31.1519 98.3575 31.2093 95.5659 31.0981C95.0535 31.0766 94.3726 30.4665 94.1038 29.9533C91.9036 25.722 89.7857 21.4513 87.6428 17.195C87.46 16.8325 87.2629 16.4736 86.5785 16.0465C86.4352 16.6961 86.1736 17.3457 86.1664 17.9989C86.1306 22.2983 86.1485 26.5941 86.1485 31.0227H77.7595C77.7595 26.9638 77.5409 22.9048 77.824 18.8853C78.082 15.2319 80.6872 13.136 84.0772 11.6682C81.4828 8.01834 78.9779 4.49411 76.2114 0.607409C78.4081 0.607409 80.3611 0.840683 82.2317 0.557165C85.6217 0.0403741 87.5532 1.34671 88.8612 4.4654C90.0043 7.20009 91.6742 9.71227 93.122 12.3178C93.3907 12.8022 93.724 13.2544 94.4264 13.6241V0.740195H103.027C103.027 4.37927 103.263 8.02552 102.948 11.6179C102.726 14.166 100.952 16.0214 98.6692 17.2452C98.0457 17.579 97.4114 17.8912 96.6875 18.2609C99.1781 22.4885 101.644 26.6659 104.285 31.1483V31.1519Z" fill="white"/>
<path d="M71.205 31.1021H62.4541V6.76268H52.9722V0.711914H74.6201V6.64066H71.2086V31.1021H71.205Z" fill="white"/>
<path d="M31.4751 6.77306V0.962748C35.7072 0.962748 39.8712 0.772541 44.0102 1.02735C46.9701 1.21038 48.6078 3.31702 49.2313 6.14502C49.4499 7.13194 49.6112 8.15476 49.6184 9.16322C49.6506 16.3983 49.6363 23.6334 49.6363 31.0084H40.8531C40.8531 30.4522 40.8531 29.8241 40.8531 29.1961C40.8531 23.2745 40.8603 17.3565 40.8531 11.4349C40.8459 7.26114 40.3514 6.77306 36.2627 6.76947C34.7146 6.76947 33.1701 6.76947 31.4823 6.76947L31.4751 6.77306Z" fill="white"/>
<path d="M145.419 6.77307V0.919695C149.598 0.919695 153.719 0.629 157.779 1.00942C161.187 1.32882 162.735 3.28114 163.265 6.67259C163.477 8.02557 163.588 9.40727 163.595 10.7746C163.627 16.9941 163.609 23.2135 163.609 29.4365C163.609 29.9569 163.609 30.4773 163.609 31.0766H154.808C154.808 30.4557 154.808 29.8277 154.808 29.1997C154.808 23.2781 154.815 17.3565 154.805 11.435C154.797 7.26833 154.299 6.77666 150.207 6.77307C148.659 6.77307 147.114 6.77307 145.423 6.77307H145.419Z" fill="white"/>
</svg>
