<svg width="414" height="204" viewBox="0 0 414 204" fill="none" xmlns="http://www.w3.org/2000/svg">
<path d="M386.554 13.7012C386.399 14.1615 386.153 14.4941 385.815 14.6992C385.478 14.8997 384.947 15 384.223 15H384.147V13.8379H384.264C384.578 13.8379 384.829 13.7786 385.016 13.6602C385.198 13.5417 385.328 13.3617 385.405 13.1201C385.483 12.874 385.521 12.5026 385.521 12.0059V7.77441H384.223V6.6123H388.755C390.013 6.6123 390.915 6.88118 391.462 7.41895C392.009 7.95215 392.282 8.84082 392.282 10.085V15H391.024V10.0713C391.024 9.23275 390.854 8.6403 390.512 8.29395C390.174 7.94759 389.584 7.77441 388.741 7.77441H386.779V11.7529C386.779 12.5915 386.704 13.2409 386.554 13.7012ZM395.57 6.6123V11.0215H394.312V6.6123H395.57ZM399.494 6.6123V15H398.236V6.6123H399.494ZM403.131 6.6123V15H401.873V6.6123H403.131ZM407.144 13.7012C406.989 14.1615 406.743 14.4941 406.405 14.6992C406.068 14.8997 405.537 15 404.812 15H404.737V13.8379H404.854C405.168 13.8379 405.419 13.7786 405.605 13.6602C405.788 13.5417 405.918 13.3617 405.995 13.1201C406.073 12.874 406.111 12.5026 406.111 12.0059V7.77441H404.812V6.6123H409.345C410.603 6.6123 411.505 6.88118 412.052 7.41895C412.599 7.95215 412.872 8.84082 412.872 10.085V15H411.614V10.0713C411.614 9.23275 411.443 8.6403 411.102 8.29395C410.764 7.94759 410.174 7.77441 409.331 7.77441H407.369V11.7529C407.369 12.5915 407.294 13.2409 407.144 13.7012Z" fill="white"/>
<rect x="0.5" y="24.5" width="413" height="159" rx="4.5" fill="white"/>
<rect x="0.5" y="24.5" width="413" height="159" rx="4.5" stroke="#6A6A6A"/>
<path d="M313.156 53.2891V55H311.633V53.2891H313.156ZM317.609 53.2891V55H316.086V53.2891H317.609ZM322.062 53.2891V55H320.539V53.2891H322.062ZM326.328 45.4141V58.0078H324.891V45.4141H326.328ZM330.344 51.8516L329.719 55H328.203L328.859 51.8828C329.047 50.987 329.219 50.3568 329.375 49.9922C329.531 49.6224 329.727 49.3229 329.961 49.0938C330.201 48.8646 330.521 48.6693 330.922 48.5078L328.664 45.4141H330.438L333.961 50.2656C334.352 49.901 334.661 49.4609 334.891 48.9453C335.125 48.4245 335.279 47.8281 335.352 47.1562L335.531 45.4141H337.016L336.836 47.125C336.779 47.6979 336.674 48.2005 336.523 48.6328C336.419 48.9297 336.294 49.2135 336.148 49.4844C336.003 49.75 335.815 50.026 335.586 50.3125C335.362 50.599 335.07 50.9193 334.711 51.2734L337.531 55H335.703L331.578 49.3984C331.161 49.6016 330.865 49.9531 330.688 50.4531C330.635 50.5833 330.581 50.7656 330.523 51C330.471 51.2344 330.411 51.5182 330.344 51.8516ZM345.258 50.3438C345.258 53.4479 343.789 55 340.852 55H338.359V53.6719H340.883C341.878 53.6719 342.612 53.3958 343.086 52.8438C343.56 52.2917 343.797 51.4635 343.797 50.3594V50.0547C343.797 48.9453 343.557 48.1172 343.078 47.5703C342.604 47.0182 341.872 46.7422 340.883 46.7422H338.359V45.4141H340.852C343.789 45.4141 345.258 46.9661 345.258 50.0703V50.3438ZM353.391 45.4141V55H351.953V45.4141H353.391ZM361.984 46.7422V55H360.539V46.7422H355.07V45.4141H363.18V46.7422H361.984ZM366.422 45.4141V50.4531H364.984V45.4141H366.422ZM369.289 53.7344C370.289 53.3646 371.143 52.8958 371.852 52.3281C372.565 51.7656 373.107 51.151 373.477 50.4844C373.852 49.8177 374.039 49.1406 374.039 48.4531C374.039 47.3125 373.43 46.7422 372.211 46.7422H368.328V41.9922H369.766V45.4141H372.359C374.448 45.4141 375.492 46.3438 375.492 48.2031C375.492 49.1615 375.263 50.0807 374.805 50.9609C374.346 51.8411 373.701 52.6328 372.867 53.3359C371.878 54.1797 370.685 54.8516 369.289 55.3516V53.7344ZM384.828 48.3906C384.828 49.3698 384.63 50.2995 384.234 51.1797C383.839 52.0599 383.279 52.849 382.555 53.5469C381.831 54.2396 380.971 54.7943 379.977 55.2109V53.5625C381.065 53.0729 381.901 52.3932 382.484 51.5234C383.073 50.6484 383.367 49.6693 383.367 48.5859C383.367 47.888 383.214 47.4062 382.906 47.1406C382.604 46.875 382.081 46.7422 381.336 46.7422H377.227V45.4141H381.273C382.56 45.4141 383.474 45.6458 384.016 46.1094C384.557 46.5677 384.828 47.3281 384.828 48.3906ZM379.062 48.7734V58.0078H377.625V48.7734H379.062ZM394.57 49.3828V55H393.125V49.3672C393.125 48.4089 392.93 47.7318 392.539 47.3359C392.154 46.9401 391.484 46.7422 390.531 46.7422H386.891V45.4141H390.555C391.513 45.4141 392.286 45.5495 392.875 45.8203C393.464 46.0859 393.893 46.5104 394.164 47.0938C394.435 47.6719 394.57 48.4349 394.57 49.3828ZM388.484 48.7734V55H387.047V48.7734H388.484Z" fill="#A0A0A0"/>
<path d="M398.57 43.4062V58.3906H397.273V43.4062H398.57Z" fill="#161616"/>
<path d="M2.41992 198.887C2.28711 199.281 2.07617 199.566 1.78711 199.742C1.49805 199.914 1.04297 200 0.421875 200H0.357422V199.004H0.457031C0.726562 199.004 0.941406 198.953 1.10156 198.852C1.25781 198.75 1.36914 198.596 1.43555 198.389C1.50195 198.178 1.53516 197.859 1.53516 197.434V193.807H0.421875V192.811H4.30664C5.38477 192.811 6.1582 193.041 6.62695 193.502C7.0957 193.959 7.33008 194.721 7.33008 195.787V200H6.25195V195.775C6.25195 195.057 6.10547 194.549 5.8125 194.252C5.52344 193.955 5.01758 193.807 4.29492 193.807H2.61328V197.217C2.61328 197.936 2.54883 198.492 2.41992 198.887ZM10.1484 192.811V196.59H9.07031V192.811H10.1484ZM15.2754 200.117C14.2793 200.117 13.5469 199.867 13.0781 199.367C12.6094 198.863 12.375 198.09 12.375 197.047V192.811H13.4531V197.012C13.4531 197.738 13.5957 198.27 13.8809 198.605C14.1699 198.941 14.6406 199.109 15.293 199.109C15.8047 199.109 16.2207 199.006 16.541 198.799C16.8613 198.592 17.0957 198.266 17.2441 197.82C17.3965 197.371 17.4727 196.781 17.4727 196.051C17.4727 195.238 17.3867 194.645 17.2148 194.27C17.043 193.891 16.75 193.701 16.3359 193.701C15.9375 193.701 15.5527 193.828 15.1816 194.082V193.051C15.4824 192.812 15.9023 192.693 16.4414 192.693C17.2422 192.693 17.8027 192.957 18.123 193.484C18.4434 194.008 18.6035 194.863 18.6035 196.051C18.6035 197.453 18.3359 198.482 17.8008 199.139C17.2656 199.791 16.4238 200.117 15.2754 200.117ZM22.9629 195.594V200H19.6758V199.004H21.8848V195.898C21.8848 195.266 21.8535 194.818 21.791 194.557C21.7285 194.287 21.6191 194.096 21.4629 193.982C21.3105 193.865 21.0898 193.807 20.8008 193.807H20.0098V192.811H20.7656C21.3906 192.811 21.8477 192.896 22.1367 193.068C22.4258 193.244 22.6348 193.531 22.7637 193.93C22.8965 194.324 22.9629 194.879 22.9629 195.594ZM26.0273 192.811V200H24.9492V192.811H26.0273ZM29.1445 192.811V200H28.0664V192.811H29.1445ZM31.2949 199.051C32.0449 198.773 32.6855 198.422 33.2168 197.996C33.752 197.574 34.1582 197.113 34.4355 196.613C34.7168 196.113 34.8574 195.605 34.8574 195.09C34.8574 194.234 34.4004 193.807 33.4863 193.807H30.5742V190.244H31.6523V192.811H33.5977C35.1641 192.811 35.9473 193.508 35.9473 194.902C35.9473 195.621 35.7754 196.311 35.4316 196.971C35.0879 197.631 34.6035 198.225 33.9785 198.752C33.2363 199.385 32.3418 199.889 31.2949 200.264V199.051ZM41.9766 195.787V200H40.8926V195.775C40.8926 195.064 40.748 194.559 40.459 194.258C40.1738 193.957 39.6719 193.807 38.9531 193.807H36.7559V192.811H38.9648C39.6836 192.811 40.2637 192.912 40.7051 193.115C41.1465 193.314 41.4688 193.633 41.6719 194.07C41.875 194.504 41.9766 195.076 41.9766 195.787ZM52.9277 195.787V200H51.8438V195.775C51.8438 195.057 51.6973 194.549 51.4043 194.252C51.1152 193.955 50.6133 193.807 49.8984 193.807H47.168V192.811H49.916C50.6348 192.811 51.2148 192.912 51.6562 193.115C52.0977 193.314 52.4199 193.633 52.623 194.07C52.8262 194.504 52.9277 195.076 52.9277 195.787ZM48.3633 195.33V200H47.2852V195.33H48.3633ZM58.9688 195.787V200H57.8848V195.775C57.8848 195.064 57.7402 194.559 57.4512 194.258C57.166 193.957 56.6641 193.807 55.9453 193.807H53.748V192.811H55.957C56.6758 192.811 57.2559 192.912 57.6973 193.115C58.1387 193.314 58.4609 193.633 58.6641 194.07C58.8672 194.504 58.9688 195.076 58.9688 195.787ZM60.5332 199.051C61.6152 199.051 62.4629 198.951 63.0762 198.752L60.9023 192.811H62.0918L64.0137 198.295C64.3809 198.033 64.6758 197.684 64.8984 197.246C65.125 196.805 65.2891 196.227 65.3906 195.512C65.4961 194.797 65.5488 193.896 65.5488 192.811H66.6797C66.6797 194.615 66.4883 196.029 66.1055 197.053C65.8477 197.732 65.4863 198.295 65.0215 198.74C64.5566 199.182 63.957 199.521 63.2227 199.76C62.4922 199.994 61.5957 200.139 60.5332 200.193V199.051ZM73.9277 195.787V200H72.8438V195.775C72.8438 195.057 72.6973 194.549 72.4043 194.252C72.1152 193.955 71.6133 193.807 70.8984 193.807H68.168V192.811H70.916C71.6348 192.811 72.2148 192.912 72.6562 193.115C73.0977 193.314 73.4199 193.633 73.623 194.07C73.8262 194.504 73.9277 195.076 73.9277 195.787ZM69.3633 195.33V200H68.2852V195.33H69.3633Z" fill="#F9F8F8"/>
</svg>
