<svg width="414" height="204" viewBox="0 0 414 204" fill="none" xmlns="http://www.w3.org/2000/svg">
<path d="M381.099 13.7012C380.944 14.1615 380.698 14.4941 380.36 14.6992C380.023 14.8997 379.492 15 378.768 15H378.692V13.8379H378.809C379.123 13.8379 379.374 13.7786 379.561 13.6602C379.743 13.5417 379.873 13.3617 379.95 13.1201C380.028 12.874 380.066 12.5026 380.066 12.0059V7.77441H378.768V6.6123H383.3C384.558 6.6123 385.46 6.88118 386.007 7.41895C386.554 7.95215 386.827 8.84082 386.827 10.085V15H385.569V10.0713C385.569 9.23275 385.398 8.6403 385.057 8.29395C384.719 7.94759 384.129 7.77441 383.286 7.77441H381.324V11.7529C381.324 12.5915 381.249 13.2409 381.099 13.7012ZM390.115 6.6123V11.0215H388.857V6.6123H390.115ZM394.039 6.6123V15H392.781V6.6123H394.039ZM397.676 6.6123V15H396.418V6.6123H397.676ZM401.688 13.7012C401.534 14.1615 401.287 14.4941 400.95 14.6992C400.613 14.8997 400.082 15 399.357 15H399.282V13.8379H399.398C399.713 13.8379 399.964 13.7786 400.15 13.6602C400.333 13.5417 400.463 13.3617 400.54 13.1201C400.618 12.874 400.656 12.5026 400.656 12.0059V7.77441H399.357V6.6123H403.89C405.147 6.6123 406.05 6.88118 406.597 7.41895C407.144 7.95215 407.417 8.84082 407.417 10.085V15H406.159V10.0713C406.159 9.23275 405.988 8.6403 405.646 8.29395C405.309 7.94759 404.719 7.77441 403.876 7.77441H401.914V11.7529C401.914 12.5915 401.839 13.2409 401.688 13.7012ZM413.111 9.79102L412.298 10.2832L411.272 8.51953L410.206 10.2695L409.393 9.77734L410.685 8.08203L408.771 7.58301L409.078 6.66699L410.903 7.39844L410.821 5.36816H411.751L411.662 7.38477L413.467 6.68066L413.774 7.58301L411.847 8.08203L413.111 9.79102Z" fill="white"/>
<rect x="0.5" y="24.5" width="413" height="159" rx="4.5" fill="white"/>
<rect x="0.5" y="24.5" width="413" height="159" rx="4.5" stroke="#6A6A6A"/>
<path d="M25.3672 53.5156C25.1901 54.0417 24.9089 54.4219 24.5234 54.6562C24.138 54.8854 23.5312 55 22.7031 55H22.6172V53.6719H22.75C23.1094 53.6719 23.3958 53.6042 23.6094 53.4688C23.8177 53.3333 23.9661 53.1276 24.0547 52.8516C24.1432 52.5703 24.1875 52.1458 24.1875 51.5781V46.7422H22.7031V45.4141H27.8828C29.3203 45.4141 30.3516 45.7214 30.9766 46.3359C31.6016 46.9453 31.9141 47.9609 31.9141 49.3828V55H30.4766V49.3672C30.4766 48.4089 30.2812 47.7318 29.8906 47.3359C29.5052 46.9401 28.8307 46.7422 27.8672 46.7422H25.625V51.2891C25.625 52.2474 25.5391 52.9896 25.3672 53.5156ZM35.6719 45.4141V50.4531H34.2344V45.4141H35.6719ZM38.8672 53.7344C39.8672 53.3646 40.7214 52.8958 41.4297 52.3281C42.1432 51.7656 42.6849 51.151 43.0547 50.4844C43.4297 49.8177 43.6172 49.1406 43.6172 48.4531C43.6172 47.3125 43.0078 46.7422 41.7891 46.7422H37.9062V41.9922H39.3438V45.4141H41.9375C44.026 45.4141 45.0703 46.3438 45.0703 48.2031C45.0703 49.1615 44.8411 50.0807 44.3828 50.9609C43.9245 51.8411 43.2786 52.6328 42.4453 53.3359C41.4557 54.1797 40.263 54.8516 38.8672 55.3516V53.7344ZM48.1719 51.8516L47.5469 55H46.0312L46.6875 51.8828C46.875 50.987 47.0469 50.3568 47.2031 49.9922C47.3594 49.6224 47.5547 49.3229 47.7891 49.0938C48.0286 48.8646 48.349 48.6693 48.75 48.5078L46.4922 45.4141H48.2656L51.7891 50.2656C52.1797 49.901 52.4896 49.4609 52.7188 48.9453C52.9531 48.4245 53.1068 47.8281 53.1797 47.1562L53.3594 45.4141H54.8438L54.6641 47.125C54.6068 47.6979 54.5026 48.2005 54.3516 48.6328C54.2474 48.9297 54.1224 49.2135 53.9766 49.4844C53.8307 49.75 53.6432 50.026 53.4141 50.3125C53.1901 50.599 52.8984 50.9193 52.5391 51.2734L55.3594 55H53.5312L49.4062 49.3984C48.9896 49.6016 48.6927 49.9531 48.5156 50.4531C48.4635 50.5833 48.4089 50.7656 48.3516 51C48.2995 51.2344 48.2396 51.5182 48.1719 51.8516ZM62.375 45.4141C62.8281 45.4141 63.1979 45.4505 63.4844 45.5234C63.776 45.5911 64.0156 45.7214 64.2031 45.9141C64.3906 46.1016 64.5573 46.3776 64.7031 46.7422C64.7812 46.9245 64.8724 47.2083 64.9766 47.5938C65.0807 47.974 65.2005 48.4583 65.3359 49.0469L66.6953 55H65.2734L64.3906 51.0625C63.9531 51.1719 63.6328 51.3047 63.4297 51.4609C63.2318 51.6172 63.0677 51.849 62.9375 52.1562C62.8698 52.3073 62.8047 52.5052 62.7422 52.75C62.6849 52.9896 62.6276 53.2708 62.5703 53.5938L62.3125 55H60.8359L61.1094 53.5781C61.2292 52.9583 61.349 52.4583 61.4688 52.0781C61.5938 51.6927 61.75 51.3802 61.9375 51.1406C62.0885 50.9427 62.2734 50.7708 62.4922 50.625C62.7109 50.474 63.026 50.3385 63.4375 50.2188L64.1484 50.0078C64.0182 49.4557 63.9036 48.9948 63.8047 48.625C63.7057 48.25 63.6224 47.9661 63.5547 47.7734C63.4193 47.388 63.2708 47.1198 63.1094 46.9688C62.9479 46.8177 62.7188 46.7422 62.4219 46.7422H61.3672V45.4141H62.375ZM72.0547 49.125V55H67.6719V53.6719H70.6172V49.5312C70.6172 48.6875 70.5755 48.0911 70.4922 47.7422C70.4089 47.3828 70.263 47.1276 70.0547 46.9766C69.8516 46.8203 69.5573 46.7422 69.1719 46.7422H68.1172V45.4141H69.125C69.9583 45.4141 70.5677 45.5286 70.9531 45.7578C71.3385 45.9922 71.6172 46.375 71.7891 46.9062C71.9661 47.4323 72.0547 48.1719 72.0547 49.125ZM76.1406 45.4141V50.4531H74.7031V45.4141H76.1406ZM78.5391 49.9766C78.5391 49.5547 78.5729 49.1302 78.6406 48.7031C78.7135 48.2708 78.8073 47.8802 78.9219 47.5312C79.0417 47.1823 79.1693 46.9193 79.3047 46.7422H77.8984V45.4141H83.0859C84.5234 45.4141 85.5547 45.7214 86.1797 46.3359C86.8047 46.9453 87.1172 47.9609 87.1172 49.3828V50.0703C87.1172 51.737 86.7422 53.0026 85.9922 53.8672C85.2474 54.7266 84.1562 55.1562 82.7188 55.1562C81.2917 55.1562 80.237 54.7552 79.5547 53.9531C78.8776 53.1458 78.5391 51.9115 78.5391 50.25V49.9766ZM80.5859 46.7422C80.237 47.3568 80.0625 48.4141 80.0625 49.9141V50.3281C80.0625 51.474 80.2917 52.3438 80.75 52.9375C81.2135 53.5312 81.8802 53.8281 82.75 53.8281C83.7448 53.8281 84.4635 53.5339 84.9062 52.9453C85.3542 52.3568 85.5781 51.3932 85.5781 50.0547V49.3672C85.5781 48.3984 85.3932 47.7188 85.0234 47.3281C84.6536 46.9375 84.0026 46.7422 83.0703 46.7422H80.5859ZM90.4688 45.4141V50.4531H89.0312V45.4141H90.4688ZM99.5781 49.6719C99.5781 48.6875 99.362 47.9531 98.9297 47.4688C98.4974 46.9844 97.8177 46.7422 96.8906 46.7422H94.7344V49.4453H96.6328V50.7734H93.2734V45.4141H96.9062C98.3021 45.4141 99.3385 45.763 100.016 46.4609C100.698 47.1536 101.039 48.2344 101.039 49.7031V50.3438C101.039 53.4479 99.5703 55 96.6328 55H93.3594V53.6719H96.6719C97.6615 53.6719 98.3932 53.3984 98.8672 52.8516C99.3411 52.2995 99.5781 51.4688 99.5781 50.3594V49.6719ZM104.391 45.4141V50.4531H102.953V45.4141H104.391ZM113.312 46.7422V55H111.867V46.7422H106.398V45.4141H114.508V46.7422H113.312ZM117.609 51.8516L116.984 55H115.469L116.125 51.8828C116.312 50.987 116.484 50.3568 116.641 49.9922C116.797 49.6224 116.992 49.3229 117.227 49.0938C117.466 48.8646 117.786 48.6693 118.188 48.5078L115.93 45.4141H117.703L121.227 50.2656C121.617 49.901 121.927 49.4609 122.156 48.9453C122.391 48.4245 122.544 47.8281 122.617 47.1562L122.797 45.4141H124.281L124.102 47.125C124.044 47.6979 123.94 48.2005 123.789 48.6328C123.685 48.9297 123.56 49.2135 123.414 49.4844C123.268 49.75 123.081 50.026 122.852 50.3125C122.628 50.599 122.336 50.9193 121.977 51.2734L124.797 55H122.969L118.844 49.3984C118.427 49.6016 118.13 49.9531 117.953 50.4531C117.901 50.5833 117.846 50.7656 117.789 51C117.737 51.2344 117.677 51.5182 117.609 51.8516ZM136.719 49.3828V55H135.273V49.3672C135.273 48.4193 135.081 47.7448 134.695 47.3438C134.315 46.9427 133.646 46.7422 132.688 46.7422H129.758V45.4141H132.703C133.661 45.4141 134.435 45.5495 135.023 45.8203C135.612 46.0859 136.042 46.5104 136.312 47.0938C136.583 47.6719 136.719 48.4349 136.719 49.3828ZM145.266 49.3828V55H143.82V49.3672C143.82 48.4193 143.628 47.7448 143.242 47.3438C142.862 46.9427 142.193 46.7422 141.234 46.7422H138.305V45.4141H141.25C142.208 45.4141 142.982 45.5495 143.57 45.8203C144.159 46.0859 144.589 46.5104 144.859 47.0938C145.13 47.6719 145.266 48.4349 145.266 49.3828ZM149.344 45.4141V55H147.906V45.4141H149.344ZM155.852 55.1562C154.523 55.1562 153.547 54.8229 152.922 54.1562C152.297 53.4844 151.984 52.4531 151.984 51.0625V45.4141H153.422V51.0156C153.422 51.9844 153.612 52.6927 153.992 53.1406C154.378 53.5885 155.005 53.8125 155.875 53.8125C156.557 53.8125 157.112 53.6745 157.539 53.3984C157.966 53.1224 158.279 52.6875 158.477 52.0938C158.68 51.4948 158.781 50.7083 158.781 49.7344C158.781 48.651 158.667 47.8594 158.438 47.3594C158.208 46.8542 157.818 46.6016 157.266 46.6016C156.734 46.6016 156.221 46.7708 155.727 47.1094V45.7344C156.128 45.4167 156.688 45.2578 157.406 45.2578C158.474 45.2578 159.221 45.6094 159.648 46.3125C160.076 47.0104 160.289 48.151 160.289 49.7344C160.289 51.6042 159.932 52.9766 159.219 53.8516C158.505 54.7214 157.383 55.1562 155.852 55.1562ZM169.719 48.3906C169.719 49.3698 169.521 50.2995 169.125 51.1797C168.729 52.0599 168.169 52.849 167.445 53.5469C166.721 54.2396 165.862 54.7943 164.867 55.2109V53.5625C165.956 53.0729 166.792 52.3932 167.375 51.5234C167.964 50.6484 168.258 49.6693 168.258 48.5859C168.258 47.888 168.104 47.4062 167.797 47.1406C167.495 46.875 166.971 46.7422 166.227 46.7422H162.117V45.4141H166.164C167.451 45.4141 168.365 45.6458 168.906 46.1094C169.448 46.5677 169.719 47.3281 169.719 48.3906ZM163.953 48.7734V58.0078H162.516V48.7734H163.953ZM171.633 49.9766C171.633 49.5547 171.667 49.1302 171.734 48.7031C171.807 48.2708 171.901 47.8802 172.016 47.5312C172.135 47.1823 172.263 46.9193 172.398 46.7422H170.992V45.4141H176.18C177.617 45.4141 178.648 45.7214 179.273 46.3359C179.898 46.9453 180.211 47.9609 180.211 49.3828V50.0703C180.211 51.737 179.836 53.0026 179.086 53.8672C178.341 54.7266 177.25 55.1562 175.812 55.1562C174.385 55.1562 173.331 54.7552 172.648 53.9531C171.971 53.1458 171.633 51.9115 171.633 50.25V49.9766ZM173.68 46.7422C173.331 47.3568 173.156 48.4141 173.156 49.9141V50.3281C173.156 51.474 173.385 52.3438 173.844 52.9375C174.307 53.5312 174.974 53.8281 175.844 53.8281C176.839 53.8281 177.557 53.5339 178 52.9453C178.448 52.3568 178.672 51.3932 178.672 50.0547V49.3672C178.672 48.3984 178.487 47.7188 178.117 47.3281C177.747 46.9375 177.096 46.7422 176.164 46.7422H173.68ZM186.039 49.125V55H181.656V53.6719H184.602V49.5312C184.602 48.6875 184.56 48.0911 184.477 47.7422C184.393 47.3828 184.247 47.1276 184.039 46.9766C183.836 46.8203 183.542 46.7422 183.156 46.7422H182.102V45.4141H183.109C183.943 45.4141 184.552 45.5286 184.938 45.7578C185.323 45.9922 185.602 46.375 185.773 46.9062C185.951 47.4323 186.039 48.1719 186.039 49.125ZM190.125 45.4141V55H188.688V45.4141H190.125ZM200.047 48.3906C200.047 49.3698 199.849 50.2995 199.453 51.1797C199.057 52.0599 198.497 52.849 197.773 53.5469C197.049 54.2396 196.19 54.7943 195.195 55.2109V53.5625C196.284 53.0729 197.12 52.3932 197.703 51.5234C198.292 50.6484 198.586 49.6693 198.586 48.5859C198.586 47.888 198.432 47.4062 198.125 47.1406C197.823 46.875 197.299 46.7422 196.555 46.7422H192.445V45.4141H196.492C197.779 45.4141 198.693 45.6458 199.234 46.1094C199.776 46.5677 200.047 47.3281 200.047 48.3906ZM194.281 48.7734V58.0078H192.844V48.7734H194.281ZM208.383 54.6016C208.383 55.1536 208.333 55.6146 208.234 55.9844C208.135 56.3542 207.982 56.7083 207.773 57.0469H206.812C207.057 56.6927 207.24 56.3438 207.359 56C207.484 55.6615 207.547 55.3281 207.547 55H206.859V53.2891H208.383V54.6016ZM214.977 55.1562C213.648 55.1562 212.672 54.8229 212.047 54.1562C211.422 53.4844 211.109 52.4531 211.109 51.0625V45.4141H212.547V51.0156C212.547 51.9844 212.737 52.6927 213.117 53.1406C213.503 53.5885 214.13 53.8125 215 53.8125C215.682 53.8125 216.237 53.6745 216.664 53.3984C217.091 53.1224 217.404 52.6875 217.602 52.0938C217.805 51.4948 217.906 50.7083 217.906 49.7344C217.906 48.651 217.792 47.8594 217.562 47.3594C217.333 46.8542 216.943 46.6016 216.391 46.6016C215.859 46.6016 215.346 46.7708 214.852 47.1094V45.7344C215.253 45.4167 215.812 45.2578 216.531 45.2578C217.599 45.2578 218.346 45.6094 218.773 46.3125C219.201 47.0104 219.414 48.151 219.414 49.7344C219.414 51.6042 219.057 52.9766 218.344 53.8516C217.63 54.7214 216.508 55.1562 214.977 55.1562ZM226.359 45.2578C227.62 45.2578 228.539 45.6432 229.117 46.4141C229.701 47.1797 229.992 48.3984 229.992 50.0703V55H225.289V53.6719H228.539V50.25C228.539 48.974 228.375 48.0469 228.047 47.4688C227.719 46.8906 227.161 46.6016 226.375 46.6016C225.672 46.6016 225.094 46.9193 224.641 47.5547C224.182 48.2005 223.763 49.3229 223.383 50.9219L222.406 55H220.859L221.93 50.8047C222.049 50.3151 222.172 49.8724 222.297 49.4766C222.422 49.0807 222.544 48.7292 222.664 48.4219L220.711 45.4141H222.406L223.383 47C223.789 46.3854 224.224 45.9427 224.688 45.6719C225.151 45.3958 225.708 45.2578 226.359 45.2578ZM233.938 51.8516L233.312 55H231.797L232.453 51.8828C232.641 50.987 232.812 50.3568 232.969 49.9922C233.125 49.6224 233.32 49.3229 233.555 49.0938C233.794 48.8646 234.115 48.6693 234.516 48.5078L232.258 45.4141H234.031L237.555 50.2656C237.945 49.901 238.255 49.4609 238.484 48.9453C238.719 48.4245 238.872 47.8281 238.945 47.1562L239.125 45.4141H240.609L240.43 47.125C240.372 47.6979 240.268 48.2005 240.117 48.6328C240.013 48.9297 239.888 49.2135 239.742 49.4844C239.596 49.75 239.409 50.026 239.18 50.3125C238.956 50.599 238.664 50.9193 238.305 51.2734L241.125 55H239.297L235.172 49.3984C234.755 49.6016 234.458 49.9531 234.281 50.4531C234.229 50.5833 234.174 50.7656 234.117 51C234.065 51.2344 234.005 51.5182 233.938 51.8516ZM250.93 55.1562C249.602 55.1562 248.625 54.8229 248 54.1562C247.375 53.4844 247.062 52.4531 247.062 51.0625V45.4141H248.5V51.0156C248.5 51.9844 248.69 52.6927 249.07 53.1406C249.456 53.5885 250.083 53.8125 250.953 53.8125C251.635 53.8125 252.19 53.6745 252.617 53.3984C253.044 53.1224 253.357 52.6875 253.555 52.0938C253.758 51.4948 253.859 50.7083 253.859 49.7344C253.859 48.651 253.745 47.8594 253.516 47.3594C253.286 46.8542 252.896 46.6016 252.344 46.6016C251.812 46.6016 251.299 46.7708 250.805 47.1094V45.7344C251.206 45.4167 251.766 45.2578 252.484 45.2578C253.552 45.2578 254.299 45.6094 254.727 46.3125C255.154 47.0104 255.367 48.151 255.367 49.7344C255.367 51.6042 255.01 52.9766 254.297 53.8516C253.583 54.7214 252.461 55.1562 250.93 55.1562ZM259.031 45.4141V50.4531H257.594V45.4141H259.031ZM261.43 49.9766C261.43 49.5547 261.464 49.1302 261.531 48.7031C261.604 48.2708 261.698 47.8802 261.812 47.5312C261.932 47.1823 262.06 46.9193 262.195 46.7422H260.789V45.4141H265.977C267.414 45.4141 268.445 45.7214 269.07 46.3359C269.695 46.9453 270.008 47.9609 270.008 49.3828V50.0703C270.008 51.737 269.633 53.0026 268.883 53.8672C268.138 54.7266 267.047 55.1562 265.609 55.1562C264.182 55.1562 263.128 54.7552 262.445 53.9531C261.768 53.1458 261.43 51.9115 261.43 50.25V49.9766ZM263.477 46.7422C263.128 47.3568 262.953 48.4141 262.953 49.9141V50.3281C262.953 51.474 263.182 52.3438 263.641 52.9375C264.104 53.5312 264.771 53.8281 265.641 53.8281C266.635 53.8281 267.354 53.5339 267.797 52.9453C268.245 52.3568 268.469 51.3932 268.469 50.0547V49.3672C268.469 48.3984 268.284 47.7188 267.914 47.3281C267.544 46.9375 266.893 46.7422 265.961 46.7422H263.477ZM282.609 49.3828V55H281.164V49.3672C281.164 48.4193 280.971 47.7448 280.586 47.3438C280.206 46.9427 279.536 46.7422 278.578 46.7422H275.648V45.4141H278.594C279.552 45.4141 280.326 45.5495 280.914 45.8203C281.503 46.0859 281.932 46.5104 282.203 47.0938C282.474 47.6719 282.609 48.4349 282.609 49.3828ZM286.688 45.4141V55H285.25V45.4141H286.688ZM289.555 53.7344C290.555 53.3646 291.409 52.8958 292.117 52.3281C292.831 51.7656 293.372 51.151 293.742 50.4844C294.117 49.8177 294.305 49.1406 294.305 48.4531C294.305 47.3125 293.695 46.7422 292.477 46.7422H288.594V41.9922H290.031V45.4141H292.625C294.714 45.4141 295.758 46.3438 295.758 48.2031C295.758 49.1615 295.529 50.0807 295.07 50.9609C294.612 51.8411 293.966 52.6328 293.133 53.3359C292.143 54.1797 290.951 54.8516 289.555 55.3516V53.7344ZM299.328 45.4141V55H297.891V45.4141H299.328ZM307.922 46.7422V55H306.477V46.7422H301.008V45.4141H309.117V46.7422H307.922ZM323.586 49.3828V55H315.375V45.4141H319.57C321.008 45.4141 322.036 45.7214 322.656 46.3359C323.276 46.9505 323.586 47.9661 323.586 49.3828ZM316.812 53.6719H322.141V49.3672C322.141 48.4193 321.948 47.7448 321.562 47.3438C321.182 46.9427 320.513 46.7422 319.555 46.7422H316.812V53.6719ZM327.672 45.4141V55H326.234V45.4141H327.672ZM330.07 49.9766C330.07 49.5547 330.104 49.1302 330.172 48.7031C330.245 48.2708 330.339 47.8802 330.453 47.5312C330.573 47.1823 330.701 46.9193 330.836 46.7422H329.43V45.4141H334.617C336.055 45.4141 337.086 45.7214 337.711 46.3359C338.336 46.9453 338.648 47.9609 338.648 49.3828V50.0703C338.648 51.737 338.273 53.0026 337.523 53.8672C336.779 54.7266 335.688 55.1562 334.25 55.1562C332.823 55.1562 331.768 54.7552 331.086 53.9531C330.409 53.1458 330.07 51.9115 330.07 50.25V49.9766ZM332.117 46.7422C331.768 47.3568 331.594 48.4141 331.594 49.9141V50.3281C331.594 51.474 331.823 52.3438 332.281 52.9375C332.745 53.5312 333.411 53.8281 334.281 53.8281C335.276 53.8281 335.995 53.5339 336.438 52.9453C336.885 52.3568 337.109 51.3932 337.109 50.0547V49.3672C337.109 48.3984 336.924 47.7188 336.555 47.3281C336.185 46.9375 335.534 46.7422 334.602 46.7422H332.117ZM346.953 49.6719C346.953 48.6875 346.737 47.9531 346.305 47.4688C345.872 46.9844 345.193 46.7422 344.266 46.7422H342.109V49.4453H344.008V50.7734H340.648V45.4141H344.281C345.677 45.4141 346.714 45.763 347.391 46.4609C348.073 47.1536 348.414 48.2344 348.414 49.7031V50.3438C348.414 53.4479 346.945 55 344.008 55H340.734V53.6719H344.047C345.036 53.6719 345.768 53.3984 346.242 52.8516C346.716 52.2995 346.953 51.4688 346.953 50.3594V49.6719ZM351.766 45.4141V50.4531H350.328V45.4141H351.766ZM356.109 51.8516L355.484 55H353.969L354.625 51.8828C354.812 50.987 354.984 50.3568 355.141 49.9922C355.297 49.6224 355.492 49.3229 355.727 49.0938C355.966 48.8646 356.286 48.6693 356.688 48.5078L354.43 45.4141H356.203L359.727 50.2656C360.117 49.901 360.427 49.4609 360.656 48.9453C360.891 48.4245 361.044 47.8281 361.117 47.1562L361.297 45.4141H362.781L362.602 47.125C362.544 47.6979 362.44 48.2005 362.289 48.6328C362.185 48.9297 362.06 49.2135 361.914 49.4844C361.768 49.75 361.581 50.026 361.352 50.3125C361.128 50.599 360.836 50.9193 360.477 51.2734L363.297 55H361.469L357.344 49.3984C356.927 49.6016 356.63 49.9531 356.453 50.4531C356.401 50.5833 356.346 50.7656 356.289 51C356.237 51.2344 356.177 51.5182 356.109 51.8516ZM377.523 49.3828V55H369.312V45.4141H373.508C374.945 45.4141 375.974 45.7214 376.594 46.3359C377.214 46.9505 377.523 47.9661 377.523 49.3828ZM370.75 53.6719H376.078V49.3672C376.078 48.4193 375.885 47.7448 375.5 47.3438C375.12 46.9427 374.451 46.7422 373.492 46.7422H370.75V53.6719ZM385.594 49.3828V55H384.148V49.3672C384.148 48.4193 383.956 47.7448 383.57 47.3438C383.19 46.9427 382.521 46.7422 381.562 46.7422H378.633V45.4141H381.578C382.536 45.4141 383.31 45.5495 383.898 45.8203C384.487 46.0859 384.917 46.5104 385.188 47.0938C385.458 47.6719 385.594 48.4349 385.594 49.3828ZM390.156 45.4141V55H388.719V45.4141H390.156ZM393.023 53.7344C394.023 53.3646 394.878 52.8958 395.586 52.3281C396.299 51.7656 396.841 51.151 397.211 50.4844C397.586 49.8177 397.773 49.1406 397.773 48.4531C397.773 47.3125 397.164 46.7422 395.945 46.7422H392.062V41.9922H393.5V45.4141H396.094C398.182 45.4141 399.227 46.3438 399.227 48.2031C399.227 49.1615 398.997 50.0807 398.539 50.9609C398.081 51.8411 397.435 52.6328 396.602 53.3359C395.612 54.1797 394.419 54.8516 393.023 55.3516V53.7344ZM60.2891 76.6016C60.2891 77.1536 60.2396 77.6146 60.1406 77.9844C60.0417 78.3542 59.888 78.7083 59.6797 79.0469H58.7188C58.9635 78.6927 59.1458 78.3438 59.2656 78C59.3906 77.6615 59.4531 77.3281 59.4531 77H58.7656V75.2891H60.2891V76.6016ZM64.3906 73.8516L63.7656 77H62.25L62.9062 73.8828C63.0938 72.987 63.2656 72.3568 63.4219 71.9922C63.5781 71.6224 63.7734 71.3229 64.0078 71.0938C64.2474 70.8646 64.5677 70.6693 64.9688 70.5078L62.7109 67.4141H64.4844L68.0078 72.2656C68.3984 71.901 68.7083 71.4609 68.9375 70.9453C69.1719 70.4245 69.3255 69.8281 69.3984 69.1562L69.5781 67.4141H71.0625L70.8828 69.125C70.8255 69.6979 70.7214 70.2005 70.5703 70.6328C70.4661 70.9297 70.3411 71.2135 70.1953 71.4844C70.0495 71.75 69.862 72.026 69.6328 72.3125C69.4089 72.599 69.1172 72.9193 68.7578 73.2734L71.5781 77H69.75L65.625 71.3984C65.2083 71.6016 64.9115 71.9531 64.7344 72.4531C64.6823 72.5833 64.6276 72.7656 64.5703 73C64.5182 73.2344 64.4583 73.5182 64.3906 73.8516ZM74.5781 67.4141V72.4531H73.1406V67.4141H74.5781ZM77.4453 75.7344C78.4453 75.3646 79.2995 74.8958 80.0078 74.3281C80.7214 73.7656 81.263 73.151 81.6328 72.4844C82.0078 71.8177 82.1953 71.1406 82.1953 70.4531C82.1953 69.3125 81.5859 68.7422 80.3672 68.7422H76.4844V63.9922H77.9219V67.4141H80.5156C82.6042 67.4141 83.6484 68.3438 83.6484 70.2031C83.6484 71.1615 83.4193 72.0807 82.9609 72.9609C82.5026 73.8411 81.8568 74.6328 81.0234 75.3359C80.0339 76.1797 78.8411 76.8516 77.4453 77.3516V75.7344ZM93.1016 75.6719V77H84.7344V75.6719H90.625V71.3672C90.625 70.4089 90.4297 69.7318 90.0391 69.3359C89.6536 68.9401 88.9844 68.7422 88.0312 68.7422H85.1016V67.4141H88.0469C89.4844 67.4141 90.513 67.7214 91.1328 68.3359C91.7526 68.9505 92.0625 69.9661 92.0625 71.3828V75.6719H93.1016ZM107 76.0312C106.641 76.2708 106.193 76.4661 105.656 76.6172C105.125 76.7682 104.458 76.8802 103.656 76.9531C102.854 77.026 101.862 77.0677 100.68 77.0781L98.8516 67.4141H100.344L101.305 72.3438L101.875 72.2344C102.188 72.1615 102.445 72.0677 102.648 71.9531C102.852 71.8333 103.013 71.6667 103.133 71.4531C103.232 71.2865 103.307 71.0807 103.359 70.8359C103.411 70.5911 103.451 70.2995 103.477 69.9609L103.672 67.4141H105.156L104.914 69.9766C104.878 70.4089 104.833 70.7839 104.781 71.1016C104.729 71.4141 104.667 71.6667 104.594 71.8594C104.464 72.25 104.268 72.5521 104.008 72.7656C103.747 72.974 103.315 73.1589 102.711 73.3203L101.539 73.5938L101.922 75.6094H102.109C103.156 75.6094 103.995 75.5495 104.625 75.4297C105.255 75.3047 105.753 75.112 106.117 74.8516C106.362 74.6745 106.568 74.4557 106.734 74.1953C106.901 73.9349 107.042 73.5911 107.156 73.1641C107.271 72.737 107.367 72.1875 107.445 71.5156L107.938 67.4141H109.445L108.945 71.4609C108.841 72.3672 108.706 73.1146 108.539 73.7031C108.372 74.2865 108.164 74.7604 107.914 75.125C107.669 75.4844 107.365 75.7865 107 76.0312ZM118.172 75.7656V77H110.797V75.6719H116.383L110.219 67.4141H112.016L114.992 71.4609C115.393 71.2891 115.685 71.0365 115.867 70.7031C116.049 70.3646 116.172 69.849 116.234 69.1562L116.414 67.4141H117.898L117.742 69.125C117.674 69.8438 117.568 70.3958 117.422 70.7812C117.276 71.1615 117.07 71.4766 116.805 71.7266C116.539 71.9766 116.164 72.1979 115.68 72.3906L118.172 75.7656ZM126.109 67.4141V72.4531H124.672V67.4141H126.109ZM133.547 67.2578C134.807 67.2578 135.727 67.6432 136.305 68.4141C136.888 69.1797 137.18 70.3984 137.18 72.0703V77H132.477V75.6719H135.727V72.25C135.727 70.974 135.562 70.0469 135.234 69.4688C134.906 68.8906 134.349 68.6016 133.562 68.6016C132.859 68.6016 132.281 68.9193 131.828 69.5547C131.37 70.2005 130.951 71.3229 130.57 72.9219L129.594 77H128.047L129.117 72.8047C129.237 72.3151 129.359 71.8724 129.484 71.4766C129.609 71.0807 129.732 70.7292 129.852 70.4219L127.898 67.4141H129.594L130.57 69C130.977 68.3854 131.411 67.9427 131.875 67.6719C132.339 67.3958 132.896 67.2578 133.547 67.2578ZM146.273 71.3672C146.273 70.4193 146.081 69.7448 145.695 69.3438C145.315 68.9427 144.646 68.7422 143.688 68.7422H141.266V77H139.828V67.4141H143.703C145.141 67.4141 146.169 67.7214 146.789 68.3359C147.409 68.9505 147.719 69.9661 147.719 71.3828V77H146.273V71.3672ZM157.547 76.0312C157.188 76.2708 156.74 76.4661 156.203 76.6172C155.672 76.7682 155.005 76.8802 154.203 76.9531C153.401 77.026 152.409 77.0677 151.227 77.0781L149.398 67.4141H150.891L151.852 72.3438L152.422 72.2344C152.734 72.1615 152.992 72.0677 153.195 71.9531C153.398 71.8333 153.56 71.6667 153.68 71.4531C153.779 71.2865 153.854 71.0807 153.906 70.8359C153.958 70.5911 153.997 70.2995 154.023 69.9609L154.219 67.4141H155.703L155.461 69.9766C155.424 70.4089 155.38 70.7839 155.328 71.1016C155.276 71.4141 155.214 71.6667 155.141 71.8594C155.01 72.25 154.815 72.5521 154.555 72.7656C154.294 72.974 153.862 73.1589 153.258 73.3203L152.086 73.5938L152.469 75.6094H152.656C153.703 75.6094 154.542 75.5495 155.172 75.4297C155.802 75.3047 156.299 75.112 156.664 74.8516C156.909 74.6745 157.115 74.4557 157.281 74.1953C157.448 73.9349 157.589 73.5911 157.703 73.1641C157.818 72.737 157.914 72.1875 157.992 71.5156L158.484 67.4141H159.992L159.492 71.4609C159.388 72.3672 159.253 73.1146 159.086 73.7031C158.919 74.2865 158.711 74.7604 158.461 75.125C158.216 75.4844 157.911 75.7865 157.547 76.0312ZM168.719 75.7656V77H161.344V75.6719H166.93L160.766 67.4141H162.562L165.539 71.4609C165.94 71.2891 166.232 71.0365 166.414 70.7031C166.596 70.3646 166.719 69.849 166.781 69.1562L166.961 67.4141H168.445L168.289 69.125C168.221 69.8438 168.115 70.3958 167.969 70.7812C167.823 71.1615 167.617 71.4766 167.352 71.7266C167.086 71.9766 166.711 72.1979 166.227 72.3906L168.719 75.7656ZM177.086 75.5156C176.909 76.0417 176.628 76.4219 176.242 76.6562C175.857 76.8854 175.25 77 174.422 77H174.336V75.6719H174.469C174.828 75.6719 175.115 75.6042 175.328 75.4688C175.536 75.3333 175.685 75.1276 175.773 74.8516C175.862 74.5703 175.906 74.1458 175.906 73.5781V68.7422H174.422V67.4141H179.602C181.039 67.4141 182.07 67.7214 182.695 68.3359C183.32 68.9453 183.633 69.9609 183.633 71.3828V77H182.195V71.3672C182.195 70.4089 182 69.7318 181.609 69.3359C181.224 68.9401 180.549 68.7422 179.586 68.7422H177.344V73.2891C177.344 74.2474 177.258 74.9896 177.086 75.5156ZM186.102 75.7344C187.102 75.3646 187.956 74.8958 188.664 74.3281C189.378 73.7656 189.919 73.151 190.289 72.4844C190.664 71.8177 190.852 71.1406 190.852 70.4531C190.852 69.3125 190.242 68.7422 189.023 68.7422H185.141V63.9922H186.578V67.4141H189.172C191.26 67.4141 192.305 68.3438 192.305 70.2031C192.305 71.1615 192.076 72.0807 191.617 72.9609C191.159 73.8411 190.513 74.6328 189.68 75.3359C188.69 76.1797 187.497 76.8516 186.102 77.3516V75.7344ZM200.844 75.2891V77H199.32V75.2891H200.844ZM210.117 71.3672C210.117 70.4193 209.924 69.7448 209.539 69.3438C209.159 68.9427 208.49 68.7422 207.531 68.7422H205.109V77H203.672V67.4141H207.547C208.984 67.4141 210.013 67.7214 210.633 68.3359C211.253 68.9505 211.562 69.9661 211.562 71.3828V77H210.117V71.3672ZM213.164 75.7344C214.607 75.7344 215.737 75.6016 216.555 75.3359L213.656 67.4141H215.242L217.805 74.7266C218.294 74.3776 218.688 73.9115 218.984 73.3281C219.286 72.7396 219.505 71.9688 219.641 71.0156C219.781 70.0625 219.852 68.862 219.852 67.4141H221.359C221.359 69.8203 221.104 71.7057 220.594 73.0703C220.25 73.9766 219.768 74.7266 219.148 75.3203C218.529 75.9089 217.729 76.362 216.75 76.6797C215.776 76.9922 214.581 77.1849 213.164 77.2578V75.7344ZM229.422 71.3828V77H227.977V71.3672C227.977 70.4193 227.784 69.7448 227.398 69.3438C227.018 68.9427 226.349 68.7422 225.391 68.7422H222.461V67.4141H225.406C226.365 67.4141 227.138 67.5495 227.727 67.8203C228.315 68.0859 228.745 68.5104 229.016 69.0938C229.286 69.6719 229.422 70.4349 229.422 71.3828ZM232.211 75.7344C233.211 75.3646 234.065 74.8958 234.773 74.3281C235.487 73.7656 236.029 73.151 236.398 72.4844C236.773 71.8177 236.961 71.1406 236.961 70.4531C236.961 69.3125 236.352 68.7422 235.133 68.7422H231.25V63.9922H232.688V67.4141H235.281C237.37 67.4141 238.414 68.3438 238.414 70.2031C238.414 71.1615 238.185 72.0807 237.727 72.9609C237.268 73.8411 236.622 74.6328 235.789 75.3359C234.799 76.1797 233.607 76.8516 232.211 77.3516V75.7344ZM251.445 71.3672C251.445 70.4193 251.253 69.7448 250.867 69.3438C250.487 68.9427 249.818 68.7422 248.859 68.7422H246.438V77H245V67.4141H248.875C250.312 67.4141 251.341 67.7214 251.961 68.3359C252.581 68.9505 252.891 69.9661 252.891 71.3828V77H251.445V71.3672ZM256.641 67.4141V72.4531H255.203V67.4141H256.641ZM261.555 75.5156C261.378 76.0417 261.096 76.4219 260.711 76.6562C260.326 76.8854 259.719 77 258.891 77H258.805V75.6719H258.938C259.297 75.6719 259.583 75.6042 259.797 75.4688C260.005 75.3333 260.154 75.1276 260.242 74.8516C260.331 74.5703 260.375 74.1458 260.375 73.5781V68.7422H258.891V67.4141H264.07C265.508 67.4141 266.539 67.7214 267.164 68.3359C267.789 68.9453 268.102 69.9609 268.102 71.3828V77H266.664V71.3672C266.664 70.4089 266.469 69.7318 266.078 69.3359C265.693 68.9401 265.018 68.7422 264.055 68.7422H261.812V73.2891C261.812 74.2474 261.727 74.9896 261.555 75.5156ZM272.617 75.5156C272.44 76.0417 272.159 76.4219 271.773 76.6562C271.388 76.8854 270.781 77 269.953 77H269.867V75.6719H270C270.359 75.6719 270.646 75.6042 270.859 75.4688C271.068 75.3333 271.216 75.1276 271.305 74.8516C271.393 74.5703 271.438 74.1458 271.438 73.5781V68.7422H269.953V67.4141H275.133C276.57 67.4141 277.602 67.7214 278.227 68.3359C278.852 68.9453 279.164 69.9609 279.164 71.3828V77H277.727V71.3672C277.727 70.4089 277.531 69.7318 277.141 69.3359C276.755 68.9401 276.081 68.7422 275.117 68.7422H272.875V73.2891C272.875 74.2474 272.789 74.9896 272.617 75.5156ZM288.906 73.3203V80.0078H287.469V72.7422C287.469 72.4297 287.443 72.1432 287.391 71.8828C287.344 71.6172 287.266 71.349 287.156 71.0781C287.047 70.8073 286.904 70.5104 286.727 70.1875C286.596 69.9427 286.385 69.5885 286.094 69.125C285.802 68.6615 285.432 68.0911 284.984 67.4141H286.68L287.258 68.3203C287.549 68.7786 287.789 69.1797 287.977 69.5234C288.164 69.862 288.307 70.1458 288.406 70.375C288.542 70.6667 288.646 70.9661 288.719 71.2734C288.797 71.5755 288.849 71.8802 288.875 72.1875C289.115 72.1302 289.328 72.0599 289.516 71.9766C289.703 71.8932 289.865 71.7995 290 71.6953C290.271 71.487 290.474 71.2083 290.609 70.8594C290.75 70.5052 290.849 70.0026 290.906 69.3516L291.062 67.4141H292.57L292.359 69.5938C292.307 70.2396 292.185 70.7891 291.992 71.2422C291.805 71.6901 291.534 72.0651 291.18 72.3672C290.654 72.8099 289.896 73.1276 288.906 73.3203ZM297.914 71.125V77H293.531V75.6719H296.477V71.5312C296.477 70.6875 296.435 70.0911 296.352 69.7422C296.268 69.3828 296.122 69.1276 295.914 68.9766C295.711 68.8203 295.417 68.7422 295.031 68.7422H293.977V67.4141H294.984C295.818 67.4141 296.427 67.5286 296.812 67.7578C297.198 67.9922 297.477 68.375 297.648 68.9062C297.826 69.4323 297.914 70.1719 297.914 71.125ZM302 67.4141V72.4531H300.562V67.4141H302ZM311.922 70.3906C311.922 71.3698 311.724 72.2995 311.328 73.1797C310.932 74.0599 310.372 74.849 309.648 75.5469C308.924 76.2396 308.065 76.7943 307.07 77.2109V75.5625C308.159 75.0729 308.995 74.3932 309.578 73.5234C310.167 72.6484 310.461 71.6693 310.461 70.5859C310.461 69.888 310.307 69.4062 310 69.1406C309.698 68.875 309.174 68.7422 308.43 68.7422H304.32V67.4141H308.367C309.654 67.4141 310.568 67.6458 311.109 68.1094C311.651 68.5677 311.922 69.3281 311.922 70.3906ZM306.156 70.7734V80.0078H304.719V70.7734H306.156ZM321.922 67.4141C322.88 67.4141 323.654 67.5469 324.242 67.8125C324.831 68.0781 325.26 68.5026 325.531 69.0859C325.802 69.6641 325.938 70.4297 325.938 71.3828V80.0078H324.5V71.3672C324.5 70.4089 324.305 69.7318 323.914 69.3359C323.529 68.9401 322.859 68.7422 321.906 68.7422H319.742V71.4453H321.648V72.7734H318.289V67.4141H321.922ZM330.016 67.4141V77H328.578V67.4141H330.016ZM332.883 75.7344C333.883 75.3646 334.737 74.8958 335.445 74.3281C336.159 73.7656 336.701 73.151 337.07 72.4844C337.445 71.8177 337.633 71.1406 337.633 70.4531C337.633 69.3125 337.023 68.7422 335.805 68.7422H331.922V63.9922H333.359V67.4141H335.953C338.042 67.4141 339.086 68.3438 339.086 70.2031C339.086 71.1615 338.857 72.0807 338.398 72.9609C337.94 73.8411 337.294 74.6328 336.461 75.3359C335.471 76.1797 334.279 76.8516 332.883 77.3516V75.7344ZM348.539 75.6719V77H340.172V75.6719H346.062V71.3672C346.062 70.4089 345.867 69.7318 345.477 69.3359C345.091 68.9401 344.422 68.7422 343.469 68.7422H340.539V67.4141H343.484C344.922 67.4141 345.951 67.7214 346.57 68.3359C347.19 68.9505 347.5 69.9661 347.5 71.3828V75.6719H348.539ZM356.688 67.4141V72.4531H355.25V67.4141H356.688ZM364.125 67.2578C365.385 67.2578 366.305 67.6432 366.883 68.4141C367.466 69.1797 367.758 70.3984 367.758 72.0703V77H363.055V75.6719H366.305V72.25C366.305 70.974 366.141 70.0469 365.812 69.4688C365.484 68.8906 364.927 68.6016 364.141 68.6016C363.438 68.6016 362.859 68.9193 362.406 69.5547C361.948 70.2005 361.529 71.3229 361.148 72.9219L360.172 77H358.625L359.695 72.8047C359.815 72.3151 359.938 71.8724 360.062 71.4766C360.188 71.0807 360.31 70.7292 360.43 70.4219L358.477 67.4141H360.172L361.148 69C361.555 68.3854 361.99 67.9427 362.453 67.6719C362.917 67.3958 363.474 67.2578 364.125 67.2578ZM371.844 67.4141V77H370.406V67.4141H371.844ZM380.469 71.3828V77H379.023V71.3672C379.023 70.4193 378.831 69.7448 378.445 69.3438C378.065 68.9427 377.396 68.7422 376.438 68.7422H373.508V67.4141H376.453C377.411 67.4141 378.185 67.5495 378.773 67.8203C379.362 68.0859 379.792 68.5104 380.062 69.0938C380.333 69.6719 380.469 70.4349 380.469 71.3828ZM389.172 71.6719C389.172 70.6875 388.956 69.9531 388.523 69.4688C388.091 68.9844 387.411 68.7422 386.484 68.7422H384.328V71.4453H386.227V72.7734H382.867V67.4141H386.5C387.896 67.4141 388.932 67.763 389.609 68.4609C390.292 69.1536 390.633 70.2344 390.633 71.7031V72.3438C390.633 75.4479 389.164 77 386.227 77H382.953V75.6719H386.266C387.255 75.6719 387.987 75.3984 388.461 74.8516C388.935 74.2995 389.172 73.4688 389.172 72.3594V71.6719ZM392.695 75.7344C393.695 75.3646 394.549 74.8958 395.258 74.3281C395.971 73.7656 396.513 73.151 396.883 72.4844C397.258 71.8177 397.445 71.1406 397.445 70.4531C397.445 69.3125 396.836 68.7422 395.617 68.7422H391.734V63.9922H393.172V67.4141H395.766C397.854 67.4141 398.898 68.3438 398.898 70.2031C398.898 71.1615 398.669 72.0807 398.211 72.9609C397.753 73.8411 397.107 74.6328 396.273 75.3359C395.284 76.1797 394.091 76.8516 392.695 77.3516V75.7344ZM37.7188 97.2891V99H36.1953V97.2891H37.7188ZM47.75 92.3906C47.75 93.3698 47.5521 94.2995 47.1562 95.1797C46.7604 96.0599 46.2005 96.849 45.4766 97.5469C44.7526 98.2396 43.8932 98.7943 42.8984 99.2109V97.5625C43.987 97.0729 44.8229 96.3932 45.4062 95.5234C45.9948 94.6484 46.2891 93.6693 46.2891 92.5859C46.2891 91.888 46.1354 91.4062 45.8281 91.1406C45.526 90.875 45.0026 90.7422 44.2578 90.7422H40.1484V89.4141H44.1953C45.4818 89.4141 46.3958 89.6458 46.9375 90.1094C47.4792 90.5677 47.75 91.3281 47.75 92.3906ZM41.9844 92.7734V102.008H40.5469V92.7734H41.9844ZM55.8906 93.3828V99H54.4453V93.3672C54.4453 92.4193 54.2526 91.7448 53.8672 91.3438C53.487 90.9427 52.8177 90.7422 51.8594 90.7422H48.9297V89.4141H51.875C52.8333 89.4141 53.6068 89.5495 54.1953 89.8203C54.7839 90.0859 55.2135 90.5104 55.4844 91.0938C55.7552 91.6719 55.8906 92.4349 55.8906 93.3828ZM59.9688 89.4141V99H58.5312V89.4141H59.9688ZM68.5938 93.3828V99H67.1484V93.3672C67.1484 92.4193 66.9557 91.7448 66.5703 91.3438C66.1901 90.9427 65.5208 90.7422 64.5625 90.7422H61.6328V89.4141H64.5781C65.5365 89.4141 66.3099 89.5495 66.8984 89.8203C67.487 90.0859 67.9167 90.5104 68.1875 91.0938C68.4583 91.6719 68.5938 92.4349 68.5938 93.3828ZM78.8828 97.6719V99H70.5156V97.6719H76.4062V93.3672C76.4062 92.4089 76.2109 91.7318 75.8203 91.3359C75.4349 90.9401 74.7656 90.7422 73.8125 90.7422H70.8828V89.4141H73.8281C75.2656 89.4141 76.2943 89.7214 76.9141 90.3359C77.5339 90.9505 77.8438 91.9661 77.8438 93.3828V97.6719H78.8828ZM92.7734 93.3828V99H91.3281V93.3672C91.3281 92.4089 91.1328 91.7318 90.7422 91.3359C90.3568 90.9401 89.6875 90.7422 88.7344 90.7422H85.0938V89.4141H88.7578C89.7161 89.4141 90.4896 89.5495 91.0781 89.8203C91.6667 90.0859 92.0964 90.5104 92.3672 91.0938C92.638 91.6719 92.7734 92.4349 92.7734 93.3828ZM86.6875 92.7734V99H85.25V92.7734H86.6875ZM100.125 89.2578C101.385 89.2578 102.305 89.6432 102.883 90.4141C103.466 91.1797 103.758 92.3984 103.758 94.0703V99H99.0547V97.6719H102.305V94.25C102.305 92.974 102.141 92.0469 101.812 91.4688C101.484 90.8906 100.927 90.6016 100.141 90.6016C99.4375 90.6016 98.8594 90.9193 98.4062 91.5547C97.9479 92.2005 97.5286 93.3229 97.1484 94.9219L96.1719 99H94.625L95.6953 94.8047C95.8151 94.3151 95.9375 93.8724 96.0625 93.4766C96.1875 93.0807 96.3099 92.7292 96.4297 92.4219L94.4766 89.4141H96.1719L97.1484 91C97.5547 90.3854 97.9896 89.9427 98.4531 89.6719C98.9167 89.3958 99.474 89.2578 100.125 89.2578ZM113.078 97.7656V99H105.703V97.6719H111.289L105.125 89.4141H106.922L109.898 93.4609C110.299 93.2891 110.591 93.0365 110.773 92.7031C110.956 92.3646 111.078 91.849 111.141 91.1562L111.32 89.4141H112.805L112.648 91.125C112.581 91.8438 112.474 92.3958 112.328 92.7812C112.182 93.1615 111.977 93.4766 111.711 93.7266C111.445 93.9766 111.07 94.1979 110.586 94.3906L113.078 97.7656ZM116.562 89.4141V94.4531H115.125V89.4141H116.562ZM126.469 98.0312C126.109 98.2708 125.661 98.4661 125.125 98.6172C124.594 98.7682 123.927 98.8802 123.125 98.9531C122.323 99.026 121.331 99.0677 120.148 99.0781L118.32 89.4141H119.812L120.773 94.3438L121.344 94.2344C121.656 94.1615 121.914 94.0677 122.117 93.9531C122.32 93.8333 122.482 93.6667 122.602 93.4531C122.701 93.2865 122.776 93.0807 122.828 92.8359C122.88 92.5911 122.919 92.2995 122.945 91.9609L123.141 89.4141H124.625L124.383 91.9766C124.346 92.4089 124.302 92.7839 124.25 93.1016C124.198 93.4141 124.135 93.6667 124.062 93.8594C123.932 94.25 123.737 94.5521 123.477 94.7656C123.216 94.974 122.784 95.1589 122.18 95.3203L121.008 95.5938L121.391 97.6094H121.578C122.625 97.6094 123.464 97.5495 124.094 97.4297C124.724 97.3047 125.221 97.112 125.586 96.8516C125.831 96.6745 126.036 96.4557 126.203 96.1953C126.37 95.9349 126.51 95.5911 126.625 95.1641C126.74 94.737 126.836 94.1875 126.914 93.5156L127.406 89.4141H128.914L128.414 93.4609C128.31 94.3672 128.174 95.1146 128.008 95.7031C127.841 96.2865 127.633 96.7604 127.383 97.125C127.138 97.4844 126.833 97.7865 126.469 98.0312ZM142.93 93.3828V99H141.484V93.3672C141.484 92.4089 141.289 91.7318 140.898 91.3359C140.513 90.9401 139.844 90.7422 138.891 90.7422H135.25V89.4141H138.914C139.872 89.4141 140.646 89.5495 141.234 89.8203C141.823 90.0859 142.253 90.5104 142.523 91.0938C142.794 91.6719 142.93 92.4349 142.93 93.3828ZM136.844 92.7734V99H135.406V92.7734H136.844ZM146.672 89.4141V94.4531H145.234V89.4141H146.672ZM155.625 93.3828V99H154.18V93.3672C154.18 92.4193 153.987 91.7448 153.602 91.3438C153.221 90.9427 152.552 90.7422 151.594 90.7422H148.664V89.4141H151.609C152.568 89.4141 153.341 89.5495 153.93 89.8203C154.518 90.0859 154.948 90.5104 155.219 91.0938C155.49 91.6719 155.625 92.4349 155.625 93.3828ZM165.469 92.3906C165.469 93.3698 165.271 94.2995 164.875 95.1797C164.479 96.0599 163.919 96.849 163.195 97.5469C162.471 98.2396 161.612 98.7943 160.617 99.2109V97.5625C161.706 97.0729 162.542 96.3932 163.125 95.5234C163.714 94.6484 164.008 93.6693 164.008 92.5859C164.008 91.888 163.854 91.4062 163.547 91.1406C163.245 90.875 162.721 90.7422 161.977 90.7422H157.867V89.4141H161.914C163.201 89.4141 164.115 89.6458 164.656 90.1094C165.198 90.5677 165.469 91.3281 165.469 92.3906ZM159.703 92.7734V102.008H158.266V92.7734H159.703ZM169.141 89.4141V99H167.703V89.4141H169.141ZM172.008 97.7344C173.008 97.3646 173.862 96.8958 174.57 96.3281C175.284 95.7656 175.826 95.151 176.195 94.4844C176.57 93.8177 176.758 93.1406 176.758 92.4531C176.758 91.3125 176.148 90.7422 174.93 90.7422H171.047V85.9922H172.484V89.4141H175.078C177.167 89.4141 178.211 90.3438 178.211 92.2031C178.211 93.1615 177.982 94.0807 177.523 94.9609C177.065 95.8411 176.419 96.6328 175.586 97.3359C174.596 98.1797 173.404 98.8516 172.008 99.3516V97.7344ZM187.664 97.6719V99H179.297V97.6719H185.188V93.3672C185.188 92.4089 184.992 91.7318 184.602 91.3359C184.216 90.9401 183.547 90.7422 182.594 90.7422H179.664V89.4141H182.609C184.047 89.4141 185.076 89.7214 185.695 90.3359C186.315 90.9505 186.625 91.9661 186.625 93.3828V97.6719H187.664ZM195.812 89.4141V99H194.375V89.4141H195.812ZM205.734 92.3906C205.734 93.3698 205.536 94.2995 205.141 95.1797C204.745 96.0599 204.185 96.849 203.461 97.5469C202.737 98.2396 201.878 98.7943 200.883 99.2109V97.5625C201.971 97.0729 202.807 96.3932 203.391 95.5234C203.979 94.6484 204.273 93.6693 204.273 92.5859C204.273 91.888 204.12 91.4062 203.812 91.1406C203.51 90.875 202.987 90.7422 202.242 90.7422H198.133V89.4141H202.18C203.466 89.4141 204.38 89.6458 204.922 90.1094C205.464 90.5677 205.734 91.3281 205.734 92.3906ZM199.969 92.7734V102.008H198.531V92.7734H199.969ZM209.406 89.4141V99H207.969V89.4141H209.406ZM216.844 89.2578C218.104 89.2578 219.023 89.6432 219.602 90.4141C220.185 91.1797 220.477 92.3984 220.477 94.0703V99H215.773V97.6719H219.023V94.25C219.023 92.974 218.859 92.0469 218.531 91.4688C218.203 90.8906 217.646 90.6016 216.859 90.6016C216.156 90.6016 215.578 90.9193 215.125 91.5547C214.667 92.2005 214.247 93.3229 213.867 94.9219L212.891 99H211.344L212.414 94.8047C212.534 94.3151 212.656 93.8724 212.781 93.4766C212.906 93.0807 213.029 92.7292 213.148 92.4219L211.195 89.4141H212.891L213.867 91C214.273 90.3854 214.708 89.9427 215.172 89.6719C215.635 89.3958 216.193 89.2578 216.844 89.2578ZM229.797 97.7656V99H222.422V97.6719H228.008L221.844 89.4141H223.641L226.617 93.4609C227.018 93.2891 227.31 93.0365 227.492 92.7031C227.674 92.3646 227.797 91.849 227.859 91.1562L228.039 89.4141H229.523L229.367 91.125C229.299 91.8438 229.193 92.3958 229.047 92.7812C228.901 93.1615 228.695 93.4766 228.43 93.7266C228.164 93.9766 227.789 94.1979 227.305 94.3906L229.797 97.7656ZM237.945 98.6016C237.945 99.1536 237.896 99.6146 237.797 99.9844C237.698 100.354 237.544 100.708 237.336 101.047H236.375C236.62 100.693 236.802 100.344 236.922 100C237.047 99.6615 237.109 99.3281 237.109 99H236.422V97.2891H237.945V98.6016ZM242.188 89.4141V94.4531H240.75V89.4141H242.188ZM252.555 97.6719V99H244.188V97.6719H250.078V93.3672C250.078 92.4089 249.883 91.7318 249.492 91.3359C249.107 90.9401 248.438 90.7422 247.484 90.7422H244.555V89.4141H247.5C248.938 89.4141 249.966 89.7214 250.586 90.3359C251.206 90.9505 251.516 91.9661 251.516 93.3828V97.6719H252.555ZM258.07 93.125V99H253.688V97.6719H256.633V93.5312C256.633 92.6875 256.591 92.0911 256.508 91.7422C256.424 91.3828 256.279 91.1276 256.07 90.9766C255.867 90.8203 255.573 90.7422 255.188 90.7422H254.133V89.4141H255.141C255.974 89.4141 256.583 89.5286 256.969 89.7578C257.354 89.9922 257.633 90.375 257.805 90.9062C257.982 91.4323 258.07 92.1719 258.07 93.125ZM264.305 93.125V99H259.922V97.6719H262.867V93.5312C262.867 92.6875 262.826 92.0911 262.742 91.7422C262.659 91.3828 262.513 91.1276 262.305 90.9766C262.102 90.8203 261.807 90.7422 261.422 90.7422H260.367V89.4141H261.375C262.208 89.4141 262.818 89.5286 263.203 89.7578C263.589 89.9922 263.867 90.375 264.039 90.9062C264.216 91.4323 264.305 92.1719 264.305 93.125ZM272.844 89.4141V99H271.406V89.4141H272.844ZM282.766 92.3906C282.766 93.3698 282.568 94.2995 282.172 95.1797C281.776 96.0599 281.216 96.849 280.492 97.5469C279.768 98.2396 278.909 98.7943 277.914 99.2109V97.5625C279.003 97.0729 279.839 96.3932 280.422 95.5234C281.01 94.6484 281.305 93.6693 281.305 92.5859C281.305 91.888 281.151 91.4062 280.844 91.1406C280.542 90.875 280.018 90.7422 279.273 90.7422H275.164V89.4141H279.211C280.497 89.4141 281.411 89.6458 281.953 90.1094C282.495 90.5677 282.766 91.3281 282.766 92.3906ZM277 92.7734V102.008H275.562V92.7734H277ZM286.438 89.4141V94.4531H285V89.4141H286.438ZM296.805 97.6719V99H288.438V97.6719H294.328V93.3672C294.328 92.4089 294.133 91.7318 293.742 91.3359C293.357 90.9401 292.688 90.7422 291.734 90.7422H288.805V89.4141H291.75C293.188 89.4141 294.216 89.7214 294.836 90.3359C295.456 90.9505 295.766 91.9661 295.766 93.3828V97.6719H296.805ZM298.555 97.7344C299.555 97.3646 300.409 96.8958 301.117 96.3281C301.831 95.7656 302.372 95.151 302.742 94.4844C303.117 93.8177 303.305 93.1406 303.305 92.4531C303.305 91.3125 302.695 90.7422 301.477 90.7422H297.594V85.9922H299.031V89.4141H301.625C303.714 89.4141 304.758 90.3438 304.758 92.2031C304.758 93.1615 304.529 94.0807 304.07 94.9609C303.612 95.8411 302.966 96.6328 302.133 97.3359C301.143 98.1797 299.951 98.8516 298.555 99.3516V97.7344ZM318.117 93.3672C318.117 92.4193 317.924 91.7448 317.539 91.3438C317.159 90.9427 316.49 90.7422 315.531 90.7422H313.109V99H311.672V89.4141H315.547C316.984 89.4141 318.013 89.7214 318.633 90.3359C319.253 90.9505 319.562 91.9661 319.562 93.3828V99H318.117V93.3672ZM322.023 97.7344C323.023 97.3646 323.878 96.8958 324.586 96.3281C325.299 95.7656 325.841 95.151 326.211 94.4844C326.586 93.8177 326.773 93.1406 326.773 92.4531C326.773 91.3125 326.164 90.7422 324.945 90.7422H321.062V85.9922H322.5V89.4141H325.094C327.182 89.4141 328.227 90.3438 328.227 92.2031C328.227 93.1615 327.997 94.0807 327.539 94.9609C327.081 95.8411 326.435 96.6328 325.602 97.3359C324.612 98.1797 323.419 98.8516 322.023 99.3516V97.7344ZM335.25 89.2578C336.51 89.2578 337.43 89.6432 338.008 90.4141C338.591 91.1797 338.883 92.3984 338.883 94.0703V99H334.18V97.6719H337.43V94.25C337.43 92.974 337.266 92.0469 336.938 91.4688C336.609 90.8906 336.052 90.6016 335.266 90.6016C334.562 90.6016 333.984 90.9193 333.531 91.5547C333.073 92.2005 332.654 93.3229 332.273 94.9219L331.297 99H329.75L330.82 94.8047C330.94 94.3151 331.062 93.8724 331.188 93.4766C331.312 93.0807 331.435 92.7292 331.555 92.4219L329.602 89.4141H331.297L332.273 91C332.68 90.3854 333.115 89.9427 333.578 89.6719C334.042 89.3958 334.599 89.2578 335.25 89.2578ZM348.359 97.7656V99H340.984V97.6719H346.57L340.406 89.4141H342.203L345.18 93.4609C345.581 93.2891 345.872 93.0365 346.055 92.7031C346.237 92.3646 346.359 91.849 346.422 91.1562L346.602 89.4141H348.086L347.93 91.125C347.862 91.8438 347.755 92.3958 347.609 92.7812C347.464 93.1615 347.258 93.4766 346.992 93.7266C346.727 93.9766 346.352 94.1979 345.867 94.3906L348.359 97.7656ZM356.297 89.4141V99H354.859V89.4141H356.297ZM362.805 99.1562C361.477 99.1562 360.5 98.8229 359.875 98.1562C359.25 97.4844 358.938 96.4531 358.938 95.0625V89.4141H360.375V95.0156C360.375 95.9844 360.565 96.6927 360.945 97.1406C361.331 97.5885 361.958 97.8125 362.828 97.8125C363.51 97.8125 364.065 97.6745 364.492 97.3984C364.919 97.1224 365.232 96.6875 365.43 96.0938C365.633 95.4948 365.734 94.7083 365.734 93.7344C365.734 92.651 365.62 91.8594 365.391 91.3594C365.161 90.8542 364.771 90.6016 364.219 90.6016C363.688 90.6016 363.174 90.7708 362.68 91.1094V89.7344C363.081 89.4167 363.641 89.2578 364.359 89.2578C365.427 89.2578 366.174 89.6094 366.602 90.3125C367.029 91.0104 367.242 92.151 367.242 93.7344C367.242 95.6042 366.885 96.9766 366.172 97.8516C365.458 98.7214 364.336 99.1562 362.805 99.1562ZM370.906 89.4141V99H369.469V89.4141H370.906ZM373.305 93.9766C373.305 93.5547 373.339 93.1302 373.406 92.7031C373.479 92.2708 373.573 91.8802 373.688 91.5312C373.807 91.1823 373.935 90.9193 374.07 90.7422H372.664V89.4141H377.852C379.289 89.4141 380.32 89.7214 380.945 90.3359C381.57 90.9453 381.883 91.9609 381.883 93.3828V94.0703C381.883 95.737 381.508 97.0026 380.758 97.8672C380.013 98.7266 378.922 99.1562 377.484 99.1562C376.057 99.1562 375.003 98.7552 374.32 97.9531C373.643 97.1458 373.305 95.9115 373.305 94.25V93.9766ZM375.352 90.7422C375.003 91.3568 374.828 92.4141 374.828 93.9141V94.3281C374.828 95.474 375.057 96.3438 375.516 96.9375C375.979 97.5312 376.646 97.8281 377.516 97.8281C378.51 97.8281 379.229 97.5339 379.672 96.9453C380.12 96.3568 380.344 95.3932 380.344 94.0547V93.3672C380.344 92.3984 380.159 91.7188 379.789 91.3281C379.419 90.9375 378.768 90.7422 377.836 90.7422H375.352ZM387.711 93.125V99H383.328V97.6719H386.273V93.5312C386.273 92.6875 386.232 92.0911 386.148 91.7422C386.065 91.3828 385.919 91.1276 385.711 90.9766C385.508 90.8203 385.214 90.7422 384.828 90.7422H383.773V89.4141H384.781C385.615 89.4141 386.224 89.5286 386.609 89.7578C386.995 89.9922 387.273 90.375 387.445 90.9062C387.622 91.4323 387.711 92.1719 387.711 93.125ZM395.078 89.2578C396.339 89.2578 397.258 89.6432 397.836 90.4141C398.419 91.1797 398.711 92.3984 398.711 94.0703V99H394.008V97.6719H397.258V94.25C397.258 92.974 397.094 92.0469 396.766 91.4688C396.438 90.8906 395.88 90.6016 395.094 90.6016C394.391 90.6016 393.812 90.9193 393.359 91.5547C392.901 92.2005 392.482 93.3229 392.102 94.9219L391.125 99H389.578L390.648 94.8047C390.768 94.3151 390.891 93.8724 391.016 93.4766C391.141 93.0807 391.263 92.7292 391.383 92.4219L389.43 89.4141H391.125L392.102 91C392.508 90.3854 392.943 89.9427 393.406 89.6719C393.87 89.3958 394.427 89.2578 395.078 89.2578ZM38.6797 120.602C38.6797 121.154 38.6302 121.615 38.5312 121.984C38.4323 122.354 38.2786 122.708 38.0703 123.047H37.1094C37.3542 122.693 37.5365 122.344 37.6562 122C37.7812 121.661 37.8438 121.328 37.8438 121H37.1562V119.289H38.6797V120.602ZM49.6953 115.383V121H41.4844V111.414H45.6797C47.1172 111.414 48.1458 111.721 48.7656 112.336C49.3854 112.951 49.6953 113.966 49.6953 115.383ZM42.9219 119.672H48.25V115.367C48.25 114.419 48.0573 113.745 47.6719 113.344C47.2917 112.943 46.6224 112.742 45.6641 112.742H42.9219V119.672ZM53.7812 111.414V121H52.3438V111.414H53.7812ZM60.2891 121.156C58.9609 121.156 57.9844 120.823 57.3594 120.156C56.7344 119.484 56.4219 118.453 56.4219 117.062V111.414H57.8594V117.016C57.8594 117.984 58.0495 118.693 58.4297 119.141C58.8151 119.589 59.4427 119.812 60.3125 119.812C60.9948 119.812 61.5495 119.674 61.9766 119.398C62.4036 119.122 62.7161 118.688 62.9141 118.094C63.1172 117.495 63.2188 116.708 63.2188 115.734C63.2188 114.651 63.1042 113.859 62.875 113.359C62.6458 112.854 62.2552 112.602 61.7031 112.602C61.1719 112.602 60.6589 112.771 60.1641 113.109V111.734C60.5651 111.417 61.125 111.258 61.8438 111.258C62.9115 111.258 63.6589 111.609 64.0859 112.312C64.513 113.01 64.7266 114.151 64.7266 115.734C64.7266 117.604 64.3698 118.977 63.6562 119.852C62.9427 120.721 61.8203 121.156 60.2891 121.156ZM66.6328 115.977C66.6328 115.555 66.6667 115.13 66.7344 114.703C66.8073 114.271 66.901 113.88 67.0156 113.531C67.1354 113.182 67.263 112.919 67.3984 112.742H65.9922V111.414H71.1797C72.6172 111.414 73.6484 111.721 74.2734 112.336C74.8984 112.945 75.2109 113.961 75.2109 115.383V116.07C75.2109 117.737 74.8359 119.003 74.0859 119.867C73.3411 120.727 72.25 121.156 70.8125 121.156C69.3854 121.156 68.3307 120.755 67.6484 119.953C66.9714 119.146 66.6328 117.911 66.6328 116.25V115.977ZM68.6797 112.742C68.3307 113.357 68.1562 114.414 68.1562 115.914V116.328C68.1562 117.474 68.3854 118.344 68.8438 118.938C69.3073 119.531 69.974 119.828 70.8438 119.828C71.8385 119.828 72.5573 119.534 73 118.945C73.4479 118.357 73.6719 117.393 73.6719 116.055V115.367C73.6719 114.398 73.487 113.719 73.1172 113.328C72.7474 112.938 72.0964 112.742 71.1641 112.742H68.6797ZM89.4141 115.383V121H87.9688V115.367C87.9688 114.409 87.7734 113.732 87.3828 113.336C86.9974 112.94 86.3281 112.742 85.375 112.742H81.7344V111.414H85.3984C86.3568 111.414 87.1302 111.549 87.7188 111.82C88.3073 112.086 88.737 112.51 89.0078 113.094C89.2786 113.672 89.4141 114.435 89.4141 115.383ZM83.3281 114.773V121H81.8906V114.773H83.3281ZM95.6328 115.125V121H91.25V119.672H94.1953V115.531C94.1953 114.688 94.1536 114.091 94.0703 113.742C93.987 113.383 93.8411 113.128 93.6328 112.977C93.4297 112.82 93.1354 112.742 92.75 112.742H91.6953V111.414H92.7031C93.5365 111.414 94.1458 111.529 94.5312 111.758C94.9167 111.992 95.1953 112.375 95.3672 112.906C95.5443 113.432 95.6328 114.172 95.6328 115.125ZM105.484 114.391C105.484 115.37 105.286 116.299 104.891 117.18C104.495 118.06 103.935 118.849 103.211 119.547C102.487 120.24 101.628 120.794 100.633 121.211V119.562C101.721 119.073 102.557 118.393 103.141 117.523C103.729 116.648 104.023 115.669 104.023 114.586C104.023 113.888 103.87 113.406 103.562 113.141C103.26 112.875 102.737 112.742 101.992 112.742H97.8828V111.414H101.93C103.216 111.414 104.13 111.646 104.672 112.109C105.214 112.568 105.484 113.328 105.484 114.391ZM99.7188 114.773V124.008H98.2812V114.773H99.7188ZM109.156 111.414V116.453H107.719V111.414H109.156ZM117.781 115.383V121H116.336V115.367C116.336 114.419 116.143 113.745 115.758 113.344C115.378 112.943 114.708 112.742 113.75 112.742H110.82V111.414H113.766C114.724 111.414 115.497 111.549 116.086 111.82C116.674 112.086 117.104 112.51 117.375 113.094C117.646 113.672 117.781 114.435 117.781 115.383ZM128.07 119.672V121H119.703V119.672H125.594V115.367C125.594 114.409 125.398 113.732 125.008 113.336C124.622 112.94 123.953 112.742 123 112.742H120.07V111.414H123.016C124.453 111.414 125.482 111.721 126.102 112.336C126.721 112.951 127.031 113.966 127.031 115.383V119.672H128.07ZM140.359 115.383V121H138.914V115.367C138.914 114.419 138.721 113.745 138.336 113.344C137.956 112.943 137.286 112.742 136.328 112.742H133.398V111.414H136.344C137.302 111.414 138.076 111.549 138.664 111.82C139.253 112.086 139.682 112.51 139.953 113.094C140.224 113.672 140.359 114.435 140.359 115.383ZM150.648 119.672V121H142.281V119.672H148.172V115.367C148.172 114.409 147.977 113.732 147.586 113.336C147.201 112.94 146.531 112.742 145.578 112.742H142.648V111.414H145.594C147.031 111.414 148.06 111.721 148.68 112.336C149.299 112.951 149.609 113.966 149.609 115.383V119.672H150.648ZM154.016 111.414V121H152.578V111.414H154.016ZM156.883 119.734C157.883 119.365 158.737 118.896 159.445 118.328C160.159 117.766 160.701 117.151 161.07 116.484C161.445 115.818 161.633 115.141 161.633 114.453C161.633 113.312 161.023 112.742 159.805 112.742H155.922V107.992H157.359V111.414H159.953C162.042 111.414 163.086 112.344 163.086 114.203C163.086 115.161 162.857 116.081 162.398 116.961C161.94 117.841 161.294 118.633 160.461 119.336C159.471 120.18 158.279 120.852 156.883 121.352V119.734ZM172.422 114.391C172.422 115.37 172.224 116.299 171.828 117.18C171.432 118.06 170.872 118.849 170.148 119.547C169.424 120.24 168.565 120.794 167.57 121.211V119.562C168.659 119.073 169.495 118.393 170.078 117.523C170.667 116.648 170.961 115.669 170.961 114.586C170.961 113.888 170.807 113.406 170.5 113.141C170.198 112.875 169.674 112.742 168.93 112.742H164.82V111.414H168.867C170.154 111.414 171.068 111.646 171.609 112.109C172.151 112.568 172.422 113.328 172.422 114.391ZM166.656 114.773V124.008H165.219V114.773H166.656ZM180.547 111.414V116.453H179.109V111.414H180.547ZM187.055 121.156C185.727 121.156 184.75 120.823 184.125 120.156C183.5 119.484 183.188 118.453 183.188 117.062V111.414H184.625V117.016C184.625 117.984 184.815 118.693 185.195 119.141C185.581 119.589 186.208 119.812 187.078 119.812C187.76 119.812 188.315 119.674 188.742 119.398C189.169 119.122 189.482 118.688 189.68 118.094C189.883 117.495 189.984 116.708 189.984 115.734C189.984 114.651 189.87 113.859 189.641 113.359C189.411 112.854 189.021 112.602 188.469 112.602C187.938 112.602 187.424 112.771 186.93 113.109V111.734C187.331 111.417 187.891 111.258 188.609 111.258C189.677 111.258 190.424 111.609 190.852 112.312C191.279 113.01 191.492 114.151 191.492 115.734C191.492 117.604 191.135 118.977 190.422 119.852C189.708 120.721 188.586 121.156 187.055 121.156ZM193.398 115.977C193.398 115.555 193.432 115.13 193.5 114.703C193.573 114.271 193.667 113.88 193.781 113.531C193.901 113.182 194.029 112.919 194.164 112.742H192.758V111.414H197.945C199.383 111.414 200.414 111.721 201.039 112.336C201.664 112.945 201.977 113.961 201.977 115.383V116.07C201.977 117.737 201.602 119.003 200.852 119.867C200.107 120.727 199.016 121.156 197.578 121.156C196.151 121.156 195.096 120.755 194.414 119.953C193.737 119.146 193.398 117.911 193.398 116.25V115.977ZM195.445 112.742C195.096 113.357 194.922 114.414 194.922 115.914V116.328C194.922 117.474 195.151 118.344 195.609 118.938C196.073 119.531 196.74 119.828 197.609 119.828C198.604 119.828 199.323 119.534 199.766 118.945C200.214 118.357 200.438 117.393 200.438 116.055V115.367C200.438 114.398 200.253 113.719 199.883 113.328C199.513 112.938 198.862 112.742 197.93 112.742H195.445ZM207.805 115.125V121H203.422V119.672H206.367V115.531C206.367 114.688 206.326 114.091 206.242 113.742C206.159 113.383 206.013 113.128 205.805 112.977C205.602 112.82 205.307 112.742 204.922 112.742H203.867V111.414H204.875C205.708 111.414 206.318 111.529 206.703 111.758C207.089 111.992 207.367 112.375 207.539 112.906C207.716 113.432 207.805 114.172 207.805 115.125ZM211.891 111.414V121H210.453V111.414H211.891ZM218.195 115.125V121H213.812V119.672H216.758V115.531C216.758 114.688 216.716 114.091 216.633 113.742C216.549 113.383 216.404 113.128 216.195 112.977C215.992 112.82 215.698 112.742 215.312 112.742H214.258V111.414H215.266C216.099 111.414 216.708 111.529 217.094 111.758C217.479 111.992 217.758 112.375 217.93 112.906C218.107 113.432 218.195 114.172 218.195 115.125ZM226.945 120.602C226.945 121.154 226.896 121.615 226.797 121.984C226.698 122.354 226.544 122.708 226.336 123.047H225.375C225.62 122.693 225.802 122.344 225.922 122C226.047 121.661 226.109 121.328 226.109 121H225.422V119.289H226.945V120.602ZM237.258 115.383V121H235.812V115.367C235.812 114.409 235.617 113.732 235.227 113.336C234.841 112.94 234.172 112.742 233.219 112.742H229.578V111.414H233.242C234.201 111.414 234.974 111.549 235.562 111.82C236.151 112.086 236.581 112.51 236.852 113.094C237.122 113.672 237.258 114.435 237.258 115.383ZM231.172 114.773V121H229.734V114.773H231.172ZM245.312 115.383V121H243.867V115.367C243.867 114.419 243.674 113.745 243.289 113.344C242.909 112.943 242.24 112.742 241.281 112.742H238.352V111.414H241.297C242.255 111.414 243.029 111.549 243.617 111.82C244.206 112.086 244.635 112.51 244.906 113.094C245.177 113.672 245.312 114.435 245.312 115.383ZM255.641 114.391C255.641 115.37 255.443 116.299 255.047 117.18C254.651 118.06 254.091 118.849 253.367 119.547C252.643 120.24 251.784 120.794 250.789 121.211V119.562C251.878 119.073 252.714 118.393 253.297 117.523C253.885 116.648 254.18 115.669 254.18 114.586C254.18 113.888 254.026 113.406 253.719 113.141C253.417 112.875 252.893 112.742 252.148 112.742H248.039V111.414H252.086C253.372 111.414 254.286 111.646 254.828 112.109C255.37 112.568 255.641 113.328 255.641 114.391ZM249.875 114.773V124.008H248.438V114.773H249.875ZM259.312 111.414V116.453H257.875V111.414H259.312ZM262.18 119.734C263.18 119.365 264.034 118.896 264.742 118.328C265.456 117.766 265.997 117.151 266.367 116.484C266.742 115.818 266.93 115.141 266.93 114.453C266.93 113.312 266.32 112.742 265.102 112.742H261.219V107.992H262.656V111.414H265.25C267.339 111.414 268.383 112.344 268.383 114.203C268.383 115.161 268.154 116.081 267.695 116.961C267.237 117.841 266.591 118.633 265.758 119.336C264.768 120.18 263.576 120.852 262.18 121.352V119.734ZM277.836 119.672V121H269.469V119.672H275.359V115.367C275.359 114.409 275.164 113.732 274.773 113.336C274.388 112.94 273.719 112.742 272.766 112.742H269.836V111.414H272.781C274.219 111.414 275.247 111.721 275.867 112.336C276.487 112.951 276.797 113.966 276.797 115.383V119.672H277.836ZM284.227 115.977C284.227 115.555 284.26 115.13 284.328 114.703C284.401 114.271 284.495 113.88 284.609 113.531C284.729 113.182 284.857 112.919 284.992 112.742H283.586V111.414H288.773C290.211 111.414 291.242 111.721 291.867 112.336C292.492 112.945 292.805 113.961 292.805 115.383V116.07C292.805 117.737 292.43 119.003 291.68 119.867C290.935 120.727 289.844 121.156 288.406 121.156C286.979 121.156 285.924 120.755 285.242 119.953C284.565 119.146 284.227 117.911 284.227 116.25V115.977ZM286.273 112.742C285.924 113.357 285.75 114.414 285.75 115.914V116.328C285.75 117.474 285.979 118.344 286.438 118.938C286.901 119.531 287.568 119.828 288.438 119.828C289.432 119.828 290.151 119.534 290.594 118.945C291.042 118.357 291.266 117.393 291.266 116.055V115.367C291.266 114.398 291.081 113.719 290.711 113.328C290.341 112.938 289.69 112.742 288.758 112.742H286.273ZM296.484 111.414V121H295.047V111.414H296.484ZM305.109 115.383V121H303.664V115.367C303.664 114.419 303.471 113.745 303.086 113.344C302.706 112.943 302.036 112.742 301.078 112.742H298.148V111.414H301.094C302.052 111.414 302.826 111.549 303.414 111.82C304.003 112.086 304.432 112.51 304.703 113.094C304.974 113.672 305.109 114.435 305.109 115.383ZM309.188 111.414V121H307.75V111.414H309.188ZM319.109 114.391C319.109 115.37 318.911 116.299 318.516 117.18C318.12 118.06 317.56 118.849 316.836 119.547C316.112 120.24 315.253 120.794 314.258 121.211V119.562C315.346 119.073 316.182 118.393 316.766 117.523C317.354 116.648 317.648 115.669 317.648 114.586C317.648 113.888 317.495 113.406 317.188 113.141C316.885 112.875 316.362 112.742 315.617 112.742H311.508V111.414H315.555C316.841 111.414 317.755 111.646 318.297 112.109C318.839 112.568 319.109 113.328 319.109 114.391ZM313.344 114.773V124.008H311.906V114.773H313.344ZM334.008 115.383V121H325.797V111.414H329.992C331.43 111.414 332.458 111.721 333.078 112.336C333.698 112.951 334.008 113.966 334.008 115.383ZM327.234 119.672H332.562V115.367C332.562 114.419 332.37 113.745 331.984 113.344C331.604 112.943 330.935 112.742 329.977 112.742H327.234V119.672ZM338.094 111.414V121H336.656V111.414H338.094ZM344.602 121.156C343.273 121.156 342.297 120.823 341.672 120.156C341.047 119.484 340.734 118.453 340.734 117.062V111.414H342.172V117.016C342.172 117.984 342.362 118.693 342.742 119.141C343.128 119.589 343.755 119.812 344.625 119.812C345.307 119.812 345.862 119.674 346.289 119.398C346.716 119.122 347.029 118.688 347.227 118.094C347.43 117.495 347.531 116.708 347.531 115.734C347.531 114.651 347.417 113.859 347.188 113.359C346.958 112.854 346.568 112.602 346.016 112.602C345.484 112.602 344.971 112.771 344.477 113.109V111.734C344.878 111.417 345.438 111.258 346.156 111.258C347.224 111.258 347.971 111.609 348.398 112.312C348.826 113.01 349.039 114.151 349.039 115.734C349.039 117.604 348.682 118.977 347.969 119.852C347.255 120.721 346.133 121.156 344.602 121.156ZM354.852 115.125V121H350.469V119.672H353.414V115.531C353.414 114.688 353.372 114.091 353.289 113.742C353.206 113.383 353.06 113.128 352.852 112.977C352.648 112.82 352.354 112.742 351.969 112.742H350.914V111.414H351.922C352.755 111.414 353.365 111.529 353.75 111.758C354.135 111.992 354.414 112.375 354.586 112.906C354.763 113.432 354.852 114.172 354.852 115.125ZM362.219 111.258C363.479 111.258 364.398 111.643 364.977 112.414C365.56 113.18 365.852 114.398 365.852 116.07V121H361.148V119.672H364.398V116.25C364.398 114.974 364.234 114.047 363.906 113.469C363.578 112.891 363.021 112.602 362.234 112.602C361.531 112.602 360.953 112.919 360.5 113.555C360.042 114.201 359.622 115.323 359.242 116.922L358.266 121H356.719L357.789 116.805C357.909 116.315 358.031 115.872 358.156 115.477C358.281 115.081 358.404 114.729 358.523 114.422L356.57 111.414H358.266L359.242 113C359.648 112.385 360.083 111.943 360.547 111.672C361.01 111.396 361.568 111.258 362.219 111.258ZM369.609 111.414V116.453H368.172V111.414H369.609ZM378.531 112.742V121H377.086V112.742H371.617V111.414H379.727V112.742H378.531ZM385.117 115.125V121H380.734V119.672H383.68V115.531C383.68 114.688 383.638 114.091 383.555 113.742C383.471 113.383 383.326 113.128 383.117 112.977C382.914 112.82 382.62 112.742 382.234 112.742H381.18V111.414H382.188C383.021 111.414 383.63 111.529 384.016 111.758C384.401 111.992 384.68 112.375 384.852 112.906C385.029 113.432 385.117 114.172 385.117 115.125ZM389.203 111.414V121H387.766V111.414H389.203ZM399.125 114.391C399.125 115.37 398.927 116.299 398.531 117.18C398.135 118.06 397.576 118.849 396.852 119.547C396.128 120.24 395.268 120.794 394.273 121.211V119.562C395.362 119.073 396.198 118.393 396.781 117.523C397.37 116.648 397.664 115.669 397.664 114.586C397.664 113.888 397.51 113.406 397.203 113.141C396.901 112.875 396.378 112.742 395.633 112.742H391.523V111.414H395.57C396.857 111.414 397.771 111.646 398.312 112.109C398.854 112.568 399.125 113.328 399.125 114.391ZM393.359 114.773V124.008H391.922V114.773H393.359ZM62.0703 142.602C62.0703 143.154 62.0208 143.615 61.9219 143.984C61.8229 144.354 61.6693 144.708 61.4609 145.047H60.5C60.7448 144.693 60.9271 144.344 61.0469 144C61.1719 143.661 61.2344 143.328 61.2344 143H60.5469V141.289H62.0703V142.602ZM68.6641 143.156C67.3359 143.156 66.3594 142.823 65.7344 142.156C65.1094 141.484 64.7969 140.453 64.7969 139.062V133.414H66.2344V139.016C66.2344 139.984 66.4245 140.693 66.8047 141.141C67.1901 141.589 67.8177 141.812 68.6875 141.812C69.3698 141.812 69.9245 141.674 70.3516 141.398C70.7786 141.122 71.0911 140.688 71.2891 140.094C71.4922 139.495 71.5938 138.708 71.5938 137.734C71.5938 136.651 71.4792 135.859 71.25 135.359C71.0208 134.854 70.6302 134.602 70.0781 134.602C69.5469 134.602 69.0339 134.771 68.5391 135.109V133.734C68.9401 133.417 69.5 133.258 70.2188 133.258C71.2865 133.258 72.0339 133.609 72.4609 134.312C72.888 135.01 73.1016 136.151 73.1016 137.734C73.1016 139.604 72.7448 140.977 72.0312 141.852C71.3177 142.721 70.1953 143.156 68.6641 143.156ZM80.0469 133.258C81.3073 133.258 82.2266 133.643 82.8047 134.414C83.388 135.18 83.6797 136.398 83.6797 138.07V143H78.9766V141.672H82.2266V138.25C82.2266 136.974 82.0625 136.047 81.7344 135.469C81.4062 134.891 80.849 134.602 80.0625 134.602C79.3594 134.602 78.7812 134.919 78.3281 135.555C77.8698 136.201 77.4505 137.323 77.0703 138.922L76.0938 143H74.5469L75.6172 138.805C75.737 138.315 75.8594 137.872 75.9844 137.477C76.1094 137.081 76.2318 136.729 76.3516 136.422L74.3984 133.414H76.0938L77.0703 135C77.4766 134.385 77.9115 133.943 78.375 133.672C78.8385 133.396 79.3958 133.258 80.0469 133.258ZM87.625 139.852L87 143H85.4844L86.1406 139.883C86.3281 138.987 86.5 138.357 86.6562 137.992C86.8125 137.622 87.0078 137.323 87.2422 137.094C87.4818 136.865 87.8021 136.669 88.2031 136.508L85.9453 133.414H87.7188L91.2422 138.266C91.6328 137.901 91.9427 137.461 92.1719 136.945C92.4062 136.424 92.5599 135.828 92.6328 135.156L92.8125 133.414H94.2969L94.1172 135.125C94.0599 135.698 93.9557 136.201 93.8047 136.633C93.7005 136.93 93.5755 137.214 93.4297 137.484C93.2839 137.75 93.0964 138.026 92.8672 138.312C92.6432 138.599 92.3516 138.919 91.9922 139.273L94.8125 143H92.9844L88.8594 137.398C88.4427 137.602 88.1458 137.953 87.9688 138.453C87.9167 138.583 87.862 138.766 87.8047 139C87.7526 139.234 87.6927 139.518 87.625 139.852ZM104.617 143.156C103.289 143.156 102.312 142.823 101.688 142.156C101.062 141.484 100.75 140.453 100.75 139.062V133.414H102.188V139.016C102.188 139.984 102.378 140.693 102.758 141.141C103.143 141.589 103.771 141.812 104.641 141.812C105.323 141.812 105.878 141.674 106.305 141.398C106.732 141.122 107.044 140.688 107.242 140.094C107.445 139.495 107.547 138.708 107.547 137.734C107.547 136.651 107.432 135.859 107.203 135.359C106.974 134.854 106.583 134.602 106.031 134.602C105.5 134.602 104.987 134.771 104.492 135.109V133.734C104.893 133.417 105.453 133.258 106.172 133.258C107.24 133.258 107.987 133.609 108.414 134.312C108.841 135.01 109.055 136.151 109.055 137.734C109.055 139.604 108.698 140.977 107.984 141.852C107.271 142.721 106.148 143.156 104.617 143.156ZM112.719 133.414V138.453H111.281V133.414H112.719ZM115.117 137.977C115.117 137.555 115.151 137.13 115.219 136.703C115.292 136.271 115.385 135.88 115.5 135.531C115.62 135.182 115.747 134.919 115.883 134.742H114.477V133.414H119.664C121.102 133.414 122.133 133.721 122.758 134.336C123.383 134.945 123.695 135.961 123.695 137.383V138.07C123.695 139.737 123.32 141.003 122.57 141.867C121.826 142.727 120.734 143.156 119.297 143.156C117.87 143.156 116.815 142.755 116.133 141.953C115.456 141.146 115.117 139.911 115.117 138.25V137.977ZM117.164 134.742C116.815 135.357 116.641 136.414 116.641 137.914V138.328C116.641 139.474 116.87 140.344 117.328 140.938C117.792 141.531 118.458 141.828 119.328 141.828C120.323 141.828 121.042 141.534 121.484 140.945C121.932 140.357 122.156 139.393 122.156 138.055V137.367C122.156 136.398 121.971 135.719 121.602 135.328C121.232 134.938 120.581 134.742 119.648 134.742H117.164ZM136.297 137.383V143H134.852V137.367C134.852 136.419 134.659 135.745 134.273 135.344C133.893 134.943 133.224 134.742 132.266 134.742H129.336V133.414H132.281C133.24 133.414 134.013 133.549 134.602 133.82C135.19 134.086 135.62 134.51 135.891 135.094C136.161 135.672 136.297 136.435 136.297 137.383ZM140.375 133.414V143H138.938V133.414H140.375ZM143.242 141.734C144.242 141.365 145.096 140.896 145.805 140.328C146.518 139.766 147.06 139.151 147.43 138.484C147.805 137.818 147.992 137.141 147.992 136.453C147.992 135.312 147.383 134.742 146.164 134.742H142.281V129.992H143.719V133.414H146.312C148.401 133.414 149.445 134.344 149.445 136.203C149.445 137.161 149.216 138.081 148.758 138.961C148.299 139.841 147.654 140.633 146.82 141.336C145.831 142.18 144.638 142.852 143.242 143.352V141.734ZM153.016 133.414V143H151.578V133.414H153.016ZM161.609 134.742V143H160.164V134.742H154.695V133.414H162.805V134.742H161.609ZM177.273 137.383V143H169.062V133.414H173.258C174.695 133.414 175.724 133.721 176.344 134.336C176.964 134.951 177.273 135.966 177.273 137.383ZM170.5 141.672H175.828V137.367C175.828 136.419 175.635 135.745 175.25 135.344C174.87 134.943 174.201 134.742 173.242 134.742H170.5V141.672ZM181.359 133.414V143H179.922V133.414H181.359ZM183.758 137.977C183.758 137.555 183.792 137.13 183.859 136.703C183.932 136.271 184.026 135.88 184.141 135.531C184.26 135.182 184.388 134.919 184.523 134.742H183.117V133.414H188.305C189.742 133.414 190.773 133.721 191.398 134.336C192.023 134.945 192.336 135.961 192.336 137.383V138.07C192.336 139.737 191.961 141.003 191.211 141.867C190.466 142.727 189.375 143.156 187.938 143.156C186.51 143.156 185.456 142.755 184.773 141.953C184.096 141.146 183.758 139.911 183.758 138.25V137.977ZM185.805 134.742C185.456 135.357 185.281 136.414 185.281 137.914V138.328C185.281 139.474 185.51 140.344 185.969 140.938C186.432 141.531 187.099 141.828 187.969 141.828C188.964 141.828 189.682 141.534 190.125 140.945C190.573 140.357 190.797 139.393 190.797 138.055V137.367C190.797 136.398 190.612 135.719 190.242 135.328C189.872 134.938 189.221 134.742 188.289 134.742H185.805ZM200.641 137.672C200.641 136.688 200.424 135.953 199.992 135.469C199.56 134.984 198.88 134.742 197.953 134.742H195.797V137.445H197.695V138.773H194.336V133.414H197.969C199.365 133.414 200.401 133.763 201.078 134.461C201.76 135.154 202.102 136.234 202.102 137.703V138.344C202.102 141.448 200.633 143 197.695 143H194.422V141.672H197.734C198.724 141.672 199.456 141.398 199.93 140.852C200.404 140.299 200.641 139.469 200.641 138.359V137.672ZM205.453 133.414V138.453H204.016V133.414H205.453ZM209.797 139.852L209.172 143H207.656L208.312 139.883C208.5 138.987 208.672 138.357 208.828 137.992C208.984 137.622 209.18 137.323 209.414 137.094C209.654 136.865 209.974 136.669 210.375 136.508L208.117 133.414H209.891L213.414 138.266C213.805 137.901 214.115 137.461 214.344 136.945C214.578 136.424 214.732 135.828 214.805 135.156L214.984 133.414H216.469L216.289 135.125C216.232 135.698 216.128 136.201 215.977 136.633C215.872 136.93 215.747 137.214 215.602 137.484C215.456 137.75 215.268 138.026 215.039 138.312C214.815 138.599 214.523 138.919 214.164 139.273L216.984 143H215.156L211.031 137.398C210.615 137.602 210.318 137.953 210.141 138.453C210.089 138.583 210.034 138.766 209.977 139C209.924 139.234 209.865 139.518 209.797 139.852ZM231.211 137.383V143H223V133.414H227.195C228.633 133.414 229.661 133.721 230.281 134.336C230.901 134.951 231.211 135.966 231.211 137.383ZM224.438 141.672H229.766V137.367C229.766 136.419 229.573 135.745 229.188 135.344C228.807 134.943 228.138 134.742 227.18 134.742H224.438V141.672ZM239.281 137.383V143H237.836V137.367C237.836 136.419 237.643 135.745 237.258 135.344C236.878 134.943 236.208 134.742 235.25 134.742H232.32V133.414H235.266C236.224 133.414 236.997 133.549 237.586 133.82C238.174 134.086 238.604 134.51 238.875 135.094C239.146 135.672 239.281 136.435 239.281 137.383ZM243.844 133.414V143H242.406V133.414H243.844ZM246.711 141.734C247.711 141.365 248.565 140.896 249.273 140.328C249.987 139.766 250.529 139.151 250.898 138.484C251.273 137.818 251.461 137.141 251.461 136.453C251.461 135.312 250.852 134.742 249.633 134.742H245.75V129.992H247.188V133.414H249.781C251.87 133.414 252.914 134.344 252.914 136.203C252.914 137.161 252.685 138.081 252.227 138.961C251.768 139.841 251.122 140.633 250.289 141.336C249.299 142.18 248.107 142.852 246.711 143.352V141.734ZM256.672 141.289V143H255.148V141.289H256.672ZM260.938 133.414V138.453H259.5V133.414H260.938ZM267.445 143.156C266.117 143.156 265.141 142.823 264.516 142.156C263.891 141.484 263.578 140.453 263.578 139.062V133.414H265.016V139.016C265.016 139.984 265.206 140.693 265.586 141.141C265.971 141.589 266.599 141.812 267.469 141.812C268.151 141.812 268.706 141.674 269.133 141.398C269.56 141.122 269.872 140.688 270.07 140.094C270.273 139.495 270.375 138.708 270.375 137.734C270.375 136.651 270.26 135.859 270.031 135.359C269.802 134.854 269.411 134.602 268.859 134.602C268.328 134.602 267.815 134.771 267.32 135.109V133.734C267.721 133.417 268.281 133.258 269 133.258C270.068 133.258 270.815 133.609 271.242 134.312C271.669 135.01 271.883 136.151 271.883 137.734C271.883 139.604 271.526 140.977 270.812 141.852C270.099 142.721 268.977 143.156 267.445 143.156ZM280.016 137.383V143H278.57V137.367C278.57 136.419 278.378 135.745 277.992 135.344C277.612 134.943 276.943 134.742 275.984 134.742H273.055V133.414H276C276.958 133.414 277.732 133.549 278.32 133.82C278.909 134.086 279.339 134.51 279.609 135.094C279.88 135.672 280.016 136.435 280.016 137.383ZM282.805 141.734C283.805 141.365 284.659 140.896 285.367 140.328C286.081 139.766 286.622 139.151 286.992 138.484C287.367 137.818 287.555 137.141 287.555 136.453C287.555 135.312 286.945 134.742 285.727 134.742H281.844V129.992H283.281V133.414H285.875C287.964 133.414 289.008 134.344 289.008 136.203C289.008 137.161 288.779 138.081 288.32 138.961C287.862 139.841 287.216 140.633 286.383 141.336C285.393 142.18 284.201 142.852 282.805 143.352V141.734ZM302.797 136.391C302.797 137.37 302.599 138.299 302.203 139.18C301.807 140.06 301.247 140.849 300.523 141.547C299.799 142.24 298.94 142.794 297.945 143.211V141.562C299.034 141.073 299.87 140.393 300.453 139.523C301.042 138.648 301.336 137.669 301.336 136.586C301.336 135.888 301.182 135.406 300.875 135.141C300.573 134.875 300.049 134.742 299.305 134.742H295.195V133.414H299.242C300.529 133.414 301.443 133.646 301.984 134.109C302.526 134.568 302.797 135.328 302.797 136.391ZM297.031 136.773V146.008H295.594V136.773H297.031ZM306.469 133.414V138.453H305.031V133.414H306.469ZM315.094 137.383V143H313.648V137.367C313.648 136.419 313.456 135.745 313.07 135.344C312.69 134.943 312.021 134.742 311.062 134.742H308.133V133.414H311.078C312.036 133.414 312.81 133.549 313.398 133.82C313.987 134.086 314.417 134.51 314.688 135.094C314.958 135.672 315.094 136.435 315.094 137.383ZM321.523 143.156C320.195 143.156 319.219 142.823 318.594 142.156C317.969 141.484 317.656 140.453 317.656 139.062V133.414H319.094V139.016C319.094 139.984 319.284 140.693 319.664 141.141C320.049 141.589 320.677 141.812 321.547 141.812C322.229 141.812 322.784 141.674 323.211 141.398C323.638 141.122 323.951 140.688 324.148 140.094C324.352 139.495 324.453 138.708 324.453 137.734C324.453 136.651 324.339 135.859 324.109 135.359C323.88 134.854 323.49 134.602 322.938 134.602C322.406 134.602 321.893 134.771 321.398 135.109V133.734C321.799 133.417 322.359 133.258 323.078 133.258C324.146 133.258 324.893 133.609 325.32 134.312C325.747 135.01 325.961 136.151 325.961 137.734C325.961 139.604 325.604 140.977 324.891 141.852C324.177 142.721 323.055 143.156 321.523 143.156ZM334.859 141.766V143H327.484V141.672H333.07L326.906 133.414H328.703L331.68 137.461C332.081 137.289 332.372 137.036 332.555 136.703C332.737 136.365 332.859 135.849 332.922 135.156L333.102 133.414H334.586L334.43 135.125C334.362 135.844 334.255 136.396 334.109 136.781C333.964 137.161 333.758 137.477 333.492 137.727C333.227 137.977 332.852 138.198 332.367 138.391L334.859 141.766ZM338.773 141.516C338.596 142.042 338.315 142.422 337.93 142.656C337.544 142.885 336.938 143 336.109 143H336.023V141.672H336.156C336.516 141.672 336.802 141.604 337.016 141.469C337.224 141.333 337.372 141.128 337.461 140.852C337.549 140.57 337.594 140.146 337.594 139.578V134.742H336.109V133.414H341.289C342.727 133.414 343.758 133.721 344.383 134.336C345.008 134.945 345.32 135.961 345.32 137.383V143H343.883V137.367C343.883 136.409 343.688 135.732 343.297 135.336C342.911 134.94 342.237 134.742 341.273 134.742H339.031V139.289C339.031 140.247 338.945 140.99 338.773 141.516ZM358.328 137.383V146.008H356.883V137.367C356.883 136.419 356.69 135.745 356.305 135.344C355.924 134.943 355.255 134.742 354.297 134.742H351.367V133.414H354.312C355.271 133.414 356.044 133.549 356.633 133.82C357.221 134.086 357.651 134.51 357.922 135.094C358.193 135.672 358.328 136.435 358.328 137.383ZM368.172 136.391C368.172 137.37 367.974 138.299 367.578 139.18C367.182 140.06 366.622 140.849 365.898 141.547C365.174 142.24 364.315 142.794 363.32 143.211V141.562C364.409 141.073 365.245 140.393 365.828 139.523C366.417 138.648 366.711 137.669 366.711 136.586C366.711 135.888 366.557 135.406 366.25 135.141C365.948 134.875 365.424 134.742 364.68 134.742H360.57V133.414H364.617C365.904 133.414 366.818 133.646 367.359 134.109C367.901 134.568 368.172 135.328 368.172 136.391ZM362.406 136.773V146.008H360.969V136.773H362.406ZM371.844 133.414V138.453H370.406V133.414H371.844ZM380.469 137.383V143H379.023V137.367C379.023 136.419 378.831 135.745 378.445 135.344C378.065 134.943 377.396 134.742 376.438 134.742H373.508V133.414H376.453C377.411 133.414 378.185 133.549 378.773 133.82C379.362 134.086 379.792 134.51 380.062 135.094C380.333 135.672 380.469 136.435 380.469 137.383ZM389.172 137.672C389.172 136.688 388.956 135.953 388.523 135.469C388.091 134.984 387.411 134.742 386.484 134.742H384.328V137.445H386.227V138.773H382.867V133.414H386.5C387.896 133.414 388.932 133.763 389.609 134.461C390.292 135.154 390.633 136.234 390.633 137.703V138.344C390.633 141.448 389.164 143 386.227 143H382.953V141.672H386.266C387.255 141.672 387.987 141.398 388.461 140.852C388.935 140.299 389.172 139.469 389.172 138.359V137.672ZM392.695 141.734C393.695 141.365 394.549 140.896 395.258 140.328C395.971 139.766 396.513 139.151 396.883 138.484C397.258 137.818 397.445 137.141 397.445 136.453C397.445 135.312 396.836 134.742 395.617 134.742H391.734V129.992H393.172V133.414H395.766C397.854 133.414 398.898 134.344 398.898 136.203C398.898 137.161 398.669 138.081 398.211 138.961C397.753 139.841 397.107 140.633 396.273 141.336C395.284 142.18 394.091 142.852 392.695 143.352V141.734ZM22.5938 163.289V165H21.0703V163.289H22.5938ZM27.0469 163.289V165H25.5234V163.289H27.0469ZM31.5 163.289V165H29.9766V163.289H31.5ZM41.8359 159.383V165H40.3906V159.367C40.3906 158.409 40.1953 157.732 39.8047 157.336C39.4193 156.94 38.75 156.742 37.7969 156.742H34.1562V155.414H37.8203C38.7786 155.414 39.5521 155.549 40.1406 155.82C40.7292 156.086 41.1589 156.51 41.4297 157.094C41.7005 157.672 41.8359 158.435 41.8359 159.383ZM35.75 158.773V165H34.3125V158.773H35.75ZM45.7656 161.852L45.1406 165H43.625L44.2812 161.883C44.4688 160.987 44.6406 160.357 44.7969 159.992C44.9531 159.622 45.1484 159.323 45.3828 159.094C45.6224 158.865 45.9427 158.669 46.3438 158.508L44.0859 155.414H45.8594L49.3828 160.266C49.7734 159.901 50.0833 159.461 50.3125 158.945C50.5469 158.424 50.7005 157.828 50.7734 157.156L50.9531 155.414H52.4375L52.2578 157.125C52.2005 157.698 52.0964 158.201 51.9453 158.633C51.8411 158.93 51.7161 159.214 51.5703 159.484C51.4245 159.75 51.237 160.026 51.0078 160.312C50.7839 160.599 50.4922 160.919 50.1328 161.273L52.9531 165H51.125L47 159.398C46.5833 159.602 46.2865 159.953 46.1094 160.453C46.0573 160.583 46.0026 160.766 45.9453 161C45.8932 161.234 45.8333 161.518 45.7656 161.852ZM62.1641 163.672V165H53.7969V163.672H59.6875V159.367C59.6875 158.409 59.4922 157.732 59.1016 157.336C58.7161 156.94 58.0469 156.742 57.0938 156.742H54.1641V155.414H57.1094C58.5469 155.414 59.5755 155.721 60.1953 156.336C60.8151 156.951 61.125 157.966 61.125 159.383V163.672H62.1641ZM65.2031 155.414V160.453H63.7656V155.414H65.2031ZM71.8359 159.125V165H67.4531V163.672H70.3984V159.531C70.3984 158.688 70.3568 158.091 70.2734 157.742C70.1901 157.383 70.0443 157.128 69.8359 156.977C69.6328 156.82 69.3385 156.742 68.9531 156.742H67.8984V155.414H68.9062C69.7396 155.414 70.349 155.529 70.7344 155.758C71.1198 155.992 71.3984 156.375 71.5703 156.906C71.7474 157.432 71.8359 158.172 71.8359 159.125ZM80.375 155.414V168.008H78.9375V155.414H80.375ZM84.5312 155.414V165H83.0938V155.414H84.5312ZM90.8359 159.125V165H86.4531V163.672H89.3984V159.531C89.3984 158.688 89.3568 158.091 89.2734 157.742C89.1901 157.383 89.0443 157.128 88.8359 156.977C88.6328 156.82 88.3385 156.742 87.9531 156.742H86.8984V155.414H87.9062C88.7396 155.414 89.349 155.529 89.7344 155.758C90.1198 155.992 90.3984 156.375 90.5703 156.906C90.7474 157.432 90.8359 158.172 90.8359 159.125ZM99.375 155.414V160.453H97.9375V155.414H99.375ZM101.773 159.977C101.773 159.555 101.807 159.13 101.875 158.703C101.948 158.271 102.042 157.88 102.156 157.531C102.276 157.182 102.404 156.919 102.539 156.742H101.133V155.414H106.32C107.758 155.414 108.789 155.721 109.414 156.336C110.039 156.945 110.352 157.961 110.352 159.383V160.07C110.352 161.737 109.977 163.003 109.227 163.867C108.482 164.727 107.391 165.156 105.953 165.156C104.526 165.156 103.471 164.755 102.789 163.953C102.112 163.146 101.773 161.911 101.773 160.25V159.977ZM103.82 156.742C103.471 157.357 103.297 158.414 103.297 159.914V160.328C103.297 161.474 103.526 162.344 103.984 162.938C104.448 163.531 105.115 163.828 105.984 163.828C106.979 163.828 107.698 163.534 108.141 162.945C108.589 162.357 108.812 161.393 108.812 160.055V159.367C108.812 158.398 108.628 157.719 108.258 157.328C107.888 156.938 107.237 156.742 106.305 156.742H103.82ZM113.703 155.414V160.453H112.266V155.414H113.703ZM120.336 159.125V165H115.953V163.672H118.898V159.531C118.898 158.688 118.857 158.091 118.773 157.742C118.69 157.383 118.544 157.128 118.336 156.977C118.133 156.82 117.839 156.742 117.453 156.742H116.398V155.414H117.406C118.24 155.414 118.849 155.529 119.234 155.758C119.62 155.992 119.898 156.375 120.07 156.906C120.247 157.432 120.336 158.172 120.336 159.125ZM135.648 159.383V165H127.438V155.414H131.633C133.07 155.414 134.099 155.721 134.719 156.336C135.339 156.951 135.648 157.966 135.648 159.383ZM128.875 163.672H134.203V159.367C134.203 158.419 134.01 157.745 133.625 157.344C133.245 156.943 132.576 156.742 131.617 156.742H128.875V163.672ZM139.734 155.414V165H138.297V155.414H139.734ZM149.656 158.391C149.656 159.37 149.458 160.299 149.062 161.18C148.667 162.06 148.107 162.849 147.383 163.547C146.659 164.24 145.799 164.794 144.805 165.211V163.562C145.893 163.073 146.729 162.393 147.312 161.523C147.901 160.648 148.195 159.669 148.195 158.586C148.195 157.888 148.042 157.406 147.734 157.141C147.432 156.875 146.909 156.742 146.164 156.742H142.055V155.414H146.102C147.388 155.414 148.302 155.646 148.844 156.109C149.385 156.568 149.656 157.328 149.656 158.391ZM143.891 158.773V168.008H142.453V158.773H143.891ZM155.148 159.125V165H150.766V163.672H153.711V159.531C153.711 158.688 153.669 158.091 153.586 157.742C153.503 157.383 153.357 157.128 153.148 156.977C152.945 156.82 152.651 156.742 152.266 156.742H151.211V155.414H152.219C153.052 155.414 153.661 155.529 154.047 155.758C154.432 155.992 154.711 156.375 154.883 156.906C155.06 157.432 155.148 158.172 155.148 159.125ZM162.844 155.258C164.104 155.258 165.023 155.643 165.602 156.414C166.185 157.18 166.477 158.398 166.477 160.07V165H161.773V163.672H165.023V160.25C165.023 158.974 164.859 158.047 164.531 157.469C164.203 156.891 163.646 156.602 162.859 156.602C162.156 156.602 161.578 156.919 161.125 157.555C160.667 158.201 160.247 159.323 159.867 160.922L158.891 165H157.344L158.414 160.805C158.534 160.315 158.656 159.872 158.781 159.477C158.906 159.081 159.029 158.729 159.148 158.422L157.195 155.414H158.891L159.867 157C160.273 156.385 160.708 155.943 161.172 155.672C161.635 155.396 162.193 155.258 162.844 155.258ZM168.945 163.734C169.945 163.365 170.799 162.896 171.508 162.328C172.221 161.766 172.763 161.151 173.133 160.484C173.508 159.818 173.695 159.141 173.695 158.453C173.695 157.312 173.086 156.742 171.867 156.742H167.984V151.992H169.422V155.414H172.016C174.104 155.414 175.148 156.344 175.148 158.203C175.148 159.161 174.919 160.081 174.461 160.961C174.003 161.841 173.357 162.633 172.523 163.336C171.534 164.18 170.341 164.852 168.945 165.352V163.734ZM178.578 161.852L177.953 165H176.438L177.094 161.883C177.281 160.987 177.453 160.357 177.609 159.992C177.766 159.622 177.961 159.323 178.195 159.094C178.435 158.865 178.755 158.669 179.156 158.508L176.898 155.414H178.672L182.195 160.266C182.586 159.901 182.896 159.461 183.125 158.945C183.359 158.424 183.513 157.828 183.586 157.156L183.766 155.414H185.25L185.07 157.125C185.013 157.698 184.909 158.201 184.758 158.633C184.654 158.93 184.529 159.214 184.383 159.484C184.237 159.75 184.049 160.026 183.82 160.312C183.596 160.599 183.305 160.919 182.945 161.273L185.766 165H183.938L179.812 159.398C179.396 159.602 179.099 159.953 178.922 160.453C178.87 160.583 178.815 160.766 178.758 161C178.706 161.234 178.646 161.518 178.578 161.852ZM193.977 163.516C193.799 164.042 193.518 164.422 193.133 164.656C192.747 164.885 192.141 165 191.312 165H191.227V163.672H191.359C191.719 163.672 192.005 163.604 192.219 163.469C192.427 163.333 192.576 163.128 192.664 162.852C192.753 162.57 192.797 162.146 192.797 161.578V156.742H191.312V155.414H196.492C197.93 155.414 198.961 155.721 199.586 156.336C200.211 156.945 200.523 157.961 200.523 159.383V165H199.086V159.367C199.086 158.409 198.891 157.732 198.5 157.336C198.115 156.94 197.44 156.742 196.477 156.742H194.234V161.289C194.234 162.247 194.148 162.99 193.977 163.516ZM202.695 159.977C202.695 159.555 202.729 159.13 202.797 158.703C202.87 158.271 202.964 157.88 203.078 157.531C203.198 157.182 203.326 156.919 203.461 156.742H202.055V155.414H207.242C208.68 155.414 209.711 155.721 210.336 156.336C210.961 156.945 211.273 157.961 211.273 159.383V160.07C211.273 161.737 210.898 163.003 210.148 163.867C209.404 164.727 208.312 165.156 206.875 165.156C205.448 165.156 204.393 164.755 203.711 163.953C203.034 163.146 202.695 161.911 202.695 160.25V159.977ZM204.742 156.742C204.393 157.357 204.219 158.414 204.219 159.914V160.328C204.219 161.474 204.448 162.344 204.906 162.938C205.37 163.531 206.036 163.828 206.906 163.828C207.901 163.828 208.62 163.534 209.062 162.945C209.51 162.357 209.734 161.393 209.734 160.055V159.367C209.734 158.398 209.549 157.719 209.18 157.328C208.81 156.938 208.159 156.742 207.227 156.742H204.742ZM219.75 163.289V165H218.227V163.289H219.75ZM224.445 163.516C224.268 164.042 223.987 164.422 223.602 164.656C223.216 164.885 222.609 165 221.781 165H221.695V163.672H221.828C222.188 163.672 222.474 163.604 222.688 163.469C222.896 163.333 223.044 163.128 223.133 162.852C223.221 162.57 223.266 162.146 223.266 161.578V156.742H221.781V155.414H226.961C228.398 155.414 229.43 155.721 230.055 156.336C230.68 156.945 230.992 157.961 230.992 159.383V165H229.555V159.367C229.555 158.409 229.359 157.732 228.969 157.336C228.583 156.94 227.909 156.742 226.945 156.742H224.703V161.289C224.703 162.247 224.617 162.99 224.445 163.516ZM234.75 155.414V160.453H233.312V155.414H234.75ZM237.945 163.734C238.945 163.365 239.799 162.896 240.508 162.328C241.221 161.766 241.763 161.151 242.133 160.484C242.508 159.818 242.695 159.141 242.695 158.453C242.695 157.312 242.086 156.742 240.867 156.742H236.984V151.992H238.422V155.414H241.016C243.104 155.414 244.148 156.344 244.148 158.203C244.148 159.161 243.919 160.081 243.461 160.961C243.003 161.841 242.357 162.633 241.523 163.336C240.534 164.18 239.341 164.852 237.945 165.352V163.734ZM247.25 161.852L246.625 165H245.109L245.766 161.883C245.953 160.987 246.125 160.357 246.281 159.992C246.438 159.622 246.633 159.323 246.867 159.094C247.107 158.865 247.427 158.669 247.828 158.508L245.57 155.414H247.344L250.867 160.266C251.258 159.901 251.568 159.461 251.797 158.945C252.031 158.424 252.185 157.828 252.258 157.156L252.438 155.414H253.922L253.742 157.125C253.685 157.698 253.581 158.201 253.43 158.633C253.326 158.93 253.201 159.214 253.055 159.484C252.909 159.75 252.721 160.026 252.492 160.312C252.268 160.599 251.977 160.919 251.617 161.273L254.438 165H252.609L248.484 159.398C248.068 159.602 247.771 159.953 247.594 160.453C247.542 160.583 247.487 160.766 247.43 161C247.378 161.234 247.318 161.518 247.25 161.852ZM261.453 155.414C261.906 155.414 262.276 155.451 262.562 155.523C262.854 155.591 263.094 155.721 263.281 155.914C263.469 156.102 263.635 156.378 263.781 156.742C263.859 156.924 263.951 157.208 264.055 157.594C264.159 157.974 264.279 158.458 264.414 159.047L265.773 165H264.352L263.469 161.062C263.031 161.172 262.711 161.305 262.508 161.461C262.31 161.617 262.146 161.849 262.016 162.156C261.948 162.307 261.883 162.505 261.82 162.75C261.763 162.99 261.706 163.271 261.648 163.594L261.391 165H259.914L260.188 163.578C260.307 162.958 260.427 162.458 260.547 162.078C260.672 161.693 260.828 161.38 261.016 161.141C261.167 160.943 261.352 160.771 261.57 160.625C261.789 160.474 262.104 160.339 262.516 160.219L263.227 160.008C263.096 159.456 262.982 158.995 262.883 158.625C262.784 158.25 262.701 157.966 262.633 157.773C262.497 157.388 262.349 157.12 262.188 156.969C262.026 156.818 261.797 156.742 261.5 156.742H260.445V155.414H261.453ZM271.133 159.125V165H266.75V163.672H269.695V159.531C269.695 158.688 269.654 158.091 269.57 157.742C269.487 157.383 269.341 157.128 269.133 156.977C268.93 156.82 268.635 156.742 268.25 156.742H267.195V155.414H268.203C269.036 155.414 269.646 155.529 270.031 155.758C270.417 155.992 270.695 156.375 270.867 156.906C271.044 157.432 271.133 158.172 271.133 159.125ZM275.219 155.414V160.453H273.781V155.414H275.219ZM277.617 159.977C277.617 159.555 277.651 159.13 277.719 158.703C277.792 158.271 277.885 157.88 278 157.531C278.12 157.182 278.247 156.919 278.383 156.742H276.977V155.414H282.164C283.602 155.414 284.633 155.721 285.258 156.336C285.883 156.945 286.195 157.961 286.195 159.383V160.07C286.195 161.737 285.82 163.003 285.07 163.867C284.326 164.727 283.234 165.156 281.797 165.156C280.37 165.156 279.315 164.755 278.633 163.953C277.956 163.146 277.617 161.911 277.617 160.25V159.977ZM279.664 156.742C279.315 157.357 279.141 158.414 279.141 159.914V160.328C279.141 161.474 279.37 162.344 279.828 162.938C280.292 163.531 280.958 163.828 281.828 163.828C282.823 163.828 283.542 163.534 283.984 162.945C284.432 162.357 284.656 161.393 284.656 160.055V159.367C284.656 158.398 284.471 157.719 284.102 157.328C283.732 156.938 283.081 156.742 282.148 156.742H279.664ZM289.547 155.414V160.453H288.109V155.414H289.547ZM298.656 159.672C298.656 158.688 298.44 157.953 298.008 157.469C297.576 156.984 296.896 156.742 295.969 156.742H293.812V159.445H295.711V160.773H292.352V155.414H295.984C297.38 155.414 298.417 155.763 299.094 156.461C299.776 157.154 300.117 158.234 300.117 159.703V160.344C300.117 163.448 298.648 165 295.711 165H292.438V163.672H295.75C296.74 163.672 297.471 163.398 297.945 162.852C298.419 162.299 298.656 161.469 298.656 160.359V159.672ZM303.469 155.414V160.453H302.031V155.414H303.469ZM312.391 156.742V165H310.945V156.742H305.477V155.414H313.586V156.742H312.391ZM316.688 161.852L316.062 165H314.547L315.203 161.883C315.391 160.987 315.562 160.357 315.719 159.992C315.875 159.622 316.07 159.323 316.305 159.094C316.544 158.865 316.865 158.669 317.266 158.508L315.008 155.414H316.781L320.305 160.266C320.695 159.901 321.005 159.461 321.234 158.945C321.469 158.424 321.622 157.828 321.695 157.156L321.875 155.414H323.359L323.18 157.125C323.122 157.698 323.018 158.201 322.867 158.633C322.763 158.93 322.638 159.214 322.492 159.484C322.346 159.75 322.159 160.026 321.93 160.312C321.706 160.599 321.414 160.919 321.055 161.273L323.875 165H322.047L317.922 159.398C317.505 159.602 317.208 159.953 317.031 160.453C316.979 160.583 316.924 160.766 316.867 161C316.815 161.234 316.755 161.518 316.688 161.852ZM335.797 159.383V165H334.352V159.367C334.352 158.419 334.159 157.745 333.773 157.344C333.393 156.943 332.724 156.742 331.766 156.742H328.836V155.414H331.781C332.74 155.414 333.513 155.549 334.102 155.82C334.69 156.086 335.12 156.51 335.391 157.094C335.661 157.672 335.797 158.435 335.797 159.383ZM344.344 159.383V165H342.898V159.367C342.898 158.419 342.706 157.745 342.32 157.344C341.94 156.943 341.271 156.742 340.312 156.742H337.383V155.414H340.328C341.286 155.414 342.06 155.549 342.648 155.82C343.237 156.086 343.667 156.51 343.938 157.094C344.208 157.672 344.344 158.435 344.344 159.383ZM348.422 155.414V165H346.984V155.414H348.422ZM354.93 165.156C353.602 165.156 352.625 164.823 352 164.156C351.375 163.484 351.062 162.453 351.062 161.062V155.414H352.5V161.016C352.5 161.984 352.69 162.693 353.07 163.141C353.456 163.589 354.083 163.812 354.953 163.812C355.635 163.812 356.19 163.674 356.617 163.398C357.044 163.122 357.357 162.688 357.555 162.094C357.758 161.495 357.859 160.708 357.859 159.734C357.859 158.651 357.745 157.859 357.516 157.359C357.286 156.854 356.896 156.602 356.344 156.602C355.812 156.602 355.299 156.771 354.805 157.109V155.734C355.206 155.417 355.766 155.258 356.484 155.258C357.552 155.258 358.299 155.609 358.727 156.312C359.154 157.01 359.367 158.151 359.367 159.734C359.367 161.604 359.01 162.977 358.297 163.852C357.583 164.721 356.461 165.156 354.93 165.156ZM368.797 158.391C368.797 159.37 368.599 160.299 368.203 161.18C367.807 162.06 367.247 162.849 366.523 163.547C365.799 164.24 364.94 164.794 363.945 165.211V163.562C365.034 163.073 365.87 162.393 366.453 161.523C367.042 160.648 367.336 159.669 367.336 158.586C367.336 157.888 367.182 157.406 366.875 157.141C366.573 156.875 366.049 156.742 365.305 156.742H361.195V155.414H365.242C366.529 155.414 367.443 155.646 367.984 156.109C368.526 156.568 368.797 157.328 368.797 158.391ZM363.031 158.773V168.008H361.594V158.773H363.031ZM370.711 159.977C370.711 159.555 370.745 159.13 370.812 158.703C370.885 158.271 370.979 157.88 371.094 157.531C371.214 157.182 371.341 156.919 371.477 156.742H370.07V155.414H375.258C376.695 155.414 377.727 155.721 378.352 156.336C378.977 156.945 379.289 157.961 379.289 159.383V160.07C379.289 161.737 378.914 163.003 378.164 163.867C377.419 164.727 376.328 165.156 374.891 165.156C373.464 165.156 372.409 164.755 371.727 163.953C371.049 163.146 370.711 161.911 370.711 160.25V159.977ZM372.758 156.742C372.409 157.357 372.234 158.414 372.234 159.914V160.328C372.234 161.474 372.464 162.344 372.922 162.938C373.385 163.531 374.052 163.828 374.922 163.828C375.917 163.828 376.635 163.534 377.078 162.945C377.526 162.357 377.75 161.393 377.75 160.055V159.367C377.75 158.398 377.565 157.719 377.195 157.328C376.826 156.938 376.174 156.742 375.242 156.742H372.758ZM385.117 159.125V165H380.734V163.672H383.68V159.531C383.68 158.688 383.638 158.091 383.555 157.742C383.471 157.383 383.326 157.128 383.117 156.977C382.914 156.82 382.62 156.742 382.234 156.742H381.18V155.414H382.188C383.021 155.414 383.63 155.529 384.016 155.758C384.401 155.992 384.68 156.375 384.852 156.906C385.029 157.432 385.117 158.172 385.117 159.125ZM389.203 155.414V165H387.766V155.414H389.203ZM399.125 158.391C399.125 159.37 398.927 160.299 398.531 161.18C398.135 162.06 397.576 162.849 396.852 163.547C396.128 164.24 395.268 164.794 394.273 165.211V163.562C395.362 163.073 396.198 162.393 396.781 161.523C397.37 160.648 397.664 159.669 397.664 158.586C397.664 157.888 397.51 157.406 397.203 157.141C396.901 156.875 396.378 156.742 395.633 156.742H391.523V155.414H395.57C396.857 155.414 397.771 155.646 398.312 156.109C398.854 156.568 399.125 157.328 399.125 158.391ZM393.359 158.773V168.008H391.922V158.773H393.359Z" fill="#161616"/>
<rect x="1" y="27" width="6" height="154" rx="3" fill="#E0E0E0"/>
<rect x="1" y="27" width="6" height="100.91" rx="3" fill="#A0A0A0"/>
<path d="M2.41992 198.887C2.28711 199.281 2.07617 199.566 1.78711 199.742C1.49805 199.914 1.04297 200 0.421875 200H0.357422V199.004H0.457031C0.726562 199.004 0.941406 198.953 1.10156 198.852C1.25781 198.75 1.36914 198.596 1.43555 198.389C1.50195 198.178 1.53516 197.859 1.53516 197.434V193.807H0.421875V192.811H4.30664C5.38477 192.811 6.1582 193.041 6.62695 193.502C7.0957 193.959 7.33008 194.721 7.33008 195.787V200H6.25195V195.775C6.25195 195.057 6.10547 194.549 5.8125 194.252C5.52344 193.955 5.01758 193.807 4.29492 193.807H2.61328V197.217C2.61328 197.936 2.54883 198.492 2.41992 198.887ZM10.1484 192.811V196.59H9.07031V192.811H10.1484ZM15.2754 200.117C14.2793 200.117 13.5469 199.867 13.0781 199.367C12.6094 198.863 12.375 198.09 12.375 197.047V192.811H13.4531V197.012C13.4531 197.738 13.5957 198.27 13.8809 198.605C14.1699 198.941 14.6406 199.109 15.293 199.109C15.8047 199.109 16.2207 199.006 16.541 198.799C16.8613 198.592 17.0957 198.266 17.2441 197.82C17.3965 197.371 17.4727 196.781 17.4727 196.051C17.4727 195.238 17.3867 194.645 17.2148 194.27C17.043 193.891 16.75 193.701 16.3359 193.701C15.9375 193.701 15.5527 193.828 15.1816 194.082V193.051C15.4824 192.812 15.9023 192.693 16.4414 192.693C17.2422 192.693 17.8027 192.957 18.123 193.484C18.4434 194.008 18.6035 194.863 18.6035 196.051C18.6035 197.453 18.3359 198.482 17.8008 199.139C17.2656 199.791 16.4238 200.117 15.2754 200.117ZM22.9629 195.594V200H19.6758V199.004H21.8848V195.898C21.8848 195.266 21.8535 194.818 21.791 194.557C21.7285 194.287 21.6191 194.096 21.4629 193.982C21.3105 193.865 21.0898 193.807 20.8008 193.807H20.0098V192.811H20.7656C21.3906 192.811 21.8477 192.896 22.1367 193.068C22.4258 193.244 22.6348 193.531 22.7637 193.93C22.8965 194.324 22.9629 194.879 22.9629 195.594ZM26.0273 192.811V200H24.9492V192.811H26.0273ZM29.1445 192.811V200H28.0664V192.811H29.1445ZM31.2949 199.051C32.0449 198.773 32.6855 198.422 33.2168 197.996C33.752 197.574 34.1582 197.113 34.4355 196.613C34.7168 196.113 34.8574 195.605 34.8574 195.09C34.8574 194.234 34.4004 193.807 33.4863 193.807H30.5742V190.244H31.6523V192.811H33.5977C35.1641 192.811 35.9473 193.508 35.9473 194.902C35.9473 195.621 35.7754 196.311 35.4316 196.971C35.0879 197.631 34.6035 198.225 33.9785 198.752C33.2363 199.385 32.3418 199.889 31.2949 200.264V199.051ZM41.9766 195.787V200H40.8926V195.775C40.8926 195.064 40.748 194.559 40.459 194.258C40.1738 193.957 39.6719 193.807 38.9531 193.807H36.7559V192.811H38.9648C39.6836 192.811 40.2637 192.912 40.7051 193.115C41.1465 193.314 41.4688 193.633 41.6719 194.07C41.875 194.504 41.9766 195.076 41.9766 195.787ZM52.9277 195.787V200H51.8438V195.775C51.8438 195.057 51.6973 194.549 51.4043 194.252C51.1152 193.955 50.6133 193.807 49.8984 193.807H47.168V192.811H49.916C50.6348 192.811 51.2148 192.912 51.6562 193.115C52.0977 193.314 52.4199 193.633 52.623 194.07C52.8262 194.504 52.9277 195.076 52.9277 195.787ZM48.3633 195.33V200H47.2852V195.33H48.3633ZM58.9688 195.787V200H57.8848V195.775C57.8848 195.064 57.7402 194.559 57.4512 194.258C57.166 193.957 56.6641 193.807 55.9453 193.807H53.748V192.811H55.957C56.6758 192.811 57.2559 192.912 57.6973 193.115C58.1387 193.314 58.4609 193.633 58.6641 194.07C58.8672 194.504 58.9688 195.076 58.9688 195.787ZM60.5332 199.051C61.6152 199.051 62.4629 198.951 63.0762 198.752L60.9023 192.811H62.0918L64.0137 198.295C64.3809 198.033 64.6758 197.684 64.8984 197.246C65.125 196.805 65.2891 196.227 65.3906 195.512C65.4961 194.797 65.5488 193.896 65.5488 192.811H66.6797C66.6797 194.615 66.4883 196.029 66.1055 197.053C65.8477 197.732 65.4863 198.295 65.0215 198.74C64.5566 199.182 63.957 199.521 63.2227 199.76C62.4922 199.994 61.5957 200.139 60.5332 200.193V199.051ZM73.9277 195.787V200H72.8438V195.775C72.8438 195.057 72.6973 194.549 72.4043 194.252C72.1152 193.955 71.6133 193.807 70.8984 193.807H68.168V192.811H70.916C71.6348 192.811 72.2148 192.912 72.6562 193.115C73.0977 193.314 73.4199 193.633 73.623 194.07C73.8262 194.504 73.9277 195.076 73.9277 195.787ZM69.3633 195.33V200H68.2852V195.33H69.3633Z" fill="#F9F8F8"/>
</svg>
