<svg width="860" height="61" viewBox="0 0 860 61" fill="none" xmlns="http://www.w3.org/2000/svg">
<path d="M260.4 6C259.416 6 258.722 6.6 258.225 7.1625C257.728 7.725 257.325 8.3625 256.95 8.9625C256.575 9.5625 256.233 10.125 255.938 10.4625C255.717 10.7156 255.572 10.7859 255.563 10.8H243.6C241.627 10.8 240 12.4266 240 14.4V46.8C240 48.7734 241.627 50.4 243.6 50.4H296.4C298.373 50.4 300 48.7734 300 46.8V14.4C300 12.4266 298.373 10.8 296.4 10.8H284.438C284.442 10.8047 284.428 10.8 284.4 10.8C284.363 10.7719 284.255 10.6828 284.062 10.4625C283.767 10.125 283.425 9.5625 283.05 8.9625C282.675 8.3625 282.272 7.725 281.775 7.1625C281.278 6.6 280.584 6 279.6 6H260.4ZM260.4 8.4H279.6C279.525 8.4 279.68 8.4 279.975 8.7375C280.27 9.075 280.613 9.6375 280.988 10.2375C281.363 10.8375 281.775 11.475 282.263 12.0375C282.75 12.6 283.416 13.2 284.4 13.2H296.4C297.075 13.2 297.6 13.725 297.6 14.4V46.8C297.6 47.475 297.075 48 296.4 48H243.6C242.925 48 242.4 47.475 242.4 46.8V14.4C242.4 13.725 242.925 13.2 243.6 13.2H255.6C256.584 13.2 257.25 12.6 257.738 12.0375C258.225 11.475 258.638 10.8375 259.013 10.2375C259.388 9.6375 259.73 9.075 260.025 8.7375C260.32 8.4 260.475 8.4 260.4 8.4ZM270 13.2C261.398 13.2 254.4 20.1984 254.4 28.8C254.4 37.4016 261.398 44.4 270 44.4C278.602 44.4 285.6 37.4016 285.6 28.8C285.6 20.1984 278.602 13.2 270 13.2ZM270 15.6C277.303 15.6 283.2 21.4969 283.2 28.8C283.2 36.1031 277.303 42 270 42C262.697 42 256.8 36.1031 256.8 28.8C256.8 21.4969 262.697 15.6 270 15.6ZM249.6 16.8C248.273 16.8 247.2 17.8734 247.2 19.2C247.2 20.5266 248.273 21.6 249.6 21.6H250.8C252.127 21.6 253.2 20.5266 253.2 19.2C253.2 17.8734 252.127 16.8 250.8 16.8H249.6ZM270 18C264.052 18 259.2 22.8516 259.2 28.8C259.2 34.7484 264.052 39.6 270 39.6C275.948 39.6 280.8 34.7484 280.8 28.8C280.8 22.8516 275.948 18 270 18ZM270 20.4C274.655 20.4 278.4 24.1453 278.4 28.8C278.4 33.4547 274.655 37.2 270 37.2C265.345 37.2 261.6 33.4547 261.6 28.8C261.6 24.1453 265.345 20.4 270 20.4Z" fill="#333333"/>
<rect x="247.1" y="16.7998" width="6.2" height="5" rx="2.5" fill="#F50F66"/>
<path d="M670 2.40039C663.386 2.40039 658 7.78633 658 14.4004V16.8004C657.995 17.2316 658.22 17.6348 658.595 17.8551C658.97 18.0707 659.43 18.0707 659.805 17.8551C660.18 17.6348 660.405 17.2316 660.4 16.8004V14.4004C660.4 9.08476 664.684 4.80039 670 4.80039C675.316 4.80039 679.6 9.08476 679.6 14.4004V16.8004C679.595 17.2316 679.82 17.6348 680.195 17.8551C680.57 18.0707 681.03 18.0707 681.405 17.8551C681.78 17.6348 682.005 17.2316 682 16.8004V14.4004C682 7.78633 676.614 2.40039 670 2.40039ZM659.2 19.2004C657.873 19.2004 656.8 20.2738 656.8 21.6004H650.8C650.762 21.6004 650.725 21.6004 650.687 21.6004C650.134 21.6473 649.684 22.0645 649.6 22.6129L644.8 55.0129C644.744 55.3644 644.847 55.716 645.077 55.9832C645.311 56.2551 645.648 56.4051 646 56.4004H649.6V57.6004H653.2V56.4004H686.8V57.6004H690.4V56.4004H694C694.352 56.4051 694.689 56.2551 694.923 55.9832C695.153 55.716 695.256 55.3644 695.2 55.0129L690.4 22.6129C690.306 22.0223 689.795 21.591 689.2 21.6004H683.2C683.2 20.2738 682.127 19.2004 680.8 19.2004C679.473 19.2004 678.4 20.2738 678.4 21.6004H661.6C661.6 20.2738 660.527 19.2004 659.2 19.2004ZM651.85 24.0004H688.15L692.612 54.0004H647.387L651.85 24.0004ZM682 30.6004C681.466 30.6004 680.978 30.8301 680.65 31.2004H658C657.962 31.2004 657.925 31.2004 657.887 31.2004C657.227 31.2332 656.711 31.7957 656.744 32.4566C656.777 33.1176 657.339 33.6332 658 33.6004H680.65C680.978 33.9707 681.466 34.2004 682 34.2004C682.994 34.2004 683.8 33.3941 683.8 32.4004C683.8 31.4066 682.994 30.6004 682 30.6004ZM681.887 34.7629C681.836 34.7723 681.784 34.7863 681.737 34.8004C681.18 34.9269 680.786 35.4285 680.8 36.0004V42.0004C680.795 42.4316 681.02 42.8348 681.395 43.0551C681.77 43.2707 682.23 43.2707 682.605 43.0551C682.98 42.8348 683.205 42.4316 683.2 42.0004V36.0004C683.214 35.6535 683.073 35.3207 682.825 35.0863C682.572 34.8473 682.23 34.7301 681.887 34.7629Z" fill="#333333"/>
<rect x="680.8" y="34.7002" width="2.5" height="8.6" rx="1.25" fill="#F50F66"/>
<path d="M745.2 3.59961C733.945 3.59961 724.8 12.7449 724.8 23.9996C724.8 35.2543 733.945 44.3996 745.2 44.3996C749.653 44.3996 753.769 42.9652 757.125 40.5371L772.912 56.2871L776.287 52.9121L760.687 37.2746C763.753 33.7027 765.6 29.0668 765.6 23.9996C765.6 12.7449 756.455 3.59961 745.2 3.59961ZM745.2 5.99961C755.156 5.99961 763.2 14.0434 763.2 23.9996C763.2 33.9559 755.156 41.9996 745.2 41.9996C735.244 41.9996 727.2 33.9559 727.2 23.9996C727.2 14.0434 735.244 5.99961 745.2 5.99961Z" fill="#333333"/>
<path d="M350 7.20078C363.894 7.20078 375.2 16.8852 375.2 28.7914C375.2 40.6977 363.894 50.3867 350 50.3867C347.877 50.3867 345.809 50.143 343.681 49.6461L342.261 49.3133L341.309 50.4195C340.489 51.3805 337.733 54.2023 333.186 54.9945C334.053 53.4289 334.709 51.8352 335.141 50.2414C335.473 48.9992 335.534 48.3477 335.553 47.7805L335.609 46.4398L334.498 45.6898C328.334 41.5227 324.8 35.3633 324.8 28.7914C324.8 16.8852 336.106 7.20078 350 7.20078ZM350 4.80078C334.794 4.80078 322.4 15.4555 322.4 28.7914C322.4 36.5352 326.638 43.2758 333.153 47.6773C333.144 47.9352 333.163 48.357 332.82 49.6133C332.403 51.1742 331.55 53.368 329.825 55.843L328.597 57.6008H330.739C338.169 57.6008 342.467 52.7586 343.133 51.9805C345.345 52.5008 347.623 52.7867 350 52.7867C365.206 52.7867 377.6 42.132 377.6 28.7914C377.6 15.4555 365.206 4.80078 350 4.80078Z" fill="#333333"/>
<path d="M98 8.40137C89.3985 8.40137 82.4 15.3998 82.4 24.0014C82.4 41.7154 102.434 50.4576 109.25 56.1389L110 56.7764L110.75 56.1389C117.566 50.4576 137.6 41.7154 137.6 24.0014C137.6 15.3998 130.602 8.40137 122 8.40137C117.134 8.40137 112.859 10.7123 110 14.2139C107.141 10.7123 102.866 8.40137 98 8.40137ZM98 10.8014C102.603 10.8014 106.625 13.1639 108.988 16.7264L110 18.2264L111.013 16.7264C113.375 13.1639 117.397 10.8014 122 10.8014C129.303 10.8014 135.2 16.6982 135.2 24.0014C135.2 39.4795 117.913 47.4904 110 53.7389C102.088 47.4904 84.8 39.4795 84.8 24.0014C84.8 16.6982 90.6969 10.8014 98 10.8014Z" fill="#333333"/>
<path d="M590 8.40039C587.778 8.40039 585.913 9.94258 585.373 12.0004H563.6C563.169 11.9957 562.766 12.2207 562.545 12.5957C562.33 12.9707 562.33 13.4301 562.545 13.8051C562.766 14.1801 563.169 14.4051 563.6 14.4004H585.373C585.913 16.4582 587.778 18.0004 590 18.0004C592.222 18.0004 594.088 16.4582 594.627 14.4004H616.4C616.831 14.4051 617.234 14.1801 617.455 13.8051C617.67 13.4301 617.67 12.9707 617.455 12.5957C617.234 12.2207 616.831 11.9957 616.4 12.0004H594.627C594.088 9.94258 592.222 8.40039 590 8.40039ZM590 10.8004C591.303 10.8004 592.33 11.8035 592.386 13.0926C592.381 13.1629 592.381 13.2379 592.386 13.3129C592.33 14.5973 591.303 15.6004 590 15.6004C588.697 15.6004 587.67 14.5973 587.614 13.3082C587.619 13.2379 587.619 13.1629 587.614 13.0879C587.67 11.8035 588.697 10.8004 590 10.8004ZM606.8 25.2004C604.578 25.2004 602.713 26.7426 602.173 28.8004H563.6C563.169 28.7957 562.766 29.0207 562.545 29.3957C562.33 29.7707 562.33 30.2301 562.545 30.6051C562.766 30.9801 563.169 31.2051 563.6 31.2004H602.173C602.713 33.2582 604.578 34.8004 606.8 34.8004C609.022 34.8004 610.888 33.2582 611.427 31.2004H616.4C616.831 31.2051 617.234 30.9801 617.455 30.6051C617.67 30.2301 617.67 29.7707 617.455 29.3957C617.234 29.0207 616.831 28.7957 616.4 28.8004H611.427C610.888 26.7426 609.022 25.2004 606.8 25.2004ZM606.8 27.6004C608.103 27.6004 609.13 28.6035 609.186 29.8926C609.181 29.9629 609.181 30.0379 609.186 30.1129C609.13 31.3973 608.103 32.4004 606.8 32.4004C605.497 32.4004 604.47 31.3973 604.414 30.1082C604.419 30.0379 604.419 29.9629 604.414 29.8879C604.47 28.6035 605.497 27.6004 606.8 27.6004ZM576.8 42.0004C574.578 42.0004 572.713 43.5426 572.173 45.6004H563.6C563.169 45.5957 562.766 45.8207 562.545 46.1957C562.33 46.5707 562.33 47.0301 562.545 47.4051C562.766 47.7801 563.169 48.0051 563.6 48.0004H572.173C572.713 50.0582 574.578 51.6004 576.8 51.6004C579.022 51.6004 580.888 50.0582 581.427 48.0004H616.4C616.831 48.0051 617.234 47.7801 617.455 47.4051C617.67 47.0301 617.67 46.5707 617.455 46.1957C617.234 45.8207 616.831 45.5957 616.4 45.6004H581.427C580.888 43.5426 579.022 42.0004 576.8 42.0004ZM576.8 44.4004C578.103 44.4004 579.13 45.4035 579.186 46.6926C579.181 46.7629 579.181 46.8379 579.186 46.9129C579.13 48.1973 578.103 49.2004 576.8 49.2004C575.497 49.2004 574.47 48.1973 574.414 46.9082C574.419 46.8379 574.419 46.7629 574.414 46.6879C574.47 45.4035 575.497 44.4004 576.8 44.4004Z" fill="#333333"/>
<circle cx="606.82" cy="30.0002" r="3.55" stroke="#F50F66" stroke-width="2.5"/>
<path d="M533.252 7.18419C532.668 7.20984 532.099 7.3725 531.586 7.57794C531.078 7.78201 528.155 9.02981 523.837 10.8756C519.52 12.7214 513.908 15.125 508.345 17.5084C497.219 22.2752 486.286 26.9654 486.286 26.9654L486.366 26.935C486.366 26.935 485.706 27.1556 485.037 27.6217C484.702 27.8548 484.342 28.1557 484.048 28.5944C483.753 29.033 483.538 29.6548 483.619 30.3123C483.904 32.622 486.298 33.2772 486.298 33.2772L486.307 33.2819L496.99 36.9381C497.262 37.8467 500.23 47.7521 500.883 49.8498C501.243 51.0096 501.581 51.6786 501.933 52.135C502.109 52.3634 502.294 52.5401 502.498 52.6694C502.579 52.7207 502.664 52.7592 502.748 52.7936C502.75 52.7944 502.751 52.7928 502.753 52.7936C502.763 52.7982 502.773 52.7986 502.784 52.803L502.755 52.7959C502.775 52.8038 502.794 52.8172 502.814 52.824C502.852 52.8374 502.875 52.8369 502.924 52.8475C504.148 53.2747 505.16 52.4819 505.16 52.4819L505.202 52.449L511.765 46.3623L522.415 54.6662L522.548 54.7272C524.413 55.5549 526.098 55.0931 527.032 54.3334C527.966 53.5737 528.333 52.5944 528.333 52.5944L528.373 52.4912L536.198 11.7029C536.399 10.7904 536.427 10.0016 536.238 9.28888C536.049 8.57612 535.591 7.95652 535.015 7.6131C534.439 7.26968 533.837 7.15855 533.252 7.18419ZM533.316 9.62404C533.553 9.61305 533.729 9.64018 533.784 9.67326C533.84 9.70633 533.865 9.70198 533.918 9.90295C533.971 10.1039 534 10.5272 533.855 11.1897L533.85 11.2037L526.069 51.7553C526.05 51.7961 525.888 52.1712 525.518 52.4725C525.14 52.7798 524.72 53.0197 523.605 52.5522L511.959 43.4701L511.631 43.2123L511.624 43.2194L508.141 40.6061L527.714 17.5787C527.864 17.4022 527.961 17.186 527.991 16.9561C528.021 16.7262 527.984 16.4924 527.884 16.2832C527.784 16.074 527.625 15.8981 527.428 15.777C527.23 15.6559 527.001 15.5946 526.77 15.6006C526.543 15.6065 526.323 15.6764 526.134 15.8022L497.812 34.6834L487.113 31.0201C487.113 31.0201 486.051 30.4289 486 30.017C485.997 29.9942 485.985 30.0148 486.04 29.9326C486.095 29.8504 486.234 29.7117 486.408 29.5904C486.756 29.348 487.153 29.2014 487.153 29.2014L487.193 29.1873L487.233 29.1709C487.233 29.1709 498.167 24.4805 509.292 19.7139C514.855 17.3306 520.466 14.9287 524.782 13.0834C529.097 11.2386 532.215 9.91064 532.479 9.80451C532.779 9.68415 533.078 9.63503 533.316 9.62404ZM520.336 22.5522L505.493 40.0154L505.486 40.0225C505.463 40.0504 505.441 40.0793 505.42 40.1092C505.397 40.1417 505.375 40.1753 505.355 40.21C505.271 40.3515 505.218 40.5087 505.198 40.6717C505.198 40.6748 505.198 40.678 505.198 40.6811L503.264 49.3764C503.232 49.2824 503.209 49.2481 503.175 49.1373V49.135C502.561 47.1616 499.761 37.8199 499.373 36.528L520.336 22.5522ZM507.169 42.8772L509.836 44.8787L505.917 48.5115L507.169 42.8772Z" fill="#333333"/>
<g clip-path="url(#clip0)">
<path d="M168.4 4.7998C166.426 4.7998 164.8 6.42584 164.8 8.3998V13.0943C164.755 13.3133 163.6 18.9589 163.6 22.1998C163.6 23.8542 163.919 25.438 164.795 26.7021C164.797 26.7045 164.798 26.7069 164.8 26.7092V51.5998C164.8 53.5846 166.415 55.1998 168.4 55.1998H192.482L192.667 52.7998H168.4C167.739 52.7998 167.2 52.2622 167.2 51.5998V28.4975C167.753 28.6894 168.356 28.7998 169 28.7998C170.603 28.7998 172.063 28.208 173.2 27.2553C174.337 28.208 175.797 28.7998 177.4 28.7998C179.003 28.7998 180.463 28.208 181.6 27.2553C182.737 28.208 184.197 28.7998 185.8 28.7998C187.449 28.7998 188.85 28.0644 190 27.0631C191.15 28.0644 192.551 28.7998 194.2 28.7998C195.849 28.7998 197.25 28.0648 198.4 27.0631C199.55 28.0648 200.951 28.7998 202.6 28.7998C204.202 28.7998 205.663 28.2095 206.8 27.2576C207.937 28.2095 209.398 28.7998 211 28.7998C211.644 28.7998 212.247 28.6894 212.8 28.4975V32.1865C214.137 33.4765 215.018 35.2366 215.17 37.1998H215.2V26.7092C215.202 26.7069 215.203 26.7045 215.205 26.7021C216.081 25.438 216.4 23.8542 216.4 22.1998C216.4 18.9589 215.245 13.3133 215.2 13.0943V8.3998C215.2 6.42584 213.574 4.7998 211.6 4.7998H168.4ZM168.4 7.1998H211.6C212.278 7.1998 212.8 7.72177 212.8 8.3998V11.9998H198.602C198.472 11.9784 198.34 11.9784 198.21 11.9998H190.202C190.072 11.9784 189.94 11.9784 189.81 11.9998H181.785C181.718 11.9885 181.65 11.9831 181.581 11.9834C181.523 11.9847 181.465 11.9901 181.408 11.9998H167.2V8.3998C167.2 7.72177 167.722 7.1998 168.4 7.1998ZM169.6 8.3998C169.282 8.3998 168.976 8.52623 168.751 8.75128C168.526 8.97632 168.4 9.28154 168.4 9.5998C168.4 9.91806 168.526 10.2233 168.751 10.4483C168.976 10.6734 169.282 10.7998 169.6 10.7998C169.918 10.7998 170.223 10.6734 170.449 10.4483C170.674 10.2233 170.8 9.91806 170.8 9.5998C170.8 9.28154 170.674 8.97632 170.449 8.75128C170.223 8.52623 169.918 8.3998 169.6 8.3998ZM173.2 8.3998C172.882 8.3998 172.576 8.52623 172.351 8.75128C172.126 8.97632 172 9.28154 172 9.5998C172 9.91806 172.126 10.2233 172.351 10.4483C172.576 10.6734 172.882 10.7998 173.2 10.7998C173.518 10.7998 173.823 10.6734 174.049 10.4483C174.274 10.2233 174.4 9.91806 174.4 9.5998C174.4 9.28154 174.274 8.97632 174.049 8.75128C173.823 8.52623 173.518 8.3998 173.2 8.3998ZM176.8 8.3998C176.482 8.3998 176.176 8.52623 175.951 8.75128C175.726 8.97632 175.6 9.28154 175.6 9.5998C175.6 9.91806 175.726 10.2233 175.951 10.4483C176.176 10.6734 176.482 10.7998 176.8 10.7998C177.118 10.7998 177.423 10.6734 177.649 10.4483C177.874 10.2233 178 9.91806 178 9.5998C178 9.28154 177.874 8.97632 177.649 8.75128C177.423 8.52623 177.118 8.3998 176.8 8.3998ZM167.048 14.3998H172V25.0709C171.233 25.8794 170.194 26.3998 169 26.3998C167.833 26.3998 167.247 26.0238 166.769 25.3334C166.29 24.643 166 23.5274 166 22.1998C166 19.8327 166.842 15.4935 167.048 14.3998ZM174.4 14.3998H180.4V25.0709C179.633 25.8794 178.594 26.3998 177.4 26.3998C176.206 26.3998 175.167 25.8794 174.4 25.0709V14.3998ZM182.8 14.3998H188.8V25.0193C188.031 25.8416 187.006 26.3998 185.8 26.3998C184.594 26.3998 183.569 25.8416 182.8 25.0193V14.3998ZM191.2 14.3998H197.2V25.0193C196.432 25.8409 195.406 26.3998 194.2 26.3998C192.994 26.3998 191.969 25.8416 191.2 25.0193V14.3998ZM199.6 14.3998H205.6V25.0193C204.832 25.8409 203.806 26.3998 202.6 26.3998C201.394 26.3998 200.368 25.8409 199.6 25.0193V14.3998ZM208 14.3998H212.952C213.158 15.4935 214 19.8327 214 22.1998C214 23.5274 213.71 24.643 213.231 25.3334C212.753 26.0238 212.167 26.3998 211 26.3998C209.806 26.3998 208.766 25.8789 208 25.0709V14.3998ZM207.4 32.3998C204.432 32.3998 202 34.8317 202 37.7998V39.5998H196.089L196.005 40.7084L194.8 56.3529V56.3998C194.8 58.3738 196.426 59.9998 198.4 59.9998H216.4C218.374 59.9998 220 58.3738 220 56.3998V56.3529L218.711 39.5998H212.8V37.7998C212.8 34.8317 210.368 32.3998 207.4 32.3998ZM207.4 34.7998C209.071 34.7998 210.4 36.1287 210.4 37.7998V39.5998H204.4V37.7998C204.4 36.1287 205.729 34.7998 207.4 34.7998ZM198.311 41.9998H216.489L217.598 56.4045C217.595 57.0797 217.076 57.5998 216.4 57.5998H198.4C197.724 57.5998 197.205 57.0797 197.202 56.4045L198.311 41.9998Z" fill="#333333"/>
<circle cx="169.6" cy="9.65039" r="1.25" fill="#F50F66"/>
<circle cx="173.2" cy="9.65039" r="1.25" fill="#F50F66"/>
<circle cx="176.8" cy="9.65039" r="1.25" fill="#F50F66"/>
</g>
<path d="M29.9555 1.26852C29.7036 1.2772 29.4609 1.36494 29.2617 1.5193L1.66174 23.056C1.41062 23.2518 1.24756 23.5394 1.20844 23.8554C1.16932 24.1714 1.25735 24.49 1.45315 24.7412C1.64895 24.9923 1.9365 25.1554 2.25253 25.1945C2.56855 25.2336 2.88718 25.1456 3.13831 24.9498L4.80002 23.6537V55.2029C4.80006 55.5211 4.92649 55.8264 5.15153 56.0514C5.37657 56.2764 5.68177 56.4029 6.00002 56.4029H22.5985C22.728 56.4243 22.8603 56.4243 22.9899 56.4029H36.9985C37.128 56.4243 37.2603 56.4243 37.3899 56.4029H54C54.3183 56.4029 54.6235 56.2764 54.8485 56.0514C55.0735 55.8264 55.2 55.5211 55.2 55.2029V23.6537L56.8617 24.9498C56.9861 25.0467 57.1283 25.1183 57.2803 25.1603C57.4323 25.2022 57.591 25.2139 57.7475 25.1945C57.904 25.1752 58.0552 25.1252 58.1923 25.0474C58.3295 24.9696 58.45 24.8656 58.547 24.7412C58.6439 24.6169 58.7154 24.4746 58.7574 24.3227C58.7994 24.1707 58.811 24.0119 58.7917 23.8554C58.7723 23.6989 58.7223 23.5478 58.6445 23.4106C58.5667 23.2735 58.4627 23.153 58.3383 23.056L49.2 15.9263V7.20289H42V10.306L30.7383 1.5193C30.515 1.34616 30.2378 1.25735 29.9555 1.26852ZM30 3.98961L52.8 21.781V54.0029H38.4V31.2029H21.6V54.0029H7.20002V21.781L30 3.98961ZM44.4 9.60289H46.8V14.0537L44.4 12.1787V9.60289ZM24 33.6029H36V54.0029H24V33.6029Z" fill="#333333"/>
<path d="M22.75 54.0018V32.3018H37.25V54.0018" stroke="#F50F66" stroke-width="2.5"/>
<path d="M404.179 19.1157L404.179 19.1155C404.128 18.5552 404.195 17.9904 404.374 17.4573C404.554 16.9242 404.843 16.4343 405.222 16.019C405.602 15.6037 406.064 15.272 406.579 15.0451C407.093 14.8181 407.65 14.7009 408.212 14.701C408.212 14.701 408.213 14.701 408.213 14.701H436.855H451.787H451.788C452.35 14.7015 452.906 14.8191 453.42 15.0463C453.935 15.2735 454.396 15.6052 454.775 16.0205C455.154 16.4358 455.443 16.9254 455.622 17.4583C455.802 17.9911 455.868 18.5555 455.818 19.1155L455.817 19.1157L455.01 27.9796C454.926 28.9039 455.654 29.701 456.582 29.701C457.398 29.701 458.08 29.0784 458.154 28.2655L458.959 19.4026L459.257 19.4297L458.959 19.4026C459.049 18.4062 458.931 17.4018 458.612 16.4536C458.293 15.5054 457.779 14.6341 457.105 13.8954C456.43 13.1566 455.609 12.5666 454.693 12.1629C453.778 11.7593 452.788 11.5509 451.787 11.551H436.855H436.855C434.786 11.5505 432.803 10.7285 431.34 9.26558L428.235 6.16061L428.235 6.16058C426.885 4.81024 425.054 4.0514 423.145 4.05098C423.145 4.05098 423.145 4.05098 423.145 4.05098H409.375C407.465 4.05098 405.634 4.80955 404.284 6.15981C402.935 7.50846 402.177 9.33706 402.175 11.2442L402.278 13.4964C402.312 14.2201 402.087 14.9093 401.779 15.519C401.177 16.7128 400.918 18.0579 401.041 19.4022L401.041 19.4025L403.43 45.6525L403.43 45.6526C403.593 47.4415 404.418 49.105 405.744 50.3166C407.07 51.5281 408.801 52.2002 410.597 52.201C410.598 52.201 410.598 52.201 410.598 52.201H431.875C432.745 52.201 433.45 51.4958 433.45 50.626C433.45 49.7561 432.745 49.051 431.875 49.051H410.597H410.597C409.587 49.05 408.613 48.6714 407.868 47.9896C407.122 47.3077 406.658 46.3719 406.567 45.3657L404.179 19.1157ZM404.179 19.1157L406.567 45.3655L404.179 19.1157ZM405.325 11.17L405.325 11.1794L405.325 11.1888C405.345 11.6577 405.808 11.9478 406.23 11.8271C406.86 11.6467 407.525 11.551 408.212 11.551H426.574C427.533 11.551 428.013 10.3904 427.334 9.71292L426.034 8.41696C426.026 8.40637 426.017 8.39609 426.007 8.38619C425.248 7.62752 424.218 7.20121 423.145 7.20098H423.145H409.375C409.375 7.20098 409.375 7.20098 409.375 7.20098C408.315 7.20078 407.297 7.61634 406.54 8.35841C405.782 9.10051 405.346 10.11 405.325 11.17ZM426.006 8.38861C426.006 8.38877 426.006 8.38894 426.006 8.3891L426.006 8.38862L425.794 8.6005L426.006 8.38861ZM425.794 8.29973C425.731 8.29973 425.674 8.3181 425.628 8.34867C425.674 8.31812 425.73 8.29973 425.794 8.29973Z" fill="#333333" stroke="white" stroke-width="0.6"/>
<mask id="path-18-inside-1" fill="white">
<path fill-rule="evenodd" clip-rule="evenodd" d="M451.951 38.0501C451.599 37.6985 451.122 37.501 450.625 37.501C450.128 37.501 449.651 37.6985 449.299 38.0501C448.947 38.4018 448.75 38.8787 448.75 39.376V45.001H443.125C442.628 45.001 442.151 45.1985 441.799 45.5501C441.447 45.9018 441.25 46.3787 441.25 46.876C441.25 47.3733 441.447 47.8502 441.799 48.2018C442.151 48.5534 442.628 48.751 443.125 48.751H448.75V54.376C448.75 54.8733 448.947 55.3502 449.299 55.7018C449.651 56.0534 450.128 56.251 450.625 56.251C451.122 56.251 451.599 56.0534 451.951 55.7018C452.302 55.3502 452.5 54.8733 452.5 54.376V48.751H458.125C458.622 48.751 459.099 48.5534 459.451 48.2018C459.802 47.8502 460 47.3733 460 46.876C460 46.3787 459.802 45.9018 459.451 45.5501C459.099 45.1985 458.622 45.001 458.125 45.001H452.5V39.376C452.5 38.8787 452.302 38.4018 451.951 38.0501Z"/>
</mask>
<path fill-rule="evenodd" clip-rule="evenodd" d="M451.951 38.0501C451.599 37.6985 451.122 37.501 450.625 37.501C450.128 37.501 449.651 37.6985 449.299 38.0501C448.947 38.4018 448.75 38.8787 448.75 39.376V45.001H443.125C442.628 45.001 442.151 45.1985 441.799 45.5501C441.447 45.9018 441.25 46.3787 441.25 46.876C441.25 47.3733 441.447 47.8502 441.799 48.2018C442.151 48.5534 442.628 48.751 443.125 48.751H448.75V54.376C448.75 54.8733 448.947 55.3502 449.299 55.7018C449.651 56.0534 450.128 56.251 450.625 56.251C451.122 56.251 451.599 56.0534 451.951 55.7018C452.302 55.3502 452.5 54.8733 452.5 54.376V48.751H458.125C458.622 48.751 459.099 48.5534 459.451 48.2018C459.802 47.8502 460 47.3733 460 46.876C460 46.3787 459.802 45.9018 459.451 45.5501C459.099 45.1985 458.622 45.001 458.125 45.001H452.5V39.376C452.5 38.8787 452.302 38.4018 451.951 38.0501Z" fill="#333333"/>
<path d="M451.951 38.0501L451.526 38.4744L451.951 38.0501ZM449.299 38.0501L448.875 37.6259V37.6259L449.299 38.0501ZM448.75 45.001V45.601H449.35V45.001H448.75ZM441.799 45.5501L441.375 45.1259H441.375L441.799 45.5501ZM441.799 48.2018L442.223 47.7775L441.799 48.2018ZM448.75 48.751H449.35V48.151H448.75V48.751ZM449.299 55.7018L449.723 55.2775H449.723L449.299 55.7018ZM451.951 55.7018L452.375 56.1261L452.375 56.1261L451.951 55.7018ZM452.5 48.751V48.151H451.9V48.751H452.5ZM459.451 45.5501L459.875 45.1259L459.875 45.1259L459.451 45.5501ZM452.5 45.001H451.9V45.601H452.5V45.001ZM450.625 38.101C450.963 38.101 451.287 38.2353 451.526 38.4744L452.375 37.6259C451.911 37.1617 451.281 36.901 450.625 36.901V38.101ZM449.723 38.4744C449.962 38.2353 450.287 38.101 450.625 38.101V36.901C449.969 36.901 449.339 37.1617 448.875 37.6259L449.723 38.4744ZM449.35 39.376C449.35 39.0378 449.484 38.7135 449.723 38.4744L448.875 37.6259C448.411 38.09 448.15 38.7196 448.15 39.376H449.35ZM449.35 45.001V39.376H448.15V45.001H449.35ZM443.125 45.601H448.75V44.401H443.125V45.601ZM442.223 45.9744C442.462 45.7353 442.787 45.601 443.125 45.601V44.401C442.469 44.401 441.839 44.6617 441.375 45.1259L442.223 45.9744ZM441.85 46.876C441.85 46.5378 441.984 46.2135 442.223 45.9744L441.375 45.1259C440.911 45.59 440.65 46.2196 440.65 46.876H441.85ZM442.223 47.7775C441.984 47.5384 441.85 47.2141 441.85 46.876H440.65C440.65 47.5324 440.911 48.1619 441.375 48.6261L442.223 47.7775ZM443.125 48.151C442.787 48.151 442.462 48.0166 442.223 47.7775L441.375 48.6261C441.839 49.0902 442.469 49.351 443.125 49.351V48.151ZM448.75 48.151H443.125V49.351H448.75V48.151ZM449.35 54.376V48.751H448.15V54.376H449.35ZM449.723 55.2775C449.484 55.0384 449.35 54.7141 449.35 54.376H448.15C448.15 55.0324 448.411 55.6619 448.875 56.1261L449.723 55.2775ZM450.625 55.651C450.287 55.651 449.962 55.5166 449.723 55.2775L448.875 56.1261C449.339 56.5902 449.969 56.851 450.625 56.851V55.651ZM451.526 55.2775C451.287 55.5166 450.963 55.651 450.625 55.651V56.851C451.281 56.851 451.911 56.5902 452.375 56.1261L451.526 55.2775ZM451.9 54.376C451.9 54.7141 451.766 55.0384 451.526 55.2775L452.375 56.1261C452.839 55.6619 453.1 55.0324 453.1 54.376H451.9ZM451.9 48.751V54.376H453.1V48.751H451.9ZM458.125 48.151H452.5V49.351H458.125V48.151ZM459.026 47.7775C458.787 48.0166 458.463 48.151 458.125 48.151V49.351C458.781 49.351 459.411 49.0902 459.875 48.6261L459.026 47.7775ZM459.4 46.876C459.4 47.2141 459.266 47.5384 459.026 47.7775L459.875 48.6261C460.339 48.1619 460.6 47.5324 460.6 46.876H459.4ZM459.026 45.9744C459.266 46.2135 459.4 46.5378 459.4 46.876H460.6C460.6 46.2196 460.339 45.59 459.875 45.1259L459.026 45.9744ZM458.125 45.601C458.463 45.601 458.787 45.7353 459.026 45.9744L459.875 45.1259C459.411 44.6617 458.781 44.401 458.125 44.401V45.601ZM452.5 45.601H458.125V44.401H452.5V45.601ZM451.9 39.376V45.001H453.1V39.376H451.9ZM451.526 38.4744C451.766 38.7135 451.9 39.0378 451.9 39.376H453.1C453.1 38.7196 452.839 38.09 452.375 37.6259L451.526 38.4744Z" fill="white" mask="url(#path-18-inside-1)"/>
<line x1="450.625" y1="39.276" x2="450.625" y2="54.726" stroke="#F50F66" stroke-width="2.55" stroke-linecap="round"/>
<line x1="442.775" y1="46.8764" x2="458.225" y2="46.8764" stroke="#F50F66" stroke-width="2.55" stroke-linecap="round"/>
<path d="M830 2.40039C814.771 2.40039 802.4 14.7715 802.4 30.0004C802.4 45.2292 814.771 57.6004 830 57.6004C845.229 57.6004 857.6 45.2292 857.6 30.0004C857.6 14.7715 845.229 2.40039 830 2.40039ZM830 4.80039C843.932 4.80039 855.2 16.0686 855.2 30.0004C855.2 43.9322 843.932 55.2004 830 55.2004C816.068 55.2004 804.8 43.9322 804.8 30.0004C804.8 16.0686 816.068 4.80039 830 4.80039ZM829.981 20.384C829.663 20.389 829.361 20.5198 829.139 20.7479C828.918 20.9759 828.796 21.2825 828.8 21.6004V28.8004H821.6C821.441 28.7981 821.283 28.8275 821.136 28.8868C820.988 28.9461 820.854 29.0341 820.74 29.1458C820.627 29.2574 820.537 29.3905 820.476 29.5372C820.415 29.6839 820.383 29.8414 820.383 30.0004C820.383 30.1594 820.415 30.3169 820.476 30.4636C820.537 30.6103 820.627 30.7433 820.74 30.855C820.854 30.9666 820.988 31.0547 821.136 31.114C821.283 31.1733 821.441 31.2026 821.6 31.2004H828.8V38.4004C828.798 38.5594 828.827 38.7173 828.886 38.8648C828.946 39.0124 829.034 39.1467 829.145 39.2599C829.257 39.3732 829.39 39.4631 829.537 39.5245C829.684 39.5859 829.841 39.6175 830 39.6175C830.159 39.6175 830.316 39.5859 830.463 39.5245C830.61 39.4631 830.743 39.3732 830.855 39.2599C830.966 39.1467 831.054 39.0124 831.114 38.8648C831.173 38.7173 831.202 38.5594 831.2 38.4004V31.2004H838.4C838.559 31.2026 838.717 31.1733 838.864 31.114C839.012 31.0547 839.146 30.9666 839.26 30.855C839.373 30.7433 839.463 30.6103 839.524 30.4636C839.586 30.3169 839.617 30.1594 839.617 30.0004C839.617 29.8414 839.586 29.6839 839.524 29.5372C839.463 29.3905 839.373 29.2574 839.26 29.1458C839.146 29.0341 839.012 28.9461 838.864 28.8868C838.717 28.8275 838.559 28.7981 838.4 28.8004H831.2V21.6004C831.202 21.4398 831.172 21.2805 831.112 21.1318C831.051 20.983 830.961 20.8479 830.848 20.7345C830.734 20.6211 830.599 20.5316 830.45 20.4714C830.301 20.4112 830.142 20.3815 829.981 20.384Z" fill="#333333"/>
<line x1="830.05" y1="21.25" x2="830.05" y2="38.75" stroke="#F50F66" stroke-width="2.5" stroke-linecap="round"/>
<line x1="821.25" y1="29.9502" x2="838.75" y2="29.9502" stroke="#F50F66" stroke-width="2.5" stroke-linecap="round"/>
<defs>
<clipPath id="clip0">
<rect width="60" height="60" fill="white" transform="translate(160)"/>
</clipPath>
</defs>
</svg>
