<svg width="57" height="92" viewBox="0 0 57 92" fill="none" xmlns="http://www.w3.org/2000/svg">
<path d="M54.0515 29.6042C57.3458 37.8332 57.8972 46.9039 55.6172 55.3594C54.6667 58.8849 53.5171 62.3448 52.1739 65.722C50.8189 69.3942 49.2743 72.9846 47.5468 76.4781C45.4223 80.78 42.1825 84.3669 38.1811 86.8475C36.8264 87.6803 35.6231 88.7619 34.2053 89.5602C30.2184 91.9715 25.4332 92.6276 20.8965 91.3848C14.9323 89.7725 10.7031 85.9111 7.50298 80.6106C6.05574 78.2237 4.87474 75.6791 3.98295 73.0268C1.50877 65.8197 0.170945 58.2727 0.0224396 50.6795C-0.186075 41.0662 1.05947 31.5138 3.71392 22.369C5.30211 17.0105 7.40263 11.8786 10.6804 7.36952C12.2776 5.0495 14.3676 3.1436 16.7954 1.79298C19.7655 0.22707 23.1547 -0.332764 26.4937 0.190955C30.5797 0.771714 33.9517 2.87883 37.1224 5.50884C41.381 9.16185 45.0793 13.4658 48.0843 18.266C50.461 21.8192 52.4619 25.6212 54.0515 29.6042Z" fill="url(#paint0_linear)" fill-opacity="0.7"/>
<path d="M35.8333 53.5831C35.5802 53.5836 35.3349 53.4954 35.14 53.3339C35.0303 53.243 34.9396 53.1313 34.8732 53.0053C34.8067 52.8792 34.7658 52.7413 34.7527 52.5994C34.7396 52.4575 34.7546 52.3144 34.7969 52.1784C34.8392 52.0423 34.908 51.9159 34.9992 51.8064L39.8525 45.9998L35.1725 40.1823C35.0825 40.0715 35.0153 39.944 34.9748 39.8071C34.9342 39.6702 34.9211 39.5267 34.9362 39.3847C34.9513 39.2428 34.9943 39.1052 35.0628 38.98C35.1312 38.8547 35.2237 38.7442 35.335 38.6548C35.4471 38.5561 35.5784 38.4818 35.7206 38.4363C35.8628 38.3908 36.0128 38.3752 36.1614 38.3904C36.3099 38.4057 36.4536 38.4515 36.5836 38.5249C36.7136 38.5984 36.827 38.6979 36.9167 38.8173L42.1492 45.3173C42.3085 45.5111 42.3956 45.7543 42.3956 46.0052C42.3956 46.2561 42.3085 46.4993 42.1492 46.6931L36.7325 53.1931C36.6238 53.3242 36.4858 53.4278 36.3296 53.4956C36.1733 53.5634 36.0033 53.5933 35.8333 53.5831Z" fill="white"/>
<defs>
<linearGradient id="paint0_linear" x1="-4.89301e-07" y1="46" x2="57" y2="46.0469" gradientUnits="userSpaceOnUse">
<stop stop-color="#FF69A2"/>
<stop offset="1" stop-color="#FF0060"/>
</linearGradient>
</defs>
</svg>
