<svg width="57" height="92" viewBox="0 0 57 92" fill="none" xmlns="http://www.w3.org/2000/svg">
<path d="M2.94849 29.6042C-0.345778 37.8332 -0.897186 46.9039 1.38284 55.3594C2.33326 58.8849 3.48294 62.3448 4.82605 65.722C6.18112 69.3942 7.72566 72.9846 9.4532 76.4781C11.5777 80.78 14.8175 84.3669 18.8189 86.8475C20.1736 87.6803 21.3769 88.7619 22.7947 89.5602C26.7816 91.9715 31.5668 92.6276 36.1035 91.3848C42.0677 89.7725 46.2969 85.9111 49.497 80.6106C50.9443 78.2237 52.1253 75.6791 53.0171 73.0268C55.4912 65.8197 56.8291 58.2727 56.9776 50.6795C57.1861 41.0662 55.9405 31.5138 53.2861 22.369C51.6979 17.0105 49.5974 11.8786 46.3196 7.36952C44.7224 5.0495 42.6324 3.1436 40.2046 1.79298C37.2345 0.22707 33.8453 -0.332764 30.5063 0.190955C26.4203 0.771714 23.0483 2.87883 19.8776 5.50884C15.619 9.16185 11.9207 13.4658 8.9157 18.266C6.53897 21.8192 4.53806 25.6212 2.94849 29.6042Z" fill="url(#paint0_linear)" fill-opacity="0.7"/>
<path d="M21.1667 53.5831C21.4198 53.5836 21.6651 53.4954 21.86 53.3339C21.9697 53.243 22.0604 53.1313 22.1269 53.0053C22.1933 52.8792 22.2343 52.7413 22.2473 52.5994C22.2604 52.4575 22.2454 52.3144 22.2031 52.1784C22.1608 52.0423 22.0921 51.9159 22.0008 51.8064L17.1475 45.9998L21.8275 40.1823C21.9175 40.0715 21.9847 39.944 22.0253 39.8071C22.0658 39.6702 22.0789 39.5267 22.0638 39.3847C22.0487 39.2428 22.0057 39.1052 21.9373 38.98C21.8688 38.8547 21.7763 38.7442 21.665 38.6548C21.5529 38.5561 21.4217 38.4818 21.2795 38.4363C21.1373 38.3908 20.9872 38.3752 20.8387 38.3904C20.6902 38.4057 20.5464 38.4515 20.4164 38.5249C20.2864 38.5984 20.173 38.6979 20.0833 38.8173L14.8509 45.3173C14.6915 45.5111 14.6044 45.7543 14.6044 46.0052C14.6044 46.2561 14.6915 46.4993 14.8509 46.6931L20.2675 53.1931C20.3762 53.3242 20.5142 53.4278 20.6705 53.4956C20.8267 53.5634 20.9967 53.5933 21.1667 53.5831Z" fill="white"/>
<defs>
<linearGradient id="paint0_linear" x1="57" y1="46" x2="3.60403e-05" y2="46.0469" gradientUnits="userSpaceOnUse">
<stop stop-color="#FF69A2"/>
<stop offset="1" stop-color="#FF0060"/>
</linearGradient>
</defs>
</svg>
