<svg width="251" height="27" viewBox="0 0 251 27" fill="none" xmlns="http://www.w3.org/2000/svg">
<path d="M28.486 11.036C28.486 12.116 28.132 12.986 27.424 13.646C26.716 14.306 25.654 14.636 24.238 14.636H21.7V20H20.44V7.418H24.238C25.642 7.418 26.698 7.748 27.406 8.408C28.126 9.068 28.486 9.944 28.486 11.036ZM24.238 13.556C26.206 13.556 27.19 12.716 27.19 11.036C27.19 10.196 26.956 9.56 26.488 9.128C26.02 8.696 25.27 8.48 24.238 8.48H21.7V13.556H24.238ZM39.7422 14.582C39.7422 15.014 39.7302 15.344 39.7062 15.572H31.5522C31.5882 16.316 31.7682 16.952 32.0922 17.48C32.4162 18.008 32.8422 18.41 33.3702 18.686C33.8982 18.95 34.4742 19.082 35.0982 19.082C35.9142 19.082 36.5982 18.884 37.1502 18.488C37.7142 18.092 38.0862 17.558 38.2662 16.886H39.5982C39.3582 17.846 38.8422 18.632 38.0502 19.244C37.2702 19.844 36.2862 20.144 35.0982 20.144C34.1742 20.144 33.3462 19.94 32.6142 19.532C31.8822 19.112 31.3062 18.524 30.8862 17.768C30.4782 17 30.2742 16.106 30.2742 15.086C30.2742 14.066 30.4782 13.172 30.8862 12.404C31.2942 11.636 31.8642 11.048 32.5962 10.64C33.3282 10.232 34.1622 10.028 35.0982 10.028C36.0342 10.028 36.8502 10.232 37.5462 10.64C38.2542 11.048 38.7942 11.6 39.1662 12.296C39.5502 12.98 39.7422 13.742 39.7422 14.582ZM38.4642 14.546C38.4762 13.814 38.3262 13.19 38.0142 12.674C37.7142 12.158 37.3002 11.768 36.7722 11.504C36.2442 11.24 35.6682 11.108 35.0442 11.108C34.1082 11.108 33.3102 11.408 32.6502 12.008C31.9902 12.608 31.6242 13.454 31.5522 14.546H38.4642ZM43.5574 11.918C43.8334 11.306 44.2534 10.832 44.8174 10.496C45.3934 10.16 46.0954 9.992 46.9234 9.992V11.306H46.5814C45.6694 11.306 44.9374 11.552 44.3854 12.044C43.8334 12.536 43.5574 13.358 43.5574 14.51V20H42.2974V10.172H43.5574V11.918ZM52.4529 20.144C51.3249 20.144 50.4009 19.886 49.6809 19.37C48.9729 18.842 48.5769 18.128 48.4929 17.228H49.7889C49.8489 17.78 50.1069 18.23 50.5629 18.578C51.0309 18.914 51.6549 19.082 52.4349 19.082C53.1189 19.082 53.6529 18.92 54.0369 18.596C54.4329 18.272 54.6309 17.87 54.6309 17.39C54.6309 17.054 54.5229 16.778 54.3069 16.562C54.0909 16.346 53.8149 16.178 53.4789 16.058C53.1549 15.926 52.7109 15.788 52.1469 15.644C51.4149 15.452 50.8209 15.26 50.3649 15.068C49.9089 14.876 49.5189 14.594 49.1949 14.222C48.8829 13.838 48.7269 13.328 48.7269 12.692C48.7269 12.212 48.8709 11.768 49.1589 11.36C49.4469 10.952 49.8549 10.628 50.3829 10.388C50.9109 10.148 51.5109 10.028 52.1829 10.028C53.2389 10.028 54.0909 10.298 54.7389 10.838C55.3869 11.366 55.7349 12.098 55.7829 13.034H54.5229C54.4869 12.458 54.2589 11.996 53.8389 11.648C53.4309 11.288 52.8669 11.108 52.1469 11.108C51.5109 11.108 50.9949 11.258 50.5989 11.558C50.2029 11.858 50.0049 12.23 50.0049 12.674C50.0049 13.058 50.1189 13.376 50.3469 13.628C50.5869 13.868 50.8809 14.06 51.2289 14.204C51.5769 14.336 52.0449 14.486 52.6329 14.654C53.3409 14.846 53.9049 15.032 54.3249 15.212C54.7449 15.392 55.1049 15.656 55.4049 16.004C55.7049 16.352 55.8609 16.814 55.8729 17.39C55.8729 17.918 55.7289 18.392 55.4409 18.812C55.1529 19.22 54.7509 19.544 54.2349 19.784C53.7189 20.024 53.1249 20.144 52.4529 20.144ZM62.7967 20.144C61.8727 20.144 61.0387 19.94 60.2947 19.532C59.5627 19.112 58.9807 18.524 58.5487 17.768C58.1287 17 57.9187 16.106 57.9187 15.086C57.9187 14.066 58.1347 13.178 58.5667 12.422C58.9987 11.654 59.5867 11.066 60.3307 10.658C61.0747 10.238 61.9087 10.028 62.8327 10.028C63.7567 10.028 64.5907 10.238 65.3347 10.658C66.0907 11.066 66.6787 11.654 67.0987 12.422C67.5307 13.178 67.7467 14.066 67.7467 15.086C67.7467 16.094 67.5307 16.982 67.0987 17.75C66.6667 18.518 66.0727 19.112 65.3167 19.532C64.5607 19.94 63.7207 20.144 62.7967 20.144ZM62.7967 19.046C63.4447 19.046 64.0447 18.902 64.5967 18.614C65.1487 18.314 65.5927 17.87 65.9287 17.282C66.2767 16.682 66.4507 15.95 66.4507 15.086C66.4507 14.222 66.2827 13.496 65.9467 12.908C65.6107 12.308 65.1667 11.864 64.6147 11.576C64.0627 11.276 63.4627 11.126 62.8147 11.126C62.1667 11.126 61.5667 11.276 61.0147 11.576C60.4627 11.864 60.0187 12.308 59.6827 12.908C59.3587 13.496 59.1967 14.222 59.1967 15.086C59.1967 15.95 59.3587 16.682 59.6827 17.282C60.0187 17.87 60.4567 18.314 60.9967 18.614C61.5487 18.902 62.1487 19.046 62.7967 19.046ZM74.9015 9.992C76.0775 9.992 77.0375 10.358 77.7815 11.09C78.5255 11.81 78.8975 12.86 78.8975 14.24V20H77.6555V14.384C77.6555 13.316 77.3855 12.5 76.8455 11.936C76.3175 11.372 75.5915 11.09 74.6675 11.09C73.7195 11.09 72.9635 11.39 72.3995 11.99C71.8355 12.59 71.5535 13.472 71.5535 14.636V20H70.2935V10.172H71.5535V11.846C71.8655 11.246 72.3155 10.79 72.9035 10.478C73.4915 10.154 74.1575 9.992 74.9015 9.992ZM81.3581 15.068C81.3581 14.06 81.5561 13.178 81.9521 12.422C82.3601 11.654 82.9181 11.066 83.6261 10.658C84.3461 10.238 85.1561 10.028 86.0561 10.028C86.9921 10.028 87.7961 10.244 88.4681 10.676C89.1521 11.108 89.6441 11.66 89.9441 12.332V10.172H91.2041V20H89.9441V17.822C89.6321 18.494 89.1341 19.052 88.4501 19.496C87.7781 19.928 86.9741 20.144 86.0381 20.144C85.1501 20.144 84.3461 19.934 83.6261 19.514C82.9181 19.094 82.3601 18.5 81.9521 17.732C81.5561 16.964 81.3581 16.076 81.3581 15.068ZM89.9441 15.086C89.9441 14.294 89.7821 13.598 89.4581 12.998C89.1341 12.398 88.6901 11.936 88.1261 11.612C87.5741 11.288 86.9621 11.126 86.2901 11.126C85.5941 11.126 84.9701 11.282 84.4181 11.594C83.8661 11.906 83.4281 12.362 83.1041 12.962C82.7921 13.55 82.6361 14.252 82.6361 15.068C82.6361 15.872 82.7921 16.58 83.1041 17.192C83.4281 17.792 83.8661 18.254 84.4181 18.578C84.9701 18.89 85.5941 19.046 86.2901 19.046C86.9621 19.046 87.5741 18.884 88.1261 18.56C88.6901 18.236 89.1341 17.774 89.4581 17.174C89.7821 16.574 89.9441 15.878 89.9441 15.086ZM99.2501 13.43C99.2501 11.366 99.5681 9.764 100.204 8.624C100.84 7.484 101.98 6.914 103.624 6.914C105.268 6.914 106.408 7.484 107.044 8.624C107.68 9.764 107.998 11.366 107.998 13.43C107.998 15.53 107.68 17.156 107.044 18.308C106.408 19.46 105.268 20.036 103.624 20.036C101.968 20.036 100.822 19.46 100.186 18.308C99.5621 17.156 99.2501 15.53 99.2501 13.43ZM106.756 13.43C106.756 12.314 106.678 11.372 106.522 10.604C106.366 9.836 106.06 9.218 105.604 8.75C105.148 8.282 104.488 8.048 103.624 8.048C102.76 8.048 102.1 8.282 101.644 8.75C101.188 9.218 100.882 9.836 100.726 10.604C100.57 11.372 100.492 12.314 100.492 13.43C100.492 14.582 100.57 15.548 100.726 16.328C100.882 17.096 101.188 17.714 101.644 18.182C102.1 18.65 102.76 18.884 103.624 18.884C104.488 18.884 105.148 18.65 105.604 18.182C106.06 17.714 106.366 17.096 106.522 16.328C106.678 15.548 106.756 14.582 106.756 13.43ZM110.34 19.01C112.548 17.354 114.252 15.872 115.452 14.564C116.664 13.244 117.27 11.954 117.27 10.694C117.27 9.866 117.06 9.206 116.64 8.714C116.232 8.21 115.56 7.958 114.624 7.958C113.712 7.958 113.004 8.246 112.5 8.822C112.008 9.386 111.732 10.142 111.672 11.09H110.448C110.52 9.758 110.928 8.726 111.672 7.994C112.428 7.25 113.412 6.878 114.624 6.878C115.788 6.878 116.73 7.208 117.45 7.868C118.17 8.516 118.53 9.44 118.53 10.64C118.53 12.092 117.924 13.502 116.712 14.87C115.512 16.226 114.03 17.552 112.266 18.848H118.926V19.91H110.34V19.01ZM128.15 21.8H126.89V5.78H128.15V21.8ZM137.995 18.974H142.513V20H136.735V7.418H137.995V18.974ZM145.191 8.318C144.939 8.318 144.723 8.228 144.543 8.048C144.363 7.868 144.273 7.646 144.273 7.382C144.273 7.118 144.363 6.902 144.543 6.734C144.723 6.554 144.939 6.464 145.191 6.464C145.443 6.464 145.659 6.554 145.839 6.734C146.019 6.902 146.109 7.118 146.109 7.382C146.109 7.646 146.019 7.868 145.839 8.048C145.659 8.228 145.443 8.318 145.191 8.318ZM145.821 10.172V20H144.561V10.172H145.821ZM149.59 18.956H154.738V20H148.15V18.956L153.208 11.216H148.24V10.172H154.648V11.216L149.59 18.956ZM156.544 15.068C156.544 14.06 156.742 13.178 157.138 12.422C157.546 11.654 158.104 11.066 158.812 10.658C159.532 10.238 160.342 10.028 161.242 10.028C162.178 10.028 162.982 10.244 163.654 10.676C164.338 11.108 164.83 11.66 165.13 12.332V10.172H166.39V20H165.13V17.822C164.818 18.494 164.32 19.052 163.636 19.496C162.964 19.928 162.16 20.144 161.224 20.144C160.336 20.144 159.532 19.934 158.812 19.514C158.104 19.094 157.546 18.5 157.138 17.732C156.742 16.964 156.544 16.076 156.544 15.068ZM165.13 15.086C165.13 14.294 164.968 13.598 164.644 12.998C164.32 12.398 163.876 11.936 163.312 11.612C162.76 11.288 162.148 11.126 161.476 11.126C160.78 11.126 160.156 11.282 159.604 11.594C159.052 11.906 158.614 12.362 158.29 12.962C157.978 13.55 157.822 14.252 157.822 15.068C157.822 15.872 157.978 16.58 158.29 17.192C158.614 17.792 159.052 18.254 159.604 18.578C160.156 18.89 160.78 19.046 161.476 19.046C162.148 19.046 162.76 18.884 163.312 18.56C163.876 18.236 164.32 17.774 164.644 17.174C164.968 16.574 165.13 15.878 165.13 15.086ZM180.52 7.418V16.94C180.52 17.9 180.226 18.674 179.638 19.262C179.05 19.838 178.264 20.126 177.28 20.126C176.26 20.126 175.444 19.82 174.832 19.208C174.232 18.584 173.932 17.744 173.932 16.688H175.21C175.222 17.372 175.39 17.93 175.714 18.362C176.05 18.794 176.572 19.01 177.28 19.01C177.952 19.01 178.45 18.812 178.774 18.416C179.098 18.02 179.26 17.528 179.26 16.94V7.418H180.52ZM188.24 20.144C187.316 20.144 186.482 19.94 185.738 19.532C185.006 19.112 184.424 18.524 183.992 17.768C183.572 17 183.362 16.106 183.362 15.086C183.362 14.066 183.578 13.178 184.01 12.422C184.442 11.654 185.03 11.066 185.774 10.658C186.518 10.238 187.352 10.028 188.276 10.028C189.2 10.028 190.034 10.238 190.778 10.658C191.534 11.066 192.122 11.654 192.542 12.422C192.974 13.178 193.19 14.066 193.19 15.086C193.19 16.094 192.974 16.982 192.542 17.75C192.11 18.518 191.516 19.112 190.76 19.532C190.004 19.94 189.164 20.144 188.24 20.144ZM188.24 19.046C188.888 19.046 189.488 18.902 190.04 18.614C190.592 18.314 191.036 17.87 191.372 17.282C191.72 16.682 191.894 15.95 191.894 15.086C191.894 14.222 191.726 13.496 191.39 12.908C191.054 12.308 190.61 11.864 190.058 11.576C189.506 11.276 188.906 11.126 188.258 11.126C187.61 11.126 187.01 11.276 186.458 11.576C185.906 11.864 185.462 12.308 185.126 12.908C184.802 13.496 184.64 14.222 184.64 15.086C184.64 15.95 184.802 16.682 185.126 17.282C185.462 17.87 185.9 18.314 186.44 18.614C186.992 18.902 187.592 19.046 188.24 19.046ZM200.417 9.992C201.161 9.992 201.827 10.148 202.415 10.46C203.015 10.772 203.483 11.252 203.819 11.9C204.167 12.536 204.341 13.316 204.341 14.24V20H203.099V14.384C203.099 13.316 202.829 12.5 202.289 11.936C201.761 11.372 201.035 11.09 200.111 11.09C199.163 11.09 198.407 11.39 197.843 11.99C197.279 12.59 196.997 13.472 196.997 14.636V20H195.737V6.68H196.997V11.846C197.309 11.258 197.765 10.802 198.365 10.478C198.977 10.154 199.661 9.992 200.417 9.992ZM211.986 9.992C213.162 9.992 214.122 10.358 214.866 11.09C215.61 11.81 215.982 12.86 215.982 14.24V20H214.74V14.384C214.74 13.316 214.47 12.5 213.93 11.936C213.402 11.372 212.676 11.09 211.752 11.09C210.804 11.09 210.048 11.39 209.484 11.99C208.92 12.59 208.638 13.472 208.638 14.636V20H207.378V10.172H208.638V11.846C208.95 11.246 209.4 10.79 209.988 10.478C210.576 10.154 211.242 9.992 211.986 9.992ZM222.402 20.144C221.274 20.144 220.35 19.886 219.63 19.37C218.922 18.842 218.526 18.128 218.442 17.228H219.738C219.798 17.78 220.056 18.23 220.512 18.578C220.98 18.914 221.604 19.082 222.384 19.082C223.068 19.082 223.602 18.92 223.986 18.596C224.382 18.272 224.58 17.87 224.58 17.39C224.58 17.054 224.472 16.778 224.256 16.562C224.04 16.346 223.764 16.178 223.428 16.058C223.104 15.926 222.66 15.788 222.096 15.644C221.364 15.452 220.77 15.26 220.314 15.068C219.858 14.876 219.468 14.594 219.144 14.222C218.832 13.838 218.676 13.328 218.676 12.692C218.676 12.212 218.82 11.768 219.108 11.36C219.396 10.952 219.804 10.628 220.332 10.388C220.86 10.148 221.46 10.028 222.132 10.028C223.188 10.028 224.04 10.298 224.688 10.838C225.336 11.366 225.684 12.098 225.732 13.034H224.472C224.436 12.458 224.208 11.996 223.788 11.648C223.38 11.288 222.816 11.108 222.096 11.108C221.46 11.108 220.944 11.258 220.548 11.558C220.152 11.858 219.954 12.23 219.954 12.674C219.954 13.058 220.068 13.376 220.296 13.628C220.536 13.868 220.83 14.06 221.178 14.204C221.526 14.336 221.994 14.486 222.582 14.654C223.29 14.846 223.854 15.032 224.274 15.212C224.694 15.392 225.054 15.656 225.354 16.004C225.654 16.352 225.81 16.814 225.822 17.39C225.822 17.918 225.678 18.392 225.39 18.812C225.102 19.22 224.7 19.544 224.184 19.784C223.668 20.024 223.074 20.144 222.402 20.144ZM232.746 20.144C231.822 20.144 230.988 19.94 230.244 19.532C229.512 19.112 228.93 18.524 228.498 17.768C228.078 17 227.868 16.106 227.868 15.086C227.868 14.066 228.084 13.178 228.516 12.422C228.948 11.654 229.536 11.066 230.28 10.658C231.024 10.238 231.858 10.028 232.782 10.028C233.706 10.028 234.54 10.238 235.284 10.658C236.04 11.066 236.628 11.654 237.048 12.422C237.48 13.178 237.696 14.066 237.696 15.086C237.696 16.094 237.48 16.982 237.048 17.75C236.616 18.518 236.022 19.112 235.266 19.532C234.51 19.94 233.67 20.144 232.746 20.144ZM232.746 19.046C233.394 19.046 233.994 18.902 234.546 18.614C235.098 18.314 235.542 17.87 235.878 17.282C236.226 16.682 236.4 15.95 236.4 15.086C236.4 14.222 236.232 13.496 235.896 12.908C235.56 12.308 235.116 11.864 234.564 11.576C234.012 11.276 233.412 11.126 232.764 11.126C232.116 11.126 231.516 11.276 230.964 11.576C230.412 11.864 229.968 12.308 229.632 12.908C229.308 13.496 229.146 14.222 229.146 15.086C229.146 15.95 229.308 16.682 229.632 17.282C229.968 17.87 230.406 18.314 230.946 18.614C231.498 18.902 232.098 19.046 232.746 19.046ZM244.851 9.992C246.027 9.992 246.987 10.358 247.731 11.09C248.475 11.81 248.847 12.86 248.847 14.24V20H247.605V14.384C247.605 13.316 247.335 12.5 246.795 11.936C246.267 11.372 245.541 11.09 244.617 11.09C243.669 11.09 242.913 11.39 242.349 11.99C241.785 12.59 241.503 13.472 241.503 14.636V20H240.243V10.172H241.503V11.846C241.815 11.246 242.265 10.79 242.853 10.478C243.441 10.154 244.107 9.992 244.851 9.992Z" fill="white"/>
<path d="M0 14H16.5" stroke="white" stroke-linecap="round"/>
</svg>
