<svg width="242" height="27" viewBox="0 0 242 27" fill="none" xmlns="http://www.w3.org/2000/svg">
<path d="M28.486 11.036C28.486 12.116 28.132 12.986 27.424 13.646C26.716 14.306 25.654 14.636 24.238 14.636H21.7V20H20.44V7.418H24.238C25.642 7.418 26.698 7.748 27.406 8.408C28.126 9.068 28.486 9.944 28.486 11.036ZM24.238 13.556C26.206 13.556 27.19 12.716 27.19 11.036C27.19 10.196 26.956 9.56 26.488 9.128C26.02 8.696 25.27 8.48 24.238 8.48H21.7V13.556H24.238ZM39.7422 14.582C39.7422 15.014 39.7302 15.344 39.7062 15.572H31.5522C31.5882 16.316 31.7682 16.952 32.0922 17.48C32.4162 18.008 32.8422 18.41 33.3702 18.686C33.8982 18.95 34.4742 19.082 35.0982 19.082C35.9142 19.082 36.5982 18.884 37.1502 18.488C37.7142 18.092 38.0862 17.558 38.2662 16.886H39.5982C39.3582 17.846 38.8422 18.632 38.0502 19.244C37.2702 19.844 36.2862 20.144 35.0982 20.144C34.1742 20.144 33.3462 19.94 32.6142 19.532C31.8822 19.112 31.3062 18.524 30.8862 17.768C30.4782 17 30.2742 16.106 30.2742 15.086C30.2742 14.066 30.4782 13.172 30.8862 12.404C31.2942 11.636 31.8642 11.048 32.5962 10.64C33.3282 10.232 34.1622 10.028 35.0982 10.028C36.0342 10.028 36.8502 10.232 37.5462 10.64C38.2542 11.048 38.7942 11.6 39.1662 12.296C39.5502 12.98 39.7422 13.742 39.7422 14.582ZM38.4642 14.546C38.4762 13.814 38.3262 13.19 38.0142 12.674C37.7142 12.158 37.3002 11.768 36.7722 11.504C36.2442 11.24 35.6682 11.108 35.0442 11.108C34.1082 11.108 33.3102 11.408 32.6502 12.008C31.9902 12.608 31.6242 13.454 31.5522 14.546H38.4642ZM43.5574 11.918C43.8334 11.306 44.2534 10.832 44.8174 10.496C45.3934 10.16 46.0954 9.992 46.9234 9.992V11.306H46.5814C45.6694 11.306 44.9374 11.552 44.3854 12.044C43.8334 12.536 43.5574 13.358 43.5574 14.51V20H42.2974V10.172H43.5574V11.918ZM52.4529 20.144C51.3249 20.144 50.4009 19.886 49.6809 19.37C48.9729 18.842 48.5769 18.128 48.4929 17.228H49.7889C49.8489 17.78 50.1069 18.23 50.5629 18.578C51.0309 18.914 51.6549 19.082 52.4349 19.082C53.1189 19.082 53.6529 18.92 54.0369 18.596C54.4329 18.272 54.6309 17.87 54.6309 17.39C54.6309 17.054 54.5229 16.778 54.3069 16.562C54.0909 16.346 53.8149 16.178 53.4789 16.058C53.1549 15.926 52.7109 15.788 52.1469 15.644C51.4149 15.452 50.8209 15.26 50.3649 15.068C49.9089 14.876 49.5189 14.594 49.1949 14.222C48.8829 13.838 48.7269 13.328 48.7269 12.692C48.7269 12.212 48.8709 11.768 49.1589 11.36C49.4469 10.952 49.8549 10.628 50.3829 10.388C50.9109 10.148 51.5109 10.028 52.1829 10.028C53.2389 10.028 54.0909 10.298 54.7389 10.838C55.3869 11.366 55.7349 12.098 55.7829 13.034H54.5229C54.4869 12.458 54.2589 11.996 53.8389 11.648C53.4309 11.288 52.8669 11.108 52.1469 11.108C51.5109 11.108 50.9949 11.258 50.5989 11.558C50.2029 11.858 50.0049 12.23 50.0049 12.674C50.0049 13.058 50.1189 13.376 50.3469 13.628C50.5869 13.868 50.8809 14.06 51.2289 14.204C51.5769 14.336 52.0449 14.486 52.6329 14.654C53.3409 14.846 53.9049 15.032 54.3249 15.212C54.7449 15.392 55.1049 15.656 55.4049 16.004C55.7049 16.352 55.8609 16.814 55.8729 17.39C55.8729 17.918 55.7289 18.392 55.4409 18.812C55.1529 19.22 54.7509 19.544 54.2349 19.784C53.7189 20.024 53.1249 20.144 52.4529 20.144ZM62.7967 20.144C61.8727 20.144 61.0387 19.94 60.2947 19.532C59.5627 19.112 58.9807 18.524 58.5487 17.768C58.1287 17 57.9187 16.106 57.9187 15.086C57.9187 14.066 58.1347 13.178 58.5667 12.422C58.9987 11.654 59.5867 11.066 60.3307 10.658C61.0747 10.238 61.9087 10.028 62.8327 10.028C63.7567 10.028 64.5907 10.238 65.3347 10.658C66.0907 11.066 66.6787 11.654 67.0987 12.422C67.5307 13.178 67.7467 14.066 67.7467 15.086C67.7467 16.094 67.5307 16.982 67.0987 17.75C66.6667 18.518 66.0727 19.112 65.3167 19.532C64.5607 19.94 63.7207 20.144 62.7967 20.144ZM62.7967 19.046C63.4447 19.046 64.0447 18.902 64.5967 18.614C65.1487 18.314 65.5927 17.87 65.9287 17.282C66.2767 16.682 66.4507 15.95 66.4507 15.086C66.4507 14.222 66.2827 13.496 65.9467 12.908C65.6107 12.308 65.1667 11.864 64.6147 11.576C64.0627 11.276 63.4627 11.126 62.8147 11.126C62.1667 11.126 61.5667 11.276 61.0147 11.576C60.4627 11.864 60.0187 12.308 59.6827 12.908C59.3587 13.496 59.1967 14.222 59.1967 15.086C59.1967 15.95 59.3587 16.682 59.6827 17.282C60.0187 17.87 60.4567 18.314 60.9967 18.614C61.5487 18.902 62.1487 19.046 62.7967 19.046ZM74.9015 9.992C76.0775 9.992 77.0375 10.358 77.7815 11.09C78.5255 11.81 78.8975 12.86 78.8975 14.24V20H77.6555V14.384C77.6555 13.316 77.3855 12.5 76.8455 11.936C76.3175 11.372 75.5915 11.09 74.6675 11.09C73.7195 11.09 72.9635 11.39 72.3995 11.99C71.8355 12.59 71.5535 13.472 71.5535 14.636V20H70.2935V10.172H71.5535V11.846C71.8655 11.246 72.3155 10.79 72.9035 10.478C73.4915 10.154 74.1575 9.992 74.9015 9.992ZM81.3581 15.068C81.3581 14.06 81.5561 13.178 81.9521 12.422C82.3601 11.654 82.9181 11.066 83.6261 10.658C84.3461 10.238 85.1561 10.028 86.0561 10.028C86.9921 10.028 87.7961 10.244 88.4681 10.676C89.1521 11.108 89.6441 11.66 89.9441 12.332V10.172H91.2041V20H89.9441V17.822C89.6321 18.494 89.1341 19.052 88.4501 19.496C87.7781 19.928 86.9741 20.144 86.0381 20.144C85.1501 20.144 84.3461 19.934 83.6261 19.514C82.9181 19.094 82.3601 18.5 81.9521 17.732C81.5561 16.964 81.3581 16.076 81.3581 15.068ZM89.9441 15.086C89.9441 14.294 89.7821 13.598 89.4581 12.998C89.1341 12.398 88.6901 11.936 88.1261 11.612C87.5741 11.288 86.9621 11.126 86.2901 11.126C85.5941 11.126 84.9701 11.282 84.4181 11.594C83.8661 11.906 83.4281 12.362 83.1041 12.962C82.7921 13.55 82.6361 14.252 82.6361 15.068C82.6361 15.872 82.7921 16.58 83.1041 17.192C83.4281 17.792 83.8661 18.254 84.4181 18.578C84.9701 18.89 85.5941 19.046 86.2901 19.046C86.9621 19.046 87.5741 18.884 88.1261 18.56C88.6901 18.236 89.1341 17.774 89.4581 17.174C89.7821 16.574 89.9441 15.878 89.9441 15.086ZM99.2501 13.43C99.2501 11.366 99.5681 9.764 100.204 8.624C100.84 7.484 101.98 6.914 103.624 6.914C105.268 6.914 106.408 7.484 107.044 8.624C107.68 9.764 107.998 11.366 107.998 13.43C107.998 15.53 107.68 17.156 107.044 18.308C106.408 19.46 105.268 20.036 103.624 20.036C101.968 20.036 100.822 19.46 100.186 18.308C99.5621 17.156 99.2501 15.53 99.2501 13.43ZM106.756 13.43C106.756 12.314 106.678 11.372 106.522 10.604C106.366 9.836 106.06 9.218 105.604 8.75C105.148 8.282 104.488 8.048 103.624 8.048C102.76 8.048 102.1 8.282 101.644 8.75C101.188 9.218 100.882 9.836 100.726 10.604C100.57 11.372 100.492 12.314 100.492 13.43C100.492 14.582 100.57 15.548 100.726 16.328C100.882 17.096 101.188 17.714 101.644 18.182C102.1 18.65 102.76 18.884 103.624 18.884C104.488 18.884 105.148 18.65 105.604 18.182C106.06 17.714 106.366 17.096 106.522 16.328C106.678 15.548 106.756 14.582 106.756 13.43ZM109.98 8.228V7.094H113.04V20H111.762V8.228H109.98ZM123.105 21.8H121.845V5.78H123.105V21.8ZM131.114 13.7C131.114 12.464 131.384 11.36 131.924 10.388C132.464 9.404 133.202 8.642 134.138 8.102C135.074 7.55 136.118 7.274 137.27 7.274C138.674 7.274 139.874 7.61 140.87 8.282C141.878 8.942 142.61 9.878 143.066 11.09H141.59C141.23 10.238 140.678 9.572 139.934 9.092C139.202 8.612 138.314 8.372 137.27 8.372C136.346 8.372 135.512 8.588 134.768 9.02C134.036 9.452 133.46 10.076 133.04 10.892C132.62 11.696 132.41 12.632 132.41 13.7C132.41 14.768 132.62 15.704 133.04 16.508C133.46 17.312 134.036 17.93 134.768 18.362C135.512 18.794 136.346 19.01 137.27 19.01C138.314 19.01 139.202 18.776 139.934 18.308C140.678 17.828 141.23 17.168 141.59 16.328H143.066C142.61 17.528 141.878 18.458 140.87 19.118C139.862 19.778 138.662 20.108 137.27 20.108C136.118 20.108 135.074 19.838 134.138 19.298C133.202 18.746 132.464 17.984 131.924 17.012C131.384 16.04 131.114 14.936 131.114 13.7ZM150.507 9.992C151.251 9.992 151.917 10.148 152.505 10.46C153.105 10.772 153.573 11.252 153.909 11.9C154.257 12.536 154.431 13.316 154.431 14.24V20H153.189V14.384C153.189 13.316 152.919 12.5 152.379 11.936C151.851 11.372 151.125 11.09 150.201 11.09C149.253 11.09 148.497 11.39 147.933 11.99C147.369 12.59 147.087 13.472 147.087 14.636V20H145.827V6.68H147.087V11.846C147.399 11.258 147.855 10.802 148.455 10.478C149.067 10.154 149.751 9.992 150.507 9.992ZM158.727 6.68V20H157.467V6.68H158.727ZM166.133 20.144C165.209 20.144 164.375 19.94 163.631 19.532C162.899 19.112 162.317 18.524 161.885 17.768C161.465 17 161.255 16.106 161.255 15.086C161.255 14.066 161.471 13.178 161.903 12.422C162.335 11.654 162.923 11.066 163.667 10.658C164.411 10.238 165.245 10.028 166.169 10.028C167.093 10.028 167.927 10.238 168.671 10.658C169.427 11.066 170.015 11.654 170.435 12.422C170.867 13.178 171.083 14.066 171.083 15.086C171.083 16.094 170.867 16.982 170.435 17.75C170.003 18.518 169.409 19.112 168.653 19.532C167.897 19.94 167.057 20.144 166.133 20.144ZM166.133 19.046C166.781 19.046 167.381 18.902 167.933 18.614C168.485 18.314 168.929 17.87 169.265 17.282C169.613 16.682 169.787 15.95 169.787 15.086C169.787 14.222 169.619 13.496 169.283 12.908C168.947 12.308 168.503 11.864 167.951 11.576C167.399 11.276 166.799 11.126 166.151 11.126C165.503 11.126 164.903 11.276 164.351 11.576C163.799 11.864 163.355 12.308 163.019 12.908C162.695 13.496 162.533 14.222 162.533 15.086C162.533 15.95 162.695 16.682 163.019 17.282C163.355 17.87 163.793 18.314 164.333 18.614C164.885 18.902 165.485 19.046 166.133 19.046ZM182.521 14.582C182.521 15.014 182.509 15.344 182.485 15.572H174.331C174.367 16.316 174.547 16.952 174.871 17.48C175.195 18.008 175.621 18.41 176.149 18.686C176.677 18.95 177.253 19.082 177.877 19.082C178.693 19.082 179.377 18.884 179.929 18.488C180.493 18.092 180.865 17.558 181.045 16.886H182.377C182.137 17.846 181.621 18.632 180.829 19.244C180.049 19.844 179.065 20.144 177.877 20.144C176.953 20.144 176.125 19.94 175.393 19.532C174.661 19.112 174.085 18.524 173.665 17.768C173.257 17 173.053 16.106 173.053 15.086C173.053 14.066 173.257 13.172 173.665 12.404C174.073 11.636 174.643 11.048 175.375 10.64C176.107 10.232 176.941 10.028 177.877 10.028C178.813 10.028 179.629 10.232 180.325 10.64C181.033 11.048 181.573 11.6 181.945 12.296C182.329 12.98 182.521 13.742 182.521 14.582ZM181.243 14.546C181.255 13.814 181.105 13.19 180.793 12.674C180.493 12.158 180.079 11.768 179.551 11.504C179.023 11.24 178.447 11.108 177.823 11.108C176.887 11.108 176.089 11.408 175.429 12.008C174.769 12.608 174.403 13.454 174.331 14.546H181.243ZM202.56 7.58V20H201.3V10.082L196.872 20H195.954L191.526 10.118V20H190.266V7.58H191.598L196.404 18.344L201.21 7.58H202.56ZM205.093 15.068C205.093 14.06 205.291 13.178 205.687 12.422C206.095 11.654 206.653 11.066 207.361 10.658C208.081 10.238 208.891 10.028 209.791 10.028C210.727 10.028 211.531 10.244 212.203 10.676C212.887 11.108 213.379 11.66 213.679 12.332V10.172H214.939V20H213.679V17.822C213.367 18.494 212.869 19.052 212.185 19.496C211.513 19.928 210.709 20.144 209.773 20.144C208.885 20.144 208.081 19.934 207.361 19.514C206.653 19.094 206.095 18.5 205.687 17.732C205.291 16.964 205.093 16.076 205.093 15.068ZM213.679 15.086C213.679 14.294 213.517 13.598 213.193 12.998C212.869 12.398 212.425 11.936 211.861 11.612C211.309 11.288 210.697 11.126 210.025 11.126C209.329 11.126 208.705 11.282 208.153 11.594C207.601 11.906 207.163 12.362 206.839 12.962C206.527 13.55 206.371 14.252 206.371 15.068C206.371 15.872 206.527 16.58 206.839 17.192C207.163 17.792 207.601 18.254 208.153 18.578C208.705 18.89 209.329 19.046 210.025 19.046C210.697 19.046 211.309 18.884 211.861 18.56C212.425 18.236 212.869 17.774 213.193 17.174C213.517 16.574 213.679 15.878 213.679 15.086ZM219.325 11.918C219.601 11.306 220.021 10.832 220.585 10.496C221.161 10.16 221.863 9.992 222.691 9.992V11.306H222.349C221.437 11.306 220.705 11.552 220.153 12.044C219.601 12.536 219.325 13.358 219.325 14.51V20H218.065V10.172H219.325V11.918ZM230.146 20L226.096 15.59V20H224.836V6.68H226.096V14.564L230.056 10.172H231.82L227.158 15.068L231.856 20H230.146ZM237.119 20.144C235.991 20.144 235.067 19.886 234.347 19.37C233.639 18.842 233.243 18.128 233.159 17.228H234.455C234.515 17.78 234.773 18.23 235.229 18.578C235.697 18.914 236.321 19.082 237.101 19.082C237.785 19.082 238.319 18.92 238.703 18.596C239.099 18.272 239.297 17.87 239.297 17.39C239.297 17.054 239.189 16.778 238.973 16.562C238.757 16.346 238.481 16.178 238.145 16.058C237.821 15.926 237.377 15.788 236.813 15.644C236.081 15.452 235.487 15.26 235.031 15.068C234.575 14.876 234.185 14.594 233.861 14.222C233.549 13.838 233.393 13.328 233.393 12.692C233.393 12.212 233.537 11.768 233.825 11.36C234.113 10.952 234.521 10.628 235.049 10.388C235.577 10.148 236.177 10.028 236.849 10.028C237.905 10.028 238.757 10.298 239.405 10.838C240.053 11.366 240.401 12.098 240.449 13.034H239.189C239.153 12.458 238.925 11.996 238.505 11.648C238.097 11.288 237.533 11.108 236.813 11.108C236.177 11.108 235.661 11.258 235.265 11.558C234.869 11.858 234.671 12.23 234.671 12.674C234.671 13.058 234.785 13.376 235.013 13.628C235.253 13.868 235.547 14.06 235.895 14.204C236.243 14.336 236.711 14.486 237.299 14.654C238.007 14.846 238.571 15.032 238.991 15.212C239.411 15.392 239.771 15.656 240.071 16.004C240.371 16.352 240.527 16.814 240.539 17.39C240.539 17.918 240.395 18.392 240.107 18.812C239.819 19.22 239.417 19.544 238.901 19.784C238.385 20.024 237.791 20.144 237.119 20.144Z" fill="white"/>
<path d="M0 12.6016H16.5" stroke="white" stroke-linecap="round"/>
</svg>
