<svg width="375" height="154" viewBox="0 0 375 154" fill="none" xmlns="http://www.w3.org/2000/svg">
<g filter="url(#filter0_d)">
<path opacity="0.3" d="M56.4888 104.623C57.4887 104.623 58.2994 103.812 58.2994 102.813C58.2994 101.813 57.4887 101.002 56.4888 101.002C55.4888 101.002 54.6782 101.813 54.6782 102.813C54.6782 103.812 55.4888 104.623 56.4888 104.623Z" fill="url(#paint0_radial)"/>
<path opacity="0.3" d="M51.6607 104.623C52.6606 104.623 53.4712 103.812 53.4712 102.813C53.4712 101.813 52.6606 101.002 51.6607 101.002C50.6607 101.002 49.8501 101.813 49.8501 102.813C49.8501 103.812 50.6607 104.623 51.6607 104.623Z" fill="url(#paint1_radial)"/>
<path d="M62.5241 104.02H9.41406V98.5879C9.41406 97.5876 10.4944 96.7773 11.8282 96.7773H60.11C61.4438 96.7773 62.5241 97.5876 62.5241 98.5879V104.02Z" fill="url(#paint2_radial)"/>
<path d="M60.11 123.332H11.8282C10.5004 123.332 9.41406 122.246 9.41406 120.918V104.02H62.5241V120.918C62.5241 122.246 61.4378 123.332 60.11 123.332Z" fill="url(#paint3_radial)"/>
<path d="M57.6959 123.332H14.2422V120.918C14.2422 119.584 15.3225 118.504 16.6563 118.504H55.2818C56.6156 118.504 57.6959 119.584 57.6959 120.918V123.332Z" fill="url(#paint4_radial)"/>
<path d="M56.4888 104.02C57.1554 104.02 57.6958 103.479 57.6958 102.813C57.6958 102.146 57.1554 101.605 56.4888 101.605C55.8222 101.605 55.2817 102.146 55.2817 102.813C55.2817 103.479 55.8222 104.02 56.4888 104.02Z" fill="#51A1A4"/>
<path d="M51.6607 104.02C52.3273 104.02 52.8677 103.479 52.8677 102.813C52.8677 102.146 52.3273 101.605 51.6607 101.605C50.994 101.605 50.4536 102.146 50.4536 102.813C50.4536 103.479 50.994 104.02 51.6607 104.02Z" fill="#51A1A4"/>
<path d="M43.2114 137.818C42.5452 137.818 42.0044 137.277 42.0044 136.61C42.0044 135.326 42.4329 134.195 42.7769 133.286C43.0002 132.697 43.2114 132.14 43.2114 131.782C43.2114 131.425 43.0002 130.867 42.7769 130.278C42.4329 129.369 42.0044 128.238 42.0044 126.954C42.0044 126.288 42.5452 125.747 43.2114 125.747C43.8777 125.747 44.4185 126.288 44.4185 126.954C44.4185 127.797 44.7323 128.623 45.0353 129.423C45.3383 130.225 45.6255 130.982 45.6255 131.782C45.6255 132.583 45.3383 133.339 45.0353 134.142C44.7323 134.941 44.4185 135.768 44.4185 136.61C44.4185 137.277 43.8777 137.818 43.2114 137.818Z" fill="url(#paint5_radial)"/>
<path d="M50.4536 140.232C49.7873 140.232 49.2466 139.691 49.2466 139.025C49.2466 137.517 49.6437 136.209 49.9937 135.053C50.2291 134.271 50.4536 133.534 50.4536 132.989C50.4536 132.445 50.2291 131.707 49.9937 130.925C49.6437 129.77 49.2466 128.462 49.2466 126.954C49.2466 126.288 49.7873 125.747 50.4536 125.747C51.1199 125.747 51.6607 126.288 51.6607 126.954C51.6607 128.104 51.9878 129.182 52.304 130.225C52.5937 131.182 52.8677 132.086 52.8677 132.989C52.8677 133.892 52.5937 134.796 52.304 135.753C51.9878 136.796 51.6607 137.874 51.6607 139.025C51.6607 139.691 51.1199 140.232 50.4536 140.232Z" fill="url(#paint6_radial)"/>
<path d="M28.7271 137.818C28.0608 137.818 27.52 137.277 27.52 136.61C27.52 135.326 27.9485 134.195 28.2925 133.286C28.5158 132.697 28.7271 132.14 28.7271 131.782C28.7271 131.425 28.5158 130.867 28.2925 130.278C27.9485 129.369 27.52 128.238 27.52 126.954C27.52 126.288 28.0608 125.747 28.7271 125.747C29.3934 125.747 29.9341 126.288 29.9341 126.954C29.9341 127.797 30.2479 128.623 30.5509 129.423C30.8539 130.225 31.1412 130.982 31.1412 131.782C31.1412 132.583 30.8539 133.339 30.5509 134.142C30.2479 134.941 29.9341 135.768 29.9341 136.61C29.9341 137.277 29.3934 137.818 28.7271 137.818Z" fill="url(#paint7_radial)"/>
<path d="M35.9693 140.232C35.303 140.232 34.7622 139.691 34.7622 139.025C34.7622 137.517 35.1593 136.209 35.5094 135.053C35.7447 134.271 35.9693 133.534 35.9693 132.989C35.9693 132.445 35.7447 131.707 35.5094 130.925C35.1593 129.77 34.7622 128.462 34.7622 126.954C34.7622 126.288 35.303 125.747 35.9693 125.747C36.6355 125.747 37.1763 126.288 37.1763 126.954C37.1763 128.104 37.5034 129.182 37.8197 130.225C38.1094 131.182 38.3834 132.086 38.3834 132.989C38.3834 133.892 38.1094 134.796 37.8197 135.753C37.5034 136.796 37.1763 137.874 37.1763 139.025C37.1763 139.691 36.6355 140.232 35.9693 140.232Z" fill="url(#paint8_radial)"/>
<path d="M21.4844 140.232C20.8181 140.232 20.2773 139.691 20.2773 139.025C20.2773 137.517 20.6745 136.209 21.0245 135.053C21.2599 134.271 21.4844 133.534 21.4844 132.989C21.4844 132.445 21.2599 131.707 21.0245 130.925C20.6745 129.77 20.2773 128.462 20.2773 126.954C20.2773 126.288 20.8181 125.747 21.4844 125.747C22.1507 125.747 22.6914 126.288 22.6914 126.954C22.6914 128.104 23.0185 129.182 23.3348 130.225C23.6245 131.182 23.8985 132.086 23.8985 132.989C23.8985 133.892 23.6245 134.796 23.3348 135.753C23.0185 136.796 22.6914 137.874 22.6914 139.025C22.6914 139.691 22.1507 140.232 21.4844 140.232Z" fill="url(#paint9_radial)"/>
<path d="M270.508 51.1875H256.023C256.023 52.2195 256.023 55.9553 256.023 55.9553C256.023 59.9555 259.266 63.1976 263.266 63.1976C267.266 63.1976 270.508 59.9555 270.508 55.9553C270.508 55.9553 270.508 52.2195 270.508 51.1875Z" fill="url(#paint10_radial)"/>
<path d="M277.75 29.4611C277.75 21.462 271.264 14.9766 263.265 14.9766C255.266 14.9766 248.781 21.462 248.781 29.4611C248.781 37.9105 256.023 43.9457 256.023 48.5325V51.188H270.508V48.5325C270.508 43.9457 277.75 37.9105 277.75 29.4611Z" fill="url(#paint11_radial)"/>
<path fill-rule="evenodd" clip-rule="evenodd" d="M257.922 60.8447C259.246 62.2913 261.15 63.1985 263.266 63.1985C265.382 63.1985 267.285 62.2913 268.609 60.8447H257.922Z" fill="#51A1A4"/>
<path d="M191.121 120.156V119.713H183.879V120.156C183.879 122.628 182.578 124.849 180.574 126.296C178.896 127.508 177.844 129.247 177.844 131.18C177.844 133.221 179.019 135.044 180.864 136.262C181.233 136.505 181.679 136.612 182.122 136.612H192.879C193.322 136.612 193.766 136.505 194.136 136.262C195.981 135.044 197.157 133.221 197.157 131.18C197.157 129.247 196.104 127.508 194.426 126.296C192.422 124.849 191.121 122.628 191.121 120.156Z" fill="url(#paint12_radial)"/>
<path opacity="0.07" d="M191.132 120.316C191.13 120.262 191.121 120.21 191.121 120.156V119.713H183.879V120.156C183.879 120.21 183.869 120.262 183.868 120.316H191.132Z" fill="black"/>
<path d="M204.026 119.713H170.974C170.179 119.713 169.601 118.956 169.81 118.189L176.394 94.0478C176.538 93.5227 177.014 93.1582 177.559 93.1582H197.441C197.986 93.1582 198.462 93.5227 198.606 94.0478L205.191 118.189C205.399 118.956 204.821 119.713 204.026 119.713Z" fill="url(#paint13_radial)"/>
<path d="M191.17 120.92C191.143 120.668 191.121 120.414 191.121 120.156V119.713H183.879V120.156C183.879 120.414 183.857 120.668 183.829 120.92H191.17Z" fill="#51A1A4"/>
<path d="M163.359 54.811H211.641C212.975 54.811 214.055 53.7307 214.055 52.3969V21.0137C214.055 19.6799 212.975 18.5996 211.641 18.5996H163.359C162.025 18.5996 160.945 19.6799 160.945 21.0137V52.3969C160.945 53.7307 162.025 54.811 163.359 54.811Z" fill="url(#paint14_radial)"/>
<path d="M211.641 21.0137H163.359V52.3969H211.641V21.0137Z" fill="url(#paint15_radial)"/>
<path d="M203.795 57.2256H194.742V54.8115H180.257V57.2256H171.205C170.871 57.2256 170.601 57.496 170.601 57.8291V59.0362C170.601 59.3693 170.871 59.6397 171.205 59.6397H203.795C204.128 59.6397 204.398 59.3693 204.398 59.0362V57.8291C204.398 57.496 204.128 57.2256 203.795 57.2256Z" fill="url(#paint16_radial)"/>
<path d="M194.742 54.8115V57.2256H180.258V54.8115H194.742Z" fill="#51A1A4"/>
<path d="M335.409 141.438C326.743 141.438 319.718 134.413 319.718 125.746V117.154H351.101V125.746C351.101 134.413 344.076 141.438 335.409 141.438Z" fill="url(#paint17_radial)"/>
<path d="M335.409 139.024C328.089 139.024 322.132 133.068 322.132 125.747V119.57H348.687V125.747C348.687 133.068 342.73 139.024 335.409 139.024Z" fill="url(#paint18_radial)"/>
<path d="M358.65 92.8786C356.414 92.2751 349.632 90.887 334.236 90.753C332.893 90.741 331.789 91.8249 331.789 93.1683V102.813H339.031V100.093C339.031 98.4166 340.698 97.2337 342.268 97.8191C347.083 99.6176 352.789 102.726 357.648 106.219C358.445 106.792 359.551 106.221 359.551 105.239V94.0459C359.551 93.4966 359.181 93.0211 358.65 92.8786Z" fill="url(#paint19_radial)"/>
<path d="M354.119 99.1915C355.119 99.1915 355.929 98.3808 355.929 97.3809C355.929 96.3809 355.119 95.5703 354.119 95.5703C353.119 95.5703 352.308 96.3809 352.308 97.3809C352.308 98.3808 353.119 99.1915 354.119 99.1915Z" fill="url(#paint20_radial)"/>
<path opacity="0.05" d="M335.41 137.817C339.743 137.817 343.256 134.304 343.256 129.971C343.256 125.638 339.743 122.125 335.41 122.125C331.077 122.125 327.564 125.638 327.564 129.971C327.564 134.304 331.077 137.817 335.41 137.817Z" fill="black"/>
<path opacity="0.07" d="M335.409 137.214C339.409 137.214 342.652 133.972 342.652 129.972C342.652 125.972 339.409 122.729 335.409 122.729C331.409 122.729 328.167 125.972 328.167 129.972C328.167 133.972 331.409 137.214 335.409 137.214Z" fill="black"/>
<path d="M335.409 136.61C339.076 136.61 342.048 133.637 342.048 129.971C342.048 126.304 339.076 123.332 335.409 123.332C331.743 123.332 328.771 126.304 328.771 129.971C328.771 133.637 331.743 136.61 335.409 136.61Z" fill="#51A1A4"/>
<path d="M335.41 134.196C337.743 134.196 339.634 132.305 339.634 129.972C339.634 127.639 337.743 125.747 335.41 125.747C333.077 125.747 331.185 127.639 331.185 129.972C331.185 132.305 333.077 134.196 335.41 134.196Z" fill="url(#paint21_radial)"/>
<path d="M351.101 120.918H319.718C319.051 120.918 318.511 120.377 318.511 119.711V114.651C318.511 112.468 319.055 110.302 320.195 108.346C320.225 108.295 320.255 108.243 320.285 108.192C323.143 103.367 329.059 100.398 335.409 100.398C341.76 100.398 347.675 103.367 350.534 108.192C350.564 108.244 350.594 108.295 350.624 108.346C351.764 110.302 352.308 112.468 352.308 114.651V119.711C352.308 120.377 351.767 120.918 351.101 120.918Z" fill="url(#paint22_radial)"/>
<path d="M332.392 129.368C333.392 129.368 334.203 128.558 334.203 127.558C334.203 126.558 333.392 125.747 332.392 125.747C331.392 125.747 330.582 126.558 330.582 127.558C330.582 128.558 331.392 129.368 332.392 129.368Z" fill="white"/>
<path d="M246.367 93.1562H280.164C281.498 93.1562 282.578 94.2366 282.578 95.5703V134.196C282.578 135.53 281.498 136.61 280.164 136.61H246.367C245.033 136.61 243.953 135.53 243.953 134.196V95.5703C243.953 94.2366 245.033 93.1562 246.367 93.1562Z" fill="url(#paint23_radial)"/>
<path d="M278.964 134.196H247.567C246.904 134.196 246.367 133.652 246.367 132.98V106.442C246.367 105.77 246.904 105.227 247.567 105.227H278.966C279.627 105.227 280.164 105.77 280.164 106.442V132.982C280.164 133.652 279.627 134.196 278.964 134.196Z" fill="url(#paint24_radial)"/>
<path d="M246.367 93.1562H280.164C281.498 93.1562 282.578 94.2366 282.578 95.5703V102.813H243.953V95.5703C243.953 94.2366 245.033 93.1562 246.367 93.1562Z" fill="url(#paint25_radial)"/>
<path d="M259.041 95.5703H267.49C267.823 95.5703 268.094 95.8407 268.094 96.1738V99.795C268.094 100.128 267.823 100.399 267.49 100.399H259.041C258.708 100.399 258.438 100.128 258.438 99.795V96.1738C258.438 95.8407 258.708 95.5703 259.041 95.5703Z" fill="#51A1A4"/>
<path opacity="0.3" d="M249.988 99.795C250.988 99.795 251.798 98.9843 251.798 97.9844C251.798 96.9844 250.988 96.1738 249.988 96.1738C248.988 96.1738 248.177 96.9844 248.177 97.9844C248.177 98.9843 248.988 99.795 249.988 99.795Z" fill="url(#paint26_radial)"/>
<path d="M249.988 99.1914C250.654 99.1914 251.195 98.651 251.195 97.9844C251.195 97.3178 250.654 96.7773 249.988 96.7773C249.321 96.7773 248.781 97.3178 248.781 97.9844C248.781 98.651 249.321 99.1914 249.988 99.1914Z" fill="white"/>
<path opacity="0.3" d="M253.609 99.795C254.609 99.795 255.42 98.9843 255.42 97.9844C255.42 96.9844 254.609 96.1738 253.609 96.1738C252.609 96.1738 251.799 96.9844 251.799 97.9844C251.799 98.9843 252.609 99.795 253.609 99.795Z" fill="url(#paint27_radial)"/>
<path d="M253.609 99.1914C254.276 99.1914 254.816 98.651 254.816 97.9844C254.816 97.3178 254.276 96.7773 253.609 96.7773C252.942 96.7773 252.402 97.3178 252.402 97.9844C252.402 98.651 252.942 99.1914 253.609 99.1914Z" fill="white"/>
<path opacity="0.3" d="M272.922 99.795C273.922 99.795 274.732 98.9843 274.732 97.9844C274.732 96.9844 273.922 96.1738 272.922 96.1738C271.922 96.1738 271.111 96.9844 271.111 97.9844C271.111 98.9843 271.922 99.795 272.922 99.795Z" fill="url(#paint28_radial)"/>
<path d="M272.922 99.1914C273.589 99.1914 274.129 98.651 274.129 97.9844C274.129 97.3178 273.589 96.7773 272.922 96.7773C272.255 96.7773 271.715 97.3178 271.715 97.9844C271.715 98.651 272.255 99.1914 272.922 99.1914Z" fill="white"/>
<path opacity="0.3" d="M276.543 99.795C277.543 99.795 278.354 98.9843 278.354 97.9844C278.354 96.9844 277.543 96.1738 276.543 96.1738C275.543 96.1738 274.732 96.9844 274.732 97.9844C274.732 98.9843 275.543 99.795 276.543 99.795Z" fill="url(#paint29_radial)"/>
<path d="M276.543 99.1914C277.21 99.1914 277.75 98.651 277.75 97.9844C277.75 97.3178 277.21 96.7773 276.543 96.7773C275.876 96.7773 275.336 97.3178 275.336 97.9844C275.336 98.651 275.876 99.1914 276.543 99.1914Z" fill="white"/>
<path d="M255.42 126.954C255.087 126.954 254.816 126.683 254.816 126.35V118.195C254.816 117.862 255.087 117.592 255.42 117.592C255.753 117.592 256.023 117.862 256.023 118.195V126.35C256.023 126.683 255.753 126.954 255.42 126.954Z" fill="url(#paint30_radial)"/>
<path d="M258.765 111.636C258.732 111.421 258.534 111.262 258.302 111.262H252.537C252.305 111.262 252.107 111.421 252.072 111.636C251.866 112.935 251.195 117.252 251.195 118.741C251.195 120.441 253.086 122.26 255.419 122.26C257.753 122.26 259.644 120.441 259.644 118.741C259.644 117.252 258.973 112.935 258.765 111.636Z" fill="url(#paint31_radial)"/>
<path d="M259.041 128.16H251.798C251.465 128.16 251.195 127.891 251.195 127.557C251.195 127.222 251.465 126.953 251.798 126.953H259.041C259.374 126.953 259.644 127.222 259.644 127.557C259.644 127.891 259.374 128.16 259.041 128.16Z" fill="url(#paint32_radial)"/>
<path d="M256.023 125.143H254.816C254.816 126.35 251.642 126.972 251.642 126.972L251.799 127.557H259.041L259.198 126.972C259.198 126.972 256.023 126.35 256.023 125.143Z" fill="url(#paint33_radial)"/>
<path d="M263.869 128.16C263.536 128.16 263.266 127.89 263.266 127.557V114.279C263.266 113.946 263.536 113.676 263.869 113.676C264.202 113.676 264.473 113.946 264.473 114.279V127.557C264.473 127.89 264.202 128.16 263.869 128.16Z" fill="url(#paint34_radial)"/>
<path d="M264.385 126.953H263.266V114.883H264.385C265.099 114.883 265.68 115.463 265.68 116.178V125.657C265.68 126.373 265.099 126.953 264.385 126.953Z" fill="url(#paint35_radial)"/>
<path d="M268.697 128.16C268.364 128.16 268.094 127.89 268.094 127.557V114.279C268.094 113.946 268.364 113.676 268.697 113.676C269.03 113.676 269.301 113.946 269.301 114.279V127.557C269.301 127.89 269.03 128.16 268.697 128.16Z" fill="url(#paint36_radial)"/>
<path d="M269.213 126.953H268.094V114.883H269.213C269.927 114.883 270.508 115.463 270.508 116.178V125.657C270.508 126.373 269.927 126.953 269.213 126.953Z" fill="url(#paint37_radial)"/>
<path d="M273.525 128.16C273.192 128.16 272.922 127.89 272.922 127.557V114.279C272.922 113.946 273.192 113.676 273.525 113.676C273.859 113.676 274.129 113.946 274.129 114.279V127.557C274.129 127.89 273.859 128.16 273.525 128.16Z" fill="url(#paint38_radial)"/>
<path d="M274.041 126.953H272.922V114.883H274.041C274.755 114.883 275.336 115.463 275.336 116.178V125.657C275.336 126.373 274.755 126.953 274.041 126.953Z" fill="url(#paint39_radial)"/>
<path d="M19.0708 17.3906H52.8682C54.2019 17.3906 55.2822 18.4709 55.2822 19.8047V58.4302C55.2822 59.764 54.2019 60.8443 52.8682 60.8443H19.0708C17.737 60.8443 16.6567 59.764 16.6567 58.4302V19.8047C16.6567 18.4709 17.737 17.3906 19.0708 17.3906Z" fill="url(#paint40_radial)"/>
<path d="M19.0708 17.3906H52.8682C54.2019 17.3906 55.2822 18.4709 55.2822 19.8047V27.047H16.6567V19.8047C16.6567 18.4709 17.737 17.3906 19.0708 17.3906Z" fill="url(#paint41_radial)"/>
<path d="M42.6079 19.8047H51.0572C51.3904 19.8047 51.6608 20.0751 51.6608 20.4082V24.0294C51.6608 24.3625 51.3904 24.6329 51.0572 24.6329H42.6079C42.2748 24.6329 42.0044 24.3625 42.0044 24.0294V20.4082C42.0044 20.0751 42.2748 19.8047 42.6079 19.8047Z" fill="url(#paint42_radial)"/>
<path d="M35.9689 57.223C43.3019 57.223 49.2464 51.2785 49.2464 43.9455C49.2464 36.6125 43.3019 30.668 35.9689 30.668C28.636 30.668 22.6914 36.6125 22.6914 43.9455C22.6914 51.2785 28.636 57.223 35.9689 57.223Z" fill="#51A1A4"/>
<path d="M35.9689 34.2891C30.6361 34.2891 26.3125 38.6127 26.3125 43.9454C26.3125 49.2782 30.6361 53.6018 35.9689 53.6018C41.3016 53.6018 45.6253 49.2782 45.6253 43.9454C45.6253 38.6127 41.3016 34.2891 35.9689 34.2891Z" fill="url(#paint43_radial)"/>
<path opacity="0.3" d="M26.3125 24.0293C27.3125 24.0293 28.1231 23.2187 28.1231 22.2188C28.1231 21.2188 27.3125 20.4082 26.3125 20.4082C25.3126 20.4082 24.502 21.2188 24.502 22.2188C24.502 23.2187 25.3126 24.0293 26.3125 24.0293Z" fill="url(#paint44_radial)"/>
<path d="M26.3125 23.4258C26.9792 23.4258 27.5196 22.8854 27.5196 22.2188C27.5196 21.5521 26.9792 21.0117 26.3125 21.0117C25.6459 21.0117 25.1055 21.5521 25.1055 22.2188C25.1055 22.8854 25.6459 23.4258 26.3125 23.4258Z" fill="url(#paint45_radial)"/>
<path opacity="0.3" d="M31.1411 24.0293C32.1411 24.0293 32.9517 23.2187 32.9517 22.2188C32.9517 21.2188 32.1411 20.4082 31.1411 20.4082C30.1412 20.4082 29.3306 21.2188 29.3306 22.2188C29.3306 23.2187 30.1412 24.0293 31.1411 24.0293Z" fill="url(#paint46_radial)"/>
<path d="M31.1406 23.4258C31.8073 23.4258 32.3477 22.8854 32.3477 22.2188C32.3477 21.5521 31.8073 21.0117 31.1406 21.0117C30.474 21.0117 29.9336 21.5521 29.9336 22.2188C29.9336 22.8854 30.474 23.4258 31.1406 23.4258Z" fill="url(#paint47_radial)"/>
<path opacity="0.3" d="M21.4844 24.0293C22.4844 24.0293 23.295 23.2187 23.295 22.2188C23.295 21.2188 22.4844 20.4082 21.4844 20.4082C20.4844 20.4082 19.6738 21.2188 19.6738 22.2188C19.6738 23.2187 20.4844 24.0293 21.4844 24.0293Z" fill="url(#paint48_radial)"/>
<path d="M21.4849 23.4258C22.1515 23.4258 22.6919 22.8854 22.6919 22.2188C22.6919 21.5521 22.1515 21.0117 21.4849 21.0117C20.8182 21.0117 20.2778 21.5521 20.2778 22.2188C20.2778 22.8854 20.8182 23.4258 21.4849 23.4258Z" fill="url(#paint49_radial)"/>
<ellipse cx="44.4185" cy="43.9453" rx="2.41409" ry="2.41409" fill="url(#paint50_radial)"/>
<path d="M339.031 63.2585C352.363 63.2585 363.172 52.4502 363.172 39.1175C363.172 25.7848 352.363 14.9766 339.031 14.9766C325.698 14.9766 314.89 25.7848 314.89 39.1175C314.89 52.4502 325.698 63.2585 339.031 63.2585Z" fill="url(#paint51_radial)"/>
<path d="M339.031 61.4479C351.363 61.4479 361.361 51.4502 361.361 39.1175C361.361 26.7848 351.363 16.7871 339.031 16.7871C326.698 16.7871 316.7 26.7848 316.7 39.1175C316.7 51.4502 326.698 61.4479 339.031 61.4479Z" fill="url(#paint52_radial)"/>
<path d="M339.031 59.6373C350.363 59.6373 359.55 50.4502 359.55 39.1175C359.55 27.7847 350.363 18.5977 339.031 18.5977C327.698 18.5977 318.511 27.7847 318.511 39.1175C318.511 50.4502 327.698 59.6373 339.031 59.6373Z" fill="url(#paint53_radial)"/>
<path d="M340.238 22.2188C340.238 22.8851 339.697 23.4258 339.031 23.4258C338.364 23.4258 337.823 22.8851 337.823 22.2188C337.823 21.5525 338.364 21.0117 339.031 21.0117C339.697 21.0117 340.238 21.5525 340.238 22.2188ZM339.031 54.809C338.364 54.809 337.823 55.3498 337.823 56.0161C337.823 56.6824 338.364 57.2231 339.031 57.2231C339.697 57.2231 340.238 56.6824 340.238 56.0161C340.238 55.3498 339.697 54.809 339.031 54.809ZM355.929 37.9104C355.263 37.9104 354.722 38.4511 354.722 39.1174C354.722 39.7837 355.263 40.3245 355.929 40.3245C356.595 40.3245 357.136 39.7837 357.136 39.1174C357.136 38.4511 356.595 37.9104 355.929 37.9104ZM322.132 37.9104C321.466 37.9104 320.925 38.4511 320.925 39.1174C320.925 39.7837 321.466 40.3245 322.132 40.3245C322.798 40.3245 323.339 39.7837 323.339 39.1174C323.339 38.4511 322.798 37.9104 322.132 37.9104Z" fill="white"/>
<path d="M339.031 52.093C338.531 52.093 338.125 51.6874 338.125 51.1877V39.1172C338.125 38.6175 338.531 38.2119 339.031 38.2119C339.53 38.2119 339.936 38.6175 339.936 39.1172V51.1877C339.936 51.6874 339.53 52.093 339.031 52.093Z" fill="url(#paint54_radial)"/>
<path d="M339.03 40.023C338.799 40.023 338.567 39.9349 338.391 39.7574C338.037 39.4038 338.037 38.8304 338.391 38.4768L348.633 28.235C348.986 27.8813 349.56 27.8813 349.913 28.235C350.267 28.5886 350.267 29.162 349.913 29.5157L339.67 39.7574C339.494 39.9349 339.262 40.023 339.03 40.023Z" fill="url(#paint55_radial)"/>
<path d="M339.029 40.6261C338.811 40.6261 338.589 40.5791 338.377 40.4777L328.978 35.9694C328.226 35.6085 327.91 34.708 328.271 33.956C328.63 33.2052 329.532 32.8854 330.283 33.2487L339.682 37.757C340.434 38.1179 340.75 39.0184 340.39 39.7704C340.131 40.3099 339.592 40.6261 339.029 40.6261Z" fill="#51A1A4"/>
<path d="M339.031 41.5313C340.364 41.5313 341.445 40.4505 341.445 39.1172C341.445 37.784 340.364 36.7031 339.031 36.7031C337.698 36.7031 336.617 37.784 336.617 39.1172C336.617 40.4505 337.698 41.5313 339.031 41.5313Z" fill="url(#paint56_radial)"/>
<path d="M95.7593 93.1562H127.711C128.887 93.1562 129.84 94.1291 129.84 95.3289V134.437C129.84 135.637 128.887 136.61 127.71 136.61H95.7593C94.5825 136.61 93.6289 135.637 93.6289 134.437V95.3289C93.6289 94.1291 94.5825 93.1562 95.7593 93.1562Z" fill="url(#paint57_radial)"/>
<path d="M126.219 96.7773H97.25V132.989H126.219V96.7773Z" fill="#51A1A4"/>
<path opacity="0.05" d="M129.84 113.676H93.6289V118.504H129.84V113.676Z" fill="black"/>
<path opacity="0.07" d="M129.84 114.28H93.6289V117.901H129.84V114.28Z" fill="black"/>
<path d="M131.047 116.09V114.883H92.4219V116.09C92.4219 116.756 92.93 117.297 93.5577 117.297H129.912C130.539 117.297 131.047 116.756 131.047 116.09Z" fill="url(#paint58_radial)"/>
<path d="M131.047 112.47H92.4219V114.884H131.047V112.47Z" fill="url(#paint59_radial)"/>
<path d="M131.047 110.055H92.4219V112.469H131.047V110.055Z" fill="url(#paint60_radial)"/>
<path d="M131.047 107.641H92.4219V110.055H131.047V107.641Z" fill="url(#paint61_radial)"/>
<path d="M131.047 105.228H92.4219V107.642H131.047V105.228Z" fill="url(#paint62_radial)"/>
<path d="M131.047 102.812H92.4219V105.227H131.047V102.812Z" fill="url(#paint63_radial)"/>
<path d="M131.047 100.398H92.4219V102.813H131.047V100.398Z" fill="url(#paint64_radial)"/>
<path d="M131.047 97.9854H92.4219V100.399H131.047V97.9854Z" fill="url(#paint65_radial)"/>
<path d="M90.0078 94.3633V96.7774C90.0078 97.4437 90.5196 97.9844 91.1509 97.9844H132.317C132.95 97.9844 133.462 97.4437 133.462 96.7774V94.3633C133.462 93.697 132.95 93.1562 132.318 93.1562H91.1509C90.5196 93.1562 90.0078 93.697 90.0078 94.3633Z" fill="url(#paint66_radial)"/>
<path d="M124.409 63.2579H99.0606C98.7274 63.2579 98.457 62.9875 98.457 62.6544V61.6887C98.457 61.1806 98.7745 60.7279 99.2513 60.5541L111.735 56.0156L124.218 60.5553C124.695 60.7279 125.012 61.1818 125.012 61.6887V62.6544C125.012 62.9875 124.742 63.2579 124.409 63.2579Z" fill="url(#paint67_radial)"/>
<path d="M114.149 52.8242H109.321V56.8883H114.149V52.8242Z" fill="url(#paint68_radial)"/>
<path d="M111.737 53.6021C101.086 53.6009 92.4219 44.9367 92.4219 34.2893C92.4219 23.6407 101.086 14.9766 111.735 14.9766C122.383 14.9766 131.047 23.6407 131.047 34.2893C131.047 44.9367 122.384 53.6009 111.737 53.6021Z" fill="url(#paint69_radial)"/>
<path opacity="0.02" d="M104.053 49.5058C103.407 49.5058 102.8 49.2535 102.345 48.796C102.338 48.7972 96.7672 44.4181 96.9458 40.2876C97.0098 38.8234 97.7401 37.6164 99.1161 36.6978L105.931 33.586C102.462 31.0126 97.5916 28.5659 97.5385 28.5394L97.4516 28.4959L97.2959 28.3849C96.7684 27.8586 96.5161 27.2527 96.5161 26.6069C96.5161 25.9635 96.7672 25.3564 97.2246 24.8989C97.2186 24.8989 101.49 19.495 105.536 19.495C107.066 19.495 108.377 20.247 109.324 21.6689L112.436 28.4838C115.01 25.0136 117.456 20.1456 117.483 20.0925L117.526 20.0068L117.638 19.851C118.165 19.3224 118.77 19.0713 119.416 19.0713C120.061 19.0713 120.668 19.3236 121.124 19.7798C121.131 19.7798 126.7 24.2109 126.523 28.2895C126.459 29.7537 125.729 30.9607 124.353 31.8793L117.538 34.991C121.007 37.5645 125.878 40.0111 125.931 40.0377L126.018 40.0812L126.173 40.1922C126.701 40.7185 126.953 41.3244 126.953 41.9702C126.953 42.6135 126.702 43.2207 126.244 43.6782C126.251 43.6782 121.979 49.0821 117.934 49.0821C116.382 49.0821 115.107 48.3518 114.145 46.9082L111.033 40.0932C108.459 43.5635 106.013 48.4315 105.987 48.4846L105.943 48.5703L105.831 48.726C105.305 49.2535 104.699 49.5058 104.053 49.5058Z" fill="black"/>
<path opacity="0.07" d="M104.053 48.902C103.569 48.902 103.114 48.7137 102.772 48.3709C102.601 48.2381 97.3888 44.0256 97.5494 40.3139C97.6037 39.0525 98.2446 38.006 99.4517 37.2009L107.093 33.7198C103.587 30.9037 97.8716 28.031 97.8101 28.0008L97.7232 27.9573L97.6544 27.8885C97.3116 27.5469 97.1221 27.0919 97.1221 26.6079C97.1221 26.125 97.3104 25.67 97.6532 25.326C97.7811 25.1594 101.872 20.0995 105.538 20.0995C106.875 20.0995 107.981 20.7404 108.823 22.0042L112.304 29.646C115.119 26.1407 117.993 20.4242 118.023 20.3638L118.067 20.2769L118.136 20.2069C118.477 19.8641 118.932 19.6758 119.416 19.6758C119.899 19.6758 120.354 19.8641 120.697 20.2069C120.87 20.3397 126.08 24.5523 125.921 28.2639C125.867 29.5253 125.226 30.5718 124.019 31.3769L116.377 34.858C119.883 37.6741 125.599 40.5468 125.66 40.577L125.747 40.6205L125.816 40.6893C126.159 41.0309 126.348 41.4859 126.348 41.97C126.348 42.4528 126.16 42.9078 125.817 43.2518C125.689 43.4184 121.6 48.4784 117.933 48.4784C117.933 48.4784 117.933 48.4784 117.932 48.4784C116.594 48.4784 115.49 47.8374 114.646 46.5736L111.165 38.9318C108.35 42.4371 105.476 48.1537 105.446 48.214L105.402 48.3009L105.334 48.3709C104.992 48.7137 104.537 48.902 104.053 48.902Z" fill="black"/>
<path d="M125.39 41.1169C125.39 41.1169 118.731 37.7842 115.258 34.7038L123.683 30.8751C128.805 27.4603 120.27 20.6333 120.27 20.6333C119.797 20.1613 119.035 20.1613 118.563 20.6333C118.563 20.6333 115.23 27.2925 112.15 30.7652L108.321 22.34C104.907 17.2185 98.0795 25.7536 98.0795 25.7536C97.6063 26.2255 97.6063 26.9884 98.0795 27.4603C98.0795 27.4603 104.739 30.793 108.211 33.8734L99.7862 37.7021C94.6647 41.1169 103.2 47.9439 103.2 47.9439C103.672 48.4159 104.435 48.4159 104.907 47.9439C104.907 47.9439 108.239 41.2846 111.32 37.812L115.148 46.2371C118.563 51.3586 125.39 42.8236 125.39 42.8236C125.863 42.3517 125.863 41.5888 125.39 41.1169Z" fill="url(#paint70_radial)"/>
<path d="M111.735 40.3244C115.068 40.3244 117.77 37.6223 117.77 34.2891C117.77 30.956 115.068 28.2539 111.735 28.2539C108.402 28.2539 105.7 30.956 105.7 34.2891C105.7 37.6223 108.402 40.3244 111.735 40.3244Z" fill="url(#paint71_radial)"/>
<path d="M111.735 37.9103C109.738 37.9103 108.114 36.2856 108.114 34.2891C108.114 32.2927 109.738 30.668 111.735 30.668C113.731 30.668 115.356 32.2927 115.356 34.2891C115.356 36.2856 113.731 37.9103 111.735 37.9103Z" fill="#51A1A4"/>
</g>
<defs>
<filter id="filter0_d" x="-3" y="0.148438" width="381" height="153.706" filterUnits="userSpaceOnUse" color-interpolation-filters="sRGB">
<feFlood flood-opacity="0" result="BackgroundImageFix"/>
<feColorMatrix in="SourceAlpha" type="matrix" values="0 0 0 0 0 0 0 0 0 0 0 0 0 0 0 0 0 0 127 0" result="hardAlpha"/>
<feOffset/>
<feGaussianBlur stdDeviation="5"/>
<feColorMatrix type="matrix" values="0 0 0 0 0 0 0 0 0 0 0 0 0 0 0 0 0 0 0.1 0"/>
<feBlend mode="normal" in2="BackgroundImageFix" result="effect1_dropShadow"/>
<feBlend mode="normal" in="SourceGraphic" in2="effect1_dropShadow" result="shape"/>
</filter>
<radialGradient id="paint0_radial" cx="0" cy="0" r="1" gradientUnits="userSpaceOnUse" gradientTransform="translate(56.4888 102.813) scale(1.81057)">
<stop/>
<stop offset="1" stop-opacity="0"/>
</radialGradient>
<radialGradient id="paint1_radial" cx="0" cy="0" r="1" gradientUnits="userSpaceOnUse" gradientTransform="translate(51.6607 102.813) scale(1.81057)">
<stop/>
<stop offset="1" stop-opacity="0"/>
</radialGradient>
<radialGradient id="paint2_radial" cx="0" cy="0" r="1" gradientUnits="userSpaceOnUse" gradientTransform="translate(32.4436 110.993) rotate(33.7364) scale(21.8927 20.2222)">
<stop stop-color="white"/>
<stop offset="1" stop-color="#C3C9CD"/>
</radialGradient>
<radialGradient id="paint3_radial" cx="0" cy="0" r="1" gradientUnits="userSpaceOnUse" gradientTransform="translate(32.4436 110.993) rotate(33.7364) scale(21.8927 20.2222)">
<stop stop-color="white"/>
<stop offset="1" stop-color="#C3C9CD"/>
</radialGradient>
<radialGradient id="paint4_radial" cx="0" cy="0" r="1" gradientUnits="userSpaceOnUse" gradientTransform="translate(31.4227 120.775) rotate(9.3176) scale(14.6388 4.83211)">
<stop stop-color="#6C6C6C"/>
<stop offset="1" stop-color="#4A4E52"/>
</radialGradient>
<radialGradient id="paint5_radial" cx="0" cy="0" r="1" gradientUnits="userSpaceOnUse" gradientTransform="translate(43.4361 131.426) rotate(78.5159) scale(6.04636 2.43729)">
<stop stop-color="#6C6C6C"/>
<stop offset="1" stop-color="#4A4E52"/>
</radialGradient>
<radialGradient id="paint6_radial" cx="0" cy="0" r="1" gradientUnits="userSpaceOnUse" gradientTransform="translate(50.6783 132.562) rotate(80.3908) scale(7.21155 2.45219)">
<stop stop-color="#6C6C6C"/>
<stop offset="1" stop-color="#4A4E52"/>
</radialGradient>
<radialGradient id="paint7_radial" cx="0" cy="0" r="1" gradientUnits="userSpaceOnUse" gradientTransform="translate(28.9517 131.426) rotate(78.5159) scale(6.04636 2.43729)">
<stop stop-color="#6C6C6C"/>
<stop offset="1" stop-color="#4A4E52"/>
</radialGradient>
<radialGradient id="paint8_radial" cx="0" cy="0" r="1" gradientUnits="userSpaceOnUse" gradientTransform="translate(36.1939 132.562) rotate(80.3908) scale(7.21156 2.45219)">
<stop stop-color="#6C6C6C"/>
<stop offset="1" stop-color="#4A4E52"/>
</radialGradient>
<radialGradient id="paint9_radial" cx="0" cy="0" r="1" gradientUnits="userSpaceOnUse" gradientTransform="translate(21.7091 132.562) rotate(80.3908) scale(7.21155 2.45219)">
<stop stop-color="#6C6C6C"/>
<stop offset="1" stop-color="#4A4E52"/>
</radialGradient>
<radialGradient id="paint10_radial" cx="0" cy="0" r="1" gradientUnits="userSpaceOnUse" gradientTransform="translate(261.75 56.8378) rotate(50.7603) scale(7.61219 7.70504)">
<stop stop-color="#6C6C6C"/>
<stop offset="1" stop-color="#4A4E52"/>
</radialGradient>
<radialGradient id="paint11_radial" cx="0" cy="0" r="1" gradientUnits="userSpaceOnUse" gradientTransform="translate(263.497 31.0894) scale(19.8197)">
<stop stop-color="#FCFCFC"/>
<stop offset="1" stop-color="#C3C9CD"/>
</radialGradient>
<radialGradient id="paint12_radial" cx="0" cy="0" r="1" gradientUnits="userSpaceOnUse" gradientTransform="translate(185.48 127.663) rotate(52.2618) scale(10.4897)">
<stop stop-color="#6C6C6C"/>
<stop offset="1" stop-color="#4A4E52"/>
</radialGradient>
<radialGradient id="paint13_radial" cx="0" cy="0" r="1" gradientUnits="userSpaceOnUse" gradientTransform="translate(185.146 107.374) rotate(45.0014) scale(17.1944)">
<stop stop-color="white"/>
<stop offset="1" stop-color="#C3C9CD"/>
</radialGradient>
<radialGradient id="paint14_radial" cx="0" cy="0" r="1" gradientUnits="userSpaceOnUse" gradientTransform="translate(181.943 35.6358) rotate(45.1943) scale(25.0541 25.8806)">
<stop stop-color="#6C6C6C"/>
<stop offset="1" stop-color="#4A4E52"/>
</radialGradient>
<radialGradient id="paint15_radial" cx="0" cy="0" r="1" gradientUnits="userSpaceOnUse" gradientTransform="translate(184.295 37.8137) rotate(40.964) scale(21.9182 21.701)">
<stop stop-color="white"/>
<stop offset="1" stop-color="#C3C9CD"/>
</radialGradient>
<radialGradient id="paint16_radial" cx="0" cy="0" r="1" gradientUnits="userSpaceOnUse" gradientTransform="translate(183.964 57.083) rotate(11.9119) scale(11.4828 4.79129)">
<stop stop-color="#6C6C6C"/>
<stop offset="1" stop-color="#4A4E52"/>
</radialGradient>
<radialGradient id="paint17_radial" cx="0" cy="0" r="1" gradientUnits="userSpaceOnUse" gradientTransform="translate(332.126 128.579) rotate(48.8073) scale(15.8413 16.2199)">
<stop stop-color="#6C6C6C"/>
<stop offset="1" stop-color="#4A4E52"/>
</radialGradient>
<radialGradient id="paint18_radial" cx="0" cy="0" r="1" gradientUnits="userSpaceOnUse" gradientTransform="translate(333.647 129.984) rotate(44.3774) scale(12.7359 12.7329)">
<stop stop-color="white"/>
<stop offset="1" stop-color="#C3C9CD"/>
</radialGradient>
<radialGradient id="paint19_radial" cx="0" cy="0" r="1" gradientUnits="userSpaceOnUse" gradientTransform="translate(343.827 99.1546) rotate(37.056) scale(11.9251 11.4695)">
<stop stop-color="white"/>
<stop offset="1" stop-color="#C3C9CD"/>
</radialGradient>
<radialGradient id="paint20_radial" cx="0" cy="0" r="1" gradientUnits="userSpaceOnUse" gradientTransform="translate(353.74 97.2739) rotate(55.8938) scale(2.14685 2.0593)">
<stop stop-color="#6C6C6C"/>
<stop offset="1" stop-color="#4A4E52"/>
</radialGradient>
<radialGradient id="paint21_radial" cx="0" cy="0" r="1" gradientUnits="userSpaceOnUse" gradientTransform="translate(331.757 125.049) scale(10.8103)">
<stop stop-color="#4B4B4B"/>
<stop offset="0.531" stop-color="#393939"/>
<stop offset="1" stop-color="#252525"/>
</radialGradient>
<radialGradient id="paint22_radial" cx="0" cy="0" r="1" gradientUnits="userSpaceOnUse" gradientTransform="translate(333.166 111.383) rotate(39.04) scale(14.9164 14.5947)">
<stop stop-color="white"/>
<stop offset="1" stop-color="#C3C9CD"/>
</radialGradient>
<radialGradient id="paint23_radial" cx="0" cy="0" r="1" gradientUnits="userSpaceOnUse" gradientTransform="translate(259.224 113.6) rotate(58.9536) scale(24.8977 22.7286)">
<stop stop-color="#6C6C6C"/>
<stop offset="1" stop-color="#4A4E52"/>
</radialGradient>
<radialGradient id="paint24_radial" cx="0" cy="0" r="1" gradientUnits="userSpaceOnUse" gradientTransform="translate(261.022 120.734) rotate(48.8637) scale(17.6113 17.4514)">
<stop stop-color="white"/>
<stop offset="1" stop-color="#C3C9CD"/>
</radialGradient>
<radialGradient id="paint25_radial" cx="0" cy="0" r="1" gradientUnits="userSpaceOnUse" gradientTransform="translate(260.701 98.3255) rotate(18.465) scale(13.9594 8.38737)">
<stop stop-color="white"/>
<stop offset="1" stop-color="#C3C9CD"/>
</radialGradient>
<radialGradient id="paint26_radial" cx="0" cy="0" r="1" gradientUnits="userSpaceOnUse" gradientTransform="translate(249.988 97.9844) scale(1.81057)">
<stop/>
<stop offset="1" stop-opacity="0"/>
</radialGradient>
<radialGradient id="paint27_radial" cx="0" cy="0" r="1" gradientUnits="userSpaceOnUse" gradientTransform="translate(253.609 97.9844) scale(1.81057)">
<stop/>
<stop offset="1" stop-opacity="0"/>
</radialGradient>
<radialGradient id="paint28_radial" cx="0" cy="0" r="1" gradientUnits="userSpaceOnUse" gradientTransform="translate(272.922 97.9844) scale(1.81057)">
<stop/>
<stop offset="1" stop-opacity="0"/>
</radialGradient>
<radialGradient id="paint29_radial" cx="0" cy="0" r="1" gradientUnits="userSpaceOnUse" gradientTransform="translate(276.543 97.9844) scale(1.81057)">
<stop/>
<stop offset="1" stop-opacity="0"/>
</radialGradient>
<radialGradient id="paint30_radial" cx="0" cy="0" r="1" gradientUnits="userSpaceOnUse" gradientTransform="translate(255.294 121.996) rotate(85.0099) scale(4.61316 0.825886)">
<stop stop-color="#6C6C6C"/>
<stop offset="1" stop-color="#4A4E52"/>
</radialGradient>
<radialGradient id="paint31_radial" cx="0" cy="0" r="1" gradientUnits="userSpaceOnUse" gradientTransform="translate(254.535 116.436) rotate(62.5145) scale(6.08609 5.14817)">
<stop stop-color="#6C6C6C"/>
<stop offset="1" stop-color="#4A4E52"/>
</radialGradient>
<radialGradient id="paint32_radial" cx="0" cy="0" r="1" gradientUnits="userSpaceOnUse" gradientTransform="translate(254.535 127.521) rotate(11.9119) scale(2.87069 1.19783)">
<stop stop-color="#6C6C6C"/>
<stop offset="1" stop-color="#4A4E52"/>
</radialGradient>
<radialGradient id="paint33_radial" cx="0" cy="0" r="1" gradientUnits="userSpaceOnUse" gradientTransform="translate(254.629 126.278) rotate(25.2566) scale(2.77744 2.21431)">
<stop stop-color="#6C6C6C"/>
<stop offset="1" stop-color="#4A4E52"/>
</radialGradient>
<radialGradient id="paint34_radial" cx="0" cy="0" r="1" gradientUnits="userSpaceOnUse" gradientTransform="translate(263.743 120.49) rotate(86.77) scale(7.12169 0.82771)">
<stop stop-color="#6C6C6C"/>
<stop offset="1" stop-color="#4A4E52"/>
</radialGradient>
<radialGradient id="paint35_radial" cx="0" cy="0" r="1" gradientUnits="userSpaceOnUse" gradientTransform="translate(264.22 120.562) rotate(82.2867) scale(5.97941 1.64305)">
<stop stop-color="#6C6C6C"/>
<stop offset="1" stop-color="#4A4E52"/>
</radialGradient>
<radialGradient id="paint36_radial" cx="0" cy="0" r="1" gradientUnits="userSpaceOnUse" gradientTransform="translate(268.571 120.49) rotate(86.77) scale(7.12169 0.827712)">
<stop stop-color="#6C6C6C"/>
<stop offset="1" stop-color="#4A4E52"/>
</radialGradient>
<radialGradient id="paint37_radial" cx="0" cy="0" r="1" gradientUnits="userSpaceOnUse" gradientTransform="translate(269.048 120.562) rotate(82.2867) scale(5.97941 1.64306)">
<stop stop-color="#6C6C6C"/>
<stop offset="1" stop-color="#4A4E52"/>
</radialGradient>
<radialGradient id="paint38_radial" cx="0" cy="0" r="1" gradientUnits="userSpaceOnUse" gradientTransform="translate(273.399 120.49) rotate(86.77) scale(7.12169 0.827707)">
<stop stop-color="#6C6C6C"/>
<stop offset="1" stop-color="#4A4E52"/>
</radialGradient>
<radialGradient id="paint39_radial" cx="0" cy="0" r="1" gradientUnits="userSpaceOnUse" gradientTransform="translate(273.876 120.562) rotate(82.2867) scale(5.97941 1.64305)">
<stop stop-color="#6C6C6C"/>
<stop offset="1" stop-color="#4A4E52"/>
</radialGradient>
<radialGradient id="paint40_radial" cx="0" cy="0" r="1" gradientUnits="userSpaceOnUse" gradientTransform="translate(33.4055 40.6522) rotate(56.3562) scale(23.899 22.0458)">
<stop stop-color="white"/>
<stop offset="1" stop-color="#C3C9CD"/>
</radialGradient>
<radialGradient id="paint41_radial" cx="0" cy="0" r="1" gradientUnits="userSpaceOnUse" gradientTransform="translate(31.9283 21.9336) rotate(20.2622) scale(13.6876 9.1874)">
<stop stop-color="#6C6C6C"/>
<stop offset="1" stop-color="#4A4E52"/>
</radialGradient>
<radialGradient id="paint42_radial" cx="0" cy="0" r="1" gradientUnits="userSpaceOnUse" gradientTransform="translate(46.1916 22.3893) rotate(33.7363) scale(3.98049 3.67676)">
<stop stop-color="white"/>
<stop offset="1" stop-color="#C3C9CD"/>
</radialGradient>
<radialGradient id="paint43_radial" cx="0" cy="0" r="1" gradientUnits="userSpaceOnUse" gradientTransform="translate(33.9483 43.375) rotate(55.8937) scale(11.4499 10.9829)">
<stop stop-color="#6C6C6C"/>
<stop offset="1" stop-color="#4A4E52"/>
</radialGradient>
<radialGradient id="paint44_radial" cx="0" cy="0" r="1" gradientUnits="userSpaceOnUse" gradientTransform="translate(26.3125 22.2188) scale(1.81057)">
<stop/>
<stop offset="1" stop-opacity="0"/>
</radialGradient>
<radialGradient id="paint45_radial" cx="0" cy="0" r="1" gradientUnits="userSpaceOnUse" gradientTransform="translate(26.1523 22.304) rotate(53.1782) scale(1.38079 1.32491)">
<stop stop-color="white"/>
<stop offset="1" stop-color="#C3C9CD"/>
</radialGradient>
<radialGradient id="paint46_radial" cx="0" cy="0" r="1" gradientUnits="userSpaceOnUse" gradientTransform="translate(31.1411 22.2188) scale(1.81057)">
<stop/>
<stop offset="1" stop-opacity="0"/>
</radialGradient>
<radialGradient id="paint47_radial" cx="0" cy="0" r="1" gradientUnits="userSpaceOnUse" gradientTransform="translate(30.9804 22.304) rotate(53.1782) scale(1.38079 1.3249)">
<stop stop-color="white"/>
<stop offset="1" stop-color="#C3C9CD"/>
</radialGradient>
<radialGradient id="paint48_radial" cx="0" cy="0" r="1" gradientUnits="userSpaceOnUse" gradientTransform="translate(21.4844 22.2188) scale(1.81057)">
<stop/>
<stop offset="1" stop-opacity="0"/>
</radialGradient>
<radialGradient id="paint49_radial" cx="0" cy="0" r="1" gradientUnits="userSpaceOnUse" gradientTransform="translate(21.3246 22.304) rotate(53.1782) scale(1.38079 1.32491)">
<stop stop-color="white"/>
<stop offset="1" stop-color="#C3C9CD"/>
</radialGradient>
<radialGradient id="paint50_radial" cx="0" cy="0" r="1" gradientUnits="userSpaceOnUse" gradientTransform="translate(44.098 44.1159) rotate(53.1782) scale(2.76158 2.64981)">
<stop stop-color="white"/>
<stop offset="1" stop-color="#C3C9CD"/>
</radialGradient>
<radialGradient id="paint51_radial" cx="0" cy="0" r="1" gradientUnits="userSpaceOnUse" gradientTransform="translate(333.979 37.6915) rotate(55.8938) scale(28.6247 27.4574)">
<stop stop-color="#6C6C6C"/>
<stop offset="1" stop-color="#4A4E52"/>
</radialGradient>
<radialGradient id="paint52_radial" cx="0" cy="0" r="1" gradientUnits="userSpaceOnUse" gradientTransform="translate(339.031 39.1175) scale(22.3304)">
<stop/>
<stop offset="1" stop-opacity="0"/>
</radialGradient>
<radialGradient id="paint53_radial" cx="0" cy="0" r="1" gradientUnits="userSpaceOnUse" gradientTransform="translate(336.306 40.5669) rotate(53.1782) scale(23.4734 22.5234)">
<stop stop-color="white"/>
<stop offset="1" stop-color="#C3C9CD"/>
</radialGradient>
<radialGradient id="paint54_radial" cx="0" cy="0" r="1" gradientUnits="userSpaceOnUse" gradientTransform="translate(338.841 44.7424) rotate(84.9521) scale(6.84064 1.23872)">
<stop stop-color="#6C6C6C"/>
<stop offset="1" stop-color="#4A4E52"/>
</radialGradient>
<radialGradient id="paint55_radial" cx="0" cy="0" r="1" gradientUnits="userSpaceOnUse" gradientTransform="translate(342.891 33.6404) rotate(55.8944) scale(7.14592 6.85444)">
<stop stop-color="#6C6C6C"/>
<stop offset="1" stop-color="#4A4E52"/>
</radialGradient>
<radialGradient id="paint56_radial" cx="0" cy="0" r="1" gradientUnits="userSpaceOnUse" gradientTransform="translate(338.526 38.9746) rotate(55.8937) scale(2.86247 2.74574)">
<stop stop-color="#6C6C6C"/>
<stop offset="1" stop-color="#4A4E52"/>
</radialGradient>
<radialGradient id="paint57_radial" cx="0" cy="0" r="1" gradientUnits="userSpaceOnUse" gradientTransform="translate(109.331 116.418) rotate(58.0397) scale(23.4506 21.0631)">
<stop stop-color="white"/>
<stop offset="1" stop-color="#C3C9CD"/>
</radialGradient>
<radialGradient id="paint58_radial" cx="0" cy="0" r="1" gradientUnits="userSpaceOnUse" gradientTransform="translate(107.693 116.019) rotate(5.27292) scale(12.8951 2.438)">
<stop stop-color="#6C6C6C"/>
<stop offset="1" stop-color="#4A4E52"/>
</radialGradient>
<radialGradient id="paint59_radial" cx="0" cy="0" r="1" gradientUnits="userSpaceOnUse" gradientTransform="translate(109.171 113.762) rotate(4.77194) scale(13.2868 2.20299)">
<stop stop-color="white"/>
<stop offset="1" stop-color="#C3C9CD"/>
</radialGradient>
<radialGradient id="paint60_radial" cx="0" cy="0" r="1" gradientUnits="userSpaceOnUse" gradientTransform="translate(107.693 111.19) rotate(5.27292) scale(12.8951 2.438)">
<stop stop-color="#6C6C6C"/>
<stop offset="1" stop-color="#4A4E52"/>
</radialGradient>
<radialGradient id="paint61_radial" cx="0" cy="0" r="1" gradientUnits="userSpaceOnUse" gradientTransform="translate(109.171 108.933) rotate(4.77194) scale(13.2868 2.20299)">
<stop stop-color="white"/>
<stop offset="1" stop-color="#C3C9CD"/>
</radialGradient>
<radialGradient id="paint62_radial" cx="0" cy="0" r="1" gradientUnits="userSpaceOnUse" gradientTransform="translate(107.693 106.363) rotate(5.27292) scale(12.8951 2.438)">
<stop stop-color="#6C6C6C"/>
<stop offset="1" stop-color="#4A4E52"/>
</radialGradient>
<radialGradient id="paint63_radial" cx="0" cy="0" r="1" gradientUnits="userSpaceOnUse" gradientTransform="translate(109.171 104.105) rotate(4.77195) scale(13.2868 2.20299)">
<stop stop-color="white"/>
<stop offset="1" stop-color="#C3C9CD"/>
</radialGradient>
<radialGradient id="paint64_radial" cx="0" cy="0" r="1" gradientUnits="userSpaceOnUse" gradientTransform="translate(107.693 101.534) rotate(5.27292) scale(12.8951 2.438)">
<stop stop-color="#6C6C6C"/>
<stop offset="1" stop-color="#4A4E52"/>
</radialGradient>
<radialGradient id="paint65_radial" cx="0" cy="0" r="1" gradientUnits="userSpaceOnUse" gradientTransform="translate(109.171 99.2777) rotate(4.77195) scale(13.2868 2.20299)">
<stop stop-color="white"/>
<stop offset="1" stop-color="#C3C9CD"/>
</radialGradient>
<radialGradient id="paint66_radial" cx="0" cy="0" r="1" gradientUnits="userSpaceOnUse" gradientTransform="translate(107.188 95.4277) rotate(9.31761) scale(14.6388 4.83212)">
<stop stop-color="#6C6C6C"/>
<stop offset="1" stop-color="#4A4E52"/>
</radialGradient>
<radialGradient id="paint67_radial" cx="0" cy="0" r="1" gradientUnits="userSpaceOnUse" gradientTransform="translate(108.956 59.4229) rotate(21.9357) scale(9.51688 6.81333)">
<stop stop-color="#6C6C6C"/>
<stop offset="1" stop-color="#4A4E52"/>
</radialGradient>
<radialGradient id="paint68_radial" cx="0" cy="0" r="1" gradientUnits="userSpaceOnUse" gradientTransform="translate(111.23 54.7362) rotate(51.1824) scale(2.56056 2.58373)">
<stop stop-color="#6C6C6C"/>
<stop offset="1" stop-color="#4A4E52"/>
</radialGradient>
<radialGradient id="paint69_radial" cx="0" cy="0" r="1" gradientUnits="userSpaceOnUse" gradientTransform="translate(109.171 35.6535) rotate(53.1782) scale(22.0926 21.1985)">
<stop stop-color="white"/>
<stop offset="1" stop-color="#C3C9CD"/>
</radialGradient>
<radialGradient id="paint70_radial" cx="0" cy="0" r="1" gradientUnits="userSpaceOnUse" gradientTransform="translate(108.803 33.461) rotate(55.892) scale(16.6116 15.9346)">
<stop stop-color="#6C6C6C"/>
<stop offset="1" stop-color="#4A4E52"/>
</radialGradient>
<radialGradient id="paint71_radial" cx="0" cy="0" r="1" gradientUnits="userSpaceOnUse" gradientTransform="translate(111.735 34.2891) scale(4.4697)">
<stop/>
<stop offset="0.979" stop-opacity="0"/>
</radialGradient>
</defs>
</svg>
