<svg width="249" height="27" viewBox="0 0 249 27" fill="none" xmlns="http://www.w3.org/2000/svg">
<path d="M28.486 11.036C28.486 12.116 28.132 12.986 27.424 13.646C26.716 14.306 25.654 14.636 24.238 14.636H21.7V20H20.44V7.418H24.238C25.642 7.418 26.698 7.748 27.406 8.408C28.126 9.068 28.486 9.944 28.486 11.036ZM24.238 13.556C26.206 13.556 27.19 12.716 27.19 11.036C27.19 10.196 26.956 9.56 26.488 9.128C26.02 8.696 25.27 8.48 24.238 8.48H21.7V13.556H24.238ZM39.7422 14.582C39.7422 15.014 39.7302 15.344 39.7062 15.572H31.5522C31.5882 16.316 31.7682 16.952 32.0922 17.48C32.4162 18.008 32.8422 18.41 33.3702 18.686C33.8982 18.95 34.4742 19.082 35.0982 19.082C35.9142 19.082 36.5982 18.884 37.1502 18.488C37.7142 18.092 38.0862 17.558 38.2662 16.886H39.5982C39.3582 17.846 38.8422 18.632 38.0502 19.244C37.2702 19.844 36.2862 20.144 35.0982 20.144C34.1742 20.144 33.3462 19.94 32.6142 19.532C31.8822 19.112 31.3062 18.524 30.8862 17.768C30.4782 17 30.2742 16.106 30.2742 15.086C30.2742 14.066 30.4782 13.172 30.8862 12.404C31.2942 11.636 31.8642 11.048 32.5962 10.64C33.3282 10.232 34.1622 10.028 35.0982 10.028C36.0342 10.028 36.8502 10.232 37.5462 10.64C38.2542 11.048 38.7942 11.6 39.1662 12.296C39.5502 12.98 39.7422 13.742 39.7422 14.582ZM38.4642 14.546C38.4762 13.814 38.3262 13.19 38.0142 12.674C37.7142 12.158 37.3002 11.768 36.7722 11.504C36.2442 11.24 35.6682 11.108 35.0442 11.108C34.1082 11.108 33.3102 11.408 32.6502 12.008C31.9902 12.608 31.6242 13.454 31.5522 14.546H38.4642ZM43.5574 11.918C43.8334 11.306 44.2534 10.832 44.8174 10.496C45.3934 10.16 46.0954 9.992 46.9234 9.992V11.306H46.5814C45.6694 11.306 44.9374 11.552 44.3854 12.044C43.8334 12.536 43.5574 13.358 43.5574 14.51V20H42.2974V10.172H43.5574V11.918ZM52.4529 20.144C51.3249 20.144 50.4009 19.886 49.6809 19.37C48.9729 18.842 48.5769 18.128 48.4929 17.228H49.7889C49.8489 17.78 50.1069 18.23 50.5629 18.578C51.0309 18.914 51.6549 19.082 52.4349 19.082C53.1189 19.082 53.6529 18.92 54.0369 18.596C54.4329 18.272 54.6309 17.87 54.6309 17.39C54.6309 17.054 54.5229 16.778 54.3069 16.562C54.0909 16.346 53.8149 16.178 53.4789 16.058C53.1549 15.926 52.7109 15.788 52.1469 15.644C51.4149 15.452 50.8209 15.26 50.3649 15.068C49.9089 14.876 49.5189 14.594 49.1949 14.222C48.8829 13.838 48.7269 13.328 48.7269 12.692C48.7269 12.212 48.8709 11.768 49.1589 11.36C49.4469 10.952 49.8549 10.628 50.3829 10.388C50.9109 10.148 51.5109 10.028 52.1829 10.028C53.2389 10.028 54.0909 10.298 54.7389 10.838C55.3869 11.366 55.7349 12.098 55.7829 13.034H54.5229C54.4869 12.458 54.2589 11.996 53.8389 11.648C53.4309 11.288 52.8669 11.108 52.1469 11.108C51.5109 11.108 50.9949 11.258 50.5989 11.558C50.2029 11.858 50.0049 12.23 50.0049 12.674C50.0049 13.058 50.1189 13.376 50.3469 13.628C50.5869 13.868 50.8809 14.06 51.2289 14.204C51.5769 14.336 52.0449 14.486 52.6329 14.654C53.3409 14.846 53.9049 15.032 54.3249 15.212C54.7449 15.392 55.1049 15.656 55.4049 16.004C55.7049 16.352 55.8609 16.814 55.8729 17.39C55.8729 17.918 55.7289 18.392 55.4409 18.812C55.1529 19.22 54.7509 19.544 54.2349 19.784C53.7189 20.024 53.1249 20.144 52.4529 20.144ZM62.7967 20.144C61.8727 20.144 61.0387 19.94 60.2947 19.532C59.5627 19.112 58.9807 18.524 58.5487 17.768C58.1287 17 57.9187 16.106 57.9187 15.086C57.9187 14.066 58.1347 13.178 58.5667 12.422C58.9987 11.654 59.5867 11.066 60.3307 10.658C61.0747 10.238 61.9087 10.028 62.8327 10.028C63.7567 10.028 64.5907 10.238 65.3347 10.658C66.0907 11.066 66.6787 11.654 67.0987 12.422C67.5307 13.178 67.7467 14.066 67.7467 15.086C67.7467 16.094 67.5307 16.982 67.0987 17.75C66.6667 18.518 66.0727 19.112 65.3167 19.532C64.5607 19.94 63.7207 20.144 62.7967 20.144ZM62.7967 19.046C63.4447 19.046 64.0447 18.902 64.5967 18.614C65.1487 18.314 65.5927 17.87 65.9287 17.282C66.2767 16.682 66.4507 15.95 66.4507 15.086C66.4507 14.222 66.2827 13.496 65.9467 12.908C65.6107 12.308 65.1667 11.864 64.6147 11.576C64.0627 11.276 63.4627 11.126 62.8147 11.126C62.1667 11.126 61.5667 11.276 61.0147 11.576C60.4627 11.864 60.0187 12.308 59.6827 12.908C59.3587 13.496 59.1967 14.222 59.1967 15.086C59.1967 15.95 59.3587 16.682 59.6827 17.282C60.0187 17.87 60.4567 18.314 60.9967 18.614C61.5487 18.902 62.1487 19.046 62.7967 19.046ZM74.9015 9.992C76.0775 9.992 77.0375 10.358 77.7815 11.09C78.5255 11.81 78.8975 12.86 78.8975 14.24V20H77.6555V14.384C77.6555 13.316 77.3855 12.5 76.8455 11.936C76.3175 11.372 75.5915 11.09 74.6675 11.09C73.7195 11.09 72.9635 11.39 72.3995 11.99C71.8355 12.59 71.5535 13.472 71.5535 14.636V20H70.2935V10.172H71.5535V11.846C71.8655 11.246 72.3155 10.79 72.9035 10.478C73.4915 10.154 74.1575 9.992 74.9015 9.992ZM81.3581 15.068C81.3581 14.06 81.5561 13.178 81.9521 12.422C82.3601 11.654 82.9181 11.066 83.6261 10.658C84.3461 10.238 85.1561 10.028 86.0561 10.028C86.9921 10.028 87.7961 10.244 88.4681 10.676C89.1521 11.108 89.6441 11.66 89.9441 12.332V10.172H91.2041V20H89.9441V17.822C89.6321 18.494 89.1341 19.052 88.4501 19.496C87.7781 19.928 86.9741 20.144 86.0381 20.144C85.1501 20.144 84.3461 19.934 83.6261 19.514C82.9181 19.094 82.3601 18.5 81.9521 17.732C81.5561 16.964 81.3581 16.076 81.3581 15.068ZM89.9441 15.086C89.9441 14.294 89.7821 13.598 89.4581 12.998C89.1341 12.398 88.6901 11.936 88.1261 11.612C87.5741 11.288 86.9621 11.126 86.2901 11.126C85.5941 11.126 84.9701 11.282 84.4181 11.594C83.8661 11.906 83.4281 12.362 83.1041 12.962C82.7921 13.55 82.6361 14.252 82.6361 15.068C82.6361 15.872 82.7921 16.58 83.1041 17.192C83.4281 17.792 83.8661 18.254 84.4181 18.578C84.9701 18.89 85.5941 19.046 86.2901 19.046C86.9621 19.046 87.5741 18.884 88.1261 18.56C88.6901 18.236 89.1341 17.774 89.4581 17.174C89.7821 16.574 89.9441 15.878 89.9441 15.086ZM99.2501 13.43C99.2501 11.366 99.5681 9.764 100.204 8.624C100.84 7.484 101.98 6.914 103.624 6.914C105.268 6.914 106.408 7.484 107.044 8.624C107.68 9.764 107.998 11.366 107.998 13.43C107.998 15.53 107.68 17.156 107.044 18.308C106.408 19.46 105.268 20.036 103.624 20.036C101.968 20.036 100.822 19.46 100.186 18.308C99.5621 17.156 99.2501 15.53 99.2501 13.43ZM106.756 13.43C106.756 12.314 106.678 11.372 106.522 10.604C106.366 9.836 106.06 9.218 105.604 8.75C105.148 8.282 104.488 8.048 103.624 8.048C102.76 8.048 102.1 8.282 101.644 8.75C101.188 9.218 100.882 9.836 100.726 10.604C100.57 11.372 100.492 12.314 100.492 13.43C100.492 14.582 100.57 15.548 100.726 16.328C100.882 17.096 101.188 17.714 101.644 18.182C102.1 18.65 102.76 18.884 103.624 18.884C104.488 18.884 105.148 18.65 105.604 18.182C106.06 17.714 106.366 17.096 106.522 16.328C106.678 15.548 106.756 14.582 106.756 13.43ZM110.34 19.01C112.548 17.354 114.252 15.872 115.452 14.564C116.664 13.244 117.27 11.954 117.27 10.694C117.27 9.866 117.06 9.206 116.64 8.714C116.232 8.21 115.56 7.958 114.624 7.958C113.712 7.958 113.004 8.246 112.5 8.822C112.008 9.386 111.732 10.142 111.672 11.09H110.448C110.52 9.758 110.928 8.726 111.672 7.994C112.428 7.25 113.412 6.878 114.624 6.878C115.788 6.878 116.73 7.208 117.45 7.868C118.17 8.516 118.53 9.44 118.53 10.64C118.53 12.092 117.924 13.502 116.712 14.87C115.512 16.226 114.03 17.552 112.266 18.848H118.926V19.91H110.34V19.01ZM128.15 21.8H126.89V5.78H128.15V21.8ZM142.549 7.418V16.94C142.549 17.9 142.255 18.674 141.667 19.262C141.079 19.838 140.293 20.126 139.309 20.126C138.289 20.126 137.473 19.82 136.861 19.208C136.261 18.584 135.961 17.744 135.961 16.688H137.239C137.251 17.372 137.419 17.93 137.743 18.362C138.079 18.794 138.601 19.01 139.309 19.01C139.981 19.01 140.479 18.812 140.803 18.416C141.127 18.02 141.289 17.528 141.289 16.94V7.418H142.549ZM145.391 15.068C145.391 14.06 145.589 13.178 145.985 12.422C146.393 11.654 146.951 11.066 147.659 10.658C148.379 10.238 149.189 10.028 150.089 10.028C151.025 10.028 151.829 10.244 152.501 10.676C153.185 11.108 153.677 11.66 153.977 12.332V10.172H155.237V20H153.977V17.822C153.665 18.494 153.167 19.052 152.483 19.496C151.811 19.928 151.007 20.144 150.071 20.144C149.183 20.144 148.379 19.934 147.659 19.514C146.951 19.094 146.393 18.5 145.985 17.732C145.589 16.964 145.391 16.076 145.391 15.068ZM153.977 15.086C153.977 14.294 153.815 13.598 153.491 12.998C153.167 12.398 152.723 11.936 152.159 11.612C151.607 11.288 150.995 11.126 150.323 11.126C149.627 11.126 149.003 11.282 148.451 11.594C147.899 11.906 147.461 12.362 147.137 12.962C146.825 13.55 146.669 14.252 146.669 15.068C146.669 15.872 146.825 16.58 147.137 17.192C147.461 17.792 147.899 18.254 148.451 18.578C149.003 18.89 149.627 19.046 150.323 19.046C150.995 19.046 151.607 18.884 152.159 18.56C152.723 18.236 153.167 17.774 153.491 17.174C153.815 16.574 153.977 15.878 153.977 15.086ZM170.064 9.992C171.216 9.992 172.152 10.358 172.872 11.09C173.604 11.81 173.97 12.86 173.97 14.24V20H172.728V14.384C172.728 13.316 172.47 12.5 171.954 11.936C171.438 11.372 170.736 11.09 169.848 11.09C168.924 11.09 168.186 11.396 167.634 12.008C167.082 12.62 166.806 13.508 166.806 14.672V20H165.564V14.384C165.564 13.316 165.306 12.5 164.79 11.936C164.274 11.372 163.566 11.09 162.666 11.09C161.742 11.09 161.004 11.396 160.452 12.008C159.9 12.62 159.624 13.508 159.624 14.672V20H158.364V10.172H159.624V11.864C159.936 11.252 160.38 10.79 160.956 10.478C161.532 10.154 162.174 9.992 162.882 9.992C163.734 9.992 164.478 10.196 165.114 10.604C165.762 11.012 166.23 11.612 166.518 12.404C166.782 11.624 167.232 11.03 167.868 10.622C168.516 10.202 169.248 9.992 170.064 9.992ZM185.91 14.582C185.91 15.014 185.898 15.344 185.874 15.572H177.72C177.756 16.316 177.936 16.952 178.26 17.48C178.584 18.008 179.01 18.41 179.538 18.686C180.066 18.95 180.642 19.082 181.266 19.082C182.082 19.082 182.766 18.884 183.318 18.488C183.882 18.092 184.254 17.558 184.434 16.886H185.766C185.526 17.846 185.01 18.632 184.218 19.244C183.438 19.844 182.454 20.144 181.266 20.144C180.342 20.144 179.514 19.94 178.782 19.532C178.05 19.112 177.474 18.524 177.054 17.768C176.646 17 176.442 16.106 176.442 15.086C176.442 14.066 176.646 13.172 177.054 12.404C177.462 11.636 178.032 11.048 178.764 10.64C179.496 10.232 180.33 10.028 181.266 10.028C182.202 10.028 183.018 10.232 183.714 10.64C184.422 11.048 184.962 11.6 185.334 12.296C185.718 12.98 185.91 13.742 185.91 14.582ZM184.632 14.546C184.644 13.814 184.494 13.19 184.182 12.674C183.882 12.158 183.468 11.768 182.94 11.504C182.412 11.24 181.836 11.108 181.212 11.108C180.276 11.108 179.478 11.408 178.818 12.008C178.158 12.608 177.792 13.454 177.72 14.546H184.632ZM191.849 20.144C190.721 20.144 189.797 19.886 189.077 19.37C188.369 18.842 187.973 18.128 187.889 17.228H189.185C189.245 17.78 189.503 18.23 189.959 18.578C190.427 18.914 191.051 19.082 191.831 19.082C192.515 19.082 193.049 18.92 193.433 18.596C193.829 18.272 194.027 17.87 194.027 17.39C194.027 17.054 193.919 16.778 193.703 16.562C193.487 16.346 193.211 16.178 192.875 16.058C192.551 15.926 192.107 15.788 191.543 15.644C190.811 15.452 190.217 15.26 189.761 15.068C189.305 14.876 188.915 14.594 188.591 14.222C188.279 13.838 188.123 13.328 188.123 12.692C188.123 12.212 188.267 11.768 188.555 11.36C188.843 10.952 189.251 10.628 189.779 10.388C190.307 10.148 190.907 10.028 191.579 10.028C192.635 10.028 193.487 10.298 194.135 10.838C194.783 11.366 195.131 12.098 195.179 13.034H193.919C193.883 12.458 193.655 11.996 193.235 11.648C192.827 11.288 192.263 11.108 191.543 11.108C190.907 11.108 190.391 11.258 189.995 11.558C189.599 11.858 189.401 12.23 189.401 12.674C189.401 13.058 189.515 13.376 189.743 13.628C189.983 13.868 190.277 14.06 190.625 14.204C190.973 14.336 191.441 14.486 192.029 14.654C192.737 14.846 193.301 15.032 193.721 15.212C194.141 15.392 194.501 15.656 194.801 16.004C195.101 16.352 195.257 16.814 195.269 17.39C195.269 17.918 195.125 18.392 194.837 18.812C194.549 19.22 194.147 19.544 193.631 19.784C193.115 20.024 192.521 20.144 191.849 20.144ZM215.375 7.58V20H214.115V10.082L209.687 20H208.769L204.341 10.118V20H203.081V7.58H204.413L209.219 18.344L214.025 7.58H215.375ZM219.113 8.318C218.861 8.318 218.645 8.228 218.465 8.048C218.285 7.868 218.195 7.646 218.195 7.382C218.195 7.118 218.285 6.902 218.465 6.734C218.645 6.554 218.861 6.464 219.113 6.464C219.365 6.464 219.581 6.554 219.761 6.734C219.941 6.902 220.031 7.118 220.031 7.382C220.031 7.646 219.941 7.868 219.761 8.048C219.581 8.228 219.365 8.318 219.113 8.318ZM219.743 10.172V20H218.483V10.172H219.743ZM224.106 6.68V20H222.846V6.68H224.106ZM228.47 6.68V20H227.21V6.68H228.47ZM240.465 14.582C240.465 15.014 240.453 15.344 240.429 15.572H232.275C232.311 16.316 232.491 16.952 232.815 17.48C233.139 18.008 233.565 18.41 234.093 18.686C234.621 18.95 235.197 19.082 235.821 19.082C236.637 19.082 237.321 18.884 237.873 18.488C238.437 18.092 238.809 17.558 238.989 16.886H240.321C240.081 17.846 239.565 18.632 238.773 19.244C237.993 19.844 237.009 20.144 235.821 20.144C234.897 20.144 234.069 19.94 233.337 19.532C232.605 19.112 232.029 18.524 231.609 17.768C231.201 17 230.997 16.106 230.997 15.086C230.997 14.066 231.201 13.172 231.609 12.404C232.017 11.636 232.587 11.048 233.319 10.64C234.051 10.232 234.885 10.028 235.821 10.028C236.757 10.028 237.573 10.232 238.269 10.64C238.977 11.048 239.517 11.6 239.889 12.296C240.273 12.98 240.465 13.742 240.465 14.582ZM239.187 14.546C239.199 13.814 239.049 13.19 238.737 12.674C238.437 12.158 238.023 11.768 237.495 11.504C236.967 11.24 236.391 11.108 235.767 11.108C234.831 11.108 234.033 11.408 233.373 12.008C232.713 12.608 232.347 13.454 232.275 14.546H239.187ZM244.28 11.918C244.556 11.306 244.976 10.832 245.54 10.496C246.116 10.16 246.818 9.992 247.646 9.992V11.306H247.304C246.392 11.306 245.66 11.552 245.108 12.044C244.556 12.536 244.28 13.358 244.28 14.51V20H243.02V10.172H244.28V11.918Z" fill="#272727"/>
<path d="M0 12.6016H16.5" stroke="#272727" stroke-linecap="round"/>
</svg>
