<svg width="253" height="27" viewBox="0 0 253 27" fill="none" xmlns="http://www.w3.org/2000/svg">
<path d="M28.486 11.036C28.486 12.116 28.132 12.986 27.424 13.646C26.716 14.306 25.654 14.636 24.238 14.636H21.7V20H20.44V7.418H24.238C25.642 7.418 26.698 7.748 27.406 8.408C28.126 9.068 28.486 9.944 28.486 11.036ZM24.238 13.556C26.206 13.556 27.19 12.716 27.19 11.036C27.19 10.196 26.956 9.56 26.488 9.128C26.02 8.696 25.27 8.48 24.238 8.48H21.7V13.556H24.238ZM39.7422 14.582C39.7422 15.014 39.7302 15.344 39.7062 15.572H31.5522C31.5882 16.316 31.7682 16.952 32.0922 17.48C32.4162 18.008 32.8422 18.41 33.3702 18.686C33.8982 18.95 34.4742 19.082 35.0982 19.082C35.9142 19.082 36.5982 18.884 37.1502 18.488C37.7142 18.092 38.0862 17.558 38.2662 16.886H39.5982C39.3582 17.846 38.8422 18.632 38.0502 19.244C37.2702 19.844 36.2862 20.144 35.0982 20.144C34.1742 20.144 33.3462 19.94 32.6142 19.532C31.8822 19.112 31.3062 18.524 30.8862 17.768C30.4782 17 30.2742 16.106 30.2742 15.086C30.2742 14.066 30.4782 13.172 30.8862 12.404C31.2942 11.636 31.8642 11.048 32.5962 10.64C33.3282 10.232 34.1622 10.028 35.0982 10.028C36.0342 10.028 36.8502 10.232 37.5462 10.64C38.2542 11.048 38.7942 11.6 39.1662 12.296C39.5502 12.98 39.7422 13.742 39.7422 14.582ZM38.4642 14.546C38.4762 13.814 38.3262 13.19 38.0142 12.674C37.7142 12.158 37.3002 11.768 36.7722 11.504C36.2442 11.24 35.6682 11.108 35.0442 11.108C34.1082 11.108 33.3102 11.408 32.6502 12.008C31.9902 12.608 31.6242 13.454 31.5522 14.546H38.4642ZM43.5574 11.918C43.8334 11.306 44.2534 10.832 44.8174 10.496C45.3934 10.16 46.0954 9.992 46.9234 9.992V11.306H46.5814C45.6694 11.306 44.9374 11.552 44.3854 12.044C43.8334 12.536 43.5574 13.358 43.5574 14.51V20H42.2974V10.172H43.5574V11.918ZM52.4529 20.144C51.3249 20.144 50.4009 19.886 49.6809 19.37C48.9729 18.842 48.5769 18.128 48.4929 17.228H49.7889C49.8489 17.78 50.1069 18.23 50.5629 18.578C51.0309 18.914 51.6549 19.082 52.4349 19.082C53.1189 19.082 53.6529 18.92 54.0369 18.596C54.4329 18.272 54.6309 17.87 54.6309 17.39C54.6309 17.054 54.5229 16.778 54.3069 16.562C54.0909 16.346 53.8149 16.178 53.4789 16.058C53.1549 15.926 52.7109 15.788 52.1469 15.644C51.4149 15.452 50.8209 15.26 50.3649 15.068C49.9089 14.876 49.5189 14.594 49.1949 14.222C48.8829 13.838 48.7269 13.328 48.7269 12.692C48.7269 12.212 48.8709 11.768 49.1589 11.36C49.4469 10.952 49.8549 10.628 50.3829 10.388C50.9109 10.148 51.5109 10.028 52.1829 10.028C53.2389 10.028 54.0909 10.298 54.7389 10.838C55.3869 11.366 55.7349 12.098 55.7829 13.034H54.5229C54.4869 12.458 54.2589 11.996 53.8389 11.648C53.4309 11.288 52.8669 11.108 52.1469 11.108C51.5109 11.108 50.9949 11.258 50.5989 11.558C50.2029 11.858 50.0049 12.23 50.0049 12.674C50.0049 13.058 50.1189 13.376 50.3469 13.628C50.5869 13.868 50.8809 14.06 51.2289 14.204C51.5769 14.336 52.0449 14.486 52.6329 14.654C53.3409 14.846 53.9049 15.032 54.3249 15.212C54.7449 15.392 55.1049 15.656 55.4049 16.004C55.7049 16.352 55.8609 16.814 55.8729 17.39C55.8729 17.918 55.7289 18.392 55.4409 18.812C55.1529 19.22 54.7509 19.544 54.2349 19.784C53.7189 20.024 53.1249 20.144 52.4529 20.144ZM62.7967 20.144C61.8727 20.144 61.0387 19.94 60.2947 19.532C59.5627 19.112 58.9807 18.524 58.5487 17.768C58.1287 17 57.9187 16.106 57.9187 15.086C57.9187 14.066 58.1347 13.178 58.5667 12.422C58.9987 11.654 59.5867 11.066 60.3307 10.658C61.0747 10.238 61.9087 10.028 62.8327 10.028C63.7567 10.028 64.5907 10.238 65.3347 10.658C66.0907 11.066 66.6787 11.654 67.0987 12.422C67.5307 13.178 67.7467 14.066 67.7467 15.086C67.7467 16.094 67.5307 16.982 67.0987 17.75C66.6667 18.518 66.0727 19.112 65.3167 19.532C64.5607 19.94 63.7207 20.144 62.7967 20.144ZM62.7967 19.046C63.4447 19.046 64.0447 18.902 64.5967 18.614C65.1487 18.314 65.5927 17.87 65.9287 17.282C66.2767 16.682 66.4507 15.95 66.4507 15.086C66.4507 14.222 66.2827 13.496 65.9467 12.908C65.6107 12.308 65.1667 11.864 64.6147 11.576C64.0627 11.276 63.4627 11.126 62.8147 11.126C62.1667 11.126 61.5667 11.276 61.0147 11.576C60.4627 11.864 60.0187 12.308 59.6827 12.908C59.3587 13.496 59.1967 14.222 59.1967 15.086C59.1967 15.95 59.3587 16.682 59.6827 17.282C60.0187 17.87 60.4567 18.314 60.9967 18.614C61.5487 18.902 62.1487 19.046 62.7967 19.046ZM74.9015 9.992C76.0775 9.992 77.0375 10.358 77.7815 11.09C78.5255 11.81 78.8975 12.86 78.8975 14.24V20H77.6555V14.384C77.6555 13.316 77.3855 12.5 76.8455 11.936C76.3175 11.372 75.5915 11.09 74.6675 11.09C73.7195 11.09 72.9635 11.39 72.3995 11.99C71.8355 12.59 71.5535 13.472 71.5535 14.636V20H70.2935V10.172H71.5535V11.846C71.8655 11.246 72.3155 10.79 72.9035 10.478C73.4915 10.154 74.1575 9.992 74.9015 9.992ZM81.3581 15.068C81.3581 14.06 81.5561 13.178 81.9521 12.422C82.3601 11.654 82.9181 11.066 83.6261 10.658C84.3461 10.238 85.1561 10.028 86.0561 10.028C86.9921 10.028 87.7961 10.244 88.4681 10.676C89.1521 11.108 89.6441 11.66 89.9441 12.332V10.172H91.2041V20H89.9441V17.822C89.6321 18.494 89.1341 19.052 88.4501 19.496C87.7781 19.928 86.9741 20.144 86.0381 20.144C85.1501 20.144 84.3461 19.934 83.6261 19.514C82.9181 19.094 82.3601 18.5 81.9521 17.732C81.5561 16.964 81.3581 16.076 81.3581 15.068ZM89.9441 15.086C89.9441 14.294 89.7821 13.598 89.4581 12.998C89.1341 12.398 88.6901 11.936 88.1261 11.612C87.5741 11.288 86.9621 11.126 86.2901 11.126C85.5941 11.126 84.9701 11.282 84.4181 11.594C83.8661 11.906 83.4281 12.362 83.1041 12.962C82.7921 13.55 82.6361 14.252 82.6361 15.068C82.6361 15.872 82.7921 16.58 83.1041 17.192C83.4281 17.792 83.8661 18.254 84.4181 18.578C84.9701 18.89 85.5941 19.046 86.2901 19.046C86.9621 19.046 87.5741 18.884 88.1261 18.56C88.6901 18.236 89.1341 17.774 89.4581 17.174C89.7821 16.574 89.9441 15.878 89.9441 15.086ZM99.2501 13.43C99.2501 11.366 99.5681 9.764 100.204 8.624C100.84 7.484 101.98 6.914 103.624 6.914C105.268 6.914 106.408 7.484 107.044 8.624C107.68 9.764 107.998 11.366 107.998 13.43C107.998 15.53 107.68 17.156 107.044 18.308C106.408 19.46 105.268 20.036 103.624 20.036C101.968 20.036 100.822 19.46 100.186 18.308C99.5621 17.156 99.2501 15.53 99.2501 13.43ZM106.756 13.43C106.756 12.314 106.678 11.372 106.522 10.604C106.366 9.836 106.06 9.218 105.604 8.75C105.148 8.282 104.488 8.048 103.624 8.048C102.76 8.048 102.1 8.282 101.644 8.75C101.188 9.218 100.882 9.836 100.726 10.604C100.57 11.372 100.492 12.314 100.492 13.43C100.492 14.582 100.57 15.548 100.726 16.328C100.882 17.096 101.188 17.714 101.644 18.182C102.1 18.65 102.76 18.884 103.624 18.884C104.488 18.884 105.148 18.65 105.604 18.182C106.06 17.714 106.366 17.096 106.522 16.328C106.678 15.548 106.756 14.582 106.756 13.43ZM109.98 8.228V7.094H113.04V20H111.762V8.228H109.98ZM123.105 21.8H121.845V5.78H123.105V21.8ZM143.984 7.58V20H142.724V10.082L138.296 20H137.378L132.95 10.118V20H131.69V7.58H133.022L137.828 18.344L142.634 7.58H143.984ZM147.722 8.318C147.47 8.318 147.254 8.228 147.074 8.048C146.894 7.868 146.804 7.646 146.804 7.382C146.804 7.118 146.894 6.902 147.074 6.734C147.254 6.554 147.47 6.464 147.722 6.464C147.974 6.464 148.19 6.554 148.37 6.734C148.55 6.902 148.64 7.118 148.64 7.382C148.64 7.646 148.55 7.868 148.37 8.048C148.19 8.228 147.974 8.318 147.722 8.318ZM148.352 10.172V20H147.092V10.172H148.352ZM150.88 15.086C150.88 14.066 151.084 13.178 151.492 12.422C151.9 11.654 152.464 11.066 153.184 10.658C153.904 10.238 154.726 10.028 155.65 10.028C156.862 10.028 157.858 10.328 158.638 10.928C159.43 11.528 159.94 12.344 160.168 13.376H158.818C158.65 12.668 158.284 12.116 157.72 11.72C157.168 11.312 156.478 11.108 155.65 11.108C154.99 11.108 154.396 11.258 153.868 11.558C153.34 11.858 152.92 12.308 152.608 12.908C152.308 13.496 152.158 14.222 152.158 15.086C152.158 15.95 152.308 16.682 152.608 17.282C152.92 17.882 153.34 18.332 153.868 18.632C154.396 18.932 154.99 19.082 155.65 19.082C156.478 19.082 157.168 18.884 157.72 18.488C158.284 18.08 158.65 17.516 158.818 16.796H160.168C159.94 17.804 159.43 18.614 158.638 19.226C157.846 19.838 156.85 20.144 155.65 20.144C154.726 20.144 153.904 19.94 153.184 19.532C152.464 19.112 151.9 18.524 151.492 17.768C151.084 17 150.88 16.106 150.88 15.086ZM167.425 9.992C168.169 9.992 168.835 10.148 169.423 10.46C170.023 10.772 170.491 11.252 170.827 11.9C171.175 12.536 171.349 13.316 171.349 14.24V20H170.107V14.384C170.107 13.316 169.837 12.5 169.297 11.936C168.769 11.372 168.043 11.09 167.119 11.09C166.171 11.09 165.415 11.39 164.851 11.99C164.287 12.59 164.005 13.472 164.005 14.636V20H162.745V6.68H164.005V11.846C164.317 11.258 164.773 10.802 165.373 10.478C165.985 10.154 166.669 9.992 167.425 9.992ZM173.809 15.068C173.809 14.06 174.007 13.178 174.403 12.422C174.811 11.654 175.369 11.066 176.077 10.658C176.797 10.238 177.607 10.028 178.507 10.028C179.443 10.028 180.247 10.244 180.919 10.676C181.603 11.108 182.095 11.66 182.395 12.332V10.172H183.655V20H182.395V17.822C182.083 18.494 181.585 19.052 180.901 19.496C180.229 19.928 179.425 20.144 178.489 20.144C177.601 20.144 176.797 19.934 176.077 19.514C175.369 19.094 174.811 18.5 174.403 17.732C174.007 16.964 173.809 16.076 173.809 15.068ZM182.395 15.086C182.395 14.294 182.233 13.598 181.909 12.998C181.585 12.398 181.141 11.936 180.577 11.612C180.025 11.288 179.413 11.126 178.741 11.126C178.045 11.126 177.421 11.282 176.869 11.594C176.317 11.906 175.879 12.362 175.555 12.962C175.243 13.55 175.087 14.252 175.087 15.068C175.087 15.872 175.243 16.58 175.555 17.192C175.879 17.792 176.317 18.254 176.869 18.578C177.421 18.89 178.045 19.046 178.741 19.046C179.413 19.046 180.025 18.884 180.577 18.56C181.141 18.236 181.585 17.774 181.909 17.174C182.233 16.574 182.395 15.878 182.395 15.086ZM195.674 14.582C195.674 15.014 195.662 15.344 195.638 15.572H187.484C187.52 16.316 187.7 16.952 188.024 17.48C188.348 18.008 188.774 18.41 189.302 18.686C189.83 18.95 190.406 19.082 191.03 19.082C191.846 19.082 192.53 18.884 193.082 18.488C193.646 18.092 194.018 17.558 194.198 16.886H195.53C195.29 17.846 194.774 18.632 193.982 19.244C193.202 19.844 192.218 20.144 191.03 20.144C190.106 20.144 189.278 19.94 188.546 19.532C187.814 19.112 187.238 18.524 186.818 17.768C186.41 17 186.206 16.106 186.206 15.086C186.206 14.066 186.41 13.172 186.818 12.404C187.226 11.636 187.796 11.048 188.528 10.64C189.26 10.232 190.094 10.028 191.03 10.028C191.966 10.028 192.782 10.232 193.478 10.64C194.186 11.048 194.726 11.6 195.098 12.296C195.482 12.98 195.674 13.742 195.674 14.582ZM194.396 14.546C194.408 13.814 194.258 13.19 193.946 12.674C193.646 12.158 193.232 11.768 192.704 11.504C192.176 11.24 191.6 11.108 190.976 11.108C190.04 11.108 189.242 11.408 188.582 12.008C187.922 12.608 187.556 13.454 187.484 14.546H194.396ZM199.489 6.68V20H198.229V6.68H199.489ZM207.206 13.7C207.206 12.464 207.476 11.36 208.016 10.388C208.556 9.404 209.294 8.642 210.23 8.102C211.166 7.55 212.21 7.274 213.362 7.274C214.766 7.274 215.966 7.61 216.962 8.282C217.97 8.942 218.702 9.878 219.158 11.09H217.682C217.322 10.238 216.77 9.572 216.026 9.092C215.294 8.612 214.406 8.372 213.362 8.372C212.438 8.372 211.604 8.588 210.86 9.02C210.128 9.452 209.552 10.076 209.132 10.892C208.712 11.696 208.502 12.632 208.502 13.7C208.502 14.768 208.712 15.704 209.132 16.508C209.552 17.312 210.128 17.93 210.86 18.362C211.604 18.794 212.438 19.01 213.362 19.01C214.406 19.01 215.294 18.776 216.026 18.308C216.77 17.828 217.322 17.168 217.682 16.328H219.158C218.702 17.528 217.97 18.458 216.962 19.118C215.954 19.778 214.754 20.108 213.362 20.108C212.21 20.108 211.166 19.838 210.23 19.298C209.294 18.746 208.556 17.984 208.016 17.012C207.476 16.04 207.206 14.936 207.206 13.7ZM223.179 6.68V20H221.919V6.68H223.179ZM225.706 15.068C225.706 14.06 225.904 13.178 226.3 12.422C226.708 11.654 227.266 11.066 227.974 10.658C228.694 10.238 229.504 10.028 230.404 10.028C231.34 10.028 232.144 10.244 232.816 10.676C233.5 11.108 233.992 11.66 234.292 12.332V10.172H235.552V20H234.292V17.822C233.98 18.494 233.482 19.052 232.798 19.496C232.126 19.928 231.322 20.144 230.386 20.144C229.498 20.144 228.694 19.934 227.974 19.514C227.266 19.094 226.708 18.5 226.3 17.732C225.904 16.964 225.706 16.076 225.706 15.068ZM234.292 15.086C234.292 14.294 234.13 13.598 233.806 12.998C233.482 12.398 233.038 11.936 232.474 11.612C231.922 11.288 231.31 11.126 230.638 11.126C229.942 11.126 229.318 11.282 228.766 11.594C228.214 11.906 227.776 12.362 227.452 12.962C227.14 13.55 226.984 14.252 226.984 15.068C226.984 15.872 227.14 16.58 227.452 17.192C227.776 17.792 228.214 18.254 228.766 18.578C229.318 18.89 229.942 19.046 230.638 19.046C231.31 19.046 231.922 18.884 232.474 18.56C233.038 18.236 233.482 17.774 233.806 17.174C234.13 16.574 234.292 15.878 234.292 15.086ZM239.938 11.918C240.214 11.306 240.634 10.832 241.198 10.496C241.774 10.16 242.476 9.992 243.304 9.992V11.306H242.962C242.05 11.306 241.318 11.552 240.766 12.044C240.214 12.536 239.938 13.358 239.938 14.51V20H238.678V10.172H239.938V11.918ZM250.76 20L246.71 15.59V20H245.45V6.68H246.71V14.564L250.67 10.172H252.434L247.772 15.068L252.47 20H250.76Z" fill="#272727"/>
<path d="M0 12.6016H16.5" stroke="#272727" stroke-linecap="round"/>
</svg>
