<svg xmlns="http://www.w3.org/2000/svg" width="789" height="60" fill="none" viewBox="0 0 789 60">
    <path fill="#333" d="M25.2 3.6C13.945 3.6 4.8 12.745 4.8 24c0 11.254 9.145 20.4 20.4 20.4 4.453 0 8.569-1.435 11.925-3.863l15.788 15.75 3.375-3.375-15.6-15.637C43.752 33.703 45.6 29.067 45.6 24c0-11.255-9.145-20.4-20.4-20.4zm0 2.4c9.956 0 18 8.043 18 18 0 9.956-8.044 18-18 18s-18-8.044-18-18c0-9.957 8.044-18 18-18zM694.8 7.2c-2.147 0-4.294.806-5.925 2.438l-23.813 23.85c-.084.065-.159.14-.225.225-.028.023-.051.047-.075.075-.056.047-.103.093-.15.15v.037c-2.085 2.344-2.02 5.967.225 8.213 2.33 2.33 6.146 2.33 8.475 0l18.113-18.15c.356-.343.464-.872.272-1.327-.188-.455-.642-.745-1.135-.736-.314.014-.609.145-.825.375l-18.112 18.113c-1.411 1.41-3.689 1.41-5.1 0-1.364-1.364-1.388-3.497-.113-4.913.043-.047.08-.098.113-.15.028-.023.052-.047.075-.075l.112-.075v-.037l23.888-23.85c2.344-2.344 6.089-2.349 8.437 0 2.344 2.343 2.344 6.093 0 8.437l-29.55 29.55c-3.281 3.281-8.568 3.281-11.849 0-3.282-3.281-3.282-8.569 0-11.85l23.624-23.625c.357-.29.521-.755.418-1.204-.103-.446-.455-.797-.9-.9-.45-.104-.914.06-1.205.417L655.95 35.813c-4.195 4.195-4.2 11.067 0 15.262s11.03 4.195 15.225 0l29.587-29.55c3.263-3.262 3.263-8.625 0-11.887-1.631-1.632-3.815-2.438-5.962-2.438zM516 2.4c-15.229 0-27.6 12.371-27.6 27.6 0 15.23 12.371 27.6 27.6 27.6 15.229 0 27.6-12.37 27.6-27.6 0-15.229-12.371-27.6-27.6-27.6zm0 2.4c13.932 0 25.2 11.269 25.2 25.2 0 13.932-11.268 25.2-25.2 25.2-13.932 0-25.2-11.268-25.2-25.2 0-13.931 11.268-25.2 25.2-25.2zm0 8.4c-.955 0-1.871.38-2.546 1.055-.675.675-1.054 1.59-1.054 2.545 0 .955.379 1.87 1.054 2.546.675.675 1.591 1.054 2.546 1.054.955 0 1.87-.379 2.545-1.054.676-.675 1.055-1.59 1.055-2.546 0-.954-.379-1.87-1.055-2.545-.675-.675-1.59-1.055-2.545-1.055zm-4.8 12v2.4h2.4v15.6h-2.4v2.4H520.8v-2.4h-2.4v-18h-7.2zM759 3.6c-3.961 0-7.2 3.239-7.2 7.2 0 3.96 3.239 7.2 7.2 7.2 3.961 0 7.2-3.24 7.2-7.2 0-3.961-3.239-7.2-7.2-7.2zm0 2.4c2.667 0 4.8 2.132 4.8 4.8 0 2.667-2.133 4.8-4.8 4.8s-4.8-2.133-4.8-4.8c0-2.668 2.133-4.8 4.8-4.8zm0 16.8c-3.961 0-7.2 3.239-7.2 7.2 0 3.96 3.239 7.2 7.2 7.2 3.961 0 7.2-3.24 7.2-7.2 0-3.961-3.239-7.2-7.2-7.2zm0 2.4c2.667 0 4.8 2.132 4.8 4.8 0 2.667-2.133 4.8-4.8 4.8s-4.8-2.133-4.8-4.8c0-2.668 2.133-4.8 4.8-4.8zm0 16.8c-3.961 0-7.2 3.239-7.2 7.2 0 3.96 3.239 7.2 7.2 7.2 3.961 0 7.2-3.24 7.2-7.2 0-3.961-3.239-7.2-7.2-7.2zm0 2.4c2.667 0 4.8 2.132 4.8 4.8 0 2.667-2.133 4.8-4.8 4.8s-4.8-2.133-4.8-4.8c0-2.668 2.133-4.8 4.8-4.8zM111 8.4c-2.222 0-4.088 1.543-4.627 3.6H84.6c-.431-.004-.834.22-1.055.596-.215.375-.215.834 0 1.21.22.374.624.6 1.055.594h21.773c.539 2.058 2.405 3.6 4.627 3.6s4.087-1.542 4.627-3.6H137.4c.431.005.834-.22 1.055-.595.215-.375.215-.834 0-1.21-.221-.374-.624-.6-1.055-.595h-21.773c-.54-2.057-2.405-3.6-4.627-3.6zm0 2.4c1.303 0 2.33 1.003 2.386 2.293-.005.07-.005.145 0 .22-.056 1.284-1.083 2.287-2.386 2.287-1.303 0-2.33-1.003-2.386-2.292.005-.07.005-.145 0-.22.056-1.284 1.083-2.288 2.386-2.288zm16.8 14.4c-2.222 0-4.088 1.543-4.627 3.6H84.6c-.431-.004-.834.22-1.055.596-.215.375-.215.834 0 1.21.22.374.624.6 1.055.594h38.573c.539 2.058 2.405 3.6 4.627 3.6s4.087-1.542 4.627-3.6h4.973c.431.005.834-.22 1.055-.595.215-.375.215-.834 0-1.21-.221-.374-.624-.6-1.055-.595h-4.973c-.54-2.057-2.405-3.6-4.627-3.6zm0 2.4c1.303 0 2.33 1.003 2.386 2.293-.005.07-.005.145 0 .22-.056 1.284-1.083 2.287-2.386 2.287-1.303 0-2.33-1.003-2.386-2.292.005-.07.005-.145 0-.22.056-1.285 1.083-2.288 2.386-2.288zM97.8 42c-2.222 0-4.087 1.543-4.627 3.6H84.6c-.431-.004-.834.22-1.055.596-.215.375-.215.834 0 1.21.22.374.624.6 1.055.594h8.573c.54 2.058 2.405 3.6 4.627 3.6s4.087-1.542 4.627-3.6H137.4c.431.005.834-.22 1.055-.595.215-.375.215-.834 0-1.21-.221-.374-.624-.6-1.055-.595h-34.973c-.54-2.057-2.405-3.6-4.627-3.6zm0 2.4c1.303 0 2.33 1.004 2.386 2.293-.005.07-.005.145 0 .22-.056 1.284-1.083 2.287-2.386 2.287-1.303 0-2.33-1.003-2.386-2.292.005-.07.005-.145 0-.22.056-1.285 1.083-2.288 2.386-2.288zM590.775 15.713c-.263.047-.497.178-.675.375l-13.088 13.05-.824.862.824.863 13.088 13.05c.291.356.755.52 1.205.417.445-.103.797-.455.9-.9.103-.45-.061-.914-.418-1.205L580.762 31.2H616.2c.431.005.834-.22 1.055-.595.215-.375.215-.834 0-1.21-.221-.374-.624-.6-1.055-.595h-35.438l11.025-11.025c.39-.36.493-.932.258-1.406-.229-.478-.75-.74-1.27-.656zM435 6c-13.242 0-24 10.758-24 24-.005.431.22.834.595 1.055.375.215.835.215 1.21 0 .375-.22.6-.624.595-1.055 0-11.944 9.656-21.6 21.6-21.6 7.495 0 14.072 3.816 17.948 9.6H444.6c-.431-.005-.834.22-1.055.595-.215.375-.215.835 0 1.21.221.375.624.6 1.055.595h12v-12c.005-.323-.122-.638-.352-.867-.229-.23-.543-.356-.867-.352-.661.014-1.19.558-1.181 1.219v7.214C449.817 9.778 442.847 6 435 6zm22.781 22.781c-.661.014-1.19.558-1.181 1.219 0 11.944-9.656 21.6-21.6 21.6-7.495 0-14.077-3.816-17.948-9.6h8.348c.431.01.834-.22 1.055-.59.215-.376.215-.84 0-1.215-.221-.37-.624-.6-1.055-.595h-10.266c-.154-.028-.309-.028-.464 0h-1.27v12c-.005.431.22.834.595 1.055.375.215.835.215 1.21 0 .375-.22.6-.624.595-1.055v-7.219C420.178 50.217 427.153 54 435 54c13.242 0 24-10.758 24-24 .005-.323-.122-.637-.352-.867-.229-.23-.543-.356-.867-.352zM246.6 6c-.318 0-.623.126-.848.352-.226.225-.352.53-.352.848v18.987c-.032.157-.032.32 0 .478V40.8c0 .318.126.623.352.849.225.224.53.351.848.351h40.8c.318 0 .623-.127.849-.352.225-.225.351-.53.351-.848v-9.39c.022-.13.022-.262 0-.393V7.2c0-.318-.126-.623-.351-.848-.226-.226-.531-.352-.849-.352h-40.8zm1.2 2.4h38.4v19.903l-6.352-6.351c-.113-.114-.248-.204-.397-.264-.149-.06-.309-.09-.47-.088-.311.005-.609.131-.829.352l-5.114 5.114-12.354-13.477c-.109-.118-.24-.213-.385-.28-.146-.067-.304-.104-.464-.109-.31-.009-.612.103-.841.312L247.8 23.688V8.4zM279 12c-.636 0-1.247.253-1.697.703-.45.45-.703 1.06-.703 1.697 0 .636.253 1.247.703 1.697.45.45 1.061.703 1.697.703.637 0 1.247-.253 1.697-.703.45-.45.703-1.06.703-1.697 0-.636-.253-1.247-.703-1.697-.45-.45-1.06-.703-1.697-.703zm12 0v2.4h1.2v31.2h-38.4v-1.2h-2.4v2.4c0 .318.126.623.352.849.225.224.53.351.848.351h40.8c.318 0 .623-.127.849-.352.225-.225.351-.53.351-.848V13.2c0-.318-.126-.623-.351-.848-.226-.226-.531-.352-.849-.352H291zm-31.277 4.092l11.618 12.67-2.789 2.79c-.116.11-.208.243-.271.39-.063.146-.097.303-.098.463-.002.16.028.318.089.466.06.148.149.282.262.395.113.113.247.202.395.262.148.06.306.091.466.09.16-.002.317-.036.464-.1.146-.062.279-.154.389-.27l3.373-3.372c.189-.107.345-.264.452-.453L279 24.497l7.2 7.2V39.6h-38.4V26.93l11.923-10.838zM297 18v2.4h1.2v31.2h-38.4v-1.2h-2.4v2.4c0 .318.126.623.352.849.225.224.53.351.848.351h40.8c.318 0 .623-.127.849-.352.225-.225.351-.53.351-.848V19.2c0-.318-.126-.623-.351-.848-.226-.226-.531-.352-.849-.352H297z"/>
    <path fill="#333" fill-rule="evenodd" d="M326.752 6.352c.225-.226.53-.352.848-.352h40.8c.318 0 .623.126.849.352.225.225.351.53.351.848v23.817c.022.13.022.264 0 .394V40.8c0 .318-.126.623-.351.849-.226.224-.531.351-.849.351h-40.8c-.318 0-.623-.127-.848-.352-.226-.225-.352-.53-.352-.848V26.665c-.032-.158-.032-.32 0-.478V7.2c0-.318.126-.623.352-.848zM367.2 8.4h-38.4V39.6h38.4V8.4zm6 6H372V12h2.4c.318 0 .623.127.849.351.225.225.351.53.351.849v33.6c0 .318-.126.623-.351.849-.226.224-.531.351-.849.351h-40.8c-.318 0-.623-.127-.848-.352-.226-.225-.352-.53-.352-.848v-2.4h2.4v1.2h38.4V14.4zm4.8 6V18h2.4c.318 0 .623.127.849.352.225.224.351.53.351.848v33.6c0 .318-.126.623-.351.849-.226.224-.531.351-.849.351h-40.8c-.318 0-.623-.127-.848-.352-.226-.225-.352-.53-.352-.848v-2.4h2.4v1.2h38.4V20.4H378z" clip-rule="evenodd"/>
    <path stroke="#333" stroke-linecap="round" stroke-width="2" d="M339.429 14H363m-30 0h2.143M333 20.667h2.143M333 27.333h2.143M333 34h2.143m4.286-13.333H363m-23.571 6.666H363M339.429 34H363"/>
    <path fill="#333" stroke="#fff" stroke-width=".6" d="M166.179 19.115h0c-.051-.56.016-1.125.195-1.659.18-.533.469-1.023.848-1.438.38-.415.842-.747 1.357-.974.514-.227 1.071-.344 1.633-.344 0 0 0 0 0 0h43.576c.562 0 1.118.118 1.632.345.515.228.976.56 1.355.975.379.415.668.904.847 1.437.18.533.246 1.098.195 1.657h0l-.807 8.865c-.084.924.644 1.721 1.572 1.721.816 0 1.498-.622 1.572-1.435l.805-8.863.298.027-.298-.027c.09-.997-.028-2.001-.347-2.95-.319-.948-.833-1.819-1.507-2.558-.675-.738-1.497-1.328-2.412-1.732-.915-.404-1.905-.612-2.906-.612h-14.932 0c-2.069 0-4.052-.823-5.515-2.285l-3.105-3.105h0c-1.35-1.35-3.181-2.11-5.09-2.11 0 0 0 0 0 0h-13.77c-1.91 0-3.741.759-5.091 2.109-1.349 1.348-2.107 3.177-2.109 5.084l.103 2.252c.034.724-.191 1.413-.499 2.023-.602 1.194-.861 2.539-.738 3.883h0l2.389 26.25h0c.163 1.79.988 3.453 2.314 4.665 1.326 1.211 3.057 1.883 4.853 1.884H193.875c.87 0 1.575-.705 1.575-1.575s-.705-1.575-1.575-1.575h-21.278 0c-1.01-.001-1.984-.38-2.729-1.061-.746-.682-1.21-1.618-1.301-2.624l-2.388-26.25zm0 0l2.388 26.25-2.388-26.25zm1.146-7.946v.019c.02.469.483.759.905.638.63-.18 1.294-.276 1.982-.276h18.362c.959 0 1.439-1.16.76-1.838l-1.3-1.296-.027-.03c-.759-.76-1.789-1.186-2.862-1.186h0-13.77s0 0 0 0c-1.06 0-2.078.415-2.836 1.157-.757.743-1.193 1.752-1.214 2.812zm20.681-2.781s0 0 0 0h0l-.212.212.212-.212zm-.212-.09c-.063 0-.12.02-.166.05.046-.03.102-.05.166-.05z"/>
    <mask id="ezq7m8bxqa" fill="#fff">
        <path fill-rule="evenodd" d="M213.951 38.05c-.352-.352-.829-.55-1.326-.55-.497 0-.974.197-1.326.55-.352.35-.549.828-.549 1.325V45h-5.625c-.497 0-.974.197-1.326.55-.352.35-.549.828-.549 1.325s.197.974.549 1.326c.352.352.829.549 1.326.549h5.625v5.625c0 .497.197.974.549 1.326.352.352.829.549 1.326.549.497 0 .974-.197 1.326-.55.351-.35.549-.828.549-1.325V48.75h5.625c.497 0 .974-.197 1.326-.55.351-.35.549-.828.549-1.325s-.198-.974-.549-1.326c-.352-.352-.829-.549-1.326-.549H214.5v-5.625c0-.497-.198-.974-.549-1.326z" clip-rule="evenodd"/>
    </mask>
    <path fill="#333" fill-rule="evenodd" d="M213.951 38.05c-.352-.352-.829-.55-1.326-.55-.497 0-.974.197-1.326.55-.352.35-.549.828-.549 1.325V45h-5.625c-.497 0-.974.197-1.326.55-.352.35-.549.828-.549 1.325s.197.974.549 1.326c.352.352.829.549 1.326.549h5.625v5.625c0 .497.197.974.549 1.326.352.352.829.549 1.326.549.497 0 .974-.197 1.326-.55.351-.35.549-.828.549-1.325V48.75h5.625c.497 0 .974-.197 1.326-.55.351-.35.549-.828.549-1.325s-.198-.974-.549-1.326c-.352-.352-.829-.549-1.326-.549H214.5v-5.625c0-.497-.198-.974-.549-1.326z" clip-rule="evenodd"/>
    <path fill="#fff" d="M213.951 38.05l-.425.423.425-.424zm-2.652 0l-.424-.425.424.424zM210.75 45v.6h.6V45h-.6zm-6.951.55l-.424-.425.424.424zm0 2.65l.424-.423-.424.424zm6.951.55h.6v-.6h-.6v.6zm.549 6.95l.424-.423-.424.424zm2.652 0l.424.425-.424-.424zm.549-6.95v-.6h-.6v.6h.6zm6.951-3.2l.424-.425-.424.424zM214.5 45h-.6v.6h.6V45zm-1.875-6.9c.338 0 .662.134.901.373l.849-.848c-.464-.464-1.094-.725-1.75-.725v1.2zm-.902.373c.239-.239.564-.373.902-.373v-1.2c-.657 0-1.286.26-1.75.725l.848.848zm-.373.902c0-.338.134-.663.373-.902l-.848-.848c-.464.464-.725 1.094-.725 1.75h1.2zm0 5.625v-5.625h-1.2V45h1.2zm-6.225.6h5.625v-1.2h-5.625v1.2zm-.902.373c.239-.239.564-.373.902-.373v-1.2c-.657 0-1.286.26-1.75.725l.848.848zm-.373.902c0-.338.134-.663.373-.902l-.848-.848c-.464.464-.725 1.094-.725 1.75h1.2zm.373.902c-.239-.24-.373-.564-.373-.902h-1.2c0 .656.261 1.286.725 1.75l.848-.848zm.902.373c-.338 0-.663-.134-.902-.373l-.848.848c.464.464 1.093.725 1.75.725v-1.2zm5.625 0h-5.625v1.2h5.625v-1.2zm.6 6.225V48.75h-1.2v5.625h1.2zm.373.902c-.239-.24-.373-.564-.373-.902h-1.2c0 .656.261 1.286.725 1.75l.848-.848zm.902.373c-.338 0-.663-.134-.902-.373l-.848.848c.464.464 1.093.725 1.75.725v-1.2zm.901-.373c-.239.239-.563.373-.901.373v1.2c.656 0 1.286-.26 1.75-.725l-.849-.848zm.374-.902c0 .338-.134.663-.374.902l.849.848c.464-.464.725-1.094.725-1.75h-1.2zm0-5.625v5.625h1.2V48.75h-1.2zm6.225-.6H214.5v1.2h5.625v-1.2zm.901-.373c-.239.239-.563.373-.901.373v1.2c.656 0 1.286-.26 1.75-.725l-.849-.848zm.374-.902c0 .338-.134.663-.374.902l.849.848c.464-.464.725-1.094.725-1.75h-1.2zm-.374-.902c.24.24.374.564.374.902h1.2c0-.656-.261-1.286-.725-1.75l-.849.848zm-.901-.373c.338 0 .662.134.901.373l.849-.848c-.464-.464-1.094-.725-1.75-.725v1.2zm-5.625 0h5.625v-1.2H214.5v1.2zm-.6-6.225V45h1.2v-5.625h-1.2zm-.374-.902c.24.24.374.564.374.902h1.2c0-.656-.261-1.286-.725-1.75l-.849.848z" mask="url(#ezq7m8bxqa)"/>
</svg>
