<svg width="945" height="106" viewBox="0 0 945 106" fill="none" xmlns="http://www.w3.org/2000/svg">
<g filter="url(#filter0_d)">
<path opacity="0.3" d="M575.521 40.9893C576.643 40.9893 577.552 40.0798 577.552 38.958C577.552 37.8362 576.643 36.9268 575.521 36.9268C574.399 36.9268 573.49 37.8362 573.49 38.958C573.49 40.0798 574.399 40.9893 575.521 40.9893Z" fill="url(#paint0_radial)"/>
<path opacity="0.3" d="M570.104 40.9893C571.226 40.9893 572.135 40.0798 572.135 38.958C572.135 37.8362 571.226 36.9268 570.104 36.9268C568.982 36.9268 568.073 37.8362 568.073 38.958C568.073 40.0798 568.982 40.9893 570.104 40.9893Z" fill="url(#paint1_radial)"/>
<path d="M582.292 40.3125H522.708V34.2188C522.708 33.0965 523.92 32.1875 525.417 32.1875H579.583C581.08 32.1875 582.292 33.0965 582.292 34.2188V40.3125Z" fill="url(#paint2_radial)"/>
<path d="M579.583 61.9792H525.417C523.927 61.9792 522.708 60.7604 522.708 59.2708V40.3125H582.292V59.2708C582.292 60.7604 581.073 61.9792 579.583 61.9792Z" fill="url(#paint3_radial)"/>
<path d="M576.875 61.9792H528.125V59.2708C528.125 57.7745 529.337 56.5625 530.833 56.5625H574.167C575.663 56.5625 576.875 57.7745 576.875 59.2708V61.9792Z" fill="url(#paint4_radial)"/>
<path d="M575.521 40.3128C576.269 40.3128 576.875 39.7065 576.875 38.9587C576.875 38.2108 576.269 37.6045 575.521 37.6045C574.773 37.6045 574.167 38.2108 574.167 38.9587C574.167 39.7065 574.773 40.3128 575.521 40.3128Z" fill="#51A1A4"/>
<path d="M570.104 40.3128C570.852 40.3128 571.458 39.7065 571.458 38.9587C571.458 38.2108 570.852 37.6045 570.104 37.6045C569.356 37.6045 568.75 38.2108 568.75 38.9587C568.75 39.7065 569.356 40.3128 570.104 40.3128Z" fill="#51A1A4"/>
<path d="M560.625 78.2292C559.877 78.2292 559.271 77.6225 559.271 76.875C559.271 75.4342 559.751 74.1653 560.137 73.1456C560.388 72.4848 560.625 71.8592 560.625 71.4583C560.625 71.0575 560.388 70.4319 560.137 69.771C559.751 68.7514 559.271 67.4825 559.271 66.0417C559.271 65.2942 559.877 64.6875 560.625 64.6875C561.372 64.6875 561.979 65.2942 561.979 66.0417C561.979 66.9869 562.331 67.9145 562.671 68.8109C563.011 69.7115 563.333 70.5605 563.333 71.4583C563.333 72.3561 563.011 73.2052 562.671 74.1057C562.331 75.0022 561.979 75.9298 561.979 76.875C561.979 77.6225 561.372 78.2292 560.625 78.2292Z" fill="url(#paint5_radial)"/>
<path d="M568.75 80.9375C568.002 80.9375 567.396 80.3308 567.396 79.5833C567.396 77.892 567.841 76.4241 568.234 75.1281C568.498 74.2506 568.75 73.4232 568.75 72.8125C568.75 72.2018 568.498 71.3744 568.234 70.4969C567.841 69.2009 567.396 67.733 567.396 66.0417C567.396 65.2942 568.002 64.6875 568.75 64.6875C569.497 64.6875 570.104 65.2942 570.104 66.0417C570.104 67.3322 570.471 68.5415 570.826 69.7115C571.151 70.7853 571.458 71.7996 571.458 72.8125C571.458 73.8254 571.151 74.8397 570.826 75.9135C570.471 77.0835 570.104 78.2928 570.104 79.5833C570.104 80.3308 569.497 80.9375 568.75 80.9375Z" fill="url(#paint6_radial)"/>
<path d="M544.375 78.2292C543.627 78.2292 543.021 77.6225 543.021 76.875C543.021 75.4342 543.501 74.1653 543.887 73.1456C544.138 72.4848 544.375 71.8592 544.375 71.4583C544.375 71.0575 544.138 70.4319 543.887 69.771C543.501 68.7514 543.021 67.4825 543.021 66.0417C543.021 65.2942 543.627 64.6875 544.375 64.6875C545.122 64.6875 545.729 65.2942 545.729 66.0417C545.729 66.9869 546.081 67.9145 546.421 68.8109C546.761 69.7115 547.083 70.5605 547.083 71.4583C547.083 72.3561 546.761 73.2052 546.421 74.1057C546.081 75.0022 545.729 75.9298 545.729 76.875C545.729 77.6225 545.122 78.2292 544.375 78.2292Z" fill="url(#paint7_radial)"/>
<path d="M552.5 80.9375C551.752 80.9375 551.146 80.3308 551.146 79.5833C551.146 77.892 551.591 76.4241 551.984 75.1281C552.248 74.2506 552.5 73.4232 552.5 72.8125C552.5 72.2018 552.248 71.3744 551.984 70.4969C551.591 69.2009 551.146 67.733 551.146 66.0417C551.146 65.2942 551.752 64.6875 552.5 64.6875C553.247 64.6875 553.854 65.2942 553.854 66.0417C553.854 67.3322 554.221 68.5415 554.576 69.7115C554.901 70.7853 555.208 71.7996 555.208 72.8125C555.208 73.8254 554.901 74.8397 554.576 75.9135C554.221 77.0835 553.854 78.2928 553.854 79.5833C553.854 80.3308 553.247 80.9375 552.5 80.9375Z" fill="url(#paint8_radial)"/>
<path d="M536.25 80.9375C535.502 80.9375 534.896 80.3308 534.896 79.5833C534.896 77.892 535.341 76.4241 535.734 75.1281C535.998 74.2506 536.25 73.4232 536.25 72.8125C536.25 72.2018 535.998 71.3744 535.734 70.4969C535.341 69.2009 534.896 67.733 534.896 66.0417C534.896 65.2942 535.502 64.6875 536.25 64.6875C536.997 64.6875 537.604 65.2942 537.604 66.0417C537.604 67.3322 537.971 68.5415 538.326 69.7115C538.651 70.7853 538.958 71.7996 538.958 72.8125C538.958 73.8254 538.651 74.8397 538.326 75.9135C537.971 77.0835 537.604 78.2928 537.604 79.5833C537.604 80.3308 536.997 80.9375 536.25 80.9375Z" fill="url(#paint9_radial)"/>
<path d="M305.625 66.042H289.375C289.375 67.1998 289.375 71.391 289.375 71.391C289.375 75.8787 293.012 79.516 297.5 79.516C301.988 79.516 305.625 75.8787 305.625 71.391C305.625 71.391 305.625 67.1998 305.625 66.042Z" fill="url(#paint10_radial)"/>
<path d="M313.75 41.667C313.75 32.6929 306.474 25.417 297.5 25.417C288.526 25.417 281.25 32.6929 281.25 41.667C281.25 51.1462 289.375 57.917 289.375 63.0628V66.042H305.625V63.0628C305.625 57.917 313.75 51.1462 313.75 41.667Z" fill="url(#paint11_radial)"/>
<path fill-rule="evenodd" clip-rule="evenodd" d="M291.505 76.875C292.99 78.4979 295.126 79.5156 297.5 79.5156C299.874 79.5156 302.01 78.4979 303.495 76.875H291.505Z" fill="#51A1A4"/>
<path d="M726.563 58.414V57.917H718.438V58.414C718.438 61.1873 716.978 63.679 714.73 65.3026C712.848 66.6622 711.667 68.6136 711.667 70.7816C711.667 73.0715 712.986 75.1163 715.055 76.4826C715.469 76.7562 715.969 76.8753 716.466 76.8753H728.534C729.031 76.8753 729.53 76.7562 729.945 76.4826C732.014 75.1163 733.333 73.0715 733.333 70.7816C733.333 68.6136 732.153 66.6622 730.27 65.3026C728.022 63.679 726.563 61.1873 726.563 58.414Z" fill="url(#paint12_radial)"/>
<path opacity="0.07" d="M726.575 58.5941C726.573 58.5331 726.562 58.4749 726.562 58.414V57.917H718.437V58.414C718.437 58.4749 718.427 58.5331 718.425 58.5941H726.575Z" fill="black"/>
<path d="M741.04 57.9167H703.96C703.068 57.9167 702.419 57.0676 702.653 56.2064L710.04 29.123C710.202 28.534 710.736 28.125 711.347 28.125H733.653C734.264 28.125 734.799 28.534 734.96 29.123L742.347 56.2064C742.581 57.0676 741.932 57.9167 741.04 57.9167Z" fill="url(#paint13_radial)"/>
<path d="M726.618 59.2712C726.587 58.9881 726.563 58.7038 726.563 58.414V57.917H718.438V58.414C718.438 58.7038 718.413 58.9881 718.382 59.2712H726.618Z" fill="#51A1A4"/>
<path d="M185.417 70.1064H239.583C241.08 70.1064 242.292 68.8945 242.292 67.3981V32.1898C242.292 30.6934 241.08 29.4814 239.583 29.4814H185.417C183.92 29.4814 182.708 30.6934 182.708 32.1898V67.3981C182.708 68.8945 183.92 70.1064 185.417 70.1064Z" fill="url(#paint14_radial)"/>
<path d="M239.583 32.1895H185.417V67.3978H239.583V32.1895Z" fill="url(#paint15_radial)"/>
<path d="M230.781 72.8148H220.625V70.1064H204.375V72.8148H194.219C193.845 72.8148 193.542 73.1181 193.542 73.4919V74.846C193.542 75.2198 193.845 75.5231 194.219 75.5231H230.781C231.155 75.5231 231.458 75.2198 231.458 74.846V73.4919C231.458 73.1181 231.155 72.8148 230.781 72.8148Z" fill="url(#paint16_radial)"/>
<path d="M220.625 70.1064V72.8148H204.375V70.1064H220.625Z" fill="#51A1A4"/>
<path d="M888.437 82.291C878.714 82.291 870.833 74.4097 870.833 64.6868V55.0479H906.042V64.6868C906.042 74.4097 898.16 82.291 888.437 82.291Z" fill="url(#paint17_radial)"/>
<path d="M888.438 79.5829C880.225 79.5829 873.542 72.9001 873.542 64.6871V57.7578H903.333V64.6871C903.333 72.9001 896.651 79.5829 888.438 79.5829Z" fill="url(#paint18_radial)"/>
<path d="M914.511 27.8135C912.001 27.1364 904.394 25.5791 887.121 25.4288C885.614 25.4153 884.375 26.6313 884.375 28.1385V38.9583H892.5V35.9074C892.5 34.0264 894.37 32.6993 896.132 33.3561C901.534 35.3738 907.935 38.8608 913.387 42.7798C914.28 43.423 915.521 42.7825 915.521 41.6802V29.123C915.521 28.5068 915.106 27.9733 914.511 27.8135Z" fill="url(#paint19_radial)"/>
<path d="M909.427 34.8955C910.549 34.8955 911.458 33.9861 911.458 32.8643C911.458 31.7424 910.549 30.833 909.427 30.833C908.305 30.833 907.396 31.7424 907.396 32.8643C907.396 33.9861 908.305 34.8955 909.427 34.8955Z" fill="url(#paint20_radial)"/>
<path opacity="0.05" d="M888.438 78.2292C893.299 78.2292 897.24 74.2883 897.24 69.4271C897.24 64.5658 893.299 60.625 888.438 60.625C883.576 60.625 879.635 64.5658 879.635 69.4271C879.635 74.2883 883.576 78.2292 888.438 78.2292Z" fill="black"/>
<path opacity="0.07" d="M888.438 77.5518C892.925 77.5518 896.562 73.9141 896.562 69.4268C896.562 64.9394 892.925 61.3018 888.438 61.3018C883.95 61.3018 880.312 64.9394 880.312 69.4268C880.312 73.9141 883.95 77.5518 888.438 77.5518Z" fill="black"/>
<path d="M888.437 76.8753C892.551 76.8753 895.885 73.5408 895.885 69.4274C895.885 65.314 892.551 61.9795 888.437 61.9795C884.324 61.9795 880.99 65.314 880.99 69.4274C880.99 73.5408 884.324 76.8753 888.437 76.8753Z" fill="#51A1A4"/>
<path d="M888.438 74.1667C891.055 74.1667 893.177 72.0447 893.177 69.4271C893.177 66.8095 891.055 64.6875 888.438 64.6875C885.82 64.6875 883.698 66.8095 883.698 69.4271C883.698 72.0447 885.82 74.1667 888.438 74.1667Z" fill="url(#paint21_radial)"/>
<path d="M906.042 59.2708H870.833C870.086 59.2708 869.479 58.6642 869.479 57.9167V52.24C869.479 49.7903 870.09 47.3609 871.368 45.1658C871.402 45.109 871.436 45.0507 871.47 44.9939C874.677 39.5799 881.313 36.25 888.438 36.25C895.562 36.25 902.199 39.5799 905.405 44.9939C905.439 45.0521 905.473 45.109 905.507 45.1658C906.785 47.3609 907.396 49.7903 907.396 52.24V57.9167C907.396 58.6642 906.789 59.2708 906.042 59.2708Z" fill="url(#paint22_radial)"/>
<path d="M885.052 68.75C886.174 68.75 887.083 67.8406 887.083 66.7188C887.083 65.5969 886.174 64.6875 885.052 64.6875C883.93 64.6875 883.021 65.5969 883.021 66.7188C883.021 67.8406 883.93 68.75 885.052 68.75Z" fill="white"/>
<path d="M788.542 28.125H826.458C827.955 28.125 829.167 29.337 829.167 30.8333V74.1667C829.167 75.663 827.955 76.875 826.458 76.875H788.542C787.045 76.875 785.833 75.663 785.833 74.1667V30.8333C785.833 29.337 787.045 28.125 788.542 28.125Z" fill="url(#paint23_radial)"/>
<path d="M825.112 74.167H789.888C789.144 74.167 788.542 73.5569 788.542 72.8035V43.0305C788.542 42.2771 789.144 41.667 789.888 41.667H825.114C825.856 41.667 826.458 42.2771 826.458 43.0305V72.8049C826.458 73.5569 825.856 74.167 825.112 74.167Z" fill="url(#paint24_radial)"/>
<path d="M788.542 28.125H826.458C827.955 28.125 829.167 29.337 829.167 30.8333V38.9583H785.833V30.8333C785.833 29.337 787.045 28.125 788.542 28.125Z" fill="url(#paint25_radial)"/>
<path d="M802.76 30.833H812.239C812.613 30.833 812.917 31.1363 812.917 31.5101V35.5726C812.917 35.9463 812.613 36.2497 812.239 36.2497H802.76C802.387 36.2497 802.083 35.9463 802.083 35.5726V31.5101C802.083 31.1363 802.387 30.833 802.76 30.833Z" fill="#51A1A4"/>
<path opacity="0.3" d="M792.604 35.5732C793.726 35.5732 794.636 34.6638 794.636 33.542C794.636 32.4202 793.726 31.5107 792.604 31.5107C791.482 31.5107 790.573 32.4202 790.573 33.542C790.573 34.6638 791.482 35.5732 792.604 35.5732Z" fill="url(#paint26_radial)"/>
<path d="M792.604 34.8958C793.352 34.8958 793.958 34.2896 793.958 33.5417C793.958 32.7938 793.352 32.1875 792.604 32.1875C791.856 32.1875 791.25 32.7938 791.25 33.5417C791.25 34.2896 791.856 34.8958 792.604 34.8958Z" fill="white"/>
<path opacity="0.3" d="M796.667 35.5732C797.789 35.5732 798.698 34.6638 798.698 33.542C798.698 32.4202 797.789 31.5107 796.667 31.5107C795.545 31.5107 794.635 32.4202 794.635 33.542C794.635 34.6638 795.545 35.5732 796.667 35.5732Z" fill="url(#paint27_radial)"/>
<path d="M796.667 34.8958C797.415 34.8958 798.021 34.2896 798.021 33.5417C798.021 32.7938 797.415 32.1875 796.667 32.1875C795.919 32.1875 795.312 32.7938 795.312 33.5417C795.312 34.2896 795.919 34.8958 796.667 34.8958Z" fill="white"/>
<path opacity="0.3" d="M818.333 35.5732C819.455 35.5732 820.365 34.6638 820.365 33.542C820.365 32.4202 819.455 31.5107 818.333 31.5107C817.211 31.5107 816.302 32.4202 816.302 33.542C816.302 34.6638 817.211 35.5732 818.333 35.5732Z" fill="url(#paint28_radial)"/>
<path d="M818.333 34.8958C819.081 34.8958 819.688 34.2896 819.688 33.5417C819.688 32.7938 819.081 32.1875 818.333 32.1875C817.586 32.1875 816.979 32.7938 816.979 33.5417C816.979 34.2896 817.586 34.8958 818.333 34.8958Z" fill="white"/>
<path opacity="0.3" d="M822.396 35.5732C823.518 35.5732 824.427 34.6638 824.427 33.542C824.427 32.4202 823.518 31.5107 822.396 31.5107C821.274 31.5107 820.365 32.4202 820.365 33.542C820.365 34.6638 821.274 35.5732 822.396 35.5732Z" fill="url(#paint29_radial)"/>
<path d="M822.396 34.8958C823.144 34.8958 823.75 34.2896 823.75 33.5417C823.75 32.7938 823.144 32.1875 822.396 32.1875C821.648 32.1875 821.042 32.7938 821.042 33.5417C821.042 34.2896 821.648 34.8958 822.396 34.8958Z" fill="white"/>
<path d="M798.698 66.041C798.324 66.041 798.021 65.7377 798.021 65.3639V56.2152C798.021 55.8414 798.324 55.5381 798.698 55.5381C799.072 55.5381 799.375 55.8414 799.375 56.2152V65.3639C799.375 65.7377 799.072 66.041 798.698 66.041Z" fill="url(#paint30_radial)"/>
<path d="M802.452 48.8573C802.414 48.6162 802.192 48.4375 801.932 48.4375H795.464C795.204 48.4375 794.982 48.6162 794.943 48.8573C794.711 50.3144 793.958 55.1582 793.958 56.8279C793.958 58.7359 796.08 60.7767 798.698 60.7767C801.315 60.7767 803.437 58.7359 803.437 56.8279C803.437 55.1582 802.685 50.3144 802.452 48.8573Z" fill="url(#paint31_radial)"/>
<path d="M802.76 67.3962H794.635C794.262 67.3962 793.958 67.0942 793.958 66.7191C793.958 66.344 794.262 66.042 794.635 66.042H802.76C803.134 66.042 803.437 66.344 803.437 66.7191C803.437 67.0942 803.134 67.3962 802.76 67.3962Z" fill="url(#paint32_radial)"/>
<path d="M799.375 64.0107H798.021C798.021 65.3649 794.459 66.0637 794.459 66.0637L794.635 66.7191H802.76L802.936 66.0637C802.936 66.0637 799.375 65.3649 799.375 64.0107Z" fill="url(#paint33_radial)"/>
<path d="M808.177 67.3955C807.803 67.3955 807.5 67.0922 807.5 66.7184V51.8226C807.5 51.4488 807.803 51.1455 808.177 51.1455C808.551 51.1455 808.854 51.4488 808.854 51.8226V66.7184C808.854 67.0922 808.551 67.3955 808.177 67.3955Z" fill="url(#paint34_radial)"/>
<path d="M808.755 66.0417H807.5V52.5H808.755C809.557 52.5 810.208 53.1514 810.208 53.953V64.5873C810.208 65.3903 809.557 66.0417 808.755 66.0417Z" fill="url(#paint35_radial)"/>
<path d="M813.594 67.3955C813.22 67.3955 812.917 67.0922 812.917 66.7184V51.8226C812.917 51.4488 813.22 51.1455 813.594 51.1455C813.968 51.1455 814.271 51.4488 814.271 51.8226V66.7184C814.271 67.0922 813.968 67.3955 813.594 67.3955Z" fill="url(#paint36_radial)"/>
<path d="M814.172 66.0417H812.917V52.5H814.172C814.974 52.5 815.625 53.1514 815.625 53.953V64.5873C815.625 65.3903 814.974 66.0417 814.172 66.0417Z" fill="url(#paint37_radial)"/>
<path d="M819.01 67.3955C818.637 67.3955 818.333 67.0922 818.333 66.7184V51.8226C818.333 51.4488 818.637 51.1455 819.01 51.1455C819.384 51.1455 819.687 51.4488 819.687 51.8226V66.7184C819.687 67.0922 819.384 67.3955 819.01 67.3955Z" fill="url(#paint38_radial)"/>
<path d="M819.589 66.0417H818.333V52.5H819.589C820.39 52.5 821.042 53.1514 821.042 53.953V64.5873C821.042 65.3903 820.39 66.0417 819.589 66.0417Z" fill="url(#paint39_radial)"/>
<path d="M23.5417 28.125H61.4584C62.9547 28.125 64.1667 29.337 64.1667 30.8333V74.1667C64.1667 75.663 62.9547 76.875 61.4584 76.875H23.5417C22.0454 76.875 20.8334 75.663 20.8334 74.1667V30.8333C20.8334 29.337 22.0454 28.125 23.5417 28.125Z" fill="url(#paint40_radial)"/>
<path d="M23.5417 28.125H61.4584C62.9547 28.125 64.1667 29.337 64.1667 30.8333V38.9583H20.8334V30.8333C20.8334 29.337 22.0454 28.125 23.5417 28.125Z" fill="url(#paint41_radial)"/>
<path d="M49.948 30.833H59.4271C59.8009 30.833 60.1042 31.1363 60.1042 31.5101V35.5726C60.1042 35.9463 59.8009 36.2497 59.4271 36.2497H49.948C49.5742 36.2497 49.2709 35.9463 49.2709 35.5726V31.5101C49.2709 31.1363 49.5742 30.833 49.948 30.833Z" fill="url(#paint42_radial)"/>
<path d="M42.5 72.8122C50.7267 72.8122 57.3958 66.1431 57.3958 57.9163C57.3958 49.6896 50.7267 43.0205 42.5 43.0205C34.2732 43.0205 27.6041 49.6896 27.6041 57.9163C27.6041 66.1431 34.2732 72.8122 42.5 72.8122Z" fill="#51A1A4"/>
<path d="M42.5 47.083C36.5173 47.083 31.6666 51.9336 31.6666 57.9163C31.6666 63.899 36.5173 68.7497 42.5 68.7497C48.4827 68.7497 53.3333 63.899 53.3333 57.9163C53.3333 51.9336 48.4827 47.083 42.5 47.083Z" fill="url(#paint43_radial)"/>
<path opacity="0.3" d="M31.6666 35.5732C32.7885 35.5732 33.6979 34.6638 33.6979 33.542C33.6979 32.4202 32.7885 31.5107 31.6666 31.5107C30.5448 31.5107 29.6354 32.4202 29.6354 33.542C29.6354 34.6638 30.5448 35.5732 31.6666 35.5732Z" fill="url(#paint44_radial)"/>
<path d="M31.6667 34.8958C32.4146 34.8958 33.0208 34.2896 33.0208 33.5417C33.0208 32.7938 32.4146 32.1875 31.6667 32.1875C30.9188 32.1875 30.3125 32.7938 30.3125 33.5417C30.3125 34.2896 30.9188 34.8958 31.6667 34.8958Z" fill="url(#paint45_radial)"/>
<path opacity="0.3" d="M37.0834 35.5732C38.2052 35.5732 39.1146 34.6638 39.1146 33.542C39.1146 32.4202 38.2052 31.5107 37.0834 31.5107C35.9615 31.5107 35.0521 32.4202 35.0521 33.542C35.0521 34.6638 35.9615 35.5732 37.0834 35.5732Z" fill="url(#paint46_radial)"/>
<path d="M37.0833 34.8958C37.8312 34.8958 38.4375 34.2896 38.4375 33.5417C38.4375 32.7938 37.8312 32.1875 37.0833 32.1875C36.3354 32.1875 35.7291 32.7938 35.7291 33.5417C35.7291 34.2896 36.3354 34.8958 37.0833 34.8958Z" fill="url(#paint47_radial)"/>
<path opacity="0.3" d="M26.25 35.5732C27.3718 35.5732 28.2812 34.6638 28.2812 33.542C28.2812 32.4202 27.3718 31.5107 26.25 31.5107C25.1282 31.5107 24.2188 32.4202 24.2188 33.542C24.2188 34.6638 25.1282 35.5732 26.25 35.5732Z" fill="url(#paint48_radial)"/>
<path d="M26.25 34.8958C26.9979 34.8958 27.6042 34.2896 27.6042 33.5417C27.6042 32.7938 26.9979 32.1875 26.25 32.1875C25.5022 32.1875 24.8959 32.7938 24.8959 33.5417C24.8959 34.2896 25.5022 34.8958 26.25 34.8958Z" fill="url(#paint49_radial)"/>
<ellipse cx="51.9792" cy="57.9163" rx="2.70833" ry="2.70833" fill="url(#paint50_radial)"/>
<path d="M382.5 79.5837C397.458 79.5837 409.583 67.458 409.583 52.5003C409.583 37.5426 397.458 25.417 382.5 25.417C367.542 25.417 355.417 37.5426 355.417 52.5003C355.417 67.458 367.542 79.5837 382.5 79.5837Z" fill="url(#paint51_radial)"/>
<path d="M382.5 77.5524C396.336 77.5524 407.552 66.3362 407.552 52.5003C407.552 38.6644 396.336 27.4482 382.5 27.4482C368.664 27.4482 357.448 38.6644 357.448 52.5003C357.448 66.3362 368.664 77.5524 382.5 77.5524Z" fill="url(#paint52_radial)"/>
<path d="M382.5 75.5212C395.214 75.5212 405.521 65.2144 405.521 52.5003C405.521 39.7863 395.214 29.4795 382.5 29.4795C369.786 29.4795 359.479 39.7863 359.479 52.5003C359.479 65.2144 369.786 75.5212 382.5 75.5212Z" fill="url(#paint53_radial)"/>
<path d="M383.854 33.5417C383.854 34.2892 383.247 34.8958 382.5 34.8958C381.752 34.8958 381.146 34.2892 381.146 33.5417C381.146 32.7942 381.752 32.1875 382.5 32.1875C383.247 32.1875 383.854 32.7942 383.854 33.5417ZM382.5 70.1042C381.752 70.1042 381.146 70.7108 381.146 71.4583C381.146 72.2058 381.752 72.8125 382.5 72.8125C383.247 72.8125 383.854 72.2058 383.854 71.4583C383.854 70.7108 383.247 70.1042 382.5 70.1042ZM401.458 51.1458C400.711 51.1458 400.104 51.7525 400.104 52.5C400.104 53.2475 400.711 53.8542 401.458 53.8542C402.206 53.8542 402.812 53.2475 402.812 52.5C402.812 51.7525 402.206 51.1458 401.458 51.1458ZM363.542 51.1458C362.794 51.1458 362.188 51.7525 362.188 52.5C362.188 53.2475 362.794 53.8542 363.542 53.8542C364.289 53.8542 364.896 53.2475 364.896 52.5C364.896 51.7525 364.289 51.1458 363.542 51.1458Z" fill="white"/>
<path d="M382.5 67.0573C381.939 67.0573 381.484 66.6023 381.484 66.0417V52.5C381.484 51.9394 381.939 51.4844 382.5 51.4844C383.061 51.4844 383.516 51.9394 383.516 52.5V66.0417C383.516 66.6023 383.061 67.0573 382.5 67.0573Z" fill="url(#paint54_radial)"/>
<path d="M382.5 53.5155C382.24 53.5155 381.98 53.4167 381.782 53.2176C381.385 52.8208 381.385 52.1776 381.782 51.7808L393.272 40.2907C393.669 39.894 394.312 39.894 394.709 40.2907C395.106 40.6875 395.106 41.3307 394.709 41.7275L383.218 53.2176C383.02 53.4167 382.76 53.5155 382.5 53.5155Z" fill="url(#paint55_radial)"/>
<path d="M382.499 54.193C382.253 54.193 382.004 54.1402 381.767 54.0265L371.222 48.9687C370.379 48.5638 370.024 47.5536 370.429 46.7099C370.832 45.8676 371.844 45.5088 372.686 45.9164L383.231 50.9742C384.075 51.3791 384.43 52.3893 384.025 53.2329C383.735 53.8383 383.13 54.193 382.499 54.193Z" fill="#51A1A4"/>
<path d="M382.5 55.2087C383.996 55.2087 385.208 53.9961 385.208 52.5003C385.208 51.0046 383.996 49.792 382.5 49.792C381.004 49.792 379.792 51.0046 379.792 52.5003C379.792 53.9961 381.004 55.2087 382.5 55.2087Z" fill="url(#paint56_radial)"/>
<path d="M449.578 28.125H485.424C486.743 28.125 487.812 29.2165 487.812 30.5625V74.4375C487.812 75.7835 486.743 76.875 485.422 76.875H449.578C448.257 76.875 447.188 75.7835 447.188 74.4375V30.5625C447.188 29.2165 448.257 28.125 449.578 28.125Z" fill="url(#paint57_radial)"/>
<path d="M483.75 32.1875H451.25V72.8125H483.75V32.1875Z" fill="#51A1A4"/>
<path opacity="0.05" d="M487.812 51.1455H447.188V56.5622H487.812V51.1455Z" fill="black"/>
<path opacity="0.07" d="M487.812 51.8232H447.188V55.8857H487.812V51.8232Z" fill="black"/>
<path d="M489.167 53.8542V52.5H445.833V53.8542C445.833 54.6017 446.403 55.2083 447.108 55.2083H487.892C488.597 55.2083 489.167 54.6017 489.167 53.8542Z" fill="url(#paint58_radial)"/>
<path d="M489.167 49.792H445.833V52.5003H489.167V49.792Z" fill="url(#paint59_radial)"/>
<path d="M489.167 47.083H445.833V49.7913H489.167V47.083Z" fill="url(#paint60_radial)"/>
<path d="M489.167 44.375H445.833V47.0833H489.167V44.375Z" fill="url(#paint61_radial)"/>
<path d="M489.167 41.667H445.833V44.3753H489.167V41.667Z" fill="url(#paint62_radial)"/>
<path d="M489.167 38.958H445.833V41.6663H489.167V38.958Z" fill="url(#paint63_radial)"/>
<path d="M489.167 36.25H445.833V38.9583H489.167V36.25Z" fill="url(#paint64_radial)"/>
<path d="M489.167 33.542H445.833V36.2503H489.167V33.542Z" fill="url(#paint65_radial)"/>
<path d="M443.125 29.4792V32.1875C443.125 32.935 443.699 33.5417 444.407 33.5417H490.591C491.301 33.5417 491.875 32.935 491.875 32.1875V29.4792C491.875 28.7317 491.301 28.125 490.593 28.125H444.407C443.699 28.125 443.125 28.7317 443.125 29.4792Z" fill="url(#paint66_radial)"/>
<path d="M632.083 29.4788H621.25V28.1247C621.25 27.3772 621.857 26.7705 622.604 26.7705H630.729C631.477 26.7705 632.083 27.3772 632.083 28.1247V29.4788Z" fill="url(#paint67_radial)"/>
<path d="M653.75 29.4788H640.208V28.1247C640.208 27.3772 640.815 26.7705 641.562 26.7705H652.396C653.143 26.7705 653.75 27.3772 653.75 28.1247V29.4788Z" fill="url(#paint68_radial)"/>
<path d="M661.875 36.25H613.125V30.8333C613.125 29.3437 614.344 28.125 615.833 28.125H659.167C660.656 28.125 661.875 29.3437 661.875 30.8333V36.25Z" fill="url(#paint69_radial)"/>
<path d="M659.167 76.875H615.833C614.344 76.875 613.125 75.6562 613.125 74.1667V36.25H661.875V74.1667C661.875 75.6562 660.656 76.875 659.167 76.875Z" fill="url(#paint70_radial)"/>
<path opacity="0.3" d="M625.312 34.2188C626.434 34.2188 627.344 33.3093 627.344 32.1875C627.344 31.0657 626.434 30.1562 625.312 30.1562C624.191 30.1562 623.281 31.0657 623.281 32.1875C623.281 33.3093 624.191 34.2188 625.312 34.2188Z" fill="url(#paint71_radial)"/>
<path opacity="0.3" d="M619.896 34.2188C621.018 34.2188 621.927 33.3093 621.927 32.1875C621.927 31.0657 621.018 30.1562 619.896 30.1562C618.774 30.1562 617.865 31.0657 617.865 32.1875C617.865 33.3093 618.774 34.2188 619.896 34.2188Z" fill="url(#paint72_radial)"/>
<path d="M625.312 33.5413C626.06 33.5413 626.667 32.9351 626.667 32.1872C626.667 31.4393 626.06 30.833 625.312 30.833C624.565 30.833 623.958 31.4393 623.958 32.1872C623.958 32.9351 624.565 33.5413 625.312 33.5413Z" fill="#51A1A4"/>
<path opacity="0.3" d="M630.729 34.2188C631.851 34.2188 632.76 33.3093 632.76 32.1875C632.76 31.0657 631.851 30.1562 630.729 30.1562C629.607 30.1562 628.698 31.0657 628.698 32.1875C628.698 33.3093 629.607 34.2188 630.729 34.2188Z" fill="url(#paint73_radial)"/>
<path d="M630.729 33.5413C631.477 33.5413 632.083 32.9351 632.083 32.1872C632.083 31.4393 631.477 30.833 630.729 30.833C629.981 30.833 629.375 31.4393 629.375 32.1872C629.375 32.9351 629.981 33.5413 630.729 33.5413Z" fill="#51A1A4"/>
<path opacity="0.3" d="M636.146 34.2188C637.268 34.2188 638.177 33.3093 638.177 32.1875C638.177 31.0657 637.268 30.1562 636.146 30.1562C635.024 30.1562 634.115 31.0657 634.115 32.1875C634.115 33.3093 635.024 34.2188 636.146 34.2188Z" fill="url(#paint74_radial)"/>
<path d="M636.146 33.5413C636.894 33.5413 637.5 32.9351 637.5 32.1872C637.5 31.4393 636.894 30.833 636.146 30.833C635.398 30.833 634.792 31.4393 634.792 32.1872C634.792 32.9351 635.398 33.5413 636.146 33.5413Z" fill="#51A1A4"/>
<path opacity="0.3" d="M655.104 34.2188C656.226 34.2188 657.135 33.3093 657.135 32.1875C657.135 31.0657 656.226 30.1562 655.104 30.1562C653.982 30.1562 653.073 31.0657 653.073 32.1875C653.073 33.3093 653.982 34.2188 655.104 34.2188Z" fill="url(#paint75_radial)"/>
<path d="M655.104 33.5413C655.852 33.5413 656.458 32.9351 656.458 32.1872C656.458 31.4393 655.852 30.833 655.104 30.833C654.356 30.833 653.75 31.4393 653.75 32.1872C653.75 32.9351 654.356 33.5413 655.104 33.5413Z" fill="#51A1A4"/>
<path d="M619.896 33.5413C620.644 33.5413 621.25 32.9351 621.25 32.1872C621.25 31.4393 620.644 30.833 619.896 30.833C619.148 30.833 618.542 31.4393 618.542 32.1872C618.542 32.9351 619.148 33.5413 619.896 33.5413Z" fill="#51A1A4"/>
<path d="M655.104 71.4587H619.896C619.148 71.4587 618.542 70.852 618.542 70.1045V43.0212C618.542 42.2737 619.148 41.667 619.896 41.667H655.104C655.852 41.667 656.458 42.2737 656.458 43.0212V70.1045C656.458 70.852 655.852 71.4587 655.104 71.4587Z" fill="url(#paint76_radial)"/>
<path d="M141.719 79.583H113.281C112.907 79.583 112.604 79.2797 112.604 78.9059V77.8226C112.604 77.2525 112.96 76.7447 113.495 76.5497L127.5 71.458L141.505 76.551C142.04 76.7447 142.396 77.2538 142.396 77.8226V78.9059C142.396 79.2797 142.092 79.583 141.719 79.583Z" fill="url(#paint77_radial)"/>
<path d="M130.208 67.8779H124.792V72.4374H130.208V67.8779Z" fill="url(#paint78_radial)"/>
<path d="M127.503 68.7503C115.554 68.749 105.833 59.0288 105.833 47.0837C105.833 35.1372 115.554 25.417 127.5 25.417C139.446 25.417 149.167 35.1372 149.167 47.0837C149.167 59.0288 139.448 68.749 127.503 68.7503Z" fill="url(#paint79_radial)"/>
<path opacity="0.02" d="M118.882 64.1537C118.158 64.1537 117.476 63.8707 116.966 63.3575C116.958 63.3588 110.708 58.4459 110.909 53.812C110.98 52.1693 111.8 50.8152 113.344 49.7847L120.989 46.2936C117.097 43.4065 111.633 40.6616 111.574 40.6318L111.476 40.5831L111.301 40.4585C110.71 39.8681 110.427 39.1883 110.427 38.4638C110.427 37.7421 110.708 37.0609 111.222 36.5477C111.215 36.5477 116.007 30.4851 120.546 30.4851C122.262 30.4851 123.733 31.3287 124.796 32.9239L128.287 40.5696C131.175 36.6763 133.919 31.215 133.949 31.1554L133.997 31.0592L134.123 30.8846C134.714 30.2914 135.393 30.0098 136.118 30.0098C136.841 30.0098 137.522 30.2928 138.034 30.8047C138.042 30.8047 144.289 35.7758 144.091 40.3515C144.019 41.9941 143.2 43.3483 141.656 44.3788L134.011 47.8699C137.903 50.757 143.367 53.5018 143.426 53.5316L143.524 53.5804L143.699 53.705C144.29 54.2954 144.573 54.9752 144.573 55.6997C144.573 56.4214 144.292 57.1026 143.778 57.6158C143.785 57.6158 138.993 63.6784 134.455 63.6784C132.714 63.6784 131.284 62.8591 130.204 61.2396L126.713 53.5939C123.825 57.4872 121.081 62.9485 121.051 63.0081L121.003 63.1042L120.877 63.2789C120.286 63.8707 119.607 64.1537 118.882 64.1537Z" fill="black"/>
<path opacity="0.07" d="M118.882 63.4769C118.339 63.4769 117.829 63.2657 117.445 62.8811C117.253 62.7321 111.406 58.0061 111.586 53.842C111.647 52.4269 112.366 51.2529 113.72 50.3496L122.293 46.4442C118.359 43.2849 111.947 40.062 111.878 40.0282L111.781 39.9794L111.704 39.9022C111.319 39.519 111.106 39.0085 111.106 38.4655C111.106 37.9238 111.318 37.4133 111.702 37.0273C111.846 36.8405 116.435 31.1638 120.548 31.1638C122.048 31.1638 123.289 31.8829 124.234 33.3007L128.139 41.8739C131.297 37.9414 134.521 31.5281 134.555 31.4604L134.604 31.3629L134.681 31.2843C135.064 30.8997 135.575 30.6885 136.118 30.6885C136.66 30.6885 137.17 30.8997 137.555 31.2843C137.748 31.4333 143.594 36.1593 143.416 40.3234C143.355 41.7385 142.636 42.9125 141.281 43.8158L132.708 47.7212C136.642 50.8805 143.054 54.1034 143.123 54.1372L143.221 54.186L143.298 54.2632C143.682 54.6464 143.895 55.1569 143.895 55.6999C143.895 56.2416 143.684 56.7521 143.299 57.1381C143.156 57.3249 138.568 63.0016 134.454 63.0016C134.454 63.0016 134.454 63.0016 134.452 63.0016C132.952 63.0016 131.713 62.2825 130.766 60.8647L126.861 52.2915C123.703 56.224 120.479 62.6373 120.445 62.705L120.396 62.8025L120.319 62.8811C119.936 63.2657 119.425 63.4769 118.882 63.4769Z" fill="black"/>
<path d="M142.82 54.7435C142.82 54.7435 135.349 51.0047 131.453 47.5488L140.905 43.2534C146.651 39.4225 137.075 31.7633 137.075 31.7633C136.545 31.2338 135.69 31.2338 135.161 31.7633C135.161 31.7633 131.422 39.2343 127.966 43.1302L123.67 33.6781C119.84 27.9324 112.18 37.5077 112.18 37.5077C111.65 38.0372 111.65 38.893 112.18 39.4225C112.18 39.4225 119.651 43.1613 123.547 46.6172L114.095 50.9126C108.349 54.7435 117.925 62.4027 117.925 62.4027C118.454 62.9322 119.31 62.9322 119.84 62.4027C119.84 62.4027 123.578 54.9318 127.034 51.0358L131.33 60.4879C135.161 66.2336 142.82 56.6583 142.82 56.6583C143.351 56.1288 143.351 55.273 142.82 54.7435Z" fill="url(#paint80_radial)"/>
<path d="M127.5 53.8542C131.239 53.8542 134.271 50.8228 134.271 47.0833C134.271 43.3439 131.239 40.3125 127.5 40.3125C123.761 40.3125 120.729 43.3439 120.729 47.0833C120.729 50.8228 123.761 53.8542 127.5 53.8542Z" fill="url(#paint81_radial)"/>
<path d="M127.5 51.1455C125.26 51.1455 123.438 49.3228 123.438 47.083C123.438 44.8432 125.26 43.0205 127.5 43.0205C129.74 43.0205 131.562 44.8432 131.562 47.083C131.562 49.3228 129.74 51.1455 127.5 51.1455Z" fill="#51A1A4"/>
</g>
<defs>
<filter id="filter0_d" x="0" y="0" width="945" height="105.002" filterUnits="userSpaceOnUse" color-interpolation-filters="sRGB">
<feFlood flood-opacity="0" result="BackgroundImageFix"/>
<feColorMatrix in="SourceAlpha" type="matrix" values="0 0 0 0 0 0 0 0 0 0 0 0 0 0 0 0 0 0 127 0"/>
<feOffset/>
<feGaussianBlur stdDeviation="10"/>
<feColorMatrix type="matrix" values="0 0 0 0 0 0 0 0 0 0 0 0 0 0 0 0 0 0 0.2 0"/>
<feBlend mode="normal" in2="BackgroundImageFix" result="effect1_dropShadow"/>
<feBlend mode="normal" in="SourceGraphic" in2="effect1_dropShadow" result="shape"/>
</filter>
<radialGradient id="paint0_radial" cx="0" cy="0" r="1" gradientUnits="userSpaceOnUse" gradientTransform="translate(575.521 38.958) scale(2.03125)">
<stop/>
<stop offset="1" stop-opacity="0"/>
</radialGradient>
<radialGradient id="paint1_radial" cx="0" cy="0" r="1" gradientUnits="userSpaceOnUse" gradientTransform="translate(570.104 38.958) scale(2.03125)">
<stop/>
<stop offset="1" stop-opacity="0"/>
</radialGradient>
<radialGradient id="paint2_radial" cx="0" cy="0" r="1" gradientUnits="userSpaceOnUse" gradientTransform="translate(548.545 48.1355) rotate(33.7363) scale(24.561 22.687)">
<stop stop-color="white"/>
<stop offset="1" stop-color="#C3C9CD"/>
</radialGradient>
<radialGradient id="paint3_radial" cx="0" cy="0" r="1" gradientUnits="userSpaceOnUse" gradientTransform="translate(548.545 48.1355) rotate(33.7363) scale(24.561 22.687)">
<stop stop-color="white"/>
<stop offset="1" stop-color="#C3C9CD"/>
</radialGradient>
<radialGradient id="paint4_radial" cx="0" cy="0" r="1" gradientUnits="userSpaceOnUse" gradientTransform="translate(547.4 59.1108) rotate(9.31761) scale(16.423 5.42107)">
<stop stop-color="#6C6C6C"/>
<stop offset="1" stop-color="#4A4E52"/>
</radialGradient>
<radialGradient id="paint5_radial" cx="0" cy="0" r="1" gradientUnits="userSpaceOnUse" gradientTransform="translate(560.877 71.0584) rotate(78.5159) scale(6.78331 2.73436)">
<stop stop-color="#6C6C6C"/>
<stop offset="1" stop-color="#4A4E52"/>
</radialGradient>
<radialGradient id="paint6_radial" cx="0" cy="0" r="1" gradientUnits="userSpaceOnUse" gradientTransform="translate(569.002 72.3325) rotate(80.3908) scale(8.09053 2.75107)">
<stop stop-color="#6C6C6C"/>
<stop offset="1" stop-color="#4A4E52"/>
</radialGradient>
<radialGradient id="paint7_radial" cx="0" cy="0" r="1" gradientUnits="userSpaceOnUse" gradientTransform="translate(544.627 71.0584) rotate(78.5159) scale(6.78331 2.73436)">
<stop stop-color="#6C6C6C"/>
<stop offset="1" stop-color="#4A4E52"/>
</radialGradient>
<radialGradient id="paint8_radial" cx="0" cy="0" r="1" gradientUnits="userSpaceOnUse" gradientTransform="translate(552.752 72.3325) rotate(80.3908) scale(8.09053 2.75107)">
<stop stop-color="#6C6C6C"/>
<stop offset="1" stop-color="#4A4E52"/>
</radialGradient>
<radialGradient id="paint9_radial" cx="0" cy="0" r="1" gradientUnits="userSpaceOnUse" gradientTransform="translate(536.502 72.3325) rotate(80.3908) scale(8.09053 2.75107)">
<stop stop-color="#6C6C6C"/>
<stop offset="1" stop-color="#4A4E52"/>
</radialGradient>
<radialGradient id="paint10_radial" cx="0" cy="0" r="1" gradientUnits="userSpaceOnUse" gradientTransform="translate(295.8 72.381) rotate(50.7603) scale(8.53999 8.64416)">
<stop stop-color="#6C6C6C"/>
<stop offset="1" stop-color="#4A4E52"/>
</radialGradient>
<radialGradient id="paint11_radial" cx="0" cy="0" r="1" gradientUnits="userSpaceOnUse" gradientTransform="translate(297.76 43.4938) scale(22.2354)">
<stop stop-color="#FCFCFC"/>
<stop offset="1" stop-color="#C3C9CD"/>
</radialGradient>
<radialGradient id="paint12_radial" cx="0" cy="0" r="1" gradientUnits="userSpaceOnUse" gradientTransform="translate(720.233 66.8362) rotate(52.2618) scale(11.7682)">
<stop stop-color="#6C6C6C"/>
<stop offset="1" stop-color="#4A4E52"/>
</radialGradient>
<radialGradient id="paint13_radial" cx="0" cy="0" r="1" gradientUnits="userSpaceOnUse" gradientTransform="translate(719.859 44.073) rotate(45.0014) scale(19.2901)">
<stop stop-color="white"/>
<stop offset="1" stop-color="#C3C9CD"/>
</radialGradient>
<radialGradient id="paint14_radial" cx="0" cy="0" r="1" gradientUnits="userSpaceOnUse" gradientTransform="translate(206.266 48.5941) rotate(45.1943) scale(28.1078 29.035)">
<stop stop-color="#6C6C6C"/>
<stop offset="1" stop-color="#4A4E52"/>
</radialGradient>
<radialGradient id="paint15_radial" cx="0" cy="0" r="1" gradientUnits="userSpaceOnUse" gradientTransform="translate(208.904 51.0371) rotate(40.964) scale(24.5897 24.3461)">
<stop stop-color="white"/>
<stop offset="1" stop-color="#C3C9CD"/>
</radialGradient>
<radialGradient id="paint16_radial" cx="0" cy="0" r="1" gradientUnits="userSpaceOnUse" gradientTransform="translate(208.533 72.6548) rotate(11.9119) scale(12.8823 5.37526)">
<stop stop-color="#6C6C6C"/>
<stop offset="1" stop-color="#4A4E52"/>
</radialGradient>
<radialGradient id="paint17_radial" cx="0" cy="0" r="1" gradientUnits="userSpaceOnUse" gradientTransform="translate(884.754 67.8648) rotate(48.8073) scale(17.7721 18.1968)">
<stop stop-color="#6C6C6C"/>
<stop offset="1" stop-color="#4A4E52"/>
</radialGradient>
<radialGradient id="paint18_radial" cx="0" cy="0" r="1" gradientUnits="userSpaceOnUse" gradientTransform="translate(886.46 69.4412) rotate(44.3774) scale(14.2882 14.2849)">
<stop stop-color="white"/>
<stop offset="1" stop-color="#C3C9CD"/>
</radialGradient>
<radialGradient id="paint19_radial" cx="0" cy="0" r="1" gradientUnits="userSpaceOnUse" gradientTransform="translate(897.88 34.8544) rotate(37.056) scale(13.3786 12.8675)">
<stop stop-color="white"/>
<stop offset="1" stop-color="#C3C9CD"/>
</radialGradient>
<radialGradient id="paint20_radial" cx="0" cy="0" r="1" gradientUnits="userSpaceOnUse" gradientTransform="translate(909.002 32.7443) rotate(55.8938) scale(2.40852 2.3103)">
<stop stop-color="#6C6C6C"/>
<stop offset="1" stop-color="#4A4E52"/>
</radialGradient>
<radialGradient id="paint21_radial" cx="0" cy="0" r="1" gradientUnits="userSpaceOnUse" gradientTransform="translate(884.34 63.9048) scale(12.1279)">
<stop stop-color="#4B4B4B"/>
<stop offset="0.531" stop-color="#393939"/>
<stop offset="1" stop-color="#252525"/>
</radialGradient>
<radialGradient id="paint22_radial" cx="0" cy="0" r="1" gradientUnits="userSpaceOnUse" gradientTransform="translate(885.921 48.5735) rotate(39.04) scale(16.7344 16.3736)">
<stop stop-color="white"/>
<stop offset="1" stop-color="#C3C9CD"/>
</radialGradient>
<radialGradient id="paint23_radial" cx="0" cy="0" r="1" gradientUnits="userSpaceOnUse" gradientTransform="translate(802.966 51.0601) rotate(58.9536) scale(27.9323 25.4988)">
<stop stop-color="#6C6C6C"/>
<stop offset="1" stop-color="#4A4E52"/>
</radialGradient>
<radialGradient id="paint24_radial" cx="0" cy="0" r="1" gradientUnits="userSpaceOnUse" gradientTransform="translate(804.983 59.0648) rotate(48.8637) scale(19.7578 19.5784)">
<stop stop-color="white"/>
<stop offset="1" stop-color="#C3C9CD"/>
</radialGradient>
<radialGradient id="paint25_radial" cx="0" cy="0" r="1" gradientUnits="userSpaceOnUse" gradientTransform="translate(804.623 33.9243) rotate(18.465) scale(15.6608 9.40965)">
<stop stop-color="white"/>
<stop offset="1" stop-color="#C3C9CD"/>
</radialGradient>
<radialGradient id="paint26_radial" cx="0" cy="0" r="1" gradientUnits="userSpaceOnUse" gradientTransform="translate(792.604 33.542) scale(2.03125)">
<stop/>
<stop offset="1" stop-opacity="0"/>
</radialGradient>
<radialGradient id="paint27_radial" cx="0" cy="0" r="1" gradientUnits="userSpaceOnUse" gradientTransform="translate(796.667 33.542) scale(2.03125)">
<stop/>
<stop offset="1" stop-opacity="0"/>
</radialGradient>
<radialGradient id="paint28_radial" cx="0" cy="0" r="1" gradientUnits="userSpaceOnUse" gradientTransform="translate(818.333 33.542) scale(2.03125)">
<stop/>
<stop offset="1" stop-opacity="0"/>
</radialGradient>
<radialGradient id="paint29_radial" cx="0" cy="0" r="1" gradientUnits="userSpaceOnUse" gradientTransform="translate(822.396 33.542) scale(2.03125)">
<stop/>
<stop offset="1" stop-opacity="0"/>
</radialGradient>
<radialGradient id="paint30_radial" cx="0" cy="0" r="1" gradientUnits="userSpaceOnUse" gradientTransform="translate(798.556 60.4793) rotate(85.0099) scale(5.17543 0.926548)">
<stop stop-color="#6C6C6C"/>
<stop offset="1" stop-color="#4A4E52"/>
</radialGradient>
<radialGradient id="paint31_radial" cx="0" cy="0" r="1" gradientUnits="userSpaceOnUse" gradientTransform="translate(797.706 54.2426) rotate(62.5145) scale(6.82789 5.77565)">
<stop stop-color="#6C6C6C"/>
<stop offset="1" stop-color="#4A4E52"/>
</radialGradient>
<radialGradient id="paint32_radial" cx="0" cy="0" r="1" gradientUnits="userSpaceOnUse" gradientTransform="translate(797.706 66.6791) rotate(11.9119) scale(3.22058 1.34382)">
<stop stop-color="#6C6C6C"/>
<stop offset="1" stop-color="#4A4E52"/>
</radialGradient>
<radialGradient id="paint33_radial" cx="0" cy="0" r="1" gradientUnits="userSpaceOnUse" gradientTransform="translate(797.811 65.2849) rotate(25.2566) scale(3.11597 2.4842)">
<stop stop-color="#6C6C6C"/>
<stop offset="1" stop-color="#4A4E52"/>
</radialGradient>
<radialGradient id="paint34_radial" cx="0" cy="0" r="1" gradientUnits="userSpaceOnUse" gradientTransform="translate(808.035 58.7906) rotate(86.77) scale(7.9897 0.928593)">
<stop stop-color="#6C6C6C"/>
<stop offset="1" stop-color="#4A4E52"/>
</radialGradient>
<radialGradient id="paint35_radial" cx="0" cy="0" r="1" gradientUnits="userSpaceOnUse" gradientTransform="translate(808.571 58.8709) rotate(82.2867) scale(6.7082 1.84331)">
<stop stop-color="#6C6C6C"/>
<stop offset="1" stop-color="#4A4E52"/>
</radialGradient>
<radialGradient id="paint36_radial" cx="0" cy="0" r="1" gradientUnits="userSpaceOnUse" gradientTransform="translate(813.452 58.7906) rotate(86.77) scale(7.9897 0.928598)">
<stop stop-color="#6C6C6C"/>
<stop offset="1" stop-color="#4A4E52"/>
</radialGradient>
<radialGradient id="paint37_radial" cx="0" cy="0" r="1" gradientUnits="userSpaceOnUse" gradientTransform="translate(813.988 58.8709) rotate(82.2867) scale(6.7082 1.84332)">
<stop stop-color="#6C6C6C"/>
<stop offset="1" stop-color="#4A4E52"/>
</radialGradient>
<radialGradient id="paint38_radial" cx="0" cy="0" r="1" gradientUnits="userSpaceOnUse" gradientTransform="translate(818.869 58.7906) rotate(86.77) scale(7.9897 0.928593)">
<stop stop-color="#6C6C6C"/>
<stop offset="1" stop-color="#4A4E52"/>
</radialGradient>
<radialGradient id="paint39_radial" cx="0" cy="0" r="1" gradientUnits="userSpaceOnUse" gradientTransform="translate(819.404 58.8709) rotate(82.2867) scale(6.7082 1.84331)">
<stop stop-color="#6C6C6C"/>
<stop offset="1" stop-color="#4A4E52"/>
</radialGradient>
<radialGradient id="paint40_radial" cx="0" cy="0" r="1" gradientUnits="userSpaceOnUse" gradientTransform="translate(39.6235 54.2218) rotate(56.3562) scale(26.8119 24.7328)">
<stop stop-color="white"/>
<stop offset="1" stop-color="#C3C9CD"/>
</radialGradient>
<radialGradient id="paint41_radial" cx="0" cy="0" r="1" gradientUnits="userSpaceOnUse" gradientTransform="translate(37.9663 33.2217) rotate(20.2622) scale(15.3559 10.3072)">
<stop stop-color="#6C6C6C"/>
<stop offset="1" stop-color="#4A4E52"/>
</radialGradient>
<radialGradient id="paint42_radial" cx="0" cy="0" r="1" gradientUnits="userSpaceOnUse" gradientTransform="translate(53.9684 33.7326) rotate(33.7364) scale(4.46564 4.1249)">
<stop stop-color="white"/>
<stop offset="1" stop-color="#C3C9CD"/>
</radialGradient>
<radialGradient id="paint43_radial" cx="0" cy="0" r="1" gradientUnits="userSpaceOnUse" gradientTransform="translate(40.2331 57.2764) rotate(55.8938) scale(12.8454 12.3216)">
<stop stop-color="#6C6C6C"/>
<stop offset="1" stop-color="#4A4E52"/>
</radialGradient>
<radialGradient id="paint44_radial" cx="0" cy="0" r="1" gradientUnits="userSpaceOnUse" gradientTransform="translate(31.6666 33.542) scale(2.03125)">
<stop/>
<stop offset="1" stop-opacity="0"/>
</radialGradient>
<radialGradient id="paint45_radial" cx="0" cy="0" r="1" gradientUnits="userSpaceOnUse" gradientTransform="translate(31.4869 33.6373) rotate(53.1782) scale(1.54908 1.48639)">
<stop stop-color="white"/>
<stop offset="1" stop-color="#C3C9CD"/>
</radialGradient>
<radialGradient id="paint46_radial" cx="0" cy="0" r="1" gradientUnits="userSpaceOnUse" gradientTransform="translate(37.0834 33.542) scale(2.03125)">
<stop/>
<stop offset="1" stop-opacity="0"/>
</radialGradient>
<radialGradient id="paint47_radial" cx="0" cy="0" r="1" gradientUnits="userSpaceOnUse" gradientTransform="translate(36.9035 33.6373) rotate(53.1782) scale(1.54908 1.48639)">
<stop stop-color="white"/>
<stop offset="1" stop-color="#C3C9CD"/>
</radialGradient>
<radialGradient id="paint48_radial" cx="0" cy="0" r="1" gradientUnits="userSpaceOnUse" gradientTransform="translate(26.25 33.542) scale(2.03125)">
<stop/>
<stop offset="1" stop-opacity="0"/>
</radialGradient>
<radialGradient id="paint49_radial" cx="0" cy="0" r="1" gradientUnits="userSpaceOnUse" gradientTransform="translate(26.0703 33.6373) rotate(53.1782) scale(1.54908 1.48639)">
<stop stop-color="white"/>
<stop offset="1" stop-color="#C3C9CD"/>
</radialGradient>
<radialGradient id="paint50_radial" cx="0" cy="0" r="1" gradientUnits="userSpaceOnUse" gradientTransform="translate(51.6196 58.1076) rotate(53.1782) scale(3.09817 2.97278)">
<stop stop-color="white"/>
<stop offset="1" stop-color="#C3C9CD"/>
</radialGradient>
<radialGradient id="paint51_radial" cx="0" cy="0" r="1" gradientUnits="userSpaceOnUse" gradientTransform="translate(376.833 50.9005) rotate(55.8938) scale(32.1136 30.804)">
<stop stop-color="#6C6C6C"/>
<stop offset="1" stop-color="#4A4E52"/>
</radialGradient>
<radialGradient id="paint52_radial" cx="0" cy="0" r="1" gradientUnits="userSpaceOnUse" gradientTransform="translate(382.5 52.5003) scale(25.0521)">
<stop/>
<stop offset="1" stop-opacity="0"/>
</radialGradient>
<radialGradient id="paint53_radial" cx="0" cy="0" r="1" gradientUnits="userSpaceOnUse" gradientTransform="translate(379.444 54.1264) rotate(53.1782) scale(26.3344 25.2686)">
<stop stop-color="white"/>
<stop offset="1" stop-color="#C3C9CD"/>
</radialGradient>
<radialGradient id="paint54_radial" cx="0" cy="0" r="1" gradientUnits="userSpaceOnUse" gradientTransform="translate(382.287 58.8109) rotate(84.9521) scale(7.6744 1.3897)">
<stop stop-color="#6C6C6C"/>
<stop offset="1" stop-color="#4A4E52"/>
</radialGradient>
<radialGradient id="paint55_radial" cx="0" cy="0" r="1" gradientUnits="userSpaceOnUse" gradientTransform="translate(386.831 46.355) rotate(55.8944) scale(8.01689 7.68989)">
<stop stop-color="#6C6C6C"/>
<stop offset="1" stop-color="#4A4E52"/>
</radialGradient>
<radialGradient id="paint56_radial" cx="0" cy="0" r="1" gradientUnits="userSpaceOnUse" gradientTransform="translate(381.933 52.3403) rotate(55.8937) scale(3.21136 3.0804)">
<stop stop-color="#6C6C6C"/>
<stop offset="1" stop-color="#4A4E52"/>
</radialGradient>
<radialGradient id="paint57_radial" cx="0" cy="0" r="1" gradientUnits="userSpaceOnUse" gradientTransform="translate(464.803 54.2218) rotate(58.0397) scale(26.3089 23.6303)">
<stop stop-color="white"/>
<stop offset="1" stop-color="#C3C9CD"/>
</radialGradient>
<radialGradient id="paint58_radial" cx="0" cy="0" r="1" gradientUnits="userSpaceOnUse" gradientTransform="translate(462.966 53.7742) rotate(5.27292) scale(14.4668 2.73516)">
<stop stop-color="#6C6C6C"/>
<stop offset="1" stop-color="#4A4E52"/>
</radialGradient>
<radialGradient id="paint59_radial" cx="0" cy="0" r="1" gradientUnits="userSpaceOnUse" gradientTransform="translate(464.624 51.2418) rotate(4.77194) scale(14.9062 2.4715)">
<stop stop-color="white"/>
<stop offset="1" stop-color="#C3C9CD"/>
</radialGradient>
<radialGradient id="paint60_radial" cx="0" cy="0" r="1" gradientUnits="userSpaceOnUse" gradientTransform="translate(462.966 48.3572) rotate(5.27292) scale(14.4668 2.73516)">
<stop stop-color="#6C6C6C"/>
<stop offset="1" stop-color="#4A4E52"/>
</radialGradient>
<radialGradient id="paint61_radial" cx="0" cy="0" r="1" gradientUnits="userSpaceOnUse" gradientTransform="translate(464.624 45.8248) rotate(4.77194) scale(14.9062 2.4715)">
<stop stop-color="white"/>
<stop offset="1" stop-color="#C3C9CD"/>
</radialGradient>
<radialGradient id="paint62_radial" cx="0" cy="0" r="1" gradientUnits="userSpaceOnUse" gradientTransform="translate(462.966 42.9412) rotate(5.27292) scale(14.4668 2.73515)">
<stop stop-color="#6C6C6C"/>
<stop offset="1" stop-color="#4A4E52"/>
</radialGradient>
<radialGradient id="paint63_radial" cx="0" cy="0" r="1" gradientUnits="userSpaceOnUse" gradientTransform="translate(464.624 40.4078) rotate(4.77195) scale(14.9062 2.4715)">
<stop stop-color="white"/>
<stop offset="1" stop-color="#C3C9CD"/>
</radialGradient>
<radialGradient id="paint64_radial" cx="0" cy="0" r="1" gradientUnits="userSpaceOnUse" gradientTransform="translate(462.966 37.5242) rotate(5.27291) scale(14.4668 2.73515)">
<stop stop-color="#6C6C6C"/>
<stop offset="1" stop-color="#4A4E52"/>
</radialGradient>
<radialGradient id="paint65_radial" cx="0" cy="0" r="1" gradientUnits="userSpaceOnUse" gradientTransform="translate(464.624 34.9918) rotate(4.77195) scale(14.9062 2.4715)">
<stop stop-color="white"/>
<stop offset="1" stop-color="#C3C9CD"/>
</radialGradient>
<radialGradient id="paint66_radial" cx="0" cy="0" r="1" gradientUnits="userSpaceOnUse" gradientTransform="translate(462.4 30.6733) rotate(9.31761) scale(16.423 5.42107)">
<stop stop-color="#6C6C6C"/>
<stop offset="1" stop-color="#4A4E52"/>
</radialGradient>
<radialGradient id="paint67_radial" cx="0" cy="0" r="1" gradientUnits="userSpaceOnUse" gradientTransform="translate(625.533 28.0447) rotate(20.2622) scale(3.83897 2.5768)">
<stop stop-color="#6C6C6C"/>
<stop offset="1" stop-color="#4A4E52"/>
</radialGradient>
<radialGradient id="paint68_radial" cx="0" cy="0" r="1" gradientUnits="userSpaceOnUse" gradientTransform="translate(645.562 28.0447) rotate(16.4534) scale(4.69397 2.6343)">
<stop stop-color="#6C6C6C"/>
<stop offset="1" stop-color="#4A4E52"/>
</radialGradient>
<radialGradient id="paint69_radial" cx="0" cy="0" r="1" gradientUnits="userSpaceOnUse" gradientTransform="translate(634.264 32.4745) rotate(12.5501) scale(17.1204 7.26251)">
<stop stop-color="white"/>
<stop offset="1" stop-color="#C3C9CD"/>
</radialGradient>
<radialGradient id="paint70_radial" cx="0" cy="0" r="1" gradientUnits="userSpaceOnUse" gradientTransform="translate(632.4 55.3626) rotate(50.9009) scale(25.6973 25.9844)">
<stop stop-color="#6C6C6C"/>
<stop offset="1" stop-color="#4A4E52"/>
</radialGradient>
<radialGradient id="paint71_radial" cx="0" cy="0" r="1" gradientUnits="userSpaceOnUse" gradientTransform="translate(625.312 32.1875) scale(2.03125)">
<stop/>
<stop offset="1" stop-opacity="0"/>
</radialGradient>
<radialGradient id="paint72_radial" cx="0" cy="0" r="1" gradientUnits="userSpaceOnUse" gradientTransform="translate(619.896 32.1875) scale(2.03125)">
<stop/>
<stop offset="1" stop-opacity="0"/>
</radialGradient>
<radialGradient id="paint73_radial" cx="0" cy="0" r="1" gradientUnits="userSpaceOnUse" gradientTransform="translate(630.729 32.1875) scale(2.03125)">
<stop/>
<stop offset="1" stop-opacity="0"/>
</radialGradient>
<radialGradient id="paint74_radial" cx="0" cy="0" r="1" gradientUnits="userSpaceOnUse" gradientTransform="translate(636.146 32.1875) scale(2.03125)">
<stop/>
<stop offset="1" stop-opacity="0"/>
</radialGradient>
<radialGradient id="paint75_radial" cx="0" cy="0" r="1" gradientUnits="userSpaceOnUse" gradientTransform="translate(655.104 32.1875) scale(2.03125)">
<stop/>
<stop offset="1" stop-opacity="0"/>
</radialGradient>
<radialGradient id="paint76_radial" cx="0" cy="0" r="1" gradientUnits="userSpaceOnUse" gradientTransform="translate(634.983 57.615) rotate(46.3823) scale(18.8416 18.8196)">
<stop stop-color="white"/>
<stop offset="1" stop-color="#C3C9CD"/>
</radialGradient>
<radialGradient id="paint77_radial" cx="0" cy="0" r="1" gradientUnits="userSpaceOnUse" gradientTransform="translate(124.383 75.2805) rotate(21.9357) scale(10.6768 7.64376)">
<stop stop-color="#6C6C6C"/>
<stop offset="1" stop-color="#4A4E52"/>
</radialGradient>
<radialGradient id="paint78_radial" cx="0" cy="0" r="1" gradientUnits="userSpaceOnUse" gradientTransform="translate(126.933 70.023) rotate(51.1824) scale(2.87265 2.89865)">
<stop stop-color="#6C6C6C"/>
<stop offset="1" stop-color="#4A4E52"/>
</radialGradient>
<radialGradient id="paint79_radial" cx="0" cy="0" r="1" gradientUnits="userSpaceOnUse" gradientTransform="translate(124.624 48.6141) rotate(53.1782) scale(24.7853 23.7822)">
<stop stop-color="white"/>
<stop offset="1" stop-color="#C3C9CD"/>
</radialGradient>
<radialGradient id="paint80_radial" cx="0" cy="0" r="1" gradientUnits="userSpaceOnUse" gradientTransform="translate(124.211 46.1546) rotate(55.892) scale(18.6363 17.8767)">
<stop stop-color="#6C6C6C"/>
<stop offset="1" stop-color="#4A4E52"/>
</radialGradient>
<radialGradient id="paint81_radial" cx="0" cy="0" r="1" gradientUnits="userSpaceOnUse" gradientTransform="translate(127.5 47.0833) scale(5.01448)">
<stop/>
<stop offset="0.979" stop-opacity="0"/>
</radialGradient>
</defs>
</svg>
