<svg width="413" height="196" viewBox="0 0 413 196" fill="none" xmlns="http://www.w3.org/2000/svg">
<path d="M34.64 126.35C52.04 126.35 75.14 119.75 74.39 91.55C74.09 81.05 64.94 69.95 50.24 66.35C77.09 47.3 61.94 18.05 36.74 18.05C25.79 18.05 9.59004 26 9.74004 44.15L11.54 44.3C14.99 33.95 29.39 32.75 36.14 37.85C45.14 44.75 46.49 65.15 23.99 70.7V72.65C44.84 74.15 48.89 89.6 49.94 96.95C52.04 111.5 47.84 124.4 34.49 124.4C22.49 124.4 20.39 120.05 21.89 119.75C24.89 119 26.99 116.9 28.49 113.9C31.34 107.75 28.64 100.7 22.49 97.85C16.64 95 9.44004 97.55 6.59004 103.7C4.64004 107.9 5.39004 113.3 7.94004 116.3C13.94 123.2 22.19 126.35 34.64 126.35Z" fill="#51A1A4" fill-opacity="0.15"/>
</svg>
