<svg width="112" height="112" viewBox="0 0 112 112" fill="none" xmlns="http://www.w3.org/2000/svg">
<g filter="url(#filter0_d)">
<path d="M54 98C79.4051 98 100 77.4051 100 52C100 26.5949 79.4051 6 54 6C28.5949 6 8 26.5949 8 52C8 77.4051 28.5949 98 54 98Z" fill="url(#paint0_linear)"/>
</g>
<mask id="path-2-inside-1" fill="white">
<path d="M38 31C35.2505 31 33 33.2505 33 36V68C33 70.7495 35.2505 73 38 73H70C72.7495 73 75 70.7495 75 68V36C75 33.2505 72.7495 31 70 31H38ZM38 33H70C71.6685 33 73 34.3315 73 36V68C73 69.6685 71.6685 71 70 71H38C36.3315 71 35 69.6685 35 68V36C35 34.3315 36.3315 33 38 33ZM40 43C39.7348 43 39.4805 43.1054 39.2929 43.2929C39.1054 43.4805 39 43.7348 39 44V60.002C39 60.2672 39.1054 60.5215 39.2929 60.709C39.4805 60.8966 39.7348 61.0019 40 61.002H47.6094H47.6113C48.0238 61.0013 49.4704 60.9661 50.9668 60.2637C52.4631 59.5612 54 57.9814 54 55.4277C54 53.8077 53.4695 52.5879 52.7578 51.7852C52.46 51.4492 52.1817 51.4116 51.8672 51.2051C52.469 50.5011 53 49.5484 53 48C53 45.6173 51.695 44.1386 50.3535 43.5371C49.0121 42.9356 47.6326 43 47.293 43H40ZM59 43C58.8675 42.9981 58.7359 43.0226 58.613 43.072C58.49 43.1214 58.3781 43.1948 58.2837 43.2878C58.1893 43.3809 58.1144 43.4918 58.0632 43.614C58.0121 43.7363 57.9858 43.8675 57.9858 44C57.9858 44.1325 58.0121 44.2637 58.0632 44.386C58.1144 44.5082 58.1893 44.6191 58.2837 44.7122C58.3781 44.8052 58.49 44.8786 58.613 44.928C58.7359 44.9774 58.8675 45.0019 59 45H65C65.1325 45.0019 65.2641 44.9774 65.387 44.928C65.51 44.8786 65.6219 44.8052 65.7163 44.7122C65.8107 44.6191 65.8856 44.5082 65.9368 44.386C65.9879 44.2637 66.0142 44.1325 66.0142 44C66.0142 43.8675 65.9879 43.7363 65.9368 43.614C65.8856 43.4918 65.8107 43.3809 65.7163 43.2878C65.6219 43.1948 65.51 43.1214 65.387 43.072C65.2641 43.0226 65.1325 42.9981 65 43H59ZM41 45H47.293C47.7454 45 48.7211 44.9963 49.5352 45.3613C50.3492 45.7263 51 46.2487 51 48C51 49.8759 50.2771 50.2359 49.8477 50.457C49.6737 50.5469 49.5299 50.6858 49.4342 50.8566C49.3385 51.0274 49.295 51.2226 49.3091 51.4178C49.3233 51.6131 49.3944 51.7999 49.5138 51.9552C49.6331 52.1104 49.7954 52.2272 49.9805 52.291C50.3586 52.4206 50.8636 52.6623 51.2617 53.1113C51.6598 53.5604 52 54.2187 52 55.4277C52 57.2581 51.1573 57.9648 50.1172 58.4531C49.0771 58.9414 47.831 59.0016 47.6094 59.002H41V45ZM62 46C61.0876 46 59.4174 46.1813 57.8633 47.248C56.3091 48.3148 55 50.3394 55 53.5C55 56.4434 56.2088 58.4442 57.7285 59.5684C59.2482 60.6926 60.9707 61 62.1699 61C64.7091 61 66.5045 60.1369 67.5801 58.9102C68.5735 57.7771 68.9024 56.4403 68.9531 55.2969C68.9803 55.2121 68.9961 55.1241 69 55.0352C69.0003 55.0266 68.9977 55.0165 68.998 55.0078C68.9981 55.0054 69 55.0024 69 55C68.9997 54.9667 68.9977 54.9335 68.9941 54.9004V54.8965C69.0486 53.0891 68.9086 51.0003 67.9434 49.2129C66.9546 47.3819 64.9666 46 62 46ZM44 47V50H46.6191C46.9761 50 48.166 49.7745 48.166 48.4355C48.166 47.0955 46.6179 47 46.3809 47H44ZM62 48C64.4084 48 65.4829 48.8681 66.1816 50.1621C66.7476 51.2103 66.9197 52.6183 66.9531 54H64H60C59.7348 54 59.4805 54.1054 59.2929 54.2929C59.1054 54.4805 59 54.7348 59 55C59 55 59.0086 55.2524 59.082 55.4727C59.1554 55.6929 59.3001 55.9642 59.543 56.207C60.0287 56.6927 60.8333 57 62 57C63.1667 57 63.9713 56.6927 64.457 56.207C64.5256 56.1384 64.5344 56.0714 64.5879 56H66.8418C66.7086 56.5548 66.4947 57.1125 66.0762 57.5898C65.3983 58.3631 64.2788 59 62.1699 59C61.3412 59 59.9758 58.7435 58.918 57.9609C57.8601 57.1784 57 55.9296 57 53.5C57 50.8536 57.9305 49.6279 58.9961 48.8965C60.0617 48.165 61.3914 48 62 48ZM62.0859 49.6016C61.4949 49.6016 61.0704 49.677 60.7324 49.832C60.3944 49.986 60.1427 50.2192 59.8887 50.4512C59.7197 50.6832 59.5498 50.9166 59.4648 51.2266C59.3798 51.4586 59.2959 51.691 59.2969 52.002H64.7051C64.6201 51.227 64.3664 50.6077 63.9434 50.2207C63.5214 49.8337 62.9309 49.6016 62.0859 49.6016ZM44.0332 53V56.9805H46.9629C47.2169 56.9805 49 56.8825 49 55.0645C49 53.2445 47.5989 53 46.9629 53H44.0332Z"/>
</mask>
<path d="M38 31C35.2505 31 33 33.2505 33 36V68C33 70.7495 35.2505 73 38 73H70C72.7495 73 75 70.7495 75 68V36C75 33.2505 72.7495 31 70 31H38ZM38 33H70C71.6685 33 73 34.3315 73 36V68C73 69.6685 71.6685 71 70 71H38C36.3315 71 35 69.6685 35 68V36C35 34.3315 36.3315 33 38 33ZM40 43C39.7348 43 39.4805 43.1054 39.2929 43.2929C39.1054 43.4805 39 43.7348 39 44V60.002C39 60.2672 39.1054 60.5215 39.2929 60.709C39.4805 60.8966 39.7348 61.0019 40 61.002H47.6094H47.6113C48.0238 61.0013 49.4704 60.9661 50.9668 60.2637C52.4631 59.5612 54 57.9814 54 55.4277C54 53.8077 53.4695 52.5879 52.7578 51.7852C52.46 51.4492 52.1817 51.4116 51.8672 51.2051C52.469 50.5011 53 49.5484 53 48C53 45.6173 51.695 44.1386 50.3535 43.5371C49.0121 42.9356 47.6326 43 47.293 43H40ZM59 43C58.8675 42.9981 58.7359 43.0226 58.613 43.072C58.49 43.1214 58.3781 43.1948 58.2837 43.2878C58.1893 43.3809 58.1144 43.4918 58.0632 43.614C58.0121 43.7363 57.9858 43.8675 57.9858 44C57.9858 44.1325 58.0121 44.2637 58.0632 44.386C58.1144 44.5082 58.1893 44.6191 58.2837 44.7122C58.3781 44.8052 58.49 44.8786 58.613 44.928C58.7359 44.9774 58.8675 45.0019 59 45H65C65.1325 45.0019 65.2641 44.9774 65.387 44.928C65.51 44.8786 65.6219 44.8052 65.7163 44.7122C65.8107 44.6191 65.8856 44.5082 65.9368 44.386C65.9879 44.2637 66.0142 44.1325 66.0142 44C66.0142 43.8675 65.9879 43.7363 65.9368 43.614C65.8856 43.4918 65.8107 43.3809 65.7163 43.2878C65.6219 43.1948 65.51 43.1214 65.387 43.072C65.2641 43.0226 65.1325 42.9981 65 43H59ZM41 45H47.293C47.7454 45 48.7211 44.9963 49.5352 45.3613C50.3492 45.7263 51 46.2487 51 48C51 49.8759 50.2771 50.2359 49.8477 50.457C49.6737 50.5469 49.5299 50.6858 49.4342 50.8566C49.3385 51.0274 49.295 51.2226 49.3091 51.4178C49.3233 51.6131 49.3944 51.7999 49.5138 51.9552C49.6331 52.1104 49.7954 52.2272 49.9805 52.291C50.3586 52.4206 50.8636 52.6623 51.2617 53.1113C51.6598 53.5604 52 54.2187 52 55.4277C52 57.2581 51.1573 57.9648 50.1172 58.4531C49.0771 58.9414 47.831 59.0016 47.6094 59.002H41V45ZM62 46C61.0876 46 59.4174 46.1813 57.8633 47.248C56.3091 48.3148 55 50.3394 55 53.5C55 56.4434 56.2088 58.4442 57.7285 59.5684C59.2482 60.6926 60.9707 61 62.1699 61C64.7091 61 66.5045 60.1369 67.5801 58.9102C68.5735 57.7771 68.9024 56.4403 68.9531 55.2969C68.9803 55.2121 68.9961 55.1241 69 55.0352C69.0003 55.0266 68.9977 55.0165 68.998 55.0078C68.9981 55.0054 69 55.0024 69 55C68.9997 54.9667 68.9977 54.9335 68.9941 54.9004V54.8965C69.0486 53.0891 68.9086 51.0003 67.9434 49.2129C66.9546 47.3819 64.9666 46 62 46ZM44 47V50H46.6191C46.9761 50 48.166 49.7745 48.166 48.4355C48.166 47.0955 46.6179 47 46.3809 47H44ZM62 48C64.4084 48 65.4829 48.8681 66.1816 50.1621C66.7476 51.2103 66.9197 52.6183 66.9531 54H64H60C59.7348 54 59.4805 54.1054 59.2929 54.2929C59.1054 54.4805 59 54.7348 59 55C59 55 59.0086 55.2524 59.082 55.4727C59.1554 55.6929 59.3001 55.9642 59.543 56.207C60.0287 56.6927 60.8333 57 62 57C63.1667 57 63.9713 56.6927 64.457 56.207C64.5256 56.1384 64.5344 56.0714 64.5879 56H66.8418C66.7086 56.5548 66.4947 57.1125 66.0762 57.5898C65.3983 58.3631 64.2788 59 62.1699 59C61.3412 59 59.9758 58.7435 58.918 57.9609C57.8601 57.1784 57 55.9296 57 53.5C57 50.8536 57.9305 49.6279 58.9961 48.8965C60.0617 48.165 61.3914 48 62 48ZM62.0859 49.6016C61.4949 49.6016 61.0704 49.677 60.7324 49.832C60.3944 49.986 60.1427 50.2192 59.8887 50.4512C59.7197 50.6832 59.5498 50.9166 59.4648 51.2266C59.3798 51.4586 59.2959 51.691 59.2969 52.002H64.7051C64.6201 51.227 64.3664 50.6077 63.9434 50.2207C63.5214 49.8337 62.9309 49.6016 62.0859 49.6016ZM44.0332 53V56.9805H46.9629C47.2169 56.9805 49 56.8825 49 55.0645C49 53.2445 47.5989 53 46.9629 53H44.0332Z" fill="black" stroke="#FFE1E1" stroke-width="0.6" mask="url(#path-2-inside-1)"/>
<defs>
<filter id="filter0_d" x="0" y="0" width="112" height="112" filterUnits="userSpaceOnUse" color-interpolation-filters="sRGB">
<feFlood flood-opacity="0" result="BackgroundImageFix"/>
<feColorMatrix in="SourceAlpha" type="matrix" values="0 0 0 0 0 0 0 0 0 0 0 0 0 0 0 0 0 0 127 0"/>
<feOffset dx="2" dy="4"/>
<feGaussianBlur stdDeviation="5"/>
<feColorMatrix type="matrix" values="0 0 0 0 0 0 0 0 0 0 0 0 0 0 0 0 0 0 0.05 0"/>
<feBlend mode="normal" in2="BackgroundImageFix" result="effect1_dropShadow"/>
<feBlend mode="normal" in="SourceGraphic" in2="effect1_dropShadow" result="shape"/>
</filter>
<linearGradient id="paint0_linear" x1="55622" y1="20216.6" x2="55622" y2="25120.2" gradientUnits="userSpaceOnUse">
<stop stop-color="#FFE1E1"/>
<stop offset="1" stop-color="white" stop-opacity="0.38"/>
</linearGradient>
</defs>
</svg>
