<svg width="112" height="112" viewBox="0 0 112 112" fill="none" xmlns="http://www.w3.org/2000/svg">
<g filter="url(#filter0_d)">
<path d="M54 98C79.4051 98 100 77.4051 100 52C100 26.5949 79.4051 6 54 6C28.5949 6 8 26.5949 8 52C8 77.4051 28.5949 98 54 98Z" fill="url(#paint0_linear)"/>
</g>
<path d="M67.2813 36.576L67.5882 36.3058L67.2739 36.0443C63.6788 33.0522 59.0556 31.25 54 31.25C52.196 31.25 50.4582 31.5032 48.7963 31.9314L48.2959 32.0603L48.6012 32.4771C51.1766 35.9927 53.4725 39.7219 55.5894 43.5718L55.7445 43.8539L56.0386 43.7228C60.1419 41.8942 63.9495 39.5092 67.2813 36.576ZM45.6214 33.3295L45.4504 33.1034L45.1937 33.2237C39.6348 35.8288 35.443 40.8134 33.9076 46.8869L33.8078 47.2814L34.2128 47.321C35.5902 47.4556 36.9836 47.55 38.4 47.55C43.4127 47.55 48.1472 46.5452 52.6102 44.9947L53.0041 44.8578L52.801 44.4936C50.6397 40.6168 48.2885 36.8565 45.6214 33.3295ZM69.87 38.6307L69.6385 38.3561L69.37 38.5945C65.8451 41.7241 61.7994 44.2708 57.437 46.2436L57.105 46.3938L57.2684 46.7195C58.0821 48.341 58.8705 49.9619 59.5896 51.6278L59.7014 51.8867L59.9781 51.8326C62.0406 51.4293 64.1362 51.15 66.3 51.15C69.0613 51.15 71.7407 51.5016 74.3055 52.145L74.7449 52.2552L74.7406 51.8022C74.6934 46.7787 72.8717 42.1925 69.87 38.6307ZM54.5255 47.7263L54.3856 47.45L54.0944 47.5552C49.1659 49.3356 43.9243 50.45 38.4 50.45C36.8151 50.45 35.2582 50.3386 33.7107 50.18L33.3515 50.1431L33.3259 50.5033C33.3218 50.5612 33.3175 50.6194 33.3133 50.6778C33.2822 51.1061 33.25 51.5487 33.25 52C33.25 57.2725 35.2223 62.0625 38.4469 65.7175L38.7454 66.0558L38.9989 65.6826C43.1435 59.5817 49.3225 55.0104 56.5232 52.7583L56.8962 52.6416L56.7393 52.2837C56.1194 50.87 55.4268 49.504 54.7374 48.1443C54.6667 48.0049 54.5961 47.8656 54.5255 47.7263ZM74.431 55.5182L74.4843 55.2051L74.1779 55.1217C71.6663 54.438 69.032 54.05 66.3 54.05C64.9058 54.05 63.5769 54.2987 62.2846 54.5405C61.9352 54.6059 61.5884 54.6707 61.2437 54.7301L60.8234 54.8024L60.9764 55.2006C62.6819 59.6378 64.1698 64.1761 65.232 68.8795L65.346 69.3842L65.7721 69.0905C70.2781 65.9848 73.473 61.141 74.431 55.5182ZM58.0359 55.6221L57.9178 55.3213L57.6086 55.4151C50.7369 57.4982 44.8823 61.9125 41.0595 67.808L40.8861 68.0753L41.136 68.273C44.6705 71.0684 49.1306 72.75 54 72.75C57.0063 72.75 59.8541 72.1012 62.4296 70.9574L62.6881 70.8425L62.63 70.5656C61.5449 65.3936 59.9259 60.4354 58.0359 55.6221ZM30.35 52C30.35 38.9598 40.9598 28.35 54 28.35C67.0402 28.35 77.65 38.9598 77.65 52C77.65 65.0402 67.0402 75.65 54 75.65C40.9598 75.65 30.35 65.0402 30.35 52Z" fill="black" stroke="#FFE1E1" stroke-width="0.7"/>
<defs>
<filter id="filter0_d" x="0" y="0" width="112" height="112" filterUnits="userSpaceOnUse" color-interpolation-filters="sRGB">
<feFlood flood-opacity="0" result="BackgroundImageFix"/>
<feColorMatrix in="SourceAlpha" type="matrix" values="0 0 0 0 0 0 0 0 0 0 0 0 0 0 0 0 0 0 127 0"/>
<feOffset dx="2" dy="4"/>
<feGaussianBlur stdDeviation="5"/>
<feColorMatrix type="matrix" values="0 0 0 0 0 0 0 0 0 0 0 0 0 0 0 0 0 0 0.05 0"/>
<feBlend mode="normal" in2="BackgroundImageFix" result="effect1_dropShadow"/>
<feBlend mode="normal" in="SourceGraphic" in2="effect1_dropShadow" result="shape"/>
</filter>
<linearGradient id="paint0_linear" x1="55622" y1="20216.6" x2="55622" y2="25120.2" gradientUnits="userSpaceOnUse">
<stop stop-color="#FFE1E1"/>
<stop offset="1" stop-color="white" stop-opacity="0.38"/>
</linearGradient>
</defs>
</svg>
