<svg width="112" height="112" viewBox="0 0 112 112" fill="none" xmlns="http://www.w3.org/2000/svg">
<g filter="url(#filter0_d)">
<path d="M54 98C79.4051 98 100 77.4051 100 52C100 26.5949 79.4051 6 54 6C28.5949 6 8 26.5949 8 52C8 77.4051 28.5949 98 54 98Z" fill="url(#paint0_linear)"/>
</g>
<path d="M67.3143 36.6135L67.665 36.3047L67.3059 36.0058C63.7021 33.0066 59.0677 31.2 54 31.2C52.1913 31.2 50.4493 31.4538 48.7838 31.883L48.2119 32.0303L48.5609 32.5067C51.1347 36.0201 53.4295 39.7474 55.5456 43.5959L55.7229 43.9182L56.0589 43.7685C60.1665 41.938 63.9784 39.5503 67.3143 36.6135ZM45.6612 33.2994L45.4658 33.0409L45.1724 33.1784C39.6002 35.7898 35.3983 40.7864 33.8591 46.8746L33.7451 47.3255L34.208 47.3708C35.5863 47.5054 36.9814 47.6 38.4 47.6C43.4194 47.6 48.1596 46.5938 52.6266 45.0419L53.0767 44.8855L52.8447 44.4693C50.6826 40.591 48.3302 36.8286 45.6612 33.2994ZM69.9082 38.5985L69.6437 38.2846L69.3368 38.5571C65.816 41.683 61.7747 44.2271 57.4164 46.198L57.037 46.3696L57.2237 46.7419C58.0372 48.3632 58.8252 49.9831 59.5437 51.6476L59.6714 51.9435L59.9877 51.8816C62.0483 51.4787 64.1405 51.2 66.3 51.2C69.057 51.2 71.7324 51.5511 74.2933 52.1934L74.7955 52.3194L74.7906 51.8017C74.7433 46.7662 72.9172 42.1689 69.9082 38.5985ZM54.5702 47.7037L54.4103 47.3879L54.0774 47.5082C49.1533 49.287 43.9175 50.4 38.4 50.4C36.8174 50.4 35.2624 50.2888 33.7158 50.1302L33.3053 50.0881L33.276 50.4997C33.2719 50.5575 33.2677 50.6157 33.2634 50.6741C33.2323 51.1022 33.2 51.5468 33.2 52C33.2 57.2852 35.1771 62.0869 38.4094 65.7506L38.7505 66.1372L39.0402 65.7107C43.1784 59.6193 49.348 55.0549 56.5382 52.806L56.9645 52.6726L56.7851 52.2636C56.1646 50.8486 55.4713 49.4813 54.782 48.1217C54.7113 47.9823 54.6407 47.843 54.5702 47.7037ZM74.4803 55.5266L74.5412 55.1687L74.191 55.0734C71.6755 54.3887 69.0367 54 66.3 54C64.9007 54 63.5658 54.2498 62.273 54.4918C61.9241 54.557 61.5784 54.6217 61.2353 54.6808L60.7549 54.7635L60.9298 55.2185C62.6347 59.6542 64.1217 64.1901 65.1833 68.8905L65.3135 69.4673L65.8004 69.1317C70.3173 66.0185 73.52 61.163 74.4803 55.5266ZM58.0825 55.6038L57.9475 55.2601L57.5941 55.3672C50.7112 57.4538 44.8468 61.8753 41.0175 67.7808L40.8194 68.0863L41.105 68.3122C44.6479 71.1143 49.1189 72.8 54 72.8C57.0136 72.8 59.8683 72.1496 62.4499 71.0031L62.7454 70.8718L62.679 70.5554C61.5931 65.3798 59.9732 60.4189 58.0825 55.6038ZM30.4 52C30.4 38.9874 40.9874 28.4 54 28.4C67.0126 28.4 77.6 38.9874 77.6 52C77.6 65.0126 67.0126 75.6 54 75.6C40.9874 75.6 30.4 65.0126 30.4 52Z" fill="black" stroke="#FFE1E1" stroke-width="0.8"/>
<defs>
<filter id="filter0_d" x="0" y="0" width="112" height="112" filterUnits="userSpaceOnUse" color-interpolation-filters="sRGB">
<feFlood flood-opacity="0" result="BackgroundImageFix"/>
<feColorMatrix in="SourceAlpha" type="matrix" values="0 0 0 0 0 0 0 0 0 0 0 0 0 0 0 0 0 0 127 0"/>
<feOffset dx="2" dy="4"/>
<feGaussianBlur stdDeviation="5"/>
<feColorMatrix type="matrix" values="0 0 0 0 0 0 0 0 0 0 0 0 0 0 0 0 0 0 0.05 0"/>
<feBlend mode="normal" in2="BackgroundImageFix" result="effect1_dropShadow"/>
<feBlend mode="normal" in="SourceGraphic" in2="effect1_dropShadow" result="shape"/>
</filter>
<linearGradient id="paint0_linear" x1="55622" y1="20216.6" x2="55622" y2="25120.2" gradientUnits="userSpaceOnUse">
<stop stop-color="#FFE1E1"/>
<stop offset="1" stop-color="white" stop-opacity="0.38"/>
</linearGradient>
</defs>
</svg>
