<svg width="112" height="112" viewBox="0 0 112 112" fill="none" xmlns="http://www.w3.org/2000/svg">
<g filter="url(#filter0_d)">
<path d="M54 98C79.4051 98 100 77.4051 100 52C100 26.5949 79.4051 6 54 6C28.5949 6 8 26.5949 8 52C8 77.4051 28.5949 98 54 98Z" fill="url(#paint0_linear)"/>
</g>
<path d="M65.5594 38.6456L65.8662 38.3754L65.552 38.1139C62.4232 35.51 58.3997 33.9415 54 33.9415C52.4297 33.9415 50.9173 34.1619 49.4713 34.5344L48.9709 34.6634L49.2763 35.0802C51.5104 38.13 53.5023 41.3653 55.3392 44.7059L55.4943 44.988L55.7883 44.857C59.3542 43.2679 62.6634 41.1951 65.5594 38.6456ZM46.7637 35.765L46.5927 35.5389L46.336 35.6592C41.4982 37.9263 37.8501 42.2644 36.5138 47.55L36.4141 47.9446L36.8191 47.9842C38.0156 48.1011 39.2267 48.1832 40.4583 48.1832C44.8158 48.1832 48.9309 47.3096 52.8087 45.9625L53.2025 45.8256L52.9995 45.4614C51.1227 42.0948 49.0805 38.8287 46.7637 35.765ZM67.8113 40.3648L67.5798 40.0902L67.3113 40.3286C64.2553 43.0419 60.7474 45.2501 56.9645 46.9609L56.6324 47.111L56.7959 47.4368C57.502 48.8441 58.1859 50.2502 58.8096 51.695L58.9214 51.9539L59.1981 51.8998C60.9867 51.5501 62.8027 51.3082 64.677 51.3082C67.07 51.3082 69.3922 51.6129 71.615 52.1705L72.0544 52.2807L72.0501 51.8277C72.009 47.4559 70.4237 43.4645 67.8113 40.3648ZM54.4974 48.2692L54.3575 47.9928L54.0662 48.0981C49.7921 49.6421 45.2474 50.6082 40.4583 50.6082C39.0847 50.6082 37.7349 50.5116 36.3924 50.374L36.0333 50.3372L36.0076 50.6973C36.004 50.7475 36.0004 50.7979 35.9967 50.8487C35.9697 51.2203 35.9416 51.6063 35.9416 51.9998C35.9416 56.5884 37.6581 60.7572 40.4644 63.9379L40.7629 64.2762L41.0164 63.9031C44.6081 58.6159 49.9632 54.6541 56.204 52.7021L56.5771 52.5855L56.4201 52.2275C55.8815 50.9991 55.2796 49.8122 54.6813 48.632C54.6199 48.511 54.5586 48.3901 54.4974 48.2692ZM71.7807 55.0615L71.834 54.7485L71.5276 54.6651C69.3438 54.0706 67.0529 53.7332 64.677 53.7332C63.4621 53.7332 62.303 53.9501 61.1807 54.1601C60.878 54.2168 60.5779 54.2729 60.2801 54.3242L59.8598 54.3965L60.0128 54.7947C61.4927 58.6451 62.7835 62.5823 63.7049 66.6623L63.8189 67.167L64.245 66.8734C68.1665 64.1705 70.947 59.955 71.7807 55.0615ZM57.5464 55.1271L57.4283 54.8264L57.119 54.9201C51.1437 56.7315 46.0525 60.5701 42.7281 65.6969L42.5548 65.9643L42.8047 66.1619C45.8806 68.5946 49.7622 70.0582 54 70.0582C56.6163 70.0582 59.0947 69.4935 61.336 68.4981L61.5946 68.3833L61.5365 68.1064C60.5939 63.6135 59.1876 59.307 57.5464 55.1271ZM33.5166 51.9998C33.5166 40.7057 42.7058 31.5165 54 31.5165C65.2941 31.5165 74.4833 40.7057 74.4833 51.9998C74.4833 63.294 65.2941 72.4832 54 72.4832C42.7058 72.4832 33.5166 63.294 33.5166 51.9998Z" fill="black" stroke="#FFE1E1" stroke-width="0.7"/>
<defs>
<filter id="filter0_d" x="0" y="0" width="112" height="112" filterUnits="userSpaceOnUse" color-interpolation-filters="sRGB">
<feFlood flood-opacity="0" result="BackgroundImageFix"/>
<feColorMatrix in="SourceAlpha" type="matrix" values="0 0 0 0 0 0 0 0 0 0 0 0 0 0 0 0 0 0 127 0"/>
<feOffset dx="2" dy="4"/>
<feGaussianBlur stdDeviation="5"/>
<feColorMatrix type="matrix" values="0 0 0 0 0 0 0 0 0 0 0 0 0 0 0 0 0 0 0.05 0"/>
<feBlend mode="normal" in2="BackgroundImageFix" result="effect1_dropShadow"/>
<feBlend mode="normal" in="SourceGraphic" in2="effect1_dropShadow" result="shape"/>
</filter>
<linearGradient id="paint0_linear" x1="55622" y1="20216.6" x2="55622" y2="25120.2" gradientUnits="userSpaceOnUse">
<stop stop-color="#FFE1E1"/>
<stop offset="1" stop-color="white" stop-opacity="0.38"/>
</linearGradient>
</defs>
</svg>
