<svg width="112" height="112" viewBox="0 0 112 112" fill="none" xmlns="http://www.w3.org/2000/svg">
<g filter="url(#filter0_d)">
<path d="M54 98C79.4051 98 100 77.4051 100 52C100 26.5949 79.4051 6 54 6C28.5949 6 8 26.5949 8 52C8 77.4051 28.5949 98 54 98Z" fill="url(#paint0_linear)"/>
</g>
<path d="M59.1406 29C55.8704 29 53.0454 29.9969 51.0625 31.9668C49.0796 33.9367 48 36.8238 48 40.3672V45H42C41.7348 45 41.4805 45.1054 41.2929 45.2929C41.1054 45.4805 41 45.7348 41 46V54C41 54.2652 41.1054 54.5195 41.2929 54.7071C41.4805 54.8946 41.7348 55 42 55H48V74C48 74.2652 48.1054 74.5195 48.2929 74.7071C48.4805 74.8946 48.7348 75 49 75H57C57.2652 75 57.5195 74.8946 57.7071 74.7071C57.8946 74.5195 58 74.2652 58 74V55H65C65.2436 55 65.4788 54.9111 65.6614 54.75C65.8441 54.5889 65.9617 54.3667 65.9922 54.125L66.9922 46.125C67.0099 45.9842 66.9975 45.8413 66.9557 45.7057C66.914 45.5701 66.8438 45.445 66.75 45.3386C66.6561 45.2322 66.5407 45.147 66.4114 45.0886C66.2821 45.0302 66.1419 45 66 45H58V41C58 39.8833 58.8833 39 60 39H66C66.2652 39 66.5195 38.8946 66.7071 38.7071C66.8946 38.5195 67 38.2652 67 38V30.3457C66.9997 30.1034 66.9114 29.8694 66.7515 29.6872C66.5917 29.5051 66.3711 29.3872 66.1309 29.3555C65.2472 29.2382 62.0572 29 59.1406 29ZM59.1406 31C61.5785 31 63.9351 31.195 65 31.2949V37H60C57.8027 37 56 38.8027 56 41V46C56 46.2652 56.1054 46.5195 56.2929 46.7071C56.4805 46.8946 56.7348 47 57 47H64.8672L64.1172 53H57C56.7348 53 56.4805 53.1054 56.2929 53.2929C56.1054 53.4805 56 53.7348 56 54V73H50V54C50 53.7348 49.8946 53.4805 49.7071 53.2929C49.5195 53.1054 49.2652 53 49 53H43V47H49C49.2652 47 49.5195 46.8946 49.7071 46.7071C49.8946 46.5195 50 46.2652 50 46V40.3672C50 37.2226 50.9203 34.9269 52.4727 33.3848C54.025 31.8426 56.2699 31 59.1406 31Z" fill="black"/>
<defs>
<filter id="filter0_d" x="0" y="0" width="112" height="112" filterUnits="userSpaceOnUse" color-interpolation-filters="sRGB">
<feFlood flood-opacity="0" result="BackgroundImageFix"/>
<feColorMatrix in="SourceAlpha" type="matrix" values="0 0 0 0 0 0 0 0 0 0 0 0 0 0 0 0 0 0 127 0"/>
<feOffset dx="2" dy="4"/>
<feGaussianBlur stdDeviation="5"/>
<feColorMatrix type="matrix" values="0 0 0 0 0 0 0 0 0 0 0 0 0 0 0 0 0 0 0.05 0"/>
<feBlend mode="normal" in2="BackgroundImageFix" result="effect1_dropShadow"/>
<feBlend mode="normal" in="SourceGraphic" in2="effect1_dropShadow" result="shape"/>
</filter>
<linearGradient id="paint0_linear" x1="55622" y1="20216.6" x2="55622" y2="25120.2" gradientUnits="userSpaceOnUse">
<stop stop-color="#FFE1E1"/>
<stop offset="1" stop-color="white" stop-opacity="0.38"/>
</linearGradient>
</defs>
</svg>
