<svg width="112" height="112" viewBox="0 0 112 112" fill="none" xmlns="http://www.w3.org/2000/svg">
<g filter="url(#filter0_d)">
<path d="M54 98C79.4051 98 100 77.4051 100 52C100 26.5949 79.4051 6 54 6C28.5949 6 8 26.5949 8 52C8 77.4051 28.5949 98 54 98Z" fill="url(#paint0_linear)"/>
</g>
<path d="M45 30C37.8325 30 32 35.8325 32 43V61C32 68.1675 37.8325 74 45 74H63C70.1675 74 76 68.1675 76 61V43C76 35.8325 70.1675 30 63 30H45ZM45 32H63C69.0865 32 74 36.9135 74 43V61C74 67.0865 69.0865 72 63 72H45C38.9135 72 34 67.0865 34 61V43C34 36.9135 38.9135 32 45 32ZM66 38C65.4696 38 64.9609 38.2107 64.5858 38.5858C64.2107 38.9609 64 39.4696 64 40C64 40.5304 64.2107 41.0391 64.5858 41.4142C64.9609 41.7893 65.4696 42 66 42C66.5304 42 67.0391 41.7893 67.4142 41.4142C67.7893 41.0391 68 40.5304 68 40C68 39.4696 67.7893 38.9609 67.4142 38.5858C67.0391 38.2107 66.5304 38 66 38ZM54 41C47.9367 41 43 45.9367 43 52C43 58.0633 47.9367 63 54 63C60.0633 63 65 58.0633 65 52C65 45.9367 60.0633 41 54 41ZM54 43C58.9824 43 63 47.0176 63 52C63 56.9824 58.9824 61 54 61C49.0176 61 45 56.9824 45 52C45 47.0176 49.0176 43 54 43Z" fill="black"/>
<defs>
<filter id="filter0_d" x="0" y="0" width="112" height="112" filterUnits="userSpaceOnUse" color-interpolation-filters="sRGB">
<feFlood flood-opacity="0" result="BackgroundImageFix"/>
<feColorMatrix in="SourceAlpha" type="matrix" values="0 0 0 0 0 0 0 0 0 0 0 0 0 0 0 0 0 0 127 0"/>
<feOffset dx="2" dy="4"/>
<feGaussianBlur stdDeviation="5"/>
<feColorMatrix type="matrix" values="0 0 0 0 0 0 0 0 0 0 0 0 0 0 0 0 0 0 0.05 0"/>
<feBlend mode="normal" in2="BackgroundImageFix" result="effect1_dropShadow"/>
<feBlend mode="normal" in="SourceGraphic" in2="effect1_dropShadow" result="shape"/>
</filter>
<linearGradient id="paint0_linear" x1="55622" y1="20216.6" x2="55622" y2="25120.2" gradientUnits="userSpaceOnUse">
<stop stop-color="#FFE1E1"/>
<stop offset="1" stop-color="white" stop-opacity="0.38"/>
</linearGradient>
</defs>
</svg>
