<svg width="112" height="112" viewBox="0 0 112 112" fill="none" xmlns="http://www.w3.org/2000/svg">
<g filter="url(#filter0_d)">
<path d="M54 98C79.4051 98 100 77.4051 100 52C100 26.5949 79.4051 6 54 6C28.5949 6 8 26.5949 8 52C8 77.4051 28.5949 98 54 98Z" fill="url(#paint0_linear)"/>
</g>
<path d="M37 30.0117C35.3244 30.0117 33.8517 30.4557 32.7637 31.3105C31.6756 32.1654 31.0117 33.464 31.0117 34.9004C31.0117 37.7731 33.6048 39.9883 37 39.9883C38.7412 39.9883 40.2347 39.4774 41.3047 38.5625C42.3747 37.6476 42.9883 36.3224 42.9883 34.9004C42.988 34.8854 42.9873 34.8704 42.9863 34.8555C42.8616 32.1114 40.3732 30.0117 37 30.0117ZM37 31.9883C39.6125 31.9883 40.9196 33.2768 41.0078 34.9199C41.0024 35.7882 40.6692 36.507 40.0195 37.0625C39.3645 37.6226 38.3588 38.0117 37 38.0117C34.3952 38.0117 32.9883 36.6276 32.9883 34.9004C32.9883 34.0368 33.3244 33.3853 33.9863 32.8652C34.6483 32.3451 35.6756 31.9883 37 31.9883ZM32 42C31.7348 42 31.4805 42.1054 31.2929 42.2929C31.1054 42.4805 31 42.7348 31 43V72C31 72.2652 31.1054 72.5195 31.2929 72.7071C31.4805 72.8946 31.7348 73 32 73H42C42.2652 73 42.5195 72.8946 42.7071 72.7071C42.8946 72.5195 43 72.2652 43 72V62.6992V43C43 42.7348 42.8946 42.4805 42.7071 42.2929C42.5195 42.1054 42.2652 42 42 42H32ZM47 42C46.7348 42 46.4805 42.1054 46.2929 42.2929C46.1054 42.4805 46 42.7348 46 43V72.0996C46 72.3648 46.1054 72.6192 46.2929 72.8067C46.4805 72.9942 46.7348 73.0996 47 73.0996H57C57.2652 73.0996 57.5195 72.9942 57.7071 72.8067C57.8946 72.6192 58 72.3648 58 72.0996V56.0996V55.8008V55.5C58 53.5333 59.5333 52 61.5 52C63.4667 52 65 53.5333 65 55.5V72C65 72.2652 65.1054 72.5195 65.2929 72.7071C65.4805 72.8946 65.7348 73 66 73H76C76.2652 73 76.5195 72.8946 76.7071 72.7071C76.8946 72.5195 77 72.2652 77 72V55C77 50.8559 75.7817 47.5863 73.7363 45.3613C71.691 43.1363 68.8448 42 65.8008 42C61.8926 42 59.5226 43.4218 58 44.584V43C58 42.7348 57.8946 42.4805 57.7071 42.2929C57.5195 42.1054 57.2652 42 57 42H47ZM33 44H41V62.6992V71H33V44ZM48 44H56V46.5996C56.0002 46.8009 56.0612 46.9974 56.1749 47.1635C56.2886 47.3296 56.4498 47.4575 56.6374 47.5305C56.8249 47.6035 57.0302 47.6182 57.2263 47.5727C57.4223 47.5272 57.6001 47.4236 57.7363 47.2754C57.7363 47.2754 60.7371 44 65.8008 44C68.3567 44 70.609 44.9149 72.2637 46.7148C73.9183 48.5148 75 51.2441 75 55V71H67V55.5C67.0013 55.3589 66.9726 55.2191 66.916 55.0898C66.6949 52.2579 64.3878 50 61.5 50C58.4667 50 56 52.4667 56 55.5V55.8008V56.0996V71.0996H48V44Z" fill="black"/>
<defs>
<filter id="filter0_d" x="0" y="0" width="112" height="112" filterUnits="userSpaceOnUse" color-interpolation-filters="sRGB">
<feFlood flood-opacity="0" result="BackgroundImageFix"/>
<feColorMatrix in="SourceAlpha" type="matrix" values="0 0 0 0 0 0 0 0 0 0 0 0 0 0 0 0 0 0 127 0"/>
<feOffset dx="2" dy="4"/>
<feGaussianBlur stdDeviation="5"/>
<feColorMatrix type="matrix" values="0 0 0 0 0 0 0 0 0 0 0 0 0 0 0 0 0 0 0.05 0"/>
<feBlend mode="normal" in2="BackgroundImageFix" result="effect1_dropShadow"/>
<feBlend mode="normal" in="SourceGraphic" in2="effect1_dropShadow" result="shape"/>
</filter>
<linearGradient id="paint0_linear" x1="55622" y1="20216.6" x2="55622" y2="25120.2" gradientUnits="userSpaceOnUse">
<stop stop-color="#FFE1E1"/>
<stop offset="1" stop-color="white" stop-opacity="0.38"/>
</linearGradient>
</defs>
</svg>
