<svg width="112" height="112" viewBox="0 0 112 112" fill="none" xmlns="http://www.w3.org/2000/svg">
<g filter="url(#filter0_d)">
<path d="M54 98C79.4051 98 100 77.4051 100 52C100 26.5949 79.4051 6 54 6C28.5949 6 8 26.5949 8 52C8 77.4051 28.5949 98 54 98Z" fill="url(#paint0_linear)"/>
</g>
<path d="M29 34V70H79V34H29ZM31 36H77V68H31V36ZM33 40.918V43.2773L54 55.1797L75 43.2773V40.918L54 52.8203L33 40.918Z" fill="black"/>
<defs>
<filter id="filter0_d" x="0" y="0" width="112" height="112" filterUnits="userSpaceOnUse" color-interpolation-filters="sRGB">
<feFlood flood-opacity="0" result="BackgroundImageFix"/>
<feColorMatrix in="SourceAlpha" type="matrix" values="0 0 0 0 0 0 0 0 0 0 0 0 0 0 0 0 0 0 127 0"/>
<feOffset dx="2" dy="4"/>
<feGaussianBlur stdDeviation="5"/>
<feColorMatrix type="matrix" values="0 0 0 0 0 0 0 0 0 0 0 0 0 0 0 0 0 0 0.05 0"/>
<feBlend mode="normal" in2="BackgroundImageFix" result="effect1_dropShadow"/>
<feBlend mode="normal" in="SourceGraphic" in2="effect1_dropShadow" result="shape"/>
</filter>
<linearGradient id="paint0_linear" x1="55622" y1="20216.6" x2="55622" y2="25120.2" gradientUnits="userSpaceOnUse">
<stop stop-color="#FFE1E1"/>
<stop offset="1" stop-color="white" stop-opacity="0.38"/>
</linearGradient>
</defs>
</svg>
