<svg width="112" height="112" viewBox="0 0 112 112" fill="none" xmlns="http://www.w3.org/2000/svg">
<g filter="url(#filter0_d)">
<path d="M54 98C79.4051 98 100 77.4051 100 52C100 26.5949 79.4051 6 54 6C28.5949 6 8 26.5949 8 52C8 77.4051 28.5949 98 54 98Z" fill="url(#paint0_linear)"/>
</g>
<path d="M31 34C29.8954 34 29 34.8954 29 36V68C29 69.1046 29.8954 70 31 70H77C78.1046 70 79 69.1046 79 68V36C79 34.8954 78.1046 34 77 34H31ZM31 36H77V68H31V36ZM34.5324 41.7865C33.8482 41.3987 33 41.8929 33 42.6793V42.6793C33 43.0489 33.1987 43.39 33.5202 43.5722L53.0138 54.6207C53.6256 54.9675 54.3744 54.9675 54.9862 54.6207L74.4798 43.5722C74.8013 43.39 75 43.0489 75 42.6793V42.6793C75 41.8929 74.1518 41.3987 73.4676 41.7865L54 52.8203L34.5324 41.7865Z" fill="black"/>
<defs>
<filter id="filter0_d" x="0" y="0" width="112" height="112" filterUnits="userSpaceOnUse" color-interpolation-filters="sRGB">
<feFlood flood-opacity="0" result="BackgroundImageFix"/>
<feColorMatrix in="SourceAlpha" type="matrix" values="0 0 0 0 0 0 0 0 0 0 0 0 0 0 0 0 0 0 127 0"/>
<feOffset dx="2" dy="4"/>
<feGaussianBlur stdDeviation="5"/>
<feColorMatrix type="matrix" values="0 0 0 0 0 0 0 0 0 0 0 0 0 0 0 0 0 0 0.05 0"/>
<feBlend mode="normal" in2="BackgroundImageFix" result="effect1_dropShadow"/>
<feBlend mode="normal" in="SourceGraphic" in2="effect1_dropShadow" result="shape"/>
</filter>
<linearGradient id="paint0_linear" x1="55622" y1="20216.6" x2="55622" y2="25120.2" gradientUnits="userSpaceOnUse">
<stop stop-color="#FFE1E1"/>
<stop offset="1" stop-color="white" stop-opacity="0.38"/>
</linearGradient>
</defs>
</svg>
