<svg width="801" height="151" viewBox="0 0 801 151" fill="none" xmlns="http://www.w3.org/2000/svg">
<rect x="43.7963" y="20.6706" width="756.505" height="129.709" rx="3.49515" fill="white"/>
<rect x="43.7963" y="20.6706" width="756.505" height="129.709" rx="3.49515" stroke="#9747FF" stroke-width="0.776699" stroke-dasharray="7.77 3.88"/>
<mask id="path-2-inside-1_7_4881" fill="white">
<path d="M43.408 20.2822H194.864V85.5249H43.408V20.2822Z"/>
</mask>
<path d="M194.864 85.5249V85.9133H195.253V85.5249H194.864ZM43.408 85.9133H47.2915V85.1366H43.408V85.9133ZM51.1749 85.9133H58.9419V85.1366H51.1749V85.9133ZM62.8254 85.9133H70.5924V85.1366H62.8254V85.9133ZM74.4759 85.9133H82.2429V85.1366H74.4759V85.9133ZM86.1264 85.9133H93.8934V85.1366H86.1264V85.9133ZM97.7769 85.9133H105.544V85.1366H97.7769V85.9133ZM109.427 85.9133H117.194V85.1366H109.427V85.9133ZM121.078 85.9133H128.845V85.1366H121.078V85.9133ZM132.728 85.9133H140.495V85.1366H132.728V85.9133ZM144.379 85.9133H152.146V85.1366H144.379V85.9133ZM156.029 85.9133H163.796V85.1366H156.029V85.9133ZM167.68 85.9133H175.447V85.1366H167.68V85.9133ZM179.33 85.9133H187.097V85.1366H179.33V85.9133ZM190.981 85.9133H194.864V85.1366H190.981V85.9133ZM195.253 85.5249V81.9004H194.476V85.5249H195.253ZM195.253 78.2758V71.0266H194.476V78.2758H195.253ZM195.253 67.402V60.1528H194.476V67.402H195.253ZM195.253 56.5282V49.279H194.476V56.5282H195.253ZM195.253 45.6544V38.4052H194.476V45.6544H195.253ZM195.253 34.7806V27.5314H194.476V34.7806H195.253ZM195.253 23.9068V20.2822H194.476V23.9068H195.253ZM194.864 85.5249V86.3017H195.641V85.5249H194.864ZM43.408 86.3017H47.2915V84.7482H43.408V86.3017ZM51.1749 86.3017H58.9419V84.7482H51.1749V86.3017ZM62.8254 86.3017H70.5924V84.7482H62.8254V86.3017ZM74.4759 86.3017H82.2429V84.7482H74.4759V86.3017ZM86.1264 86.3017H93.8934V84.7482H86.1264V86.3017ZM97.7769 86.3017H105.544V84.7482H97.7769V86.3017ZM109.427 86.3017H117.194V84.7482H109.427V86.3017ZM121.078 86.3017H128.845V84.7482H121.078V86.3017ZM132.728 86.3017H140.495V84.7482H132.728V86.3017ZM144.379 86.3017H152.146V84.7482H144.379V86.3017ZM156.029 86.3017H163.796V84.7482H156.029V86.3017ZM167.68 86.3017H175.447V84.7482H167.68V86.3017ZM179.33 86.3017H187.097V84.7482H179.33V86.3017ZM190.981 86.3017H194.864V84.7482H190.981V86.3017ZM195.641 85.5249V81.9004H194.088V85.5249H195.641ZM195.641 78.2758V71.0266H194.088V78.2758H195.641ZM195.641 67.402V60.1528H194.088V67.402H195.641ZM195.641 56.5282V49.279H194.088V56.5282H195.641ZM195.641 45.6544V38.4052H194.088V45.6544H195.641ZM195.641 34.7806V27.5314H194.088V34.7806H195.641ZM195.641 23.9068V20.2822H194.088V23.9068H195.641Z" fill="#9747FF" mask="url(#path-2-inside-1_7_4881)"/>
<mask id="path-4-inside-2_7_4881" fill="white">
<path d="M194.864 20.2822H346.321V85.5249H194.864V20.2822Z"/>
</mask>
<path d="M346.321 85.5249V85.9133H346.709V85.5249H346.321ZM194.864 85.9133H198.748V85.1366H194.864V85.9133ZM202.631 85.9133H210.398V85.1366H202.631V85.9133ZM214.282 85.9133H222.049V85.1366H214.282V85.9133ZM225.932 85.9133H233.699V85.1366H225.932V85.9133ZM237.583 85.9133H245.35V85.1366H237.583V85.9133ZM249.233 85.9133H257V85.1366H249.233V85.9133ZM260.884 85.9133H268.651V85.1366H260.884V85.9133ZM272.534 85.9133H280.301V85.1366H272.534V85.9133ZM284.185 85.9133H291.952V85.1366H284.185V85.9133ZM295.835 85.9133H303.602V85.1366H295.835V85.9133ZM307.486 85.9133H315.253V85.1366H307.486V85.9133ZM319.136 85.9133H326.903V85.1366H319.136V85.9133ZM330.787 85.9133H338.554V85.1366H330.787V85.9133ZM342.437 85.9133H346.321V85.1366H342.437V85.9133ZM346.709 85.5249V81.9004H345.932V85.5249H346.709ZM346.709 78.2758V71.0266H345.932V78.2758H346.709ZM346.709 67.402V60.1528H345.932V67.402H346.709ZM346.709 56.5282V49.279H345.932V56.5282H346.709ZM346.709 45.6544V38.4052H345.932V45.6544H346.709ZM346.709 34.7806V27.5314H345.932V34.7806H346.709ZM346.709 23.9068V20.2822H345.932V23.9068H346.709ZM346.321 85.5249V86.3017H347.097V85.5249H346.321ZM194.864 86.3017H198.748V84.7482H194.864V86.3017ZM202.631 86.3017H210.398V84.7482H202.631V86.3017ZM214.282 86.3017H222.049V84.7482H214.282V86.3017ZM225.932 86.3017H233.699V84.7482H225.932V86.3017ZM237.583 86.3017H245.35V84.7482H237.583V86.3017ZM249.233 86.3017H257V84.7482H249.233V86.3017ZM260.884 86.3017H268.651V84.7482H260.884V86.3017ZM272.534 86.3017H280.301V84.7482H272.534V86.3017ZM284.185 86.3017H291.952V84.7482H284.185V86.3017ZM295.835 86.3017H303.602V84.7482H295.835V86.3017ZM307.486 86.3017H315.253V84.7482H307.486V86.3017ZM319.136 86.3017H326.903V84.7482H319.136V86.3017ZM330.787 86.3017H338.554V84.7482H330.787V86.3017ZM342.437 86.3017H346.321V84.7482H342.437V86.3017ZM347.097 85.5249V81.9004H345.544V85.5249H347.097ZM347.097 78.2758V71.0266H345.544V78.2758H347.097ZM347.097 67.402V60.1528H345.544V67.402H347.097ZM347.097 56.5282V49.279H345.544V56.5282H347.097ZM347.097 45.6544V38.4052H345.544V45.6544H347.097ZM347.097 34.7806V27.5314H345.544V34.7806H347.097ZM347.097 23.9068V20.2822H345.544V23.9068H347.097Z" fill="#9747FF" mask="url(#path-4-inside-2_7_4881)"/>
<mask id="path-6-inside-3_7_4881" fill="white">
<path d="M346.321 20.2822H497.777V85.5249H346.321V20.2822Z"/>
</mask>
<path d="M497.777 85.5249V85.9133H498.165V85.5249H497.777ZM346.321 85.9133H350.204V85.1366H346.321V85.9133ZM354.088 85.9133H361.855V85.1366H354.088V85.9133ZM365.738 85.9133H373.505V85.1366H365.738V85.9133ZM377.389 85.9133H385.156V85.1366H377.389V85.9133ZM389.039 85.9133H396.806V85.1366H389.039V85.9133ZM400.689 85.9133H408.456V85.1366H400.689V85.9133ZM412.34 85.9133H420.107V85.1366H412.34V85.9133ZM423.99 85.9133H431.757V85.1366H423.99V85.9133ZM435.641 85.9133H443.408V85.1366H435.641V85.9133ZM447.291 85.9133H455.058V85.1366H447.291V85.9133ZM458.942 85.9133H466.709V85.1366H458.942V85.9133ZM470.592 85.9133H478.359V85.1366H470.592V85.9133ZM482.243 85.9133H490.01V85.1366H482.243V85.9133ZM493.893 85.9133H497.777V85.1366H493.893V85.9133ZM498.165 85.5249V81.9004H497.389V85.5249H498.165ZM498.165 78.2758V71.0266H497.389V78.2758H498.165ZM498.165 67.402V60.1528H497.389V67.402H498.165ZM498.165 56.5282V49.279H497.389V56.5282H498.165ZM498.165 45.6544V38.4052H497.389V45.6544H498.165ZM498.165 34.7806V27.5314H497.389V34.7806H498.165ZM498.165 23.9068V20.2822H497.389V23.9068H498.165ZM497.777 85.5249V86.3017H498.554V85.5249H497.777ZM346.321 86.3017H350.204V84.7482H346.321V86.3017ZM354.088 86.3017H361.855V84.7482H354.088V86.3017ZM365.738 86.3017H373.505V84.7482H365.738V86.3017ZM377.389 86.3017H385.156V84.7482H377.389V86.3017ZM389.039 86.3017H396.806V84.7482H389.039V86.3017ZM400.689 86.3017H408.456V84.7482H400.689V86.3017ZM412.34 86.3017H420.107V84.7482H412.34V86.3017ZM423.99 86.3017H431.757V84.7482H423.99V86.3017ZM435.641 86.3017H443.408V84.7482H435.641V86.3017ZM447.291 86.3017H455.058V84.7482H447.291V86.3017ZM458.942 86.3017H466.709V84.7482H458.942V86.3017ZM470.592 86.3017H478.359V84.7482H470.592V86.3017ZM482.243 86.3017H490.01V84.7482H482.243V86.3017ZM493.893 86.3017H497.777V84.7482H493.893V86.3017ZM498.554 85.5249V81.9004H497V85.5249H498.554ZM498.554 78.2758V71.0266H497V78.2758H498.554ZM498.554 67.402V60.1528H497V67.402H498.554ZM498.554 56.5282V49.279H497V56.5282H498.554ZM498.554 45.6544V38.4052H497V45.6544H498.554ZM498.554 34.7806V27.5314H497V34.7806H498.554ZM498.554 23.9068V20.2822H497V23.9068H498.554Z" fill="#9747FF" mask="url(#path-6-inside-3_7_4881)"/>
<mask id="path-8-inside-4_7_4881" fill="white">
<path d="M497.777 20.2822H649.233V85.5249H497.777V20.2822Z"/>
</mask>
<path d="M649.233 85.5249V85.9133H649.622V85.5249H649.233ZM497.777 85.9133H501.66V85.1366H497.777V85.9133ZM505.544 85.9133H513.311V85.1366H505.544V85.9133ZM517.194 85.9133H524.961V85.1366H517.194V85.9133ZM528.845 85.9133H536.612V85.1366H528.845V85.9133ZM540.495 85.9133H548.262V85.1366H540.495V85.9133ZM552.146 85.9133H559.913V85.1366H552.146V85.9133ZM563.796 85.9133H571.563V85.1366H563.796V85.9133ZM575.447 85.9133H583.214V85.1366H575.447V85.9133ZM587.097 85.9133H594.864V85.1366H587.097V85.9133ZM598.748 85.9133H606.515V85.1366H598.748V85.9133ZM610.398 85.9133H618.165V85.1366H610.398V85.9133ZM622.049 85.9133H629.816V85.1366H622.049V85.9133ZM633.699 85.9133H641.466V85.1366H633.699V85.9133ZM645.35 85.9133H649.233V85.1366H645.35V85.9133ZM649.622 85.5249V81.9004H648.845V85.5249H649.622ZM649.622 78.2758V71.0266H648.845V78.2758H649.622ZM649.622 67.402V60.1528H648.845V67.402H649.622ZM649.622 56.5282V49.279H648.845V56.5282H649.622ZM649.622 45.6544V38.4052H648.845V45.6544H649.622ZM649.622 34.7806V27.5314H648.845V34.7806H649.622ZM649.622 23.9068V20.2822H648.845V23.9068H649.622ZM649.233 85.5249V86.3017H650.01V85.5249H649.233ZM497.777 86.3017H501.66V84.7482H497.777V86.3017ZM505.544 86.3017H513.311V84.7482H505.544V86.3017ZM517.194 86.3017H524.961V84.7482H517.194V86.3017ZM528.845 86.3017H536.612V84.7482H528.845V86.3017ZM540.495 86.3017H548.262V84.7482H540.495V86.3017ZM552.146 86.3017H559.913V84.7482H552.146V86.3017ZM563.796 86.3017H571.563V84.7482H563.796V86.3017ZM575.447 86.3017H583.214V84.7482H575.447V86.3017ZM587.097 86.3017H594.864V84.7482H587.097V86.3017ZM598.748 86.3017H606.515V84.7482H598.748V86.3017ZM610.398 86.3017H618.165V84.7482H610.398V86.3017ZM622.049 86.3017H629.816V84.7482H622.049V86.3017ZM633.699 86.3017H641.466V84.7482H633.699V86.3017ZM645.35 86.3017H649.233V84.7482H645.35V86.3017ZM650.01 85.5249V81.9004H648.456V85.5249H650.01ZM650.01 78.2758V71.0266H648.456V78.2758H650.01ZM650.01 67.402V60.1528H648.456V67.402H650.01ZM650.01 56.5282V49.279H648.456V56.5282H650.01ZM650.01 45.6544V38.4052H648.456V45.6544H650.01ZM650.01 34.7806V27.5314H648.456V34.7806H650.01ZM650.01 23.9068V20.2822H648.456V23.9068H650.01Z" fill="#9747FF" mask="url(#path-8-inside-4_7_4881)"/>
<mask id="path-10-inside-5_7_4881" fill="white">
<path d="M649.233 20.2822H800.689V85.5249H649.233V20.2822Z"/>
</mask>
<path d="M649.233 85.9133H653.117V85.1366H649.233V85.9133ZM657 85.9133H664.767V85.1366H657V85.9133ZM668.651 85.9133H676.418V85.1366H668.651V85.9133ZM680.301 85.9133H688.068V85.1366H680.301V85.9133ZM691.952 85.9133H699.719V85.1366H691.952V85.9133ZM703.602 85.9133H711.369V85.1366H703.602V85.9133ZM715.253 85.9133H723.02V85.1366H715.253V85.9133ZM726.903 85.9133H734.67V85.1366H726.903V85.9133ZM738.554 85.9133H746.321V85.1366H738.554V85.9133ZM750.204 85.9133H757.971V85.1366H750.204V85.9133ZM761.855 85.9133H769.621V85.1366H761.855V85.9133ZM773.505 85.9133H781.272V85.1366H773.505V85.9133ZM785.155 85.9133H792.922V85.1366H785.155V85.9133ZM796.806 85.9133H800.689V85.1366H796.806V85.9133ZM649.233 86.3017H653.117V84.7482H649.233V86.3017ZM657 86.3017H664.767V84.7482H657V86.3017ZM668.651 86.3017H676.418V84.7482H668.651V86.3017ZM680.301 86.3017H688.068V84.7482H680.301V86.3017ZM691.952 86.3017H699.719V84.7482H691.952V86.3017ZM703.602 86.3017H711.369V84.7482H703.602V86.3017ZM715.253 86.3017H723.02V84.7482H715.253V86.3017ZM726.903 86.3017H734.67V84.7482H726.903V86.3017ZM738.554 86.3017H746.321V84.7482H738.554V86.3017ZM750.204 86.3017H757.971V84.7482H750.204V86.3017ZM761.855 86.3017H769.621V84.7482H761.855V86.3017ZM773.505 86.3017H781.272V84.7482H773.505V86.3017ZM785.155 86.3017H792.922V84.7482H785.155V86.3017ZM796.806 86.3017H800.689V84.7482H796.806V86.3017Z" fill="#9747FF" mask="url(#path-10-inside-5_7_4881)"/>
<mask id="path-12-inside-6_7_4881" fill="white">
<path d="M43.408 85.5254H194.864V150.768H43.408V85.5254Z"/>
</mask>
<path d="M195.253 150.768V147.144H194.476V150.768H195.253ZM195.253 143.519V136.27H194.476V143.519H195.253ZM195.253 132.645V125.396H194.476V132.645H195.253ZM195.253 121.771V114.522H194.476V121.771H195.253ZM195.253 110.898V103.648H194.476V110.898H195.253ZM195.253 100.024V92.7746H194.476V100.024H195.253ZM195.253 89.15V85.5254H194.476V89.15H195.253ZM195.641 150.768V147.144H194.088V150.768H195.641ZM195.641 143.519V136.27H194.088V143.519H195.641ZM195.641 132.645V125.396H194.088V132.645H195.641ZM195.641 121.771V114.522H194.088V121.771H195.641ZM195.641 110.898V103.648H194.088V110.898H195.641ZM195.641 100.024V92.7746H194.088V100.024H195.641ZM195.641 89.15V85.5254H194.088V89.15H195.641Z" fill="#9747FF" mask="url(#path-12-inside-6_7_4881)"/>
<mask id="path-14-inside-7_7_4881" fill="white">
<path d="M194.864 85.5254H346.321V150.768H194.864V85.5254Z"/>
</mask>
<path d="M346.709 150.768V147.144H345.932V150.768H346.709ZM346.709 143.519V136.27H345.932V143.519H346.709ZM346.709 132.645V125.396H345.932V132.645H346.709ZM346.709 121.771V114.522H345.932V121.771H346.709ZM346.709 110.898V103.648H345.932V110.898H346.709ZM346.709 100.024V92.7746H345.932V100.024H346.709ZM346.709 89.15V85.5254H345.932V89.15H346.709ZM347.097 150.768V147.144H345.544V150.768H347.097ZM347.097 143.519V136.27H345.544V143.519H347.097ZM347.097 132.645V125.396H345.544V132.645H347.097ZM347.097 121.771V114.522H345.544V121.771H347.097ZM347.097 110.898V103.648H345.544V110.898H347.097ZM347.097 100.024V92.7746H345.544V100.024H347.097ZM347.097 89.15V85.5254H345.544V89.15H347.097Z" fill="#9747FF" mask="url(#path-14-inside-7_7_4881)"/>
<mask id="path-16-inside-8_7_4881" fill="white">
<path d="M346.321 85.5254H497.777V150.768H346.321V85.5254Z"/>
</mask>
<path d="M498.165 150.768V147.144H497.389V150.768H498.165ZM498.165 143.519V136.27H497.389V143.519H498.165ZM498.165 132.645V125.396H497.389V132.645H498.165ZM498.165 121.771V114.522H497.389V121.771H498.165ZM498.165 110.898V103.648H497.389V110.898H498.165ZM498.165 100.024V92.7746H497.389V100.024H498.165ZM498.165 89.15V85.5254H497.389V89.15H498.165ZM498.554 150.768V147.144H497V150.768H498.554ZM498.554 143.519V136.27H497V143.519H498.554ZM498.554 132.645V125.396H497V132.645H498.554ZM498.554 121.771V114.522H497V121.771H498.554ZM498.554 110.898V103.648H497V110.898H498.554ZM498.554 100.024V92.7746H497V100.024H498.554ZM498.554 89.15V85.5254H497V89.15H498.554Z" fill="#9747FF" mask="url(#path-16-inside-8_7_4881)"/>
<mask id="path-18-inside-9_7_4881" fill="white">
<path d="M497.777 85.5254H649.233V150.768H497.777V85.5254Z"/>
</mask>
<path d="M649.622 150.768V147.144H648.845V150.768H649.622ZM649.622 143.519V136.27H648.845V143.519H649.622ZM649.622 132.645V125.396H648.845V132.645H649.622ZM649.622 121.771V114.522H648.845V121.771H649.622ZM649.622 110.898V103.648H648.845V110.898H649.622ZM649.622 100.024V92.7746H648.845V100.024H649.622ZM649.622 89.15V85.5254H648.845V89.15H649.622ZM650.01 150.768V147.144H648.456V150.768H650.01ZM650.01 143.519V136.27H648.456V143.519H650.01ZM650.01 132.645V125.396H648.456V132.645H650.01ZM650.01 121.771V114.522H648.456V121.771H650.01ZM650.01 110.898V103.648H648.456V110.898H650.01ZM650.01 100.024V92.7746H648.456V100.024H650.01ZM650.01 89.15V85.5254H648.456V89.15H650.01Z" fill="#9747FF" mask="url(#path-18-inside-9_7_4881)"/>
<path d="M6.02154 51.7673C5.95755 51.5665 5.87149 51.3866 5.76337 51.2278C5.65746 51.0667 5.53058 50.9299 5.38275 50.8174C5.23491 50.7026 5.06611 50.6155 4.87635 50.5559C4.68879 50.4963 4.48248 50.4665 4.25741 50.4665C3.87568 50.4665 3.53147 50.5647 3.22476 50.7611C2.91805 50.9575 2.67533 51.2454 2.4966 51.6249C2.32008 52.0023 2.23182 52.4645 2.23182 53.0118C2.23182 53.5612 2.32118 54.0257 2.49991 54.4052C2.67864 54.7847 2.92357 55.0727 3.23469 55.269C3.54581 55.4654 3.89996 55.5636 4.29713 55.5636C4.66562 55.5636 4.98667 55.4886 5.26028 55.3385C5.5361 55.1885 5.74903 54.9767 5.89907 54.7031C6.05132 54.4272 6.12745 54.1029 6.12745 53.73L6.39223 53.7796H4.45269V52.9356H7.11708V53.7068C7.11708 54.2761 6.99572 54.7704 6.753 55.1896C6.51249 55.6066 6.1793 55.9288 5.75344 56.1561C5.32979 56.3833 4.84435 56.497 4.29713 56.497C3.68372 56.497 3.14532 56.3558 2.68195 56.0733C2.22079 55.7909 1.86112 55.3904 1.60296 54.8719C1.34479 54.3511 1.21571 53.7333 1.21571 53.0184C1.21571 52.4778 1.29073 51.9923 1.44078 51.5621C1.59082 51.1318 1.80154 50.7666 2.07295 50.4665C2.34656 50.1642 2.66761 49.9336 3.0361 49.7748C3.4068 49.6137 3.8117 49.5332 4.25079 49.5332C4.61708 49.5332 4.95799 49.5872 5.27352 49.6953C5.59126 49.8035 5.8737 49.9568 6.12083 50.1554C6.37017 50.354 6.57648 50.5901 6.73976 50.8637C6.90305 51.1351 7.01337 51.4363 7.07074 51.7673H6.02154ZM10.527 56.5069C10.0261 56.5069 9.59474 56.3999 9.23287 56.1859C8.8732 55.9696 8.59518 55.6662 8.3988 55.2757C8.20462 54.8829 8.10754 54.4228 8.10754 53.8955C8.10754 53.3747 8.20462 52.9158 8.3988 52.5186C8.59518 52.1214 8.86879 51.8114 9.21963 51.5885C9.57267 51.3657 9.98529 51.2543 10.4575 51.2543C10.7443 51.2543 11.0224 51.3017 11.2916 51.3966C11.5608 51.4915 11.8024 51.6404 12.0164 51.8434C12.2304 52.0464 12.3992 52.3101 12.5228 52.6344C12.6464 52.9566 12.7082 53.3483 12.7082 53.8094V54.1603H8.66689V53.4189H11.7384C11.7384 53.1585 11.6854 52.9279 11.5795 52.7271C11.4736 52.5241 11.3247 52.3641 11.1327 52.2472C10.9429 52.1302 10.7201 52.0718 10.4641 52.0718C10.1861 52.0718 9.94337 52.1402 9.73596 52.277C9.53075 52.4116 9.37188 52.5881 9.25935 52.8065C9.14902 53.0228 9.09386 53.2578 9.09386 53.5115V54.0907C9.09386 54.4306 9.15343 54.7196 9.27258 54.9579C9.39394 55.1962 9.56274 55.3783 9.77898 55.504C9.99522 55.6276 10.2479 55.6894 10.5369 55.6894C10.7245 55.6894 10.8955 55.6629 11.0499 55.6099C11.2044 55.5548 11.3379 55.4731 11.4504 55.365C11.563 55.2569 11.649 55.1234 11.7086 54.9645L12.6453 55.1333C12.5702 55.4092 12.4356 55.6508 12.2415 55.8582C12.0495 56.0634 11.8079 56.2234 11.5166 56.3381C11.2276 56.4506 10.8977 56.5069 10.527 56.5069ZM14.7958 53.3858V56.4043H13.8062V51.3204H14.7561V52.1479H14.819C14.9359 51.8787 15.1191 51.6625 15.3684 51.4992C15.6199 51.3359 15.9366 51.2543 16.3183 51.2543C16.6647 51.2543 16.9681 51.3271 17.2285 51.4727C17.4889 51.6161 17.6908 51.8302 17.8342 52.1148C17.9776 52.3994 18.0493 52.7514 18.0493 53.1706V56.4043H17.0597V53.2898C17.0597 52.9213 16.9637 52.6333 16.7718 52.4259C16.5798 52.2163 16.3161 52.1115 15.9807 52.1115C15.7512 52.1115 15.5471 52.1611 15.3684 52.2604C15.1919 52.3597 15.0518 52.5054 14.9481 52.6973C14.8466 52.8871 14.7958 53.1166 14.7958 53.3858ZM21.5677 56.5069C21.0668 56.5069 20.6354 56.3999 20.2735 56.1859C19.9139 55.9696 19.6358 55.6662 19.4395 55.2757C19.2453 54.8829 19.1482 54.4228 19.1482 53.8955C19.1482 53.3747 19.2453 52.9158 19.4395 52.5186C19.6358 52.1214 19.9094 51.8114 20.2603 51.5885C20.6133 51.3657 21.026 51.2543 21.4981 51.2543C21.785 51.2543 22.063 51.3017 22.3322 51.3966C22.6014 51.4915 22.843 51.6404 23.0571 51.8434C23.2711 52.0464 23.4399 52.3101 23.5635 52.6344C23.687 52.9566 23.7488 53.3483 23.7488 53.8094V54.1603H19.7075V53.4189H22.779C22.779 53.1585 22.7261 52.9279 22.6202 52.7271C22.5143 52.5241 22.3653 52.3641 22.1733 52.2472C21.9836 52.1302 21.7607 52.0718 21.5048 52.0718C21.2267 52.0718 20.984 52.1402 20.7766 52.277C20.5714 52.4116 20.4125 52.5881 20.3 52.8065C20.1897 53.0228 20.1345 53.2578 20.1345 53.5115V54.0907C20.1345 54.4306 20.1941 54.7196 20.3132 54.9579C20.4346 55.1962 20.6034 55.3783 20.8196 55.504C21.0359 55.6276 21.2885 55.6894 21.5776 55.6894C21.7651 55.6894 21.9361 55.6629 22.0906 55.6099C22.2451 55.5548 22.3786 55.4731 22.4911 55.365C22.6036 55.2569 22.6897 55.1234 22.7493 54.9645L23.6859 55.1333C23.6109 55.4092 23.4763 55.6508 23.2821 55.8582C23.0902 56.0634 22.8485 56.2234 22.5573 56.3381C22.2682 56.4506 21.9384 56.5069 21.5677 56.5069ZM24.8468 56.4043V51.3204H25.8034V52.128H25.8563C25.949 51.8544 26.1123 51.6393 26.3462 51.4826C26.5823 51.3238 26.8493 51.2443 27.1471 51.2443C27.2089 51.2443 27.2817 51.2465 27.3656 51.2509C27.4516 51.2554 27.5189 51.2609 27.5675 51.2675V52.2141C27.5278 52.2031 27.4572 52.1909 27.3557 52.1777C27.2542 52.1622 27.1527 52.1545 27.0512 52.1545C26.8173 52.1545 26.6088 52.2042 26.4256 52.3035C26.2447 52.4005 26.1012 52.5362 25.9953 52.7106C25.8894 52.8827 25.8365 53.0791 25.8365 53.2997V56.4043H24.8468ZM28.4239 56.4043V51.3204H29.4135V56.4043H28.4239ZM28.9237 50.536C28.7516 50.536 28.6037 50.4787 28.4802 50.3639C28.3588 50.247 28.2981 50.108 28.2981 49.9469C28.2981 49.7836 28.3588 49.6446 28.4802 49.5298C28.6037 49.4129 28.7516 49.3544 28.9237 49.3544C29.0958 49.3544 29.2425 49.4129 29.3639 49.5298C29.4874 49.6446 29.5492 49.7836 29.5492 49.9469C29.5492 50.108 29.4874 50.247 29.3639 50.3639C29.2425 50.4787 29.0958 50.536 28.9237 50.536ZM32.8863 56.5069C32.3943 56.5069 31.9706 56.3955 31.6154 56.1726C31.2623 55.9475 30.9909 55.6375 30.8012 55.2426C30.6114 54.8476 30.5165 54.3952 30.5165 53.8855C30.5165 53.3692 30.6136 52.9136 30.8078 52.5186C31.002 52.1214 31.2756 51.8114 31.6286 51.5885C31.9817 51.3657 32.3976 51.2543 32.8764 51.2543C33.2625 51.2543 33.6068 51.326 33.9091 51.4694C34.2114 51.6106 34.4552 51.8092 34.6405 52.0652C34.8281 52.3211 34.9395 52.6201 34.9748 52.9621H34.0117C33.9587 52.7238 33.8373 52.5186 33.6476 52.3465C33.46 52.1744 33.2085 52.0883 32.893 52.0883C32.6171 52.0883 32.3755 52.1611 32.1681 52.3068C31.9629 52.4502 31.8029 52.6554 31.6882 52.9224C31.5734 53.1872 31.5161 53.5005 31.5161 53.8624C31.5161 54.2331 31.5723 54.553 31.6849 54.8222C31.7974 55.0914 31.9563 55.2999 32.1615 55.4478C32.3689 55.5956 32.6127 55.6695 32.893 55.6695C33.0805 55.6695 33.2504 55.6353 33.4027 55.5669C33.5571 55.4963 33.6862 55.3959 33.7899 55.2657C33.8958 55.1355 33.9697 54.9789 34.0117 54.7957H34.9748C34.9395 55.1245 34.8325 55.418 34.6538 55.6761C34.475 55.9343 34.2356 56.1373 33.9355 56.2851C33.6377 56.433 33.2879 56.5069 32.8863 56.5069Z" fill="white"/>
<path d="M8.23789 116.649C8.20259 116.335 8.05695 116.093 7.801 115.921C7.54504 115.746 7.22289 115.659 6.83454 115.659C6.55651 115.659 6.316 115.703 6.113 115.791C5.91 115.878 5.75223 115.997 5.6397 116.149C5.52937 116.299 5.47421 116.47 5.47421 116.662C5.47421 116.823 5.51172 116.962 5.58674 117.079C5.66397 117.196 5.76437 117.294 5.88793 117.374C6.01371 117.451 6.14831 117.516 6.29173 117.569C6.43515 117.62 6.57306 117.661 6.70545 117.695L7.36741 117.867C7.58365 117.92 7.80541 117.991 8.03268 118.082C8.25996 118.172 8.47068 118.291 8.66485 118.439C8.85903 118.587 9.01569 118.77 9.13485 118.989C9.2562 119.207 9.31688 119.469 9.31688 119.773C9.31688 120.157 9.21759 120.498 9.019 120.796C8.82262 121.094 8.53688 121.329 8.16177 121.501C7.78886 121.673 7.33763 121.759 6.80806 121.759C6.30056 121.759 5.86146 121.678 5.49076 121.517C5.12006 121.356 4.8299 121.128 4.62028 120.832C4.41066 120.534 4.29482 120.181 4.27275 119.773H5.29879C5.31865 120.018 5.39808 120.222 5.5371 120.385C5.67831 120.547 5.85815 120.667 6.07659 120.746C6.29725 120.823 6.53886 120.862 6.80144 120.862C7.09049 120.862 7.34756 120.817 7.57262 120.726C7.79989 120.634 7.97862 120.506 8.10881 120.342C8.23899 120.177 8.30409 119.984 8.30409 119.763C8.30409 119.562 8.24672 119.398 8.13198 119.27C8.01944 119.142 7.86609 119.036 7.67192 118.952C7.47995 118.868 7.2626 118.795 7.01989 118.731L6.21891 118.512C5.67611 118.364 5.24583 118.147 4.92809 117.86C4.61256 117.573 4.45479 117.194 4.45479 116.722C4.45479 116.331 4.56071 115.99 4.77253 115.699C4.98436 115.408 5.27121 115.181 5.63308 115.02C5.99495 114.857 6.40316 114.775 6.85771 114.775C7.31666 114.775 7.72156 114.856 8.0724 115.017C8.42545 115.178 8.70347 115.4 8.90647 115.682C9.10947 115.962 9.21538 116.285 9.22421 116.649H8.23789ZM12.8327 116.563V117.357H10.0558V116.563H12.8327ZM10.8005 115.345H11.7901V120.154C11.7901 120.346 11.8188 120.49 11.8762 120.587C11.9336 120.682 12.0075 120.747 12.0979 120.783C12.1906 120.816 12.291 120.832 12.3991 120.832C12.4786 120.832 12.5481 120.827 12.6077 120.816C12.6672 120.805 12.7136 120.796 12.7467 120.789L12.9254 121.607C12.868 121.629 12.7864 121.651 12.6805 121.673C12.5746 121.697 12.4422 121.71 12.2833 121.713C12.0229 121.717 11.7802 121.671 11.5551 121.574C11.3301 121.477 11.148 121.327 11.009 121.124C10.87 120.921 10.8005 120.666 10.8005 120.359V115.345ZM15.4069 121.759C15.0848 121.759 14.7935 121.699 14.5331 121.58C14.2728 121.459 14.0664 121.284 13.9142 121.054C13.7641 120.825 13.6891 120.543 13.6891 120.21C13.6891 119.923 13.7443 119.687 13.8546 119.502C13.9649 119.316 14.1139 119.17 14.3014 119.062C14.489 118.953 14.6986 118.872 14.9303 118.817C15.162 118.761 15.3981 118.72 15.6386 118.691C15.9431 118.656 16.1902 118.627 16.38 118.605C16.5698 118.581 16.7077 118.542 16.7937 118.489C16.8798 118.436 16.9228 118.35 16.9228 118.231V118.208C16.9228 117.919 16.8412 117.695 16.6779 117.536C16.5168 117.377 16.2763 117.297 15.9563 117.297C15.6232 117.297 15.3606 117.371 15.1686 117.519C14.9788 117.665 14.8476 117.827 14.7747 118.006L13.8447 117.794C13.955 117.485 14.1161 117.236 14.3279 117.046C14.542 116.854 14.788 116.715 15.066 116.629C15.344 116.541 15.6364 116.496 15.9431 116.496C16.1461 116.496 16.3612 116.521 16.5885 116.569C16.818 116.616 17.032 116.702 17.2306 116.827C17.4314 116.953 17.5958 117.133 17.7238 117.367C17.8517 117.599 17.9157 117.9 17.9157 118.27V121.646H16.9493V120.951H16.9096C16.8456 121.079 16.7496 121.205 16.6216 121.329C16.4936 121.452 16.3292 121.555 16.1284 121.637C15.9277 121.718 15.6871 121.759 15.4069 121.759ZM15.622 120.965C15.8957 120.965 16.1295 120.911 16.3237 120.802C16.5201 120.694 16.669 120.553 16.7705 120.379C16.8743 120.202 16.9261 120.014 16.9261 119.813V119.158C16.8908 119.193 16.8224 119.226 16.7209 119.257C16.6216 119.285 16.508 119.311 16.38 119.333C16.252 119.353 16.1273 119.372 16.006 119.389C15.8846 119.405 15.7831 119.418 15.7015 119.429C15.5095 119.453 15.3341 119.494 15.1752 119.551C15.0186 119.609 14.8928 119.691 14.7979 119.8C14.7052 119.906 14.6589 120.047 14.6589 120.223C14.6589 120.468 14.7494 120.654 14.9303 120.779C15.1112 120.903 15.3418 120.965 15.622 120.965ZM21.607 116.563V117.357H18.8301V116.563H21.607ZM19.5748 115.345H20.5644V120.154C20.5644 120.346 20.5931 120.49 20.6505 120.587C20.7078 120.682 20.7817 120.747 20.8722 120.783C20.9649 120.816 21.0653 120.832 21.1734 120.832C21.2528 120.832 21.3223 120.827 21.3819 120.816C21.4415 120.805 21.4878 120.796 21.5209 120.789L21.6997 121.607C21.6423 121.629 21.5607 121.651 21.4547 121.673C21.3488 121.697 21.2164 121.71 21.0576 121.713C20.7972 121.717 20.5545 121.671 20.3294 121.574C20.1043 121.477 19.9223 121.327 19.7833 121.124C19.6443 120.921 19.5748 120.666 19.5748 120.359V115.345ZM22.7017 121.646V116.563H23.6913V121.646H22.7017ZM23.2015 115.778C23.0294 115.778 22.8815 115.721 22.758 115.606C22.6366 115.489 22.5759 115.35 22.5759 115.189C22.5759 115.026 22.6366 114.887 22.758 114.772C22.8815 114.655 23.0294 114.597 23.2015 114.597C23.3736 114.597 23.5203 114.655 23.6417 114.772C23.7653 114.887 23.827 115.026 23.827 115.189C23.827 115.35 23.7653 115.489 23.6417 115.606C23.5203 115.721 23.3736 115.778 23.2015 115.778ZM27.1641 121.749C26.6875 121.749 26.2716 121.64 25.9163 121.421C25.5611 121.203 25.2853 120.897 25.0889 120.505C24.8925 120.112 24.7943 119.653 24.7943 119.128C24.7943 118.6 24.8925 118.139 25.0889 117.744C25.2853 117.349 25.5611 117.043 25.9163 116.824C26.2716 116.606 26.6875 116.496 27.1641 116.496C27.6407 116.496 28.0567 116.606 28.4119 116.824C28.7672 117.043 29.043 117.349 29.2394 117.744C29.4358 118.139 29.534 118.6 29.534 119.128C29.534 119.653 29.4358 120.112 29.2394 120.505C29.043 120.897 28.7672 121.203 28.4119 121.421C28.0567 121.64 27.6407 121.749 27.1641 121.749ZM27.1674 120.918C27.4764 120.918 27.7323 120.837 27.9353 120.673C28.1383 120.51 28.2884 120.293 28.3855 120.021C28.4847 119.75 28.5344 119.451 28.5344 119.124C28.5344 118.8 28.4847 118.502 28.3855 118.231C28.2884 117.957 28.1383 117.738 27.9353 117.572C27.7323 117.407 27.4764 117.324 27.1674 117.324C26.8563 117.324 26.5982 117.407 26.393 117.572C26.19 117.738 26.0388 117.957 25.9395 118.231C25.8424 118.502 25.7939 118.8 25.7939 119.124C25.7939 119.451 25.8424 119.75 25.9395 120.021C26.0388 120.293 26.19 120.51 26.393 120.673C26.5982 120.837 26.8563 120.918 27.1674 120.918ZM31.6282 118.628V121.646H30.6386V116.563H31.5885V117.39H31.6514C31.7683 117.121 31.9515 116.905 32.2008 116.741C32.4524 116.578 32.769 116.496 33.1507 116.496C33.4972 116.496 33.8006 116.569 34.0609 116.715C34.3213 116.858 34.5232 117.072 34.6666 117.357C34.81 117.642 34.8818 117.994 34.8818 118.413V121.646H33.8921V118.532C33.8921 118.163 33.7961 117.876 33.6042 117.668C33.4122 117.458 33.1485 117.354 32.8131 117.354C32.5837 117.354 32.3796 117.403 32.2008 117.503C32.0243 117.602 31.8842 117.748 31.7805 117.94C31.679 118.129 31.6282 118.359 31.6282 118.628Z" fill="white"/>
<path d="M105.575 9.86523H103.381V3.08677H105.645C106.309 3.08677 106.879 3.22247 107.356 3.49387C107.832 3.76307 108.198 4.15032 108.451 4.65561C108.707 5.1587 108.835 5.76219 108.835 6.46607C108.835 7.17216 108.706 7.77896 108.448 8.28646C108.192 8.79396 107.821 9.18452 107.336 9.45813C106.85 9.72953 106.264 9.86523 105.575 9.86523ZM104.403 8.97159H105.519C106.035 8.97159 106.464 8.8745 106.806 8.68033C107.148 8.48395 107.404 8.20041 107.574 7.82971C107.744 7.45681 107.829 7.00226 107.829 6.46607C107.829 5.9343 107.744 5.48306 107.574 5.11237C107.407 4.74167 107.156 4.46034 106.823 4.26837C106.49 4.0764 106.076 3.98041 105.582 3.98041H104.403V8.97159ZM112.219 9.96784C111.718 9.96784 111.286 9.86082 110.925 9.64679C110.565 9.43055 110.287 9.12715 110.09 8.73659C109.896 8.34383 109.799 7.88377 109.799 7.35641C109.799 6.83567 109.896 6.37671 110.09 5.97953C110.287 5.58236 110.56 5.27234 110.911 5.04948C111.264 4.82662 111.677 4.71519 112.149 4.71519C112.436 4.71519 112.714 4.76263 112.983 4.85751C113.252 4.95239 113.494 5.10133 113.708 5.30433C113.922 5.50733 114.091 5.77102 114.214 6.09538C114.338 6.41753 114.4 6.80919 114.4 7.27035V7.62119H110.359V6.8798H113.43C113.43 6.61943 113.377 6.38884 113.271 6.18805C113.165 5.98505 113.016 5.82508 112.824 5.70813C112.635 5.59118 112.412 5.53271 112.156 5.53271C111.878 5.53271 111.635 5.60111 111.428 5.73792C111.222 5.87252 111.064 6.04904 110.951 6.26748C110.841 6.48372 110.786 6.71872 110.786 6.97247V7.55169C110.786 7.89149 110.845 8.18055 110.964 8.41885C111.086 8.65716 111.254 8.8392 111.471 8.96497C111.687 9.08854 111.94 9.15032 112.229 9.15032C112.416 9.15032 112.587 9.12384 112.742 9.07088C112.896 9.01572 113.03 8.93408 113.142 8.82596C113.255 8.71784 113.341 8.58434 113.4 8.42547L114.337 8.59427C114.262 8.87009 114.127 9.1117 113.933 9.31912C113.741 9.52433 113.5 9.6843 113.208 9.79904C112.919 9.91157 112.589 9.96784 112.219 9.96784ZM117.917 4.78139V5.57574H115.044V4.78139H117.917ZM115.832 9.86523V4.19224C115.832 3.8745 115.902 3.61082 116.041 3.4012C116.18 3.18937 116.364 3.03161 116.593 2.9279C116.823 2.82199 117.072 2.76903 117.341 2.76903C117.54 2.76903 117.71 2.78558 117.851 2.81868C117.992 2.84957 118.097 2.87825 118.166 2.90473L117.934 3.7057C117.888 3.69246 117.828 3.67702 117.755 3.65936C117.682 3.63951 117.594 3.62958 117.49 3.62958C117.25 3.62958 117.078 3.68915 116.974 3.80831C116.873 3.92746 116.822 4.09957 116.822 4.32463V9.86523H115.832ZM120.263 9.97777C119.941 9.97777 119.65 9.91819 119.389 9.79904C119.129 9.67768 118.923 9.50226 118.77 9.27278C118.62 9.0433 118.545 8.76197 118.545 8.42878C118.545 8.14193 118.601 7.90583 118.711 7.72049C118.821 7.53514 118.97 7.3884 119.158 7.28028C119.345 7.17216 119.555 7.09052 119.787 7.03536C120.018 6.98019 120.254 6.93827 120.495 6.90959C120.799 6.87428 121.046 6.8456 121.236 6.82353C121.426 6.79926 121.564 6.76064 121.65 6.70769C121.736 6.65473 121.779 6.56868 121.779 6.44952V6.42635C121.779 6.1373 121.697 5.91334 121.534 5.75447C121.373 5.5956 121.133 5.51616 120.813 5.51616C120.479 5.51616 120.217 5.59008 120.025 5.73792C119.835 5.88355 119.704 6.04573 119.631 6.22446L118.701 6.01263C118.811 5.70372 118.972 5.45438 119.184 5.26462C119.398 5.07265 119.644 4.93364 119.922 4.84758C120.2 4.75932 120.493 4.71519 120.799 4.71519C121.002 4.71519 121.217 4.73946 121.445 4.78801C121.674 4.83434 121.888 4.9204 122.087 5.04617C122.288 5.17194 122.452 5.35177 122.58 5.58567C122.708 5.81735 122.772 6.11854 122.772 6.48924V9.86523H121.806V9.17018H121.766C121.702 9.29816 121.606 9.42393 121.478 9.54749C121.35 9.67106 121.185 9.77366 120.985 9.8553C120.784 9.93695 120.543 9.97777 120.263 9.97777ZM120.478 9.18342C120.752 9.18342 120.986 9.12936 121.18 9.02124C121.376 8.91312 121.525 8.7719 121.627 8.59758C121.73 8.42106 121.782 8.2324 121.782 8.03161V7.37627C121.747 7.41157 121.679 7.44467 121.577 7.47556C121.478 7.50425 121.364 7.52962 121.236 7.55169C121.108 7.57154 120.984 7.5903 120.862 7.60795C120.741 7.6234 120.639 7.63664 120.558 7.64767C120.366 7.67194 120.19 7.71276 120.031 7.77013C119.875 7.8275 119.749 7.91025 119.654 8.01837C119.561 8.12428 119.515 8.2655 119.515 8.44202C119.515 8.68695 119.606 8.8723 119.787 8.99807C119.967 9.12163 120.198 9.18342 120.478 9.18342ZM127.311 7.75689V4.78139H128.303V9.86523H127.33V8.98483H127.277C127.16 9.25623 126.973 9.4824 126.715 9.66334C126.459 9.84207 126.14 9.93143 125.758 9.93143C125.432 9.93143 125.143 9.85972 124.891 9.71629C124.642 9.57066 124.445 9.35553 124.302 9.07088C124.161 8.78624 124.09 8.4343 124.09 8.01506V4.78139H125.08V7.8959C125.08 8.24233 125.176 8.51815 125.368 8.72335C125.56 8.92856 125.809 9.03117 126.116 9.03117C126.301 9.03117 126.485 8.98483 126.668 8.89215C126.854 8.79948 127.007 8.65936 127.128 8.47181C127.252 8.28425 127.313 8.04595 127.311 7.75689ZM130.623 3.08677V9.86523H129.633V3.08677H130.623ZM134.327 4.78139V5.57574H131.55V4.78139H134.327ZM132.295 3.56338H133.285V8.37252C133.285 8.56448 133.313 8.70901 133.371 8.8061C133.428 8.90098 133.502 8.96607 133.593 9.00138C133.685 9.03448 133.786 9.05102 133.894 9.05102C133.973 9.05102 134.043 9.04551 134.102 9.03448C134.162 9.02344 134.208 9.01462 134.241 9.008L134.42 9.82552C134.363 9.84758 134.281 9.86965 134.175 9.89171C134.069 9.91598 133.937 9.92922 133.778 9.93143C133.517 9.93584 133.275 9.88951 133.05 9.79242C132.825 9.69533 132.643 9.54529 132.504 9.34229C132.365 9.13929 132.295 8.88443 132.295 8.57772V3.56338Z" fill="white"/>
<path d="M257.41 9.86523H256.324L258.763 3.08677H259.945L262.384 9.86523H261.299L259.382 4.31801H259.329L257.41 9.86523ZM257.592 7.21078H261.113V8.07132H257.592V7.21078ZM265.343 9.96784C264.851 9.96784 264.427 9.85641 264.072 9.63355C263.719 9.40848 263.448 9.09846 263.258 8.7035C263.068 8.30853 262.973 7.85619 262.973 7.34648C262.973 6.83015 263.07 6.3745 263.265 5.97953C263.459 5.58236 263.732 5.27234 264.085 5.04948C264.438 4.82662 264.854 4.71519 265.333 4.71519C265.719 4.71519 266.064 4.7869 266.366 4.93033C266.668 5.07154 266.912 5.27013 267.097 5.52609C267.285 5.78205 267.396 6.08103 267.432 6.42305H266.468C266.416 6.18474 266.294 5.97953 266.104 5.80742C265.917 5.63531 265.665 5.54926 265.35 5.54926C265.074 5.54926 264.832 5.62207 264.625 5.76771C264.42 5.91113 264.26 6.11634 264.145 6.38333C264.03 6.64811 263.973 6.96144 263.973 7.32331C263.973 7.69401 264.029 8.01395 264.142 8.28315C264.254 8.55235 264.413 8.76087 264.618 8.9087C264.826 9.05654 265.07 9.13046 265.35 9.13046C265.537 9.13046 265.707 9.09626 265.859 9.02786C266.014 8.95725 266.143 8.85685 266.247 8.72666C266.353 8.59648 266.427 8.43982 266.468 8.25667H267.432C267.396 8.58545 267.289 8.87891 267.111 9.13708C266.932 9.39524 266.692 9.59824 266.392 9.74608C266.094 9.89392 265.745 9.96784 265.343 9.96784ZM270.863 4.78139V5.57574H268.086V4.78139H270.863ZM268.831 3.56338H269.82V8.37252C269.82 8.56448 269.849 8.70901 269.907 8.8061C269.964 8.90098 270.038 8.96607 270.128 9.00138C270.221 9.03448 270.321 9.05102 270.429 9.05102C270.509 9.05102 270.578 9.04551 270.638 9.03448C270.698 9.02344 270.744 9.01462 270.777 9.008L270.956 9.82552C270.898 9.84758 270.817 9.86965 270.711 9.89171C270.605 9.91598 270.473 9.92922 270.314 9.93143C270.053 9.93584 269.811 9.88951 269.586 9.79242C269.36 9.69533 269.178 9.54529 269.039 9.34229C268.9 9.13929 268.831 8.88443 268.831 8.57772V3.56338ZM271.958 9.86523V4.78139H272.947V9.86523H271.958ZM272.458 3.99696C272.285 3.99696 272.138 3.93959 272.014 3.82485C271.893 3.70791 271.832 3.5689 271.832 3.40782C271.832 3.24454 271.893 3.10553 272.014 2.99079C272.138 2.87384 272.285 2.81537 272.458 2.81537C272.63 2.81537 272.776 2.87384 272.898 2.99079C273.021 3.10553 273.083 3.24454 273.083 3.40782C273.083 3.5689 273.021 3.70791 272.898 3.82485C272.776 3.93959 272.63 3.99696 272.458 3.99696ZM278.628 4.78139L276.784 9.86523H275.725L273.878 4.78139H274.941L276.228 8.69357H276.281L277.565 4.78139H278.628ZM281.576 9.96784C281.075 9.96784 280.644 9.86082 280.282 9.64679C279.922 9.43055 279.644 9.12715 279.448 8.73659C279.254 8.34383 279.157 7.88377 279.157 7.35641C279.157 6.83567 279.254 6.37671 279.448 5.97953C279.644 5.58236 279.918 5.27234 280.269 5.04948C280.622 4.82662 281.034 4.71519 281.507 4.71519C281.793 4.71519 282.071 4.76263 282.341 4.85751C282.61 4.95239 282.851 5.10133 283.065 5.30433C283.28 5.50733 283.448 5.77102 283.572 6.09538C283.695 6.41753 283.757 6.80919 283.757 7.27035V7.62119H279.716V6.8798H282.787C282.787 6.61943 282.734 6.38884 282.629 6.18805C282.523 5.98505 282.374 5.82508 282.182 5.70813C281.992 5.59118 281.769 5.53271 281.513 5.53271C281.235 5.53271 280.992 5.60111 280.785 5.73792C280.58 5.87252 280.421 6.04904 280.308 6.26748C280.198 6.48372 280.143 6.71872 280.143 6.97247V7.55169C280.143 7.89149 280.203 8.18055 280.322 8.41885C280.443 8.65716 280.612 8.8392 280.828 8.96497C281.044 9.08854 281.297 9.15032 281.586 9.15032C281.774 9.15032 281.945 9.12384 282.099 9.07088C282.253 9.01572 282.387 8.93408 282.5 8.82596C282.612 8.71784 282.698 8.58434 282.758 8.42547L283.694 8.59427C283.619 8.87009 283.485 9.1117 283.291 9.31912C283.099 9.52433 282.857 9.6843 282.566 9.79904C282.277 9.91157 281.947 9.96784 281.576 9.96784Z" fill="white"/>
<path d="M708.4 9.86523H706.206V3.08677H708.47C709.134 3.08677 709.704 3.22247 710.181 3.49387C710.658 3.76307 711.023 4.15032 711.276 4.65561C711.532 5.1587 711.66 5.76219 711.66 6.46607C711.66 7.17216 711.531 7.77896 711.273 8.28646C711.017 8.79396 710.647 9.18452 710.161 9.45813C709.676 9.72953 709.089 9.86523 708.4 9.86523ZM707.229 8.97159H708.344C708.86 8.97159 709.29 8.8745 709.632 8.68033C709.974 8.48395 710.229 8.20041 710.399 7.82971C710.569 7.45681 710.654 7.00226 710.654 6.46607C710.654 5.9343 710.569 5.48306 710.399 5.11237C710.232 4.74167 709.981 4.46034 709.648 4.26837C709.315 4.0764 708.901 3.98041 708.407 3.98041H707.229V8.97159ZM712.853 9.86523V4.78139H713.842V9.86523H712.853ZM713.353 3.99696C713.18 3.99696 713.033 3.93959 712.909 3.82485C712.788 3.70791 712.727 3.5689 712.727 3.40782C712.727 3.24454 712.788 3.10553 712.909 2.99079C713.033 2.87384 713.18 2.81537 713.353 2.81537C713.525 2.81537 713.671 2.87384 713.793 2.99079C713.916 3.10553 713.978 3.24454 713.978 3.40782C713.978 3.5689 713.916 3.70791 713.793 3.82485C713.671 3.93959 713.525 3.99696 713.353 3.99696ZM718.983 6.02256L718.086 6.18143C718.049 6.06669 717.989 5.95747 717.908 5.85376C717.828 5.75005 717.72 5.6651 717.583 5.59891C717.447 5.53271 717.276 5.49961 717.07 5.49961C716.79 5.49961 716.556 5.5625 716.369 5.68827C716.181 5.81184 716.087 5.97181 716.087 6.16819C716.087 6.33809 716.15 6.4749 716.276 6.57861C716.402 6.68231 716.605 6.76726 716.885 6.83346L717.693 7.01881C718.16 7.12693 718.509 7.29352 718.738 7.51859C718.968 7.74365 719.083 8.03602 719.083 8.39568C719.083 8.70019 718.994 8.97159 718.818 9.20989C718.644 9.44599 718.4 9.63134 718.086 9.76594C717.775 9.90054 717.415 9.96784 717.004 9.96784C716.435 9.96784 715.97 9.84648 715.611 9.60376C715.251 9.35884 715.03 9.01131 714.949 8.56117L715.905 8.41554C715.965 8.66488 716.087 8.85354 716.273 8.98152C716.458 9.10729 716.7 9.17018 716.997 9.17018C717.322 9.17018 717.581 9.10288 717.775 8.96828C717.969 8.83147 718.067 8.66488 718.067 8.4685C718.067 8.30963 718.007 8.17613 717.888 8.06801C717.771 7.95989 717.591 7.87825 717.348 7.82309L716.488 7.63443C716.013 7.52631 715.663 7.3542 715.435 7.1181C715.21 6.882 715.098 6.58302 715.098 6.22115C715.098 5.92106 715.182 5.65848 715.349 5.43342C715.517 5.20835 715.749 5.03293 716.044 4.90716C716.34 4.77918 716.679 4.71519 717.06 4.71519C717.61 4.71519 718.042 4.83434 718.358 5.07265C718.673 5.30875 718.882 5.62538 718.983 6.02256ZM721.65 9.97777C721.328 9.97777 721.037 9.91819 720.776 9.79904C720.516 9.67768 720.31 9.50226 720.158 9.27278C720.007 9.0433 719.932 8.76197 719.932 8.42878C719.932 8.14193 719.988 7.90583 720.098 7.72049C720.208 7.53514 720.357 7.3884 720.545 7.28028C720.732 7.17216 720.942 7.09052 721.174 7.03536C721.405 6.98019 721.641 6.93827 721.882 6.90959C722.186 6.87428 722.434 6.8456 722.623 6.82353C722.813 6.79926 722.951 6.76064 723.037 6.70769C723.123 6.65473 723.166 6.56868 723.166 6.44952V6.42635C723.166 6.1373 723.084 5.91334 722.921 5.75447C722.76 5.5956 722.52 5.51616 722.2 5.51616C721.866 5.51616 721.604 5.59008 721.412 5.73792C721.222 5.88355 721.091 6.04573 721.018 6.22446L720.088 6.01263C720.198 5.70372 720.359 5.45438 720.571 5.26462C720.785 5.07265 721.031 4.93364 721.309 4.84758C721.587 4.75932 721.88 4.71519 722.186 4.71519C722.389 4.71519 722.605 4.73946 722.832 4.78801C723.061 4.83434 723.275 4.9204 723.474 5.04617C723.675 5.17194 723.839 5.35177 723.967 5.58567C724.095 5.81735 724.159 6.11854 724.159 6.48924V9.86523H723.193V9.17018H723.153C723.089 9.29816 722.993 9.42393 722.865 9.54749C722.737 9.67106 722.573 9.77366 722.372 9.8553C722.171 9.93695 721.93 9.97777 721.65 9.97777ZM721.865 9.18342C722.139 9.18342 722.373 9.12936 722.567 9.02124C722.763 8.91312 722.912 8.7719 723.014 8.59758C723.118 8.42106 723.169 8.2324 723.169 8.03161V7.37627C723.134 7.41157 723.066 7.44467 722.964 7.47556C722.865 7.50425 722.751 7.52962 722.623 7.55169C722.495 7.57154 722.371 7.5903 722.249 7.60795C722.128 7.6234 722.026 7.63664 721.945 7.64767C721.753 7.67194 721.577 7.71276 721.419 7.77013C721.262 7.8275 721.136 7.91025 721.041 8.01837C720.949 8.12428 720.902 8.2655 720.902 8.44202C720.902 8.68695 720.993 8.8723 721.174 8.99807C721.355 9.12163 721.585 9.18342 721.865 9.18342ZM725.557 9.86523V3.08677H726.546V5.60553H726.606C726.663 5.49961 726.746 5.37715 726.854 5.23814C726.962 5.09913 727.112 4.97777 727.304 4.87406C727.496 4.76815 727.75 4.71519 728.065 4.71519C728.476 4.71519 728.842 4.8189 729.164 5.02631C729.486 5.23372 729.739 5.53271 729.922 5.92327C730.108 6.31382 730.2 6.78381 730.2 7.33324C730.2 7.88267 730.109 8.35376 729.926 8.74652C729.742 9.13708 729.491 9.43827 729.171 9.6501C728.851 9.85972 728.486 9.96453 728.075 9.96453C727.766 9.96453 727.514 9.91267 727.317 9.80897C727.123 9.70526 726.971 9.5839 726.861 9.44489C726.75 9.30588 726.665 9.18231 726.606 9.07419H726.523V9.86523H725.557ZM726.526 7.32331C726.526 7.68077 726.578 7.9941 726.682 8.26329C726.786 8.53249 726.936 8.74321 727.132 8.89546C727.328 9.04551 727.569 9.12053 727.854 9.12053C728.149 9.12053 728.396 9.0422 728.595 8.88553C728.794 8.72666 728.944 8.51153 729.045 8.24012C729.149 7.96872 729.201 7.66312 729.201 7.32331C729.201 6.98792 729.15 6.68673 729.048 6.41974C728.949 6.15275 728.799 5.94202 728.598 5.78756C728.4 5.63311 728.151 5.55588 727.854 5.55588C727.567 5.55588 727.324 5.6298 727.125 5.77763C726.929 5.92547 726.78 6.13178 726.679 6.39657C726.577 6.66135 726.526 6.97027 726.526 7.32331ZM732.301 3.08677V9.86523H731.312V3.08677H732.301ZM735.824 9.96784C735.323 9.96784 734.891 9.86082 734.529 9.64679C734.17 9.43055 733.892 9.12715 733.695 8.73659C733.501 8.34383 733.404 7.88377 733.404 7.35641C733.404 6.83567 733.501 6.37671 733.695 5.97953C733.892 5.58236 734.165 5.27234 734.516 5.04948C734.869 4.82662 735.282 4.71519 735.754 4.71519C736.041 4.71519 736.319 4.76263 736.588 4.85751C736.857 4.95239 737.099 5.10133 737.313 5.30433C737.527 5.50733 737.696 5.77102 737.819 6.09538C737.943 6.41753 738.005 6.80919 738.005 7.27035V7.62119H733.963V6.8798H737.035C737.035 6.61943 736.982 6.38884 736.876 6.18805C736.77 5.98505 736.621 5.82508 736.429 5.70813C736.24 5.59118 736.017 5.53271 735.761 5.53271C735.483 5.53271 735.24 5.60111 735.033 5.73792C734.827 5.87252 734.668 6.04904 734.556 6.26748C734.446 6.48372 734.39 6.71872 734.39 6.97247V7.55169C734.39 7.89149 734.45 8.18055 734.569 8.41885C734.691 8.65716 734.859 8.8392 735.076 8.96497C735.292 9.08854 735.544 9.15032 735.834 9.15032C736.021 9.15032 736.192 9.12384 736.347 9.07088C736.501 9.01572 736.635 8.93408 736.747 8.82596C736.86 8.71784 736.946 8.58434 737.005 8.42547L737.942 8.59427C737.867 8.87009 737.732 9.1117 737.538 9.31912C737.346 9.52433 737.104 9.6843 736.813 9.79904C736.524 9.91157 736.194 9.96784 735.824 9.96784ZM741.006 9.96453C740.596 9.96453 740.229 9.85972 739.907 9.6501C739.587 9.43827 739.336 9.13708 739.152 8.74652C738.971 8.35376 738.881 7.88267 738.881 7.33324C738.881 6.78381 738.973 6.31382 739.156 5.92327C739.341 5.53271 739.595 5.23372 739.917 5.02631C740.239 4.8189 740.604 4.71519 741.013 4.71519C741.328 4.71519 741.582 4.76815 741.774 4.87406C741.968 4.97777 742.118 5.09913 742.224 5.23814C742.332 5.37715 742.416 5.49961 742.475 5.60553H742.535V3.08677H743.525V9.86523H742.558V9.07419H742.475C742.416 9.18231 742.33 9.30588 742.217 9.44489C742.107 9.5839 741.955 9.70526 741.761 9.80897C741.566 9.91267 741.315 9.96453 741.006 9.96453ZM741.224 9.12053C741.509 9.12053 741.75 9.04551 741.946 8.89546C742.144 8.74321 742.295 8.53249 742.396 8.26329C742.5 7.9941 742.552 7.68077 742.552 7.32331C742.552 6.97027 742.501 6.66135 742.399 6.39657C742.298 6.13178 742.149 5.92547 741.953 5.77763C741.756 5.6298 741.513 5.55588 741.224 5.55588C740.926 5.55588 740.678 5.63311 740.48 5.78756C740.281 5.94202 740.131 6.15275 740.03 6.41974C739.93 6.68673 739.881 6.98792 739.881 7.32331C739.881 7.66312 739.931 7.96872 740.033 8.24012C740.134 8.51153 740.284 8.72666 740.483 8.88553C740.684 9.0422 740.931 9.12053 741.224 9.12053Z" fill="white"/>
<path d="M563.25 9.86523V3.08677H567.5V3.96718H564.273V6.03249H567.278V6.90959H564.273V8.98483H567.539V9.86523H563.25ZM568.786 9.86523V4.78139H569.743V5.58898H569.796C569.888 5.31537 570.052 5.10023 570.286 4.94357C570.522 4.7847 570.789 4.70526 571.087 4.70526C571.148 4.70526 571.221 4.70747 571.305 4.71188C571.391 4.71629 571.458 4.72181 571.507 4.72843V5.67503C571.467 5.664 571.397 5.65186 571.295 5.63862C571.194 5.62318 571.092 5.61545 570.991 5.61545C570.757 5.61545 570.548 5.6651 570.365 5.7644C570.184 5.86148 570.041 5.99718 569.935 6.1715C569.829 6.34361 569.776 6.53999 569.776 6.76064V9.86523H568.786ZM572.363 9.86523V4.78139H573.32V5.58898H573.373C573.466 5.31537 573.629 5.10023 573.863 4.94357C574.099 4.7847 574.366 4.70526 574.664 4.70526C574.725 4.70526 574.798 4.70747 574.882 4.71188C574.968 4.71629 575.035 4.72181 575.084 4.72843V5.67503C575.044 5.664 574.974 5.65186 574.872 5.63862C574.771 5.62318 574.669 5.61545 574.568 5.61545C574.334 5.61545 574.125 5.6651 573.942 5.7644C573.761 5.86148 573.618 5.99718 573.512 6.1715C573.406 6.34361 573.353 6.53999 573.353 6.76064V9.86523H572.363ZM577.9 9.96784C577.423 9.96784 577.007 9.85861 576.652 9.64017C576.297 9.42172 576.021 9.11612 575.825 8.72335C575.628 8.33059 575.53 7.87163 575.53 7.34648C575.53 6.81912 575.628 6.35795 575.825 5.96298C576.021 5.56801 576.297 5.26131 576.652 5.04286C577.007 4.82441 577.423 4.71519 577.9 4.71519C578.376 4.71519 578.792 4.82441 579.148 5.04286C579.503 5.26131 579.779 5.56801 579.975 5.96298C580.171 6.35795 580.27 6.81912 580.27 7.34648C580.27 7.87163 580.171 8.33059 579.975 8.72335C579.779 9.11612 579.503 9.42172 579.148 9.64017C578.792 9.85861 578.376 9.96784 577.9 9.96784ZM577.903 9.13708C578.212 9.13708 578.468 9.05544 578.671 8.89215C578.874 8.72887 579.024 8.51153 579.121 8.24012C579.22 7.96872 579.27 7.66974 579.27 7.34317C579.27 7.01881 579.22 6.72093 579.121 6.44952C579.024 6.17591 578.874 5.95636 578.671 5.79087C578.468 5.62538 578.212 5.54264 577.903 5.54264C577.592 5.54264 577.334 5.62538 577.129 5.79087C576.926 5.95636 576.774 6.17591 576.675 6.44952C576.578 6.72093 576.53 7.01881 576.53 7.34317C576.53 7.66974 576.578 7.96872 576.675 8.24012C576.774 8.51153 576.926 8.72887 577.129 8.89215C577.334 9.05544 577.592 9.13708 577.903 9.13708ZM581.374 9.86523V4.78139H582.331V5.58898H582.384C582.476 5.31537 582.64 5.10023 582.874 4.94357C583.11 4.7847 583.377 4.70526 583.675 4.70526C583.736 4.70526 583.809 4.70747 583.893 4.71188C583.979 4.71629 584.046 4.72181 584.095 4.72843V5.67503C584.055 5.664 583.985 5.65186 583.883 5.63862C583.782 5.62318 583.68 5.61545 583.579 5.61545C583.345 5.61545 583.136 5.6651 582.953 5.7644C582.772 5.86148 582.629 5.99718 582.523 6.1715C582.417 6.34361 582.364 6.53999 582.364 6.76064V9.86523H581.374Z" fill="white"/>
<path d="M406.49 4.86744C406.455 4.55411 406.309 4.31139 406.053 4.13928C405.797 3.96497 405.475 3.87781 405.087 3.87781C404.809 3.87781 404.568 3.92194 404.365 4.0102C404.162 4.09626 404.005 4.21541 403.892 4.36766C403.782 4.51771 403.727 4.68871 403.727 4.88068C403.727 5.04176 403.764 5.18077 403.839 5.29771C403.916 5.41466 404.017 5.51285 404.14 5.59229C404.266 5.66951 404.401 5.73461 404.544 5.78756C404.688 5.83831 404.826 5.88024 404.958 5.91334L405.62 6.08545C405.836 6.1384 406.058 6.21011 406.285 6.30058C406.512 6.39105 406.723 6.5102 406.917 6.65804C407.111 6.80588 407.268 6.98902 407.387 7.20747C407.509 7.42591 407.569 7.68739 407.569 7.99189C407.569 8.37583 407.47 8.71673 407.271 9.01462C407.075 9.3125 406.789 9.54749 406.414 9.7196C406.041 9.89171 405.59 9.97777 405.06 9.97777C404.553 9.97777 404.114 9.89723 403.743 9.73615C403.373 9.57508 403.082 9.3467 402.873 9.05102C402.663 8.75314 402.547 8.4001 402.525 7.99189H403.551C403.571 8.23681 403.651 8.44092 403.79 8.6042C403.931 8.76528 404.111 8.88553 404.329 8.96497C404.55 9.0422 404.791 9.08081 405.054 9.08081C405.343 9.08081 405.6 9.03558 405.825 8.94511C406.052 8.85244 406.231 8.72446 406.361 8.56117C406.491 8.39568 406.557 8.20261 406.557 7.98196C406.557 7.78117 406.499 7.61678 406.384 7.4888C406.272 7.36082 406.119 7.25491 405.924 7.17106C405.732 7.08721 405.515 7.01329 405.272 6.9493L404.471 6.73086C403.929 6.58302 403.498 6.36568 403.181 6.07883C402.865 5.79198 402.707 5.41245 402.707 4.94026C402.707 4.5497 402.813 4.20879 403.025 3.91753C403.237 3.62627 403.524 3.4001 403.886 3.23902C404.247 3.07574 404.656 2.9941 405.11 2.9941C405.569 2.9941 405.974 3.07463 406.325 3.23571C406.678 3.39679 406.956 3.61854 407.159 3.90098C407.362 4.18121 407.468 4.50336 407.477 4.86744H406.49ZM410.903 9.96784C410.402 9.96784 409.971 9.86082 409.609 9.64679C409.249 9.43055 408.971 9.12715 408.775 8.73659C408.581 8.34383 408.484 7.88377 408.484 7.35641C408.484 6.83567 408.581 6.37671 408.775 5.97953C408.971 5.58236 409.245 5.27234 409.596 5.04948C409.949 4.82662 410.361 4.71519 410.834 4.71519C411.12 4.71519 411.398 4.76263 411.668 4.85751C411.937 4.95239 412.178 5.10133 412.393 5.30433C412.607 5.50733 412.775 5.77102 412.899 6.09538C413.022 6.41753 413.084 6.80919 413.084 7.27035V7.62119H409.043V6.8798H412.115C412.115 6.61943 412.062 6.38884 411.956 6.18805C411.85 5.98505 411.701 5.82508 411.509 5.70813C411.319 5.59118 411.096 5.53271 410.84 5.53271C410.562 5.53271 410.319 5.60111 410.112 5.73792C409.907 5.87252 409.748 6.04904 409.635 6.26748C409.525 6.48372 409.47 6.71872 409.47 6.97247V7.55169C409.47 7.89149 409.53 8.18055 409.649 8.41885C409.77 8.65716 409.939 8.8392 410.155 8.96497C410.371 9.08854 410.624 9.15032 410.913 9.15032C411.101 9.15032 411.272 9.12384 411.426 9.07088C411.581 9.01572 411.714 8.93408 411.827 8.82596C411.939 8.71784 412.025 8.58434 412.085 8.42547L413.021 8.59427C412.946 8.87009 412.812 9.1117 412.618 9.31912C412.426 9.52433 412.184 9.6843 411.893 9.79904C411.604 9.91157 411.274 9.96784 410.903 9.96784ZM415.172 3.08677V9.86523H414.182V3.08677H415.172ZM418.694 9.96784C418.193 9.96784 417.762 9.86082 417.4 9.64679C417.041 9.43055 416.763 9.12715 416.566 8.73659C416.372 8.34383 416.275 7.88377 416.275 7.35641C416.275 6.83567 416.372 6.37671 416.566 5.97953C416.763 5.58236 417.036 5.27234 417.387 5.04948C417.74 4.82662 418.153 4.71519 418.625 4.71519C418.912 4.71519 419.19 4.76263 419.459 4.85751C419.728 4.95239 419.97 5.10133 420.184 5.30433C420.398 5.50733 420.567 5.77102 420.69 6.09538C420.814 6.41753 420.876 6.80919 420.876 7.27035V7.62119H416.834V6.8798H419.906C419.906 6.61943 419.853 6.38884 419.747 6.18805C419.641 5.98505 419.492 5.82508 419.3 5.70813C419.11 5.59118 418.887 5.53271 418.631 5.53271C418.353 5.53271 418.111 5.60111 417.903 5.73792C417.698 5.87252 417.539 6.04904 417.427 6.26748C417.316 6.48372 417.261 6.71872 417.261 6.97247V7.55169C417.261 7.89149 417.321 8.18055 417.44 8.41885C417.561 8.65716 417.73 8.8392 417.946 8.96497C418.163 9.08854 418.415 9.15032 418.704 9.15032C418.892 9.15032 419.063 9.12384 419.217 9.07088C419.372 9.01572 419.505 8.93408 419.618 8.82596C419.73 8.71784 419.816 8.58434 419.876 8.42547L420.813 8.59427C420.738 8.87009 420.603 9.1117 420.409 9.31912C420.217 9.52433 419.975 9.6843 419.684 9.79904C419.395 9.91157 419.065 9.96784 418.694 9.96784ZM424.115 9.96784C423.623 9.96784 423.199 9.85641 422.844 9.63355C422.491 9.40848 422.22 9.09846 422.03 8.7035C421.84 8.30853 421.745 7.85619 421.745 7.34648C421.745 6.83015 421.842 6.3745 422.036 5.97953C422.231 5.58236 422.504 5.27234 422.857 5.04948C423.21 4.82662 423.626 4.71519 424.105 4.71519C424.491 4.71519 424.835 4.7869 425.138 4.93033C425.44 5.07154 425.684 5.27013 425.869 5.52609C426.057 5.78205 426.168 6.08103 426.203 6.42305H425.24C425.187 6.18474 425.066 5.97953 424.876 5.80742C424.689 5.63531 424.437 5.54926 424.122 5.54926C423.846 5.54926 423.604 5.62207 423.397 5.76771C423.192 5.91113 423.032 6.11634 422.917 6.38333C422.802 6.64811 422.745 6.96144 422.745 7.32331C422.745 7.69401 422.801 8.01395 422.914 8.28315C423.026 8.55235 423.185 8.76087 423.39 8.9087C423.598 9.05654 423.841 9.13046 424.122 9.13046C424.309 9.13046 424.479 9.09626 424.631 9.02786C424.786 8.95725 424.915 8.85685 425.019 8.72666C425.124 8.59648 425.198 8.43982 425.24 8.25667H426.203C426.168 8.58545 426.061 8.87891 425.882 9.13708C425.704 9.39524 425.464 9.59824 425.164 9.74608C424.866 9.89392 424.517 9.96784 424.115 9.96784ZM429.635 4.78139V5.57574H426.858V4.78139H429.635ZM427.603 3.56338H428.592V8.37252C428.592 8.56448 428.621 8.70901 428.678 8.8061C428.736 8.90098 428.81 8.96607 428.9 9.00138C428.993 9.03448 429.093 9.05102 429.201 9.05102C429.281 9.05102 429.35 9.04551 429.41 9.03448C429.469 9.02344 429.516 9.01462 429.549 9.008L429.728 9.82552C429.67 9.84758 429.589 9.86965 429.483 9.89171C429.377 9.91598 429.244 9.92922 429.085 9.93143C428.825 9.93584 428.582 9.88951 428.357 9.79242C428.132 9.69533 427.95 9.54529 427.811 9.34229C427.672 9.13929 427.603 8.88443 427.603 8.57772V3.56338ZM432.866 9.96784C432.365 9.96784 431.934 9.86082 431.572 9.64679C431.212 9.43055 430.934 9.12715 430.738 8.73659C430.544 8.34383 430.447 7.88377 430.447 7.35641C430.447 6.83567 430.544 6.37671 430.738 5.97953C430.934 5.58236 431.208 5.27234 431.559 5.04948C431.912 4.82662 432.324 4.71519 432.797 4.71519C433.083 4.71519 433.361 4.76263 433.631 4.85751C433.9 4.95239 434.141 5.10133 434.356 5.30433C434.57 5.50733 434.738 5.77102 434.862 6.09538C434.985 6.41753 435.047 6.80919 435.047 7.27035V7.62119H431.006V6.8798H434.077C434.077 6.61943 434.025 6.38884 433.919 6.18805C433.813 5.98505 433.664 5.82508 433.472 5.70813C433.282 5.59118 433.059 5.53271 432.803 5.53271C432.525 5.53271 432.282 5.60111 432.075 5.73792C431.87 5.87252 431.711 6.04904 431.598 6.26748C431.488 6.48372 431.433 6.71872 431.433 6.97247V7.55169C431.433 7.89149 431.493 8.18055 431.612 8.41885C431.733 8.65716 431.902 8.8392 432.118 8.96497C432.334 9.08854 432.587 9.15032 432.876 9.15032C433.064 9.15032 433.235 9.12384 433.389 9.07088C433.544 9.01572 433.677 8.93408 433.79 8.82596C433.902 8.71784 433.988 8.58434 434.048 8.42547L434.984 8.59427C434.909 8.87009 434.775 9.1117 434.581 9.31912C434.389 9.52433 434.147 9.6843 433.856 9.79904C433.567 9.91157 433.237 9.96784 432.866 9.96784ZM438.048 9.96453C437.638 9.96453 437.272 9.85972 436.95 9.6501C436.63 9.43827 436.378 9.13708 436.195 8.74652C436.014 8.35376 435.924 7.88267 435.924 7.33324C435.924 6.78381 436.015 6.31382 436.198 5.92327C436.384 5.53271 436.637 5.23372 436.959 5.02631C437.282 4.8189 437.647 4.71519 438.055 4.71519C438.371 4.71519 438.624 4.76815 438.816 4.87406C439.01 4.97777 439.161 5.09913 439.266 5.23814C439.375 5.37715 439.458 5.49961 439.518 5.60553H439.578V3.08677H440.567V9.86523H439.601V9.07419H439.518C439.458 9.18231 439.372 9.30588 439.26 9.44489C439.149 9.5839 438.997 9.70526 438.803 9.80897C438.609 9.91267 438.357 9.96453 438.048 9.96453ZM438.267 9.12053C438.552 9.12053 438.792 9.04551 438.988 8.89546C439.187 8.74321 439.337 8.53249 439.439 8.26329C439.542 7.9941 439.594 7.68077 439.594 7.32331C439.594 6.97027 439.543 6.66135 439.442 6.39657C439.34 6.13178 439.191 5.92547 438.995 5.77763C438.799 5.6298 438.556 5.55588 438.267 5.55588C437.969 5.55588 437.721 5.63311 437.522 5.78756C437.324 5.94202 437.174 6.15275 437.072 6.41974C436.973 6.68673 436.923 6.98792 436.923 7.32331C436.923 7.66312 436.974 7.96872 437.075 8.24012C437.177 8.51153 437.327 8.72666 437.525 8.88553C437.726 9.0422 437.973 9.12053 438.267 9.12053Z" fill="white"/>
<path d="M77.5826 52.7378C77.9429 52.7378 78.2466 52.6124 78.4936 52.3615C78.7406 52.1107 78.8641 51.8023 78.8641 51.4363C78.8641 51.0703 78.7406 50.7619 78.4936 50.511C78.2466 50.2602 77.9429 50.1348 77.5826 50.1348C77.2222 50.1348 76.9185 50.2602 76.6715 50.511C76.4245 50.7619 76.301 51.0703 76.301 51.4363C76.301 51.8023 76.4245 52.1107 76.6715 52.3615C76.9185 52.6124 77.2222 52.7378 77.5826 52.7378ZM77.5826 60.3333C79.3636 58.7582 80.7344 57.1811 81.695 55.602C82.6557 54.0229 83.136 52.6922 83.136 51.6098C83.136 49.9001 82.6001 48.5037 81.5283 47.4208C80.4565 46.3379 79.1412 45.7964 77.5826 45.7964C76.0239 45.7964 74.7087 46.3379 73.6369 47.4208C72.5651 48.5037 72.0292 49.9001 72.0292 51.6098C72.0292 52.6922 72.5095 54.0229 73.4701 55.602C74.4307 57.1811 75.8015 58.7582 77.5826 60.3333ZM77.5826 61.2394C77.4906 61.2394 77.404 61.226 77.323 61.1993C77.2419 61.1727 77.1642 61.1287 77.0897 61.0675C75.0983 59.2131 73.6147 57.4925 72.6387 55.9057C71.6628 54.3188 71.1748 52.8869 71.1748 51.6098C71.1748 49.5741 71.8208 47.9517 73.1127 46.7425C74.4047 45.5333 75.8946 44.9287 77.5826 44.9287C79.2705 44.9287 80.7604 45.5333 82.0524 46.7425C83.3444 47.9517 83.9903 49.5741 83.9903 51.6098C83.9903 52.8869 83.5024 54.3188 82.5264 55.9057C81.5505 57.4925 80.0668 59.2131 78.0755 61.0675C78.0119 61.1287 77.9369 61.1727 77.8504 61.1993C77.7639 61.226 77.6746 61.2394 77.5826 61.2394Z" fill="#1B358F"/>
<path d="M93.0544 49.7424H90.1837V48.8477H96.9069V49.7424H94.0237V57.584H93.0544V49.7424ZM96.4552 54.4151C96.4552 53.3463 96.7576 52.5054 97.3624 51.8923C97.9672 51.271 98.717 50.9603 99.6117 50.9603C100.482 50.9603 101.198 51.2544 101.762 51.8426C102.325 52.4226 102.607 53.2552 102.607 54.3405C102.607 54.4565 102.598 54.5725 102.582 54.6885H97.4494C97.5322 56.13 98.3317 56.8508 99.8478 56.8508C100.676 56.8508 101.418 56.6602 102.072 56.2791L102.284 57.0372C102.002 57.236 101.629 57.3976 101.165 57.5218C100.709 57.6461 100.254 57.7083 99.7981 57.7083C98.7625 57.7083 97.9465 57.4224 97.35 56.8508C96.7535 56.2708 96.4552 55.4589 96.4552 54.4151ZM101.612 53.8931C101.554 53.2055 101.343 52.6877 100.979 52.3397C100.622 51.9918 100.159 51.8178 99.5869 51.8178C99.0069 51.8178 98.5264 51.9959 98.1453 52.3521C97.7725 52.7001 97.5447 53.2138 97.4618 53.8931H101.612ZM105.543 54.3529L103.182 51.097H104.338L106.077 53.6197L107.817 51.097H108.985L106.575 54.3405L108.948 57.584H107.755L106.053 55.0737L104.263 57.584H103.182L105.543 54.3529ZM110.54 55.4217V51.8923H109.359V51.097H110.54V49.1335H111.472V51.097H113.883V51.8923H111.472V55.2725C111.472 56.333 111.882 56.8632 112.702 56.8632C113.174 56.8632 113.613 56.7472 114.019 56.5152L114.255 57.2733C113.7 57.5633 113.12 57.7083 112.516 57.7083C111.927 57.7083 111.451 57.5218 111.086 57.149C110.722 56.7762 110.54 56.2004 110.54 55.4217Z" fill="#233341"/>
<path fill-rule="evenodd" clip-rule="evenodd" d="M165.413 51.1942C165.371 51.2309 165.35 51.2798 165.35 51.341C165.35 51.4021 165.371 51.4572 165.413 51.5061L169.841 55.3407C169.883 55.3896 169.94 55.4141 170.01 55.4141C170.08 55.4141 170.136 55.3896 170.178 55.3407L174.607 51.5061C174.649 51.4572 174.67 51.4021 174.67 51.341C174.67 51.2798 174.649 51.2309 174.607 51.1942L174.185 50.8273C174.143 50.7783 174.087 50.7539 174.016 50.7539C173.946 50.7539 173.883 50.7783 173.827 50.8273L170.01 54.1481L166.193 50.8273C166.137 50.7783 166.074 50.7539 166.003 50.7539C165.933 50.7539 165.877 50.7783 165.835 50.8273L165.413 51.1942Z" fill="#233341"/>
<path d="M683.408 52.7378C683.768 52.7378 684.072 52.6124 684.319 52.3615C684.566 52.1107 684.69 51.8023 684.69 51.4363C684.69 51.0703 684.566 50.7619 684.319 50.511C684.072 50.2602 683.768 50.1348 683.408 50.1348C683.048 50.1348 682.744 50.2602 682.497 50.511C682.25 50.7619 682.126 51.0703 682.126 51.4363C682.126 51.8023 682.25 52.1107 682.497 52.3615C682.744 52.6124 683.048 52.7378 683.408 52.7378ZM683.408 60.3333C685.189 58.7582 686.56 57.1811 687.52 55.602C688.481 54.0229 688.961 52.6922 688.961 51.6098C688.961 49.9001 688.426 48.5037 687.354 47.4208C686.282 46.3379 684.967 45.7964 683.408 45.7964C681.849 45.7964 680.534 46.3379 679.462 47.4208C678.391 48.5037 677.855 49.9001 677.855 51.6098C677.855 52.6922 678.335 54.0229 679.296 55.602C680.256 57.1811 681.627 58.7582 683.408 60.3333ZM683.408 61.2394C683.316 61.2394 683.229 61.226 683.148 61.1993C683.067 61.1727 682.99 61.1287 682.915 61.0675C680.924 59.2131 679.44 57.4925 678.464 55.9057C677.488 54.3188 677 52.8869 677 51.6098C677 49.5741 677.646 47.9517 678.938 46.7425C680.23 45.5333 681.72 44.9287 683.408 44.9287C685.096 44.9287 686.586 45.5333 687.878 46.7425C689.17 47.9517 689.816 49.5741 689.816 51.6098C689.816 52.8869 689.328 54.3188 688.352 55.9057C687.376 57.4925 685.892 59.2131 683.901 61.0675C683.837 61.1287 683.762 61.1727 683.676 61.1993C683.589 61.226 683.5 61.2394 683.408 61.2394Z" fill="#6D6D6D"/>
<path d="M698.88 49.7424H696.009V48.8477H702.732V49.7424H699.849V57.584H698.88V49.7424ZM702.281 54.4151C702.281 53.3463 702.583 52.5054 703.188 51.8923C703.793 51.271 704.542 50.9603 705.437 50.9603C706.307 50.9603 707.024 51.2544 707.587 51.8426C708.15 52.4226 708.432 53.2552 708.432 54.3405C708.432 54.4565 708.424 54.5725 708.407 54.6885H703.275C703.358 56.13 704.157 56.8508 705.673 56.8508C706.502 56.8508 707.243 56.6602 707.898 56.2791L708.109 57.0372C707.827 57.236 707.454 57.3976 706.991 57.5218C706.535 57.6461 706.079 57.7083 705.624 57.7083C704.588 57.7083 703.772 57.4224 703.175 56.8508C702.579 56.2708 702.281 55.4589 702.281 54.4151ZM707.438 53.8931C707.38 53.2055 707.169 52.6877 706.804 52.3397C706.448 51.9918 705.984 51.8178 705.412 51.8178C704.832 51.8178 704.352 51.9959 703.971 52.3521C703.598 52.7001 703.37 53.2138 703.287 53.8931H707.438ZM711.369 54.3529L709.007 51.097H710.163L711.903 53.6197L713.643 51.097H714.811L712.4 54.3405L714.774 57.584H713.581L711.878 55.0737L710.089 57.584H709.007L711.369 54.3529ZM716.365 55.4217V51.8923H715.185V51.097H716.365V49.1335H717.297V51.097H719.708V51.8923H717.297V55.2725C717.297 56.333 717.707 56.8632 718.527 56.8632C719 56.8632 719.439 56.7472 719.845 56.5152L720.081 57.2733C719.526 57.5633 718.946 57.7083 718.341 57.7083C717.753 57.7083 717.276 57.5218 716.912 57.149C716.547 56.7762 716.365 56.2004 716.365 55.4217Z" fill="#6D6D6D"/>
<path fill-rule="evenodd" clip-rule="evenodd" d="M771.238 51.1942C771.196 51.2309 771.175 51.2798 771.175 51.341C771.175 51.4021 771.196 51.4572 771.238 51.5061L775.667 55.3407C775.709 55.3896 775.765 55.4141 775.835 55.4141C775.906 55.4141 775.962 55.3896 776.004 55.3407L780.432 51.5061C780.474 51.4572 780.495 51.4021 780.495 51.341C780.495 51.2798 780.474 51.2309 780.432 51.1942L780.01 50.8273C779.968 50.7783 779.912 50.7539 779.842 50.7539C779.771 50.7539 779.708 50.7783 779.652 50.8273L775.835 54.1481L772.019 50.8273C771.962 50.7783 771.899 50.7539 771.829 50.7539C771.758 50.7539 771.702 50.7783 771.66 50.8273L771.238 51.1942Z" fill="#6D6D6D"/>
<rect x="516.417" y="38.9238" width="123.495" height="28.3204" rx="3.1068" fill="#FCE3E2"/>
<path d="M531.951 52.7378C532.312 52.7378 532.616 52.6124 532.863 52.3615C533.11 52.1107 533.233 51.8023 533.233 51.4363C533.233 51.0703 533.11 50.7619 532.863 50.511C532.616 50.2602 532.312 50.1348 531.951 50.1348C531.591 50.1348 531.287 50.2602 531.04 50.511C530.793 50.7619 530.67 51.0703 530.67 51.4363C530.67 51.8023 530.793 52.1107 531.04 52.3615C531.287 52.6124 531.591 52.7378 531.951 52.7378ZM531.951 60.3333C533.733 58.7582 535.103 57.1811 536.064 55.602C537.025 54.0229 537.505 52.6922 537.505 51.6098C537.505 49.9001 536.969 48.5037 535.897 47.4208C534.825 46.3379 533.51 45.7964 531.951 45.7964C530.393 45.7964 529.078 46.3379 528.006 47.4208C526.934 48.5037 526.398 49.9001 526.398 51.6098C526.398 52.6922 526.878 54.0229 527.839 55.602C528.8 57.1811 530.17 58.7582 531.951 60.3333ZM531.951 61.2394C531.859 61.2394 531.773 61.226 531.692 61.1993C531.611 61.1727 531.533 61.1287 531.459 61.0675C529.467 59.2131 527.984 57.4925 527.008 55.9057C526.032 54.3188 525.544 52.8869 525.544 51.6098C525.544 49.5741 526.19 47.9517 527.482 46.7425C528.774 45.5333 530.264 44.9287 531.951 44.9287C533.639 44.9287 535.129 45.5333 536.421 46.7425C537.713 47.9517 538.359 49.5741 538.359 51.6098C538.359 52.8869 537.871 54.3188 536.895 55.9057C535.919 57.4925 534.436 59.2131 532.444 61.0675C532.381 61.1287 532.306 61.1727 532.219 61.1993C532.133 61.226 532.043 61.2394 531.951 61.2394Z" fill="#EF4F4D"/>
<path d="M547.423 49.7424H544.553V48.8477H551.276V49.7424H548.393V57.584H547.423V49.7424ZM550.824 54.4151C550.824 53.3463 551.126 52.5054 551.731 51.8923C552.336 51.271 553.086 50.9603 553.981 50.9603C554.851 50.9603 555.567 51.2544 556.131 51.8426C556.694 52.4226 556.976 53.2552 556.976 54.3405C556.976 54.4565 556.967 54.5725 556.951 54.6885H551.818C551.901 56.13 552.701 56.8508 554.217 56.8508C555.045 56.8508 555.787 56.6602 556.441 56.2791L556.652 57.0372C556.371 57.236 555.998 57.3976 555.534 57.5218C555.078 57.6461 554.623 57.7083 554.167 57.7083C553.131 57.7083 552.315 57.4224 551.719 56.8508C551.122 56.2708 550.824 55.4589 550.824 54.4151ZM555.981 53.8931C555.923 53.2055 555.712 52.6877 555.348 52.3397C554.991 51.9918 554.527 51.8178 553.956 51.8178C553.376 51.8178 552.895 51.9959 552.514 52.3521C552.141 52.7001 551.914 53.2138 551.831 53.8931H555.981ZM559.912 54.3529L557.551 51.097H558.707L560.446 53.6197L562.186 51.097H563.354L560.943 54.3405L563.317 57.584H562.124L560.421 55.0737L558.632 57.584H557.551L559.912 54.3529ZM564.909 55.4217V51.8923H563.728V51.097H564.909V49.1335H565.841V51.097H568.251V51.8923H565.841V55.2725C565.841 56.333 566.251 56.8632 567.071 56.8632C567.543 56.8632 567.982 56.7472 568.388 56.5152L568.624 57.2733C568.069 57.5633 567.489 57.7083 566.884 57.7083C566.296 57.7083 565.82 57.5218 565.455 57.149C565.091 56.7762 564.909 56.2004 564.909 55.4217Z" fill="#233341"/>
<path fill-rule="evenodd" clip-rule="evenodd" d="M619.782 51.1942C619.74 51.2309 619.719 51.2798 619.719 51.341C619.719 51.4021 619.74 51.4572 619.782 51.5061L624.21 55.3407C624.252 55.3896 624.308 55.4141 624.379 55.4141C624.449 55.4141 624.505 55.3896 624.547 55.3407L628.976 51.5061C629.018 51.4572 629.039 51.4021 629.039 51.341C629.039 51.2798 629.018 51.2309 628.976 51.1942L628.554 50.8273C628.512 50.7783 628.455 50.7539 628.385 50.7539C628.315 50.7539 628.252 50.7783 628.195 50.8273L624.379 54.1481L620.562 50.8273C620.506 50.7783 620.442 50.7539 620.372 50.7539C620.302 50.7539 620.246 50.7783 620.204 50.8273L619.782 51.1942Z" fill="#233341"/>
<path d="M380.495 52.7378C380.856 52.7378 381.159 52.6124 381.406 52.3615C381.653 52.1107 381.777 51.8023 381.777 51.4363C381.777 51.0703 381.653 50.7619 381.406 50.511C381.159 50.2602 380.856 50.1348 380.495 50.1348C380.135 50.1348 379.831 50.2602 379.584 50.511C379.337 50.7619 379.214 51.0703 379.214 51.4363C379.214 51.8023 379.337 52.1107 379.584 52.3615C379.831 52.6124 380.135 52.7378 380.495 52.7378ZM380.495 60.3333C382.276 58.7582 383.647 57.1811 384.608 55.602C385.569 54.0229 386.049 52.6922 386.049 51.6098C386.049 49.9001 385.513 48.5037 384.441 47.4208C383.369 46.3379 382.054 45.7964 380.495 45.7964C378.937 45.7964 377.622 46.3379 376.55 47.4208C375.478 48.5037 374.942 49.9001 374.942 51.6098C374.942 52.6922 375.422 54.0229 376.383 55.602C377.344 57.1811 378.714 58.7582 380.495 60.3333ZM380.495 61.2394C380.403 61.2394 380.317 61.226 380.236 61.1993C380.155 61.1727 380.077 61.1287 380.003 61.0675C378.011 59.2131 376.528 57.4925 375.552 55.9057C374.576 54.3188 374.088 52.8869 374.088 51.6098C374.088 49.5741 374.734 47.9517 376.026 46.7425C377.318 45.5333 378.807 44.9287 380.495 44.9287C382.183 44.9287 383.673 45.5333 384.965 46.7425C386.257 47.9517 386.903 49.5741 386.903 51.6098C386.903 52.8869 386.415 54.3188 385.439 55.9057C384.463 57.4925 382.98 59.2131 380.988 61.0675C380.925 61.1287 380.85 61.1727 380.763 61.1993C380.677 61.226 380.587 61.2394 380.495 61.2394Z" fill="#1B358F"/>
<path d="M395.918 53.2718L393.121 48.8477H394.227L396.427 52.4391L398.652 48.8477H399.745L396.899 53.1848L399.72 57.584H398.515L396.377 54.0174L394.227 57.584H393.121L395.918 53.2718ZM403.565 57.2236L403.826 56.3785C404.415 56.6934 405.052 56.8508 405.74 56.8508C406.776 56.8508 407.293 56.5152 407.293 55.8442C407.293 55.5873 407.202 55.3844 407.02 55.2352C406.846 55.0778 406.627 54.9784 406.361 54.937C406.096 54.8873 405.806 54.821 405.492 54.7382C405.177 54.6553 404.887 54.5642 404.622 54.4648C404.357 54.3653 404.133 54.1789 403.951 53.9055C403.777 53.6321 403.69 53.2842 403.69 52.8617C403.69 52.2817 403.897 51.8219 404.311 51.4822C404.725 51.1343 405.309 50.9603 406.063 50.9603C406.792 50.9603 407.443 51.1218 408.014 51.445L407.766 52.3024C407.219 51.9793 406.656 51.8178 406.076 51.8178C405.661 51.8178 405.318 51.9048 405.044 52.0787C404.779 52.2444 404.646 52.4888 404.646 52.8119C404.646 53.1019 404.733 53.3339 404.907 53.5079C405.09 53.6818 405.313 53.7978 405.579 53.8558C405.844 53.9138 406.129 53.9842 406.436 54.0671C406.743 54.1417 407.028 54.2245 407.293 54.3156C407.559 54.4068 407.778 54.5807 407.952 54.8376C408.134 55.0861 408.226 55.4051 408.226 55.7945C408.226 56.3744 407.981 56.8384 407.492 57.1863C407.012 57.5343 406.424 57.7083 405.728 57.7083C405.355 57.7083 404.961 57.6627 404.547 57.5716C404.141 57.4721 403.814 57.3562 403.565 57.2236ZM409.295 54.4151C409.295 53.3463 409.598 52.5054 410.202 51.8923C410.807 51.271 411.557 50.9603 412.452 50.9603C413.322 50.9603 414.038 51.2544 414.602 51.8426C415.165 52.4226 415.447 53.2552 415.447 54.3405C415.447 54.4565 415.438 54.5725 415.422 54.6885H410.289C410.372 56.13 411.172 56.8508 412.688 56.8508C413.516 56.8508 414.258 56.6602 414.912 56.2791L415.124 57.0372C414.842 57.236 414.469 57.3976 414.005 57.5218C413.549 57.6461 413.094 57.7083 412.638 57.7083C411.603 57.7083 410.786 57.4224 410.19 56.8508C409.593 56.2708 409.295 55.4589 409.295 54.4151ZM414.453 53.8931C414.395 53.2055 414.183 52.6877 413.819 52.3397C413.462 51.9918 412.999 51.8178 412.427 51.8178C411.847 51.8178 411.366 51.9959 410.985 52.3521C410.613 52.7001 410.385 53.2138 410.302 53.8931H414.453ZM417 48.8477H417.932V57.584H417V48.8477ZM419.538 54.4151C419.538 53.3463 419.84 52.5054 420.445 51.8923C421.05 51.271 421.8 50.9603 422.694 50.9603C423.564 50.9603 424.281 51.2544 424.844 51.8426C425.408 52.4226 425.689 53.2552 425.689 54.3405C425.689 54.4565 425.681 54.5725 425.665 54.6885H420.532C420.615 56.13 421.414 56.8508 422.931 56.8508C423.759 56.8508 424.501 56.6602 425.155 56.2791L425.366 57.0372C425.085 57.236 424.712 57.3976 424.248 57.5218C423.792 57.6461 423.337 57.7083 422.881 57.7083C421.845 57.7083 421.029 57.4224 420.433 56.8508C419.836 56.2708 419.538 55.4589 419.538 54.4151ZM424.695 53.8931C424.637 53.2055 424.426 52.6877 424.061 52.3397C423.705 51.9918 423.241 51.8178 422.67 51.8178C422.09 51.8178 421.609 51.9959 421.228 52.3521C420.855 52.7001 420.627 53.2138 420.545 53.8931H424.695ZM426.771 54.3902C426.771 53.3215 427.09 52.4847 427.728 51.8799C428.374 51.2668 429.128 50.9603 429.989 50.9603C430.909 50.9603 431.621 51.1716 432.127 51.5941L431.791 52.4267C431.518 52.2279 431.253 52.0787 430.996 51.9793C430.739 51.8716 430.404 51.8178 429.989 51.8178C429.385 51.8178 428.858 52.0415 428.411 52.4888C427.972 52.9362 427.752 53.5534 427.752 54.3405C427.752 55.1027 427.972 55.7116 428.411 56.1673C428.85 56.6229 429.376 56.8508 429.989 56.8508C430.735 56.8508 431.36 56.6851 431.866 56.3537L432.139 57.0869C431.601 57.5011 430.884 57.7083 429.989 57.7083C429.119 57.7083 428.365 57.4141 427.728 56.8259C427.09 56.2377 426.771 55.4258 426.771 54.3902ZM433.889 55.4217V51.8923H432.709V51.097H433.889V49.1335H434.821V51.097H437.232V51.8923H434.821V55.2725C434.821 56.333 435.232 56.8632 436.052 56.8632C436.524 56.8632 436.963 56.7472 437.369 56.5152L437.605 57.2733C437.05 57.5633 436.47 57.7083 435.865 57.7083C435.277 57.7083 434.801 57.5218 434.436 57.149C434.072 56.7762 433.889 56.2004 433.889 55.4217ZM438.106 54.4151C438.106 53.3463 438.408 52.5054 439.013 51.8923C439.618 51.271 440.368 50.9603 441.262 50.9603C442.132 50.9603 442.849 51.2544 443.412 51.8426C443.976 52.4226 444.257 53.2552 444.257 54.3405C444.257 54.4565 444.249 54.5725 444.233 54.6885H439.1C439.183 56.13 439.982 56.8508 441.499 56.8508C442.327 56.8508 443.068 56.6602 443.723 56.2791L443.934 57.0372C443.653 57.236 443.28 57.3976 442.816 57.5218C442.36 57.6461 441.904 57.7083 441.449 57.7083C440.413 57.7083 439.597 57.4224 439.001 56.8508C438.404 56.2708 438.106 55.4589 438.106 54.4151ZM443.263 53.8931C443.205 53.2055 442.994 52.6877 442.629 52.3397C442.273 51.9918 441.809 51.8178 441.238 51.8178C440.658 51.8178 440.177 51.9959 439.796 52.3521C439.423 52.7001 439.195 53.2138 439.113 53.8931H443.263ZM445.351 54.3653C445.351 53.3132 445.645 52.4847 446.233 51.8799C446.83 51.2668 447.584 50.9603 448.495 50.9603C449.58 50.9603 450.413 51.445 450.993 52.4143V48.8477H451.925V57.584H450.993V56.2046C450.413 57.207 449.58 57.7083 448.495 57.7083C447.584 57.7083 446.83 57.4141 446.233 56.8259C445.645 56.2294 445.351 55.4092 445.351 54.3653ZM450.993 54.3405C450.885 53.628 450.599 53.0315 450.136 52.551C449.672 52.0622 449.129 51.8178 448.508 51.8178C447.853 51.8178 447.327 52.0332 446.929 52.464C446.532 52.8865 446.333 53.5162 446.333 54.3529C446.333 55.1317 446.536 55.7448 446.942 56.1921C447.348 56.6312 447.87 56.8508 448.508 56.8508C449.17 56.8508 449.717 56.6188 450.148 56.1549C450.579 55.6909 450.86 55.0861 450.993 54.3405Z" fill="#233341"/>
<path fill-rule="evenodd" clip-rule="evenodd" d="M468.326 51.1942C468.284 51.2309 468.262 51.2798 468.262 51.341C468.262 51.4021 468.284 51.4572 468.326 51.5061L472.754 55.3407C472.796 55.3896 472.852 55.4141 472.923 55.4141C472.993 55.4141 473.049 55.3896 473.091 55.3407L477.52 51.5061C477.562 51.4572 477.583 51.4021 477.583 51.341C477.583 51.2798 477.562 51.2309 477.52 51.1942L477.098 50.8273C477.056 50.7783 476.999 50.7539 476.929 50.7539C476.859 50.7539 476.796 50.7783 476.739 50.8273L472.923 54.1481L469.106 50.8273C469.05 50.7783 468.986 50.7539 468.916 50.7539C468.846 50.7539 468.79 50.7783 468.747 50.8273L468.326 51.1942Z" fill="#233341"/>
<rect x="213.505" y="38.9238" width="123.495" height="28.3204" rx="3.1068" fill="#F0F2FA"/>
<path d="M229.039 52.7378C229.399 52.7378 229.703 52.6124 229.95 52.3615C230.197 52.1107 230.32 51.8023 230.32 51.4363C230.32 51.0703 230.197 50.7619 229.95 50.511C229.703 50.2602 229.399 50.1348 229.039 50.1348C228.678 50.1348 228.375 50.2602 228.128 50.511C227.881 50.7619 227.757 51.0703 227.757 51.4363C227.757 51.8023 227.881 52.1107 228.128 52.3615C228.375 52.6124 228.678 52.7378 229.039 52.7378ZM229.039 60.3333C230.82 58.7582 232.191 57.1811 233.151 55.602C234.112 54.0229 234.592 52.6922 234.592 51.6098C234.592 49.9001 234.056 48.5037 232.985 47.4208C231.913 46.3379 230.598 45.7964 229.039 45.7964C227.48 45.7964 226.165 46.3379 225.093 47.4208C224.021 48.5037 223.485 49.9001 223.485 51.6098C223.485 52.6922 223.966 54.0229 224.926 55.602C225.887 57.1811 227.258 58.7582 229.039 60.3333ZM229.039 61.2394C228.947 61.2394 228.86 61.226 228.779 61.1993C228.698 61.1727 228.62 61.1287 228.546 61.0675C226.555 59.2131 225.071 57.4925 224.095 55.9057C223.119 54.3188 222.631 52.8869 222.631 51.6098C222.631 49.5741 223.277 47.9517 224.569 46.7425C225.861 45.5333 227.351 44.9287 229.039 44.9287C230.727 44.9287 232.217 45.5333 233.509 46.7425C234.801 47.9517 235.447 49.5741 235.447 51.6098C235.447 52.8869 234.959 54.3188 233.983 55.9057C233.007 57.4925 231.523 59.2131 229.532 61.0675C229.468 61.1287 229.393 61.1727 229.307 61.1993C229.22 61.226 229.131 61.2394 229.039 61.2394Z" fill="#1B358F"/>
<path d="M244.511 49.7424H241.64V48.8477H248.363V49.7424H245.48V57.584H244.511V49.7424ZM247.912 54.4151C247.912 53.3463 248.214 52.5054 248.819 51.8923C249.423 51.271 250.173 50.9603 251.068 50.9603C251.938 50.9603 252.655 51.2544 253.218 51.8426C253.781 52.4226 254.063 53.2552 254.063 54.3405C254.063 54.4565 254.055 54.5725 254.038 54.6885H248.906C248.989 56.13 249.788 56.8508 251.304 56.8508C252.133 56.8508 252.874 56.6602 253.529 56.2791L253.74 57.0372C253.458 57.236 253.085 57.3976 252.621 57.5218C252.166 57.6461 251.71 57.7083 251.254 57.7083C250.219 57.7083 249.403 57.4224 248.806 56.8508C248.21 56.2708 247.912 55.4589 247.912 54.4151ZM253.069 53.8931C253.011 53.2055 252.8 52.6877 252.435 52.3397C252.079 51.9918 251.615 51.8178 251.043 51.8178C250.463 51.8178 249.983 51.9959 249.602 52.3521C249.229 52.7001 249.001 53.2138 248.918 53.8931H253.069ZM256.999 54.3529L254.638 51.097H255.794L257.534 53.6197L259.274 51.097H260.442L258.031 54.3405L260.404 57.584H259.211L257.509 55.0737L255.719 57.584H254.638L256.999 54.3529ZM261.996 55.4217V51.8923H260.815V51.097H261.996V49.1335H262.928V51.097H265.339V51.8923H262.928V55.2725C262.928 56.333 263.338 56.8632 264.158 56.8632C264.631 56.8632 265.07 56.7472 265.476 56.5152L265.712 57.2733C265.157 57.5633 264.577 57.7083 263.972 57.7083C263.384 57.7083 262.907 57.5218 262.543 57.149C262.178 56.7762 261.996 56.2004 261.996 55.4217Z" fill="#233341"/>
<path fill-rule="evenodd" clip-rule="evenodd" d="M326.063 54.9738C326.105 54.9371 326.126 54.8881 326.126 54.827C326.126 54.7658 326.105 54.7108 326.063 54.6619L321.635 50.8273C321.593 50.7784 321.536 50.7539 321.466 50.7539C321.396 50.7539 321.34 50.7784 321.297 50.8273L316.869 54.6619C316.827 54.7108 316.806 54.7658 316.806 54.827C316.806 54.8881 316.827 54.9371 316.869 54.9738L317.291 55.3407C317.333 55.3896 317.389 55.4141 317.46 55.4141C317.53 55.4141 317.593 55.3896 317.649 55.3407L321.466 52.0199L325.283 55.3407C325.339 55.3896 325.402 55.4141 325.473 55.4141C325.543 55.4141 325.599 55.3896 325.641 55.3407L326.063 54.9738Z" fill="#233341"/>
<rect x="213.505" y="104.166" width="123.495" height="28.3204" rx="3.1068" fill="#F0F2FA"/>
<path d="M229.039 117.98C229.399 117.98 229.703 117.855 229.95 117.604C230.197 117.353 230.32 117.044 230.32 116.678C230.32 116.312 230.197 116.004 229.95 115.753C229.703 115.502 229.399 115.377 229.039 115.377C228.678 115.377 228.375 115.502 228.128 115.753C227.881 116.004 227.757 116.312 227.757 116.678C227.757 117.044 227.881 117.353 228.128 117.604C228.375 117.855 228.678 117.98 229.039 117.98ZM229.039 125.576C230.82 124 232.191 122.423 233.151 120.844C234.112 119.265 234.592 117.934 234.592 116.852C234.592 115.142 234.056 113.746 232.985 112.663C231.913 111.58 230.598 111.039 229.039 111.039C227.48 111.039 226.165 111.58 225.093 112.663C224.021 113.746 223.485 115.142 223.485 116.852C223.485 117.934 223.966 119.265 224.926 120.844C225.887 122.423 227.258 124 229.039 125.576ZM229.039 126.482C228.947 126.482 228.86 126.468 228.779 126.442C228.698 126.415 228.62 126.371 228.546 126.31C226.555 124.455 225.071 122.735 224.095 121.148C223.119 119.561 222.631 118.129 222.631 116.852C222.631 114.816 223.277 113.194 224.569 111.985C225.861 110.775 227.351 110.171 229.039 110.171C230.727 110.171 232.217 110.775 233.509 111.985C234.801 113.194 235.447 114.816 235.447 116.852C235.447 118.129 234.959 119.561 233.983 121.148C233.007 122.735 231.523 124.455 229.532 126.31C229.468 126.371 229.393 126.415 229.307 126.442C229.22 126.468 229.131 126.482 229.039 126.482Z" fill="#1B358F"/>
<path d="M241.59 122.317L241.851 121.447C242.39 121.836 243.011 122.031 243.715 122.031C244.204 122.031 244.594 121.894 244.884 121.621C245.182 121.339 245.331 120.929 245.331 120.39V114.09H246.3V120.353C246.3 121.124 246.056 121.749 245.567 122.23C245.087 122.71 244.473 122.95 243.728 122.95C242.916 122.95 242.203 122.739 241.59 122.317ZM248.569 114.09H253.341V114.985H249.538V118.228H252.918V119.123H249.538V122.826H248.569V114.09ZM254.952 114.09H255.922V118.303L259.526 114.09H260.644L256.953 118.39L260.756 122.826H259.513L255.922 118.626V122.826H254.952V114.09ZM261.756 121.273H262.713L262.129 124.23H261.334L261.756 121.273ZM267.841 114.09H268.81L273.284 120.154L274.054 121.298V114.09H275.024V122.826H274.054L269.469 116.588L268.81 115.631V122.826H267.841V114.09ZM279.107 119.347L276.336 114.09H277.442L279.641 118.464L281.878 114.09H282.959L280.076 119.384V122.826H279.107V119.347Z" fill="#233341"/>
<path fill-rule="evenodd" clip-rule="evenodd" d="M326.063 120.216C326.105 120.179 326.126 120.13 326.126 120.069C326.126 120.008 326.105 119.953 326.063 119.904L321.635 116.069C321.593 116.021 321.536 115.996 321.466 115.996C321.396 115.996 321.34 116.021 321.297 116.069L316.869 119.904C316.827 119.953 316.806 120.008 316.806 120.069C316.806 120.13 316.827 120.179 316.869 120.216L317.291 120.583C317.333 120.632 317.389 120.656 317.46 120.656C317.53 120.656 317.593 120.632 317.649 120.583L321.466 117.262L325.283 120.583C325.339 120.632 325.402 120.656 325.473 120.656C325.543 120.656 325.599 120.632 325.641 120.583L326.063 120.216Z" fill="#233341"/>
<path d="M77.5826 117.98C77.9429 117.98 78.2466 117.855 78.4936 117.604C78.7406 117.353 78.8641 117.044 78.8641 116.678C78.8641 116.312 78.7406 116.004 78.4936 115.753C78.2466 115.502 77.9429 115.377 77.5826 115.377C77.2222 115.377 76.9185 115.502 76.6715 115.753C76.4245 116.004 76.301 116.312 76.301 116.678C76.301 117.044 76.4245 117.353 76.6715 117.604C76.9185 117.855 77.2222 117.98 77.5826 117.98ZM77.5826 125.576C79.3636 124 80.7344 122.423 81.695 120.844C82.6557 119.265 83.136 117.934 83.136 116.852C83.136 115.142 82.6001 113.746 81.5283 112.663C80.4565 111.58 79.1412 111.039 77.5826 111.039C76.0239 111.039 74.7087 111.58 73.6369 112.663C72.5651 113.746 72.0292 115.142 72.0292 116.852C72.0292 117.934 72.5095 119.265 73.4701 120.844C74.4307 122.423 75.8015 124 77.5826 125.576ZM77.5826 126.482C77.4906 126.482 77.404 126.468 77.323 126.442C77.2419 126.415 77.1642 126.371 77.0897 126.31C75.0983 124.455 73.6147 122.735 72.6387 121.148C71.6628 119.561 71.1748 118.129 71.1748 116.852C71.1748 114.816 71.8208 113.194 73.1127 111.985C74.4047 110.775 75.8946 110.171 77.5826 110.171C79.2705 110.171 80.7604 110.775 82.0524 111.985C83.3444 113.194 83.9903 114.816 83.9903 116.852C83.9903 118.129 83.5024 119.561 82.5264 121.148C81.5505 122.735 80.0668 124.455 78.0755 126.31C78.0119 126.371 77.9369 126.415 77.8504 126.442C77.7639 126.468 77.6746 126.482 77.5826 126.482Z" fill="#1B358F"/>
<path d="M90.134 122.317L90.395 121.447C90.9335 121.836 91.5549 122.031 92.2591 122.031C92.7479 122.031 93.1373 121.894 93.4272 121.621C93.7255 121.339 93.8746 120.929 93.8746 120.39V114.09H94.8439V120.353C94.8439 121.124 94.5995 121.749 94.1107 122.23C93.6302 122.71 93.0171 122.95 92.2715 122.95C91.4596 122.95 90.7471 122.739 90.134 122.317ZM97.1127 114.09H101.885V114.985H98.082V118.228H101.462V119.123H98.082V122.826H97.1127V114.09ZM103.496 114.09H104.465V118.303L108.069 114.09H109.188L105.497 118.39L109.3 122.826H108.057L104.465 118.626V122.826H103.496V114.09ZM110.3 121.273H111.257L110.673 124.23H109.877L110.3 121.273ZM116.385 114.09H117.354L121.828 120.154L122.598 121.298V114.09H123.567V122.826H122.598L118.012 116.588L117.354 115.631V122.826H116.385V114.09ZM127.651 119.347L124.879 114.09H125.985L128.185 118.464L130.422 114.09H131.503L128.62 119.384V122.826H127.651V119.347Z" fill="#233341"/>
<path fill-rule="evenodd" clip-rule="evenodd" d="M165.413 116.436C165.371 116.473 165.35 116.522 165.35 116.583C165.35 116.644 165.371 116.699 165.413 116.748L169.841 120.583C169.883 120.632 169.94 120.656 170.01 120.656C170.08 120.656 170.136 120.632 170.178 120.583L174.607 116.748C174.649 116.699 174.67 116.644 174.67 116.583C174.67 116.522 174.649 116.473 174.607 116.436L174.185 116.069C174.143 116.021 174.087 115.996 174.016 115.996C173.946 115.996 173.883 116.021 173.827 116.069L170.01 119.39L166.193 116.069C166.137 116.021 166.074 115.996 166.003 115.996C165.933 115.996 165.877 116.021 165.835 116.069L165.413 116.436Z" fill="#233341"/>
<path d="M683.408 117.98C683.768 117.98 684.072 117.855 684.319 117.604C684.566 117.353 684.69 117.044 684.69 116.678C684.69 116.312 684.566 116.004 684.319 115.753C684.072 115.502 683.768 115.377 683.408 115.377C683.048 115.377 682.744 115.502 682.497 115.753C682.25 116.004 682.126 116.312 682.126 116.678C682.126 117.044 682.25 117.353 682.497 117.604C682.744 117.855 683.048 117.98 683.408 117.98ZM683.408 125.576C685.189 124 686.56 122.423 687.52 120.844C688.481 119.265 688.961 117.934 688.961 116.852C688.961 115.142 688.426 113.746 687.354 112.663C686.282 111.58 684.967 111.039 683.408 111.039C681.849 111.039 680.534 111.58 679.462 112.663C678.391 113.746 677.855 115.142 677.855 116.852C677.855 117.934 678.335 119.265 679.296 120.844C680.256 122.423 681.627 124 683.408 125.576ZM683.408 126.482C683.316 126.482 683.229 126.468 683.148 126.442C683.067 126.415 682.99 126.371 682.915 126.31C680.924 124.455 679.44 122.735 678.464 121.148C677.488 119.561 677 118.129 677 116.852C677 114.816 677.646 113.194 678.938 111.985C680.23 110.775 681.72 110.171 683.408 110.171C685.096 110.171 686.586 110.775 687.878 111.985C689.17 113.194 689.816 114.816 689.816 116.852C689.816 118.129 689.328 119.561 688.352 121.148C687.376 122.735 685.892 124.455 683.901 126.31C683.837 126.371 683.762 126.415 683.676 126.442C683.589 126.468 683.5 126.482 683.408 126.482Z" fill="#6D6D6D"/>
<path d="M695.959 122.317L696.22 121.447C696.759 121.836 697.38 122.031 698.085 122.031C698.573 122.031 698.963 121.894 699.253 121.621C699.551 121.339 699.7 120.929 699.7 120.39V114.09H700.669V120.353C700.669 121.124 700.425 121.749 699.936 122.23C699.456 122.71 698.843 122.95 698.097 122.95C697.285 122.95 696.573 122.739 695.959 122.317ZM702.938 114.09H707.71V114.985H703.907V118.228H707.288V119.123H703.907V122.826H702.938V114.09ZM709.322 114.09H710.291V118.303L713.895 114.09H715.013L711.322 118.39L715.125 122.826H713.882L710.291 118.626V122.826H709.322V114.09ZM716.125 121.273H717.082L716.498 124.23H715.703L716.125 121.273ZM722.21 114.09H723.179L727.653 120.154L728.424 121.298V114.09H729.393V122.826H728.424L723.838 116.588L723.179 115.631V122.826H722.21V114.09ZM733.476 119.347L730.705 114.09H731.811L734.011 118.464L736.247 114.09H737.329L734.446 119.384V122.826H733.476V119.347Z" fill="#6D6D6D"/>
<path fill-rule="evenodd" clip-rule="evenodd" d="M771.238 116.436C771.196 116.473 771.175 116.522 771.175 116.583C771.175 116.644 771.196 116.699 771.238 116.748L775.667 120.583C775.709 120.632 775.765 120.656 775.835 120.656C775.906 120.656 775.962 120.632 776.004 120.583L780.432 116.748C780.474 116.699 780.495 116.644 780.495 116.583C780.495 116.522 780.474 116.473 780.432 116.436L780.01 116.069C779.968 116.021 779.912 115.996 779.842 115.996C779.771 115.996 779.708 116.021 779.652 116.069L775.835 119.39L772.019 116.069C771.962 116.021 771.899 115.996 771.829 115.996C771.758 115.996 771.702 116.021 771.66 116.069L771.238 116.436Z" fill="#6D6D6D"/>
<rect x="516.417" y="104.166" width="123.495" height="28.3204" rx="3.1068" fill="#FCE3E2"/>
<path d="M531.951 117.98C532.312 117.98 532.616 117.855 532.863 117.604C533.11 117.353 533.233 117.044 533.233 116.678C533.233 116.312 533.11 116.004 532.863 115.753C532.616 115.502 532.312 115.377 531.951 115.377C531.591 115.377 531.287 115.502 531.04 115.753C530.793 116.004 530.67 116.312 530.67 116.678C530.67 117.044 530.793 117.353 531.04 117.604C531.287 117.855 531.591 117.98 531.951 117.98ZM531.951 125.576C533.733 124 535.103 122.423 536.064 120.844C537.025 119.265 537.505 117.934 537.505 116.852C537.505 115.142 536.969 113.746 535.897 112.663C534.825 111.58 533.51 111.039 531.951 111.039C530.393 111.039 529.078 111.58 528.006 112.663C526.934 113.746 526.398 115.142 526.398 116.852C526.398 117.934 526.878 119.265 527.839 120.844C528.8 122.423 530.17 124 531.951 125.576ZM531.951 126.482C531.859 126.482 531.773 126.468 531.692 126.442C531.611 126.415 531.533 126.371 531.459 126.31C529.467 124.455 527.984 122.735 527.008 121.148C526.032 119.561 525.544 118.129 525.544 116.852C525.544 114.816 526.19 113.194 527.482 111.985C528.774 110.775 530.264 110.171 531.951 110.171C533.639 110.171 535.129 110.775 536.421 111.985C537.713 113.194 538.359 114.816 538.359 116.852C538.359 118.129 537.871 119.561 536.895 121.148C535.919 122.735 534.436 124.455 532.444 126.31C532.381 126.371 532.306 126.415 532.219 126.442C532.133 126.468 532.043 126.482 531.951 126.482Z" fill="#EF4F4D"/>
<path d="M544.503 122.317L544.764 121.447C545.302 121.836 545.924 122.031 546.628 122.031C547.117 122.031 547.506 121.894 547.796 121.621C548.094 121.339 548.244 120.929 548.244 120.39V114.09H549.213V120.353C549.213 121.124 548.968 121.749 548.48 122.23C547.999 122.71 547.386 122.95 546.64 122.95C545.829 122.95 545.116 122.739 544.503 122.317ZM551.482 114.09H556.254V114.985H552.451V118.228H555.831V119.123H552.451V122.826H551.482V114.09ZM557.865 114.09H558.834V118.303L562.438 114.09H563.557L559.866 118.39L563.669 122.826H562.426L558.834 118.626V122.826H557.865V114.09ZM564.669 121.273H565.626L565.041 124.23H564.246L564.669 121.273ZM570.753 114.09H571.723L576.197 120.154L576.967 121.298V114.09H577.936V122.826H576.967L572.381 116.588L571.723 115.631V122.826H570.753V114.09ZM582.02 119.347L579.248 114.09H580.354L582.554 118.464L584.791 114.09H585.872L582.989 119.384V122.826H582.02V119.347Z" fill="#233341"/>
<path fill-rule="evenodd" clip-rule="evenodd" d="M619.782 116.436C619.74 116.473 619.719 116.522 619.719 116.583C619.719 116.644 619.74 116.699 619.782 116.748L624.21 120.583C624.252 120.632 624.308 120.656 624.379 120.656C624.449 120.656 624.505 120.632 624.547 120.583L628.976 116.748C629.018 116.699 629.039 116.644 629.039 116.583C629.039 116.522 629.018 116.473 628.976 116.436L628.554 116.069C628.512 116.021 628.455 115.996 628.385 115.996C628.315 115.996 628.252 116.021 628.195 116.069L624.379 119.39L620.562 116.069C620.506 116.021 620.442 115.996 620.372 115.996C620.302 115.996 620.246 116.021 620.204 116.069L619.782 116.436Z" fill="#233341"/>
<path d="M380.495 117.98C380.856 117.98 381.159 117.855 381.406 117.604C381.653 117.353 381.777 117.044 381.777 116.678C381.777 116.312 381.653 116.004 381.406 115.753C381.159 115.502 380.856 115.377 380.495 115.377C380.135 115.377 379.831 115.502 379.584 115.753C379.337 116.004 379.214 116.312 379.214 116.678C379.214 117.044 379.337 117.353 379.584 117.604C379.831 117.855 380.135 117.98 380.495 117.98ZM380.495 125.576C382.276 124 383.647 122.423 384.608 120.844C385.569 119.265 386.049 117.934 386.049 116.852C386.049 115.142 385.513 113.746 384.441 112.663C383.369 111.58 382.054 111.039 380.495 111.039C378.937 111.039 377.622 111.58 376.55 112.663C375.478 113.746 374.942 115.142 374.942 116.852C374.942 117.934 375.422 119.265 376.383 120.844C377.344 122.423 378.714 124 380.495 125.576ZM380.495 126.482C380.403 126.482 380.317 126.468 380.236 126.442C380.155 126.415 380.077 126.371 380.003 126.31C378.011 124.455 376.528 122.735 375.552 121.148C374.576 119.561 374.088 118.129 374.088 116.852C374.088 114.816 374.734 113.194 376.026 111.985C377.318 110.775 378.807 110.171 380.495 110.171C382.183 110.171 383.673 110.775 384.965 111.985C386.257 113.194 386.903 114.816 386.903 116.852C386.903 118.129 386.415 119.561 385.439 121.148C384.463 122.735 382.98 124.455 380.988 126.31C380.925 126.371 380.85 126.415 380.763 126.442C380.677 126.468 380.587 126.482 380.495 126.482Z" fill="#1B358F"/>
<path d="M393.544 121.956C394.182 121.343 394.671 120.867 395.01 120.527C395.35 120.179 395.715 119.794 396.104 119.371C396.493 118.941 396.775 118.589 396.949 118.315C397.131 118.033 397.285 117.743 397.409 117.445C397.533 117.139 397.595 116.845 397.595 116.563C397.595 116.074 397.434 115.672 397.111 115.357C396.796 115.043 396.369 114.885 395.831 114.885C395.143 114.885 394.472 115.188 393.817 115.792L393.457 115.034C394.203 114.322 395.027 113.966 395.93 113.966C396.8 113.966 397.463 114.218 397.918 114.724C398.382 115.221 398.614 115.826 398.614 116.538C398.614 116.936 398.527 117.337 398.353 117.743C398.188 118.149 397.906 118.593 397.508 119.073C397.111 119.554 396.721 119.989 396.34 120.378C395.959 120.767 395.429 121.285 394.749 121.931H398.763V122.826H393.544V121.956ZM403.043 122.466L403.304 121.621C403.893 121.936 404.531 122.093 405.218 122.093C406.254 122.093 406.772 121.757 406.772 121.086C406.772 120.83 406.681 120.627 406.498 120.477C406.324 120.32 406.105 120.221 405.84 120.179C405.574 120.129 405.285 120.063 404.97 119.98C404.655 119.897 404.365 119.806 404.1 119.707C403.835 119.608 403.611 119.421 403.429 119.148C403.255 118.874 403.168 118.526 403.168 118.104C403.168 117.524 403.375 117.064 403.789 116.724C404.203 116.376 404.787 116.202 405.541 116.202C406.27 116.202 406.921 116.364 407.492 116.687L407.244 117.545C406.697 117.222 406.134 117.06 405.554 117.06C405.14 117.06 404.796 117.147 404.522 117.321C404.257 117.487 404.125 117.731 404.125 118.054C404.125 118.344 404.212 118.576 404.386 118.75C404.568 118.924 404.792 119.04 405.057 119.098C405.322 119.156 405.608 119.226 405.914 119.309C406.221 119.384 406.507 119.467 406.772 119.558C407.037 119.649 407.256 119.823 407.43 120.08C407.613 120.328 407.704 120.647 407.704 121.037C407.704 121.617 407.459 122.081 406.97 122.429C406.49 122.776 405.902 122.95 405.206 122.95C404.833 122.95 404.439 122.905 404.025 122.814C403.619 122.714 403.292 122.598 403.043 122.466ZM408.773 119.657C408.773 118.589 409.076 117.748 409.681 117.135C410.285 116.513 411.035 116.202 411.93 116.202C412.8 116.202 413.516 116.497 414.08 117.085C414.643 117.665 414.925 118.497 414.925 119.583C414.925 119.699 414.917 119.815 414.9 119.931H409.768C409.85 121.372 410.65 122.093 412.166 122.093C412.994 122.093 413.736 121.902 414.39 121.521L414.602 122.279C414.32 122.478 413.947 122.64 413.483 122.764C413.028 122.888 412.572 122.95 412.116 122.95C411.081 122.95 410.265 122.665 409.668 122.093C409.072 121.513 408.773 120.701 408.773 119.657ZM413.931 119.135C413.873 118.448 413.661 117.93 413.297 117.582C412.941 117.234 412.477 117.06 411.905 117.06C411.325 117.06 410.845 117.238 410.463 117.594C410.091 117.942 409.863 118.456 409.78 119.135H413.931ZM416.478 114.09H417.41V122.826H416.478V114.09ZM419.016 119.657C419.016 118.589 419.318 117.748 419.923 117.135C420.528 116.513 421.278 116.202 422.173 116.202C423.043 116.202 423.759 116.497 424.323 117.085C424.886 117.665 425.168 118.497 425.168 119.583C425.168 119.699 425.159 119.815 425.143 119.931H420.01C420.093 121.372 420.893 122.093 422.409 122.093C423.237 122.093 423.979 121.902 424.633 121.521L424.844 122.279C424.563 122.478 424.19 122.64 423.726 122.764C423.27 122.888 422.815 122.95 422.359 122.95C421.323 122.95 420.507 122.665 419.911 122.093C419.314 121.513 419.016 120.701 419.016 119.657ZM424.173 119.135C424.115 118.448 423.904 117.93 423.54 117.582C423.183 117.234 422.719 117.06 422.148 117.06C421.568 117.06 421.087 117.238 420.706 117.594C420.333 117.942 420.106 118.456 420.023 119.135H424.173ZM426.249 119.632C426.249 118.564 426.568 117.727 427.206 117.122C427.852 116.509 428.606 116.202 429.467 116.202C430.387 116.202 431.1 116.414 431.605 116.836L431.269 117.669C430.996 117.47 430.731 117.321 430.474 117.222C430.217 117.114 429.882 117.06 429.467 117.06C428.863 117.06 428.337 117.284 427.889 117.731C427.45 118.178 427.231 118.796 427.231 119.583C427.231 120.345 427.45 120.954 427.889 121.409C428.328 121.865 428.854 122.093 429.467 122.093C430.213 122.093 430.839 121.927 431.344 121.596L431.617 122.329C431.079 122.743 430.362 122.95 429.467 122.95C428.598 122.95 427.844 122.656 427.206 122.068C426.568 121.48 426.249 120.668 426.249 119.632ZM433.368 120.664V117.135H432.187V116.339H433.368V114.376H434.3V116.339H436.71V117.135H434.3V120.515C434.3 121.575 434.71 122.105 435.53 122.105C436.002 122.105 436.441 121.989 436.847 121.757L437.083 122.515C436.528 122.805 435.948 122.95 435.343 122.95C434.755 122.95 434.279 122.764 433.914 122.391C433.55 122.018 433.368 121.443 433.368 120.664ZM437.584 119.657C437.584 118.589 437.886 117.748 438.491 117.135C439.096 116.513 439.846 116.202 440.741 116.202C441.61 116.202 442.327 116.497 442.89 117.085C443.454 117.665 443.736 118.497 443.736 119.583C443.736 119.699 443.727 119.815 443.711 119.931H438.578C438.661 121.372 439.461 122.093 440.977 122.093C441.805 122.093 442.547 121.902 443.201 121.521L443.412 122.279C443.131 122.478 442.758 122.64 442.294 122.764C441.838 122.888 441.383 122.95 440.927 122.95C439.891 122.95 439.075 122.665 438.479 122.093C437.882 121.513 437.584 120.701 437.584 119.657ZM442.741 119.135C442.683 118.448 442.472 117.93 442.108 117.582C441.751 117.234 441.287 117.06 440.716 117.06C440.136 117.06 439.655 117.238 439.274 117.594C438.901 117.942 438.674 118.456 438.591 119.135H442.741ZM444.829 119.608C444.829 118.555 445.123 117.727 445.712 117.122C446.308 116.509 447.062 116.202 447.973 116.202C449.059 116.202 449.891 116.687 450.471 117.656V114.09H451.403V122.826H450.471V121.447C449.891 122.449 449.059 122.95 447.973 122.95C447.062 122.95 446.308 122.656 445.712 122.068C445.123 121.472 444.829 120.651 444.829 119.608ZM450.471 119.583C450.363 118.87 450.078 118.274 449.614 117.793C449.15 117.304 448.607 117.06 447.986 117.06C447.331 117.06 446.805 117.275 446.407 117.706C446.01 118.129 445.811 118.758 445.811 119.595C445.811 120.374 446.014 120.987 446.42 121.434C446.826 121.873 447.348 122.093 447.986 122.093C448.648 122.093 449.195 121.861 449.626 121.397C450.057 120.933 450.339 120.328 450.471 119.583Z" fill="#233341"/>
<path fill-rule="evenodd" clip-rule="evenodd" d="M468.326 116.436C468.284 116.473 468.262 116.522 468.262 116.583C468.262 116.644 468.284 116.699 468.326 116.748L472.754 120.583C472.796 120.632 472.852 120.656 472.923 120.656C472.993 120.656 473.049 120.632 473.091 120.583L477.52 116.748C477.562 116.699 477.583 116.644 477.583 116.583C477.583 116.522 477.562 116.473 477.52 116.436L477.098 116.069C477.056 116.021 476.999 115.996 476.929 115.996C476.859 115.996 476.796 116.021 476.739 116.069L472.923 119.39L469.106 116.069C469.05 116.021 468.986 115.996 468.916 115.996C468.846 115.996 468.79 116.021 468.747 116.069L468.326 116.436Z" fill="#233341"/>
</svg>
