<svg width="426" height="33" viewBox="0 0 426 33" fill="none" xmlns="http://www.w3.org/2000/svg">
<path d="M16.1612 32.3489C14.2771 32.3489 12.5093 32 10.8578 31.3022C9.22961 30.5811 7.7991 29.5926 6.56631 28.3365C5.35678 27.0572 4.40311 25.5686 3.70531 23.8706C3.03076 22.1726 2.69349 20.335 2.69349 18.3579C2.69349 16.404 3.03076 14.5897 3.70531 12.915C4.40311 11.217 5.35678 9.73998 6.56631 8.48392C7.7991 7.20461 9.22961 6.20442 10.8578 5.48336C12.486 4.76229 14.2538 4.40176 16.1612 4.40176C17.9522 4.40176 19.4874 4.63436 20.7667 5.09956C22.0692 5.56477 23.3718 6.33235 24.6744 7.40232C24.8605 7.54188 25 7.69308 25.0931 7.8559C25.2094 7.99546 25.2792 8.14665 25.3024 8.30947C25.3489 8.44903 25.3722 8.62348 25.3722 8.83283C25.3722 9.27477 25.2094 9.64693 24.8837 9.94932C24.5813 10.2517 24.1976 10.4145 23.7324 10.4378C23.2904 10.461 22.8717 10.3098 22.4763 9.98421C21.6157 9.23988 20.7202 8.67 19.7897 8.27458C18.8826 7.87916 17.6731 7.68145 16.1612 7.68145C14.7888 7.68145 13.4979 7.96057 12.2883 8.51881C11.0788 9.07706 10.0088 9.84465 9.07842 10.8216C8.17127 11.7985 7.46183 12.9383 6.95011 14.2408C6.43838 15.5201 6.18252 16.8925 6.18252 18.3579C6.18252 19.8465 6.43838 21.2422 6.95011 22.5447C7.46183 23.824 8.17127 24.9522 9.07842 25.9291C10.0088 26.906 11.0788 27.6736 12.2883 28.2318C13.4979 28.7668 14.7888 29.0343 16.1612 29.0343C17.3474 29.0343 18.4639 28.8366 19.5106 28.4412C20.5806 28.0225 21.604 27.4526 22.581 26.7316C22.9997 26.4292 23.4067 26.3012 23.8021 26.3478C24.2208 26.371 24.5697 26.5338 24.8488 26.8362C25.128 27.1154 25.2675 27.5108 25.2675 28.0225C25.2675 28.2551 25.221 28.4877 25.128 28.7203C25.0582 28.9297 24.9186 29.1274 24.7093 29.3134C23.4765 30.3369 22.139 31.1045 20.6969 31.6162C19.2548 32.1047 17.7428 32.3489 16.1612 32.3489ZM25.2675 28.0225L21.7785 27.3247V21.0793H16.9636C16.4519 21.0793 16.0216 20.9281 15.6727 20.6258C15.3238 20.3234 15.1493 19.9396 15.1493 19.4744C15.1493 19.0092 15.3238 18.6254 15.6727 18.323C16.0216 18.0206 16.4519 17.8694 16.9636 17.8694H23.4881C24.0231 17.8694 24.4534 18.0439 24.7791 18.3928C25.1047 18.7184 25.2675 19.1487 25.2675 19.6837V28.0225ZM33.9162 32C32.8928 32 31.9856 31.7209 31.1948 31.1626C30.4039 30.6044 29.7875 29.8484 29.3456 28.8948C28.9036 27.9178 28.6827 26.8013 28.6827 25.5453V6.49518C28.6827 5.98345 28.8455 5.56477 29.1711 5.23912C29.4968 4.91348 29.9155 4.75066 30.4272 4.75066C30.9389 4.75066 31.3576 4.91348 31.6832 5.23912C32.0089 5.56477 32.1717 5.98345 32.1717 6.49518V25.5453C32.1717 26.4059 32.3345 27.1154 32.6602 27.6736C32.9858 28.2318 33.4045 28.511 33.9162 28.511H34.7885C35.2537 28.511 35.6258 28.6738 35.905 28.9994C36.2073 29.3251 36.3585 29.7438 36.3585 30.2555C36.3585 30.7672 36.1376 31.1859 35.6956 31.5115C35.2537 31.8372 34.6838 32 33.986 32H33.9162Z" fill="white"/>
<path fill-rule="evenodd" clip-rule="evenodd" d="M45.8548 5.90675C45.759 5.94212 45.6636 5.97856 45.5688 6.01604C45.1969 6.16305 44.8332 6.3262 44.4784 6.50462C44.1745 6.65746 43.8773 6.82151 43.5871 6.99622C40.5118 8.84816 38.2397 11.8984 37.4171 15.5006C37.3596 15.7524 37.3092 16.0069 37.2661 16.2638C37.1441 16.9912 37.0806 17.7384 37.0806 18.5004C37.0806 19.9618 37.3142 21.3686 37.746 22.6855C37.7586 22.7238 37.7713 22.7619 37.7842 22.8001C37.843 22.9742 37.9054 23.1467 37.9711 23.3176C38.0517 23.5271 38.1374 23.734 38.228 23.9382C39.1896 26.105 40.7082 27.9698 42.6021 29.3507C42.6383 29.3771 42.6747 29.4033 42.7111 29.4293C44.9072 30.9973 47.5958 31.9198 50.4999 31.9198C51.1509 31.9198 51.7911 31.8734 52.4174 31.7838C52.7574 31.7352 53.0933 31.6738 53.4247 31.6001C53.7923 31.5184 54.1543 31.4216 54.5099 31.3104C54.6074 31.2799 54.7044 31.2483 54.8009 31.2157C54.9163 31.1767 55.0311 31.1361 55.1451 31.094C55.3556 31.0164 55.5636 30.9336 55.769 30.8458C56.1436 30.6857 56.5094 30.5091 56.8655 30.3168C57.176 30.1492 57.4792 29.9697 57.7744 29.7789C60.5164 28.0067 62.571 25.2617 63.4497 22.0322C63.5195 21.7755 63.5819 21.5157 63.6367 21.2531C63.8219 20.3646 63.9193 19.4439 63.9193 18.5004C63.9193 17.2317 63.7432 16.0042 63.4142 14.8408C63.3531 14.6247 63.2867 14.4109 63.2152 14.1993C63.1566 14.0262 63.0946 13.8546 63.0293 13.6847C63.0145 13.6461 62.9995 13.6077 62.9843 13.5693C62.2147 11.6225 61.0029 9.89876 59.4728 8.52191C59.2799 8.34842 59.0821 8.18043 58.8794 8.0182C56.5832 6.18021 53.6699 5.08105 50.4999 5.08105C49.9868 5.08105 49.4804 5.10985 48.9823 5.16592C48.6235 5.2063 48.269 5.26084 47.9193 5.32896C47.5541 5.4001 47.1941 5.48606 46.8402 5.58617C46.6241 5.64727 46.4103 5.71365 46.1988 5.78515C46.0835 5.82417 45.9688 5.86471 45.8548 5.90675ZM46.0164 7.28221C45.6978 7.40964 45.3859 7.55029 45.0814 7.70347C44.9551 7.76696 44.8302 7.8326 44.7065 7.90034C44.2542 9.38571 43.901 11.235 43.8197 13.2685L47.6592 11.9299L46.0164 7.28221ZM48.9264 11.4881L47.2884 6.85429C47.5799 6.7741 47.8759 6.70457 48.1759 6.64614C48.342 6.61377 48.5094 6.5848 48.6781 6.55931C49.9887 7.40784 51.4543 8.60659 52.8171 10.1317L48.9264 11.4881ZM48.1065 13.1951L43.8087 14.6935C43.838 15.8732 43.9648 17.0977 44.2195 18.3355C44.3452 18.9466 44.5021 19.5614 44.694 20.1759L49.9083 18.2924L48.1065 13.1951ZM51.1705 17.8366L49.3736 12.7534L53.7357 11.2326C54.4223 12.1151 55.064 13.0868 55.6228 14.1442C55.9241 14.7142 56.2016 15.3096 56.4492 15.9298L51.1705 17.8366ZM50.3555 19.5577L45.1405 21.4414C45.7771 23.0541 46.6743 24.6476 47.9012 26.1534L52.1511 24.6375L50.3555 19.5577ZM53.4151 24.1866L51.6177 19.1018L56.8999 17.1938C57.423 18.8562 57.7269 20.6784 57.7118 22.654L53.4151 24.1866ZM52.5984 25.9027L48.8575 27.237C49.9245 28.3556 51.1952 29.4128 52.7009 30.378C52.8461 30.3513 52.9903 30.322 53.1335 30.2901C53.4479 30.2203 53.7577 30.1381 54.0623 30.0442L52.5984 25.9027ZM55.3207 29.5777L53.8623 25.4519L57.6444 24.1028C57.5158 25.6177 57.1996 27.2155 56.6556 28.8938C56.5149 28.9773 56.3724 29.0581 56.228 29.136C55.9327 29.2954 55.6301 29.4428 55.3207 29.5777ZM58.4132 27.6246C59.9579 26.2836 61.1582 24.5576 61.865 22.5974L59.024 23.6107C58.9534 24.8948 58.7569 26.2335 58.4132 27.6246ZM59.0515 22.1762L62.3162 21.0117C62.3185 21.0009 62.3207 20.9901 62.323 20.9792C62.4895 20.1803 62.5773 19.3513 62.5773 18.5004C62.5773 17.3901 62.4279 16.3166 62.1485 15.298L58.1629 16.7376C58.6936 18.4071 59.0178 20.223 59.0515 22.1762ZM57.7119 15.4738L61.7215 14.0254C61.0322 12.2986 59.9549 10.7667 58.5959 9.53818L55.0686 10.7679C55.6983 11.6124 56.2873 12.5296 56.8093 13.5172C57.1394 14.1419 57.4424 14.7943 57.7119 15.4738ZM54.1824 9.65573L57.3494 8.5516C55.4812 7.26259 53.2333 6.48709 50.806 6.42679C51.9309 7.29794 53.0953 8.37741 54.1824 9.65573ZM50.6277 30.5772C49.4239 29.6835 48.3814 28.7273 47.4826 27.7274L44.2952 28.8643C46.109 29.9525 48.2317 30.5778 50.4999 30.5778C50.5426 30.5778 50.5852 30.5776 50.6277 30.5772ZM42.9427 27.922L46.5657 26.6297C45.3898 25.1124 44.5128 23.5148 43.8781 21.8974L39.4937 23.4811C40.2824 25.221 41.4713 26.7404 42.9427 27.922ZM39.0088 22.2294L43.4309 20.6321C43.2175 19.956 43.0436 19.2791 42.9051 18.6059C42.6645 17.4364 42.5308 16.279 42.4818 15.1561L38.5847 16.5147C38.4781 17.1599 38.4225 17.8232 38.4225 18.5004C38.4225 19.8036 38.6284 21.0564 39.0088 22.2294ZM38.9472 14.9672L42.4636 13.7413C42.4938 12.0258 42.7106 10.4199 43.0272 9.01158C41.1176 10.5177 39.6742 12.5872 38.9472 14.9672Z" fill="white"/>
<path d="M76.9558 32.1396C75.1415 32.1396 73.5133 31.7209 72.0711 30.8835C70.629 30.0229 69.4892 28.8599 68.6519 27.3945C67.8145 25.9291 67.3842 24.2776 67.3609 22.4401V6.53007C67.3609 5.99508 67.5238 5.56477 67.8494 5.23912C68.1983 4.91348 68.6286 4.75066 69.1403 4.75066C69.6753 4.75066 70.1056 4.91348 70.4313 5.23912C70.7569 5.56477 70.9197 5.99508 70.9197 6.53007V15.9505C71.7339 14.9735 72.7108 14.2059 73.8505 13.6477C75.0135 13.0662 76.2812 12.7754 77.6536 12.7754C79.3516 12.7754 80.8751 13.2057 82.2242 14.0664C83.5733 14.9037 84.6316 16.0551 85.3992 17.5205C86.1901 18.9626 86.5855 20.6025 86.5855 22.4401C86.5855 24.2776 86.1552 25.9291 85.2946 27.3945C84.4572 28.8599 83.3174 30.0229 81.8753 30.8835C80.4332 31.7209 78.7933 32.1396 76.9558 32.1396ZM76.9558 28.9994C78.142 28.9994 79.2004 28.7203 80.1308 28.1621C81.0612 27.5806 81.7939 26.7897 82.3289 25.7895C82.8871 24.7893 83.1663 23.6728 83.1663 22.4401C83.1663 21.184 82.8871 20.0675 82.3289 19.0906C81.7939 18.1137 81.0612 17.3461 80.1308 16.7878C79.2004 16.2063 78.142 15.9156 76.9558 15.9156C75.7928 15.9156 74.7344 16.2063 73.7808 16.7878C72.8503 17.3461 72.1176 18.1137 71.5827 19.0906C71.0477 20.0675 70.7802 21.184 70.7802 22.4401C70.7802 23.6728 71.0477 24.7893 71.5827 25.7895C72.1176 26.7897 72.8503 27.5806 73.7808 28.1621C74.7344 28.7203 75.7928 28.9994 76.9558 28.9994ZM98.5062 32.1396C96.8083 32.1396 95.2847 31.7209 93.9356 30.8835C92.5865 30.0229 91.5166 28.8715 90.7257 27.4294C89.9581 25.964 89.5743 24.3125 89.5743 22.4749C89.5743 20.6374 89.993 18.9859 90.8304 17.5205C91.691 16.0551 92.8424 14.9037 94.2845 14.0664C95.7499 13.2057 97.3898 12.7754 99.2041 12.7754C101.018 12.7754 102.647 13.2057 104.089 14.0664C105.531 14.9037 106.671 16.0551 107.508 17.5205C108.369 18.9859 108.799 20.6374 108.799 22.4749H107.438C107.438 24.3125 107.043 25.964 106.252 27.4294C105.484 28.8715 104.426 30.0229 103.077 30.8835C101.728 31.7209 100.204 32.1396 98.5062 32.1396ZM99.2041 28.9994C100.39 28.9994 101.449 28.7203 102.379 28.1621C103.309 27.5806 104.042 26.8013 104.577 25.8244C105.112 24.8242 105.38 23.7077 105.38 22.4749C105.38 21.2189 105.112 20.1024 104.577 19.1255C104.042 18.1253 103.309 17.3461 102.379 16.7878C101.449 16.2063 100.39 15.9156 99.2041 15.9156C98.041 15.9156 96.9827 16.2063 96.029 16.7878C95.0986 17.3461 94.3543 18.1253 93.7961 19.1255C93.2611 20.1024 92.9936 21.2189 92.9936 22.4749C92.9936 23.7077 93.2611 24.8242 93.7961 25.8244C94.3543 26.8013 95.0986 27.5806 96.029 28.1621C96.9827 28.7203 98.041 28.9994 99.2041 28.9994ZM107.019 32.0349C106.508 32.0349 106.077 31.8721 105.729 31.5464C105.403 31.1975 105.24 30.7672 105.24 30.2555V24.9173L105.903 21.2189L108.799 22.4749V30.2555C108.799 30.7672 108.624 31.1975 108.276 31.5464C107.95 31.8721 107.531 32.0349 107.019 32.0349ZM117.289 32C116.266 32 115.359 31.7209 114.568 31.1626C113.777 30.6044 113.161 29.8484 112.719 28.8948C112.277 27.9178 112.056 26.8013 112.056 25.5453V6.49518C112.056 5.98345 112.218 5.56477 112.544 5.23912C112.87 4.91348 113.288 4.75066 113.8 4.75066C114.312 4.75066 114.731 4.91348 115.056 5.23912C115.382 5.56477 115.545 5.98345 115.545 6.49518V25.5453C115.545 26.4059 115.708 27.1154 116.033 27.6736C116.359 28.2318 116.777 28.511 117.289 28.511H118.161C118.627 28.511 118.999 28.6738 119.278 28.9994C119.58 29.3251 119.732 29.7438 119.732 30.2555C119.732 30.7672 119.511 31.1859 119.069 31.5115C118.627 31.8372 118.057 32 117.359 32H117.289ZM124 32C123.488 32 123.058 31.8255 122.709 31.4766C122.384 31.1277 122.221 30.6974 122.221 30.1857V6.56496C122.221 6.05323 122.395 5.62292 122.744 5.27401C123.093 4.92511 123.512 4.75066 124 4.75066C124.512 4.75066 124.942 4.92511 125.291 5.27401C125.64 5.62292 125.814 6.05323 125.814 6.56496V28.3714H138.445C138.956 28.3714 139.387 28.5459 139.736 28.8948C140.085 29.2437 140.259 29.674 140.259 30.1857C140.259 30.6974 140.085 31.1277 139.736 31.4766C139.387 31.8255 138.956 32 138.445 32H124ZM146.897 32C146.409 32 145.99 31.8255 145.641 31.4766C145.292 31.1277 145.118 30.6974 145.118 30.1857V22.0563L135.802 7.57677C135.5 7.08831 135.383 6.63474 135.453 6.21605C135.523 5.77411 135.721 5.42521 136.046 5.16934C136.395 4.89022 136.791 4.75066 137.233 4.75066C137.628 4.75066 137.942 4.8437 138.175 5.02978C138.407 5.1926 138.628 5.43684 138.837 5.76248L147.7 19.8233H146.304L155.306 5.62292C155.492 5.3438 155.713 5.13445 155.969 4.99489C156.225 4.83207 156.539 4.75066 156.911 4.75066C157.329 4.75066 157.678 4.90185 157.957 5.20423C158.237 5.48336 158.399 5.84389 158.446 6.28583C158.492 6.70452 158.376 7.13483 158.097 7.57677L148.711 22.0563V30.1857C148.711 30.6974 148.537 31.1277 148.188 31.4766C147.839 31.8255 147.409 32 146.897 32Z" fill="white"/>
<path d="M167.377 30.1981V11.6257C167.377 7.83936 170.388 4.75655 174.147 4.67871H193.257C193.85 4.67871 194.334 5.16373 194.334 5.7582V10.2177C194.334 10.6087 194.022 10.9372 193.617 10.9372H175.239C174.678 10.9372 174.226 11.3911 174.226 11.9548V14.0201C174.226 14.5672 174.662 15.0211 175.208 15.0364H191.885C192.446 15.0364 192.899 15.4902 192.899 16.0539V19.8558C192.899 20.4189 192.446 20.8727 191.885 20.8727H175.239C174.678 20.8727 174.226 21.3266 174.226 21.89V23.9238C174.226 24.4875 174.678 24.9414 175.239 24.9414H194.038C194.537 24.9414 194.724 25.1128 194.505 25.5508C193.648 27.35 193.055 28.6022 192.384 30.0102C191.869 31.0898 191.417 31.2464 190.949 31.2464H168.453C167.86 31.2776 167.377 30.793 167.377 30.1981Z" fill="white"/>
<path d="M197.626 30.1979V5.74258C197.626 5.1477 198.109 4.66309 198.702 4.66309H202.805C203.398 4.66309 203.881 5.1477 203.881 5.74258V24.0019C203.913 24.5496 204.349 24.972 204.895 24.972H222.539C223.039 24.972 223.226 25.144 223.007 25.582L220.886 30.0415C220.371 31.121 219.918 31.2775 219.451 31.2775H198.702C198.109 31.2775 197.626 30.7929 197.626 30.1979Z" fill="white"/>
<path d="M214.303 9.84174V1.11075C214.303 0.516282 214.787 0.03125 215.38 0.03125H219.639C220.231 0.03125 220.715 0.516282 220.715 1.11075V3.69285C220.746 4.22474 221.183 4.6627 221.729 4.6627H236.268C240.808 4.6627 242.852 9.65385 241.198 13.2058C240.714 14.2386 232.993 30.6985 232.993 30.6985C232.805 31.1056 232.524 31.2776 232.01 31.2776H226.799C225.458 31.2776 225.192 30.5891 225.645 29.6188C225.645 29.6188 233.726 12.4075 233.866 12.1102C234.209 11.3751 233.507 10.9371 232.821 10.9371H215.38C214.787 10.9212 214.303 10.4366 214.303 9.84174Z" fill="white"/>
<path d="M257.313 31.2776H238.811C237.469 31.2776 237.204 30.5893 237.657 29.6196C237.657 29.6196 239.326 26.0677 239.528 25.6292C239.731 25.2067 239.949 24.9875 240.636 24.9875H250.854C250.854 24.9875 246.689 6.50919 246.549 5.93062C246.393 5.27297 246.939 4.67871 247.609 4.67871H252.477C252.945 4.67871 253.491 4.99175 253.599 5.41422C253.678 5.77369 257.812 24.3304 257.89 24.6749C258.077 25.5193 258.358 25.5826 258.732 24.7218C258.842 24.4872 266.954 5.6335 267.11 5.27297C267.266 4.91328 267.594 4.67871 268.03 4.67871H273.6C274.333 4.67871 274.816 5.55483 274.458 6.38385C274.13 7.11956 266.221 24.8941 266.002 25.3947C263.803 30.2448 261.431 31.2776 257.313 31.2776Z" fill="white"/>
<path d="M295.252 30.1513C295.252 30.7776 294.753 31.2781 294.129 31.2781H289.885C289.262 31.2781 288.762 30.7776 288.762 30.1513V26.4434H276.719L275.237 29.6041C274.629 30.9022 274.145 31.2781 273.146 31.2781H269.589C268.248 31.2781 267.983 30.5738 268.435 29.6041L278.248 8.48099C279.356 6.10312 281.602 4.66309 283.786 4.66309H294.129C294.753 4.66309 295.252 5.1636 295.252 5.78988V30.1513ZM288.965 11.5322C288.965 10.9685 288.513 10.5149 287.951 10.5149H285.018C284.394 10.5149 284.082 10.7028 283.926 11.0472C283.832 11.2351 279.464 20.56 279.464 20.56H287.951C288.497 20.56 288.934 20.1375 288.965 19.6058V11.5322Z" fill="white"/>
<path d="M299.34 30.1979V5.74258C299.34 5.1477 299.823 4.66309 300.416 4.66309H304.519C305.112 4.66309 305.595 5.1477 305.595 5.74258V24.0019C305.627 24.5496 306.063 24.972 306.609 24.972H324.254C324.753 24.972 324.941 25.144 324.721 25.582L322.584 30.0415C322.07 31.121 321.617 31.2775 321.149 31.2775H300.401C299.823 31.2775 299.34 30.7929 299.34 30.1979Z" fill="white"/>
<path d="M316.048 9.84174V1.11075C316.048 0.516282 316.532 0.03125 317.125 0.03125H321.384C321.977 0.03125 322.46 0.516282 322.46 1.11075V3.69285C322.491 4.22474 322.928 4.6627 323.474 4.6627H337.998C342.537 4.6627 344.582 9.65385 342.928 13.2058C342.444 14.2386 334.722 30.6985 334.722 30.6985C334.535 31.1056 334.254 31.2776 333.739 31.2776H328.529C327.187 31.2776 326.922 30.5891 327.374 29.6188C327.374 29.6188 335.454 12.4075 335.596 12.1102C335.939 11.3751 335.236 10.9371 334.551 10.9371H317.125C316.532 10.9212 316.048 10.4366 316.048 9.84174Z" fill="white"/>
<path d="M373.411 9.0435C372.692 10.5769 365.813 25.4096 365.813 25.4096C365.813 25.4096 368.231 29.6811 368.418 30.0102C368.838 30.7453 368.762 31.2925 367.622 31.2925H362.724C361.96 31.2925 361.492 30.9957 361.196 30.4793C361.054 30.2134 353.846 17.524 353.846 17.524C353.846 17.524 349.682 26.4107 349.307 27.1935C348.777 28.3197 347.718 29.6965 346.345 30.4476C345.033 31.1677 343.831 31.2925 341.804 31.2925H341.57C340.104 31.2925 340.228 30.5262 340.478 29.9943C340.635 29.6657 349.745 10.2324 349.745 10.2324C349.745 10.2324 347.39 6.08665 347.233 5.8048C346.781 5.00674 347.233 4.66211 347.981 4.66211H352.662C353.612 4.66211 354.315 5.10047 354.736 5.85208C355.018 6.35261 361.679 18.0871 361.679 18.0871C361.679 18.0871 367.513 5.52294 367.654 5.22582C367.841 4.83452 368.2 4.66211 368.699 4.66211H372.709C374.081 4.66211 375.079 5.4449 373.411 9.0435Z" fill="white"/>
<path d="M374.3 24.9717H414.612C415.344 24.9717 415.657 25.5668 415.315 26.3017L413.614 29.9471C413.27 30.6833 412.396 31.2772 411.663 31.2772H371.367C370.634 31.2772 370.322 30.6833 370.666 29.9471L372.365 26.3017C372.709 25.5668 373.567 24.9717 374.3 24.9717Z" fill="white"/>
<path d="M383.799 4.66309H424.111C424.844 4.66309 425.156 5.25818 424.814 5.99304L423.113 9.63854C422.769 10.3744 421.895 10.9685 421.163 10.9685H380.852C380.118 10.9685 379.806 10.3744 380.149 9.63854L381.85 5.99304C382.192 5.25818 383.066 4.66309 383.799 4.66309Z" fill="white"/>
<path d="M398.823 13.0494L399.555 15.0052H402.333C402.926 15.0052 403.067 15.4749 402.488 16.116L400.726 18.1505L401.443 20.0587C401.616 20.4816 401.647 20.9507 400.633 20.9507H398.292L396.529 22.9845C396.093 23.4856 395.937 23.5016 395.703 22.8753L394.985 20.9507H392.146C391.553 20.9507 391.414 20.4816 391.989 19.8397L393.83 17.7588L393.129 15.8974C392.973 15.4749 392.926 15.0052 393.94 15.0052H396.218L398.011 12.9395C398.434 12.439 398.589 12.4235 398.823 13.0494Z" fill="white"/>
</svg>
