<svg width="254" height="198" viewBox="0 0 254 198" fill="none" xmlns="http://www.w3.org/2000/svg">
<g opacity="0.15">
<path d="M126.128 124.957C110.764 124.957 95.685 131.642 85.3895 143.035C84.279 144.125 83.8637 145.74 84.3111 147.23C84.7584 148.72 85.9946 149.839 87.5215 150.136C89.0485 150.434 90.6145 149.861 91.5886 148.648C100.242 139.064 113.218 133.318 126.128 133.318C139.028 133.318 152.013 139.064 160.658 148.648C161.632 149.861 163.198 150.434 164.725 150.136C166.252 149.839 167.488 148.72 167.936 147.23C168.383 145.74 167.968 144.125 166.857 143.035C156.579 131.642 141.5 124.957 126.128 124.957Z" fill="#366B6D"/>
<path fill-rule="evenodd" clip-rule="evenodd" d="M126.128 74.6946C93.4989 74.6946 61.5819 91.4908 43.1103 118.373C42.2162 119.605 42.061 121.225 42.7049 122.605C43.3487 123.984 44.6903 124.906 46.2088 125.011C47.7274 125.117 49.1839 124.391 50.0131 123.115C66.8511 98.6197 96.389 83.0717 126.128 83.0717C155.867 83.0717 185.413 98.6197 202.243 123.115C203.072 124.391 204.528 125.117 206.047 125.011C207.566 124.906 208.907 123.984 209.551 122.605C210.195 121.225 210.04 119.605 209.146 118.373C190.674 91.4824 158.757 74.6946 126.128 74.6946Z" fill="#366B6D"/>
<path fill-rule="evenodd" clip-rule="evenodd" d="M126.128 24.4315C78.3276 24.4315 31.2145 47.1587 1.47557 84.5628C0.455944 85.7256 0.160062 87.3557 0.705961 88.8027C1.25186 90.2497 2.5507 91.2782 4.08432 91.4778C5.61795 91.6774 7.13677 91.0157 8.03488 89.7566C36.1235 54.4385 80.9999 32.7919 126.153 32.7919C171.306 32.7919 216.182 54.4385 244.271 89.7566C245.16 91.0387 246.688 91.7201 248.237 91.5249C249.785 91.3296 251.096 90.29 251.639 88.8273C252.182 87.3645 251.867 85.7211 250.822 84.5628C221.058 47.1587 173.961 24.4315 126.144 24.4315H126.128Z" fill="#366B6D"/>
<path fill-rule="evenodd" clip-rule="evenodd" d="M134.505 175.22C134.505 179.847 130.754 183.597 126.128 183.597C121.501 183.597 117.751 179.847 117.751 175.22C117.751 170.594 121.501 166.843 126.128 166.843C130.754 166.843 134.505 170.594 134.505 175.22Z" fill="#366B6D"/>
</g>
</svg>
