<svg width="1017" height="967" viewBox="0 0 1017 967" fill="none" xmlns="http://www.w3.org/2000/svg">
<path d="M856.997 602.373C822.376 627.581 785.834 650.035 747.731 669.515C687.308 699.93 624.8 725.864 560.739 747.097C506.183 765.737 451.057 782.163 394.096 790.519C357.212 796.658 319.772 796.978 283.188 791.467C237.455 783.616 201.002 762.306 176.555 723.352C146.306 675.077 129.942 619.25 129.157 561.645C128.394 529.759 127.834 497.903 134.558 466.161C144.39 416.72 169.481 371.013 206.34 335.4C264.589 278.978 333.588 247.996 413.431 240.403C486.458 233.379 559.772 236.552 631.2 249.828C669.421 256.913 707.814 263.232 745.388 272.941C798.737 286.295 848.834 309.255 893.211 340.691C906.332 349.121 918.699 358.62 930.187 369.091C940.682 379.733 948.257 392.868 952.237 407.324C960.375 435.931 963.174 464.772 951.524 493.884C943.324 514.221 931.627 533.103 916.964 549.671C899.136 569.51 878.998 587.208 856.997 602.373Z" fill="url(#paint0_linear)" fill-opacity="0.6"/>
<path d="M253.981 464.409C251.158 464.409 248.606 463.926 246.325 462.959C244.082 461.992 242.304 460.6 240.989 458.783C239.674 456.966 238.998 454.82 238.959 452.345H247.659C247.775 454.008 248.355 455.322 249.399 456.289C250.482 457.256 251.951 457.739 253.807 457.739C255.702 457.739 257.19 457.294 258.273 456.405C259.356 455.477 259.897 454.278 259.897 452.809C259.897 451.61 259.53 450.624 258.795 449.851C258.06 449.078 257.132 448.478 256.011 448.053C254.928 447.589 253.42 447.086 251.487 446.545C248.858 445.772 246.712 445.018 245.049 444.283C243.425 443.51 242.014 442.369 240.815 440.861C239.655 439.314 239.075 437.265 239.075 434.713C239.075 432.316 239.674 430.228 240.873 428.449C242.072 426.67 243.754 425.317 245.919 424.389C248.084 423.422 250.559 422.939 253.343 422.939C257.519 422.939 260.902 423.964 263.493 426.013C266.122 428.024 267.572 430.846 267.843 434.481H258.911C258.834 433.089 258.234 431.948 257.113 431.059C256.03 430.131 254.58 429.667 252.763 429.667C251.178 429.667 249.902 430.073 248.935 430.885C248.007 431.697 247.543 432.876 247.543 434.423C247.543 435.506 247.891 436.414 248.587 437.149C249.322 437.845 250.211 438.425 251.255 438.889C252.338 439.314 253.846 439.817 255.779 440.397C258.408 441.17 260.554 441.944 262.217 442.717C263.88 443.49 265.31 444.65 266.509 446.197C267.708 447.744 268.307 449.774 268.307 452.287C268.307 454.452 267.746 456.463 266.625 458.319C265.504 460.175 263.86 461.664 261.695 462.785C259.53 463.868 256.958 464.409 253.981 464.409ZM292.653 431.407C296.481 431.407 299.574 432.625 301.933 435.061C304.291 437.458 305.471 440.822 305.471 445.153V464.003H297.351V446.255C297.351 443.703 296.713 441.75 295.437 440.397C294.161 439.005 292.421 438.309 290.217 438.309C287.974 438.309 286.195 439.005 284.881 440.397C283.605 441.75 282.967 443.703 282.967 446.255V464.003H274.847V431.871H282.967V435.873C284.049 434.481 285.422 433.398 287.085 432.625C288.786 431.813 290.642 431.407 292.653 431.407ZM310.604 447.821C310.604 444.573 311.242 441.692 312.518 439.179C313.833 436.666 315.592 434.732 317.796 433.379C320.039 432.026 322.533 431.349 325.278 431.349C327.676 431.349 329.764 431.832 331.542 432.799C333.36 433.766 334.81 434.984 335.892 436.453V431.871H344.07V464.003H335.892V459.305C334.848 460.813 333.398 462.07 331.542 463.075C329.725 464.042 327.618 464.525 325.22 464.525C322.514 464.525 320.039 463.829 317.796 462.437C315.592 461.045 313.833 459.092 312.518 456.579C311.242 454.027 310.604 451.108 310.604 447.821ZM335.892 447.937C335.892 445.965 335.506 444.283 334.732 442.891C333.959 441.46 332.915 440.378 331.6 439.643C330.286 438.87 328.874 438.483 327.366 438.483C325.858 438.483 324.466 438.85 323.19 439.585C321.914 440.32 320.87 441.402 320.058 442.833C319.285 444.225 318.898 445.888 318.898 447.821C318.898 449.754 319.285 451.456 320.058 452.925C320.87 454.356 321.914 455.458 323.19 456.231C324.505 457.004 325.897 457.391 327.366 457.391C328.874 457.391 330.286 457.024 331.6 456.289C332.915 455.516 333.959 454.433 334.732 453.041C335.506 451.61 335.892 449.909 335.892 447.937ZM359.621 436.511C360.665 435.042 362.096 433.824 363.913 432.857C365.769 431.852 367.876 431.349 370.235 431.349C372.98 431.349 375.455 432.026 377.659 433.379C379.902 434.732 381.661 436.666 382.937 439.179C384.252 441.654 384.909 444.534 384.909 447.821C384.909 451.108 384.252 454.027 382.937 456.579C381.661 459.092 379.902 461.045 377.659 462.437C375.455 463.829 372.98 464.525 370.235 464.525C367.876 464.525 365.788 464.042 363.971 463.075C362.192 462.108 360.742 460.89 359.621 459.421V479.315H351.501V431.871H359.621V436.511ZM376.615 447.821C376.615 445.888 376.209 444.225 375.397 442.833C374.624 441.402 373.58 440.32 372.265 439.585C370.989 438.85 369.597 438.483 368.089 438.483C366.62 438.483 365.228 438.87 363.913 439.643C362.637 440.378 361.593 441.46 360.781 442.891C360.008 444.322 359.621 446.004 359.621 447.937C359.621 449.87 360.008 451.552 360.781 452.983C361.593 454.414 362.637 455.516 363.913 456.289C365.228 457.024 366.62 457.391 368.089 457.391C369.597 457.391 370.989 457.004 372.265 456.231C373.58 455.458 374.624 454.356 375.397 452.925C376.209 451.494 376.615 449.793 376.615 447.821ZM407.748 428.043C406.317 428.043 405.119 427.598 404.152 426.709C403.224 425.781 402.76 424.64 402.76 423.287C402.76 421.934 403.224 420.812 404.152 419.923C405.119 418.995 406.317 418.531 407.748 418.531C409.179 418.531 410.358 418.995 411.286 419.923C412.253 420.812 412.736 421.934 412.736 423.287C412.736 424.64 412.253 425.781 411.286 426.709C410.358 427.598 409.179 428.043 407.748 428.043ZM411.75 431.871V464.003H403.63V431.871H411.75ZM428.727 438.541V454.085C428.727 455.168 428.978 455.96 429.481 456.463C430.022 456.927 430.911 457.159 432.149 457.159H435.919V464.003H430.815C423.971 464.003 420.549 460.678 420.549 454.027V438.541H416.721V431.871H420.549V423.925H428.727V431.871H435.919V438.541H428.727ZM450.133 455.477L443.347 471.775H438.127L441.897 455.477H450.133ZM482.784 464.409C479.961 464.409 477.409 463.926 475.128 462.959C472.885 461.992 471.106 460.6 469.792 458.783C468.477 456.966 467.8 454.82 467.762 452.345H476.462C476.578 454.008 477.158 455.322 478.202 456.289C479.284 457.256 480.754 457.739 482.61 457.739C484.504 457.739 485.993 457.294 487.076 456.405C488.158 455.477 488.7 454.278 488.7 452.809C488.7 451.61 488.332 450.624 487.598 449.851C486.863 449.078 485.935 448.478 484.814 448.053C483.731 447.589 482.223 447.086 480.29 446.545C477.66 445.772 475.514 445.018 473.852 444.283C472.228 443.51 470.816 442.369 469.618 440.861C468.458 439.314 467.878 437.265 467.878 434.713C467.878 432.316 468.477 430.228 469.676 428.449C470.874 426.67 472.556 425.317 474.722 424.389C476.887 423.422 479.362 422.939 482.146 422.939C486.322 422.939 489.705 423.964 492.296 426.013C494.925 428.024 496.375 430.846 496.646 434.481H487.714C487.636 433.089 487.037 431.948 485.916 431.059C484.833 430.131 483.383 429.667 481.566 429.667C479.98 429.667 478.704 430.073 477.738 430.885C476.81 431.697 476.346 432.876 476.346 434.423C476.346 435.506 476.694 436.414 477.39 437.149C478.124 437.845 479.014 438.425 480.058 438.889C481.14 439.314 482.648 439.817 484.582 440.397C487.211 441.17 489.357 441.944 491.02 442.717C492.682 443.49 494.113 444.65 495.312 446.197C496.51 447.744 497.11 449.774 497.11 452.287C497.11 454.452 496.549 456.463 495.428 458.319C494.306 460.175 492.663 461.664 490.498 462.785C488.332 463.868 485.761 464.409 482.784 464.409ZM521.745 431.407C524.181 431.407 526.347 431.948 528.241 433.031C530.136 434.075 531.605 435.641 532.649 437.729C533.732 439.778 534.273 442.253 534.273 445.153V464.003H526.153V446.255C526.153 443.703 525.515 441.75 524.239 440.397C522.963 439.005 521.223 438.309 519.019 438.309C516.777 438.309 514.998 439.005 513.683 440.397C512.407 441.75 511.769 443.703 511.769 446.255V464.003H503.649V421.083H511.769V435.873C512.813 434.481 514.205 433.398 515.945 432.625C517.685 431.813 519.619 431.407 521.745 431.407ZM555.763 464.525C552.67 464.525 549.886 463.848 547.411 462.495C544.936 461.103 542.984 459.15 541.553 456.637C540.161 454.124 539.465 451.224 539.465 447.937C539.465 444.65 540.18 441.75 541.611 439.237C543.08 436.724 545.072 434.79 547.585 433.437C550.098 432.045 552.902 431.349 555.995 431.349C559.088 431.349 561.892 432.045 564.405 433.437C566.918 434.79 568.89 436.724 570.321 439.237C571.79 441.75 572.525 444.65 572.525 447.937C572.525 451.224 571.771 454.124 570.263 456.637C568.794 459.15 566.783 461.103 564.231 462.495C561.718 463.848 558.895 464.525 555.763 464.525ZM555.763 457.449C557.232 457.449 558.605 457.101 559.881 456.405C561.196 455.67 562.24 454.588 563.013 453.157C563.786 451.726 564.173 449.986 564.173 447.937C564.173 444.882 563.361 442.543 561.737 440.919C560.152 439.256 558.199 438.425 555.879 438.425C553.559 438.425 551.606 439.256 550.021 440.919C548.474 442.543 547.701 444.882 547.701 447.937C547.701 450.992 548.455 453.35 549.963 455.013C551.51 456.637 553.443 457.449 555.763 457.449ZM586.101 436.511C587.145 435.042 588.576 433.824 590.393 432.857C592.249 431.852 594.357 431.349 596.715 431.349C599.461 431.349 601.935 432.026 604.139 433.379C606.382 434.732 608.141 436.666 609.417 439.179C610.732 441.654 611.389 444.534 611.389 447.821C611.389 451.108 610.732 454.027 609.417 456.579C608.141 459.092 606.382 461.045 604.139 462.437C601.935 463.829 599.461 464.525 596.715 464.525C594.357 464.525 592.269 464.042 590.451 463.075C588.673 462.108 587.223 460.89 586.101 459.421V479.315H577.981V431.871H586.101V436.511ZM603.095 447.821C603.095 445.888 602.689 444.225 601.877 442.833C601.104 441.402 600.06 440.32 598.745 439.585C597.469 438.85 596.077 438.483 594.569 438.483C593.1 438.483 591.708 438.87 590.393 439.643C589.117 440.378 588.073 441.46 587.261 442.891C586.488 444.322 586.101 446.004 586.101 447.937C586.101 449.87 586.488 451.552 587.261 452.983C588.073 454.414 589.117 455.516 590.393 456.289C591.708 457.024 593.1 457.391 594.569 457.391C596.077 457.391 597.469 457.004 598.745 456.231C600.06 455.458 601.104 454.356 601.877 452.925C602.689 451.494 603.095 449.793 603.095 447.821ZM634.228 428.043C632.798 428.043 631.599 427.598 630.632 426.709C629.704 425.781 629.24 424.64 629.24 423.287C629.24 421.934 629.704 420.812 630.632 419.923C631.599 418.995 632.798 418.531 634.228 418.531C635.659 418.531 636.838 418.995 637.766 419.923C638.733 420.812 639.216 421.934 639.216 423.287C639.216 424.64 638.733 425.781 637.766 426.709C636.838 427.598 635.659 428.043 634.228 428.043ZM638.23 431.871V464.003H630.11V431.871H638.23ZM655.207 438.541V454.085C655.207 455.168 655.458 455.96 655.961 456.463C656.502 456.927 657.392 457.159 658.629 457.159H662.399V464.003H657.295C650.451 464.003 647.029 460.678 647.029 454.027V438.541H643.201V431.871H647.029V423.925H655.207V431.871H662.399V438.541H655.207ZM671.335 464.409C669.866 464.409 668.648 463.964 667.681 463.075C666.753 462.147 666.289 461.006 666.289 459.653C666.289 458.3 666.753 457.178 667.681 456.289C668.648 455.361 669.866 454.897 671.335 454.897C672.766 454.897 673.945 455.361 674.873 456.289C675.801 457.178 676.265 458.3 676.265 459.653C676.265 461.006 675.801 462.147 674.873 463.075C673.945 463.964 672.766 464.409 671.335 464.409Z" fill="white"/>
<path d="M245.039 534.161C243.552 534.161 242.195 533.816 240.968 533.126C239.741 532.421 238.768 531.447 238.047 530.205C237.342 528.948 236.989 527.537 236.989 525.973C236.989 524.409 237.342 523.006 238.047 521.764C238.768 520.507 239.741 519.533 240.968 518.843C242.195 518.138 243.552 517.785 245.039 517.785C246.542 517.785 247.906 518.138 249.133 518.843C250.36 519.533 251.326 520.499 252.031 521.741C252.736 522.983 253.089 524.394 253.089 525.973C253.089 527.552 252.736 528.963 252.031 530.205C251.326 531.447 250.36 532.421 249.133 533.126C247.906 533.816 246.542 534.161 245.039 534.161ZM245.039 532.344C246.158 532.344 247.163 532.083 248.052 531.562C248.957 531.041 249.662 530.297 250.168 529.331C250.689 528.365 250.95 527.246 250.95 525.973C250.95 524.685 250.689 523.566 250.168 522.615C249.662 521.649 248.964 520.905 248.075 520.384C247.186 519.863 246.174 519.602 245.039 519.602C243.904 519.602 242.892 519.863 242.003 520.384C241.114 520.905 240.408 521.649 239.887 522.615C239.381 523.566 239.128 524.685 239.128 525.973C239.128 527.246 239.381 528.365 239.887 529.331C240.408 530.297 241.114 531.041 242.003 531.562C242.908 532.083 243.92 532.344 245.039 532.344ZM267.03 521.396V534H264.937V532.137C264.538 532.781 263.979 533.287 263.258 533.655C262.553 534.008 261.771 534.184 260.912 534.184C259.931 534.184 259.049 533.985 258.267 533.586C257.485 533.172 256.864 532.559 256.404 531.746C255.959 530.933 255.737 529.944 255.737 528.779V521.396H257.807V528.503C257.807 529.745 258.121 530.703 258.75 531.378C259.379 532.037 260.237 532.367 261.326 532.367C262.445 532.367 263.327 532.022 263.971 531.332C264.615 530.642 264.937 529.638 264.937 528.319V521.396H267.03ZM272.657 523.443C273.025 522.722 273.546 522.163 274.221 521.764C274.911 521.365 275.747 521.166 276.728 521.166V523.328H276.176C273.83 523.328 272.657 524.601 272.657 527.146V534H270.564V521.396H272.657V523.443ZM295.994 522.661C295.994 523.995 295.534 525.107 294.614 525.996C293.709 526.87 292.322 527.307 290.451 527.307H287.369V534H285.276V517.969H290.451C292.26 517.969 293.633 518.406 294.568 519.28C295.519 520.154 295.994 521.281 295.994 522.661ZM290.451 525.582C291.616 525.582 292.475 525.329 293.027 524.823C293.579 524.317 293.855 523.596 293.855 522.661C293.855 520.683 292.72 519.694 290.451 519.694H287.369V525.582H290.451ZM300.688 523.443C301.056 522.722 301.578 522.163 302.252 521.764C302.942 521.365 303.778 521.166 304.759 521.166V523.328H304.207C301.861 523.328 300.688 524.601 300.688 527.146V534H298.595V521.396H300.688V523.443ZM312.672 534.207C311.492 534.207 310.418 533.939 309.452 533.402C308.502 532.865 307.75 532.106 307.198 531.125C306.662 530.128 306.393 528.978 306.393 527.675C306.393 526.387 306.669 525.252 307.221 524.271C307.789 523.274 308.555 522.515 309.521 521.994C310.487 521.457 311.568 521.189 312.764 521.189C313.96 521.189 315.041 521.457 316.007 521.994C316.973 522.515 317.732 523.267 318.284 524.248C318.852 525.229 319.135 526.372 319.135 527.675C319.135 528.978 318.844 530.128 318.261 531.125C317.694 532.106 316.92 532.865 315.938 533.402C314.957 533.939 313.868 534.207 312.672 534.207ZM312.672 532.367C313.424 532.367 314.129 532.191 314.788 531.838C315.448 531.485 315.977 530.956 316.375 530.251C316.789 529.546 316.996 528.687 316.996 527.675C316.996 526.663 316.797 525.804 316.398 525.099C316 524.394 315.478 523.872 314.834 523.535C314.19 523.182 313.493 523.006 312.741 523.006C311.975 523.006 311.269 523.182 310.625 523.535C309.997 523.872 309.491 524.394 309.107 525.099C308.724 525.804 308.532 526.663 308.532 527.675C308.532 528.702 308.716 529.569 309.084 530.274C309.468 530.979 309.974 531.508 310.602 531.861C311.231 532.198 311.921 532.367 312.672 532.367ZM321.105 527.652C321.105 526.364 321.366 525.237 321.887 524.271C322.409 523.29 323.122 522.531 324.026 521.994C324.946 521.457 325.974 521.189 327.108 521.189C328.09 521.189 329.002 521.419 329.845 521.879C330.689 522.324 331.333 522.914 331.777 523.65V516.98H333.893V534H331.777V531.631C331.363 532.382 330.75 533.003 329.937 533.494C329.125 533.969 328.174 534.207 327.085 534.207C325.966 534.207 324.946 533.931 324.026 533.379C323.122 532.827 322.409 532.053 321.887 531.056C321.366 530.059 321.105 528.925 321.105 527.652ZM331.777 527.675C331.777 526.724 331.586 525.896 331.202 525.191C330.819 524.486 330.298 523.949 329.638 523.581C328.994 523.198 328.281 523.006 327.499 523.006C326.717 523.006 326.004 523.19 325.36 523.558C324.716 523.926 324.203 524.463 323.819 525.168C323.436 525.873 323.244 526.701 323.244 527.652C323.244 528.618 323.436 529.461 323.819 530.182C324.203 530.887 324.716 531.432 325.36 531.815C326.004 532.183 326.717 532.367 327.499 532.367C328.281 532.367 328.994 532.183 329.638 531.815C330.298 531.432 330.819 530.887 331.202 530.182C331.586 529.461 331.777 528.626 331.777 527.675ZM348.608 521.396V534H346.515V532.137C346.117 532.781 345.557 533.287 344.836 533.655C344.131 534.008 343.349 534.184 342.49 534.184C341.509 534.184 340.627 533.985 339.845 533.586C339.063 533.172 338.442 532.559 337.982 531.746C337.538 530.933 337.315 529.944 337.315 528.779V521.396H339.385V528.503C339.385 529.745 339.7 530.703 340.328 531.378C340.957 532.037 341.816 532.367 342.904 532.367C344.024 532.367 344.905 532.022 345.549 531.332C346.193 530.642 346.515 529.638 346.515 528.319V521.396H348.608ZM351.36 527.675C351.36 526.372 351.621 525.237 352.142 524.271C352.663 523.29 353.384 522.531 354.304 521.994C355.239 521.457 356.305 521.189 357.501 521.189C359.05 521.189 360.322 521.565 361.319 522.316C362.331 523.067 362.998 524.11 363.32 525.444H361.066C360.851 524.677 360.43 524.072 359.801 523.627C359.188 523.182 358.421 522.96 357.501 522.96C356.305 522.96 355.339 523.374 354.603 524.202C353.867 525.015 353.499 526.172 353.499 527.675C353.499 529.193 353.867 530.366 354.603 531.194C355.339 532.022 356.305 532.436 357.501 532.436C358.421 532.436 359.188 532.221 359.801 531.792C360.414 531.363 360.836 530.749 361.066 529.952H363.32C362.983 531.24 362.308 532.275 361.296 533.057C360.284 533.824 359.019 534.207 357.501 534.207C356.305 534.207 355.239 533.939 354.304 533.402C353.384 532.865 352.663 532.106 352.142 531.125C351.621 530.144 351.36 528.994 351.36 527.675ZM368.666 523.121V530.55C368.666 531.163 368.796 531.6 369.057 531.861C369.317 532.106 369.77 532.229 370.414 532.229H371.955V534H370.069C368.903 534 368.029 533.732 367.447 533.195C366.864 532.658 366.573 531.777 366.573 530.55V523.121H364.94V521.396H366.573V518.222H368.666V521.396H371.955V523.121H368.666ZM382.716 517.969V534H380.623V517.969H382.716ZM385.501 527.652C385.501 526.364 385.761 525.237 386.283 524.271C386.804 523.29 387.517 522.531 388.422 521.994C389.342 521.457 390.369 521.189 391.504 521.189C392.485 521.189 393.397 521.419 394.241 521.879C395.084 522.324 395.728 522.914 396.173 523.65V516.98H398.289V534H396.173V531.631C395.759 532.382 395.145 533.003 394.333 533.494C393.52 533.969 392.569 534.207 391.481 534.207C390.361 534.207 389.342 533.931 388.422 533.379C387.517 532.827 386.804 532.053 386.283 531.056C385.761 530.059 385.501 528.925 385.501 527.652ZM396.173 527.675C396.173 526.724 395.981 525.896 395.598 525.191C395.214 524.486 394.693 523.949 394.034 523.581C393.39 523.198 392.677 523.006 391.895 523.006C391.113 523.006 390.4 523.19 389.756 523.558C389.112 523.926 388.598 524.463 388.215 525.168C387.831 525.873 387.64 526.701 387.64 527.652C387.64 528.618 387.831 529.461 388.215 530.182C388.598 530.887 389.112 531.432 389.756 531.815C390.4 532.183 391.113 532.367 391.895 532.367C392.677 532.367 393.39 532.183 394.034 531.815C394.693 531.432 395.214 530.887 395.598 530.182C395.981 529.461 396.173 528.626 396.173 527.675ZM413.326 527.215C413.326 527.614 413.303 528.035 413.257 528.48H403.183C403.259 529.722 403.681 530.696 404.448 531.401C405.23 532.091 406.173 532.436 407.277 532.436C408.181 532.436 408.933 532.229 409.531 531.815C410.144 531.386 410.573 530.818 410.819 530.113H413.073C412.735 531.324 412.061 532.313 411.049 533.08C410.037 533.831 408.779 534.207 407.277 534.207C406.081 534.207 405.007 533.939 404.057 533.402C403.121 532.865 402.385 532.106 401.849 531.125C401.312 530.128 401.044 528.978 401.044 527.675C401.044 526.372 401.304 525.229 401.826 524.248C402.347 523.267 403.075 522.515 404.011 521.994C404.961 521.457 406.05 521.189 407.277 521.189C408.473 521.189 409.531 521.45 410.451 521.971C411.371 522.492 412.076 523.213 412.567 524.133C413.073 525.038 413.326 526.065 413.326 527.215ZM411.164 526.778C411.164 525.981 410.987 525.298 410.635 524.731C410.282 524.148 409.799 523.711 409.186 523.42C408.588 523.113 407.921 522.96 407.185 522.96C406.127 522.96 405.222 523.297 404.471 523.972C403.735 524.647 403.313 525.582 403.206 526.778H411.164ZM422.229 521.166C423.763 521.166 425.005 521.634 425.955 522.569C426.906 523.489 427.381 524.823 427.381 526.571V534H425.311V526.87C425.311 525.613 424.997 524.654 424.368 523.995C423.74 523.32 422.881 522.983 421.792 522.983C420.688 522.983 419.807 523.328 419.147 524.018C418.503 524.708 418.181 525.712 418.181 527.031V534H416.088V521.396H418.181V523.19C418.595 522.546 419.155 522.048 419.86 521.695C420.581 521.342 421.371 521.166 422.229 521.166ZM433.353 523.121V530.55C433.353 531.163 433.484 531.6 433.744 531.861C434.005 532.106 434.457 532.229 435.101 532.229H436.642V534H434.756C433.591 534 432.717 533.732 432.134 533.195C431.552 532.658 431.26 531.777 431.26 530.55V523.121H429.627V521.396H431.26V518.222H433.353V521.396H436.642V523.121H433.353ZM440.259 519.349C439.861 519.349 439.523 519.211 439.247 518.935C438.971 518.659 438.833 518.322 438.833 517.923C438.833 517.524 438.971 517.187 439.247 516.911C439.523 516.635 439.861 516.497 440.259 516.497C440.643 516.497 440.965 516.635 441.225 516.911C441.501 517.187 441.639 517.524 441.639 517.923C441.639 518.322 441.501 518.659 441.225 518.935C440.965 519.211 440.643 519.349 440.259 519.349ZM441.271 521.396V534H439.178V521.396H441.271ZM449.967 523.121H447.322V534H445.229V523.121H443.596V521.396H445.229V520.499C445.229 519.088 445.59 518.061 446.31 517.417C447.046 516.758 448.219 516.428 449.829 516.428V518.176C448.909 518.176 448.258 518.36 447.874 518.728C447.506 519.081 447.322 519.671 447.322 520.499V521.396H449.967V523.121ZM453.489 519.349C453.09 519.349 452.753 519.211 452.477 518.935C452.201 518.659 452.063 518.322 452.063 517.923C452.063 517.524 452.201 517.187 452.477 516.911C452.753 516.635 453.09 516.497 453.489 516.497C453.872 516.497 454.194 516.635 454.455 516.911C454.731 517.187 454.869 517.524 454.869 517.923C454.869 518.322 454.731 518.659 454.455 518.935C454.194 519.211 453.872 519.349 453.489 519.349ZM454.501 521.396V534H452.408V521.396H454.501ZM469.568 527.215C469.568 527.614 469.545 528.035 469.499 528.48H459.425C459.502 529.722 459.923 530.696 460.69 531.401C461.472 532.091 462.415 532.436 463.519 532.436C464.424 532.436 465.175 532.229 465.773 531.815C466.386 531.386 466.816 530.818 467.061 530.113H469.315C468.978 531.324 468.303 532.313 467.291 533.08C466.279 533.831 465.022 534.207 463.519 534.207C462.323 534.207 461.25 533.939 460.299 533.402C459.364 532.865 458.628 532.106 458.091 531.125C457.554 530.128 457.286 528.978 457.286 527.675C457.286 526.372 457.547 525.229 458.068 524.248C458.589 523.267 459.318 522.515 460.253 521.994C461.204 521.457 462.292 521.189 463.519 521.189C464.715 521.189 465.773 521.45 466.693 521.971C467.613 522.492 468.318 523.213 468.809 524.133C469.315 525.038 469.568 526.065 469.568 527.215ZM467.406 526.778C467.406 525.981 467.23 525.298 466.877 524.731C466.524 524.148 466.041 523.711 465.428 523.42C464.83 523.113 464.163 522.96 463.427 522.96C462.369 522.96 461.464 523.297 460.713 523.972C459.977 524.647 459.555 525.582 459.448 526.778H467.406ZM474.424 523.443C474.792 522.722 475.313 522.163 475.988 521.764C476.678 521.365 477.513 521.166 478.495 521.166V523.328H477.943C475.597 523.328 474.424 524.601 474.424 527.146V534H472.331V521.396H474.424V523.443ZM503.832 521.396L499.899 534H497.737L494.701 523.995L491.665 534H489.503L485.547 521.396H487.686L490.584 531.976L493.712 521.396H495.851L498.91 531.999L501.762 521.396H503.832ZM506.991 519.349C506.592 519.349 506.255 519.211 505.979 518.935C505.703 518.659 505.565 518.322 505.565 517.923C505.565 517.524 505.703 517.187 505.979 516.911C506.255 516.635 506.592 516.497 506.991 516.497C507.374 516.497 507.696 516.635 507.957 516.911C508.233 517.187 508.371 517.524 508.371 517.923C508.371 518.322 508.233 518.659 507.957 518.935C507.696 519.211 507.374 519.349 506.991 519.349ZM508.003 521.396V534H505.91V521.396H508.003ZM513.663 516.98V534H511.57V516.98H513.663ZM519.323 516.98V534H517.23V516.98H519.323ZM534.151 523.121H531.506V534H529.413V523.121H527.78V521.396H529.413V520.499C529.413 519.088 529.773 518.061 530.494 517.417C531.23 516.758 532.403 516.428 534.013 516.428V518.176C533.093 518.176 532.441 518.36 532.058 518.728C531.69 519.081 531.506 519.671 531.506 520.499V521.396H534.151V523.121ZM537.672 519.349C537.274 519.349 536.936 519.211 536.66 518.935C536.384 518.659 536.246 518.322 536.246 517.923C536.246 517.524 536.384 517.187 536.66 516.911C536.936 516.635 537.274 516.497 537.672 516.497C538.056 516.497 538.378 516.635 538.638 516.911C538.914 517.187 539.052 517.524 539.052 517.923C539.052 518.322 538.914 518.659 538.638 518.935C538.378 519.211 538.056 519.349 537.672 519.349ZM538.684 521.396V534H536.591V521.396H538.684ZM548.392 521.166C549.926 521.166 551.168 521.634 552.118 522.569C553.069 523.489 553.544 524.823 553.544 526.571V534H551.474V526.87C551.474 525.613 551.16 524.654 550.531 523.995C549.903 523.32 549.044 522.983 547.955 522.983C546.851 522.983 545.97 523.328 545.31 524.018C544.666 524.708 544.344 525.712 544.344 527.031V534H542.251V521.396H544.344V523.19C544.758 522.546 545.318 522.048 546.023 521.695C546.744 521.342 547.534 521.166 548.392 521.166ZM556.181 527.652C556.181 526.364 556.442 525.237 556.963 524.271C557.485 523.29 558.198 522.531 559.102 521.994C560.022 521.457 561.05 521.189 562.184 521.189C563.166 521.189 564.078 521.419 564.921 521.879C565.765 522.324 566.409 522.914 566.853 523.65V516.98H568.969V534H566.853V531.631C566.439 532.382 565.826 533.003 565.013 533.494C564.201 533.969 563.25 534.207 562.161 534.207C561.042 534.207 560.022 533.931 559.102 533.379C558.198 532.827 557.485 532.053 556.963 531.056C556.442 530.059 556.181 528.925 556.181 527.652ZM566.853 527.675C566.853 526.724 566.662 525.896 566.278 525.191C565.895 524.486 565.374 523.949 564.714 523.581C564.07 523.198 563.357 523.006 562.575 523.006C561.793 523.006 561.08 523.19 560.436 523.558C559.792 523.926 559.279 524.463 558.895 525.168C558.512 525.873 558.32 526.701 558.32 527.652C558.32 528.618 558.512 529.461 558.895 530.182C559.279 530.887 559.792 531.432 560.436 531.815C561.08 532.183 561.793 532.367 562.575 532.367C563.357 532.367 564.07 532.183 564.714 531.815C565.374 531.432 565.895 530.887 566.278 530.182C566.662 529.461 566.853 528.626 566.853 527.675ZM581.191 523.121V530.55C581.191 531.163 581.322 531.6 581.582 531.861C581.843 532.106 582.295 532.229 582.939 532.229H584.48V534H582.594C581.429 534 580.555 533.732 579.972 533.195C579.39 532.658 579.098 531.777 579.098 530.55V523.121H577.465V521.396H579.098V518.222H581.191V521.396H584.48V523.121H581.191ZM593.272 521.166C594.223 521.166 595.081 521.373 595.848 521.787C596.615 522.186 597.213 522.791 597.642 523.604C598.087 524.417 598.309 525.406 598.309 526.571V534H596.239V526.87C596.239 525.613 595.925 524.654 595.296 523.995C594.667 523.32 593.809 522.983 592.72 522.983C591.616 522.983 590.734 523.328 590.075 524.018C589.431 524.708 589.109 525.712 589.109 527.031V534H587.016V516.98H589.109V523.19C589.523 522.546 590.09 522.048 590.811 521.695C591.547 521.342 592.367 521.166 593.272 521.166ZM613.228 527.215C613.228 527.614 613.205 528.035 613.159 528.48H603.085C603.162 529.722 603.583 530.696 604.35 531.401C605.132 532.091 606.075 532.436 607.179 532.436C608.084 532.436 608.835 532.229 609.433 531.815C610.046 531.386 610.476 530.818 610.721 530.113H612.975C612.638 531.324 611.963 532.313 610.951 533.08C609.939 533.831 608.682 534.207 607.179 534.207C605.983 534.207 604.91 533.939 603.959 533.402C603.024 532.865 602.288 532.106 601.751 531.125C601.214 530.128 600.946 528.978 600.946 527.675C600.946 526.372 601.207 525.229 601.728 524.248C602.249 523.267 602.978 522.515 603.913 521.994C604.864 521.457 605.952 521.189 607.179 521.189C608.375 521.189 609.433 521.45 610.353 521.971C611.273 522.492 611.978 523.213 612.469 524.133C612.975 525.038 613.228 526.065 613.228 527.215ZM611.066 526.778C611.066 525.981 610.89 525.298 610.537 524.731C610.184 524.148 609.701 523.711 609.088 523.42C608.49 523.113 607.823 522.96 607.087 522.96C606.029 522.96 605.124 523.297 604.373 523.972C603.637 524.647 603.215 525.582 603.108 526.778H611.066ZM624.216 523.742C624.645 522.991 625.274 522.377 626.102 521.902C626.93 521.427 627.873 521.189 628.931 521.189C630.065 521.189 631.085 521.457 631.99 521.994C632.894 522.531 633.607 523.29 634.129 524.271C634.65 525.237 634.911 526.364 634.911 527.652C634.911 528.925 634.65 530.059 634.129 531.056C633.607 532.053 632.887 532.827 631.967 533.379C631.062 533.931 630.05 534.207 628.931 534.207C627.842 534.207 626.884 533.969 626.056 533.494C625.243 533.019 624.63 532.413 624.216 531.677V534H622.123V516.98H624.216V523.742ZM632.772 527.652C632.772 526.701 632.58 525.873 632.197 525.168C631.813 524.463 631.292 523.926 630.633 523.558C629.989 523.19 629.276 523.006 628.494 523.006C627.727 523.006 627.014 523.198 626.355 523.581C625.711 523.949 625.189 524.493 624.791 525.214C624.407 525.919 624.216 526.74 624.216 527.675C624.216 528.626 624.407 529.461 624.791 530.182C625.189 530.887 625.711 531.432 626.355 531.815C627.014 532.183 627.727 532.367 628.494 532.367C629.276 532.367 629.989 532.183 630.633 531.815C631.292 531.432 631.813 530.887 632.197 530.182C632.58 529.461 632.772 528.618 632.772 527.652ZM649.166 527.215C649.166 527.614 649.143 528.035 649.097 528.48H639.023C639.099 529.722 639.521 530.696 640.288 531.401C641.07 532.091 642.013 532.436 643.117 532.436C644.021 532.436 644.773 532.229 645.371 531.815C645.984 531.386 646.413 530.818 646.659 530.113H648.913C648.575 531.324 647.901 532.313 646.889 533.08C645.877 533.831 644.619 534.207 643.117 534.207C641.921 534.207 640.847 533.939 639.897 533.402C638.961 532.865 638.225 532.106 637.689 531.125C637.152 530.128 636.884 528.978 636.884 527.675C636.884 526.372 637.144 525.229 637.666 524.248C638.187 523.267 638.915 522.515 639.851 521.994C640.801 521.457 641.89 521.189 643.117 521.189C644.313 521.189 645.371 521.45 646.291 521.971C647.211 522.492 647.916 523.213 648.407 524.133C648.913 525.038 649.166 526.065 649.166 527.215ZM647.004 526.778C647.004 525.981 646.827 525.298 646.475 524.731C646.122 524.148 645.639 523.711 645.026 523.42C644.428 523.113 643.761 522.96 643.025 522.96C641.967 522.96 641.062 523.297 640.311 523.972C639.575 524.647 639.153 525.582 639.046 526.778H647.004ZM656.39 534.207C655.424 534.207 654.558 534.046 653.791 533.724C653.025 533.387 652.419 532.927 651.974 532.344C651.53 531.746 651.284 531.064 651.238 530.297H653.4C653.462 530.926 653.753 531.439 654.274 531.838C654.811 532.237 655.509 532.436 656.367 532.436C657.165 532.436 657.793 532.26 658.253 531.907C658.713 531.554 658.943 531.11 658.943 530.573C658.943 530.021 658.698 529.615 658.207 529.354C657.717 529.078 656.958 528.81 655.93 528.549C654.995 528.304 654.228 528.058 653.63 527.813C653.048 527.552 652.542 527.177 652.112 526.686C651.698 526.18 651.491 525.521 651.491 524.708C651.491 524.064 651.683 523.474 652.066 522.937C652.45 522.4 652.994 521.979 653.699 521.672C654.405 521.35 655.21 521.189 656.114 521.189C657.51 521.189 658.637 521.542 659.495 522.247C660.354 522.952 660.814 523.918 660.875 525.145H658.782C658.736 524.486 658.468 523.957 657.977 523.558C657.502 523.159 656.858 522.96 656.045 522.96C655.294 522.96 654.696 523.121 654.251 523.443C653.807 523.765 653.584 524.187 653.584 524.708C653.584 525.122 653.715 525.467 653.975 525.743C654.251 526.004 654.589 526.218 654.987 526.387C655.401 526.54 655.969 526.717 656.689 526.916C657.594 527.161 658.33 527.407 658.897 527.652C659.465 527.882 659.948 528.235 660.346 528.71C660.76 529.185 660.975 529.806 660.99 530.573C660.99 531.263 660.799 531.884 660.415 532.436C660.032 532.988 659.488 533.425 658.782 533.747C658.092 534.054 657.295 534.207 656.39 534.207ZM666.498 523.121V530.55C666.498 531.163 666.628 531.6 666.889 531.861C667.149 532.106 667.602 532.229 668.246 532.229H669.787V534H667.901C666.735 534 665.861 533.732 665.279 533.195C664.696 532.658 664.405 531.777 664.405 530.55V523.121H662.772V521.396H664.405V518.222H666.498V521.396H669.787V523.121H666.498ZM683.584 523.121H680.939V534H678.846V523.121H677.213V521.396H678.846V520.499C678.846 519.088 679.206 518.061 679.927 517.417C680.663 516.758 681.836 516.428 683.446 516.428V518.176C682.526 518.176 681.874 518.36 681.491 518.728C681.123 519.081 680.939 519.671 680.939 520.499V521.396H683.584V523.121ZM687.105 519.349C686.706 519.349 686.369 519.211 686.093 518.935C685.817 518.659 685.679 518.322 685.679 517.923C685.679 517.524 685.817 517.187 686.093 516.911C686.369 516.635 686.706 516.497 687.105 516.497C687.488 516.497 687.81 516.635 688.071 516.911C688.347 517.187 688.485 517.524 688.485 517.923C688.485 518.322 688.347 518.659 688.071 518.935C687.81 519.211 687.488 519.349 687.105 519.349ZM688.117 521.396V534H686.024V521.396H688.117ZM694.237 523.121V530.55C694.237 531.163 694.367 531.6 694.628 531.861C694.889 532.106 695.341 532.229 695.985 532.229H697.526V534H695.64C694.475 534 693.601 533.732 693.018 533.195C692.435 532.658 692.144 531.777 692.144 530.55V523.121H690.511V521.396H692.144V518.222H694.237V521.396H697.526V523.121H694.237ZM239.864 560.719C240.278 559.998 240.891 559.4 241.704 558.925C242.532 558.434 243.49 558.189 244.579 558.189C245.698 558.189 246.71 558.457 247.615 558.994C248.535 559.531 249.256 560.29 249.777 561.271C250.298 562.237 250.559 563.364 250.559 564.652C250.559 565.925 250.298 567.059 249.777 568.056C249.256 569.053 248.535 569.827 247.615 570.379C246.71 570.931 245.698 571.207 244.579 571.207C243.506 571.207 242.555 570.969 241.727 570.494C240.914 570.003 240.293 569.398 239.864 568.677V576.98H237.771V558.396H239.864V560.719ZM248.42 564.652C248.42 563.701 248.228 562.873 247.845 562.168C247.462 561.463 246.94 560.926 246.281 560.558C245.637 560.19 244.924 560.006 244.142 560.006C243.375 560.006 242.662 560.198 242.003 560.581C241.359 560.949 240.838 561.493 240.439 562.214C240.056 562.919 239.864 563.74 239.864 564.675C239.864 565.626 240.056 566.461 240.439 567.182C240.838 567.887 241.359 568.432 242.003 568.815C242.662 569.183 243.375 569.367 244.142 569.367C244.924 569.367 245.637 569.183 246.281 568.815C246.94 568.432 247.462 567.887 247.845 567.182C248.228 566.461 248.42 565.618 248.42 564.652ZM255.407 560.443C255.775 559.722 256.296 559.163 256.971 558.764C257.661 558.365 258.497 558.166 259.478 558.166V560.328H258.926C256.58 560.328 255.407 561.601 255.407 564.146V571H253.314V558.396H255.407V560.443ZM267.391 571.207C266.21 571.207 265.137 570.939 264.171 570.402C263.22 569.865 262.469 569.106 261.917 568.125C261.38 567.128 261.112 565.978 261.112 564.675C261.112 563.387 261.388 562.252 261.94 561.271C262.507 560.274 263.274 559.515 264.24 558.994C265.206 558.457 266.287 558.189 267.483 558.189C268.679 558.189 269.76 558.457 270.726 558.994C271.692 559.515 272.451 560.267 273.003 561.248C273.57 562.229 273.854 563.372 273.854 564.675C273.854 565.978 273.563 567.128 272.98 568.125C272.413 569.106 271.638 569.865 270.657 570.402C269.676 570.939 268.587 571.207 267.391 571.207ZM267.391 569.367C268.142 569.367 268.848 569.191 269.507 568.838C270.166 568.485 270.695 567.956 271.094 567.251C271.508 566.546 271.715 565.687 271.715 564.675C271.715 563.663 271.516 562.804 271.117 562.099C270.718 561.394 270.197 560.872 269.553 560.535C268.909 560.182 268.211 560.006 267.46 560.006C266.693 560.006 265.988 560.182 265.344 560.535C264.715 560.872 264.209 561.394 263.826 562.099C263.443 562.804 263.251 563.663 263.251 564.675C263.251 565.702 263.435 566.569 263.803 567.274C264.186 567.979 264.692 568.508 265.321 568.861C265.95 569.198 266.64 569.367 267.391 569.367ZM275.824 564.652C275.824 563.364 276.085 562.237 276.606 561.271C277.127 560.29 277.84 559.531 278.745 558.994C279.665 558.457 280.692 558.189 281.827 558.189C282.808 558.189 283.721 558.419 284.564 558.879C285.407 559.324 286.051 559.914 286.496 560.65V553.98H288.612V571H286.496V568.631C286.082 569.382 285.469 570.003 284.656 570.494C283.843 570.969 282.893 571.207 281.804 571.207C280.685 571.207 279.665 570.931 278.745 570.379C277.84 569.827 277.127 569.053 276.606 568.056C276.085 567.059 275.824 565.925 275.824 564.652ZM286.496 564.675C286.496 563.724 286.304 562.896 285.921 562.191C285.538 561.486 285.016 560.949 284.357 560.581C283.713 560.198 283 560.006 282.218 560.006C281.436 560.006 280.723 560.19 280.079 560.558C279.435 560.926 278.921 561.463 278.538 562.168C278.155 562.873 277.963 563.701 277.963 564.652C277.963 565.618 278.155 566.461 278.538 567.182C278.921 567.887 279.435 568.432 280.079 568.815C280.723 569.183 281.436 569.367 282.218 569.367C283 569.367 283.713 569.183 284.357 568.815C285.016 568.432 285.538 567.887 285.921 567.182C286.304 566.461 286.496 565.626 286.496 564.675ZM303.327 558.396V571H301.234V569.137C300.835 569.781 300.276 570.287 299.555 570.655C298.85 571.008 298.068 571.184 297.209 571.184C296.228 571.184 295.346 570.985 294.564 570.586C293.782 570.172 293.161 569.559 292.701 568.746C292.256 567.933 292.034 566.944 292.034 565.779V558.396H294.104V565.503C294.104 566.745 294.418 567.703 295.047 568.378C295.676 569.037 296.534 569.367 297.623 569.367C298.742 569.367 299.624 569.022 300.268 568.332C300.912 567.642 301.234 566.638 301.234 565.319V558.396H303.327ZM306.079 564.675C306.079 563.372 306.34 562.237 306.861 561.271C307.382 560.29 308.103 559.531 309.023 558.994C309.958 558.457 311.024 558.189 312.22 558.189C313.769 558.189 315.041 558.565 316.038 559.316C317.05 560.067 317.717 561.11 318.039 562.444H315.785C315.57 561.677 315.149 561.072 314.52 560.627C313.907 560.182 313.14 559.96 312.22 559.96C311.024 559.96 310.058 560.374 309.322 561.202C308.586 562.015 308.218 563.172 308.218 564.675C308.218 566.193 308.586 567.366 309.322 568.194C310.058 569.022 311.024 569.436 312.22 569.436C313.14 569.436 313.907 569.221 314.52 568.792C315.133 568.363 315.555 567.749 315.785 566.952H318.039C317.702 568.24 317.027 569.275 316.015 570.057C315.003 570.824 313.738 571.207 312.22 571.207C311.024 571.207 309.958 570.939 309.023 570.402C308.103 569.865 307.382 569.106 306.861 568.125C306.34 567.144 306.079 565.994 306.079 564.675ZM323.385 560.121V567.55C323.385 568.163 323.515 568.6 323.776 568.861C324.036 569.106 324.489 569.229 325.133 569.229H326.674V571H324.788C323.622 571 322.748 570.732 322.166 570.195C321.583 569.658 321.292 568.777 321.292 567.55V560.121H319.659V558.396H321.292V555.222H323.385V558.396H326.674V560.121H323.385ZM340.838 571.207C339.658 571.207 338.584 570.939 337.618 570.402C336.668 569.865 335.916 569.106 335.364 568.125C334.828 567.128 334.559 565.978 334.559 564.675C334.559 563.387 334.835 562.252 335.387 561.271C335.955 560.274 336.721 559.515 337.687 558.994C338.653 558.457 339.734 558.189 340.93 558.189C342.126 558.189 343.207 558.457 344.173 558.994C345.139 559.515 345.898 560.267 346.45 561.248C347.018 562.229 347.301 563.372 347.301 564.675C347.301 565.978 347.01 567.128 346.427 568.125C345.86 569.106 345.086 569.865 344.104 570.402C343.123 570.939 342.034 571.207 340.838 571.207ZM340.838 569.367C341.59 569.367 342.295 569.191 342.954 568.838C343.614 568.485 344.143 567.956 344.541 567.251C344.955 566.546 345.162 565.687 345.162 564.675C345.162 563.663 344.963 562.804 344.564 562.099C344.166 561.394 343.644 560.872 343 560.535C342.356 560.182 341.659 560.006 340.907 560.006C340.141 560.006 339.435 560.182 338.791 560.535C338.163 560.872 337.657 561.394 337.273 562.099C336.89 562.804 336.698 563.663 336.698 564.675C336.698 565.702 336.882 566.569 337.25 567.274C337.634 567.979 338.14 568.508 338.768 568.861C339.397 569.198 340.087 569.367 340.838 569.367ZM361.231 558.396V571H359.138V569.137C358.74 569.781 358.18 570.287 357.459 570.655C356.754 571.008 355.972 571.184 355.113 571.184C354.132 571.184 353.25 570.985 352.468 570.586C351.686 570.172 351.065 569.559 350.605 568.746C350.161 567.933 349.938 566.944 349.938 565.779V558.396H352.008V565.503C352.008 566.745 352.323 567.703 352.951 568.378C353.58 569.037 354.439 569.367 355.527 569.367C356.647 569.367 357.528 569.022 358.172 568.332C358.816 567.642 359.138 566.638 359.138 565.319V558.396H361.231ZM367.318 560.121V567.55C367.318 568.163 367.448 568.6 367.709 568.861C367.97 569.106 368.422 569.229 369.066 569.229H370.607V571H368.721C367.556 571 366.682 570.732 366.099 570.195C365.516 569.658 365.225 568.777 365.225 567.55V560.121H363.592V558.396H365.225V555.222H367.318V558.396H370.607V560.121H367.318ZM384.772 571.207C383.591 571.207 382.518 570.939 381.552 570.402C380.601 569.865 379.85 569.106 379.298 568.125C378.761 567.128 378.493 565.978 378.493 564.675C378.493 563.387 378.769 562.252 379.321 561.271C379.888 560.274 380.655 559.515 381.621 558.994C382.587 558.457 383.668 558.189 384.864 558.189C386.06 558.189 387.141 558.457 388.107 558.994C389.073 559.515 389.832 560.267 390.384 561.248C390.951 562.229 391.235 563.372 391.235 564.675C391.235 565.978 390.944 567.128 390.361 568.125C389.794 569.106 389.019 569.865 388.038 570.402C387.057 570.939 385.968 571.207 384.772 571.207ZM384.772 569.367C385.523 569.367 386.229 569.191 386.888 568.838C387.547 568.485 388.076 567.956 388.475 567.251C388.889 566.546 389.096 565.687 389.096 564.675C389.096 563.663 388.897 562.804 388.498 562.099C388.099 561.394 387.578 560.872 386.934 560.535C386.29 560.182 385.592 560.006 384.841 560.006C384.074 560.006 383.369 560.182 382.725 560.535C382.096 560.872 381.59 561.394 381.207 562.099C380.824 562.804 380.632 563.663 380.632 564.675C380.632 565.702 380.816 566.569 381.184 567.274C381.567 567.979 382.073 568.508 382.702 568.861C383.331 569.198 384.021 569.367 384.772 569.367ZM399.116 560.121H396.471V571H394.378V560.121H392.745V558.396H394.378V557.499C394.378 556.088 394.738 555.061 395.459 554.417C396.195 553.758 397.368 553.428 398.978 553.428V555.176C398.058 555.176 397.406 555.36 397.023 555.728C396.655 556.081 396.471 556.671 396.471 557.499V558.396H399.116V560.121ZM406.906 564.652C406.906 563.364 407.167 562.237 407.688 561.271C408.209 560.29 408.922 559.531 409.827 558.994C410.747 558.457 411.767 558.189 412.886 558.189C413.99 558.189 414.948 558.427 415.761 558.902C416.574 559.377 417.179 559.975 417.578 560.696V558.396H419.694V571H417.578V568.654C417.164 569.39 416.543 570.003 415.715 570.494C414.902 570.969 413.952 571.207 412.863 571.207C411.744 571.207 410.732 570.931 409.827 570.379C408.922 569.827 408.209 569.053 407.688 568.056C407.167 567.059 406.906 565.925 406.906 564.652ZM417.578 564.675C417.578 563.724 417.386 562.896 417.003 562.191C416.62 561.486 416.098 560.949 415.439 560.581C414.795 560.198 414.082 560.006 413.3 560.006C412.518 560.006 411.805 560.19 411.161 560.558C410.517 560.926 410.003 561.463 409.62 562.168C409.237 562.873 409.045 563.701 409.045 564.652C409.045 565.618 409.237 566.461 409.62 567.182C410.003 567.887 410.517 568.432 411.161 568.815C411.805 569.183 412.518 569.367 413.3 569.367C414.082 569.367 414.795 569.183 415.439 568.815C416.098 568.432 416.62 567.887 417.003 567.182C417.386 566.461 417.578 565.626 417.578 564.675ZM429.372 558.166C430.905 558.166 432.147 558.634 433.098 559.569C434.049 560.489 434.524 561.823 434.524 563.571V571H432.454V563.87C432.454 562.613 432.14 561.654 431.511 560.995C430.882 560.32 430.024 559.983 428.935 559.983C427.831 559.983 426.949 560.328 426.29 561.018C425.646 561.708 425.324 562.712 425.324 564.031V571H423.231V558.396H425.324V560.19C425.738 559.546 426.298 559.048 427.003 558.695C427.724 558.342 428.513 558.166 429.372 558.166ZM448.799 558.396L441.209 576.934H439.047L441.531 570.862L436.448 558.396H438.771L442.727 568.608L446.637 558.396H448.799ZM468.213 558.396V571H466.12V569.137C465.721 569.781 465.161 570.287 464.441 570.655C463.735 571.008 462.953 571.184 462.095 571.184C461.113 571.184 460.232 570.985 459.45 570.586C458.668 570.172 458.047 569.559 457.587 568.746C457.142 567.933 456.92 566.944 456.92 565.779V558.396H458.99V565.503C458.99 566.745 459.304 567.703 459.933 568.378C460.561 569.037 461.42 569.367 462.509 569.367C463.628 569.367 464.51 569.022 465.154 568.332C465.798 567.642 466.12 566.638 466.12 565.319V558.396H468.213ZM473.84 560.719C474.254 559.998 474.867 559.4 475.68 558.925C476.508 558.434 477.466 558.189 478.555 558.189C479.674 558.189 480.686 558.457 481.591 558.994C482.511 559.531 483.231 560.29 483.753 561.271C484.274 562.237 484.535 563.364 484.535 564.652C484.535 565.925 484.274 567.059 483.753 568.056C483.231 569.053 482.511 569.827 481.591 570.379C480.686 570.931 479.674 571.207 478.555 571.207C477.481 571.207 476.531 570.969 475.703 570.494C474.89 570.003 474.269 569.398 473.84 568.677V576.98H471.747V558.396H473.84V560.719ZM482.396 564.652C482.396 563.701 482.204 562.873 481.821 562.168C481.437 561.463 480.916 560.926 480.257 560.558C479.613 560.19 478.9 560.006 478.118 560.006C477.351 560.006 476.638 560.198 475.979 560.581C475.335 560.949 474.813 561.493 474.415 562.214C474.031 562.919 473.84 563.74 473.84 564.675C473.84 565.626 474.031 566.461 474.415 567.182C474.813 567.887 475.335 568.432 475.979 568.815C476.638 569.183 477.351 569.367 478.118 569.367C478.9 569.367 479.613 569.183 480.257 568.815C480.916 568.432 481.437 567.887 481.821 567.182C482.204 566.461 482.396 565.618 482.396 564.652ZM489.383 553.98V571H487.29V553.98H489.383ZM498.447 571.207C497.266 571.207 496.193 570.939 495.227 570.402C494.276 569.865 493.525 569.106 492.973 568.125C492.436 567.128 492.168 565.978 492.168 564.675C492.168 563.387 492.444 562.252 492.996 561.271C493.563 560.274 494.33 559.515 495.296 558.994C496.262 558.457 497.343 558.189 498.539 558.189C499.735 558.189 500.816 558.457 501.782 558.994C502.748 559.515 503.507 560.267 504.059 561.248C504.626 562.229 504.91 563.372 504.91 564.675C504.91 565.978 504.618 567.128 504.036 568.125C503.468 569.106 502.694 569.865 501.713 570.402C500.731 570.939 499.643 571.207 498.447 571.207ZM498.447 569.367C499.198 569.367 499.903 569.191 500.563 568.838C501.222 568.485 501.751 567.956 502.15 567.251C502.564 566.546 502.771 565.687 502.771 564.675C502.771 563.663 502.571 562.804 502.173 562.099C501.774 561.394 501.253 560.872 500.609 560.535C499.965 560.182 499.267 560.006 498.516 560.006C497.749 560.006 497.044 560.182 496.4 560.535C495.771 560.872 495.265 561.394 494.882 562.099C494.498 562.804 494.307 563.663 494.307 564.675C494.307 565.702 494.491 566.569 494.859 567.274C495.242 567.979 495.748 568.508 496.377 568.861C497.005 569.198 497.695 569.367 498.447 569.367ZM506.88 564.652C506.88 563.364 507.14 562.237 507.662 561.271C508.183 560.29 508.896 559.531 509.801 558.994C510.721 558.457 511.74 558.189 512.86 558.189C513.964 558.189 514.922 558.427 515.735 558.902C516.547 559.377 517.153 559.975 517.552 560.696V558.396H519.668V571H517.552V568.654C517.138 569.39 516.517 570.003 515.689 570.494C514.876 570.969 513.925 571.207 512.837 571.207C511.717 571.207 510.705 570.931 509.801 570.379C508.896 569.827 508.183 569.053 507.662 568.056C507.14 567.059 506.88 565.925 506.88 564.652ZM517.552 564.675C517.552 563.724 517.36 562.896 516.977 562.191C516.593 561.486 516.072 560.949 515.413 560.581C514.769 560.198 514.056 560.006 513.274 560.006C512.492 560.006 511.779 560.19 511.135 560.558C510.491 560.926 509.977 561.463 509.594 562.168C509.21 562.873 509.019 563.701 509.019 564.652C509.019 565.618 509.21 566.461 509.594 567.182C509.977 567.887 510.491 568.432 511.135 568.815C511.779 569.183 512.492 569.367 513.274 569.367C514.056 569.367 514.769 569.183 515.413 568.815C516.072 568.432 516.593 567.887 516.977 567.182C517.36 566.461 517.552 565.626 517.552 564.675ZM522.423 564.652C522.423 563.364 522.683 562.237 523.205 561.271C523.726 560.29 524.439 559.531 525.344 558.994C526.264 558.457 527.291 558.189 528.426 558.189C529.407 558.189 530.319 558.419 531.163 558.879C532.006 559.324 532.65 559.914 533.095 560.65V553.98H535.211V571H533.095V568.631C532.681 569.382 532.067 570.003 531.255 570.494C530.442 570.969 529.491 571.207 528.403 571.207C527.283 571.207 526.264 570.931 525.344 570.379C524.439 569.827 523.726 569.053 523.205 568.056C522.683 567.059 522.423 565.925 522.423 564.652ZM533.095 564.675C533.095 563.724 532.903 562.896 532.52 562.191C532.136 561.486 531.615 560.949 530.956 560.581C530.312 560.198 529.599 560.006 528.817 560.006C528.035 560.006 527.322 560.19 526.678 560.558C526.034 560.926 525.52 561.463 525.137 562.168C524.753 562.873 524.562 563.701 524.562 564.652C524.562 565.618 524.753 566.461 525.137 567.182C525.52 567.887 526.034 568.432 526.678 568.815C527.322 569.183 528.035 569.367 528.817 569.367C529.599 569.367 530.312 569.183 530.956 568.815C531.615 568.432 532.136 567.887 532.52 567.182C532.903 566.461 533.095 565.626 533.095 564.675ZM550.248 564.215C550.248 564.614 550.225 565.035 550.179 565.48H540.105C540.181 566.722 540.603 567.696 541.37 568.401C542.152 569.091 543.095 569.436 544.199 569.436C545.103 569.436 545.855 569.229 546.453 568.815C547.066 568.386 547.495 567.818 547.741 567.113H549.995C549.657 568.324 548.983 569.313 547.971 570.08C546.959 570.831 545.701 571.207 544.199 571.207C543.003 571.207 541.929 570.939 540.979 570.402C540.043 569.865 539.307 569.106 538.771 568.125C538.234 567.128 537.966 565.978 537.966 564.675C537.966 563.372 538.226 562.229 538.748 561.248C539.269 560.267 539.997 559.515 540.933 558.994C541.883 558.457 542.972 558.189 544.199 558.189C545.395 558.189 546.453 558.45 547.373 558.971C548.293 559.492 548.998 560.213 549.489 561.133C549.995 562.038 550.248 563.065 550.248 564.215ZM548.086 563.778C548.086 562.981 547.909 562.298 547.557 561.731C547.204 561.148 546.721 560.711 546.108 560.42C545.51 560.113 544.843 559.96 544.107 559.96C543.049 559.96 542.144 560.297 541.393 560.972C540.657 561.647 540.235 562.582 540.128 563.778H548.086ZM552.228 564.652C552.228 563.364 552.489 562.237 553.01 561.271C553.532 560.29 554.245 559.531 555.149 558.994C556.069 558.457 557.097 558.189 558.231 558.189C559.213 558.189 560.125 558.419 560.968 558.879C561.812 559.324 562.456 559.914 562.9 560.65V553.98H565.016V571H562.9V568.631C562.486 569.382 561.873 570.003 561.06 570.494C560.248 570.969 559.297 571.207 558.208 571.207C557.089 571.207 556.069 570.931 555.149 570.379C554.245 569.827 553.532 569.053 553.01 568.056C552.489 567.059 552.228 565.925 552.228 564.652ZM562.9 564.675C562.9 563.724 562.709 562.896 562.325 562.191C561.942 561.486 561.421 560.949 560.761 560.581C560.117 560.198 559.404 560.006 558.622 560.006C557.84 560.006 557.127 560.19 556.483 560.558C555.839 560.926 555.326 561.463 554.942 562.168C554.559 562.873 554.367 563.701 554.367 564.652C554.367 565.618 554.559 566.461 554.942 567.182C555.326 567.887 555.839 568.432 556.483 568.815C557.127 569.183 557.84 569.367 558.622 569.367C559.404 569.367 560.117 569.183 560.761 568.815C561.421 568.432 561.942 567.887 562.325 567.182C562.709 566.461 562.9 565.626 562.9 564.675ZM576.778 560.719C577.192 559.998 577.805 559.4 578.618 558.925C579.446 558.434 580.404 558.189 581.493 558.189C582.612 558.189 583.624 558.457 584.529 558.994C585.449 559.531 586.17 560.29 586.691 561.271C587.212 562.237 587.473 563.364 587.473 564.652C587.473 565.925 587.212 567.059 586.691 568.056C586.17 569.053 585.449 569.827 584.529 570.379C583.624 570.931 582.612 571.207 581.493 571.207C580.42 571.207 579.469 570.969 578.641 570.494C577.828 570.003 577.207 569.398 576.778 568.677V576.98H574.685V558.396H576.778V560.719ZM585.334 564.652C585.334 563.701 585.142 562.873 584.759 562.168C584.376 561.463 583.854 560.926 583.195 560.558C582.551 560.19 581.838 560.006 581.056 560.006C580.289 560.006 579.576 560.198 578.917 560.581C578.273 560.949 577.752 561.493 577.353 562.214C576.97 562.919 576.778 563.74 576.778 564.675C576.778 565.626 576.97 566.461 577.353 567.182C577.752 567.887 578.273 568.432 578.917 568.815C579.576 569.183 580.289 569.367 581.056 569.367C581.838 569.367 582.551 569.183 583.195 568.815C583.854 568.432 584.376 567.887 584.759 567.182C585.142 566.461 585.334 565.618 585.334 564.652ZM596.484 558.166C597.435 558.166 598.293 558.373 599.06 558.787C599.827 559.186 600.425 559.791 600.854 560.604C601.299 561.417 601.521 562.406 601.521 563.571V571H599.451V563.87C599.451 562.613 599.137 561.654 598.508 560.995C597.879 560.32 597.021 559.983 595.932 559.983C594.828 559.983 593.946 560.328 593.287 561.018C592.643 561.708 592.321 562.712 592.321 564.031V571H590.228V553.98H592.321V560.19C592.735 559.546 593.302 559.048 594.023 558.695C594.759 558.342 595.579 558.166 596.484 558.166ZM610.437 571.207C609.256 571.207 608.183 570.939 607.217 570.402C606.266 569.865 605.515 569.106 604.963 568.125C604.426 567.128 604.158 565.978 604.158 564.675C604.158 563.387 604.434 562.252 604.986 561.271C605.553 560.274 606.32 559.515 607.286 558.994C608.252 558.457 609.333 558.189 610.529 558.189C611.725 558.189 612.806 558.457 613.772 558.994C614.738 559.515 615.497 560.267 616.049 561.248C616.616 562.229 616.9 563.372 616.9 564.675C616.9 565.978 616.609 567.128 616.026 568.125C615.459 569.106 614.684 569.865 613.703 570.402C612.722 570.939 611.633 571.207 610.437 571.207ZM610.437 569.367C611.188 569.367 611.894 569.191 612.553 568.838C613.212 568.485 613.741 567.956 614.14 567.251C614.554 566.546 614.761 565.687 614.761 564.675C614.761 563.663 614.562 562.804 614.163 562.099C613.764 561.394 613.243 560.872 612.599 560.535C611.955 560.182 611.257 560.006 610.506 560.006C609.739 560.006 609.034 560.182 608.39 560.535C607.761 560.872 607.255 561.394 606.872 562.099C606.489 562.804 606.297 563.663 606.297 564.675C606.297 565.702 606.481 566.569 606.849 567.274C607.232 567.979 607.738 568.508 608.367 568.861C608.996 569.198 609.686 569.367 610.437 569.367ZM622.205 560.121V567.55C622.205 568.163 622.335 568.6 622.596 568.861C622.857 569.106 623.309 569.229 623.953 569.229H625.494V571H623.608C622.443 571 621.569 570.732 620.986 570.195C620.403 569.658 620.112 568.777 620.112 567.55V560.121H618.479V558.396H620.112V555.222H622.205V558.396H625.494V560.121H622.205ZM633.527 571.207C632.346 571.207 631.273 570.939 630.307 570.402C629.356 569.865 628.605 569.106 628.053 568.125C627.516 567.128 627.248 565.978 627.248 564.675C627.248 563.387 627.524 562.252 628.076 561.271C628.643 560.274 629.41 559.515 630.376 558.994C631.342 558.457 632.423 558.189 633.619 558.189C634.815 558.189 635.896 558.457 636.862 558.994C637.828 559.515 638.587 560.267 639.139 561.248C639.706 562.229 639.99 563.372 639.99 564.675C639.99 565.978 639.698 567.128 639.116 568.125C638.548 569.106 637.774 569.865 636.793 570.402C635.811 570.939 634.723 571.207 633.527 571.207ZM633.527 569.367C634.278 569.367 634.983 569.191 635.643 568.838C636.302 568.485 636.831 567.956 637.23 567.251C637.644 566.546 637.851 565.687 637.851 564.675C637.851 563.663 637.651 562.804 637.253 562.099C636.854 561.394 636.333 560.872 635.689 560.535C635.045 560.182 634.347 560.006 633.596 560.006C632.829 560.006 632.124 560.182 631.48 560.535C630.851 560.872 630.345 561.394 629.962 562.099C629.578 562.804 629.387 563.663 629.387 564.675C629.387 565.702 629.571 566.569 629.939 567.274C630.322 567.979 630.828 568.508 631.457 568.861C632.085 569.198 632.775 569.367 633.527 569.367ZM644.904 568.102L642.328 574.289H640.925L642.604 568.102H644.904ZM670.223 558.396L666.29 571H664.128L661.092 560.995L658.056 571H655.894L651.938 558.396H654.077L656.975 568.976L660.103 558.396H662.242L665.301 568.999L668.153 558.396H670.223ZM673.381 556.349C672.983 556.349 672.645 556.211 672.369 555.935C672.093 555.659 671.955 555.322 671.955 554.923C671.955 554.524 672.093 554.187 672.369 553.911C672.645 553.635 672.983 553.497 673.381 553.497C673.765 553.497 674.087 553.635 674.347 553.911C674.623 554.187 674.761 554.524 674.761 554.923C674.761 555.322 674.623 555.659 674.347 555.935C674.087 556.211 673.765 556.349 673.381 556.349ZM674.393 558.396V571H672.3V558.396H674.393ZM680.513 560.121V567.55C680.513 568.163 680.644 568.6 680.904 568.861C681.165 569.106 681.617 569.229 682.261 569.229H683.802V571H681.916C680.751 571 679.877 570.732 679.294 570.195C678.712 569.658 678.42 568.777 678.42 567.55V560.121H676.787V558.396H678.42V555.222H680.513V558.396H683.802V560.121H680.513ZM692.594 558.166C693.545 558.166 694.404 558.373 695.17 558.787C695.937 559.186 696.535 559.791 696.964 560.604C697.409 561.417 697.631 562.406 697.631 563.571V571H695.561V563.87C695.561 562.613 695.247 561.654 694.618 560.995C693.99 560.32 693.131 559.983 692.042 559.983C690.938 559.983 690.057 560.328 689.397 561.018C688.753 561.708 688.431 562.712 688.431 564.031V571H686.338V553.98H688.431V560.19C688.845 559.546 689.413 559.048 690.133 558.695C690.869 558.342 691.69 558.166 692.594 558.166ZM702.131 556.349C701.733 556.349 701.395 556.211 701.119 555.935C700.843 555.659 700.705 555.322 700.705 554.923C700.705 554.524 700.843 554.187 701.119 553.911C701.395 553.635 701.733 553.497 702.131 553.497C702.515 553.497 702.837 553.635 703.097 553.911C703.373 554.187 703.511 554.524 703.511 554.923C703.511 555.322 703.373 555.659 703.097 555.935C702.837 556.211 702.515 556.349 702.131 556.349ZM703.143 558.396V571H701.05V558.396H703.143ZM712.851 558.166C714.385 558.166 715.627 558.634 716.577 559.569C717.528 560.489 718.003 561.823 718.003 563.571V571H715.933V563.87C715.933 562.613 715.619 561.654 714.99 560.995C714.362 560.32 713.503 559.983 712.414 559.983C711.31 559.983 710.429 560.328 709.769 561.018C709.125 561.708 708.803 562.712 708.803 564.031V571H706.71V558.396H708.803V560.19C709.217 559.546 709.777 559.048 710.482 558.695C711.203 558.342 711.993 558.166 712.851 558.166ZM248.627 595.396L241.037 613.934H238.875L241.359 607.862L236.276 595.396H238.599L242.555 605.608L246.465 595.396H248.627ZM256.228 608.207C255.047 608.207 253.974 607.939 253.008 607.402C252.057 606.865 251.306 606.106 250.754 605.125C250.217 604.128 249.949 602.978 249.949 601.675C249.949 600.387 250.225 599.252 250.777 598.271C251.344 597.274 252.111 596.515 253.077 595.994C254.043 595.457 255.124 595.189 256.32 595.189C257.516 595.189 258.597 595.457 259.563 595.994C260.529 596.515 261.288 597.267 261.84 598.248C262.407 599.229 262.691 600.372 262.691 601.675C262.691 602.978 262.4 604.128 261.817 605.125C261.25 606.106 260.475 606.865 259.494 607.402C258.513 607.939 257.424 608.207 256.228 608.207ZM256.228 606.367C256.979 606.367 257.685 606.191 258.344 605.838C259.003 605.485 259.532 604.956 259.931 604.251C260.345 603.546 260.552 602.687 260.552 601.675C260.552 600.663 260.353 599.804 259.954 599.099C259.555 598.394 259.034 597.872 258.39 597.535C257.746 597.182 257.048 597.006 256.297 597.006C255.53 597.006 254.825 597.182 254.181 597.535C253.552 597.872 253.046 598.394 252.663 599.099C252.28 599.804 252.088 600.663 252.088 601.675C252.088 602.702 252.272 603.569 252.64 604.274C253.023 604.979 253.529 605.508 254.158 605.861C254.787 606.198 255.477 606.367 256.228 606.367ZM276.621 595.396V608H274.528V606.137C274.129 606.781 273.57 607.287 272.849 607.655C272.144 608.008 271.362 608.184 270.503 608.184C269.522 608.184 268.64 607.985 267.858 607.586C267.076 607.172 266.455 606.559 265.995 605.746C265.55 604.933 265.328 603.944 265.328 602.779V595.396H267.398V602.503C267.398 603.745 267.712 604.703 268.341 605.378C268.97 606.037 269.828 606.367 270.917 606.367C272.036 606.367 272.918 606.022 273.562 605.332C274.206 604.642 274.528 603.638 274.528 602.319V595.396H276.621ZM282.248 597.443C282.616 596.722 283.137 596.163 283.812 595.764C284.502 595.365 285.337 595.166 286.319 595.166V597.328H285.767C283.421 597.328 282.248 598.601 282.248 601.146V608H280.155V595.396H282.248V597.443ZM299.996 597.121H297.351V608H295.258V597.121H293.625V595.396H295.258V594.499C295.258 593.088 295.618 592.061 296.339 591.417C297.075 590.758 298.248 590.428 299.858 590.428V592.176C298.938 592.176 298.286 592.36 297.903 592.728C297.535 593.081 297.351 593.671 297.351 594.499V595.396H299.996V597.121ZM303.517 593.349C303.118 593.349 302.781 593.211 302.505 592.935C302.229 592.659 302.091 592.322 302.091 591.923C302.091 591.524 302.229 591.187 302.505 590.911C302.781 590.635 303.118 590.497 303.517 590.497C303.9 590.497 304.222 590.635 304.483 590.911C304.759 591.187 304.897 591.524 304.897 591.923C304.897 592.322 304.759 592.659 304.483 592.935C304.222 593.211 303.9 593.349 303.517 593.349ZM304.529 595.396V608H302.436V595.396H304.529ZM314.237 595.166C315.771 595.166 317.013 595.634 317.963 596.569C318.914 597.489 319.389 598.823 319.389 600.571V608H317.319V600.87C317.319 599.613 317.005 598.654 316.376 597.995C315.748 597.32 314.889 596.983 313.8 596.983C312.696 596.983 311.815 597.328 311.155 598.018C310.511 598.708 310.189 599.712 310.189 601.031V608H308.096V595.396H310.189V597.19C310.603 596.546 311.163 596.048 311.868 595.695C312.589 595.342 313.379 595.166 314.237 595.166ZM322.026 601.652C322.026 600.364 322.287 599.237 322.808 598.271C323.329 597.29 324.042 596.531 324.947 595.994C325.867 595.457 326.887 595.189 328.006 595.189C329.11 595.189 330.068 595.427 330.881 595.902C331.694 596.377 332.299 596.975 332.698 597.696V595.396H334.814V608H332.698V605.654C332.284 606.39 331.663 607.003 330.835 607.494C330.022 607.969 329.072 608.207 327.983 608.207C326.864 608.207 325.852 607.931 324.947 607.379C324.042 606.827 323.329 606.053 322.808 605.056C322.287 604.059 322.026 602.925 322.026 601.652ZM332.698 601.675C332.698 600.724 332.506 599.896 332.123 599.191C331.74 598.486 331.218 597.949 330.559 597.581C329.915 597.198 329.202 597.006 328.42 597.006C327.638 597.006 326.925 597.19 326.281 597.558C325.637 597.926 325.123 598.463 324.74 599.168C324.357 599.873 324.165 600.701 324.165 601.652C324.165 602.618 324.357 603.461 324.74 604.182C325.123 604.887 325.637 605.432 326.281 605.815C326.925 606.183 327.638 606.367 328.42 606.367C329.202 606.367 329.915 606.183 330.559 605.815C331.218 605.432 331.74 604.887 332.123 604.182C332.506 603.461 332.698 602.626 332.698 601.675ZM344.492 595.166C346.025 595.166 347.267 595.634 348.218 596.569C349.169 597.489 349.644 598.823 349.644 600.571V608H347.574V600.87C347.574 599.613 347.26 598.654 346.631 597.995C346.002 597.32 345.144 596.983 344.055 596.983C342.951 596.983 342.069 597.328 341.41 598.018C340.766 598.708 340.444 599.712 340.444 601.031V608H338.351V595.396H340.444V597.19C340.858 596.546 341.418 596.048 342.123 595.695C342.844 595.342 343.633 595.166 344.492 595.166ZM352.281 601.675C352.281 600.372 352.542 599.237 353.063 598.271C353.584 597.29 354.305 596.531 355.225 595.994C356.16 595.457 357.226 595.189 358.422 595.189C359.971 595.189 361.243 595.565 362.24 596.316C363.252 597.067 363.919 598.11 364.241 599.444H361.987C361.772 598.677 361.351 598.072 360.722 597.627C360.109 597.182 359.342 596.96 358.422 596.96C357.226 596.96 356.26 597.374 355.524 598.202C354.788 599.015 354.42 600.172 354.42 601.675C354.42 603.193 354.788 604.366 355.524 605.194C356.26 606.022 357.226 606.436 358.422 606.436C359.342 606.436 360.109 606.221 360.722 605.792C361.335 605.363 361.757 604.749 361.987 603.952H364.241C363.904 605.24 363.229 606.275 362.217 607.057C361.205 607.824 359.94 608.207 358.422 608.207C357.226 608.207 356.16 607.939 355.225 607.402C354.305 606.865 353.584 606.106 353.063 605.125C352.542 604.144 352.281 602.994 352.281 601.675ZM368.115 593.349C367.716 593.349 367.379 593.211 367.103 592.935C366.827 592.659 366.689 592.322 366.689 591.923C366.689 591.524 366.827 591.187 367.103 590.911C367.379 590.635 367.716 590.497 368.115 590.497C368.498 590.497 368.82 590.635 369.081 590.911C369.357 591.187 369.495 591.524 369.495 591.923C369.495 592.322 369.357 592.659 369.081 592.935C368.82 593.211 368.498 593.349 368.115 593.349ZM369.127 595.396V608H367.034V595.396H369.127ZM371.912 601.652C371.912 600.364 372.173 599.237 372.694 598.271C373.215 597.29 373.928 596.531 374.833 595.994C375.753 595.457 376.773 595.189 377.892 595.189C378.996 595.189 379.954 595.427 380.767 595.902C381.58 596.377 382.185 596.975 382.584 597.696V595.396H384.7V608H382.584V605.654C382.17 606.39 381.549 607.003 380.721 607.494C379.908 607.969 378.958 608.207 377.869 608.207C376.75 608.207 375.738 607.931 374.833 607.379C373.928 606.827 373.215 606.053 372.694 605.056C372.173 604.059 371.912 602.925 371.912 601.652ZM382.584 601.675C382.584 600.724 382.392 599.896 382.009 599.191C381.626 598.486 381.104 597.949 380.445 597.581C379.801 597.198 379.088 597.006 378.306 597.006C377.524 597.006 376.811 597.19 376.167 597.558C375.523 597.926 375.009 598.463 374.626 599.168C374.243 599.873 374.051 600.701 374.051 601.652C374.051 602.618 374.243 603.461 374.626 604.182C375.009 604.887 375.523 605.432 376.167 605.815C376.811 606.183 377.524 606.367 378.306 606.367C379.088 606.367 379.801 606.183 380.445 605.815C381.104 605.432 381.626 604.887 382.009 604.182C382.392 603.461 382.584 602.626 382.584 601.675ZM390.33 590.98V608H388.237V590.98H390.33ZM402.122 590.98V608H400.029V590.98H402.122ZM406.77 593.349C406.371 593.349 406.034 593.211 405.758 592.935C405.482 592.659 405.344 592.322 405.344 591.923C405.344 591.524 405.482 591.187 405.758 590.911C406.034 590.635 406.371 590.497 406.77 590.497C407.153 590.497 407.475 590.635 407.736 590.911C408.012 591.187 408.15 591.524 408.15 591.923C408.15 592.322 408.012 592.659 407.736 592.935C407.475 593.211 407.153 593.349 406.77 593.349ZM407.782 595.396V608H405.689V595.396H407.782ZM426.506 595.166C427.487 595.166 428.361 595.373 429.128 595.787C429.895 596.186 430.5 596.791 430.945 597.604C431.39 598.417 431.612 599.406 431.612 600.571V608H429.542V600.87C429.542 599.613 429.228 598.654 428.599 597.995C427.986 597.32 427.15 596.983 426.092 596.983C425.003 596.983 424.137 597.336 423.493 598.041C422.849 598.731 422.527 599.735 422.527 601.054V608H420.457V600.87C420.457 599.613 420.143 598.654 419.514 597.995C418.901 597.32 418.065 596.983 417.007 596.983C415.918 596.983 415.052 597.336 414.408 598.041C413.764 598.731 413.442 599.735 413.442 601.054V608H411.349V595.396H413.442V597.213C413.856 596.554 414.408 596.048 415.098 595.695C415.803 595.342 416.578 595.166 417.421 595.166C418.479 595.166 419.414 595.404 420.227 595.879C421.04 596.354 421.645 597.052 422.044 597.972C422.397 597.083 422.979 596.393 423.792 595.902C424.605 595.411 425.509 595.166 426.506 595.166ZM436.126 593.349C435.728 593.349 435.39 593.211 435.114 592.935C434.838 592.659 434.7 592.322 434.7 591.923C434.7 591.524 434.838 591.187 435.114 590.911C435.39 590.635 435.728 590.497 436.126 590.497C436.51 590.497 436.832 590.635 437.092 590.911C437.368 591.187 437.506 591.524 437.506 591.923C437.506 592.322 437.368 592.659 437.092 592.935C436.832 593.211 436.51 593.349 436.126 593.349ZM437.138 595.396V608H435.045V595.396H437.138ZM443.259 597.121V604.55C443.259 605.163 443.389 605.6 443.65 605.861C443.91 606.106 444.363 606.229 445.007 606.229H446.548V608H444.662C443.496 608 442.622 607.732 442.04 607.195C441.457 606.658 441.166 605.777 441.166 604.55V597.121H439.533V595.396H441.166V592.222H443.259V595.396H446.548V597.121H443.259ZM448.302 601.652C448.302 600.364 448.562 599.237 449.084 598.271C449.605 597.29 450.318 596.531 451.223 595.994C452.143 595.457 453.162 595.189 454.282 595.189C455.386 595.189 456.344 595.427 457.157 595.902C457.969 596.377 458.575 596.975 458.974 597.696V595.396H461.09V608H458.974V605.654C458.56 606.39 457.939 607.003 457.111 607.494C456.298 607.969 455.347 608.207 454.259 608.207C453.139 608.207 452.127 607.931 451.223 607.379C450.318 606.827 449.605 606.053 449.084 605.056C448.562 604.059 448.302 602.925 448.302 601.652ZM458.974 601.675C458.974 600.724 458.782 599.896 458.399 599.191C458.015 598.486 457.494 597.949 456.835 597.581C456.191 597.198 455.478 597.006 454.696 597.006C453.914 597.006 453.201 597.19 452.557 597.558C451.913 597.926 451.399 598.463 451.016 599.168C450.632 599.873 450.441 600.701 450.441 601.652C450.441 602.618 450.632 603.461 451.016 604.182C451.399 604.887 451.913 605.432 452.557 605.815C453.201 606.183 453.914 606.367 454.696 606.367C455.478 606.367 456.191 606.183 456.835 605.815C457.494 605.432 458.015 604.887 458.399 604.182C458.782 603.461 458.974 602.626 458.974 601.675ZM467.179 597.121V604.55C467.179 605.163 467.31 605.6 467.57 605.861C467.831 606.106 468.283 606.229 468.927 606.229H470.468V608H468.582C467.417 608 466.543 607.732 465.96 607.195C465.378 606.658 465.086 605.777 465.086 604.55V597.121H463.453V595.396H465.086V592.222H467.179V595.396H470.468V597.121H467.179ZM474.085 593.349C473.687 593.349 473.349 593.211 473.073 592.935C472.797 592.659 472.659 592.322 472.659 591.923C472.659 591.524 472.797 591.187 473.073 590.911C473.349 590.635 473.687 590.497 474.085 590.497C474.469 590.497 474.791 590.635 475.051 590.911C475.327 591.187 475.465 591.524 475.465 591.923C475.465 592.322 475.327 592.659 475.051 592.935C474.791 593.211 474.469 593.349 474.085 593.349ZM475.097 595.396V608H473.004V595.396H475.097ZM484.162 608.207C482.981 608.207 481.908 607.939 480.942 607.402C479.991 606.865 479.24 606.106 478.688 605.125C478.151 604.128 477.883 602.978 477.883 601.675C477.883 600.387 478.159 599.252 478.711 598.271C479.278 597.274 480.045 596.515 481.011 595.994C481.977 595.457 483.058 595.189 484.254 595.189C485.45 595.189 486.531 595.457 487.497 595.994C488.463 596.515 489.222 597.267 489.774 598.248C490.341 599.229 490.625 600.372 490.625 601.675C490.625 602.978 490.333 604.128 489.751 605.125C489.183 606.106 488.409 606.865 487.428 607.402C486.446 607.939 485.358 608.207 484.162 608.207ZM484.162 606.367C484.913 606.367 485.618 606.191 486.278 605.838C486.937 605.485 487.466 604.956 487.865 604.251C488.279 603.546 488.486 602.687 488.486 601.675C488.486 600.663 488.286 599.804 487.888 599.099C487.489 598.394 486.968 597.872 486.324 597.535C485.68 597.182 484.982 597.006 484.231 597.006C483.464 597.006 482.759 597.182 482.115 597.535C481.486 597.872 480.98 598.394 480.597 599.099C480.213 599.804 480.022 600.663 480.022 601.675C480.022 602.702 480.206 603.569 480.574 604.274C480.957 604.979 481.463 605.508 482.092 605.861C482.72 606.198 483.41 606.367 484.162 606.367ZM499.517 595.166C501.051 595.166 502.293 595.634 503.243 596.569C504.194 597.489 504.669 598.823 504.669 600.571V608H502.599V600.87C502.599 599.613 502.285 598.654 501.656 597.995C501.028 597.32 500.169 596.983 499.08 596.983C497.976 596.983 497.095 597.328 496.435 598.018C495.791 598.708 495.469 599.712 495.469 601.031V608H493.376V595.396H495.469V597.19C495.883 596.546 496.443 596.048 497.148 595.695C497.869 595.342 498.659 595.166 499.517 595.166ZM512.55 608.207C511.584 608.207 510.718 608.046 509.951 607.724C509.185 607.387 508.579 606.927 508.134 606.344C507.69 605.746 507.444 605.064 507.398 604.297H509.56C509.622 604.926 509.913 605.439 510.434 605.838C510.971 606.237 511.669 606.436 512.527 606.436C513.325 606.436 513.953 606.26 514.413 605.907C514.873 605.554 515.103 605.11 515.103 604.573C515.103 604.021 514.858 603.615 514.367 603.354C513.877 603.078 513.118 602.81 512.09 602.549C511.155 602.304 510.388 602.058 509.79 601.813C509.208 601.552 508.702 601.177 508.272 600.686C507.858 600.18 507.651 599.521 507.651 598.708C507.651 598.064 507.843 597.474 508.226 596.937C508.61 596.4 509.154 595.979 509.859 595.672C510.565 595.35 511.37 595.189 512.274 595.189C513.67 595.189 514.797 595.542 515.655 596.247C516.514 596.952 516.974 597.918 517.035 599.145H514.942C514.896 598.486 514.628 597.957 514.137 597.558C513.662 597.159 513.018 596.96 512.205 596.96C511.454 596.96 510.856 597.121 510.411 597.443C509.967 597.765 509.744 598.187 509.744 598.708C509.744 599.122 509.875 599.467 510.135 599.743C510.411 600.004 510.749 600.218 511.147 600.387C511.561 600.54 512.129 600.717 512.849 600.916C513.754 601.161 514.49 601.407 515.057 601.652C515.625 601.882 516.108 602.235 516.506 602.71C516.92 603.185 517.135 603.806 517.15 604.573C517.15 605.263 516.959 605.884 516.575 606.436C516.192 606.988 515.648 607.425 514.942 607.747C514.252 608.054 513.455 608.207 512.55 608.207ZM520.772 608.138C520.373 608.138 520.036 608 519.76 607.724C519.484 607.448 519.346 607.111 519.346 606.712C519.346 606.313 519.484 605.976 519.76 605.7C520.036 605.424 520.373 605.286 520.772 605.286C521.155 605.286 521.477 605.424 521.738 605.7C522.014 605.976 522.152 606.313 522.152 606.712C522.152 607.111 522.014 607.448 521.738 607.724C521.477 608 521.155 608.138 520.772 608.138Z" fill="white"/>
<defs>
<linearGradient id="paint0_linear" x1="332.414" y1="239.756" x2="684.012" y2="727.235" gradientUnits="userSpaceOnUse">
<stop stop-color="#FF0060"/>
<stop offset="1" stop-color="#FF69A2"/>
</linearGradient>
</defs>
</svg>
