<svg width="1017" height="968" viewBox="0 0 1017 968" fill="none" xmlns="http://www.w3.org/2000/svg">
<path d="M856.997 602.848C822.376 628.055 785.834 650.51 747.731 669.989C687.308 700.404 624.8 726.339 560.739 747.572C506.183 766.211 451.057 782.637 394.096 790.994C357.212 797.133 319.772 797.453 283.188 791.941C237.455 784.091 201.002 762.78 176.555 723.827C146.306 675.552 129.942 619.724 129.157 562.119C128.394 530.234 127.834 498.378 134.558 466.635C144.39 417.194 169.481 371.487 206.34 335.874C264.589 279.453 333.588 248.471 413.431 240.878C486.458 233.853 559.772 237.027 631.2 250.303C669.421 257.388 707.814 263.707 745.388 273.416C798.737 286.77 848.834 309.73 893.211 341.165C906.332 349.596 918.699 359.094 930.187 369.566C940.682 380.208 948.257 393.343 952.237 407.798C960.375 436.406 963.174 465.246 951.524 494.358C943.324 514.696 931.627 533.577 916.964 550.146C899.136 569.984 878.998 587.682 856.997 602.848Z" fill="url(#paint0_linear)" fill-opacity="0.6"/>
<path d="M269.525 394.522C269.525 396.687 269.003 398.717 267.959 400.612C266.954 402.506 265.349 404.034 263.145 405.194C260.98 406.354 258.234 406.934 254.909 406.934H248.123V422.478H240.003V381.994H254.909C258.041 381.994 260.709 382.535 262.913 383.618C265.117 384.7 266.76 386.189 267.843 388.084C268.964 389.978 269.525 392.124 269.525 394.522ZM254.561 400.38C256.804 400.38 258.466 399.877 259.549 398.872C260.632 397.828 261.173 396.378 261.173 394.522C261.173 390.578 258.969 388.606 254.561 388.606H248.123V400.38H254.561ZM305.124 390.346V422.478H296.946V418.418C295.902 419.81 294.529 420.912 292.828 421.724C291.165 422.497 289.348 422.884 287.376 422.884C284.863 422.884 282.639 422.362 280.706 421.318C278.773 420.235 277.245 418.669 276.124 416.62C275.041 414.532 274.5 412.057 274.5 409.196V390.346H282.62V408.036C282.62 410.588 283.258 412.56 284.534 413.952C285.81 415.305 287.55 415.982 289.754 415.982C291.997 415.982 293.756 415.305 295.032 413.952C296.308 412.56 296.946 410.588 296.946 408.036V390.346H305.124ZM320.756 395.334C321.8 393.632 323.153 392.298 324.816 391.332C326.517 390.365 328.45 389.882 330.616 389.882V398.408H328.47C325.918 398.408 323.984 399.007 322.67 400.206C321.394 401.404 320.756 403.492 320.756 406.47V422.478H312.636V390.346H320.756V395.334ZM333.497 406.412C333.497 403.086 334.174 400.186 335.527 397.712C336.88 395.198 338.756 393.265 341.153 391.912C343.55 390.52 346.296 389.824 349.389 389.824C353.372 389.824 356.658 390.829 359.249 392.84C361.878 394.812 363.638 397.596 364.527 401.192H355.769C355.305 399.8 354.512 398.717 353.391 397.944C352.308 397.132 350.955 396.726 349.331 396.726C347.011 396.726 345.174 397.576 343.821 399.278C342.468 400.94 341.791 403.318 341.791 406.412C341.791 409.466 342.468 411.844 343.821 413.546C345.174 415.208 347.011 416.04 349.331 416.04C352.618 416.04 354.764 414.57 355.769 411.632H364.527C363.638 415.112 361.878 417.876 359.249 419.926C356.62 421.975 353.333 423 349.389 423C346.296 423 343.55 422.323 341.153 420.97C338.756 419.578 336.88 417.644 335.527 415.17C334.174 412.656 333.497 409.737 333.497 406.412ZM388.072 389.882C390.508 389.882 392.673 390.423 394.568 391.506C396.462 392.55 397.932 394.116 398.976 396.204C400.058 398.253 400.6 400.728 400.6 403.628V422.478H392.48V404.73C392.48 402.178 391.842 400.225 390.566 398.872C389.29 397.48 387.55 396.784 385.346 396.784C383.103 396.784 381.324 397.48 380.01 398.872C378.734 400.225 378.096 402.178 378.096 404.73V422.478H369.976V379.558H378.096V394.348C379.14 392.956 380.532 391.873 382.272 391.1C384.012 390.288 385.945 389.882 388.072 389.882ZM405.733 406.296C405.733 403.048 406.371 400.167 407.647 397.654C408.962 395.14 410.721 393.207 412.925 391.854C415.168 390.5 417.662 389.824 420.407 389.824C422.805 389.824 424.893 390.307 426.671 391.274C428.489 392.24 429.939 393.458 431.021 394.928V390.346H439.199V422.478H431.021V417.78C429.977 419.288 428.527 420.544 426.671 421.55C424.854 422.516 422.747 423 420.349 423C417.643 423 415.168 422.304 412.925 420.912C410.721 419.52 408.962 417.567 407.647 415.054C406.371 412.502 405.733 409.582 405.733 406.296ZM431.021 406.412C431.021 404.44 430.635 402.758 429.861 401.366C429.088 399.935 428.044 398.852 426.729 398.118C425.415 397.344 424.003 396.958 422.495 396.958C420.987 396.958 419.595 397.325 418.319 398.06C417.043 398.794 415.999 399.877 415.187 401.308C414.414 402.7 414.027 404.362 414.027 406.296C414.027 408.229 414.414 409.93 415.187 411.4C415.999 412.83 417.043 413.932 418.319 414.706C419.634 415.479 421.026 415.866 422.495 415.866C424.003 415.866 425.415 415.498 426.729 414.764C428.044 413.99 429.088 412.908 429.861 411.516C430.635 410.085 431.021 408.384 431.021 406.412ZM458.926 423C456.297 423 453.938 422.536 451.85 421.608C449.762 420.641 448.099 419.346 446.862 417.722C445.663 416.098 445.006 414.3 444.89 412.328H453.068C453.223 413.565 453.822 414.59 454.866 415.402C455.949 416.214 457.283 416.62 458.868 416.62C460.415 416.62 461.613 416.31 462.464 415.692C463.353 415.073 463.798 414.28 463.798 413.314C463.798 412.27 463.257 411.496 462.174 410.994C461.13 410.452 459.448 409.872 457.128 409.254C454.731 408.674 452.759 408.074 451.212 407.456C449.704 406.837 448.389 405.89 447.268 404.614C446.185 403.338 445.644 401.617 445.644 399.452C445.644 397.673 446.147 396.049 447.152 394.58C448.196 393.11 449.665 391.95 451.56 391.1C453.493 390.249 455.755 389.824 458.346 389.824C462.174 389.824 465.229 390.79 467.51 392.724C469.791 394.618 471.048 397.19 471.28 400.438H463.508C463.392 399.162 462.851 398.156 461.884 397.422C460.956 396.648 459.699 396.262 458.114 396.262C456.645 396.262 455.504 396.532 454.692 397.074C453.919 397.615 453.532 398.369 453.532 399.336C453.532 400.418 454.073 401.25 455.156 401.83C456.239 402.371 457.921 402.932 460.202 403.512C462.522 404.092 464.436 404.691 465.944 405.31C467.452 405.928 468.747 406.895 469.83 408.21C470.951 409.486 471.531 411.187 471.57 413.314C471.57 415.17 471.048 416.832 470.004 418.302C468.999 419.771 467.529 420.931 465.596 421.782C463.701 422.594 461.478 423 458.926 423ZM507.605 405.716C507.605 406.876 507.528 407.92 507.373 408.848H483.883C484.077 411.168 484.889 412.985 486.319 414.3C487.75 415.614 489.509 416.272 491.597 416.272C494.613 416.272 496.759 414.976 498.035 412.386H506.793C505.865 415.479 504.087 418.031 501.457 420.042C498.828 422.014 495.599 423 491.771 423C488.678 423 485.894 422.323 483.419 420.97C480.983 419.578 479.069 417.625 477.677 415.112C476.324 412.598 475.647 409.698 475.647 406.412C475.647 403.086 476.324 400.167 477.677 397.654C479.031 395.14 480.925 393.207 483.361 391.854C485.797 390.5 488.601 389.824 491.771 389.824C494.826 389.824 497.552 390.481 499.949 391.796C502.385 393.11 504.261 394.986 505.575 397.422C506.929 399.819 507.605 402.584 507.605 405.716ZM499.195 403.396C499.157 401.308 498.403 399.645 496.933 398.408C495.464 397.132 493.666 396.494 491.539 396.494C489.529 396.494 487.827 397.112 486.435 398.35C485.082 399.548 484.251 401.23 483.941 403.396H499.195ZM284.141 468.994V509.478H276.021V483.146L265.175 509.478H259.027L248.123 483.146V509.478H240.003V468.994H249.225L262.101 499.096L274.977 468.994H284.141ZM289.581 493.296C289.581 490.048 290.219 487.167 291.495 484.654C292.81 482.14 294.569 480.207 296.773 478.854C299.016 477.5 301.51 476.824 304.255 476.824C306.652 476.824 308.74 477.307 310.519 478.274C312.336 479.24 313.786 480.458 314.869 481.928V477.346H323.047V509.478H314.869V504.78C313.825 506.288 312.375 507.544 310.519 508.55C308.702 509.516 306.594 510 304.197 510C301.49 510 299.016 509.304 296.773 507.912C294.569 506.52 292.81 504.567 291.495 502.054C290.219 499.502 289.581 496.582 289.581 493.296ZM314.869 493.412C314.869 491.44 314.482 489.758 313.709 488.366C312.936 486.935 311.892 485.852 310.577 485.118C309.262 484.344 307.851 483.958 306.343 483.958C304.835 483.958 303.443 484.325 302.167 485.06C300.891 485.794 299.847 486.877 299.035 488.308C298.262 489.7 297.875 491.362 297.875 493.296C297.875 495.229 298.262 496.93 299.035 498.4C299.847 499.83 300.891 500.932 302.167 501.706C303.482 502.479 304.874 502.866 306.343 502.866C307.851 502.866 309.262 502.498 310.577 501.764C311.892 500.99 312.936 499.908 313.709 498.516C314.482 497.085 314.869 495.384 314.869 493.412ZM328.39 493.296C328.39 490.048 329.028 487.167 330.304 484.654C331.618 482.14 333.397 480.207 335.64 478.854C337.882 477.5 340.376 476.824 343.122 476.824C345.21 476.824 347.201 477.288 349.096 478.216C350.99 479.105 352.498 480.304 353.62 481.812V466.558H361.856V509.478H353.62V504.722C352.614 506.307 351.203 507.583 349.386 508.55C347.568 509.516 345.461 510 343.064 510C340.357 510 337.882 509.304 335.64 507.912C333.397 506.52 331.618 504.567 330.304 502.054C329.028 499.502 328.39 496.582 328.39 493.296ZM353.678 493.412C353.678 491.44 353.291 489.758 352.518 488.366C351.744 486.935 350.7 485.852 349.386 485.118C348.071 484.344 346.66 483.958 345.152 483.958C343.644 483.958 342.252 484.325 340.976 485.06C339.7 485.794 338.656 486.877 337.844 488.308C337.07 489.7 336.684 491.362 336.684 493.296C336.684 495.229 337.07 496.93 337.844 498.4C338.656 499.83 339.7 500.932 340.976 501.706C342.29 502.479 343.682 502.866 345.152 502.866C346.66 502.866 348.071 502.498 349.386 501.764C350.7 500.99 351.744 499.908 352.518 498.516C353.291 497.085 353.678 495.384 353.678 493.412ZM399.156 492.716C399.156 493.876 399.079 494.92 398.924 495.848H375.434C375.628 498.168 376.44 499.985 377.87 501.3C379.301 502.614 381.06 503.272 383.148 503.272C386.164 503.272 388.31 501.976 389.586 499.386H398.344C397.416 502.479 395.638 505.031 393.008 507.042C390.379 509.014 387.15 510 383.322 510C380.229 510 377.445 509.323 374.97 507.97C372.534 506.578 370.62 504.625 369.228 502.112C367.875 499.598 367.198 496.698 367.198 493.412C367.198 490.086 367.875 487.167 369.228 484.654C370.582 482.14 372.476 480.207 374.912 478.854C377.348 477.5 380.152 476.824 383.322 476.824C386.377 476.824 389.103 477.481 391.5 478.796C393.936 480.11 395.812 481.986 397.126 484.422C398.48 486.819 399.156 489.584 399.156 492.716ZM390.746 490.396C390.708 488.308 389.954 486.645 388.484 485.408C387.015 484.132 385.217 483.494 383.09 483.494C381.08 483.494 379.378 484.112 377.986 485.35C376.633 486.548 375.802 488.23 375.492 490.396H390.746ZM426.023 475.548V485.698H439.653V492.136H426.023V502.866H441.393V509.478H417.903V468.936H441.393V475.548H426.023ZM446.185 493.296C446.185 490.048 446.823 487.167 448.099 484.654C449.413 482.14 451.173 480.207 453.377 478.854C455.619 477.5 458.113 476.824 460.859 476.824C463.256 476.824 465.344 477.307 467.123 478.274C468.94 479.24 470.39 480.458 471.473 481.928V477.346H479.651V509.478H471.473V504.78C470.429 506.288 468.979 507.544 467.123 508.55C465.305 509.516 463.198 510 460.801 510C458.094 510 455.619 509.304 453.377 507.912C451.173 506.52 449.413 504.567 448.099 502.054C446.823 499.502 446.185 496.582 446.185 493.296ZM471.473 493.412C471.473 491.44 471.086 489.758 470.313 488.366C469.539 486.935 468.495 485.852 467.181 485.118C465.866 484.344 464.455 483.958 462.947 483.958C461.439 483.958 460.047 484.325 458.771 485.06C457.495 485.794 456.451 486.877 455.639 488.308C454.865 489.7 454.479 491.362 454.479 493.296C454.479 495.229 454.865 496.93 455.639 498.4C456.451 499.83 457.495 500.932 458.771 501.706C460.085 502.479 461.477 502.866 462.947 502.866C464.455 502.866 465.866 502.498 467.181 501.764C468.495 500.99 469.539 499.908 470.313 498.516C471.086 497.085 471.473 495.384 471.473 493.412ZM499.377 510C496.748 510 494.389 509.536 492.301 508.608C490.213 507.641 488.55 506.346 487.313 504.722C486.114 503.098 485.457 501.3 485.341 499.328H493.519C493.674 500.565 494.273 501.59 495.317 502.402C496.4 503.214 497.734 503.62 499.319 503.62C500.866 503.62 502.064 503.31 502.915 502.692C503.804 502.073 504.249 501.28 504.249 500.314C504.249 499.27 503.708 498.496 502.625 497.994C501.581 497.452 499.899 496.872 497.579 496.254C495.182 495.674 493.21 495.074 491.663 494.456C490.155 493.837 488.84 492.89 487.719 491.614C486.636 490.338 486.095 488.617 486.095 486.452C486.095 484.673 486.598 483.049 487.603 481.58C488.647 480.11 490.116 478.95 492.011 478.1C493.944 477.249 496.206 476.824 498.797 476.824C502.625 476.824 505.68 477.79 507.961 479.724C510.242 481.618 511.499 484.19 511.731 487.438H503.959C503.843 486.162 503.302 485.156 502.335 484.422C501.407 483.648 500.15 483.262 498.565 483.262C497.096 483.262 495.955 483.532 495.143 484.074C494.37 484.615 493.983 485.369 493.983 486.336C493.983 487.418 494.524 488.25 495.607 488.83C496.69 489.371 498.372 489.932 500.653 490.512C502.973 491.092 504.887 491.691 506.395 492.31C507.903 492.928 509.198 493.895 510.281 495.21C511.402 496.486 511.982 498.187 512.021 500.314C512.021 502.17 511.499 503.832 510.455 505.302C509.45 506.771 507.98 507.931 506.047 508.782C504.152 509.594 501.929 510 499.377 510ZM548.927 477.346L529.033 524.674H520.391L527.351 508.666L514.475 477.346H523.581L531.875 499.792L540.285 477.346H548.927Z" fill="white"/>
<path d="M247.248 575.91H240.256L238.968 579.475H236.76L242.556 563.536H244.971L250.744 579.475H248.536L247.248 575.91ZM246.65 574.208L243.752 566.112L240.854 574.208H246.65ZM258.399 568.596H255.754V579.475H253.661V568.596H252.028V566.871H253.661V565.974C253.661 564.563 254.021 563.536 254.742 562.892C255.478 562.232 256.651 561.903 258.261 561.903V563.651C257.341 563.651 256.689 563.835 256.306 564.203C255.938 564.555 255.754 565.146 255.754 565.974V566.871H258.399V568.596ZM263.392 568.596V576.025C263.392 576.638 263.523 577.075 263.783 577.336C264.044 577.581 264.496 577.704 265.14 577.704H266.681V579.475H264.795C263.63 579.475 262.756 579.206 262.173 578.67C261.591 578.133 261.299 577.251 261.299 576.025V568.596H259.666V566.871H261.299V563.697H263.392V566.871H266.681V568.596H263.392ZM280.717 572.69C280.717 573.088 280.694 573.51 280.648 573.955H270.574C270.651 575.197 271.073 576.17 271.839 576.876C272.621 577.566 273.564 577.911 274.668 577.911C275.573 577.911 276.324 577.704 276.922 577.29C277.536 576.86 277.965 576.293 278.21 575.588H280.464C280.127 576.799 279.452 577.788 278.44 578.555C277.428 579.306 276.171 579.682 274.668 579.682C273.472 579.682 272.399 579.413 271.448 578.877C270.513 578.34 269.777 577.581 269.24 576.6C268.704 575.603 268.435 574.453 268.435 573.15C268.435 571.846 268.696 570.704 269.217 569.723C269.739 568.741 270.467 567.99 271.402 567.469C272.353 566.932 273.442 566.664 274.668 566.664C275.864 566.664 276.922 566.924 277.842 567.446C278.762 567.967 279.468 568.688 279.958 569.608C280.464 570.512 280.717 571.54 280.717 572.69ZM278.555 572.253C278.555 571.455 278.379 570.773 278.026 570.206C277.674 569.623 277.191 569.186 276.577 568.895C275.979 568.588 275.312 568.435 274.576 568.435C273.518 568.435 272.614 568.772 271.862 569.447C271.126 570.121 270.705 571.057 270.597 572.253H278.555ZM285.573 568.918C285.941 568.197 286.462 567.637 287.137 567.239C287.827 566.84 288.663 566.641 289.644 566.641V568.803H289.092C286.746 568.803 285.573 570.075 285.573 572.621V579.475H283.48V566.871H285.573V568.918ZM309.048 566.871L301.458 585.409H299.296L301.78 579.337L296.697 566.871H299.02L302.976 577.083L306.886 566.871H309.048ZM316.649 579.682C315.468 579.682 314.395 579.413 313.429 578.877C312.478 578.34 311.727 577.581 311.175 576.6C310.638 575.603 310.37 574.453 310.37 573.15C310.37 571.862 310.646 570.727 311.198 569.746C311.765 568.749 312.532 567.99 313.498 567.469C314.464 566.932 315.545 566.664 316.741 566.664C317.937 566.664 319.018 566.932 319.984 567.469C320.95 567.99 321.709 568.741 322.261 569.723C322.828 570.704 323.112 571.846 323.112 573.15C323.112 574.453 322.821 575.603 322.238 576.6C321.671 577.581 320.896 578.34 319.915 578.877C318.934 579.413 317.845 579.682 316.649 579.682ZM316.649 577.842C317.4 577.842 318.106 577.665 318.765 577.313C319.424 576.96 319.953 576.431 320.352 575.726C320.766 575.02 320.973 574.162 320.973 573.15C320.973 572.138 320.774 571.279 320.375 570.574C319.976 569.868 319.455 569.347 318.811 569.01C318.167 568.657 317.469 568.481 316.718 568.481C315.951 568.481 315.246 568.657 314.602 569.01C313.973 569.347 313.467 569.868 313.084 570.574C312.701 571.279 312.509 572.138 312.509 573.15C312.509 574.177 312.693 575.043 313.061 575.749C313.444 576.454 313.95 576.983 314.579 577.336C315.208 577.673 315.898 577.842 316.649 577.842ZM337.042 566.871V579.475H334.949V577.612C334.55 578.256 333.99 578.762 333.27 579.13C332.564 579.482 331.782 579.659 330.924 579.659C329.942 579.659 329.061 579.459 328.279 579.061C327.497 578.647 326.876 578.033 326.416 577.221C325.971 576.408 325.749 575.419 325.749 574.254V566.871H327.819V573.978C327.819 575.22 328.133 576.178 328.762 576.853C329.39 577.512 330.249 577.842 331.338 577.842C332.457 577.842 333.339 577.497 333.983 576.807C334.627 576.117 334.949 575.112 334.949 573.794V566.871H337.042ZM351.837 568.596H349.192V579.475H347.099V568.596H345.466V566.871H347.099V565.974C347.099 564.563 347.459 563.536 348.18 562.892C348.916 562.232 350.089 561.903 351.699 561.903V563.651C350.779 563.651 350.127 563.835 349.744 564.203C349.376 564.555 349.192 565.146 349.192 565.974V566.871H351.837V568.596ZM355.358 564.824C354.959 564.824 354.622 564.686 354.346 564.41C354.07 564.134 353.932 563.796 353.932 563.398C353.932 562.999 354.07 562.662 354.346 562.386C354.622 562.11 354.959 561.972 355.358 561.972C355.741 561.972 356.063 562.11 356.324 562.386C356.6 562.662 356.738 562.999 356.738 563.398C356.738 563.796 356.6 564.134 356.324 564.41C356.063 564.686 355.741 564.824 355.358 564.824ZM356.37 566.871V579.475H354.277V566.871H356.37ZM366.078 566.641C367.611 566.641 368.853 567.108 369.804 568.044C370.755 568.964 371.23 570.298 371.23 572.046V579.475H369.16V572.345C369.16 571.087 368.846 570.129 368.217 569.47C367.588 568.795 366.73 568.458 365.641 568.458C364.537 568.458 363.655 568.803 362.996 569.493C362.352 570.183 362.03 571.187 362.03 572.506V579.475H359.937V566.871H362.03V568.665C362.444 568.021 363.004 567.522 363.709 567.17C364.43 566.817 365.219 566.641 366.078 566.641ZM373.867 573.127C373.867 571.839 374.128 570.712 374.649 569.746C375.17 568.764 375.883 568.005 376.788 567.469C377.708 566.932 378.735 566.664 379.87 566.664C380.851 566.664 381.764 566.894 382.607 567.354C383.45 567.798 384.094 568.389 384.539 569.125V562.455H386.655V579.475H384.539V577.106C384.125 577.857 383.512 578.478 382.699 578.969C381.886 579.444 380.936 579.682 379.847 579.682C378.728 579.682 377.708 579.406 376.788 578.854C375.883 578.302 375.17 577.527 374.649 576.531C374.128 575.534 373.867 574.399 373.867 573.127ZM384.539 573.15C384.539 572.199 384.347 571.371 383.964 570.666C383.581 569.96 383.059 569.424 382.4 569.056C381.756 568.672 381.043 568.481 380.261 568.481C379.479 568.481 378.766 568.665 378.122 569.033C377.478 569.401 376.964 569.937 376.581 570.643C376.198 571.348 376.006 572.176 376.006 573.127C376.006 574.093 376.198 574.936 376.581 575.657C376.964 576.362 377.478 576.906 378.122 577.29C378.766 577.658 379.479 577.842 380.261 577.842C381.043 577.842 381.756 577.658 382.4 577.29C383.059 576.906 383.581 576.362 383.964 575.657C384.347 574.936 384.539 574.1 384.539 573.15ZM398.417 569.194C398.831 568.473 399.444 567.875 400.257 567.4C401.085 566.909 402.043 566.664 403.132 566.664C404.251 566.664 405.263 566.932 406.168 567.469C407.088 568.005 407.808 568.764 408.33 569.746C408.851 570.712 409.112 571.839 409.112 573.127C409.112 574.399 408.851 575.534 408.33 576.531C407.808 577.527 407.088 578.302 406.168 578.854C405.263 579.406 404.251 579.682 403.132 579.682C402.058 579.682 401.108 579.444 400.28 578.969C399.467 578.478 398.846 577.872 398.417 577.152V585.455H396.324V566.871H398.417V569.194ZM406.973 573.127C406.973 572.176 406.781 571.348 406.398 570.643C406.014 569.937 405.493 569.401 404.834 569.033C404.19 568.665 403.477 568.481 402.695 568.481C401.928 568.481 401.215 568.672 400.556 569.056C399.912 569.424 399.39 569.968 398.992 570.689C398.608 571.394 398.417 572.214 398.417 573.15C398.417 574.1 398.608 574.936 398.992 575.657C399.39 576.362 399.912 576.906 400.556 577.29C401.215 577.658 401.928 577.842 402.695 577.842C403.477 577.842 404.19 577.658 404.834 577.29C405.493 576.906 406.014 576.362 406.398 575.657C406.781 574.936 406.973 574.093 406.973 573.127ZM413.96 568.918C414.328 568.197 414.849 567.637 415.524 567.239C416.214 566.84 417.049 566.641 418.031 566.641V568.803H417.479C415.133 568.803 413.96 570.075 413.96 572.621V579.475H411.867V566.871H413.96V568.918ZM425.944 579.682C424.763 579.682 423.69 579.413 422.724 578.877C421.773 578.34 421.022 577.581 420.47 576.6C419.933 575.603 419.665 574.453 419.665 573.15C419.665 571.862 419.941 570.727 420.493 569.746C421.06 568.749 421.827 567.99 422.793 567.469C423.759 566.932 424.84 566.664 426.036 566.664C427.232 566.664 428.313 566.932 429.279 567.469C430.245 567.99 431.004 568.741 431.556 569.723C432.123 570.704 432.407 571.846 432.407 573.15C432.407 574.453 432.115 575.603 431.533 576.6C430.965 577.581 430.191 578.34 429.21 578.877C428.228 579.413 427.14 579.682 425.944 579.682ZM425.944 577.842C426.695 577.842 427.4 577.665 428.06 577.313C428.719 576.96 429.248 576.431 429.647 575.726C430.061 575.02 430.268 574.162 430.268 573.15C430.268 572.138 430.068 571.279 429.67 570.574C429.271 569.868 428.75 569.347 428.106 569.01C427.462 568.657 426.764 568.481 426.013 568.481C425.246 568.481 424.541 568.657 423.897 569.01C423.268 569.347 422.762 569.868 422.379 570.574C421.995 571.279 421.804 572.138 421.804 573.15C421.804 574.177 421.988 575.043 422.356 575.749C422.739 576.454 423.245 576.983 423.874 577.336C424.502 577.673 425.192 577.842 425.944 577.842ZM434.377 573.127C434.377 571.839 434.637 570.712 435.159 569.746C435.68 568.764 436.393 568.005 437.298 567.469C438.218 566.932 439.245 566.664 440.38 566.664C441.361 566.664 442.273 566.894 443.117 567.354C443.96 567.798 444.604 568.389 445.049 569.125V562.455H447.165V579.475H445.049V577.106C444.635 577.857 444.021 578.478 443.209 578.969C442.396 579.444 441.445 579.682 440.357 579.682C439.237 579.682 438.218 579.406 437.298 578.854C436.393 578.302 435.68 577.527 435.159 576.531C434.637 575.534 434.377 574.399 434.377 573.127ZM445.049 573.15C445.049 572.199 444.857 571.371 444.474 570.666C444.09 569.96 443.569 569.424 442.91 569.056C442.266 568.672 441.553 568.481 440.771 568.481C439.989 568.481 439.276 568.665 438.632 569.033C437.988 569.401 437.474 569.937 437.091 570.643C436.707 571.348 436.516 572.176 436.516 573.127C436.516 574.093 436.707 574.936 437.091 575.657C437.474 576.362 437.988 576.906 438.632 577.29C439.276 577.658 439.989 577.842 440.771 577.842C441.553 577.842 442.266 577.658 442.91 577.29C443.569 576.906 444.09 576.362 444.474 575.657C444.857 574.936 445.049 574.1 445.049 573.15ZM461.88 566.871V579.475H459.787V577.612C459.388 578.256 458.828 578.762 458.108 579.13C457.402 579.482 456.62 579.659 455.762 579.659C454.78 579.659 453.899 579.459 453.117 579.061C452.335 578.647 451.714 578.033 451.254 577.221C450.809 576.408 450.587 575.419 450.587 574.254V566.871H452.657V573.978C452.657 575.22 452.971 576.178 453.6 576.853C454.228 577.512 455.087 577.842 456.176 577.842C457.295 577.842 458.177 577.497 458.821 576.807C459.465 576.117 459.787 575.112 459.787 573.794V566.871H461.88ZM464.632 573.15C464.632 571.846 464.892 570.712 465.414 569.746C465.935 568.764 466.656 568.005 467.576 567.469C468.511 566.932 469.577 566.664 470.773 566.664C472.321 566.664 473.594 567.039 474.591 567.791C475.603 568.542 476.27 569.585 476.592 570.919H474.338C474.123 570.152 473.701 569.546 473.073 569.102C472.459 568.657 471.693 568.435 470.773 568.435C469.577 568.435 468.611 568.849 467.875 569.677C467.139 570.489 466.771 571.647 466.771 573.15C466.771 574.668 467.139 575.841 467.875 576.669C468.611 577.497 469.577 577.911 470.773 577.911C471.693 577.911 472.459 577.696 473.073 577.267C473.686 576.837 474.108 576.224 474.338 575.427H476.592C476.254 576.715 475.58 577.75 474.568 578.532C473.556 579.298 472.291 579.682 470.773 579.682C469.577 579.682 468.511 579.413 467.576 578.877C466.656 578.34 465.935 577.581 465.414 576.6C464.892 575.618 464.632 574.468 464.632 573.15ZM481.937 568.596V576.025C481.937 576.638 482.068 577.075 482.328 577.336C482.589 577.581 483.041 577.704 483.685 577.704H485.226V579.475H483.34C482.175 579.475 481.301 579.206 480.718 578.67C480.136 578.133 479.844 577.251 479.844 576.025V568.596H478.211V566.871H479.844V563.697H481.937V566.871H485.226V568.596H481.937ZM492.224 579.682C491.258 579.682 490.392 579.521 489.625 579.199C488.859 578.861 488.253 578.401 487.808 577.819C487.364 577.221 487.118 576.538 487.072 575.772H489.234C489.296 576.4 489.587 576.914 490.108 577.313C490.645 577.711 491.343 577.911 492.201 577.911C492.999 577.911 493.627 577.734 494.087 577.382C494.547 577.029 494.777 576.584 494.777 576.048C494.777 575.496 494.532 575.089 494.041 574.829C493.551 574.553 492.792 574.284 491.764 574.024C490.829 573.778 490.062 573.533 489.464 573.288C488.882 573.027 488.376 572.651 487.946 572.161C487.532 571.655 487.325 570.995 487.325 570.183C487.325 569.539 487.517 568.948 487.9 568.412C488.284 567.875 488.828 567.453 489.533 567.147C490.239 566.825 491.044 566.664 491.948 566.664C493.344 566.664 494.471 567.016 495.329 567.722C496.188 568.427 496.648 569.393 496.709 570.62H494.616C494.57 569.96 494.302 569.431 493.811 569.033C493.336 568.634 492.692 568.435 491.879 568.435C491.128 568.435 490.53 568.596 490.085 568.918C489.641 569.24 489.418 569.661 489.418 570.183C489.418 570.597 489.549 570.942 489.809 571.218C490.085 571.478 490.423 571.693 490.821 571.862C491.235 572.015 491.803 572.191 492.523 572.391C493.428 572.636 494.164 572.881 494.731 573.127C495.299 573.357 495.782 573.709 496.18 574.185C496.594 574.66 496.809 575.281 496.824 576.048C496.824 576.738 496.633 577.359 496.249 577.911C495.866 578.463 495.322 578.9 494.616 579.222C493.926 579.528 493.129 579.682 492.224 579.682ZM508.464 568.596V576.025C508.464 576.638 508.594 577.075 508.855 577.336C509.115 577.581 509.568 577.704 510.212 577.704H511.753V579.475H509.867C508.701 579.475 507.827 579.206 507.245 578.67C506.662 578.133 506.371 577.251 506.371 576.025V568.596H504.738V566.871H506.371V563.697H508.464V566.871H511.753V568.596H508.464ZM520.545 566.641C521.495 566.641 522.354 566.848 523.121 567.262C523.887 567.66 524.485 568.266 524.915 569.079C525.359 569.891 525.582 570.88 525.582 572.046V579.475H523.512V572.345C523.512 571.087 523.197 570.129 522.569 569.47C521.94 568.795 521.081 568.458 519.993 568.458C518.889 568.458 518.007 568.803 517.348 569.493C516.704 570.183 516.382 571.187 516.382 572.506V579.475H514.289V562.455H516.382V568.665C516.796 568.021 517.363 567.522 518.084 567.17C518.82 566.817 519.64 566.641 520.545 566.641ZM528.218 573.127C528.218 571.839 528.479 570.712 529 569.746C529.522 568.764 530.235 568.005 531.139 567.469C532.059 566.932 533.079 566.664 534.198 566.664C535.302 566.664 536.261 566.901 537.073 567.377C537.886 567.852 538.492 568.45 538.89 569.171V566.871H541.006V579.475H538.89V577.129C538.476 577.865 537.855 578.478 537.027 578.969C536.215 579.444 535.264 579.682 534.175 579.682C533.056 579.682 532.044 579.406 531.139 578.854C530.235 578.302 529.522 577.527 529 576.531C528.479 575.534 528.218 574.399 528.218 573.127ZM538.89 573.15C538.89 572.199 538.699 571.371 538.315 570.666C537.932 569.96 537.411 569.424 536.751 569.056C536.107 568.672 535.394 568.481 534.612 568.481C533.83 568.481 533.117 568.665 532.473 569.033C531.829 569.401 531.316 569.937 530.932 570.643C530.549 571.348 530.357 572.176 530.357 573.127C530.357 574.093 530.549 574.936 530.932 575.657C531.316 576.362 531.829 576.906 532.473 577.29C533.117 577.658 533.83 577.842 534.612 577.842C535.394 577.842 536.107 577.658 536.751 577.29C537.411 576.906 537.932 576.362 538.315 575.657C538.699 574.936 538.89 574.1 538.89 573.15ZM547.096 568.596V576.025C547.096 576.638 547.227 577.075 547.487 577.336C547.748 577.581 548.2 577.704 548.844 577.704H550.385V579.475H548.499C547.334 579.475 546.46 579.206 545.877 578.67C545.295 578.133 545.003 577.251 545.003 576.025V568.596H543.37V566.871H545.003V563.697H547.096V566.871H550.385V568.596H547.096ZM569.909 566.871L562.319 585.409H560.157L562.641 579.337L557.558 566.871H559.881L563.837 577.083L567.747 566.871H569.909ZM577.51 579.682C576.33 579.682 575.256 579.413 574.29 578.877C573.34 578.34 572.588 577.581 572.036 576.6C571.5 575.603 571.231 574.453 571.231 573.15C571.231 571.862 571.507 570.727 572.059 569.746C572.627 568.749 573.393 567.99 574.359 567.469C575.325 566.932 576.406 566.664 577.602 566.664C578.798 566.664 579.879 566.932 580.845 567.469C581.811 567.99 582.57 568.741 583.122 569.723C583.69 570.704 583.973 571.846 583.973 573.15C583.973 574.453 583.682 575.603 583.099 576.6C582.532 577.581 581.758 578.34 580.776 578.877C579.795 579.413 578.706 579.682 577.51 579.682ZM577.51 577.842C578.262 577.842 578.967 577.665 579.626 577.313C580.286 576.96 580.815 576.431 581.213 575.726C581.627 575.02 581.834 574.162 581.834 573.15C581.834 572.138 581.635 571.279 581.236 570.574C580.838 569.868 580.316 569.347 579.672 569.01C579.028 568.657 578.331 568.481 577.579 568.481C576.813 568.481 576.107 568.657 575.463 569.01C574.835 569.347 574.329 569.868 573.945 570.574C573.562 571.279 573.37 572.138 573.37 573.15C573.37 574.177 573.554 575.043 573.922 575.749C574.306 576.454 574.812 576.983 575.44 577.336C576.069 577.673 576.759 577.842 577.51 577.842ZM597.903 566.871V579.475H595.81V577.612C595.411 578.256 594.852 578.762 594.131 579.13C593.426 579.482 592.644 579.659 591.785 579.659C590.804 579.659 589.922 579.459 589.14 579.061C588.358 578.647 587.737 578.033 587.277 577.221C586.832 576.408 586.61 575.419 586.61 574.254V566.871H588.68V573.978C588.68 575.22 588.994 576.178 589.623 576.853C590.252 577.512 591.11 577.842 592.199 577.842C593.318 577.842 594.2 577.497 594.844 576.807C595.488 576.117 595.81 575.112 595.81 573.794V566.871H597.903ZM609.662 562.455V579.475H607.569V562.455H609.662ZM614.31 564.824C613.911 564.824 613.574 564.686 613.298 564.41C613.022 564.134 612.884 563.796 612.884 563.398C612.884 562.999 613.022 562.662 613.298 562.386C613.574 562.11 613.911 561.972 614.31 561.972C614.693 561.972 615.015 562.11 615.276 562.386C615.552 562.662 615.69 562.999 615.69 563.398C615.69 563.796 615.552 564.134 615.276 564.41C615.015 564.686 614.693 564.824 614.31 564.824ZM615.322 566.871V579.475H613.229V566.871H615.322ZM625.927 579.475L620.982 573.909V579.475H618.889V562.455H620.982V572.46L625.835 566.871H628.756L622.822 573.15L628.779 579.475H625.927ZM642.226 572.69C642.226 573.088 642.203 573.51 642.157 573.955H632.083C632.16 575.197 632.581 576.17 633.348 576.876C634.13 577.566 635.073 577.911 636.177 577.911C637.082 577.911 637.833 577.704 638.431 577.29C639.044 576.86 639.474 576.293 639.719 575.588H641.973C641.636 576.799 640.961 577.788 639.949 578.555C638.937 579.306 637.68 579.682 636.177 579.682C634.981 579.682 633.908 579.413 632.957 578.877C632.022 578.34 631.286 577.581 630.749 576.6C630.212 575.603 629.944 574.453 629.944 573.15C629.944 571.846 630.205 570.704 630.726 569.723C631.247 568.741 631.976 567.99 632.911 567.469C633.862 566.932 634.95 566.664 636.177 566.664C637.373 566.664 638.431 566.924 639.351 567.446C640.271 567.967 640.976 568.688 641.467 569.608C641.973 570.512 642.226 571.54 642.226 572.69ZM640.064 572.253C640.064 571.455 639.888 570.773 639.535 570.206C639.182 569.623 638.699 569.186 638.086 568.895C637.488 568.588 636.821 568.435 636.085 568.435C635.027 568.435 634.122 568.772 633.371 569.447C632.635 570.121 632.213 571.057 632.106 572.253H640.064ZM644.207 573.127C644.207 571.839 644.467 570.712 644.989 569.746C645.51 568.764 646.223 568.005 647.128 567.469C648.048 566.932 649.075 566.664 650.21 566.664C651.191 566.664 652.103 566.894 652.947 567.354C653.79 567.798 654.434 568.389 654.879 569.125V562.455H656.995V579.475H654.879V577.106C654.465 577.857 653.851 578.478 653.039 578.969C652.226 579.444 651.275 579.682 650.187 579.682C649.067 579.682 648.048 579.406 647.128 578.854C646.223 578.302 645.51 577.527 644.989 576.531C644.467 575.534 644.207 574.399 644.207 573.127ZM654.879 573.15C654.879 572.199 654.687 571.371 654.304 570.666C653.92 569.96 653.399 569.424 652.74 569.056C652.096 568.672 651.383 568.481 650.601 568.481C649.819 568.481 649.106 568.665 648.462 569.033C647.818 569.401 647.304 569.937 646.921 570.643C646.537 571.348 646.346 572.176 646.346 573.127C646.346 574.093 646.537 574.936 646.921 575.657C647.304 576.362 647.818 576.906 648.462 577.29C649.106 577.658 649.819 577.842 650.601 577.842C651.383 577.842 652.096 577.658 652.74 577.29C653.399 576.906 653.92 576.362 654.304 575.657C654.687 574.936 654.879 574.1 654.879 573.15ZM671.793 568.596H669.148V579.475H667.055V568.596H665.422V566.871H667.055V565.974C667.055 564.563 667.415 563.536 668.136 562.892C668.872 562.232 670.045 561.903 671.655 561.903V563.651C670.735 563.651 670.083 563.835 669.7 564.203C669.332 564.555 669.148 565.146 669.148 565.974V566.871H671.793V568.596ZM676.326 568.918C676.694 568.197 677.215 567.637 677.89 567.239C678.58 566.84 679.416 566.641 680.397 566.641V568.803H679.845C677.499 568.803 676.326 570.075 676.326 572.621V579.475H674.233V566.871H676.326V568.918ZM688.31 579.682C687.129 579.682 686.056 579.413 685.09 578.877C684.139 578.34 683.388 577.581 682.836 576.6C682.299 575.603 682.031 574.453 682.031 573.15C682.031 571.862 682.307 570.727 682.859 569.746C683.426 568.749 684.193 567.99 685.159 567.469C686.125 566.932 687.206 566.664 688.402 566.664C689.598 566.664 690.679 566.932 691.645 567.469C692.611 567.99 693.37 568.741 693.922 569.723C694.489 570.704 694.773 571.846 694.773 573.15C694.773 574.453 694.482 575.603 693.899 576.6C693.332 577.581 692.557 578.34 691.576 578.877C690.595 579.413 689.506 579.682 688.31 579.682ZM688.31 577.842C689.061 577.842 689.767 577.665 690.426 577.313C691.085 576.96 691.614 576.431 692.013 575.726C692.427 575.02 692.634 574.162 692.634 573.15C692.634 572.138 692.435 571.279 692.036 570.574C691.637 569.868 691.116 569.347 690.472 569.01C689.828 568.657 689.13 568.481 688.379 568.481C687.612 568.481 686.907 568.657 686.263 569.01C685.634 569.347 685.128 569.868 684.745 570.574C684.362 571.279 684.17 572.138 684.17 573.15C684.17 574.177 684.354 575.043 684.722 575.749C685.105 576.454 685.611 576.983 686.24 577.336C686.869 577.673 687.559 577.842 688.31 577.842ZM712.682 566.641C713.663 566.641 714.537 566.848 715.304 567.262C716.071 567.66 716.676 568.266 717.121 569.079C717.566 569.891 717.788 570.88 717.788 572.046V579.475H715.718V572.345C715.718 571.087 715.404 570.129 714.775 569.47C714.162 568.795 713.326 568.458 712.268 568.458C711.179 568.458 710.313 568.81 709.669 569.516C709.025 570.206 708.703 571.21 708.703 572.529V579.475H706.633V572.345C706.633 571.087 706.319 570.129 705.69 569.47C705.077 568.795 704.241 568.458 703.183 568.458C702.094 568.458 701.228 568.81 700.584 569.516C699.94 570.206 699.618 571.21 699.618 572.529V579.475H697.525V566.871H699.618V568.688C700.032 568.028 700.584 567.522 701.274 567.17C701.979 566.817 702.754 566.641 703.597 566.641C704.655 566.641 705.59 566.878 706.403 567.354C707.216 567.829 707.821 568.527 708.22 569.447C708.573 568.557 709.155 567.867 709.968 567.377C710.781 566.886 711.685 566.641 712.682 566.641ZM240.325 605.596V613.025C240.325 613.638 240.455 614.075 240.716 614.336C240.977 614.581 241.429 614.704 242.073 614.704H243.614V616.475H241.728C240.563 616.475 239.689 616.206 239.106 615.67C238.523 615.133 238.232 614.251 238.232 613.025V605.596H236.599V603.871H238.232V600.697H240.325V603.871H243.614V605.596H240.325ZM257.328 603.871V616.475H255.235V614.612C254.836 615.256 254.277 615.762 253.556 616.13C252.851 616.482 252.069 616.659 251.21 616.659C250.229 616.659 249.347 616.459 248.565 616.061C247.783 615.647 247.162 615.033 246.702 614.221C246.257 613.408 246.035 612.419 246.035 611.254V603.871H248.105V610.978C248.105 612.22 248.419 613.178 249.048 613.853C249.677 614.512 250.535 614.842 251.624 614.842C252.743 614.842 253.625 614.497 254.269 613.807C254.913 613.117 255.235 612.112 255.235 610.794V603.871H257.328ZM263.415 605.596V613.025C263.415 613.638 263.545 614.075 263.806 614.336C264.066 614.581 264.519 614.704 265.163 614.704H266.704V616.475H264.818C263.652 616.475 262.778 616.206 262.196 615.67C261.613 615.133 261.322 614.251 261.322 613.025V605.596H259.689V603.871H261.322V600.697H263.415V603.871H266.704V605.596H263.415ZM274.737 616.682C273.556 616.682 272.483 616.413 271.517 615.877C270.566 615.34 269.815 614.581 269.263 613.6C268.726 612.603 268.458 611.453 268.458 610.15C268.458 608.862 268.734 607.727 269.286 606.746C269.853 605.749 270.62 604.99 271.586 604.469C272.552 603.932 273.633 603.664 274.829 603.664C276.025 603.664 277.106 603.932 278.072 604.469C279.038 604.99 279.797 605.741 280.349 606.723C280.916 607.704 281.2 608.846 281.2 610.15C281.2 611.453 280.908 612.603 280.326 613.6C279.758 614.581 278.984 615.34 278.003 615.877C277.021 616.413 275.933 616.682 274.737 616.682ZM274.737 614.842C275.488 614.842 276.193 614.665 276.853 614.313C277.512 613.96 278.041 613.431 278.44 612.726C278.854 612.02 279.061 611.162 279.061 610.15C279.061 609.138 278.861 608.279 278.463 607.574C278.064 606.868 277.543 606.347 276.899 606.01C276.255 605.657 275.557 605.481 274.806 605.481C274.039 605.481 273.334 605.657 272.69 606.01C272.061 606.347 271.555 606.868 271.172 607.574C270.788 608.279 270.597 609.138 270.597 610.15C270.597 611.177 270.781 612.043 271.149 612.749C271.532 613.454 272.038 613.983 272.667 614.336C273.295 614.673 273.985 614.842 274.737 614.842ZM286.045 605.918C286.413 605.197 286.934 604.637 287.609 604.239C288.299 603.84 289.134 603.641 290.116 603.641V605.803H289.564C287.218 605.803 286.045 607.075 286.045 609.621V616.475H283.952V603.871H286.045V605.918ZM293.613 601.824C293.214 601.824 292.877 601.686 292.601 601.41C292.325 601.134 292.187 600.796 292.187 600.398C292.187 599.999 292.325 599.662 292.601 599.386C292.877 599.11 293.214 598.972 293.613 598.972C293.996 598.972 294.318 599.11 294.579 599.386C294.855 599.662 294.993 599.999 294.993 600.398C294.993 600.796 294.855 601.134 294.579 601.41C294.318 601.686 293.996 601.824 293.613 601.824ZM294.625 603.871V616.475H292.532V603.871H294.625ZM297.41 610.127C297.41 608.839 297.671 607.712 298.192 606.746C298.713 605.764 299.426 605.005 300.331 604.469C301.251 603.932 302.271 603.664 303.39 603.664C304.494 603.664 305.452 603.901 306.265 604.377C307.078 604.852 307.683 605.45 308.082 606.171V603.871H310.198V616.475H308.082V614.129C307.668 614.865 307.047 615.478 306.219 615.969C305.406 616.444 304.456 616.682 303.367 616.682C302.248 616.682 301.236 616.406 300.331 615.854C299.426 615.302 298.713 614.527 298.192 613.531C297.671 612.534 297.41 611.399 297.41 610.127ZM308.082 610.15C308.082 609.199 307.89 608.371 307.507 607.666C307.124 606.96 306.602 606.424 305.943 606.056C305.299 605.672 304.586 605.481 303.804 605.481C303.022 605.481 302.309 605.665 301.665 606.033C301.021 606.401 300.507 606.937 300.124 607.643C299.741 608.348 299.549 609.176 299.549 610.127C299.549 611.093 299.741 611.936 300.124 612.657C300.507 613.362 301.021 613.906 301.665 614.29C302.309 614.658 303.022 614.842 303.804 614.842C304.586 614.842 305.299 614.658 305.943 614.29C306.602 613.906 307.124 613.362 307.507 612.657C307.89 611.936 308.082 611.1 308.082 610.15ZM315.828 599.455V616.475H313.735V599.455H315.828ZM323.857 616.682C322.891 616.682 322.025 616.521 321.258 616.199C320.491 615.861 319.886 615.401 319.441 614.819C318.996 614.221 318.751 613.538 318.705 612.772H320.867C320.928 613.4 321.22 613.914 321.741 614.313C322.278 614.711 322.975 614.911 323.834 614.911C324.631 614.911 325.26 614.734 325.72 614.382C326.18 614.029 326.41 613.584 326.41 613.048C326.41 612.496 326.165 612.089 325.674 611.829C325.183 611.553 324.424 611.284 323.397 611.024C322.462 610.778 321.695 610.533 321.097 610.288C320.514 610.027 320.008 609.651 319.579 609.161C319.165 608.655 318.958 607.995 318.958 607.183C318.958 606.539 319.15 605.948 319.533 605.412C319.916 604.875 320.461 604.453 321.166 604.147C321.871 603.825 322.676 603.664 323.581 603.664C324.976 603.664 326.103 604.016 326.962 604.722C327.821 605.427 328.281 606.393 328.342 607.62H326.249C326.203 606.96 325.935 606.431 325.444 606.033C324.969 605.634 324.325 605.435 323.512 605.435C322.761 605.435 322.163 605.596 321.718 605.918C321.273 606.24 321.051 606.661 321.051 607.183C321.051 607.597 321.181 607.942 321.442 608.218C321.718 608.478 322.055 608.693 322.454 608.862C322.868 609.015 323.435 609.191 324.156 609.391C325.061 609.636 325.797 609.881 326.364 610.127C326.931 610.357 327.414 610.709 327.813 611.185C328.227 611.66 328.442 612.281 328.457 613.048C328.457 613.738 328.265 614.359 327.882 614.911C327.499 615.463 326.954 615.9 326.249 616.222C325.559 616.528 324.762 616.682 323.857 616.682ZM343.04 616.682C341.86 616.682 340.786 616.413 339.82 615.877C338.87 615.34 338.118 614.581 337.566 613.6C337.03 612.603 336.761 611.453 336.761 610.15C336.761 608.862 337.037 607.727 337.589 606.746C338.157 605.749 338.923 604.99 339.889 604.469C340.855 603.932 341.936 603.664 343.132 603.664C344.328 603.664 345.409 603.932 346.375 604.469C347.341 604.99 348.1 605.741 348.652 606.723C349.22 607.704 349.503 608.846 349.503 610.15C349.503 611.453 349.212 612.603 348.629 613.6C348.062 614.581 347.288 615.34 346.306 615.877C345.325 616.413 344.236 616.682 343.04 616.682ZM343.04 614.842C343.792 614.842 344.497 614.665 345.156 614.313C345.816 613.96 346.345 613.431 346.743 612.726C347.157 612.02 347.364 611.162 347.364 610.15C347.364 609.138 347.165 608.279 346.766 607.574C346.368 606.868 345.846 606.347 345.202 606.01C344.558 605.657 343.861 605.481 343.109 605.481C342.343 605.481 341.637 605.657 340.993 606.01C340.365 606.347 339.859 606.868 339.475 607.574C339.092 608.279 338.9 609.138 338.9 610.15C338.9 611.177 339.084 612.043 339.452 612.749C339.836 613.454 340.342 613.983 340.97 614.336C341.599 614.673 342.289 614.842 343.04 614.842ZM354.348 605.918C354.716 605.197 355.238 604.637 355.912 604.239C356.602 603.84 357.438 603.641 358.419 603.641V605.803H357.867C355.521 605.803 354.348 607.075 354.348 609.621V616.475H352.255V603.871H354.348V605.918ZM369.06 606.194C369.474 605.473 370.088 604.875 370.9 604.4C371.728 603.909 372.687 603.664 373.775 603.664C374.895 603.664 375.907 603.932 376.811 604.469C377.731 605.005 378.452 605.764 378.973 606.746C379.495 607.712 379.755 608.839 379.755 610.127C379.755 611.399 379.495 612.534 378.973 613.531C378.452 614.527 377.731 615.302 376.811 615.854C375.907 616.406 374.895 616.682 373.775 616.682C372.702 616.682 371.751 616.444 370.923 615.969C370.111 615.478 369.49 614.872 369.06 614.152V622.455H366.967V603.871H369.06V606.194ZM377.616 610.127C377.616 609.176 377.425 608.348 377.041 607.643C376.658 606.937 376.137 606.401 375.477 606.033C374.833 605.665 374.12 605.481 373.338 605.481C372.572 605.481 371.859 605.672 371.199 606.056C370.555 606.424 370.034 606.968 369.635 607.689C369.252 608.394 369.06 609.214 369.06 610.15C369.06 611.1 369.252 611.936 369.635 612.657C370.034 613.362 370.555 613.906 371.199 614.29C371.859 614.658 372.572 614.842 373.338 614.842C374.12 614.842 374.833 614.658 375.477 614.29C376.137 613.906 376.658 613.362 377.041 612.657C377.425 611.936 377.616 611.093 377.616 610.127ZM388.007 616.682C386.827 616.682 385.753 616.413 384.787 615.877C383.837 615.34 383.085 614.581 382.533 613.6C381.997 612.603 381.728 611.453 381.728 610.15C381.728 608.862 382.004 607.727 382.556 606.746C383.124 605.749 383.89 604.99 384.856 604.469C385.822 603.932 386.903 603.664 388.099 603.664C389.295 603.664 390.376 603.932 391.342 604.469C392.308 604.99 393.067 605.741 393.619 606.723C394.187 607.704 394.47 608.846 394.47 610.15C394.47 611.453 394.179 612.603 393.596 613.6C393.029 614.581 392.255 615.34 391.273 615.877C390.292 616.413 389.203 616.682 388.007 616.682ZM388.007 614.842C388.759 614.842 389.464 614.665 390.123 614.313C390.783 613.96 391.312 613.431 391.71 612.726C392.124 612.02 392.331 611.162 392.331 610.15C392.331 609.138 392.132 608.279 391.733 607.574C391.335 606.868 390.813 606.347 390.169 606.01C389.525 605.657 388.828 605.481 388.076 605.481C387.31 605.481 386.604 605.657 385.96 606.01C385.332 606.347 384.826 606.868 384.442 607.574C384.059 608.279 383.867 609.138 383.867 610.15C383.867 611.177 384.051 612.043 384.419 612.749C384.803 613.454 385.309 613.983 385.937 614.336C386.566 614.673 387.256 614.842 388.007 614.842ZM401.684 616.682C400.718 616.682 399.852 616.521 399.085 616.199C398.319 615.861 397.713 615.401 397.268 614.819C396.824 614.221 396.578 613.538 396.532 612.772H398.694C398.756 613.4 399.047 613.914 399.568 614.313C400.105 614.711 400.803 614.911 401.661 614.911C402.459 614.911 403.087 614.734 403.547 614.382C404.007 614.029 404.237 613.584 404.237 613.048C404.237 612.496 403.992 612.089 403.501 611.829C403.011 611.553 402.252 611.284 401.224 611.024C400.289 610.778 399.522 610.533 398.924 610.288C398.342 610.027 397.836 609.651 397.406 609.161C396.992 608.655 396.785 607.995 396.785 607.183C396.785 606.539 396.977 605.948 397.36 605.412C397.744 604.875 398.288 604.453 398.993 604.147C399.699 603.825 400.504 603.664 401.408 603.664C402.804 603.664 403.931 604.016 404.789 604.722C405.648 605.427 406.108 606.393 406.169 607.62H404.076C404.03 606.96 403.762 606.431 403.271 606.033C402.796 605.634 402.152 605.435 401.339 605.435C400.588 605.435 399.99 605.596 399.545 605.918C399.101 606.24 398.878 606.661 398.878 607.183C398.878 607.597 399.009 607.942 399.269 608.218C399.545 608.478 399.883 608.693 400.281 608.862C400.695 609.015 401.263 609.191 401.983 609.391C402.888 609.636 403.624 609.881 404.191 610.127C404.759 610.357 405.242 610.709 405.64 611.185C406.054 611.66 406.269 612.281 406.284 613.048C406.284 613.738 406.093 614.359 405.709 614.911C405.326 615.463 404.782 615.9 404.076 616.222C403.386 616.528 402.589 616.682 401.684 616.682ZM411.792 605.596V613.025C411.792 613.638 411.922 614.075 412.183 614.336C412.443 614.581 412.896 614.704 413.54 614.704H415.081V616.475H413.195C412.029 616.475 411.155 616.206 410.573 615.67C409.99 615.133 409.699 614.251 409.699 613.025V605.596H408.066V603.871H409.699V600.697H411.792V603.871H415.081V605.596H411.792ZM422.079 616.682C421.113 616.682 420.246 616.521 419.48 616.199C418.713 615.861 418.107 615.401 417.663 614.819C417.218 614.221 416.973 613.538 416.927 612.772H419.089C419.15 613.4 419.441 613.914 419.963 614.313C420.499 614.711 421.197 614.911 422.056 614.911C422.853 614.911 423.482 614.734 423.942 614.382C424.402 614.029 424.632 613.584 424.632 613.048C424.632 612.496 424.386 612.089 423.896 611.829C423.405 611.553 422.646 611.284 421.619 611.024C420.683 610.778 419.917 610.533 419.319 610.288C418.736 610.027 418.23 609.651 417.801 609.161C417.387 608.655 417.18 607.995 417.18 607.183C417.18 606.539 417.371 605.948 417.755 605.412C418.138 604.875 418.682 604.453 419.388 604.147C420.093 603.825 420.898 603.664 421.803 603.664C423.198 603.664 424.325 604.016 425.184 604.722C426.042 605.427 426.502 606.393 426.564 607.62H424.471C424.425 606.96 424.156 606.431 423.666 606.033C423.19 605.634 422.546 605.435 421.734 605.435C420.982 605.435 420.384 605.596 419.94 605.918C419.495 606.24 419.273 606.661 419.273 607.183C419.273 607.597 419.403 607.942 419.664 608.218C419.94 608.478 420.277 608.693 420.676 608.862C421.09 609.015 421.657 609.191 422.378 609.391C423.282 609.636 424.018 609.881 424.586 610.127C425.153 610.357 425.636 610.709 426.035 611.185C426.449 611.66 426.663 612.281 426.679 613.048C426.679 613.738 426.487 614.359 426.104 614.911C425.72 615.463 425.176 615.9 424.471 616.222C423.781 616.528 422.983 616.682 422.079 616.682ZM431.795 613.577L429.219 619.764H427.816L429.495 613.577H431.795ZM451.181 603.871L443.591 622.409H441.429L443.913 616.337L438.83 603.871H441.153L445.109 614.083L449.019 603.871H451.181ZM458.782 616.682C457.601 616.682 456.528 616.413 455.562 615.877C454.611 615.34 453.86 614.581 453.308 613.6C452.771 612.603 452.503 611.453 452.503 610.15C452.503 608.862 452.779 607.727 453.331 606.746C453.898 605.749 454.665 604.99 455.631 604.469C456.597 603.932 457.678 603.664 458.874 603.664C460.07 603.664 461.151 603.932 462.117 604.469C463.083 604.99 463.842 605.741 464.394 606.723C464.961 607.704 465.245 608.846 465.245 610.15C465.245 611.453 464.953 612.603 464.371 613.6C463.803 614.581 463.029 615.34 462.048 615.877C461.066 616.413 459.978 616.682 458.782 616.682ZM458.782 614.842C459.533 614.842 460.238 614.665 460.898 614.313C461.557 613.96 462.086 613.431 462.485 612.726C462.899 612.02 463.106 611.162 463.106 610.15C463.106 609.138 462.906 608.279 462.508 607.574C462.109 606.868 461.588 606.347 460.944 606.01C460.3 605.657 459.602 605.481 458.851 605.481C458.084 605.481 457.379 605.657 456.735 606.01C456.106 606.347 455.6 606.868 455.217 607.574C454.833 608.279 454.642 609.138 454.642 610.15C454.642 611.177 454.826 612.043 455.194 612.749C455.577 613.454 456.083 613.983 456.712 614.336C457.34 614.673 458.03 614.842 458.782 614.842ZM479.175 603.871V616.475H477.082V614.612C476.683 615.256 476.123 615.762 475.403 616.13C474.697 616.482 473.915 616.659 473.057 616.659C472.075 616.659 471.194 616.459 470.412 616.061C469.63 615.647 469.009 615.033 468.549 614.221C468.104 613.408 467.882 612.419 467.882 611.254V603.871H469.952V610.978C469.952 612.22 470.266 613.178 470.895 613.853C471.523 614.512 472.382 614.842 473.471 614.842C474.59 614.842 475.472 614.497 476.116 613.807C476.76 613.117 477.082 612.112 477.082 610.794V603.871H479.175ZM488.058 610.15C488.058 608.846 488.319 607.712 488.84 606.746C489.362 605.764 490.082 605.005 491.002 604.469C491.938 603.932 493.003 603.664 494.199 603.664C495.748 603.664 497.021 604.039 498.017 604.791C499.029 605.542 499.696 606.585 500.018 607.919H497.764C497.55 607.152 497.128 606.546 496.499 606.102C495.886 605.657 495.119 605.435 494.199 605.435C493.003 605.435 492.037 605.849 491.301 606.677C490.565 607.489 490.197 608.647 490.197 610.15C490.197 611.668 490.565 612.841 491.301 613.669C492.037 614.497 493.003 614.911 494.199 614.911C495.119 614.911 495.886 614.696 496.499 614.267C497.113 613.837 497.534 613.224 497.764 612.427H500.018C499.681 613.715 499.006 614.75 497.994 615.532C496.982 616.298 495.717 616.682 494.199 616.682C493.003 616.682 491.938 616.413 491.002 615.877C490.082 615.34 489.362 614.581 488.84 613.6C488.319 612.618 488.058 611.468 488.058 610.15ZM502.029 610.127C502.029 608.839 502.29 607.712 502.811 606.746C503.332 605.764 504.045 605.005 504.95 604.469C505.87 603.932 506.89 603.664 508.009 603.664C509.113 603.664 510.071 603.901 510.884 604.377C511.697 604.852 512.302 605.45 512.701 606.171V603.871H514.817V616.475H512.701V614.129C512.287 614.865 511.666 615.478 510.838 615.969C510.025 616.444 509.075 616.682 507.986 616.682C506.867 616.682 505.855 616.406 504.95 615.854C504.045 615.302 503.332 614.527 502.811 613.531C502.29 612.534 502.029 611.399 502.029 610.127ZM512.701 610.15C512.701 609.199 512.509 608.371 512.126 607.666C511.743 606.96 511.221 606.424 510.562 606.056C509.918 605.672 509.205 605.481 508.423 605.481C507.641 605.481 506.928 605.665 506.284 606.033C505.64 606.401 505.126 606.937 504.743 607.643C504.36 608.348 504.168 609.176 504.168 610.127C504.168 611.093 504.36 611.936 504.743 612.657C505.126 613.362 505.64 613.906 506.284 614.29C506.928 614.658 507.641 614.842 508.423 614.842C509.205 614.842 509.918 614.658 510.562 614.29C511.221 613.906 511.743 613.362 512.126 612.657C512.509 611.936 512.701 611.1 512.701 610.15ZM524.495 603.641C526.028 603.641 527.27 604.108 528.221 605.044C529.172 605.964 529.647 607.298 529.647 609.046V616.475H527.577V609.345C527.577 608.087 527.263 607.129 526.634 606.47C526.005 605.795 525.147 605.458 524.058 605.458C522.954 605.458 522.072 605.803 521.413 606.493C520.769 607.183 520.447 608.187 520.447 609.506V616.475H518.354V603.871H520.447V605.665C520.861 605.021 521.421 604.522 522.126 604.17C522.847 603.817 523.636 603.641 524.495 603.641ZM541.291 606.194C541.705 605.473 542.318 604.875 543.131 604.4C543.959 603.909 544.917 603.664 546.006 603.664C547.125 603.664 548.137 603.932 549.042 604.469C549.962 605.005 550.682 605.764 551.204 606.746C551.725 607.712 551.986 608.839 551.986 610.127C551.986 611.399 551.725 612.534 551.204 613.531C550.682 614.527 549.962 615.302 549.042 615.854C548.137 616.406 547.125 616.682 546.006 616.682C544.932 616.682 543.982 616.444 543.154 615.969C542.341 615.478 541.72 614.872 541.291 614.152V622.455H539.198V603.871H541.291V606.194ZM549.847 610.127C549.847 609.176 549.655 608.348 549.272 607.643C548.888 606.937 548.367 606.401 547.708 606.033C547.064 605.665 546.351 605.481 545.569 605.481C544.802 605.481 544.089 605.672 543.43 606.056C542.786 606.424 542.264 606.968 541.866 607.689C541.482 608.394 541.291 609.214 541.291 610.15C541.291 611.1 541.482 611.936 541.866 612.657C542.264 613.362 542.786 613.906 543.43 614.29C544.089 614.658 544.802 614.842 545.569 614.842C546.351 614.842 547.064 614.658 547.708 614.29C548.367 613.906 548.888 613.362 549.272 612.657C549.655 611.936 549.847 611.093 549.847 610.127ZM565.919 603.871V616.475H563.826V614.612C563.427 615.256 562.867 615.762 562.147 616.13C561.441 616.482 560.659 616.659 559.801 616.659C558.819 616.659 557.938 616.459 557.156 616.061C556.374 615.647 555.753 615.033 555.293 614.221C554.848 613.408 554.626 612.419 554.626 611.254V603.871H556.696V610.978C556.696 612.22 557.01 613.178 557.639 613.853C558.267 614.512 559.126 614.842 560.215 614.842C561.334 614.842 562.216 614.497 562.86 613.807C563.504 613.117 563.826 612.112 563.826 610.794V603.871H565.919ZM571.546 605.918C571.914 605.197 572.435 604.637 573.11 604.239C573.8 603.84 574.635 603.641 575.617 603.641V605.803H575.065C572.719 605.803 571.546 607.075 571.546 609.621V616.475H569.453V603.871H571.546V605.918ZM577.251 610.15C577.251 608.846 577.511 607.712 578.033 606.746C578.554 605.764 579.275 605.005 580.195 604.469C581.13 603.932 582.196 603.664 583.392 603.664C584.94 603.664 586.213 604.039 587.21 604.791C588.222 605.542 588.889 606.585 589.211 607.919H586.957C586.742 607.152 586.32 606.546 585.692 606.102C585.078 605.657 584.312 605.435 583.392 605.435C582.196 605.435 581.23 605.849 580.494 606.677C579.758 607.489 579.39 608.647 579.39 610.15C579.39 611.668 579.758 612.841 580.494 613.669C581.23 614.497 582.196 614.911 583.392 614.911C584.312 614.911 585.078 614.696 585.692 614.267C586.305 613.837 586.727 613.224 586.957 612.427H589.211C588.873 613.715 588.199 614.75 587.187 615.532C586.175 616.298 584.91 616.682 583.392 616.682C582.196 616.682 581.13 616.413 580.195 615.877C579.275 615.34 578.554 614.581 578.033 613.6C577.511 612.618 577.251 611.468 577.251 610.15ZM598.259 603.641C599.21 603.641 600.069 603.848 600.835 604.262C601.602 604.66 602.2 605.266 602.629 606.079C603.074 606.891 603.296 607.88 603.296 609.046V616.475H601.226V609.345C601.226 608.087 600.912 607.129 600.283 606.47C599.655 605.795 598.796 605.458 597.707 605.458C596.603 605.458 595.722 605.803 595.062 606.493C594.418 607.183 594.096 608.187 594.096 609.506V616.475H592.003V599.455H594.096V605.665C594.51 605.021 595.078 604.522 595.798 604.17C596.534 603.817 597.355 603.641 598.259 603.641ZM605.933 610.127C605.933 608.839 606.194 607.712 606.715 606.746C607.237 605.764 607.95 605.005 608.854 604.469C609.774 603.932 610.794 603.664 611.913 603.664C613.017 603.664 613.976 603.901 614.788 604.377C615.601 604.852 616.207 605.45 616.605 606.171V603.871H618.721V616.475H616.605V614.129C616.191 614.865 615.57 615.478 614.742 615.969C613.93 616.444 612.979 616.682 611.89 616.682C610.771 616.682 609.759 616.406 608.854 615.854C607.95 615.302 607.237 614.527 606.715 613.531C606.194 612.534 605.933 611.399 605.933 610.127ZM616.605 610.15C616.605 609.199 616.414 608.371 616.03 607.666C615.647 606.96 615.126 606.424 614.466 606.056C613.822 605.672 613.109 605.481 612.327 605.481C611.545 605.481 610.832 605.665 610.188 606.033C609.544 606.401 609.031 606.937 608.647 607.643C608.264 608.348 608.072 609.176 608.072 610.127C608.072 611.093 608.264 611.936 608.647 612.657C609.031 613.362 609.544 613.906 610.188 614.29C610.832 614.658 611.545 614.842 612.327 614.842C613.109 614.842 613.822 614.658 614.466 614.29C615.126 613.906 615.647 613.362 616.03 612.657C616.414 611.936 616.605 611.1 616.605 610.15ZM626.72 616.682C625.754 616.682 624.888 616.521 624.121 616.199C623.355 615.861 622.749 615.401 622.304 614.819C621.86 614.221 621.614 613.538 621.568 612.772H623.73C623.792 613.4 624.083 613.914 624.604 614.313C625.141 614.711 625.839 614.911 626.697 614.911C627.495 614.911 628.123 614.734 628.583 614.382C629.043 614.029 629.273 613.584 629.273 613.048C629.273 612.496 629.028 612.089 628.537 611.829C628.047 611.553 627.288 611.284 626.26 611.024C625.325 610.778 624.558 610.533 623.96 610.288C623.378 610.027 622.872 609.651 622.442 609.161C622.028 608.655 621.821 607.995 621.821 607.183C621.821 606.539 622.013 605.948 622.396 605.412C622.78 604.875 623.324 604.453 624.029 604.147C624.735 603.825 625.54 603.664 626.444 603.664C627.84 603.664 628.967 604.016 629.825 604.722C630.684 605.427 631.144 606.393 631.205 607.62H629.112C629.066 606.96 628.798 606.431 628.307 606.033C627.832 605.634 627.188 605.435 626.375 605.435C625.624 605.435 625.026 605.596 624.581 605.918C624.137 606.24 623.914 606.661 623.914 607.183C623.914 607.597 624.045 607.942 624.305 608.218C624.581 608.478 624.919 608.693 625.317 608.862C625.731 609.015 626.299 609.191 627.019 609.391C627.924 609.636 628.66 609.881 629.227 610.127C629.795 610.357 630.278 610.709 630.676 611.185C631.09 611.66 631.305 612.281 631.32 613.048C631.32 613.738 631.129 614.359 630.745 614.911C630.362 615.463 629.818 615.9 629.112 616.222C628.422 616.528 627.625 616.682 626.72 616.682ZM645.775 609.69C645.775 610.088 645.752 610.51 645.706 610.955H635.632C635.709 612.197 636.13 613.17 636.897 613.876C637.679 614.566 638.622 614.911 639.726 614.911C640.631 614.911 641.382 614.704 641.98 614.29C642.593 613.86 643.023 613.293 643.268 612.588H645.522C645.185 613.799 644.51 614.788 643.498 615.555C642.486 616.306 641.229 616.682 639.726 616.682C638.53 616.682 637.457 616.413 636.506 615.877C635.571 615.34 634.835 614.581 634.298 613.6C633.761 612.603 633.493 611.453 633.493 610.15C633.493 608.846 633.754 607.704 634.275 606.723C634.796 605.741 635.525 604.99 636.46 604.469C637.411 603.932 638.499 603.664 639.726 603.664C640.922 603.664 641.98 603.924 642.9 604.446C643.82 604.967 644.525 605.688 645.016 606.608C645.522 607.512 645.775 608.54 645.775 609.69ZM643.613 609.253C643.613 608.455 643.437 607.773 643.084 607.206C642.731 606.623 642.248 606.186 641.635 605.895C641.037 605.588 640.37 605.435 639.634 605.435C638.576 605.435 637.671 605.772 636.92 606.447C636.184 607.121 635.762 608.057 635.655 609.253H643.613ZM657.222 605.596V613.025C657.222 613.638 657.353 614.075 657.613 614.336C657.874 614.581 658.326 614.704 658.97 614.704H660.511V616.475H658.625C657.46 616.475 656.586 616.206 656.003 615.67C655.421 615.133 655.129 614.251 655.129 613.025V605.596H653.496V603.871H655.129V600.697H657.222V603.871H660.511V605.596H657.222ZM669.303 603.641C670.254 603.641 671.113 603.848 671.879 604.262C672.646 604.66 673.244 605.266 673.673 606.079C674.118 606.891 674.34 607.88 674.34 609.046V616.475H672.27V609.345C672.27 608.087 671.956 607.129 671.327 606.47C670.699 605.795 669.84 605.458 668.751 605.458C667.647 605.458 666.766 605.803 666.106 606.493C665.462 607.183 665.14 608.187 665.14 609.506V616.475H663.047V599.455H665.14V605.665C665.554 605.021 666.122 604.522 666.842 604.17C667.578 603.817 668.399 603.641 669.303 603.641ZM689.259 609.69C689.259 610.088 689.236 610.51 689.19 610.955H679.116C679.193 612.197 679.615 613.17 680.381 613.876C681.163 614.566 682.106 614.911 683.21 614.911C684.115 614.911 684.866 614.704 685.464 614.29C686.078 613.86 686.507 613.293 686.752 612.588H689.006C688.669 613.799 687.994 614.788 686.982 615.555C685.97 616.306 684.713 616.682 683.21 616.682C682.014 616.682 680.941 616.413 679.99 615.877C679.055 615.34 678.319 614.581 677.782 613.6C677.246 612.603 676.977 611.453 676.977 610.15C676.977 608.846 677.238 607.704 677.759 606.723C678.281 605.741 679.009 604.99 679.944 604.469C680.895 603.932 681.984 603.664 683.21 603.664C684.406 603.664 685.464 603.924 686.384 604.446C687.304 604.967 688.01 605.688 688.5 606.608C689.006 607.512 689.259 608.54 689.259 609.69ZM687.097 609.253C687.097 608.455 686.921 607.773 686.568 607.206C686.216 606.623 685.733 606.186 685.119 605.895C684.521 605.588 683.854 605.435 683.118 605.435C682.06 605.435 681.156 605.772 680.404 606.447C679.668 607.121 679.247 608.057 679.139 609.253H687.097ZM707.179 603.641C708.16 603.641 709.034 603.848 709.801 604.262C710.568 604.66 711.173 605.266 711.618 606.079C712.063 606.891 712.285 607.88 712.285 609.046V616.475H710.215V609.345C710.215 608.087 709.901 607.129 709.272 606.47C708.659 605.795 707.823 605.458 706.765 605.458C705.676 605.458 704.81 605.81 704.166 606.516C703.522 607.206 703.2 608.21 703.2 609.529V616.475H701.13V609.345C701.13 608.087 700.816 607.129 700.187 606.47C699.574 605.795 698.738 605.458 697.68 605.458C696.591 605.458 695.725 605.81 695.081 606.516C694.437 607.206 694.115 608.21 694.115 609.529V616.475H692.022V603.871H694.115V605.688C694.529 605.028 695.081 604.522 695.771 604.17C696.476 603.817 697.251 603.641 698.094 603.641C699.152 603.641 700.087 603.878 700.9 604.354C701.713 604.829 702.318 605.527 702.717 606.447C703.07 605.557 703.652 604.867 704.465 604.377C705.278 603.886 706.182 603.641 707.179 603.641ZM236.99 647.127C236.99 645.839 237.251 644.712 237.772 643.746C238.293 642.764 239.006 642.005 239.911 641.469C240.831 640.932 241.858 640.664 242.993 640.664C243.974 640.664 244.887 640.894 245.73 641.354C246.573 641.798 247.217 642.389 247.662 643.125V636.455H249.778V653.475H247.662V651.106C247.248 651.857 246.635 652.478 245.822 652.969C245.009 653.444 244.059 653.682 242.97 653.682C241.851 653.682 240.831 653.406 239.911 652.854C239.006 652.302 238.293 651.527 237.772 650.531C237.251 649.534 236.99 648.399 236.99 647.127ZM247.662 647.15C247.662 646.199 247.47 645.371 247.087 644.666C246.704 643.96 246.182 643.424 245.523 643.056C244.879 642.672 244.166 642.481 243.384 642.481C242.602 642.481 241.889 642.665 241.245 643.033C240.601 643.401 240.087 643.937 239.704 644.643C239.321 645.348 239.129 646.176 239.129 647.127C239.129 648.093 239.321 648.936 239.704 649.657C240.087 650.362 240.601 650.906 241.245 651.29C241.889 651.658 242.602 651.842 243.384 651.842C244.166 651.842 244.879 651.658 245.523 651.29C246.182 650.906 246.704 650.362 247.087 649.657C247.47 648.936 247.662 648.1 247.662 647.15ZM254.396 638.824C253.997 638.824 253.66 638.686 253.384 638.41C253.108 638.134 252.97 637.796 252.97 637.398C252.97 636.999 253.108 636.662 253.384 636.386C253.66 636.11 253.997 635.972 254.396 635.972C254.779 635.972 255.101 636.11 255.362 636.386C255.638 636.662 255.776 636.999 255.776 637.398C255.776 637.796 255.638 638.134 255.362 638.41C255.101 638.686 254.779 638.824 254.396 638.824ZM255.408 640.871V653.475H253.315V640.871H255.408ZM261.068 642.918C261.436 642.197 261.957 641.637 262.632 641.239C263.322 640.84 264.158 640.641 265.139 640.641V642.803H264.587C262.241 642.803 261.068 644.075 261.068 646.621V653.475H258.975V640.871H261.068V642.918ZM279.055 646.69C279.055 647.088 279.032 647.51 278.986 647.955H268.912C268.989 649.197 269.411 650.17 270.177 650.876C270.959 651.566 271.902 651.911 273.006 651.911C273.911 651.911 274.662 651.704 275.26 651.29C275.874 650.86 276.303 650.293 276.548 649.588H278.802C278.465 650.799 277.79 651.788 276.778 652.555C275.766 653.306 274.509 653.682 273.006 653.682C271.81 653.682 270.737 653.413 269.786 652.877C268.851 652.34 268.115 651.581 267.578 650.6C267.042 649.603 266.773 648.453 266.773 647.15C266.773 645.846 267.034 644.704 267.555 643.723C268.077 642.741 268.805 641.99 269.74 641.469C270.691 640.932 271.78 640.664 273.006 640.664C274.202 640.664 275.26 640.924 276.18 641.446C277.1 641.967 277.806 642.688 278.296 643.608C278.802 644.512 279.055 645.54 279.055 646.69ZM276.893 646.253C276.893 645.455 276.717 644.773 276.364 644.206C276.012 643.623 275.529 643.186 274.915 642.895C274.317 642.588 273.65 642.435 272.914 642.435C271.856 642.435 270.952 642.772 270.2 643.447C269.464 644.121 269.043 645.057 268.935 646.253H276.893ZM281.036 647.15C281.036 645.846 281.297 644.712 281.818 643.746C282.339 642.764 283.06 642.005 283.98 641.469C284.915 640.932 285.981 640.664 287.177 640.664C288.726 640.664 289.998 641.039 290.995 641.791C292.007 642.542 292.674 643.585 292.996 644.919H290.742C290.527 644.152 290.106 643.546 289.477 643.102C288.864 642.657 288.097 642.435 287.177 642.435C285.981 642.435 285.015 642.849 284.279 643.677C283.543 644.489 283.175 645.647 283.175 647.15C283.175 648.668 283.543 649.841 284.279 650.669C285.015 651.497 285.981 651.911 287.177 651.911C288.097 651.911 288.864 651.696 289.477 651.267C290.09 650.837 290.512 650.224 290.742 649.427H292.996C292.659 650.715 291.984 651.75 290.972 652.532C289.96 653.298 288.695 653.682 287.177 653.682C285.981 653.682 284.915 653.413 283.98 652.877C283.06 652.34 282.339 651.581 281.818 650.6C281.297 649.618 281.036 648.468 281.036 647.15ZM298.342 642.596V650.025C298.342 650.638 298.472 651.075 298.733 651.336C298.993 651.581 299.446 651.704 300.09 651.704H301.631V653.475H299.745C298.579 653.475 297.705 653.206 297.123 652.67C296.54 652.133 296.249 651.251 296.249 650.025V642.596H294.616V640.871H296.249V637.697H298.342V640.871H301.631V642.596H298.342ZM306.26 636.455V653.475H304.167V636.455H306.26ZM320.683 640.871L313.093 659.409H310.931L313.415 653.337L308.332 640.871H310.655L314.611 651.083L318.521 640.871H320.683ZM334.047 642.596H331.402V653.475H329.309V642.596H327.676V640.871H329.309V639.974C329.309 638.563 329.67 637.536 330.39 636.892C331.126 636.232 332.299 635.903 333.909 635.903V637.651C332.989 637.651 332.338 637.835 331.954 638.203C331.586 638.555 331.402 639.146 331.402 639.974V640.871H334.047V642.596ZM338.581 642.918C338.949 642.197 339.47 641.637 340.145 641.239C340.835 640.84 341.67 640.641 342.652 640.641V642.803H342.1C339.754 642.803 338.581 644.075 338.581 646.621V653.475H336.488V640.871H338.581V642.918ZM350.565 653.682C349.384 653.682 348.311 653.413 347.345 652.877C346.394 652.34 345.643 651.581 345.091 650.6C344.554 649.603 344.286 648.453 344.286 647.15C344.286 645.862 344.562 644.727 345.114 643.746C345.681 642.749 346.448 641.99 347.414 641.469C348.38 640.932 349.461 640.664 350.657 640.664C351.853 640.664 352.934 640.932 353.9 641.469C354.866 641.99 355.625 642.741 356.177 643.723C356.744 644.704 357.028 645.846 357.028 647.15C357.028 648.453 356.737 649.603 356.154 650.6C355.587 651.581 354.812 652.34 353.831 652.877C352.85 653.413 351.761 653.682 350.565 653.682ZM350.565 651.842C351.316 651.842 352.022 651.665 352.681 651.313C353.34 650.96 353.869 650.431 354.268 649.726C354.682 649.02 354.889 648.162 354.889 647.15C354.889 646.138 354.69 645.279 354.291 644.574C353.892 643.868 353.371 643.347 352.727 643.01C352.083 642.657 351.385 642.481 350.634 642.481C349.867 642.481 349.162 642.657 348.518 643.01C347.889 643.347 347.383 643.868 347 644.574C346.617 645.279 346.425 646.138 346.425 647.15C346.425 648.177 346.609 649.043 346.977 649.749C347.36 650.454 347.866 650.983 348.495 651.336C349.124 651.673 349.814 651.842 350.565 651.842ZM374.937 640.641C375.918 640.641 376.792 640.848 377.559 641.262C378.325 641.66 378.931 642.266 379.376 643.079C379.82 643.891 380.043 644.88 380.043 646.046V653.475H377.973V646.345C377.973 645.087 377.658 644.129 377.03 643.47C376.416 642.795 375.581 642.458 374.523 642.458C373.434 642.458 372.568 642.81 371.924 643.516C371.28 644.206 370.958 645.21 370.958 646.529V653.475H368.888V646.345C368.888 645.087 368.573 644.129 367.945 643.47C367.331 642.795 366.496 642.458 365.438 642.458C364.349 642.458 363.483 642.81 362.839 643.516C362.195 644.206 361.873 645.21 361.873 646.529V653.475H359.78V640.871H361.873V642.688C362.287 642.028 362.839 641.522 363.529 641.17C364.234 640.817 365.008 640.641 365.852 640.641C366.91 640.641 367.845 640.878 368.658 641.354C369.47 641.829 370.076 642.527 370.475 643.447C370.827 642.557 371.41 641.867 372.223 641.377C373.035 640.886 373.94 640.641 374.937 640.641ZM395.105 653.682C393.924 653.682 392.851 653.413 391.885 652.877C390.934 652.34 390.183 651.581 389.631 650.6C389.094 649.603 388.826 648.453 388.826 647.15C388.826 645.862 389.102 644.727 389.654 643.746C390.221 642.749 390.988 641.99 391.954 641.469C392.92 640.932 394.001 640.664 395.197 640.664C396.393 640.664 397.474 640.932 398.44 641.469C399.406 641.99 400.165 642.741 400.717 643.723C401.284 644.704 401.568 645.846 401.568 647.15C401.568 648.453 401.277 649.603 400.694 650.6C400.127 651.581 399.352 652.34 398.371 652.877C397.39 653.413 396.301 653.682 395.105 653.682ZM395.105 651.842C395.856 651.842 396.562 651.665 397.221 651.313C397.88 650.96 398.409 650.431 398.808 649.726C399.222 649.02 399.429 648.162 399.429 647.15C399.429 646.138 399.23 645.279 398.831 644.574C398.432 643.868 397.911 643.347 397.267 643.01C396.623 642.657 395.925 642.481 395.174 642.481C394.407 642.481 393.702 642.657 393.058 643.01C392.429 643.347 391.923 643.868 391.54 644.574C391.157 645.279 390.965 646.138 390.965 647.15C390.965 648.177 391.149 649.043 391.517 649.749C391.9 650.454 392.406 650.983 393.035 651.336C393.664 651.673 394.354 651.842 395.105 651.842ZM415.498 640.871V653.475H413.405V651.612C413.006 652.256 412.446 652.762 411.726 653.13C411.02 653.482 410.238 653.659 409.38 653.659C408.398 653.659 407.517 653.459 406.735 653.061C405.953 652.647 405.332 652.033 404.872 651.221C404.427 650.408 404.205 649.419 404.205 648.254V640.871H406.275V647.978C406.275 649.22 406.589 650.178 407.218 650.853C407.846 651.512 408.705 651.842 409.794 651.842C410.913 651.842 411.795 651.497 412.439 650.807C413.083 650.117 413.405 649.112 413.405 647.794V640.871H415.498ZM421.125 642.918C421.493 642.197 422.014 641.637 422.689 641.239C423.379 640.84 424.214 640.641 425.196 640.641V642.803H424.644C422.298 642.803 421.125 644.075 421.125 646.621V653.475H419.032V640.871H421.125V642.918ZM432.962 647.127C432.962 645.839 433.222 644.712 433.744 643.746C434.265 642.764 434.978 642.005 435.883 641.469C436.803 640.932 437.822 640.664 438.942 640.664C440.046 640.664 441.004 640.901 441.817 641.377C442.629 641.852 443.235 642.45 443.634 643.171V640.871H445.75V653.475H443.634V651.129C443.22 651.865 442.599 652.478 441.771 652.969C440.958 653.444 440.007 653.682 438.919 653.682C437.799 653.682 436.787 653.406 435.883 652.854C434.978 652.302 434.265 651.527 433.744 650.531C433.222 649.534 432.962 648.399 432.962 647.127ZM443.634 647.15C443.634 646.199 443.442 645.371 443.059 644.666C442.675 643.96 442.154 643.424 441.495 643.056C440.851 642.672 440.138 642.481 439.356 642.481C438.574 642.481 437.861 642.665 437.217 643.033C436.573 643.401 436.059 643.937 435.676 644.643C435.292 645.348 435.101 646.176 435.101 647.127C435.101 648.093 435.292 648.936 435.676 649.657C436.059 650.362 436.573 650.906 437.217 651.29C437.861 651.658 438.574 651.842 439.356 651.842C440.138 651.842 440.851 651.658 441.495 651.29C442.154 650.906 442.675 650.362 443.059 649.657C443.442 648.936 443.634 648.1 443.634 647.15ZM451.38 643.194C451.794 642.473 452.407 641.875 453.22 641.4C454.048 640.909 455.006 640.664 456.095 640.664C457.214 640.664 458.226 640.932 459.131 641.469C460.051 642.005 460.771 642.764 461.293 643.746C461.814 644.712 462.075 645.839 462.075 647.127C462.075 648.399 461.814 649.534 461.293 650.531C460.771 651.527 460.051 652.302 459.131 652.854C458.226 653.406 457.214 653.682 456.095 653.682C455.021 653.682 454.071 653.444 453.243 652.969C452.43 652.478 451.809 651.872 451.38 651.152V659.455H449.287V640.871H451.38V643.194ZM459.936 647.127C459.936 646.176 459.744 645.348 459.361 644.643C458.977 643.937 458.456 643.401 457.797 643.033C457.153 642.665 456.44 642.481 455.658 642.481C454.891 642.481 454.178 642.672 453.519 643.056C452.875 643.424 452.353 643.968 451.955 644.689C451.571 645.394 451.38 646.214 451.38 647.15C451.38 648.1 451.571 648.936 451.955 649.657C452.353 650.362 452.875 650.906 453.519 651.29C454.178 651.658 454.891 651.842 455.658 651.842C456.44 651.842 457.153 651.658 457.797 651.29C458.456 650.906 458.977 650.362 459.361 649.657C459.744 648.936 459.936 648.093 459.936 647.127ZM466.923 643.194C467.337 642.473 467.95 641.875 468.763 641.4C469.591 640.909 470.549 640.664 471.638 640.664C472.757 640.664 473.769 640.932 474.674 641.469C475.594 642.005 476.314 642.764 476.836 643.746C477.357 644.712 477.618 645.839 477.618 647.127C477.618 648.399 477.357 649.534 476.836 650.531C476.314 651.527 475.594 652.302 474.674 652.854C473.769 653.406 472.757 653.682 471.638 653.682C470.564 653.682 469.614 653.444 468.786 652.969C467.973 652.478 467.352 651.872 466.923 651.152V659.455H464.83V640.871H466.923V643.194ZM475.479 647.127C475.479 646.176 475.287 645.348 474.904 644.643C474.52 643.937 473.999 643.401 473.34 643.033C472.696 642.665 471.983 642.481 471.201 642.481C470.434 642.481 469.721 642.672 469.062 643.056C468.418 643.424 467.896 643.968 467.498 644.689C467.114 645.394 466.923 646.214 466.923 647.15C466.923 648.1 467.114 648.936 467.498 649.657C467.896 650.362 468.418 650.906 469.062 651.29C469.721 651.658 470.434 651.842 471.201 651.842C471.983 651.842 472.696 651.658 473.34 651.29C473.999 650.906 474.52 650.362 474.904 649.657C475.287 648.936 475.479 648.093 475.479 647.127ZM481.04 653.613C480.641 653.613 480.304 653.475 480.028 653.199C479.752 652.923 479.614 652.585 479.614 652.187C479.614 651.788 479.752 651.451 480.028 651.175C480.304 650.899 480.641 650.761 481.04 650.761C481.423 650.761 481.745 650.899 482.006 651.175C482.282 651.451 482.42 651.788 482.42 652.187C482.42 652.585 482.282 652.923 482.006 653.199C481.745 653.475 481.423 653.613 481.04 653.613Z" fill="white"/>
<defs>
<linearGradient id="paint0_linear" x1="332.414" y1="240.231" x2="684.012" y2="727.71" gradientUnits="userSpaceOnUse">
<stop stop-color="#FF0060"/>
<stop offset="1" stop-color="#FF69A2"/>
</linearGradient>
</defs>
</svg>
