<svg width="111" height="110" viewBox="0 0 111 110" fill="none" xmlns="http://www.w3.org/2000/svg">
<path fill-rule="evenodd" clip-rule="evenodd" d="M71.5473 39.1681C71.4193 39.3897 71.4794 39.6719 71.6838 39.8261C78.5809 45.0277 83.0394 53.2905 83.0394 62.5948C83.0394 78.3349 70.2795 91.0948 54.5394 91.0948C38.7993 91.0948 26.0394 78.3349 26.0394 62.5948C26.0394 53.5939 30.2119 45.5677 36.7282 40.3446C36.9236 40.188 36.978 39.9124 36.8528 39.6955C36.7013 39.4331 36.353 39.3639 36.1165 39.5533C29.364 44.9594 25.0394 53.272 25.0394 62.5948C25.0394 78.8872 38.247 92.0948 54.5394 92.0948C70.8318 92.0948 84.0394 78.8872 84.0394 62.5948C84.0394 52.9581 79.4187 44.4006 72.2719 39.0171C72.0347 38.8383 71.6958 38.9108 71.5473 39.1681Z" fill="black"/>
<rect x="54.0394" y="32" width="1" height="10" rx="0.5" fill="black"/>
<rect x="54.0394" y="47" width="1" height="19" rx="0.5" fill="black"/>
<rect x="49.0394" y="60.7071" width="1" height="8" rx="0.5" transform="rotate(-45 49.0394 60.7071)" fill="black"/>
<rect x="59.6963" y="60" width="1" height="8" rx="0.5" transform="rotate(45 59.6963 60)" fill="black"/>
<path d="M15.6064 40.8593C15.3825 41.463 15.0762 41.9666 14.6877 42.37C14.2936 42.7614 13.8581 43.0229 13.3812 43.1546C12.8956 43.2831 12.4017 43.2592 11.8997 43.0829L12.372 41.8097C12.817 41.925 13.2451 41.8847 13.6562 41.6888C14.0618 41.4809 14.375 41.0794 14.5957 40.4843C14.8067 39.9155 14.8323 39.4173 14.6724 38.9897C14.5069 38.55 14.2011 38.2474 13.7548 38.0819C13.4048 37.952 13.0847 37.9428 12.7945 38.0542C12.5043 38.1655 12.2488 38.3445 12.0279 38.5911C11.807 38.8376 11.5401 39.1816 11.227 39.623C10.8455 40.1683 10.5079 40.5956 10.214 40.9047C9.92342 41.205 9.56317 41.4248 9.13326 41.5639C8.69785 41.6911 8.19575 41.6492 7.62695 41.4382C7.12816 41.2532 6.73332 40.9624 6.44243 40.5658C6.15153 40.1692 5.98548 39.7044 5.94425 39.1715C5.90628 38.6298 5.99766 38.0614 6.21839 37.4664C6.5365 36.6088 7.01057 35.9883 7.64061 35.6048C8.27389 35.2125 8.95792 35.1129 9.6927 35.3058L9.20579 36.6184C8.83953 36.5323 8.46509 36.6025 8.08247 36.8289C7.69109 37.052 7.3964 37.4305 7.19839 37.9643C7.01337 38.4631 6.99369 38.9187 7.13935 39.3311C7.27626 39.7402 7.57661 40.0308 8.0404 40.2029C8.37292 40.3262 8.67828 40.335 8.95646 40.2291C9.23789 40.1145 9.4858 39.9427 9.70018 39.7136C9.90907 39.4725 10.176 39.1286 10.5011 38.6817C10.8913 38.1396 11.2377 37.7156 11.5403 37.4097C11.8342 37.1006 12.2004 36.8781 12.6391 36.7422C13.069 36.603 13.5727 36.6406 14.1502 36.8548C14.5965 37.0204 14.9727 37.2943 15.2789 37.6766C15.585 38.059 15.7746 38.5275 15.8476 39.0822C15.9205 39.6368 15.8402 40.2292 15.6064 40.8593Z" fill="black"/>
<path d="M22.0114 24.322C21.358 23.6295 20.9281 22.861 20.7216 22.0165C20.5087 21.1652 20.523 20.3304 20.7647 19.5121C21.0132 18.6874 21.4666 17.9645 22.1251 17.3432C22.8991 16.613 23.7507 16.1624 24.68 15.9913C25.6093 15.8203 26.5298 15.9527 27.4415 16.3885L26.3315 17.4358C25.7311 17.1938 25.1354 17.1336 24.5442 17.255C23.9598 17.3701 23.4097 17.671 22.8938 18.1578C22.3982 18.6254 22.0624 19.1603 21.8864 19.7626C21.7105 20.3649 21.7122 20.9856 21.8917 21.6247C22.0648 22.2569 22.4204 22.8582 22.9584 23.4284C23.49 23.9919 24.0696 24.3818 24.6971 24.5981C25.3183 24.8076 25.9346 24.8421 26.5461 24.7014C27.1576 24.5607 27.7112 24.2566 28.2068 23.789C28.7227 23.3022 29.0583 22.7739 29.2135 22.204C29.3691 21.6209 29.3436 21.0226 29.1369 20.4092L30.2469 19.362C30.6226 20.2906 30.6981 21.2139 30.4734 22.1317C30.2422 23.0427 29.7397 23.8633 28.9658 24.5935C28.3073 25.2148 27.5623 25.6289 26.731 25.8358C25.9001 26.0295 25.0691 25.9987 24.238 25.7435C23.4069 25.4882 22.6647 25.0144 22.0114 24.322Z" fill="black"/>
<path d="M49.8548 16.2191L46.6052 12.9386L45.1143 13.3245L46.114 17.1872L44.8806 17.5064L42.4357 8.05967L45.4853 7.27043C46.1991 7.08569 46.8315 7.05216 47.3826 7.16985C47.9427 7.28519 48.3985 7.51912 48.75 7.87162C49.1016 8.22411 49.3463 8.66692 49.4843 9.20002C49.6527 9.85058 49.6114 10.4735 49.3605 11.0686C49.1187 11.6615 48.6438 12.1363 47.936 12.493L51.3321 15.8367L49.8548 16.2191ZM44.8582 12.3351L46.6744 11.8651C47.343 11.692 47.8024 11.3996 48.0525 10.9878C48.3003 10.5669 48.3529 10.0809 48.2103 9.52974C48.0653 8.96954 47.7859 8.57909 47.372 8.3584C46.9673 8.13537 46.426 8.11156 45.7484 8.28694L43.9322 8.75698L44.8582 12.3351Z" fill="black"/>
<path d="M69.0399 18.525C68.154 18.3384 67.3891 17.9627 66.745 17.3978C66.1028 16.8238 65.645 16.1217 65.3715 15.2916C65.1091 14.4542 65.076 13.5697 65.2722 12.6382C65.4684 11.7066 65.8545 10.9152 66.4304 10.2639C67.0174 9.60536 67.7194 9.14755 68.5366 8.89044C69.3558 8.62419 70.2083 8.58436 71.0942 8.77093C71.9892 8.95942 72.7578 9.34067 73.4 9.91466C74.044 10.4795 74.4982 11.1761 74.7626 12.0043C75.0269 12.8326 75.06 13.717 74.8619 14.6577C74.6638 15.5984 74.2768 16.3944 73.7008 17.0457C73.1249 17.697 72.4274 18.1558 71.6083 18.422C70.7911 18.6792 69.935 18.7135 69.0399 18.525ZM69.2679 17.4427C69.9346 17.5831 70.5655 17.5538 71.1606 17.3549C71.7648 17.1578 72.2782 16.8034 72.7008 16.2915C73.1325 15.7815 73.4282 15.1475 73.5878 14.3894C73.7494 13.6223 73.7345 12.9228 73.5433 12.2912C73.3631 11.6524 73.0408 11.1219 72.5765 10.6998C72.1122 10.2777 71.5421 9.99552 70.8662 9.85319C70.1904 9.71085 69.5549 9.73917 68.9598 9.93813C68.3647 10.1371 67.8513 10.4916 67.4196 11.0016C66.999 11.5043 66.7079 12.1393 66.5463 12.9065C66.3866 13.6645 66.3969 14.363 66.5771 15.0018C66.7665 15.6426 67.0933 16.174 67.5576 16.5961C68.0311 17.0201 68.6012 17.3023 69.2679 17.4427Z" fill="black"/>
<path d="M86.1839 28.2548L88.7274 30.5351L88.0358 31.3065L84.5437 28.1757L91.0575 20.9101L92.0061 21.7605L86.1839 28.2548Z" fill="black"/>
<path d="M96.2865 43.697L97.6873 46.8126L96.7424 47.2374L94.8192 42.9599L103.719 38.9585L104.241 40.1205L96.2865 43.697Z" fill="black"/>
</svg>
