<svg width="573" height="51" viewBox="0 0 573 51" fill="none" xmlns="http://www.w3.org/2000/svg">
<line x1="438" y1="24.5029" x2="573" y2="24.5029" stroke="white"/>
<circle cx="435.5" cy="24.5" r="3.5" fill="white"/>
<path d="M17.391 20.5689C17.391 22.5489 16.742 24.1439 15.444 25.3539C14.146 26.5639 12.199 27.1689 9.603 27.1689H4.95V37.0029H2.64V13.9359H9.603C12.177 13.9359 14.113 14.5409 15.411 15.7509C16.731 16.9609 17.391 18.5669 17.391 20.5689ZM9.603 25.1889C13.211 25.1889 15.015 23.6489 15.015 20.5689C15.015 19.0289 14.586 17.8629 13.728 17.0709C12.87 16.2789 11.495 15.8829 9.603 15.8829H4.95V25.1889H9.603ZM37.819 27.0699C37.819 27.8619 37.797 28.4669 37.753 28.8849H22.804C22.87 30.2489 23.2 31.4149 23.794 32.3829C24.388 33.3509 25.169 34.0879 26.137 34.5939C27.105 35.0779 28.161 35.3199 29.305 35.3199C30.801 35.3199 32.055 34.9569 33.067 34.2309C34.101 33.5049 34.783 32.5259 35.113 31.2939H37.555C37.115 33.0539 36.169 34.4949 34.717 35.6169C33.287 36.7169 31.483 37.2669 29.305 37.2669C27.611 37.2669 26.093 36.8929 24.751 36.1449C23.409 35.3749 22.353 34.2969 21.583 32.9109C20.835 31.5029 20.461 29.8639 20.461 27.9939C20.461 26.1239 20.835 24.4849 21.583 23.0769C22.331 21.6689 23.376 20.5909 24.718 19.8429C26.06 19.0949 27.589 18.7209 29.305 18.7209C31.021 18.7209 32.517 19.0949 33.793 19.8429C35.091 20.5909 36.081 21.6029 36.763 22.8789C37.467 24.1329 37.819 25.5299 37.819 27.0699ZM35.476 27.0039C35.498 25.6619 35.223 24.5179 34.651 23.5719C34.101 22.6259 33.342 21.9109 32.374 21.4269C31.406 20.9429 30.35 20.7009 29.206 20.7009C27.49 20.7009 26.027 21.2509 24.817 22.3509C23.607 23.4509 22.936 25.0019 22.804 27.0039H35.476ZM44.6053 22.1859C45.1113 21.0639 45.8813 20.1949 46.9153 19.5789C47.9713 18.9629 49.2583 18.6549 50.7763 18.6549V21.0639H50.1493C48.4773 21.0639 47.1353 21.5149 46.1233 22.4169C45.1113 23.3189 44.6053 24.8259 44.6053 26.9379V37.0029H42.2953V18.9849H44.6053V22.1859ZM60.7053 37.2669C58.6373 37.2669 56.9433 36.7939 55.6233 35.8479C54.3253 34.8799 53.5993 33.5709 53.4453 31.9209H55.8213C55.9313 32.9329 56.4043 33.7579 57.2403 34.3959C58.0983 35.0119 59.2423 35.3199 60.6723 35.3199C61.9263 35.3199 62.9053 35.0229 63.6093 34.4289C64.3353 33.8349 64.6983 33.0979 64.6983 32.2179C64.6983 31.6019 64.5003 31.0959 64.1043 30.6999C63.7083 30.3039 63.2023 29.9959 62.5863 29.7759C61.9923 29.5339 61.1783 29.2809 60.1443 29.0169C58.8023 28.6649 57.7133 28.3129 56.8773 27.9609C56.0413 27.6089 55.3263 27.0919 54.7323 26.4099C54.1603 25.7059 53.8743 24.7709 53.8743 23.6049C53.8743 22.7249 54.1383 21.9109 54.6663 21.1629C55.1943 20.4149 55.9423 19.8209 56.9103 19.3809C57.8783 18.9409 58.9783 18.7209 60.2103 18.7209C62.1463 18.7209 63.7083 19.2159 64.8963 20.2059C66.0843 21.1739 66.7223 22.5159 66.8103 24.2319H64.5003C64.4343 23.1759 64.0163 22.3289 63.2463 21.6909C62.4983 21.0309 61.4643 20.7009 60.1443 20.7009C58.9783 20.7009 58.0323 20.9759 57.3063 21.5259C56.5803 22.0759 56.2173 22.7579 56.2173 23.5719C56.2173 24.2759 56.4263 24.8589 56.8443 25.3209C57.2843 25.7609 57.8233 26.1129 58.4613 26.3769C59.0993 26.6189 59.9573 26.8939 61.0353 27.2019C62.3333 27.5539 63.3673 27.8949 64.1373 28.2249C64.9073 28.5549 65.5673 29.0389 66.1173 29.6769C66.6673 30.3149 66.9533 31.1619 66.9753 32.2179C66.9753 33.1859 66.7113 34.0549 66.1833 34.8249C65.6553 35.5729 64.9183 36.1669 63.9723 36.6069C63.0263 37.0469 61.9373 37.2669 60.7053 37.2669ZM79.4606 37.2669C77.7666 37.2669 76.2376 36.8929 74.8736 36.1449C73.5316 35.3749 72.4646 34.2969 71.6726 32.9109C70.9026 31.5029 70.5176 29.8639 70.5176 27.9939C70.5176 26.1239 70.9136 24.4959 71.7056 23.1099C72.4976 21.7019 73.5756 20.6239 74.9396 19.8759C76.3036 19.1059 77.8326 18.7209 79.5266 18.7209C81.2206 18.7209 82.7496 19.1059 84.1136 19.8759C85.4996 20.6239 86.5776 21.7019 87.3476 23.1099C88.1396 24.4959 88.5356 26.1239 88.5356 27.9939C88.5356 29.8419 88.1396 31.4699 87.3476 32.8779C86.5556 34.2859 85.4666 35.3749 84.0806 36.1449C82.6946 36.8929 81.1546 37.2669 79.4606 37.2669ZM79.4606 35.2539C80.6486 35.2539 81.7486 34.9899 82.7606 34.4619C83.7726 33.9119 84.5866 33.0979 85.2026 32.0199C85.8406 30.9199 86.1596 29.5779 86.1596 27.9939C86.1596 26.4099 85.8516 25.0789 85.2356 24.0009C84.6196 22.9009 83.8056 22.0869 82.7936 21.5589C81.7816 21.0089 80.6816 20.7339 79.4936 20.7339C78.3056 20.7339 77.2056 21.0089 76.1936 21.5589C75.1816 22.0869 74.3676 22.9009 73.7516 24.0009C73.1576 25.0789 72.8606 26.4099 72.8606 27.9939C72.8606 29.5779 73.1576 30.9199 73.7516 32.0199C74.3676 33.0979 75.1706 33.9119 76.1606 34.4619C77.1726 34.9899 78.2726 35.2539 79.4606 35.2539ZM101.444 18.6549C103.6 18.6549 105.36 19.3259 106.724 20.6679C108.088 21.9879 108.77 23.9129 108.77 26.4429V37.0029H106.493V26.7069C106.493 24.7489 105.998 23.2529 105.008 22.2189C104.04 21.1849 102.709 20.6679 101.015 20.6679C99.2774 20.6679 97.8914 21.2179 96.8574 22.3179C95.8234 23.4179 95.3064 25.0349 95.3064 27.1689V37.0029H92.9964V18.9849H95.3064V22.0539C95.8784 20.9539 96.7034 20.1179 97.7814 19.5459C98.8594 18.9519 100.08 18.6549 101.444 18.6549ZM113.073 27.9609C113.073 26.1129 113.436 24.4959 114.162 23.1099C114.91 21.7019 115.933 20.6239 117.231 19.8759C118.551 19.1059 120.036 18.7209 121.686 18.7209C123.402 18.7209 124.876 19.1169 126.108 19.9089C127.362 20.7009 128.264 21.7129 128.814 22.9449V18.9849H131.124V37.0029H128.814V33.0099C128.242 34.2419 127.329 35.2649 126.075 36.0789C124.843 36.8709 123.369 37.2669 121.653 37.2669C120.025 37.2669 118.551 36.8819 117.231 36.1119C115.933 35.3419 114.91 34.2529 114.162 32.8449C113.436 31.4369 113.073 29.8089 113.073 27.9609ZM128.814 27.9939C128.814 26.5419 128.517 25.2659 127.923 24.1659C127.329 23.0659 126.515 22.2189 125.481 21.6249C124.469 21.0309 123.347 20.7339 122.115 20.7339C120.839 20.7339 119.695 21.0199 118.683 21.5919C117.671 22.1639 116.868 22.9999 116.274 24.0999C115.702 25.1779 115.416 26.4649 115.416 27.9609C115.416 29.4349 115.702 30.7329 116.274 31.8549C116.868 32.9549 117.671 33.8019 118.683 34.3959C119.695 34.9679 120.839 35.2539 122.115 35.2539C123.347 35.2539 124.469 34.9569 125.481 34.3629C126.515 33.7689 127.329 32.9219 127.923 31.8219C128.517 30.7219 128.814 29.4459 128.814 27.9939ZM145.458 24.9579C145.458 21.1739 146.041 18.2369 147.207 16.1469C148.373 14.0569 150.463 13.0119 153.477 13.0119C156.491 13.0119 158.581 14.0569 159.747 16.1469C160.913 18.2369 161.496 21.1739 161.496 24.9579C161.496 28.8079 160.913 31.7889 159.747 33.9009C158.581 36.0129 156.491 37.0689 153.477 37.0689C150.441 37.0689 148.34 36.0129 147.174 33.9009C146.03 31.7889 145.458 28.8079 145.458 24.9579ZM159.219 24.9579C159.219 22.9119 159.076 21.1849 158.79 19.7769C158.504 18.3689 157.943 17.2359 157.107 16.3779C156.271 15.5199 155.061 15.0909 153.477 15.0909C151.893 15.0909 150.683 15.5199 149.847 16.3779C149.011 17.2359 148.45 18.3689 148.164 19.7769C147.878 21.1849 147.735 22.9119 147.735 24.9579C147.735 27.0699 147.878 28.8409 148.164 30.2709C148.45 31.6789 149.011 32.8119 149.847 33.6699C150.683 34.5279 151.893 34.9569 153.477 34.9569C155.061 34.9569 156.271 34.5279 157.107 33.6699C157.943 32.8119 158.504 31.6789 158.79 30.2709C159.076 28.8409 159.219 27.0699 159.219 24.9579ZM165.581 35.1879C169.629 32.1519 172.753 29.4349 174.953 27.0369C177.175 24.6169 178.286 22.2519 178.286 19.9419C178.286 18.4239 177.901 17.2139 177.131 16.3119C176.383 15.3879 175.151 14.9259 173.435 14.9259C171.763 14.9259 170.465 15.4539 169.541 16.5099C168.639 17.5439 168.133 18.9299 168.023 20.6679H165.779C165.911 18.2259 166.659 16.3339 168.023 14.9919C169.409 13.6279 171.213 12.9459 173.435 12.9459C175.569 12.9459 177.296 13.5509 178.616 14.7609C179.936 15.9489 180.596 17.6429 180.596 19.8429C180.596 22.5049 179.485 25.0899 177.263 27.5979C175.063 30.0839 172.346 32.5149 169.112 34.8909H181.322V36.8379H165.581V35.1879ZM197.817 40.3029H195.507V10.9329H197.817V40.3029ZM223.798 13.9359V31.3929C223.798 33.1529 223.259 34.5719 222.181 35.6499C221.103 36.7059 219.662 37.2339 217.858 37.2339C215.988 37.2339 214.492 36.6729 213.37 35.5509C212.27 34.4069 211.72 32.8669 211.72 30.9309H214.063C214.085 32.1849 214.393 33.2079 214.987 33.9999C215.603 34.7919 216.56 35.1879 217.858 35.1879C219.09 35.1879 220.003 34.8249 220.597 34.0989C221.191 33.3729 221.488 32.4709 221.488 31.3929V13.9359H223.798ZM228.801 27.9609C228.801 26.1129 229.164 24.4959 229.89 23.1099C230.638 21.7019 231.661 20.6239 232.959 19.8759C234.279 19.1059 235.764 18.7209 237.414 18.7209C239.13 18.7209 240.604 19.1169 241.836 19.9089C243.09 20.7009 243.992 21.7129 244.542 22.9449V18.9849H246.852V37.0029H244.542V33.0099C243.97 34.2419 243.057 35.2649 241.803 36.0789C240.571 36.8709 239.097 37.2669 237.381 37.2669C235.753 37.2669 234.279 36.8819 232.959 36.1119C231.661 35.3419 230.638 34.2529 229.89 32.8449C229.164 31.4369 228.801 29.8089 228.801 27.9609ZM244.542 27.9939C244.542 26.5419 244.245 25.2659 243.651 24.1659C243.057 23.0659 242.243 22.2189 241.209 21.6249C240.197 21.0309 239.075 20.7339 237.843 20.7339C236.567 20.7339 235.423 21.0199 234.411 21.5919C233.399 22.1639 232.596 22.9999 232.002 24.0999C231.43 25.1779 231.144 26.4649 231.144 27.9609C231.144 29.4349 231.43 30.7329 232.002 31.8549C232.596 32.9549 233.399 33.8019 234.411 34.3959C235.423 34.9679 236.567 35.2539 237.843 35.2539C239.075 35.2539 240.197 34.9569 241.209 34.3629C242.243 33.7689 243.057 32.9219 243.651 31.8219C244.245 30.7219 244.542 29.4459 244.542 27.9939ZM273.825 18.6549C275.937 18.6549 277.653 19.3259 278.973 20.6679C280.315 21.9879 280.986 23.9129 280.986 26.4429V37.0029H278.709V26.7069C278.709 24.7489 278.236 23.2529 277.29 22.2189C276.344 21.1849 275.057 20.6679 273.429 20.6679C271.735 20.6679 270.382 21.2289 269.37 22.3509C268.358 23.4729 267.852 25.1009 267.852 27.2349V37.0029H265.575V26.7069C265.575 24.7489 265.102 23.2529 264.156 22.2189C263.21 21.1849 261.912 20.6679 260.262 20.6679C258.568 20.6679 257.215 21.2289 256.203 22.3509C255.191 23.4729 254.685 25.1009 254.685 27.2349V37.0029H252.375V18.9849H254.685V22.0869C255.257 20.9649 256.071 20.1179 257.127 19.5459C258.183 18.9519 259.36 18.6549 260.658 18.6549C262.22 18.6549 263.584 19.0289 264.75 19.7769C265.938 20.5249 266.796 21.6249 267.324 23.0769C267.808 21.6469 268.633 20.5579 269.799 19.8099C270.987 19.0399 272.329 18.6549 273.825 18.6549ZM302.669 27.0699C302.669 27.8619 302.647 28.4669 302.603 28.8849H287.654C287.72 30.2489 288.05 31.4149 288.644 32.3829C289.238 33.3509 290.019 34.0879 290.987 34.5939C291.955 35.0779 293.011 35.3199 294.155 35.3199C295.651 35.3199 296.905 34.9569 297.917 34.2309C298.951 33.5049 299.633 32.5259 299.963 31.2939H302.405C301.965 33.0539 301.019 34.4949 299.567 35.6169C298.137 36.7169 296.333 37.2669 294.155 37.2669C292.461 37.2669 290.943 36.8929 289.601 36.1449C288.259 35.3749 287.203 34.2969 286.433 32.9109C285.685 31.5029 285.311 29.8639 285.311 27.9939C285.311 26.1239 285.685 24.4849 286.433 23.0769C287.181 21.6689 288.226 20.5909 289.568 19.8429C290.91 19.0949 292.439 18.7209 294.155 18.7209C295.871 18.7209 297.367 19.0949 298.643 19.8429C299.941 20.5909 300.931 21.6029 301.613 22.8789C302.317 24.1329 302.669 25.5299 302.669 27.0699ZM300.326 27.0039C300.348 25.6619 300.073 24.5179 299.501 23.5719C298.951 22.6259 298.192 21.9109 297.224 21.4269C296.256 20.9429 295.2 20.7009 294.056 20.7009C292.34 20.7009 290.877 21.2509 289.667 22.3509C288.457 23.4509 287.786 25.0019 287.654 27.0039H300.326ZM313.349 37.2669C311.281 37.2669 309.587 36.7939 308.267 35.8479C306.969 34.8799 306.243 33.5709 306.089 31.9209H308.465C308.575 32.9329 309.048 33.7579 309.884 34.3959C310.742 35.0119 311.886 35.3199 313.316 35.3199C314.57 35.3199 315.549 35.0229 316.253 34.4289C316.979 33.8349 317.342 33.0979 317.342 32.2179C317.342 31.6019 317.144 31.0959 316.748 30.6999C316.352 30.3039 315.846 29.9959 315.23 29.7759C314.636 29.5339 313.822 29.2809 312.788 29.0169C311.446 28.6649 310.357 28.3129 309.521 27.9609C308.685 27.6089 307.97 27.0919 307.376 26.4099C306.804 25.7059 306.518 24.7709 306.518 23.6049C306.518 22.7249 306.782 21.9109 307.31 21.1629C307.838 20.4149 308.586 19.8209 309.554 19.3809C310.522 18.9409 311.622 18.7209 312.854 18.7209C314.79 18.7209 316.352 19.2159 317.54 20.2059C318.728 21.1739 319.366 22.5159 319.454 24.2319H317.144C317.078 23.1759 316.66 22.3289 315.89 21.6909C315.142 21.0309 314.108 20.7009 312.788 20.7009C311.622 20.7009 310.676 20.9759 309.95 21.5259C309.224 22.0759 308.861 22.7579 308.861 23.5719C308.861 24.2759 309.07 24.8589 309.488 25.3209C309.928 25.7609 310.467 26.1129 311.105 26.3769C311.743 26.6189 312.601 26.8939 313.679 27.2019C314.977 27.5539 316.011 27.8949 316.781 28.2249C317.551 28.5549 318.211 29.0389 318.761 29.6769C319.311 30.3149 319.597 31.1619 319.619 32.2179C319.619 33.1859 319.355 34.0549 318.827 34.8249C318.299 35.5729 317.562 36.1669 316.616 36.6069C315.67 37.0469 314.581 37.2669 313.349 37.2669ZM356.062 14.2329V37.0029H353.752V18.8199L345.634 37.0029H343.951L335.833 18.8859V37.0029H333.523V14.2329H335.965L344.776 33.9669L353.587 14.2329H356.062ZM362.707 15.5859C362.245 15.5859 361.849 15.4209 361.519 15.0909C361.189 14.7609 361.024 14.3539 361.024 13.8699C361.024 13.3859 361.189 12.9899 361.519 12.6819C361.849 12.3519 362.245 12.1869 362.707 12.1869C363.169 12.1869 363.565 12.3519 363.895 12.6819C364.225 12.9899 364.39 13.3859 364.39 13.8699C364.39 14.3539 364.225 14.7609 363.895 15.0909C363.565 15.4209 363.169 15.5859 362.707 15.5859ZM363.862 18.9849V37.0029H361.552V18.9849H363.862ZM371.653 12.5829V37.0029H369.343V12.5829H371.653ZM379.444 12.5829V37.0029H377.134V12.5829H379.444ZM401.227 27.0699C401.227 27.8619 401.205 28.4669 401.161 28.8849H386.212C386.278 30.2489 386.608 31.4149 387.202 32.3829C387.796 33.3509 388.577 34.0879 389.545 34.5939C390.513 35.0779 391.569 35.3199 392.713 35.3199C394.209 35.3199 395.463 34.9569 396.475 34.2309C397.509 33.5049 398.191 32.5259 398.521 31.2939H400.963C400.523 33.0539 399.577 34.4949 398.125 35.6169C396.695 36.7169 394.891 37.2669 392.713 37.2669C391.019 37.2669 389.501 36.8929 388.159 36.1449C386.817 35.3749 385.761 34.2969 384.991 32.9109C384.243 31.5029 383.869 29.8639 383.869 27.9939C383.869 26.1239 384.243 24.4849 384.991 23.0769C385.739 21.6689 386.784 20.5909 388.126 19.8429C389.468 19.0949 390.997 18.7209 392.713 18.7209C394.429 18.7209 395.925 19.0949 397.201 19.8429C398.499 20.5909 399.489 21.6029 400.171 22.8789C400.875 24.1329 401.227 25.5299 401.227 27.0699ZM398.884 27.0039C398.906 25.6619 398.631 24.5179 398.059 23.5719C397.509 22.6259 396.75 21.9109 395.782 21.4269C394.814 20.9429 393.758 20.7009 392.614 20.7009C390.898 20.7009 389.435 21.2509 388.225 22.3509C387.015 23.4509 386.344 25.0019 386.212 27.0039H398.884ZM408.013 22.1859C408.519 21.0639 409.289 20.1949 410.323 19.5789C411.379 18.9629 412.666 18.6549 414.184 18.6549V21.0639H413.557C411.885 21.0639 410.543 21.5149 409.531 22.4169C408.519 23.3189 408.013 24.8259 408.013 26.9379V37.0029H405.703V18.9849H408.013V22.1859Z" fill="white"/>
</svg>
