<svg width="1420" height="1065" viewBox="0 0 1420 1065" fill="none" xmlns="http://www.w3.org/2000/svg">
<path d="M1323.18 479.752C1296.01 495.126 1269.5 500.437 1241.67 502.425C1203.21 504.518 1164.48 500.482 1126.88 490.463C1084.09 479.848 1042.19 466.503 1002.96 445.158C975.475 430.723 951.067 410.704 931.285 386.375C917.759 369.421 906.614 350.662 898.186 330.663C887.612 306.48 882.428 280.35 883.017 254.201C883.19 229.25 891.478 205.315 906.584 186.142C911.252 180.353 913.054 172.796 916.667 166.297C923.168 154.266 931.845 143.642 942.255 134.967C953.102 126.652 966.592 122.587 980.36 123.484C997.23 124.603 1013.94 128.052 1030.04 133.735C1062.89 144.207 1094.58 157.567 1126.34 170.981C1181.22 194.334 1234.37 221.941 1285.31 253.554C1309.37 267.733 1331.1 285.771 1349.65 306.948C1369.51 330.385 1382.33 356.551 1380.5 387.951C1379.06 407.039 1373.11 425.348 1363.15 441.321C1353.19 457.295 1339.52 470.458 1323.29 479.692L1323.18 479.752Z" fill="url(#paint0_linear)" fill-opacity="0.2"/>
<path d="M856.997 699.193C822.376 724.401 785.834 746.855 747.731 766.335C687.308 796.75 624.8 822.685 560.739 843.918C506.183 862.557 451.057 878.983 394.096 887.34C357.212 893.479 319.772 893.798 283.188 888.287C237.455 880.436 201.002 859.126 176.555 820.172C146.306 771.897 129.942 716.07 129.157 658.465C128.394 626.58 127.834 594.724 134.558 562.981C144.39 513.54 169.481 467.833 206.34 432.22C264.589 375.799 333.588 344.816 413.431 337.223C486.458 330.199 559.772 333.372 631.2 346.649C669.421 353.734 707.814 360.052 745.388 369.762C798.737 383.116 848.834 406.076 893.211 437.511C906.332 445.942 918.699 455.44 930.187 465.912C940.682 476.554 948.257 489.688 952.237 504.144C960.375 532.751 963.174 561.592 951.524 590.704C943.324 611.042 931.627 629.923 916.964 646.491C899.136 666.33 878.998 684.028 856.997 699.193Z" fill="url(#paint1_linear)" fill-opacity="0.6"/>
<path d="M941.143 947.378C916.987 968.957 886.52 982.091 854.638 984.67C841.346 985.746 828.03 986.052 814.757 985.587C800.456 985.445 786.199 984.547 772.048 982.896C754.625 980.872 738.267 974.107 724.76 963.338C720.212 959.683 714.998 956.86 710.489 952.944C697.238 942.14 689.02 926.402 687.634 909.173C685.738 886.55 693.729 867.143 707.945 849.515C714.339 841.555 721.606 834.321 729.605 827.954C751.273 810.476 775.526 796.509 801.42 786.597C834.177 773.978 868.537 766.463 903.253 764.325C923.636 763.186 943.88 764.099 963.452 769.855C973.411 772.508 982.561 777.377 990.226 784.102C999.306 792.437 1005.45 803.465 1007.82 815.662C1010.91 830.513 1007.88 844.783 1002.8 859.004C995.56 878.255 985.388 896.373 972.647 912.707C963.406 925.325 952.842 936.951 941.143 947.378Z" fill="url(#paint2_linear)" fill-opacity="0.4"/>
<defs>
<linearGradient id="paint0_linear" x1="943.501" y1="414.094" x2="1299.91" y2="212.803" gradientUnits="userSpaceOnUse">
<stop stop-color="#FF0060"/>
<stop offset="1" stop-color="#FF69A2"/>
</linearGradient>
<linearGradient id="paint1_linear" x1="332.414" y1="336.576" x2="684.012" y2="824.056" gradientUnits="userSpaceOnUse">
<stop stop-color="#FF0060"/>
<stop offset="1" stop-color="#FF69A2"/>
</linearGradient>
<linearGradient id="paint2_linear" x1="928.055" y1="958.717" x2="778.435" y2="785.602" gradientUnits="userSpaceOnUse">
<stop stop-color="#FF0060"/>
<stop offset="1" stop-color="#FF69A2"/>
</linearGradient>
</defs>
</svg>
