<svg width="1614" height="76" viewBox="0 0 1614 76" fill="none" xmlns="http://www.w3.org/2000/svg">
<rect y="8" width="126" height="60" rx="30" fill="black"/>
<path d="M24.467 36.42L23.593 40.56H26.767V42.4H23.202L22.213 47H20.212L21.201 42.4H16.371L15.382 47H13.381L14.37 42.4H10.759V40.56H14.761L15.635 36.42H12.07V34.58H16.026L17.015 29.98H19.016L18.027 34.58H22.857L23.846 29.98H25.847L24.858 34.58H28.055V36.42H24.467ZM22.466 36.42H17.636L16.762 40.56H21.592L22.466 36.42ZM30.7424 38.513C30.7424 35.8757 31.1717 33.821 32.0304 32.349C32.8891 30.8617 34.3917 30.118 36.5384 30.118C38.6697 30.118 40.1647 30.8617 41.0234 32.349C41.8821 33.821 42.3114 35.8757 42.3114 38.513C42.3114 41.1963 41.8821 43.2817 41.0234 44.769C40.1647 46.2563 38.6697 47 36.5384 47C34.3917 47 32.8891 46.2563 32.0304 44.769C31.1717 43.2817 30.7424 41.1963 30.7424 38.513ZM40.2414 38.513C40.2414 37.179 40.1494 36.052 39.9654 35.132C39.7967 34.1967 39.4364 33.4453 38.8844 32.878C38.3477 32.3107 37.5657 32.027 36.5384 32.027C35.4957 32.027 34.6984 32.3107 34.1464 32.878C33.6097 33.4453 33.2494 34.1967 33.0654 35.132C32.8967 36.052 32.8124 37.179 32.8124 38.513C32.8124 39.893 32.8967 41.0507 33.0654 41.986C33.2494 42.9213 33.6097 43.6727 34.1464 44.24C34.6984 44.8073 35.4957 45.091 36.5384 45.091C37.5657 45.091 38.3477 44.8073 38.8844 44.24C39.4364 43.6727 39.7967 42.9213 39.9654 41.986C40.1494 41.0507 40.2414 39.893 40.2414 38.513ZM45.1848 38.513C45.1848 35.8757 45.6141 33.821 46.4728 32.349C47.3315 30.8617 48.8341 30.118 50.9808 30.118C53.1121 30.118 54.6071 30.8617 55.4658 32.349C56.3245 33.821 56.7538 35.8757 56.7538 38.513C56.7538 41.1963 56.3245 43.2817 55.4658 44.769C54.6071 46.2563 53.1121 47 50.9808 47C48.8341 47 47.3315 46.2563 46.4728 44.769C45.6141 43.2817 45.1848 41.1963 45.1848 38.513ZM54.6838 38.513C54.6838 37.179 54.5918 36.052 54.4078 35.132C54.2391 34.1967 53.8788 33.4453 53.3268 32.878C52.7901 32.3107 52.0081 32.027 50.9808 32.027C49.9381 32.027 49.1408 32.3107 48.5888 32.878C48.0521 33.4453 47.6918 34.1967 47.5078 35.132C47.3391 36.052 47.2548 37.179 47.2548 38.513C47.2548 39.893 47.3391 41.0507 47.5078 41.986C47.6918 42.9213 48.0521 43.6727 48.5888 44.24C49.1408 44.8073 49.9381 45.091 50.9808 45.091C52.0081 45.091 52.7901 44.8073 53.3268 44.24C53.8788 43.6727 54.2391 42.9213 54.4078 41.986C54.5918 41.0507 54.6838 39.893 54.6838 38.513ZM59.6272 38.513C59.6272 35.8757 60.0565 33.821 60.9152 32.349C61.7738 30.8617 63.2765 30.118 65.4232 30.118C67.5545 30.118 69.0495 30.8617 69.9082 32.349C70.7668 33.821 71.1962 35.8757 71.1962 38.513C71.1962 41.1963 70.7668 43.2817 69.9082 44.769C69.0495 46.2563 67.5545 47 65.4232 47C63.2765 47 61.7738 46.2563 60.9152 44.769C60.0565 43.2817 59.6272 41.1963 59.6272 38.513ZM69.1262 38.513C69.1262 37.179 69.0342 36.052 68.8502 35.132C68.6815 34.1967 68.3212 33.4453 67.7692 32.878C67.2325 32.3107 66.4505 32.027 65.4232 32.027C64.3805 32.027 63.5832 32.3107 63.0312 32.878C62.4945 33.4453 62.1342 34.1967 61.9502 35.132C61.7815 36.052 61.6972 37.179 61.6972 38.513C61.6972 39.893 61.7815 41.0507 61.9502 41.986C62.1342 42.9213 62.4945 43.6727 63.0312 44.24C63.5832 44.8073 64.3805 45.091 65.4232 45.091C66.4505 45.091 67.2325 44.8073 67.7692 44.24C68.3212 43.6727 68.6815 42.9213 68.8502 41.986C69.0342 41.0507 69.1262 39.893 69.1262 38.513ZM74.0696 38.513C74.0696 35.8757 74.4989 33.821 75.3576 32.349C76.2162 30.8617 77.7189 30.118 79.8656 30.118C81.9969 30.118 83.4919 30.8617 84.3506 32.349C85.2092 33.821 85.6386 35.8757 85.6386 38.513C85.6386 41.1963 85.2092 43.2817 84.3506 44.769C83.4919 46.2563 81.9969 47 79.8656 47C77.7189 47 76.2162 46.2563 75.3576 44.769C74.4989 43.2817 74.0696 41.1963 74.0696 38.513ZM83.5686 38.513C83.5686 37.179 83.4766 36.052 83.2926 35.132C83.1239 34.1967 82.7636 33.4453 82.2116 32.878C81.6749 32.3107 80.8929 32.027 79.8656 32.027C78.8229 32.027 78.0256 32.3107 77.4736 32.878C76.9369 33.4453 76.5766 34.1967 76.3926 35.132C76.2239 36.052 76.1396 37.179 76.1396 38.513C76.1396 39.893 76.2239 41.0507 76.3926 41.986C76.5766 42.9213 76.9369 43.6727 77.4736 44.24C78.0256 44.8073 78.8229 45.091 79.8656 45.091C80.8929 45.091 81.6749 44.8073 82.2116 44.24C82.7636 43.6727 83.1239 42.9213 83.2926 41.986C83.4766 41.0507 83.5686 39.893 83.5686 38.513ZM88.5119 38.513C88.5119 35.8757 88.9413 33.821 89.7999 32.349C90.6586 30.8617 92.1613 30.118 94.3079 30.118C96.4393 30.118 97.9343 30.8617 98.7929 32.349C99.6516 33.821 100.081 35.8757 100.081 38.513C100.081 41.1963 99.6516 43.2817 98.7929 44.769C97.9343 46.2563 96.4393 47 94.3079 47C92.1613 47 90.6586 46.2563 89.7999 44.769C88.9413 43.2817 88.5119 41.1963 88.5119 38.513ZM98.0109 38.513C98.0109 37.179 97.9189 36.052 97.7349 35.132C97.5663 34.1967 97.2059 33.4453 96.6539 32.878C96.1173 32.3107 95.3353 32.027 94.3079 32.027C93.2653 32.027 92.4679 32.3107 91.9159 32.878C91.3793 33.4453 91.0189 34.1967 90.8349 35.132C90.6663 36.052 90.5819 37.179 90.5819 38.513C90.5819 39.893 90.6663 41.0507 90.8349 41.986C91.0189 42.9213 91.3793 43.6727 91.9159 44.24C92.4679 44.8073 93.2653 45.091 94.3079 45.091C95.3353 45.091 96.1173 44.8073 96.6539 44.24C97.2059 43.6727 97.5663 42.9213 97.7349 41.986C97.9189 41.0507 98.0109 39.893 98.0109 38.513ZM102.954 38.513C102.954 35.8757 103.384 33.821 104.242 32.349C105.101 30.8617 106.604 30.118 108.75 30.118C110.882 30.118 112.377 30.8617 113.235 32.349C114.094 33.821 114.523 35.8757 114.523 38.513C114.523 41.1963 114.094 43.2817 113.235 44.769C112.377 46.2563 110.882 47 108.75 47C106.604 47 105.101 46.2563 104.242 44.769C103.384 43.2817 102.954 41.1963 102.954 38.513ZM112.453 38.513C112.453 37.179 112.361 36.052 112.177 35.132C112.009 34.1967 111.648 33.4453 111.096 32.878C110.56 32.3107 109.778 32.027 108.75 32.027C107.708 32.027 106.91 32.3107 106.358 32.878C105.822 33.4453 105.461 34.1967 105.277 35.132C105.109 36.052 105.024 37.179 105.024 38.513C105.024 39.893 105.109 41.0507 105.277 41.986C105.461 42.9213 105.822 43.6727 106.358 44.24C106.91 44.8073 107.708 45.091 108.75 45.091C109.778 45.091 110.56 44.8073 111.096 44.24C111.648 43.6727 112.009 42.9213 112.177 41.986C112.361 41.0507 112.453 39.893 112.453 38.513Z" fill="white"/>
<rect x="185" y="9" width="126" height="60" rx="30" fill="#366B6D"/>
<path d="M208.467 37.42L207.593 41.56H210.767V43.4H207.202L206.213 48H204.212L205.201 43.4H200.371L199.382 48H197.381L198.37 43.4H194.759V41.56H198.761L199.635 37.42H196.07V35.58H200.026L201.015 30.98H203.016L202.027 35.58H206.857L207.846 30.98H209.847L208.858 35.58H212.055V37.42H208.467ZM206.466 37.42H201.636L200.762 41.56H205.592L206.466 37.42ZM214.696 35.557C214.804 34.1463 215.348 33.0423 216.329 32.245C217.311 31.4477 218.583 31.049 220.147 31.049C221.19 31.049 222.087 31.2407 222.838 31.624C223.605 31.992 224.18 32.498 224.563 33.142C224.962 33.786 225.161 34.5143 225.161 35.327C225.161 36.2777 224.885 37.098 224.333 37.788C223.797 38.478 223.091 38.9227 222.217 39.122V39.237C223.214 39.4823 224.004 39.9653 224.586 40.686C225.169 41.4067 225.46 42.3497 225.46 43.515C225.46 44.389 225.261 45.1787 224.862 45.884C224.464 46.574 223.866 47.1183 223.068 47.517C222.271 47.9157 221.313 48.115 220.193 48.115C218.568 48.115 217.234 47.6933 216.191 46.85C215.149 45.9913 214.566 44.78 214.443 43.216H216.467C216.575 44.136 216.95 44.8873 217.594 45.47C218.238 46.0527 219.097 46.344 220.17 46.344C221.244 46.344 222.056 46.068 222.608 45.516C223.176 44.9487 223.459 44.2203 223.459 43.331C223.459 42.181 223.076 41.353 222.309 40.847C221.543 40.341 220.385 40.088 218.836 40.088H218.307V38.34H218.859C220.27 38.3247 221.336 38.0947 222.056 37.65C222.777 37.19 223.137 36.4847 223.137 35.534C223.137 34.7213 222.869 34.0697 222.332 33.579C221.811 33.0883 221.06 32.843 220.078 32.843C219.128 32.843 218.361 33.0883 217.778 33.579C217.196 34.0697 216.851 34.729 216.743 35.557H214.696ZM237.555 35.327C237.218 33.625 236.168 32.774 234.404 32.774C233.04 32.774 232.02 33.303 231.345 34.361C230.671 35.4037 230.341 37.1287 230.356 39.536C230.709 38.7387 231.292 38.1177 232.104 37.673C232.932 37.213 233.852 36.983 234.864 36.983C236.444 36.983 237.701 37.4737 238.636 38.455C239.587 39.4363 240.062 40.7933 240.062 42.526C240.062 43.5687 239.855 44.504 239.441 45.332C239.043 46.16 238.429 46.8193 237.601 47.31C236.789 47.8007 235.8 48.046 234.634 48.046C233.055 48.046 231.821 47.6933 230.931 46.988C230.042 46.2827 229.421 45.309 229.068 44.067C228.716 42.825 228.539 41.2917 228.539 39.467C228.539 33.8397 230.502 31.026 234.427 31.026C235.93 31.026 237.111 31.4323 237.969 32.245C238.828 33.0577 239.334 34.085 239.487 35.327H237.555ZM234.427 38.754C233.768 38.754 233.147 38.892 232.564 39.168C231.982 39.4287 231.506 39.835 231.138 40.387C230.786 40.9237 230.609 41.583 230.609 42.365C230.609 43.5303 230.947 44.481 231.621 45.217C232.296 45.9377 233.262 46.298 234.519 46.298C235.593 46.298 236.444 45.9683 237.072 45.309C237.716 44.6343 238.038 43.7297 238.038 42.595C238.038 41.399 237.732 40.4637 237.118 39.789C236.505 39.099 235.608 38.754 234.427 38.754ZM252.155 35.327C251.818 33.625 250.767 32.774 249.004 32.774C247.639 32.774 246.62 33.303 245.945 34.361C245.27 35.4037 244.941 37.1287 244.956 39.536C245.309 38.7387 245.891 38.1177 246.704 37.673C247.532 37.213 248.452 36.983 249.464 36.983C251.043 36.983 252.301 37.4737 253.236 38.455C254.187 39.4363 254.662 40.7933 254.662 42.526C254.662 43.5687 254.455 44.504 254.041 45.332C253.642 46.16 253.029 46.8193 252.201 47.31C251.388 47.8007 250.399 48.046 249.234 48.046C247.655 48.046 246.42 47.6933 245.531 46.988C244.642 46.2827 244.021 45.309 243.668 44.067C243.315 42.825 243.139 41.2917 243.139 39.467C243.139 33.8397 245.102 31.026 249.027 31.026C250.53 31.026 251.71 31.4323 252.569 32.245C253.428 33.0577 253.934 34.085 254.087 35.327H252.155ZM249.027 38.754C248.368 38.754 247.747 38.892 247.164 39.168C246.581 39.4287 246.106 39.835 245.738 40.387C245.385 40.9237 245.209 41.583 245.209 42.365C245.209 43.5303 245.546 44.481 246.221 45.217C246.896 45.9377 247.862 46.298 249.119 46.298C250.192 46.298 251.043 45.9683 251.672 45.309C252.316 44.6343 252.638 43.7297 252.638 42.595C252.638 41.399 252.331 40.4637 251.718 39.789C251.105 39.099 250.208 38.754 249.027 38.754ZM265.858 39.743C266.44 39.835 266.969 40.0727 267.445 40.456C267.935 40.8393 268.319 41.3147 268.595 41.882C268.886 42.4493 269.032 43.055 269.032 43.699C269.032 44.5117 268.825 45.2477 268.411 45.907C267.997 46.551 267.391 47.0647 266.594 47.448C265.812 47.816 264.884 48 263.811 48H257.831V31.969H263.581C264.669 31.969 265.597 32.153 266.364 32.521C267.13 32.8737 267.705 33.3567 268.089 33.97C268.472 34.5833 268.664 35.2733 268.664 36.04C268.664 36.9907 268.403 37.7803 267.882 38.409C267.376 39.0223 266.701 39.467 265.858 39.743ZM259.924 38.892H263.443C264.424 38.892 265.183 38.662 265.72 38.202C266.256 37.742 266.525 37.1057 266.525 36.293C266.525 35.4803 266.256 34.844 265.72 34.384C265.183 33.924 264.409 33.694 263.397 33.694H259.924V38.892ZM263.627 46.275C264.669 46.275 265.482 46.0297 266.065 45.539C266.647 45.0483 266.939 44.366 266.939 43.492C266.939 42.6027 266.632 41.905 266.019 41.399C265.405 40.8777 264.585 40.617 263.558 40.617H259.924V46.275H263.627ZM280.86 35.327C280.523 33.625 279.472 32.774 277.709 32.774C276.344 32.774 275.325 33.303 274.65 34.361C273.975 35.4037 273.646 37.1287 273.661 39.536C274.014 38.7387 274.596 38.1177 275.409 37.673C276.237 37.213 277.157 36.983 278.169 36.983C279.748 36.983 281.006 37.4737 281.941 38.455C282.892 39.4363 283.367 40.7933 283.367 42.526C283.367 43.5687 283.16 44.504 282.746 45.332C282.347 46.16 281.734 46.8193 280.906 47.31C280.093 47.8007 279.104 48.046 277.939 48.046C276.36 48.046 275.125 47.6933 274.236 46.988C273.347 46.2827 272.726 45.309 272.373 44.067C272.02 42.825 271.844 41.2917 271.844 39.467C271.844 33.8397 273.807 31.026 277.732 31.026C279.235 31.026 280.415 31.4323 281.274 32.245C282.133 33.0577 282.639 34.085 282.792 35.327H280.86ZM277.732 38.754C277.073 38.754 276.452 38.892 275.869 39.168C275.286 39.4287 274.811 39.835 274.443 40.387C274.09 40.9237 273.914 41.583 273.914 42.365C273.914 43.5303 274.251 44.481 274.926 45.217C275.601 45.9377 276.567 46.298 277.824 46.298C278.897 46.298 279.748 45.9683 280.377 45.309C281.021 44.6343 281.343 43.7297 281.343 42.595C281.343 41.399 281.036 40.4637 280.423 39.789C279.81 39.099 278.913 38.754 277.732 38.754ZM291.527 31.969C293.275 31.969 294.785 32.2987 296.058 32.958C297.346 33.602 298.327 34.5297 299.002 35.741C299.692 36.9523 300.037 38.3783 300.037 40.019C300.037 41.6597 299.692 43.0857 299.002 44.297C298.327 45.493 297.346 46.413 296.058 47.057C294.785 47.6857 293.275 48 291.527 48H286.536V31.969H291.527ZM291.527 46.275C293.597 46.275 295.176 45.7307 296.265 44.642C297.353 43.538 297.898 41.997 297.898 40.019C297.898 38.0257 297.346 36.4693 296.242 35.35C295.153 34.2307 293.581 33.671 291.527 33.671H288.629V46.275H291.527Z" fill="white"/>
<rect x="370" y="8" width="126" height="60" rx="30" fill="#438689"/>
<path d="M394.467 36.42L393.593 40.56H396.767V42.4H393.202L392.213 47H390.212L391.201 42.4H386.371L385.382 47H383.381L384.37 42.4H380.759V40.56H384.761L385.635 36.42H382.07V34.58H386.026L387.015 29.98H389.016L388.027 34.58H392.857L393.846 29.98H395.847L394.858 34.58H398.055V36.42H394.467ZM392.466 36.42H387.636L386.762 40.56H391.592L392.466 36.42ZM400.236 43.297V41.71L408.309 30.532H410.816V41.48H413.116V43.297H410.816V47H408.746V43.297H400.236ZM408.838 32.717L402.651 41.48H408.838V32.717ZM415.161 34.557C415.268 33.1463 415.813 32.0423 416.794 31.245C417.775 30.4477 419.048 30.049 420.612 30.049C421.655 30.049 422.552 30.2407 423.303 30.624C424.07 30.992 424.645 31.498 425.028 32.142C425.427 32.786 425.626 33.5143 425.626 34.327C425.626 35.2777 425.35 36.098 424.798 36.788C424.261 37.478 423.556 37.9227 422.682 38.122V38.237C423.679 38.4823 424.468 38.9653 425.051 39.686C425.634 40.4067 425.925 41.3497 425.925 42.515C425.925 43.389 425.726 44.1787 425.327 44.884C424.928 45.574 424.33 46.1183 423.533 46.517C422.736 46.9157 421.777 47.115 420.658 47.115C419.033 47.115 417.699 46.6933 416.656 45.85C415.613 44.9913 415.031 43.78 414.908 42.216H416.932C417.039 43.136 417.415 43.8873 418.059 44.47C418.703 45.0527 419.562 45.344 420.635 45.344C421.708 45.344 422.521 45.068 423.073 44.516C423.64 43.9487 423.924 43.2203 423.924 42.331C423.924 41.181 423.541 40.353 422.774 39.847C422.007 39.341 420.85 39.088 419.301 39.088H418.772V37.34H419.324C420.735 37.3247 421.8 37.0947 422.521 36.65C423.242 36.19 423.602 35.4847 423.602 34.534C423.602 33.7213 423.334 33.0697 422.797 32.579C422.276 32.0883 421.524 31.843 420.543 31.843C419.592 31.843 418.826 32.0883 418.243 32.579C417.66 33.0697 417.315 33.729 417.208 34.557H415.161ZM431.787 38.352C430.928 38.0147 430.269 37.524 429.809 36.88C429.349 36.236 429.119 35.454 429.119 34.534C429.119 33.706 429.326 32.9623 429.74 32.303C430.154 31.6283 430.767 31.0993 431.58 30.716C432.408 30.3173 433.405 30.118 434.57 30.118C435.735 30.118 436.724 30.3173 437.537 30.716C438.365 31.0993 438.986 31.6283 439.4 32.303C439.829 32.9623 440.044 33.706 440.044 34.534C440.044 35.4233 439.806 36.2053 439.331 36.88C438.856 37.5393 438.204 38.03 437.376 38.352C438.327 38.6433 439.078 39.157 439.63 39.893C440.197 40.6137 440.481 41.4877 440.481 42.515C440.481 43.5117 440.236 44.3857 439.745 45.137C439.254 45.873 438.557 46.448 437.652 46.862C436.763 47.2607 435.735 47.46 434.57 47.46C433.405 47.46 432.377 47.2607 431.488 46.862C430.614 46.448 429.932 45.873 429.441 45.137C428.95 44.3857 428.705 43.5117 428.705 42.515C428.705 41.4877 428.981 40.606 429.533 39.87C430.085 39.134 430.836 38.628 431.787 38.352ZM438.02 34.787C438.02 33.8517 437.713 33.131 437.1 32.625C436.487 32.119 435.643 31.866 434.57 31.866C433.512 31.866 432.676 32.119 432.063 32.625C431.45 33.131 431.143 33.8593 431.143 34.81C431.143 35.6687 431.457 36.3587 432.086 36.88C432.73 37.4013 433.558 37.662 434.57 37.662C435.597 37.662 436.425 37.4013 437.054 36.88C437.698 36.3433 438.02 35.6457 438.02 34.787ZM434.57 39.272C433.435 39.272 432.508 39.5403 431.787 40.077C431.066 40.5983 430.706 41.388 430.706 42.446C430.706 43.4273 431.051 44.217 431.741 44.815C432.446 45.413 433.389 45.712 434.57 45.712C435.751 45.712 436.686 45.413 437.376 44.815C438.066 44.217 438.411 43.4273 438.411 42.446C438.411 41.4187 438.058 40.6367 437.353 40.1C436.648 39.548 435.72 39.272 434.57 39.272ZM452.53 34.327C452.193 32.625 451.142 31.774 449.379 31.774C448.014 31.774 446.995 32.303 446.32 33.361C445.645 34.4037 445.316 36.1287 445.331 38.536C445.684 37.7387 446.266 37.1177 447.079 36.673C447.907 36.213 448.827 35.983 449.839 35.983C451.418 35.983 452.676 36.4737 453.611 37.455C454.562 38.4363 455.037 39.7933 455.037 41.526C455.037 42.5687 454.83 43.504 454.416 44.332C454.017 45.16 453.404 45.8193 452.576 46.31C451.763 46.8007 450.774 47.046 449.609 47.046C448.03 47.046 446.795 46.6933 445.906 45.988C445.017 45.2827 444.396 44.309 444.043 43.067C443.69 41.825 443.514 40.2917 443.514 38.467C443.514 32.8397 445.477 30.026 449.402 30.026C450.905 30.026 452.085 30.4323 452.944 31.245C453.803 32.0577 454.309 33.085 454.462 34.327H452.53ZM449.402 37.754C448.743 37.754 448.122 37.892 447.539 38.168C446.956 38.4287 446.481 38.835 446.113 39.387C445.76 39.9237 445.584 40.583 445.584 41.365C445.584 42.5303 445.921 43.481 446.596 44.217C447.271 44.9377 448.237 45.298 449.494 45.298C450.567 45.298 451.418 44.9683 452.047 44.309C452.691 43.6343 453.013 42.7297 453.013 41.595C453.013 40.399 452.706 39.4637 452.093 38.789C451.48 38.099 450.583 37.754 449.402 37.754ZM460.896 38.352C460.038 38.0147 459.378 37.524 458.918 36.88C458.458 36.236 458.228 35.454 458.228 34.534C458.228 33.706 458.435 32.9623 458.849 32.303C459.263 31.6283 459.877 31.0993 460.689 30.716C461.517 30.3173 462.514 30.118 463.679 30.118C464.845 30.118 465.834 30.3173 466.646 30.716C467.474 31.0993 468.095 31.6283 468.509 32.303C468.939 32.9623 469.153 33.706 469.153 34.534C469.153 35.4233 468.916 36.2053 468.44 36.88C467.965 37.5393 467.313 38.03 466.485 38.352C467.436 38.6433 468.187 39.157 468.739 39.893C469.307 40.6137 469.59 41.4877 469.59 42.515C469.59 43.5117 469.345 44.3857 468.854 45.137C468.364 45.873 467.666 46.448 466.761 46.862C465.872 47.2607 464.845 47.46 463.679 47.46C462.514 47.46 461.487 47.2607 460.597 46.862C459.723 46.448 459.041 45.873 458.55 45.137C458.06 44.3857 457.814 43.5117 457.814 42.515C457.814 41.4877 458.09 40.606 458.642 39.87C459.194 39.134 459.946 38.628 460.896 38.352ZM467.129 34.787C467.129 33.8517 466.823 33.131 466.209 32.625C465.596 32.119 464.753 31.866 463.679 31.866C462.621 31.866 461.786 32.119 461.172 32.625C460.559 33.131 460.252 33.8593 460.252 34.81C460.252 35.6687 460.567 36.3587 461.195 36.88C461.839 37.4013 462.667 37.662 463.679 37.662C464.707 37.662 465.535 37.4013 466.163 36.88C466.807 36.3433 467.129 35.6457 467.129 34.787ZM463.679 39.272C462.545 39.272 461.617 39.5403 460.896 40.077C460.176 40.5983 459.815 41.388 459.815 42.446C459.815 43.4273 460.16 44.217 460.85 44.815C461.556 45.413 462.499 45.712 463.679 45.712C464.86 45.712 465.795 45.413 466.485 44.815C467.175 44.217 467.52 43.4273 467.52 42.446C467.52 41.4187 467.168 40.6367 466.462 40.1C465.757 39.548 464.829 39.272 463.679 39.272ZM475.061 42.538C475.215 43.412 475.567 44.0867 476.119 44.562C476.687 45.0373 477.446 45.275 478.396 45.275C479.669 45.275 480.604 44.7767 481.202 43.78C481.816 42.7833 482.107 41.1043 482.076 38.743C481.754 39.433 481.218 39.9773 480.466 40.376C479.715 40.7593 478.879 40.951 477.959 40.951C476.932 40.951 476.012 40.744 475.199 40.33C474.402 39.9007 473.773 39.2797 473.313 38.467C472.853 37.6543 472.623 36.673 472.623 35.523C472.623 33.8823 473.099 32.5637 474.049 31.567C475 30.555 476.349 30.049 478.097 30.049C480.244 30.049 481.747 30.7467 482.605 32.142C483.479 33.5373 483.916 35.615 483.916 38.375C483.916 40.307 483.74 41.9017 483.387 43.159C483.05 44.4163 482.467 45.3747 481.639 46.034C480.827 46.6933 479.707 47.023 478.281 47.023C476.717 47.023 475.498 46.6013 474.624 45.758C473.75 44.9147 473.252 43.8413 473.129 42.538H475.061ZM478.304 39.18C479.332 39.18 480.175 38.8657 480.834 38.237C481.494 37.593 481.823 36.7267 481.823 35.638C481.823 34.488 481.501 33.5603 480.857 32.855C480.213 32.1497 479.309 31.797 478.143 31.797C477.07 31.797 476.211 32.1343 475.567 32.809C474.939 33.4837 474.624 34.373 474.624 35.477C474.624 36.5963 474.939 37.4933 475.567 38.168C476.196 38.8427 477.108 39.18 478.304 39.18Z" fill="white"/>
<rect x="555" y="9" width="126" height="60" rx="30" fill="#51A1A4"/>
<path d="M585.467 37.42L584.593 41.56H587.767V43.4H584.202L583.213 48H581.212L582.201 43.4H577.371L576.382 48H574.381L575.37 43.4H571.759V41.56H575.761L576.635 37.42H573.07V35.58H577.026L578.015 30.98H580.016L579.027 35.58H583.857L584.846 30.98H586.847L585.858 35.58H589.055V37.42H585.467ZM583.466 37.42H578.636L577.762 41.56H582.592L583.466 37.42ZM602.345 33.188H594.272V38.432C594.625 37.9413 595.146 37.5427 595.836 37.236C596.526 36.914 597.27 36.753 598.067 36.753C599.34 36.753 600.375 37.0213 601.172 37.558C601.97 38.0793 602.537 38.7617 602.874 39.605C603.227 40.433 603.403 41.3147 603.403 42.25C603.403 43.354 603.196 44.343 602.782 45.217C602.368 46.091 601.732 46.781 600.873 47.287C600.03 47.793 598.98 48.046 597.722 48.046C596.112 48.046 594.809 47.632 593.812 46.804C592.816 45.976 592.21 44.872 591.995 43.492H594.042C594.242 44.366 594.663 45.0483 595.307 45.539C595.951 46.0297 596.764 46.275 597.745 46.275C598.957 46.275 599.869 45.9147 600.482 45.194C601.096 44.458 601.402 43.492 601.402 42.296C601.402 41.1 601.096 40.18 600.482 39.536C599.869 38.8767 598.964 38.547 597.768 38.547C596.956 38.547 596.243 38.7463 595.629 39.145C595.031 39.5283 594.594 40.0573 594.318 40.732H592.34V31.348H602.345V33.188ZM605.633 33.28V31.371H609.957V48H607.841V33.28H605.633ZM623.373 44.435H616.381L615.093 48H612.885L618.681 32.061H621.096L626.869 48H624.661L623.373 44.435ZM622.775 42.733L619.877 34.637L616.979 42.733H622.775ZM628.498 33.28V31.371H632.822V48H630.706V33.28H628.498ZM646.238 44.435H639.246L637.958 48H635.75L641.546 32.061H643.961L649.734 48H647.526L646.238 44.435ZM645.64 42.733L642.742 34.637L639.844 42.733H645.64ZM651.409 44.297V42.71L659.482 31.532H661.989V42.48H664.289V44.297H661.989V48H659.919V44.297H651.409ZM660.011 33.717L653.824 42.48H660.011V33.717Z" fill="black"/>
<rect x="740" y="8" width="126" height="60" rx="30" fill="#76B9BC"/>
<path d="M764.467 36.42L763.593 40.56H766.767V42.4H763.202L762.213 47H760.212L761.201 42.4H756.371L755.382 47H753.381L754.37 42.4H750.759V40.56H754.761L755.635 36.42H752.07V34.58H756.026L757.015 29.98H759.016L758.027 34.58H762.857L763.846 29.98H765.847L764.858 34.58H768.055V36.42H764.467ZM762.466 36.42H757.636L756.762 40.56H761.592L762.466 36.42ZM780.977 32.004L774.583 47H772.467L778.953 32.211H770.075V30.417H780.977V32.004ZM792.567 34.327C792.23 32.625 791.179 31.774 789.416 31.774C788.051 31.774 787.032 32.303 786.357 33.361C785.682 34.4037 785.353 36.1287 785.368 38.536C785.721 37.7387 786.303 37.1177 787.116 36.673C787.944 36.213 788.864 35.983 789.876 35.983C791.455 35.983 792.713 36.4737 793.648 37.455C794.599 38.4363 795.074 39.7933 795.074 41.526C795.074 42.5687 794.867 43.504 794.453 44.332C794.054 45.16 793.441 45.8193 792.613 46.31C791.8 46.8007 790.811 47.046 789.646 47.046C788.067 47.046 786.832 46.6933 785.943 45.988C785.054 45.2827 784.433 44.309 784.08 43.067C783.727 41.825 783.551 40.2917 783.551 38.467C783.551 32.8397 785.514 30.026 789.439 30.026C790.942 30.026 792.122 30.4323 792.981 31.245C793.84 32.0577 794.346 33.085 794.499 34.327H792.567ZM789.439 37.754C788.78 37.754 788.159 37.892 787.576 38.168C786.993 38.4287 786.518 38.835 786.15 39.387C785.797 39.9237 785.621 40.583 785.621 41.365C785.621 42.5303 785.958 43.481 786.633 44.217C787.308 44.9377 788.274 45.298 789.531 45.298C790.604 45.298 791.455 44.9683 792.084 44.309C792.728 43.6343 793.05 42.7297 793.05 41.595C793.05 40.399 792.743 39.4637 792.13 38.789C791.517 38.099 790.62 37.754 789.439 37.754ZM806.27 38.743C806.852 38.835 807.381 39.0727 807.857 39.456C808.347 39.8393 808.731 40.3147 809.007 40.882C809.298 41.4493 809.444 42.055 809.444 42.699C809.444 43.5117 809.237 44.2477 808.823 44.907C808.409 45.551 807.803 46.0647 807.006 46.448C806.224 46.816 805.296 47 804.223 47H798.243V30.969H803.993C805.081 30.969 806.009 31.153 806.776 31.521C807.542 31.8737 808.117 32.3567 808.501 32.97C808.884 33.5833 809.076 34.2733 809.076 35.04C809.076 35.9907 808.815 36.7803 808.294 37.409C807.788 38.0223 807.113 38.467 806.27 38.743ZM800.336 37.892H803.855C804.836 37.892 805.595 37.662 806.132 37.202C806.668 36.742 806.937 36.1057 806.937 35.293C806.937 34.4803 806.668 33.844 806.132 33.384C805.595 32.924 804.821 32.694 803.809 32.694H800.336V37.892ZM804.039 45.275C805.081 45.275 805.894 45.0297 806.477 44.539C807.059 44.0483 807.351 43.366 807.351 42.492C807.351 41.6027 807.044 40.905 806.431 40.399C805.817 39.8777 804.997 39.617 803.97 39.617H800.336V45.275H804.039ZM814.694 42.538C814.847 43.412 815.2 44.0867 815.752 44.562C816.319 45.0373 817.078 45.275 818.029 45.275C819.302 45.275 820.237 44.7767 820.835 43.78C821.448 42.7833 821.74 41.1043 821.709 38.743C821.387 39.433 820.85 39.9773 820.099 40.376C819.348 40.7593 818.512 40.951 817.592 40.951C816.565 40.951 815.645 40.744 814.832 40.33C814.035 39.9007 813.406 39.2797 812.946 38.467C812.486 37.6543 812.256 36.673 812.256 35.523C812.256 33.8823 812.731 32.5637 813.682 31.567C814.633 30.555 815.982 30.049 817.73 30.049C819.877 30.049 821.379 30.7467 822.238 32.142C823.112 33.5373 823.549 35.615 823.549 38.375C823.549 40.307 823.373 41.9017 823.02 43.159C822.683 44.4163 822.1 45.3747 821.272 46.034C820.459 46.6933 819.34 47.023 817.914 47.023C816.35 47.023 815.131 46.6013 814.257 45.758C813.383 44.9147 812.885 43.8413 812.762 42.538H814.694ZM817.937 39.18C818.964 39.18 819.808 38.8657 820.467 38.237C821.126 37.593 821.456 36.7267 821.456 35.638C821.456 34.488 821.134 33.5603 820.49 32.855C819.846 32.1497 818.941 31.797 817.776 31.797C816.703 31.797 815.844 32.1343 815.2 32.809C814.571 33.4837 814.257 34.373 814.257 35.477C814.257 36.5963 814.571 37.4933 815.2 38.168C815.829 38.8427 816.741 39.18 817.937 39.18ZM834.862 38.743C835.445 38.835 835.974 39.0727 836.449 39.456C836.94 39.8393 837.323 40.3147 837.599 40.882C837.891 41.4493 838.036 42.055 838.036 42.699C838.036 43.5117 837.829 44.2477 837.415 44.907C837.001 45.551 836.396 46.0647 835.598 46.448C834.816 46.816 833.889 47 832.815 47H826.835V30.969H832.585C833.674 30.969 834.602 31.153 835.368 31.521C836.135 31.8737 836.71 32.3567 837.093 32.97C837.477 33.5833 837.668 34.2733 837.668 35.04C837.668 35.9907 837.408 36.7803 836.886 37.409C836.38 38.0223 835.706 38.467 834.862 38.743ZM828.928 37.892H832.447C833.429 37.892 834.188 37.662 834.724 37.202C835.261 36.742 835.529 36.1057 835.529 35.293C835.529 34.4803 835.261 33.844 834.724 33.384C834.188 32.924 833.413 32.694 832.401 32.694H828.928V37.892ZM832.631 45.275C833.674 45.275 834.487 45.0297 835.069 44.539C835.652 44.0483 835.943 43.366 835.943 42.492C835.943 41.6027 835.637 40.905 835.023 40.399C834.41 39.8777 833.59 39.617 832.562 39.617H828.928V45.275H832.631ZM840.159 38.973C840.159 37.409 840.512 36.006 841.217 34.764C841.922 33.5067 842.881 32.5253 844.092 31.82C845.319 31.1147 846.676 30.762 848.163 30.762C849.911 30.762 851.437 31.1837 852.74 32.027C854.043 32.8703 854.994 34.0663 855.592 35.615H853.085C852.64 34.649 851.996 33.9053 851.153 33.384C850.325 32.8627 849.328 32.602 848.163 32.602C847.044 32.602 846.039 32.8627 845.15 33.384C844.261 33.9053 843.563 34.649 843.057 35.615C842.551 36.5657 842.298 37.685 842.298 38.973C842.298 40.2457 842.551 41.365 843.057 42.331C843.563 43.2817 844.261 44.0177 845.15 44.539C846.039 45.0603 847.044 45.321 848.163 45.321C849.328 45.321 850.325 45.068 851.153 44.562C851.996 44.0407 852.64 43.297 853.085 42.331H855.592C854.994 43.8643 854.043 45.0527 852.74 45.896C851.437 46.724 849.911 47.138 848.163 47.138C846.676 47.138 845.319 46.793 844.092 46.103C842.881 45.3977 841.922 44.424 841.217 43.182C840.512 41.94 840.159 40.537 840.159 38.973Z" fill="black"/>
<rect x="925" y="9" width="126" height="60" rx="30" fill="#9FCED0"/>
<path d="M949.467 37.42L948.593 41.56H951.767V43.4H948.202L947.213 48H945.212L946.201 43.4H941.371L940.382 48H938.381L939.37 43.4H935.759V41.56H939.761L940.635 37.42H937.07V35.58H941.026L942.015 30.98H944.016L943.027 35.58H947.857L948.846 30.98H950.847L949.858 35.58H953.055V37.42H949.467ZM947.466 37.42H942.636L941.762 41.56H946.592L947.466 37.42ZM958.433 43.538C958.587 44.412 958.939 45.0867 959.491 45.562C960.059 46.0373 960.818 46.275 961.768 46.275C963.041 46.275 963.976 45.7767 964.574 44.78C965.188 43.7833 965.479 42.1043 965.448 39.743C965.126 40.433 964.59 40.9773 963.838 41.376C963.087 41.7593 962.251 41.951 961.331 41.951C960.304 41.951 959.384 41.744 958.571 41.33C957.774 40.9007 957.145 40.2797 956.685 39.467C956.225 38.6543 955.995 37.673 955.995 36.523C955.995 34.8823 956.471 33.5637 957.421 32.567C958.372 31.555 959.721 31.049 961.469 31.049C963.616 31.049 965.119 31.7467 965.977 33.142C966.851 34.5373 967.288 36.615 967.288 39.375C967.288 41.307 967.112 42.9017 966.759 44.159C966.422 45.4163 965.839 46.3747 965.011 47.034C964.199 47.6933 963.079 48.023 961.653 48.023C960.089 48.023 958.87 47.6013 957.996 46.758C957.122 45.9147 956.624 44.8413 956.501 43.538H958.433ZM961.676 40.18C962.704 40.18 963.547 39.8657 964.206 39.237C964.866 38.593 965.195 37.7267 965.195 36.638C965.195 35.488 964.873 34.5603 964.229 33.855C963.585 33.1497 962.681 32.797 961.515 32.797C960.442 32.797 959.583 33.1343 958.939 33.809C958.311 34.4837 957.996 35.373 957.996 36.477C957.996 37.5963 958.311 38.4933 958.939 39.168C959.568 39.8427 960.48 40.18 961.676 40.18ZM979.637 31.969V33.671H972.668V39.076H978.326V40.778H972.668V48H970.575V31.969H979.637ZM981.383 39.973C981.383 38.409 981.735 37.006 982.441 35.764C983.146 34.5067 984.104 33.5253 985.316 32.82C986.542 32.1147 987.899 31.762 989.387 31.762C991.135 31.762 992.66 32.1837 993.964 33.027C995.267 33.8703 996.218 35.0663 996.816 36.615H994.309C993.864 35.649 993.22 34.9053 992.377 34.384C991.549 33.8627 990.552 33.602 989.387 33.602C988.267 33.602 987.263 33.8627 986.374 34.384C985.484 34.9053 984.787 35.649 984.281 36.615C983.775 37.5657 983.522 38.685 983.522 39.973C983.522 41.2457 983.775 42.365 984.281 43.331C984.787 44.2817 985.484 45.0177 986.374 45.539C987.263 46.0603 988.267 46.321 989.387 46.321C990.552 46.321 991.549 46.068 992.377 45.562C993.22 45.0407 993.864 44.297 994.309 43.331H996.816C996.218 44.8643 995.267 46.0527 993.964 46.896C992.66 47.724 991.135 48.138 989.387 48.138C987.899 48.138 986.542 47.793 985.316 47.103C984.104 46.3977 983.146 45.424 982.441 44.182C981.735 42.94 981.383 41.537 981.383 39.973ZM1002.02 33.671V39.03H1007.87V40.755H1002.02V46.275H1008.56V48H999.931V31.946H1008.56V33.671H1002.02ZM1016.71 31.969C1018.46 31.969 1019.97 32.2987 1021.25 32.958C1022.53 33.602 1023.51 34.5297 1024.19 35.741C1024.88 36.9523 1025.22 38.3783 1025.22 40.019C1025.22 41.6597 1024.88 43.0857 1024.19 44.297C1023.51 45.493 1022.53 46.413 1021.25 47.057C1019.97 47.6857 1018.46 48 1016.71 48H1011.72V31.969H1016.71ZM1016.71 46.275C1018.78 46.275 1020.36 45.7307 1021.45 44.642C1022.54 43.538 1023.09 41.997 1023.09 40.019C1023.09 38.0257 1022.53 36.4693 1021.43 35.35C1020.34 34.2307 1018.77 33.671 1016.71 33.671H1013.82V46.275H1016.71ZM1027.64 39.513C1027.64 36.8757 1028.07 34.821 1028.93 33.349C1029.79 31.8617 1031.29 31.118 1033.44 31.118C1035.57 31.118 1037.06 31.8617 1037.92 33.349C1038.78 34.821 1039.21 36.8757 1039.21 39.513C1039.21 42.1963 1038.78 44.2817 1037.92 45.769C1037.06 47.2563 1035.57 48 1033.44 48C1031.29 48 1029.79 47.2563 1028.93 45.769C1028.07 44.2817 1027.64 42.1963 1027.64 39.513ZM1037.14 39.513C1037.14 38.179 1037.05 37.052 1036.86 36.132C1036.69 35.1967 1036.33 34.4453 1035.78 33.878C1035.25 33.3107 1034.46 33.027 1033.44 33.027C1032.39 33.027 1031.6 33.3107 1031.04 33.878C1030.51 34.4453 1030.15 35.1967 1029.96 36.132C1029.79 37.052 1029.71 38.179 1029.71 39.513C1029.71 40.893 1029.79 42.0507 1029.96 42.986C1030.15 43.9213 1030.51 44.6727 1031.04 45.24C1031.6 45.8073 1032.39 46.091 1033.44 46.091C1034.46 46.091 1035.25 45.8073 1035.78 45.24C1036.33 44.6727 1036.69 43.9213 1036.86 42.986C1037.05 42.0507 1037.14 40.893 1037.14 39.513Z" fill="black"/>
<rect x="1110" y="8" width="126" height="60" rx="30" fill="#C8E3E4"/>
<path d="M1135.47 36.42L1134.59 40.56H1137.77V42.4H1134.2L1133.21 47H1131.21L1132.2 42.4H1127.37L1126.38 47H1124.38L1125.37 42.4H1121.76V40.56H1125.76L1126.64 36.42H1123.07V34.58H1127.03L1128.02 29.98H1130.02L1129.03 34.58H1133.86L1134.85 29.98H1136.85L1135.86 34.58H1139.06V36.42H1135.47ZM1133.47 36.42H1128.64L1127.76 40.56H1132.59L1133.47 36.42ZM1141.31 38.973C1141.31 37.409 1141.66 36.006 1142.36 34.764C1143.07 33.5067 1144.03 32.5253 1145.24 31.82C1146.47 31.1147 1147.82 30.762 1149.31 30.762C1151.06 30.762 1152.58 31.1837 1153.89 32.027C1155.19 32.8703 1156.14 34.0663 1156.74 35.615H1154.23C1153.79 34.649 1153.14 33.9053 1152.3 33.384C1151.47 32.8627 1150.47 32.602 1149.31 32.602C1148.19 32.602 1147.19 32.8627 1146.3 33.384C1145.41 33.9053 1144.71 34.649 1144.2 35.615C1143.7 36.5657 1143.44 37.685 1143.44 38.973C1143.44 40.2457 1143.7 41.365 1144.2 42.331C1144.71 43.2817 1145.41 44.0177 1146.3 44.539C1147.19 45.0603 1148.19 45.321 1149.31 45.321C1150.47 45.321 1151.47 45.068 1152.3 44.562C1153.14 44.0407 1153.79 43.297 1154.23 42.331H1156.74C1156.14 43.8643 1155.19 45.0527 1153.89 45.896C1152.58 46.724 1151.06 47.138 1149.31 47.138C1147.82 47.138 1146.47 46.793 1145.24 46.103C1144.03 45.3977 1143.07 44.424 1142.36 43.182C1141.66 41.94 1141.31 40.537 1141.31 38.973ZM1162.55 38.352C1161.69 38.0147 1161.03 37.524 1160.57 36.88C1160.11 36.236 1159.88 35.454 1159.88 34.534C1159.88 33.706 1160.08 32.9623 1160.5 32.303C1160.91 31.6283 1161.53 31.0993 1162.34 30.716C1163.17 30.3173 1164.16 30.118 1165.33 30.118C1166.49 30.118 1167.48 30.3173 1168.3 30.716C1169.12 31.0993 1169.74 31.6283 1170.16 32.303C1170.59 32.9623 1170.8 33.706 1170.8 34.534C1170.8 35.4233 1170.56 36.2053 1170.09 36.88C1169.61 37.5393 1168.96 38.03 1168.13 38.352C1169.08 38.6433 1169.84 39.157 1170.39 39.893C1170.96 40.6137 1171.24 41.4877 1171.24 42.515C1171.24 43.5117 1170.99 44.3857 1170.5 45.137C1170.01 45.873 1169.31 46.448 1168.41 46.862C1167.52 47.2607 1166.49 47.46 1165.33 47.46C1164.16 47.46 1163.14 47.2607 1162.25 46.862C1161.37 46.448 1160.69 45.873 1160.2 45.137C1159.71 44.3857 1159.46 43.5117 1159.46 42.515C1159.46 41.4877 1159.74 40.606 1160.29 39.87C1160.84 39.134 1161.59 38.628 1162.55 38.352ZM1168.78 34.787C1168.78 33.8517 1168.47 33.131 1167.86 32.625C1167.24 32.119 1166.4 31.866 1165.33 31.866C1164.27 31.866 1163.43 32.119 1162.82 32.625C1162.21 33.131 1161.9 33.8593 1161.9 34.81C1161.9 35.6687 1162.22 36.3587 1162.84 36.88C1163.49 37.4013 1164.32 37.662 1165.33 37.662C1166.36 37.662 1167.18 37.4013 1167.81 36.88C1168.46 36.3433 1168.78 35.6457 1168.78 34.787ZM1165.33 39.272C1164.19 39.272 1163.27 39.5403 1162.55 40.077C1161.82 40.5983 1161.46 41.388 1161.46 42.446C1161.46 43.4273 1161.81 44.217 1162.5 44.815C1163.2 45.413 1164.15 45.712 1165.33 45.712C1166.51 45.712 1167.44 45.413 1168.13 44.815C1168.82 44.217 1169.17 43.4273 1169.17 42.446C1169.17 41.4187 1168.82 40.6367 1168.11 40.1C1167.41 39.548 1166.48 39.272 1165.33 39.272ZM1176.46 32.671V38.03H1182.3V39.755H1176.46V45.275H1182.99V47H1174.36V30.946H1182.99V32.671H1176.46ZM1185.76 34.557C1185.87 33.1463 1186.42 32.0423 1187.4 31.245C1188.38 30.4477 1189.65 30.049 1191.22 30.049C1192.26 30.049 1193.16 30.2407 1193.91 30.624C1194.67 30.992 1195.25 31.498 1195.63 32.142C1196.03 32.786 1196.23 33.5143 1196.23 34.327C1196.23 35.2777 1195.95 36.098 1195.4 36.788C1194.87 37.478 1194.16 37.9227 1193.29 38.122V38.237C1194.28 38.4823 1195.07 38.9653 1195.65 39.686C1196.24 40.4067 1196.53 41.3497 1196.53 42.515C1196.53 43.389 1196.33 44.1787 1195.93 44.884C1195.53 45.574 1194.93 46.1183 1194.14 46.517C1193.34 46.9157 1192.38 47.115 1191.26 47.115C1189.64 47.115 1188.3 46.6933 1187.26 45.85C1186.22 44.9913 1185.63 43.78 1185.51 42.216H1187.54C1187.64 43.136 1188.02 43.8873 1188.66 44.47C1189.31 45.0527 1190.17 45.344 1191.24 45.344C1192.31 45.344 1193.12 45.068 1193.68 44.516C1194.24 43.9487 1194.53 43.2203 1194.53 42.331C1194.53 41.181 1194.14 40.353 1193.38 39.847C1192.61 39.341 1191.45 39.088 1189.9 39.088H1189.38V37.34H1189.93C1191.34 37.3247 1192.4 37.0947 1193.12 36.65C1193.85 36.19 1194.21 35.4847 1194.21 34.534C1194.21 33.7213 1193.94 33.0697 1193.4 32.579C1192.88 32.0883 1192.13 31.843 1191.15 31.843C1190.2 31.843 1189.43 32.0883 1188.85 32.579C1188.26 33.0697 1187.92 33.729 1187.81 34.557H1185.76ZM1201.79 32.671V38.03H1207.63V39.755H1201.79V45.275H1208.32V47H1199.7V30.946H1208.32V32.671H1201.79ZM1210.64 43.297V41.71L1218.71 30.532H1221.22V41.48H1223.52V43.297H1221.22V47H1219.15V43.297H1210.64ZM1219.24 32.717L1213.06 41.48H1219.24V32.717Z" fill="black"/>
<rect x="1295" y="9" width="126" height="60" rx="30" fill="#EDF2F2"/>
<path d="M1323.47 37.42L1322.59 41.56H1325.77V43.4H1322.2L1321.21 48H1319.21L1320.2 43.4H1315.37L1314.38 48H1312.38L1313.37 43.4H1309.76V41.56H1313.76L1314.64 37.42H1311.07V35.58H1315.03L1316.02 30.98H1318.02L1317.03 35.58H1321.86L1322.85 30.98H1324.85L1323.86 35.58H1327.06V37.42H1323.47ZM1321.47 37.42H1316.64L1315.76 41.56H1320.59L1321.47 37.42ZM1332.18 33.671V39.03H1338.02V40.755H1332.18V46.275H1338.71V48H1330.09V31.946H1338.71V33.671H1332.18ZM1346.87 31.969C1348.62 31.969 1350.13 32.2987 1351.4 32.958C1352.69 33.602 1353.67 34.5297 1354.35 35.741C1355.04 36.9523 1355.38 38.3783 1355.38 40.019C1355.38 41.6597 1355.04 43.0857 1354.35 44.297C1353.67 45.493 1352.69 46.413 1351.4 47.057C1350.13 47.6857 1348.62 48 1346.87 48H1341.88V31.969H1346.87ZM1346.87 46.275C1348.94 46.275 1350.52 45.7307 1351.61 44.642C1352.7 43.538 1353.24 41.997 1353.24 40.019C1353.24 38.0257 1352.69 36.4693 1351.59 35.35C1350.5 34.2307 1348.93 33.671 1346.87 33.671H1343.97V46.275H1346.87ZM1367.2 31.969V33.671H1360.23V39.076H1365.89V40.778H1360.23V48H1358.14V31.969H1367.2ZM1369.13 46.321C1371.08 44.757 1372.61 43.4767 1373.71 42.48C1374.81 41.468 1375.74 40.4177 1376.49 39.329C1377.26 38.225 1377.64 37.144 1377.64 36.086C1377.64 35.0893 1377.4 34.3073 1376.91 33.74C1376.43 33.1573 1375.66 32.866 1374.58 32.866C1373.54 32.866 1372.73 33.1957 1372.15 33.855C1371.58 34.499 1371.27 35.3653 1371.23 36.454H1369.2C1369.26 34.7367 1369.78 33.4103 1370.77 32.475C1371.75 31.5397 1373.01 31.072 1374.56 31.072C1376.14 31.072 1377.39 31.509 1378.31 32.383C1379.25 33.257 1379.71 34.4607 1379.71 35.994C1379.71 37.2667 1379.33 38.5087 1378.56 39.72C1377.81 40.916 1376.95 41.974 1375.99 42.894C1375.02 43.7987 1373.79 44.8567 1372.28 46.068H1380.2V47.816H1369.13V46.321ZM1392.02 31.969V33.671H1385.05V39.076H1390.71V40.778H1385.05V48H1382.96V31.969H1392.02ZM1393.95 46.321C1395.9 44.757 1397.43 43.4767 1398.53 42.48C1399.63 41.468 1400.56 40.4177 1401.31 39.329C1402.08 38.225 1402.46 37.144 1402.46 36.086C1402.46 35.0893 1402.22 34.3073 1401.73 33.74C1401.25 33.1573 1400.48 32.866 1399.4 32.866C1398.36 32.866 1397.55 33.1957 1396.97 33.855C1396.4 34.499 1396.09 35.3653 1396.05 36.454H1394.02C1394.08 34.7367 1394.6 33.4103 1395.59 32.475C1396.57 31.5397 1397.83 31.072 1399.38 31.072C1400.96 31.072 1402.21 31.509 1403.13 32.383C1404.06 33.257 1404.53 34.4607 1404.53 35.994C1404.53 37.2667 1404.15 38.5087 1403.38 39.72C1402.63 40.916 1401.77 41.974 1400.81 42.894C1399.84 43.7987 1398.61 44.8567 1397.1 46.068H1405.02V47.816H1393.95V46.321Z" fill="black"/>
<g filter="url(#filter0_d)">
<rect x="1480" y="8" width="126" height="60" rx="30" fill="white"/>
</g>
<path d="M1513.47 36.42L1512.59 40.56H1515.77V42.4H1512.2L1511.21 47H1509.21L1510.2 42.4H1505.37L1504.38 47H1502.38L1503.37 42.4H1499.76V40.56H1503.76L1504.64 36.42H1501.07V34.58H1505.03L1506.02 29.98H1508.02L1507.03 34.58H1511.86L1512.85 29.98H1514.85L1513.86 34.58H1517.06V36.42H1513.47ZM1511.47 36.42H1506.64L1505.76 40.56H1510.59L1511.47 36.42ZM1529.15 30.969V32.671H1522.18V38.076H1527.84V39.778H1522.18V47H1520.09V30.969H1529.15ZM1540.74 30.969V32.671H1533.77V38.076H1539.43V39.778H1533.77V47H1531.68V30.969H1540.74ZM1552.33 30.969V32.671H1545.36V38.076H1551.02V39.778H1545.36V47H1543.27V30.969H1552.33ZM1563.92 30.969V32.671H1556.95V38.076H1562.61V39.778H1556.95V47H1554.86V30.969H1563.92ZM1575.51 30.969V32.671H1568.54V38.076H1574.2V39.778H1568.54V47H1566.45V30.969H1575.51ZM1587.1 30.969V32.671H1580.13V38.076H1585.79V39.778H1580.13V47H1578.04V30.969H1587.1Z" fill="black"/>
<defs>
<filter id="filter0_d" x="1472" y="0" width="142" height="76" filterUnits="userSpaceOnUse" color-interpolation-filters="sRGB">
<feFlood flood-opacity="0" result="BackgroundImageFix"/>
<feColorMatrix in="SourceAlpha" type="matrix" values="0 0 0 0 0 0 0 0 0 0 0 0 0 0 0 0 0 0 127 0"/>
<feOffset/>
<feGaussianBlur stdDeviation="4"/>
<feColorMatrix type="matrix" values="0 0 0 0 0 0 0 0 0 0 0 0 0 0 0 0 0 0 0.1 0"/>
<feBlend mode="normal" in2="BackgroundImageFix" result="effect1_dropShadow"/>
<feBlend mode="normal" in="SourceGraphic" in2="effect1_dropShadow" result="shape"/>
</filter>
</defs>
</svg>
