<svg width="26" height="26" viewBox="0 0 26 26" fill="none" xmlns="http://www.w3.org/2000/svg">
<path d="M1.08333 2.16666C0.485025 2.16666 0 2.65168 0 3.24999V3.24999C0 3.8483 0.485025 4.33332 1.08333 4.33332H24.9167C25.515 4.33332 26 3.8483 26 3.24999V3.24999C26 2.65168 25.515 2.16666 24.9167 2.16666H1.08333ZM1.08333 11.9167C0.485025 11.9167 0 12.4017 0 13V13C0 13.5983 0.485025 14.0833 1.08333 14.0833H24.9167C25.515 14.0833 26 13.5983 26 13V13C26 12.4017 25.515 11.9167 24.9167 11.9167H1.08333ZM1.08333 21.6667C0.485025 21.6667 0 22.1517 0 22.75V22.75C0 23.3483 0.485025 23.8333 1.08333 23.8333H24.9167C25.515 23.8333 26 23.3483 26 22.75V22.75C26 22.1517 25.515 21.6667 24.9167 21.6667H1.08333Z" fill="black"/>
</svg>
