<svg width="62" height="60" viewBox="0 0 62 60" fill="none" xmlns="http://www.w3.org/2000/svg">
<path fill-rule="evenodd" clip-rule="evenodd" d="M20.9652 37.3644L21.0523 37.0344L27.9889 18.2149L35.0522 35.9869C35.0485 36.0131 35.0436 36.0391 35.0371 36.0647L36.2787 39.1093L36.2723 39.1119C36.2754 39.1225 36.2776 39.1335 36.2789 39.145C36.281 39.1648 36.2738 39.1903 36.2671 39.2139C36.2593 39.2419 36.2521 39.2673 36.2618 39.2781C36.2751 39.3153 36.3145 39.3421 36.3557 39.3701C36.3845 39.3896 36.4141 39.4097 36.4362 39.4343C36.4783 39.4813 36.5072 39.5345 36.5351 39.5858C36.5664 39.6436 36.5964 39.6989 36.6426 39.7403C36.5204 39.9224 36.6067 39.9824 36.6923 40.0419C36.7398 40.0749 36.787 40.1077 36.7984 40.1611C36.8015 40.1899 36.7923 40.2201 36.7831 40.2503C36.7717 40.288 36.7602 40.3257 36.7727 40.3608C36.7809 40.3777 36.799 40.3899 36.818 40.4027C36.846 40.4216 36.876 40.4419 36.8802 40.4805C36.8835 40.5109 36.8736 40.5476 36.8643 40.5822C36.8537 40.6215 36.8438 40.6582 36.8546 40.6802C36.8638 40.6993 36.8787 40.7086 36.8925 40.7172C36.9088 40.7273 36.9237 40.7366 36.9262 40.76C36.9282 40.7786 36.9216 40.798 36.9151 40.8175C36.9063 40.8435 36.8975 40.8694 36.9091 40.8932C36.9192 40.914 36.9521 40.9268 36.985 40.9397C37.0179 40.9525 37.0508 40.9654 37.0609 40.9862C37.094 41.0425 37.1094 41.1059 37.1245 41.1684C37.1535 41.2883 37.1817 41.4045 37.3328 41.4601C37.2987 41.6469 37.3614 41.7755 37.4261 41.9084C37.4929 42.0455 37.5619 42.1871 37.5292 42.4018C37.5985 42.4599 37.6678 42.5181 37.6328 42.6313C37.6417 42.6413 37.6612 42.6392 37.6787 42.6373C37.6962 42.6354 37.7118 42.6337 37.713 42.6445C37.7015 42.7532 37.7586 42.8281 37.8172 42.905C37.8779 42.9847 37.9402 43.0664 37.9295 43.1901L38.0074 43.1816C37.9623 43.4929 38.0465 43.834 38.2497 43.9652C38.2033 44.115 38.2689 44.2144 38.3381 44.3195C38.3735 44.3732 38.4098 44.4283 38.4328 44.4925C38.4427 44.5264 38.4435 44.5683 38.4442 44.6103C38.4454 44.6732 38.4465 44.7361 38.4788 44.772C38.5415 44.8527 38.5666 44.9661 38.5918 45.0795C38.6106 45.1646 38.6295 45.2496 38.6642 45.3209C38.6752 45.3435 38.704 45.3578 38.7337 45.3725C38.7585 45.3848 38.7841 45.3974 38.8004 45.4156C38.8739 45.462 38.8892 45.5315 38.9036 45.597C38.9124 45.6371 38.9209 45.6757 38.9422 45.7066C39.1199 45.9045 39.1807 46.192 39.2349 46.4481C39.2572 46.5534 39.2783 46.6533 39.306 46.7396C39.3224 46.7953 39.3714 46.8381 39.4233 46.8835C39.4505 46.9072 39.4785 46.9317 39.503 46.959C39.5523 47.0337 39.5573 47.1371 39.5625 47.2426C39.5672 47.3389 39.5719 47.437 39.6106 47.5164C39.6207 47.5372 39.642 47.5513 39.6632 47.5654C39.6844 47.5795 39.7056 47.5936 39.7157 47.6144C39.7482 47.6717 39.7566 47.7316 39.765 47.7915C39.7718 47.8394 39.7785 47.8873 39.7976 47.9339C39.8296 48.0288 39.8777 48.1142 39.9249 48.1982C40.0141 48.3569 40.1005 48.5104 40.071 48.714C40.2588 48.8961 40.356 49.1988 40.4509 49.4943C40.4894 49.6141 40.5275 49.7327 40.5711 49.8416C40.6725 49.8583 40.6718 49.9211 40.6712 49.9801C40.6708 50.0144 40.6705 50.0475 40.6903 50.0695C40.7232 50.1291 40.7628 50.1906 40.8037 50.2541C40.9328 50.4546 41.0753 50.6758 41.0665 50.926C41.3576 51.4426 41.5705 52.0133 41.784 52.5857C42.0138 53.2017 42.2443 53.8196 42.5737 54.3739C42.4944 54.5138 42.6174 54.6318 42.6999 54.6666C42.6578 54.7032 42.6573 54.7353 42.6568 54.776C42.6566 54.7909 42.6563 54.8069 42.654 54.8248C42.7867 54.8653 42.8036 54.9783 42.8214 55.0977C42.8321 55.1688 42.8431 55.2423 42.8792 55.3038C42.9722 55.2817 42.9913 55.3273 43.011 55.3741C43.027 55.4123 43.0433 55.4513 43.1003 55.4549C43.0665 55.4899 43.0467 55.4885 43.0312 55.4874C43.0142 55.4862 43.0023 55.4854 42.9828 55.5333C43.2055 55.524 43.2716 55.7318 43.3305 55.9173C43.3587 56.006 43.3853 56.0896 43.4267 56.1418C43.4243 56.1202 43.471 56.1151 43.471 56.1151C43.4392 56.1564 43.4766 56.1611 43.5149 56.166C43.5431 56.1695 43.5718 56.1732 43.5738 56.1915C43.6539 56.3875 43.8235 56.5057 43.9877 56.6201C44.0869 56.6893 44.1841 56.757 44.2583 56.8397C44.2318 56.8863 44.1392 57.0495 44.2482 57.0377C44.249 57.0315 44.2494 57.0254 44.2495 57.0193C44.2498 57.0104 44.2495 57.0015 44.2492 56.9928C44.2476 56.9432 44.246 56.8966 44.3385 56.8529C44.319 56.9644 44.4062 57.0425 44.5176 57.0523C44.5318 57.0873 44.5352 57.1185 44.5383 57.1465C44.5443 57.2026 44.549 57.2459 44.6367 57.2802C44.6377 57.2891 44.658 57.2772 44.6819 57.2633C44.7155 57.2435 44.7562 57.2197 44.7589 57.2451C44.7528 57.3319 44.7811 57.3832 44.8077 57.4316C44.8351 57.4815 44.8608 57.5283 44.8455 57.6077C44.97 57.5942 45.0487 57.7389 45.009 57.8089C45.0452 57.8172 45.0672 57.7859 45.0854 57.7599C45.0998 57.7395 45.1118 57.7225 45.1265 57.7305C45.2005 57.8319 45.2745 57.9333 45.2418 58.0682C45.3041 58.0614 45.382 58.053 45.4178 58.0929C45.4263 58.1023 45.4033 58.1152 45.3803 58.1281C45.3548 58.1423 45.3293 58.1566 45.3469 58.1662C45.3907 58.1734 45.4163 58.1436 45.4454 58.1098C45.4696 58.0816 45.4962 58.0506 45.5376 58.0362C45.5755 58.0643 45.6179 58.0563 45.6688 58.0468C45.687 58.0434 45.7063 58.0398 45.7268 58.0376C45.7037 58.1122 45.7568 58.1311 45.8155 58.1519C45.8458 58.1627 45.8777 58.174 45.9012 58.1938C45.9389 58.2253 45.9503 58.2726 45.9615 58.3188C45.971 58.3577 45.9803 58.3959 46.0048 58.4233C46.0279 58.449 46.0579 58.4578 46.0866 58.4662C46.1247 58.4774 46.1604 58.4879 46.1746 58.5362C46.1851 58.5655 46.1726 58.602 46.1601 58.6389C46.1455 58.6815 46.1308 58.7246 46.1513 58.7576C46.1653 58.7653 46.1828 58.7533 46.2001 58.7415C46.2239 58.7251 46.2472 58.7091 46.2603 58.7458C46.3639 58.9753 46.4651 59.1832 46.666 59.2928C46.5263 59.2061 46.4965 59.0841 46.4676 58.9659C46.4405 58.8553 46.4143 58.7481 46.3 58.6759C46.3469 58.6295 46.3268 58.6099 46.3077 58.5913C46.2863 58.5704 46.2661 58.5507 46.3435 58.4961C46.3154 58.4991 46.2923 58.5195 46.2749 58.5349C46.2537 58.5536 46.2407 58.5651 46.2369 58.5295C46.2359 58.5208 46.24 58.5117 46.244 58.5025C46.2501 58.4887 46.2562 58.4749 46.2454 58.4629C46.3377 58.4383 46.3591 58.4115 46.3891 58.374C46.4039 58.3555 46.4208 58.3343 46.4493 58.3095C46.4169 58.2187 46.3753 58.1439 46.3353 58.072C46.2918 57.9938 46.2502 57.9189 46.2242 57.8306C46.2075 57.8214 46.1892 57.8343 46.1709 57.8473C46.1526 57.8602 46.1343 57.8731 46.1176 57.864C46.1032 57.8408 46.0936 57.8202 46.0843 57.8004C46.0689 57.7675 46.0545 57.7367 46.021 57.6994C46.0436 57.6798 46.063 57.6605 46.0815 57.6421C46.1338 57.5902 46.179 57.5452 46.2693 57.5193C46.299 57.6415 46.392 57.7569 46.4897 57.878C46.5794 57.9892 46.6731 58.1053 46.7249 58.2359C46.7318 58.2594 46.7319 58.2868 46.732 58.3135C46.7324 58.3835 46.7326 58.4479 46.855 58.4188C46.7997 58.3572 46.8307 58.2613 46.8599 58.1714C46.8779 58.1157 46.8952 58.0624 46.8907 58.021C46.8825 57.9453 46.8293 57.8909 46.7762 57.8365C46.7231 57.782 46.6699 57.7276 46.6617 57.6519C46.6596 57.6328 46.6672 57.6169 46.6745 57.6015C46.6836 57.5821 46.6924 57.5636 46.6811 57.5404C46.6802 57.5314 46.6632 57.5242 46.6433 57.5157C46.6151 57.5038 46.5811 57.4893 46.5784 57.464C46.5756 57.4386 46.5897 57.419 46.6014 57.4027C46.6096 57.3912 46.6167 57.3813 46.6157 57.3724C46.6044 57.3408 46.5754 57.3275 46.5464 57.3142C46.5174 57.3009 46.4884 57.2877 46.4771 57.2561C46.4664 57.2142 46.4694 57.1641 46.4725 57.1125C46.4772 57.0329 46.4822 56.9499 46.4373 56.8883C46.4793 56.84 46.586 56.8066 46.6195 56.8249C46.6425 56.9328 46.6582 56.9733 46.6821 57.0348C46.6914 57.0586 46.7019 57.0857 46.7145 57.121C46.7277 57.0976 46.741 57.0743 46.7877 57.0693C46.789 57.0814 46.7877 57.092 46.7865 57.1014C46.7836 57.1257 46.7816 57.1417 46.8282 57.1524C46.7853 57.0476 46.9807 56.9608 47.0741 56.9507C47.0945 57.0743 47.1427 57.1991 47.1896 57.3208C47.2489 57.4744 47.3062 57.6229 47.3032 57.7576C47.3655 57.7508 47.4433 57.7424 47.4613 57.7623C47.5293 57.8674 47.5669 57.9989 47.606 58.1355C47.643 58.2648 47.6813 58.3987 47.7479 58.5192C47.7937 58.1966 47.6647 57.9567 47.5267 57.6999C47.503 57.656 47.4791 57.6115 47.4558 57.566C47.4611 57.5566 47.4763 57.5462 47.4916 57.5358C47.5145 57.5202 47.5373 57.5046 47.5266 57.4927C47.457 57.4152 47.4181 57.316 47.3835 57.2278C47.3646 57.1798 47.347 57.1348 47.3264 57.0985C47.3588 57.0613 47.3934 57.0239 47.4294 56.985C47.4868 56.923 47.5476 56.8573 47.6074 56.7836C47.5011 56.6025 47.5569 56.3774 47.612 56.155C47.6571 55.973 47.7018 55.7929 47.6569 55.6402C47.7029 55.6219 47.7249 55.5981 47.7451 55.5763C47.7581 55.5622 47.7703 55.549 47.7877 55.5385L48.0056 55.515C48.012 55.5327 48.0206 55.5485 48.0289 55.5636C48.0499 55.6021 48.0685 55.6361 48.0399 55.6863C48.2128 55.7922 48.2788 55.9948 48.3473 56.2055C48.3991 56.3649 48.4525 56.5289 48.5548 56.6592C48.6912 56.6444 48.7619 56.5746 48.8575 56.4802L48.8654 56.4724C48.8755 56.3762 48.8383 56.3099 48.8009 56.2433C48.7522 56.1566 48.7032 56.0694 48.7578 55.915C49.0193 55.7116 49.2528 55.6864 49.298 55.8128C49.4016 56.0423 49.4952 56.4699 49.4983 56.6446C49.703 56.9745 49.8386 57.3371 49.9749 57.7011C50.0927 58.0159 50.211 58.3319 50.3746 58.6288C50.3465 58.4344 50.2768 58.2712 50.209 58.1124C50.1266 57.9192 50.0469 57.7326 50.0482 57.5043C49.9882 57.5326 49.9727 57.5343 49.968 57.4911C49.897 57.1267 49.777 56.7458 49.5909 56.4814C49.6566 56.3782 49.6228 56.291 49.5881 56.2015C49.5517 56.1075 49.5143 56.0109 49.59 55.8906C49.8788 55.7937 50.0415 55.8418 50.1466 55.9398C50.1116 55.8679 50.1164 55.7772 50.1211 55.6887C50.1246 55.6236 50.1279 55.5598 50.1154 55.5055C50.1105 55.4599 50.083 55.4129 50.057 55.3684C50.0213 55.3073 49.9884 55.2508 50.0203 55.2094C50.0265 55.1985 50.0435 55.1912 50.0596 55.1843C50.0723 55.1788 50.0845 55.1736 50.0902 55.167C50.0931 55.1698 50.0946 55.1678 50.0935 55.1577C50.0939 55.1611 50.0926 55.1642 50.0902 55.167C50.0805 55.1578 50.0553 55.0962 50.0553 55.0962C50.0387 55.0838 50.0261 55.0779 50.0163 55.0733C49.996 55.0638 49.9884 55.0603 49.9837 55.0164C49.9743 54.9299 49.9743 54.9299 50.0296 54.8582C50.0132 54.7068 49.9641 54.5808 49.915 54.4548C49.866 54.3288 49.8169 54.2028 49.8005 54.0514C49.7982 54.0298 49.7756 53.9666 49.7756 53.9666C49.781 53.9441 49.796 53.937 49.811 53.9299C49.826 53.9228 49.841 53.9157 49.8464 53.8932C49.8452 53.8824 49.8297 53.8841 49.8141 53.8858C49.7985 53.8875 49.783 53.8892 49.7818 53.8784C49.7701 53.7702 49.756 53.6404 49.7288 53.5339C49.6795 53.3962 49.646 53.2307 49.6143 53.0745C49.5879 52.944 49.5627 52.8199 49.5308 52.7237C49.535 52.6914 49.5603 52.6826 49.5826 52.6748C49.6062 52.6666 49.6265 52.6596 49.6149 52.6271L49.606 52.5674C49.5507 52.1955 49.4901 51.7878 49.4036 51.4025C49.4014 51.3823 49.4276 51.3685 49.4524 51.3555C49.4805 51.3408 49.5067 51.3271 49.4876 51.3059C49.4919 51.2726 49.4647 51.2756 49.4355 51.2787C49.4063 51.2819 49.3751 51.2853 49.3716 51.2528C49.3981 51.2062 49.4246 51.1595 49.4666 51.1112C49.4249 50.7262 49.2755 50.3921 49.1213 50.0471C49.0762 49.9464 49.0308 49.8447 48.9875 49.7406C48.8917 49.5065 48.8099 49.2641 48.7295 49.0262C48.666 48.838 48.6034 48.6526 48.5356 48.4764C48.4961 48.3658 48.4457 48.2618 48.3961 48.1593C48.3038 47.9688 48.2141 47.7836 48.2014 47.5715C48.0504 47.3004 47.9565 47.0363 47.8602 46.7652C47.8318 46.6854 47.8033 46.605 47.773 46.5236C47.7371 46.4233 47.7099 46.3117 47.6829 46.2007C47.6419 46.0319 47.6011 45.8645 47.5307 45.7401C47.5205 45.7193 47.4993 45.7052 47.4781 45.6911C47.4569 45.677 47.4357 45.6629 47.4255 45.6421C47.4142 45.6105 47.4251 45.5655 47.436 45.5206C47.4469 45.4756 47.4578 45.4307 47.4465 45.3991C47.4192 45.2992 47.3636 45.2144 47.3095 45.1319C47.26 45.0564 47.2117 44.9829 47.1879 44.9018C47.1606 44.7954 47.1378 44.6939 47.115 44.5924L47.097 44.5123L46.9333 44.1109C46.9052 44.0747 46.8801 44.0375 46.8693 43.9953C46.8631 43.9781 46.8612 43.9572 46.8613 43.9342L43.9714 36.8479H44.0104C41.517 30.7098 37.5994 21.1594 31.874 7.43705H31.0594L20.3442 36.0109C14.6233 50.4997 13.0369 50.5486 11.0534 50.6098L11.0075 50.6112V51.5511H25.7331V50.6112C16.8532 50.9688 19.4229 42.144 20.4503 39.1234L20.9652 37.3644ZM45.6286 57.5667C45.5975 57.5701 45.5842 57.5934 45.5842 57.5934C45.4488 57.6519 45.606 57.5035 45.6286 57.5667ZM45.7447 57.6855C45.7183 57.6519 45.6919 57.6182 45.6777 57.5833C45.6138 57.6109 45.591 57.6291 45.5718 57.6444C45.5504 57.6615 45.5336 57.6749 45.4691 57.6934C45.4449 57.7617 45.4673 57.7866 45.492 57.8141C45.5166 57.8415 45.5434 57.8714 45.5283 57.9496C45.6225 57.9201 45.625 57.9517 45.6291 58.0043C45.6297 58.0112 45.6302 58.0185 45.6311 58.0261C45.7182 57.9848 45.7466 58.0167 45.7748 58.0482C45.8048 58.0817 45.8344 58.1148 45.9339 58.0589C45.9113 57.9957 45.9487 57.9041 45.9883 57.8342C45.96 57.8246 45.9044 57.8545 45.862 57.8773C45.8311 57.894 45.8072 57.9068 45.8062 57.8977C45.8503 57.82 45.7975 57.7527 45.7447 57.6855Z" fill="black"/>
<path d="M50.9086 55.128C50.8955 55.123 50.8832 55.1182 50.8716 55.1195C50.9194 55.1455 50.9159 55.1919 50.9128 55.2343C50.9094 55.2811 50.9063 55.3231 50.9729 55.3273C50.9894 55.2868 50.9768 55.2623 50.9649 55.2392C50.95 55.21 50.9361 55.1832 50.983 55.1293C50.9551 55.1461 50.9306 55.1366 50.9086 55.128Z" fill="black"/>
<path d="M49.2156 57.5747C49.2237 57.5838 49.2158 57.5946 49.2078 57.6054C49.1983 57.6184 49.1888 57.6313 49.207 57.6413C49.1849 57.6546 49.1732 57.6559 49.1635 57.657C49.1537 57.658 49.1459 57.6588 49.1315 57.6713C49.1263 57.7119 49.1425 57.7338 49.161 57.7591C49.1729 57.7753 49.1858 57.7929 49.1946 57.8177C49.1791 57.8194 49.1479 57.8227 49.1191 57.8477C49.2019 57.8503 49.1909 57.9049 49.1772 57.9736C49.1646 58.0361 49.1498 58.1101 49.201 58.1671C49.084 58.1231 49.0457 57.9511 49.0124 57.8021C48.9944 57.721 48.9778 57.6467 48.9509 57.6034C49.0043 57.5867 49.0156 57.6183 49.0268 57.6499C49.0381 57.6815 49.0494 57.7131 49.1028 57.6963C49.1341 57.6742 49.1369 57.6552 49.1394 57.6379C49.1428 57.6148 49.1457 57.5948 49.2156 57.5747Z" fill="black"/>
<path d="M46.9878 58.8225C46.9878 58.8225 46.9591 58.8475 46.9567 58.8259C46.9139 58.7211 46.9326 58.8941 47.0104 58.8857C47.0103 58.8841 47.0103 58.8823 47.0105 58.8803C47.0108 58.8776 47.0114 58.8744 47.0122 58.8711C47.0131 58.8673 47.0142 58.8631 47.0154 58.8589C47.0226 58.8323 47.0308 58.8022 46.9878 58.8225Z" fill="black"/>
<path d="M47.4647 59.6701C47.4571 59.6733 47.4492 59.6767 47.4407 59.6808C47.432 59.6849 47.4229 59.6896 47.4131 59.6955C47.417 59.7089 47.4219 59.7233 47.4269 59.7385C47.454 59.819 47.4879 59.9201 47.4303 60C47.3873 59.9766 47.3828 59.909 47.3781 59.839C47.3719 59.7454 47.3653 59.6476 47.266 59.6458C47.2804 59.6333 47.2825 59.6167 47.2846 59.6C47.2868 59.5834 47.2889 59.5667 47.3033 59.5542C47.1808 59.4705 47.1543 59.3361 47.1273 59.1986C47.1055 59.088 47.0833 58.9754 47.0104 58.8857C47.1581 58.8697 47.1611 58.9676 47.1641 59.0683C47.1672 59.1693 47.1703 59.2732 47.3196 59.268C47.3063 59.2913 47.2884 59.2714 47.2884 59.2714C47.2918 59.2844 47.2948 59.2991 47.2979 59.3149L47.3007 59.329C47.3228 59.4423 47.3541 59.6029 47.5174 59.6405C47.5012 59.6545 47.4843 59.6617 47.4647 59.6701Z" fill="black"/>
<path d="M50.6303 58.0563C50.6135 58.0472 50.5968 58.038 50.5735 58.0405C50.5159 58.0905 50.6894 58.0936 50.6871 58.072C50.6638 58.0745 50.647 58.0654 50.6303 58.0563Z" fill="black"/>
<path d="M15.3825 0L0 26.649L11.4461 46.4784L11.8918 45.536L0.989694 26.649L15.8775 0.857146H45.6529L60.5527 26.649L50.0703 44.7942L50.516 45.7363L61.5426 26.649L46.1476 0H15.3825Z" fill="black"/>
</svg>
