<svg width="819" height="556" viewBox="0 0 819 556" fill="none" xmlns="http://www.w3.org/2000/svg">
<path d="M793 322.5H731.9H679C664.1 322.5 650.9 310.2 650.9 295.3C650.9 280.4 664.1 268.5 679 268.5H698.5C713.4 268.5 725.9 256.2 725.9 241.3C725.9 226.4 713.4 214.5 698.5 214.5H625C610.1 214.5 596.9 202.2 596.9 187.3C596.9 172.4 610.1 160.5 625 160.5H731.9H740.5C755.4 160.5 767.9 148.2 767.9 133.3C767.9 118.4 755.4 106.5 740.5 106.5H627.8C620.9 97.8 613.5 89.3 605.5 81.3C497.1 -27.1 321.4 -27.1 213.1 81.3C171.2 123.2 145.5 175.2 136 229.5H51.6C36.7 229.5 24 241.7 24 256.6V257C24 271.9 36.7 283.5 51.6 283.5H117H135.6C150.5 283.5 162 295.7 162 310.6V311C162 325.9 150.5 337.5 135.6 337.5H117H26.1C11.2 337.5 0 349.7 0 364.6V365C0 379.9 11.2 391.5 26.1 391.5H117H189.6C204.5 391.5 216 403.7 216 418.6V419C216 433.9 204.5 445.5 189.6 445.5H117H104.1C89.2 445.5 78 457.7 78 472.6V473C78 487.9 89.2 499.5 104.1 499.5H242.7C351.4 581.3 506.5 572.7 605.4 473.7C634 445.1 655 411.9 668.5 376.5H792.9C807.8 376.5 818.8 364.2 818.8 349.3C818.9 334.3 807.9 322.5 793 322.5Z" fill="#FFE1E1" fill-opacity="0.5"/>
<path d="M674.9 394.5H656.9C655.2 394.5 653.9 393.2 653.9 391.5C653.9 389.8 655.2 388.5 656.9 388.5H674.9C676.6 388.5 677.9 389.8 677.9 391.5C677.9 393.1 676.6 394.5 674.9 394.5Z" fill="#303030"/>
<path d="M758.9 394.5H692.9C691.2 394.5 689.9 393.2 689.9 391.5C689.9 389.8 691.2 388.5 692.9 388.5H758.9C760.6 388.5 761.9 389.8 761.9 391.5C761.9 393.1 760.6 394.5 758.9 394.5Z" fill="#303030"/>
<path d="M704.9 376.5H638.9C637.2 376.5 635.9 375.2 635.9 373.5C635.9 371.8 637.2 370.5 638.9 370.5H704.9C706.6 370.5 707.9 371.8 707.9 373.5C707.9 375.1 706.6 376.5 704.9 376.5Z" fill="#303030"/>
<path d="M740.9 376.5H728.9C727.2 376.5 725.9 375.2 725.9 373.5C725.9 371.8 727.2 370.5 728.9 370.5H740.9C742.6 370.5 743.9 371.8 743.9 373.5C743.9 375.1 742.6 376.5 740.9 376.5Z" fill="#303030"/>
<path d="M128.9 301.5H119.9C118.2 301.5 116.9 300.2 116.9 298.5C116.9 296.8 118.2 295.5 119.9 295.5H128.9C130.6 295.5 131.9 296.8 131.9 298.5C131.9 300.1 130.6 301.5 128.9 301.5Z" fill="#303030"/>
<path d="M173.9 301.5H164.9C163.2 301.5 161.9 300.2 161.9 298.5C161.9 296.8 163.2 295.5 164.9 295.5H173.9C175.6 295.5 176.9 296.8 176.9 298.5C176.9 300.1 175.6 301.5 173.9 301.5Z" fill="#303030"/>
<path d="M127.9 319.6C127.1 319.6 126.4 319.3 125.8 318.7C124.6 317.5 124.6 315.6 125.8 314.5L132.2 308.1C133.4 306.9 135.3 306.9 136.4 308.1C137.6 309.3 137.6 311.2 136.4 312.3L130 318.7C129.5 319.3 128.7 319.6 127.9 319.6Z" fill="#303030"/>
<path d="M159.8 287.8C159 287.8 158.3 287.5 157.7 286.9C156.5 285.7 156.5 283.8 157.7 282.7L164.1 276.3C165.3 275.1 167.2 275.1 168.3 276.3C169.4 277.5 169.5 279.4 168.3 280.5L161.9 286.9C161.3 287.5 160.5 287.8 159.8 287.8Z" fill="#303030"/>
<path d="M146.9 328.5C145.2 328.5 143.9 327.2 143.9 325.5V316.5C143.9 314.8 145.2 313.5 146.9 313.5C148.6 313.5 149.9 314.8 149.9 316.5V325.5C149.9 327.1 148.6 328.5 146.9 328.5Z" fill="#303030"/>
<path d="M146.9 283.5C145.2 283.5 143.9 282.2 143.9 280.5V271.5C143.9 269.8 145.2 268.5 146.9 268.5C148.6 268.5 149.9 269.8 149.9 271.5V280.5C149.9 282.1 148.6 283.5 146.9 283.5Z" fill="#303030"/>
<path d="M166.1 319.6C165.3 319.6 164.6 319.3 164 318.7L157.6 312.3C156.4 311.1 156.4 309.2 157.6 308.1C158.8 306.9 160.7 306.9 161.8 308.1L168.2 314.5C169.4 315.7 169.4 317.6 168.2 318.7C167.7 319.3 166.9 319.6 166.1 319.6Z" fill="#303030"/>
<path d="M134.3 287.8C133.5 287.8 132.8 287.5 132.2 286.9L125.8 280.5C124.6 279.3 124.6 277.4 125.8 276.3C127 275.1 128.9 275.1 130 276.3L136.4 282.7C137.6 283.9 137.6 285.8 136.4 286.9C135.8 287.5 135.1 287.8 134.3 287.8Z" fill="#303030"/>
<path d="M252.3 530C251.2 530 250.2 529.4 249.7 528.4L246 521.7C244.3 518.7 241.9 516.2 238.8 514.5L232.1 510.8C231.1 510.3 230.5 509.3 230.5 508.2C230.5 507.1 231.1 506.1 232.1 505.6L238.8 501.9C241.8 500.2 244.3 497.8 246 494.7L249.7 488C250.2 487 251.2 486.4 252.3 486.4C253.4 486.4 254.4 487 254.9 488L258.6 494.7C260.3 497.7 262.7 500.2 265.8 501.9L272.5 505.6C273.5 506.1 274.1 507.1 274.1 508.2C274.1 509.3 273.5 510.3 272.5 510.8L265.8 514.5C262.8 516.2 260.3 518.6 258.6 521.7L254.9 528.4C254.4 529.4 253.4 530 252.3 530ZM239.8 508.2L241.7 509.2C245.7 511.4 249 514.7 251.3 518.8L252.3 520.7L253.3 518.8C255.5 514.8 258.8 511.4 262.9 509.2L264.8 508.2L262.9 507.2C258.9 505 255.5 501.7 253.3 497.6L252.3 495.7L251.3 497.6C249.1 501.6 245.8 504.9 241.7 507.2L239.8 508.2Z" fill="#303030"/>
<path d="M617.9 97.4999H611.9C610.2 97.4999 608.9 96.1999 608.9 94.4999C608.9 92.7999 610.2 91.4999 611.9 91.4999H617.9C619.6 91.4999 620.9 92.7999 620.9 94.4999C620.9 96.0999 619.6 97.4999 617.9 97.4999Z" fill="#303030"/>
<path d="M647.9 97.4999H641.9C640.2 97.4999 638.9 96.1999 638.9 94.4999C638.9 92.7999 640.2 91.4999 641.9 91.4999H647.9C649.6 91.4999 650.9 92.7999 650.9 94.4999C650.9 96.0999 649.6 97.4999 647.9 97.4999Z" fill="#303030"/>
<path d="M629.9 115.5C628.2 115.5 626.9 114.2 626.9 112.5V106.5C626.9 104.8 628.2 103.5 629.9 103.5C631.6 103.5 632.9 104.8 632.9 106.5V112.5C632.9 114.1 631.6 115.5 629.9 115.5Z" fill="#303030"/>
<path d="M629.9 85.4999C628.2 85.4999 626.9 84.1999 626.9 82.4999V76.4999C626.9 74.7999 628.2 73.4999 629.9 73.4999C631.6 73.4999 632.9 74.7999 632.9 76.4999V82.4999C632.9 84.0999 631.6 85.4999 629.9 85.4999Z" fill="#303030"/>
<path d="M179.9 187.5H158.9C157.2 187.5 155.9 186.2 155.9 184.5C155.9 182.8 157.2 181.5 158.9 181.5H179.9C181.6 181.5 182.9 182.8 182.9 184.5C182.9 186.1 181.6 187.5 179.9 187.5Z" fill="#303030"/>
<path d="M203.9 172.5H128.9C127.2 172.5 125.9 171.2 125.9 169.5C125.9 167.8 127.2 166.5 128.9 166.5H203.9C205.6 166.5 206.9 167.8 206.9 169.5C206.9 171.1 205.6 172.5 203.9 172.5Z" fill="#303030"/>
<path d="M143.9 187.5H89.8999C88.1999 187.5 86.8999 186.2 86.8999 184.5C86.8999 182.8 88.1999 181.5 89.8999 181.5H143.9C145.6 181.5 146.9 182.8 146.9 184.5C146.9 186.1 145.6 187.5 143.9 187.5Z" fill="#303030"/>
<path d="M519.6 401.8H281.6L371.6 102.4H429.6L519.6 401.8Z" fill="#FF9E5C"/>
<path d="M467.8 233.3L297.4 400.5H285.1L295.9 354.3L456 195.4L467.8 233.3Z" fill="#393939"/>
<path d="M438.7 133L332 236.8L352.1 171.7L420 106.5H430.1L438.7 133Z" fill="#393939"/>
<path d="M498.7 337L435.2 400.5H389.7L488.6 304.6L498.7 337Z" fill="#393939"/>
<path d="M371.6 102.4L281.6 401.8H315.4L383.6 102.4H371.6Z" fill="#FFB888"/>
<path d="M429.6 102.4H402.1L486.1 401.8H519.6L429.6 102.4Z" fill="#E5803C"/>
<path d="M467.8 232.8L456 195L434.1 216.7L444.9 255.2L467.8 232.8Z" fill="black"/>
<path d="M295.9 354.3L285.1 400.5H297.4L321.2 376.7L335.2 315.4L295.9 354.3Z" fill="#919191"/>
<path d="M438.7 133L430.1 106.5H420L406.6 118.9L416.6 154.6L438.7 133Z" fill="black"/>
<path d="M352.1 171.1L332 236.6L359 210.3L372.4 151.5L352.1 171.1Z" fill="#919191"/>
<path d="M488.6 303.9L465 326.7L474.5 360.5L498.7 336.5L488.6 303.9Z" fill="black"/>
<path d="M542.3 448.3H258.9C252.9 448.3 248 443.4 248 437.4V412.7C248 406.7 252.9 401.8 258.9 401.8H542.3C548.3 401.8 553.2 406.7 553.2 412.7V437.4C553.2 443.4 548.3 448.3 542.3 448.3Z" fill="#FF8533"/>
<path d="M551.9 440C551.9 445.8 547.3 451.4 541.5 451.4H515.7C515.7 451.4 522 445.8 522 440V413C522 407.2 515.7 403.4 515.7 403.4H541.6C547.4 403.4 552 407.2 552 413V440H551.9Z" fill="#EA6E1B"/>
<path d="M248.9 413C248.9 407.2 253.3 403.4 259.1 403.4H276C276 403.4 269.9 407.2 269.9 413V440C269.9 445.8 276 451.4 276 451.4H259.1C253.3 451.4 248.9 445.8 248.9 440V413Z" fill="#FF9E5C"/>
<path d="M479.7 454.3H258.9C249.6 454.3 242 446.7 242 437.4V412.7C242 403.4 249.6 395.8 258.9 395.8H324.1C327.4 395.8 330.1 398.5 330.1 401.8C330.1 405.1 327.4 407.8 324.1 407.8H258.9C256.2 407.8 254 410 254 412.7V437.4C254 440.1 256.2 442.3 258.9 442.3H479.7C483 442.3 485.7 445 485.7 448.3C485.7 451.6 483 454.3 479.7 454.3Z" fill="#303030"/>
<path d="M542.3 454.3H499.1C495.8 454.3 493.1 451.6 493.1 448.3C493.1 445 495.8 442.3 499.1 442.3H542.3C545 442.3 547.2 440.1 547.2 437.4V412.7C547.2 410 545 407.8 542.3 407.8H359.7C356.4 407.8 353.7 405.1 353.7 401.8C353.7 398.5 356.4 395.8 359.7 395.8H542.4C551.7 395.8 559.3 403.4 559.3 412.7V437.4C559.2 446.7 551.6 454.3 542.3 454.3Z" fill="#303030"/>
<path d="M342.8 407.8H341.7C338.4 407.8 335.7 405.1 335.7 401.8C335.7 398.5 338.4 395.8 341.7 395.8H342.8C346.1 395.8 348.8 398.5 348.8 401.8C348.8 405.1 346.1 407.8 342.8 407.8Z" fill="#303030"/>
<path d="M519.6 407.8C517 407.8 514.6 406.1 513.9 403.5L473 267.5C472 264.3 473.8 261 477 260C480.2 259 483.5 260.8 484.5 264L525.4 400C526.4 403.2 524.6 406.5 521.4 407.5C520.7 407.7 520.2 407.8 519.6 407.8Z" fill="#303030"/>
<path d="M473.8 255.3C471.2 255.3 468.8 253.6 468.1 251L425.2 108.3H376.1L371 125.3C370 128.5 366.7 130.3 363.5 129.3C360.3 128.3 358.5 125 359.5 121.8L365.9 100.6C366.7 98.1 369 96.3 371.6 96.3H429.6C432.2 96.3 434.6 98 435.3 100.6L479.5 247.5C480.5 250.7 478.7 254 475.5 255C474.9 255.2 474.3 255.3 473.8 255.3Z" fill="#303030"/>
<path d="M360.6 144.9C359 144.9 357.5 144.3 356.4 143.1C355.3 142 354.6 140.4 354.6 138.8C354.6 137.2 355.2 135.7 356.4 134.6C357.5 133.5 359.1 132.8 360.6 132.8C362.1 132.8 363.7 133.4 364.9 134.6C366 135.7 366.7 137.3 366.7 138.8C366.7 140.4 366.1 141.9 364.9 143.1C363.7 144.3 362.2 144.9 360.6 144.9Z" fill="#303030"/>
<path d="M281.6 407.8C281 407.8 280.4 407.7 279.9 407.5C276.7 406.5 274.9 403.2 275.9 400L350.3 152.4C351.3 149.2 354.6 147.4 357.8 148.4C361 149.4 362.8 152.7 361.8 155.9L287.4 403.5C286.6 406.1 284.2 407.8 281.6 407.8Z" fill="#303030"/>
</svg>
