<svg xmlns="http://www.w3.org/2000/svg" width="440" height="404" fill="none" viewBox="0 0 440 404">
    <path fill="#FAFAFA" fill-rule="evenodd" d="M221.727 312.833l-.346-193.728s-67.357 13.123-78.756 34.188c-11.399 21.064-31.434 44.547-24.525 75.626 6.908 31.424 18.307 55.942 33.506 68.374 15.199 12.777 21.416 17.266 21.416 17.266l11.745 63.195 12.78 2.072 4.491 16.575 33.16.691 7.6-16.921 13.817-4.144 9.326-62.158-44.214-1.036z" clip-rule="evenodd"/>
    <path fill="#9FCED0" fill-rule="evenodd" d="M221.727 312.838l-.345-193.725s21.071-3.453 34.542 7.942c13.472 11.396 14.508 12.432 14.508 12.432s22.107 2.762 31.433 17.611c9.327 14.849 3.8 32.461 3.8 32.461s16.235 20.374 17.617 35.568c1.381 14.849-11.745 20.374-11.745 20.374s2.764 23.136-8.981 30.733c-11.744 7.252-18.653 9.324-18.653 9.324s-2.763 27.281-16.234 28.316c-13.472 1.382-45.942-1.036-45.942-1.036z" clip-rule="evenodd"/>
    <path fill="#FAFAFA" d="M234.507 138.448c-2.072 0-3.454-1.727-3.108-3.799 0-2.072 1.727-3.453 3.799-3.108 0 0 22.453 1.381 21.762 26.936 0 2.071-1.727 3.453-3.454 3.453-2.073 0-3.455-1.727-3.455-3.453.346-19.339-15.544-20.029-15.544-20.029zm45.596 23.136c-1.727-1.036-2.072-3.107-1.036-4.834 1.036-1.727 3.109-2.072 4.836-1.036 0 0 16.58 10.014 9.672 29.698-.691 1.726-2.764 2.762-4.491 2.072-1.727-.691-2.763-2.763-2.072-4.489 5.181-14.159-6.909-21.411-6.909-21.411zm8.636 86.332c-1.036-1.382-.691-3.799.691-4.835 1.381-1.036 3.799-.691 4.836.691 0 0 13.126 16.921-5.182 26.935-1.727 1.036-3.799.345-4.836-1.381-1.036-1.727-.345-3.799 1.382-4.835 11.054-5.87 3.109-16.575 3.109-16.575z"/>
    <path fill="#9FCED0" fill-rule="evenodd" d="M185.803 224.085c-6.563-2.417-13.126-6.561-17.616-12.777-4.491-6.561-4.836-12.086-3.109-15.539.691-1.381 1.727-2.417 2.763-3.108 1.037-.691 2.418-1.036 3.455-1.036 3.108 0 6.217 2.417 8.981 7.942 2.763 5.871 4.49 14.504 5.526 24.518zm13.126 3.108c-1.381-13.122-3.454-24.863-7.253-32.805-4.836-10.36-12.436-14.849-19.69-15.195-3.799 0-7.253.691-10.362 2.763-3.109 1.727-5.527 4.489-7.254 7.942-3.8 7.252-3.454 17.612 4.145 28.317 7.599 10.705 18.307 16.23 29.015 18.992 1.037 14.849 1.037 31.079 1.037 45.583 0 8.978.345 18.993.345 25.554h12.781c-.346-6.907-.346-16.576-.346-25.554 0-13.813 0-29.007-1.036-43.165 5.527.345 11.054.69 14.508.345v-12.777c-3.8.691-10.017.691-15.89 0z" clip-rule="evenodd"/>
    <path fill="#366B6D" d="M233.126 384.662l-1.036 6.216h-24.18l-1.036-6.216H233.126zm-51.123-62.504l-.345-2.417h75.993l-2.072 13.468-73.576-11.051zm70.467 32.461l-67.012-10.36-1.382-9.324 69.775 10.705-1.381 8.979zM151.952 153.986c15.889-15.885 37.651-26.244 61.485-27.971v180.949h-37.651c-15.544-7.942-28.67-20.028-37.651-34.877-8.981-14.504-14.163-31.77-14.163-50.417 0-26.245 10.708-50.072 27.98-67.684zm74.266 153.324v-80.115c6.563 4.144 15.544 6.906 27.288 3.798 3.454-.69 5.527-4.144 4.491-7.597-.691-3.453-4.146-5.525-7.6-4.489-13.471 3.453-21.416-4.835-24.179-7.942v-85.986c6.563-.69 18.998-.345 29.706 9.324 12.435 11.396 5.872 29.698 3.8 34.532-10.363-4.144-20.38-1.726-20.38-1.726-3.455.69-5.527 4.143-4.836 7.597.691 3.453 4.145 5.525 7.599 4.834 0 0 8.29-1.726 15.89 3.108 6.563 4.144 5.872 13.468 5.872 13.468-.346 3.453 2.418 6.561 5.872 6.906 3.454.345 6.563-2.417 6.908-5.87 0 0 1.037-12.087-6.563-20.72 0-.345.346-.345.346-.69 0 0 6.908-14.504 4.836-29.698 2.763.691 5.526 1.381 7.944 2.417 5.182 2.417 9.672 6.216 12.781 10.705s4.836 10.015 5.181 15.885c0 4.835-1.036 9.669-3.454 14.849-1.382 3.108 0 6.906 3.109 8.288.345.345 1.036.345 1.727.345 4.491.691 7.945 3.108 10.363 6.561 2.072 2.417 3.454 5.525 4.145 9.324v.345c.691 3.453.691 7.252 0 10.705-.691 4.144-2.418 8.288-5.181 12.086-3.455-5.87-8.636-11.395-15.89-15.884-3.109-1.727-6.908-1.036-8.636 2.072-1.727 3.107-1.036 6.906 2.073 8.633 10.363 6.561 14.853 15.539 14.853 24.172 0 3.799-1.036 7.252-2.763 10.36-1.727 3.108-4.145 5.87-6.909 7.942-5.872 4.144-14.853 5.525-25.215 1.727.345-2.072.69-4.144.69-6.216 0-6.216-2.763-12.086-4.145-14.503-1.727-3.108-5.526-4.144-8.635-2.418-3.109 1.727-4.145 5.525-2.418 8.633 1.036 1.382 2.418 4.835 2.418 8.633 0 2.072-.346 4.144-1.727 6.216-1.037 1.382-2.073 2.763-3.455 3.799-1.727 1.381-3.799 2.417-5.526 3.453-3.109 1.381-4.491 5.18-3.109 8.288 1.381 3.108 5.181 4.489 8.29 3.108 2.418-1.036 5.181-2.763 7.945-4.835 1.036-.691 2.072-1.726 3.108-2.762 6.563 2.417 12.781 3.798 18.308 3.798-1.727 6.216-5.872 15.54-16.235 16.23h-38.687v-.69zm-6.909-193.726c-29.706.345-56.649 12.431-75.993 31.769-19.689 19.684-31.779 46.964-31.779 76.662 0 21.065 5.872 40.403 16.235 56.978 10.017 16.23 24.18 29.698 41.105 38.676l9.327 61.813c.345 3.108 3.109 5.525 6.217 5.525h9.327l2.418 13.468c.345 3.108 3.109 5.525 6.217 5.525h34.543c3.109 0 5.526-2.072 6.217-5.18l2.764-13.813h9.326c3.109 0 5.872-2.417 6.218-5.525l9.326-60.086c18.308-4.144 22.798-23.482 23.834-30.734 2.418-1.036 4.836-2.072 6.909-3.798 4.836-3.108 8.635-7.597 11.053-12.432 2.418-4.834 4.145-10.36 4.145-16.23 0-1.727 0-3.799-.345-5.525 7.254-6.561 11.399-14.849 12.781-23.482 1.036-5.18.691-10.705-.346-15.885v-.345c-1.036-5.18-3.454-10.015-6.563-14.159-2.763-3.798-6.563-6.906-11.053-8.978 1.381-4.835 2.072-9.324 2.072-13.813 0-8.288-2.763-16.23-7.254-22.791-4.49-6.561-10.708-11.741-17.962-15.194-5.526-2.418-11.399-4.144-17.962-4.49-1.727-2.762-3.799-5.18-6.217-7.597-17.617-15.194-39.724-11.741-44.56-10.359zM187.53 357.727l63.213 9.669-.691 4.834h-60.795l-1.727-14.503z"/>
    <g filter="url(#filter0_d)">
        <path fill="#C8E3E4" d="M322.245 108.403c-2.418 2.417-2.418 6.561 0 8.979 2.418 2.417 6.563 2.417 8.981 0l30.398-30.389c2.417-2.417 2.417-6.561 0-8.978-2.418-2.418-6.564-2.418-8.982 0l-30.397 30.388zm-212.78 9.669c2.418 2.418 6.563 2.418 8.981 0 2.418-2.417 2.418-6.561 0-8.978l-31.088-31.08c-2.418-2.417-6.564-2.417-8.982 0-2.418 2.418-2.418 6.562 0 8.979l31.089 31.079zm261.83 94.965c-3.454 0-6.217 2.762-6.217 6.215 0 3.454 2.763 6.216 6.217 6.216h42.487c3.455 0 6.218-2.762 6.218-6.216 0-3.453-2.763-6.215-6.218-6.215h-42.487zM70.086 225.814c3.455 0 6.218-2.763 6.218-6.216 0-3.453-2.763-6.216-6.218-6.216H26.218c-3.455 0-6.218 2.763-6.218 6.216 0 3.453 2.763 6.216 6.218 6.216h43.868zm261.831 96c-2.418-2.417-6.563-2.417-8.981 0s-2.418 6.561 0 8.978l29.706 29.698c2.418 2.418 6.564 2.418 8.982 0 2.417-2.417 2.417-6.561 0-8.978l-29.707-29.698zm-214.162 8.288c2.418-2.418 2.418-6.561 0-8.979-2.418-2.417-6.563-2.417-8.981 0l-30.398 30.389c-2.418 2.417-2.418 6.561 0 8.978 2.418 2.418 6.564 2.418 8.981 0l30.398-30.388zm96.027-260.72c0 3.453 2.764 6.215 6.218 6.215s6.218-2.762 6.218-6.215V26.216c0-3.453-2.764-6.216-6.218-6.216s-6.218 2.763-6.218 6.216v43.166z"/>
    </g>
    <defs>
        <filter id="filter0_d" width="440" height="382.303" x="0" y="0" color-interpolation-filters="sRGB" filterUnits="userSpaceOnUse">
            <feFlood flood-opacity="0" result="BackgroundImageFix"/>
            <feColorMatrix in="SourceAlpha" values="0 0 0 0 0 0 0 0 0 0 0 0 0 0 0 0 0 0 127 0"/>
            <feOffset/>
            <feGaussianBlur stdDeviation="10"/>
            <feColorMatrix values="0 0 0 0 0.623529 0 0 0 0 0.807843 0 0 0 0 0.815686 0 0 0 0.2 0"/>
            <feBlend in2="BackgroundImageFix" result="effect1_dropShadow"/>
            <feBlend in="SourceGraphic" in2="effect1_dropShadow" result="shape"/>
        </filter>
    </defs>
</svg>
