<svg width="579" height="50" viewBox="0 0 579 50" fill="none" xmlns="http://www.w3.org/2000/svg">
<path d="M174.391 20.566C174.391 22.546 173.742 24.141 172.444 25.351C171.146 26.561 169.199 27.166 166.603 27.166H161.95V37H159.64V13.933H166.603C169.177 13.933 171.113 14.538 172.411 15.748C173.731 16.958 174.391 18.564 174.391 20.566ZM166.603 25.186C170.211 25.186 172.015 23.646 172.015 20.566C172.015 19.026 171.586 17.86 170.728 17.068C169.87 16.276 168.495 15.88 166.603 15.88H161.95V25.186H166.603ZM194.819 27.067C194.819 27.859 194.797 28.464 194.753 28.882H179.804C179.87 30.246 180.2 31.412 180.794 32.38C181.388 33.348 182.169 34.085 183.137 34.591C184.105 35.075 185.161 35.317 186.305 35.317C187.801 35.317 189.055 34.954 190.067 34.228C191.101 33.502 191.783 32.523 192.113 31.291H194.555C194.115 33.051 193.169 34.492 191.717 35.614C190.287 36.714 188.483 37.264 186.305 37.264C184.611 37.264 183.093 36.89 181.751 36.142C180.409 35.372 179.353 34.294 178.583 32.908C177.835 31.5 177.461 29.861 177.461 27.991C177.461 26.121 177.835 24.482 178.583 23.074C179.331 21.666 180.376 20.588 181.718 19.84C183.06 19.092 184.589 18.718 186.305 18.718C188.021 18.718 189.517 19.092 190.793 19.84C192.091 20.588 193.081 21.6 193.763 22.876C194.467 24.13 194.819 25.527 194.819 27.067ZM192.476 27.001C192.498 25.659 192.223 24.515 191.651 23.569C191.101 22.623 190.342 21.908 189.374 21.424C188.406 20.94 187.35 20.698 186.206 20.698C184.49 20.698 183.027 21.248 181.817 22.348C180.607 23.448 179.936 24.999 179.804 27.001H192.476ZM201.605 22.183C202.111 21.061 202.881 20.192 203.915 19.576C204.971 18.96 206.258 18.652 207.776 18.652V21.061H207.149C205.477 21.061 204.135 21.512 203.123 22.414C202.111 23.316 201.605 24.823 201.605 26.935V37H199.295V18.982H201.605V22.183ZM217.705 37.264C215.637 37.264 213.943 36.791 212.623 35.845C211.325 34.877 210.599 33.568 210.445 31.918H212.821C212.931 32.93 213.404 33.755 214.24 34.393C215.098 35.009 216.242 35.317 217.672 35.317C218.926 35.317 219.905 35.02 220.609 34.426C221.335 33.832 221.698 33.095 221.698 32.215C221.698 31.599 221.5 31.093 221.104 30.697C220.708 30.301 220.202 29.993 219.586 29.773C218.992 29.531 218.178 29.278 217.144 29.014C215.802 28.662 214.713 28.31 213.877 27.958C213.041 27.606 212.326 27.089 211.732 26.407C211.16 25.703 210.874 24.768 210.874 23.602C210.874 22.722 211.138 21.908 211.666 21.16C212.194 20.412 212.942 19.818 213.91 19.378C214.878 18.938 215.978 18.718 217.21 18.718C219.146 18.718 220.708 19.213 221.896 20.203C223.084 21.171 223.722 22.513 223.81 24.229H221.5C221.434 23.173 221.016 22.326 220.246 21.688C219.498 21.028 218.464 20.698 217.144 20.698C215.978 20.698 215.032 20.973 214.306 21.523C213.58 22.073 213.217 22.755 213.217 23.569C213.217 24.273 213.426 24.856 213.844 25.318C214.284 25.758 214.823 26.11 215.461 26.374C216.099 26.616 216.957 26.891 218.035 27.199C219.333 27.551 220.367 27.892 221.137 28.222C221.907 28.552 222.567 29.036 223.117 29.674C223.667 30.312 223.953 31.159 223.975 32.215C223.975 33.183 223.711 34.052 223.183 34.822C222.655 35.57 221.918 36.164 220.972 36.604C220.026 37.044 218.937 37.264 217.705 37.264ZM236.461 37.264C234.767 37.264 233.238 36.89 231.874 36.142C230.532 35.372 229.465 34.294 228.673 32.908C227.903 31.5 227.518 29.861 227.518 27.991C227.518 26.121 227.914 24.493 228.706 23.107C229.498 21.699 230.576 20.621 231.94 19.873C233.304 19.103 234.833 18.718 236.527 18.718C238.221 18.718 239.75 19.103 241.114 19.873C242.5 20.621 243.578 21.699 244.348 23.107C245.14 24.493 245.536 26.121 245.536 27.991C245.536 29.839 245.14 31.467 244.348 32.875C243.556 34.283 242.467 35.372 241.081 36.142C239.695 36.89 238.155 37.264 236.461 37.264ZM236.461 35.251C237.649 35.251 238.749 34.987 239.761 34.459C240.773 33.909 241.587 33.095 242.203 32.017C242.841 30.917 243.16 29.575 243.16 27.991C243.16 26.407 242.852 25.076 242.236 23.998C241.62 22.898 240.806 22.084 239.794 21.556C238.782 21.006 237.682 20.731 236.494 20.731C235.306 20.731 234.206 21.006 233.194 21.556C232.182 22.084 231.368 22.898 230.752 23.998C230.158 25.076 229.861 26.407 229.861 27.991C229.861 29.575 230.158 30.917 230.752 32.017C231.368 33.095 232.171 33.909 233.161 34.459C234.173 34.987 235.273 35.251 236.461 35.251ZM258.444 18.652C260.6 18.652 262.36 19.323 263.724 20.665C265.088 21.985 265.77 23.91 265.77 26.44V37H263.493V26.704C263.493 24.746 262.998 23.25 262.008 22.216C261.04 21.182 259.709 20.665 258.015 20.665C256.277 20.665 254.891 21.215 253.857 22.315C252.823 23.415 252.306 25.032 252.306 27.166V37H249.996V18.982H252.306V22.051C252.878 20.951 253.703 20.115 254.781 19.543C255.859 18.949 257.08 18.652 258.444 18.652ZM270.073 27.958C270.073 26.11 270.436 24.493 271.162 23.107C271.91 21.699 272.933 20.621 274.231 19.873C275.551 19.103 277.036 18.718 278.686 18.718C280.402 18.718 281.876 19.114 283.108 19.906C284.362 20.698 285.264 21.71 285.814 22.942V18.982H288.124V37H285.814V33.007C285.242 34.239 284.329 35.262 283.075 36.076C281.843 36.868 280.369 37.264 278.653 37.264C277.025 37.264 275.551 36.879 274.231 36.109C272.933 35.339 271.91 34.25 271.162 32.842C270.436 31.434 270.073 29.806 270.073 27.958ZM285.814 27.991C285.814 26.539 285.517 25.263 284.923 24.163C284.329 23.063 283.515 22.216 282.481 21.622C281.469 21.028 280.347 20.731 279.115 20.731C277.839 20.731 276.695 21.017 275.683 21.589C274.671 22.161 273.868 22.997 273.274 24.097C272.702 25.175 272.416 26.462 272.416 27.958C272.416 29.432 272.702 30.73 273.274 31.852C273.868 32.952 274.671 33.799 275.683 34.393C276.695 34.965 277.839 35.251 279.115 35.251C280.347 35.251 281.469 34.954 282.481 34.36C283.515 33.766 284.329 32.919 284.923 31.819C285.517 30.719 285.814 29.443 285.814 27.991ZM302.458 24.955C302.458 21.171 303.041 18.234 304.207 16.144C305.373 14.054 307.463 13.009 310.477 13.009C313.491 13.009 315.581 14.054 316.747 16.144C317.913 18.234 318.496 21.171 318.496 24.955C318.496 28.805 317.913 31.786 316.747 33.898C315.581 36.01 313.491 37.066 310.477 37.066C307.441 37.066 305.34 36.01 304.174 33.898C303.03 31.786 302.458 28.805 302.458 24.955ZM316.219 24.955C316.219 22.909 316.076 21.182 315.79 19.774C315.504 18.366 314.943 17.233 314.107 16.375C313.271 15.517 312.061 15.088 310.477 15.088C308.893 15.088 307.683 15.517 306.847 16.375C306.011 17.233 305.45 18.366 305.164 19.774C304.878 21.182 304.735 22.909 304.735 24.955C304.735 27.067 304.878 28.838 305.164 30.268C305.45 31.676 306.011 32.809 306.847 33.667C307.683 34.525 308.893 34.954 310.477 34.954C312.061 34.954 313.271 34.525 314.107 33.667C314.943 32.809 315.504 31.676 315.79 30.268C316.076 28.838 316.219 27.067 316.219 24.955ZM322.581 35.185C326.629 32.149 329.753 29.432 331.953 27.034C334.175 24.614 335.286 22.249 335.286 19.939C335.286 18.421 334.901 17.211 334.131 16.309C333.383 15.385 332.151 14.923 330.435 14.923C328.763 14.923 327.465 15.451 326.541 16.507C325.639 17.541 325.133 18.927 325.023 20.665H322.779C322.911 18.223 323.659 16.331 325.023 14.989C326.409 13.625 328.213 12.943 330.435 12.943C332.569 12.943 334.296 13.548 335.616 14.758C336.936 15.946 337.596 17.64 337.596 19.84C337.596 22.502 336.485 25.087 334.263 27.595C332.063 30.081 329.346 32.512 326.112 34.888H338.322V36.835H322.581V35.185ZM354.817 40.3H352.507V10.93H354.817V40.3ZM372.449 35.119H380.732V37H370.139V13.933H372.449V35.119ZM385.434 15.583C384.972 15.583 384.576 15.418 384.246 15.088C383.916 14.758 383.751 14.351 383.751 13.867C383.751 13.383 383.916 12.987 384.246 12.679C384.576 12.349 384.972 12.184 385.434 12.184C385.896 12.184 386.292 12.349 386.622 12.679C386.952 12.987 387.117 13.383 387.117 13.867C387.117 14.351 386.952 14.758 386.622 15.088C386.292 15.418 385.896 15.583 385.434 15.583ZM386.589 18.982V37H384.279V18.982H386.589ZM398.274 37.264C396.206 37.264 394.512 36.791 393.192 35.845C391.894 34.877 391.168 33.568 391.014 31.918H393.39C393.5 32.93 393.973 33.755 394.809 34.393C395.667 35.009 396.811 35.317 398.241 35.317C399.495 35.317 400.474 35.02 401.178 34.426C401.904 33.832 402.267 33.095 402.267 32.215C402.267 31.599 402.069 31.093 401.673 30.697C401.277 30.301 400.771 29.993 400.155 29.773C399.561 29.531 398.747 29.278 397.713 29.014C396.371 28.662 395.282 28.31 394.446 27.958C393.61 27.606 392.895 27.089 392.301 26.407C391.729 25.703 391.443 24.768 391.443 23.602C391.443 22.722 391.707 21.908 392.235 21.16C392.763 20.412 393.511 19.818 394.479 19.378C395.447 18.938 396.547 18.718 397.779 18.718C399.715 18.718 401.277 19.213 402.465 20.203C403.653 21.171 404.291 22.513 404.379 24.229H402.069C402.003 23.173 401.585 22.326 400.815 21.688C400.067 21.028 399.033 20.698 397.713 20.698C396.547 20.698 395.601 20.973 394.875 21.523C394.149 22.073 393.786 22.755 393.786 23.569C393.786 24.273 393.995 24.856 394.413 25.318C394.853 25.758 395.392 26.11 396.03 26.374C396.668 26.616 397.526 26.891 398.604 27.199C399.902 27.551 400.936 27.892 401.706 28.222C402.476 28.552 403.136 29.036 403.686 29.674C404.236 30.312 404.522 31.159 404.544 32.215C404.544 33.183 404.28 34.052 403.752 34.822C403.224 35.57 402.487 36.164 401.541 36.604C400.595 37.044 399.506 37.264 398.274 37.264ZM408.086 27.958C408.086 26.11 408.449 24.493 409.175 23.107C409.923 21.699 410.946 20.621 412.244 19.873C413.564 19.103 415.049 18.718 416.699 18.718C418.415 18.718 419.889 19.114 421.121 19.906C422.375 20.698 423.277 21.71 423.827 22.942V18.982H426.137V37H423.827V33.007C423.255 34.239 422.342 35.262 421.088 36.076C419.856 36.868 418.382 37.264 416.666 37.264C415.038 37.264 413.564 36.879 412.244 36.109C410.946 35.339 409.923 34.25 409.175 32.842C408.449 31.434 408.086 29.806 408.086 27.958ZM423.827 27.991C423.827 26.539 423.53 25.263 422.936 24.163C422.342 23.063 421.528 22.216 420.494 21.622C419.482 21.028 418.36 20.731 417.128 20.731C415.852 20.731 414.708 21.017 413.696 21.589C412.684 22.161 411.881 22.997 411.287 24.097C410.715 25.175 410.429 26.462 410.429 27.958C410.429 29.432 410.715 30.73 411.287 31.852C411.881 32.952 412.684 33.799 413.696 34.393C414.708 34.965 415.852 35.251 417.128 35.251C418.36 35.251 419.482 34.954 420.494 34.36C421.528 33.766 422.342 32.919 422.936 31.819C423.53 30.719 423.827 29.443 423.827 27.991ZM451.625 13.933V31.39C451.625 33.15 451.086 34.569 450.008 35.647C448.93 36.703 447.489 37.231 445.685 37.231C443.815 37.231 442.319 36.67 441.197 35.548C440.097 34.404 439.547 32.864 439.547 30.928H441.89C441.912 32.182 442.22 33.205 442.814 33.997C443.43 34.789 444.387 35.185 445.685 35.185C446.917 35.185 447.83 34.822 448.424 34.096C449.018 33.37 449.315 32.468 449.315 31.39V13.933H451.625ZM465.571 37.264C463.877 37.264 462.348 36.89 460.984 36.142C459.642 35.372 458.575 34.294 457.783 32.908C457.013 31.5 456.628 29.861 456.628 27.991C456.628 26.121 457.024 24.493 457.816 23.107C458.608 21.699 459.686 20.621 461.05 19.873C462.414 19.103 463.943 18.718 465.637 18.718C467.331 18.718 468.86 19.103 470.224 19.873C471.61 20.621 472.688 21.699 473.458 23.107C474.25 24.493 474.646 26.121 474.646 27.991C474.646 29.839 474.25 31.467 473.458 32.875C472.666 34.283 471.577 35.372 470.191 36.142C468.805 36.89 467.265 37.264 465.571 37.264ZM465.571 35.251C466.759 35.251 467.859 34.987 468.871 34.459C469.883 33.909 470.697 33.095 471.313 32.017C471.951 30.917 472.27 29.575 472.27 27.991C472.27 26.407 471.962 25.076 471.346 23.998C470.73 22.898 469.916 22.084 468.904 21.556C467.892 21.006 466.792 20.731 465.604 20.731C464.416 20.731 463.316 21.006 462.304 21.556C461.292 22.084 460.478 22.898 459.862 23.998C459.268 25.076 458.971 26.407 458.971 27.991C458.971 29.575 459.268 30.917 459.862 32.017C460.478 33.095 461.281 33.909 462.271 34.459C463.283 34.987 464.383 35.251 465.571 35.251ZM487.687 18.652C489.051 18.652 490.272 18.938 491.35 19.51C492.45 20.082 493.308 20.962 493.924 22.15C494.562 23.316 494.881 24.746 494.881 26.44V37H492.604V26.704C492.604 24.746 492.109 23.25 491.119 22.216C490.151 21.182 488.82 20.665 487.126 20.665C485.388 20.665 484.002 21.215 482.968 22.315C481.934 23.415 481.417 25.032 481.417 27.166V37H479.107V12.58H481.417V22.051C481.989 20.973 482.825 20.137 483.925 19.543C485.047 18.949 486.301 18.652 487.687 18.652ZM508.688 18.652C510.844 18.652 512.604 19.323 513.968 20.665C515.332 21.985 516.014 23.91 516.014 26.44V37H513.737V26.704C513.737 24.746 513.242 23.25 512.252 22.216C511.284 21.182 509.953 20.665 508.259 20.665C506.521 20.665 505.135 21.215 504.101 22.315C503.067 23.415 502.55 25.032 502.55 27.166V37H500.24V18.982H502.55V22.051C503.122 20.951 503.947 20.115 505.025 19.543C506.103 18.949 507.324 18.652 508.688 18.652ZM527.576 37.264C525.508 37.264 523.814 36.791 522.494 35.845C521.196 34.877 520.47 33.568 520.316 31.918H522.692C522.802 32.93 523.275 33.755 524.111 34.393C524.969 35.009 526.113 35.317 527.543 35.317C528.797 35.317 529.776 35.02 530.48 34.426C531.206 33.832 531.569 33.095 531.569 32.215C531.569 31.599 531.371 31.093 530.975 30.697C530.579 30.301 530.073 29.993 529.457 29.773C528.863 29.531 528.049 29.278 527.015 29.014C525.673 28.662 524.584 28.31 523.748 27.958C522.912 27.606 522.197 27.089 521.603 26.407C521.031 25.703 520.745 24.768 520.745 23.602C520.745 22.722 521.009 21.908 521.537 21.16C522.065 20.412 522.813 19.818 523.781 19.378C524.749 18.938 525.849 18.718 527.081 18.718C529.017 18.718 530.579 19.213 531.767 20.203C532.955 21.171 533.593 22.513 533.681 24.229H531.371C531.305 23.173 530.887 22.326 530.117 21.688C529.369 21.028 528.335 20.698 527.015 20.698C525.849 20.698 524.903 20.973 524.177 21.523C523.451 22.073 523.088 22.755 523.088 23.569C523.088 24.273 523.297 24.856 523.715 25.318C524.155 25.758 524.694 26.11 525.332 26.374C525.97 26.616 526.828 26.891 527.906 27.199C529.204 27.551 530.238 27.892 531.008 28.222C531.778 28.552 532.438 29.036 532.988 29.674C533.538 30.312 533.824 31.159 533.846 32.215C533.846 33.183 533.582 34.052 533.054 34.822C532.526 35.57 531.789 36.164 530.843 36.604C529.897 37.044 528.808 37.264 527.576 37.264ZM546.332 37.264C544.638 37.264 543.109 36.89 541.745 36.142C540.403 35.372 539.336 34.294 538.544 32.908C537.774 31.5 537.389 29.861 537.389 27.991C537.389 26.121 537.785 24.493 538.577 23.107C539.369 21.699 540.447 20.621 541.811 19.873C543.175 19.103 544.704 18.718 546.398 18.718C548.092 18.718 549.621 19.103 550.985 19.873C552.371 20.621 553.449 21.699 554.219 23.107C555.011 24.493 555.407 26.121 555.407 27.991C555.407 29.839 555.011 31.467 554.219 32.875C553.427 34.283 552.338 35.372 550.952 36.142C549.566 36.89 548.026 37.264 546.332 37.264ZM546.332 35.251C547.52 35.251 548.62 34.987 549.632 34.459C550.644 33.909 551.458 33.095 552.074 32.017C552.712 30.917 553.031 29.575 553.031 27.991C553.031 26.407 552.723 25.076 552.107 23.998C551.491 22.898 550.677 22.084 549.665 21.556C548.653 21.006 547.553 20.731 546.365 20.731C545.177 20.731 544.077 21.006 543.065 21.556C542.053 22.084 541.239 22.898 540.623 23.998C540.029 25.076 539.732 26.407 539.732 27.991C539.732 29.575 540.029 30.917 540.623 32.017C541.239 33.095 542.042 33.909 543.032 34.459C544.044 34.987 545.144 35.251 546.332 35.251ZM568.316 18.652C570.472 18.652 572.232 19.323 573.596 20.665C574.96 21.985 575.642 23.91 575.642 26.44V37H573.365V26.704C573.365 24.746 572.87 23.25 571.88 22.216C570.912 21.182 569.581 20.665 567.887 20.665C566.149 20.665 564.763 21.215 563.729 22.315C562.695 23.415 562.178 25.032 562.178 27.166V37H559.868V18.982H562.178V22.051C562.75 20.951 563.575 20.115 564.653 19.543C565.731 18.949 566.952 18.652 568.316 18.652Z" fill="white"/>
<line y1="20.5" x2="150" y2="20.5" stroke="white"/>
</svg>
